<?xml version="1.0" encoding="utf-8" standalone="no"?>
<!DOCTYPE svg PUBLIC "-//W3C//DTD SVG 1.1//EN"
  "http://www.w3.org/Graphics/SVG/1.1/DTD/svg11.dtd">
<svg xmlns:xlink="http://www.w3.org/1999/xlink" width="404.219531pt" height="265.689687pt" viewBox="0 0 404.219531 265.689687" xmlns="http://www.w3.org/2000/svg" version="1.1">
 <metadata>
  <rdf:RDF xmlns:dc="http://purl.org/dc/elements/1.1/" xmlns:cc="http://creativecommons.org/ns#" xmlns:rdf="http://www.w3.org/1999/02/22-rdf-syntax-ns#">
   <cc:Work>
    <dc:type rdf:resource="http://purl.org/dc/dcmitype/StillImage"/>
    <dc:date>2024-09-14T12:48:57.952381</dc:date>
    <dc:format>image/svg+xml</dc:format>
    <dc:creator>
     <cc:Agent>
      <dc:title>Matplotlib v3.9.2, https://matplotlib.org/</dc:title>
     </cc:Agent>
    </dc:creator>
   </cc:Work>
  </rdf:RDF>
 </metadata>
 <defs>
  <style type="text/css">*{stroke-linejoin: round; stroke-linecap: butt}</style>
 </defs>
 <g id="figure_1">
  <g id="patch_1">
   <path d="M 0 265.689687 
L 404.219531 265.689687 
L 404.219531 0 
L 0 0 
z
" style="fill: #ffffff"/>
  </g>
  <g id="axes_1">
   <g id="patch_2">
    <path d="M 52.489063 228.96 
L 387.289062 228.96 
L 387.289062 7.2 
L 52.489063 7.2 
z
" style="fill: #ffffff"/>
   </g>
   <g id="PolyCollection_1">
    <path d="M 52.489063 211.015149 
L 52.489063 228.436944 
L 54.863632 228.410979 
L 57.238202 228.36412 
L 59.612772 228.302207 
L 61.987342 228.237206 
L 64.361912 228.192195 
L 66.736482 228.175477 
L 69.111052 228.165455 
L 71.485622 228.144922 
L 73.860192 228.119528 
L 76.234762 228.092068 
L 78.609332 228.047183 
L 80.983902 227.96336 
L 83.358472 227.826882 
L 85.733042 227.674369 
L 88.107612 227.614124 
L 90.482182 227.703041 
L 92.856752 227.869655 
L 95.231322 228.021744 
L 97.605892 228.118088 
L 99.980462 228.166375 
L 102.355032 228.181735 
L 104.729602 228.159289 
L 107.104172 228.088522 
L 109.478742 227.98759 
L 111.853312 227.905318 
L 114.227882 227.871866 
L 116.602452 227.884598 
L 118.977022 227.925525 
L 121.351592 227.976714 
L 123.726162 228.030924 
L 126.100732 228.086267 
L 128.475302 228.144497 
L 130.849872 228.205453 
L 133.224442 228.27336 
L 135.599012 228.354856 
L 137.973582 228.438571 
L 140.348152 228.50549 
L 142.722722 228.556639 
L 145.097292 228.597096 
L 147.471862 228.622914 
L 149.846432 228.627635 
L 152.221002 228.601144 
L 154.595572 228.532557 
L 156.970142 228.425151 
L 159.344712 228.316483 
L 161.719282 228.262713 
L 164.093852 228.267129 
L 166.468422 228.289159 
L 168.842992 228.31258 
L 171.217562 228.344805 
L 173.592132 228.387351 
L 175.966702 228.430812 
L 178.341272 228.459657 
L 180.715842 228.456845 
L 183.090412 228.415243 
L 185.464982 228.358045 
L 187.839552 228.337452 
L 190.214122 228.380573 
L 192.588692 228.456988 
L 194.963262 228.521209 
L 197.337832 228.553505 
L 199.712402 228.557847 
L 202.086972 228.549715 
L 204.461542 228.548073 
L 206.836112 228.560647 
L 209.210682 228.574546 
L 211.585252 228.57396 
L 213.959822 228.557978 
L 216.334392 228.53579 
L 218.708962 228.520259 
L 221.083532 228.520588 
L 223.458102 228.539988 
L 225.832672 228.568912 
L 228.207242 228.594699 
L 230.581812 228.6153 
L 232.956382 228.633004 
L 235.330952 228.651622 
L 237.705522 228.67738 
L 240.080092 228.710675 
L 242.454662 228.742054 
L 244.829232 228.763263 
L 247.203802 228.774848 
L 249.578372 228.781323 
L 251.952942 228.786366 
L 254.327512 228.793708 
L 256.702082 228.807318 
L 259.076652 228.826709 
L 261.451222 228.846357 
L 263.825792 228.86219 
L 266.200362 228.874009 
L 268.574932 228.882991 
L 270.949502 228.889514 
L 273.324072 228.893271 
L 275.698642 228.894685 
L 278.073212 228.895667 
L 280.447782 228.898607 
L 282.822352 228.903323 
L 285.196922 228.906336 
L 287.571492 228.905297 
L 289.946062 228.900152 
L 292.320632 228.892021 
L 294.695202 228.882771 
L 297.069772 228.874016 
L 299.444342 228.866467 
L 301.818912 228.861345 
L 304.193482 228.860763 
L 306.568052 228.864696 
L 308.942622 228.870935 
L 311.317192 228.877301 
L 313.691762 228.881493 
L 316.066332 228.881996 
L 318.440902 228.879658 
L 320.815472 228.877507 
L 323.190042 228.878424 
L 325.564612 228.882723 
L 327.939182 228.888387 
L 330.313752 228.893401 
L 332.688322 228.897077 
L 335.062892 228.899473 
L 337.437462 228.900959 
L 339.812032 228.902486 
L 342.186602 228.90483 
L 344.561172 228.907144 
L 346.935742 228.907939 
L 349.310312 228.90662 
L 351.684882 228.903368 
L 354.059452 228.898771 
L 356.434022 228.894108 
L 358.808592 228.891181 
L 361.183162 228.890803 
L 363.557732 228.892371 
L 365.932302 228.894858 
L 368.306872 228.897403 
L 370.681441 228.899299 
L 373.056011 228.9 
L 375.430581 228.899502 
L 377.805151 228.8987 
L 380.179721 228.898762 
L 382.554291 228.899773 
L 384.928861 228.900959 
L 387.303431 228.901923 
L 389.678001 228.902899 
L 392.052571 228.904186 
L 394.427141 228.905806 
L 396.801711 228.907598 
L 399.176281 228.909316 
L 401.550851 228.910652 
L 403.925421 228.91116 
L 406.299991 228.910445 
L 408.674561 228.908603 
L 411.049131 228.906273 
L 413.423701 228.90433 
L 415.798271 228.903368 
L 418.172841 228.903378 
L 420.547411 228.904052 
L 422.921981 228.905206 
L 425.296551 228.906637 
L 427.671121 228.907812 
L 430.045691 228.908142 
L 432.420261 228.90758 
L 434.794831 228.906801 
L 437.169401 228.90653 
L 439.543971 228.906639 
L 441.918541 228.906289 
L 444.293111 228.904945 
L 446.667681 228.903079 
L 449.042251 228.90186 
L 451.416821 228.901774 
L 453.791391 228.901845 
L 456.165961 228.900804 
L 458.540531 228.898365 
L 460.915101 228.895078 
L 463.289671 228.891601 
L 465.664241 228.888517 
L 468.038811 228.886297 
L 470.413381 228.884776 
L 472.787951 228.88294 
L 475.162521 228.87972 
L 477.537091 228.874956 
L 479.911661 228.869497 
L 482.286231 228.864215 
L 484.660801 228.85882 
L 487.035371 228.851916 
L 489.409941 228.841928 
L 491.784511 228.827807 
L 494.159081 228.80957 
L 496.533651 228.787929 
L 498.908221 228.763262 
L 501.282791 228.735624 
L 503.657361 228.705014 
L 506.031931 228.669813 
L 508.406501 228.624584 
L 510.781071 228.559863 
L 513.155641 228.461422 
L 515.530211 228.308316 
L 517.904781 228.07951 
L 520.279351 227.763474 
L 522.653921 227.353655 
L 525.028491 226.847855 
L 525.028491 144.399025 
L 525.028491 144.399025 
L 522.653921 167.160363 
L 520.279351 185.935954 
L 517.904781 199.631901 
L 515.530211 208.316638 
L 513.155641 213.153136 
L 510.781071 215.711406 
L 508.406501 217.198674 
L 506.031931 218.260269 
L 503.657361 219.222211 
L 501.282791 220.251393 
L 498.908221 221.351446 
L 496.533651 222.416102 
L 494.159081 223.342198 
L 491.784511 224.078345 
L 489.409941 224.61548 
L 487.035371 224.990527 
L 484.660801 225.261676 
L 482.286231 225.478931 
L 479.911661 225.683732 
L 477.537091 225.886764 
L 475.162521 226.061512 
L 472.787951 226.190111 
L 470.413381 226.287452 
L 468.038811 226.395714 
L 465.664241 226.558738 
L 463.289671 226.771941 
L 460.915101 226.980201 
L 458.540531 227.140391 
L 456.165961 227.24246 
L 453.791391 227.291549 
L 451.416821 227.304687 
L 449.042251 227.316267 
L 446.667681 227.347699 
L 444.293111 227.390143 
L 441.918541 227.431213 
L 439.543971 227.464553 
L 437.169401 227.486405 
L 434.794831 227.492603 
L 432.420261 227.478849 
L 430.045691 227.444819 
L 427.671121 227.403855 
L 425.296551 227.38949 
L 422.921981 227.429792 
L 420.547411 227.51433 
L 418.172841 227.611902 
L 415.798271 227.700935 
L 413.423701 227.779012 
L 411.049131 227.856212 
L 408.674561 227.935117 
L 406.299991 228.006449 
L 403.925421 228.060569 
L 401.550851 228.089446 
L 399.176281 228.0925 
L 396.801711 228.079558 
L 394.427141 228.065359 
L 392.052571 228.052506 
L 389.678001 228.03121 
L 387.303431 228.003257 
L 384.928861 227.989395 
L 382.554291 228.007227 
L 380.179721 228.049546 
L 377.805151 228.087601 
L 375.430581 228.101872 
L 373.056011 228.097818 
L 370.681441 228.091879 
L 368.306872 228.093978 
L 365.932302 228.105743 
L 363.557732 228.124239 
L 361.183162 228.136387 
L 358.808592 228.127771 
L 356.434022 228.094404 
L 354.059452 228.047157 
L 351.684882 228.014419 
L 349.310312 228.028883 
L 346.935742 228.094862 
L 344.561172 228.17745 
L 342.186602 228.234704 
L 339.812032 228.249095 
L 337.437462 228.232944 
L 335.062892 228.215156 
L 332.688322 228.218356 
L 330.313752 228.244823 
L 327.939182 228.275642 
L 325.564612 228.291299 
L 323.190042 228.288394 
L 320.815472 228.278111 
L 318.440902 228.273608 
L 316.066332 228.273862 
L 313.691762 228.269354 
L 311.317192 228.255888 
L 308.942622 228.234035 
L 306.568052 228.206187 
L 304.193482 228.172079 
L 301.818912 228.119458 
L 299.444342 228.043948 
L 297.069772 227.963119 
L 294.695202 227.905714 
L 292.320632 227.905136 
L 289.946062 227.961934 
L 287.571492 228.031909 
L 285.196922 228.079307 
L 282.822352 228.096814 
L 280.447782 228.094849 
L 278.073212 228.086924 
L 275.698642 228.071882 
L 273.324072 228.030767 
L 270.949502 227.955827 
L 268.574932 227.872593 
L 266.200362 227.814194 
L 263.825792 227.786643 
L 261.451222 227.772696 
L 259.076652 227.743643 
L 256.702082 227.674687 
L 254.327512 227.583642 
L 251.952942 227.528901 
L 249.578372 227.539458 
L 247.203802 227.589663 
L 244.829232 227.619047 
L 242.454662 227.580846 
L 240.080092 227.490263 
L 237.705522 227.403607 
L 235.330952 227.360155 
L 232.956382 227.35021 
L 230.581812 227.333275 
L 228.207242 227.273129 
L 225.832672 227.159638 
L 223.458102 226.982561 
L 221.083532 226.720298 
L 218.708962 226.426534 
L 216.334392 226.190739 
L 213.959822 225.977295 
L 211.585252 225.76544 
L 209.210682 225.689889 
L 206.836112 225.853187 
L 204.461542 226.03802 
L 202.086972 226.028598 
L 199.712402 225.866384 
L 197.337832 225.712631 
L 194.963262 225.649081 
L 192.588692 225.587108 
L 190.214122 225.428442 
L 187.839552 225.217936 
L 185.464982 225.054599 
L 183.090412 224.915183 
L 180.715842 224.770207 
L 178.341272 224.605727 
L 175.966702 224.37233 
L 173.592132 224.056088 
L 171.217562 223.658597 
L 168.842992 223.119135 
L 166.468422 222.401252 
L 164.093852 221.64992 
L 161.719282 220.978684 
L 159.344712 220.332794 
L 156.970142 219.616692 
L 154.595572 218.616299 
L 152.221002 217.109851 
L 149.846432 215.263526 
L 147.471862 213.691437 
L 145.097292 213.169713 
L 142.722722 213.968868 
L 140.348152 215.383306 
L 137.973582 216.628893 
L 135.599012 217.396729 
L 133.224442 217.638167 
L 130.849872 217.415208 
L 128.475302 216.830636 
L 126.100732 215.940839 
L 123.726162 214.814625 
L 121.351592 213.779463 
L 118.977022 213.184065 
L 116.602452 212.731964 
L 114.227882 211.790999 
L 111.853312 210.134827 
L 109.478742 207.989761 
L 107.104172 205.723692 
L 104.729602 203.344246 
L 102.355032 200.782804 
L 99.980462 198.503544 
L 97.605892 197.165224 
L 95.231322 197.357983 
L 92.856752 198.486664 
L 90.482182 198.922378 
L 88.107612 198.382095 
L 85.733042 197.776715 
L 83.358472 198.247859 
L 80.983902 200.563908 
L 78.609332 203.812323 
L 76.234762 206.752116 
L 73.860192 209.03753 
L 71.485622 210.741012 
L 69.111052 211.837152 
L 66.736482 212.403107 
L 64.361912 212.830887 
L 61.987342 213.342526 
L 59.612772 213.880234 
L 57.238202 213.85025 
L 54.863632 212.723995 
L 52.489063 211.015149 
z
" clip-path="url(#p25300840ee)" style="fill: #808080; fill-opacity: 0.5; stroke: #808080; stroke-opacity: 0.5"/>
   </g>
   <g id="matplotlib.axis_1">
    <g id="xtick_1">
     <g id="line2d_1">
      <defs>
       <path id="mf606d74c48" d="M 0 0 
L 0 3.5 
" style="stroke: #000000; stroke-width: 0.8"/>
      </defs>
      <g>
       <use xlink:href="#mf606d74c48" x="190.228491" y="228.96" style="stroke: #000000; stroke-width: 0.8"/>
      </g>
     </g>
     <g id="text_1">
      <!-- 1.0 -->
      <g transform="translate(183.278491 243.117812) scale(0.1 -0.1)">
       <defs>
        <path id="ArialMT-31" d="M 2384 0 
L 1822 0 
L 1822 3584 
Q 1619 3391 1289 3197 
Q 959 3003 697 2906 
L 697 3450 
Q 1169 3672 1522 3987 
Q 1875 4303 2022 4600 
L 2384 4600 
L 2384 0 
z
" transform="scale(0.015625)"/>
        <path id="ArialMT-2e" d="M 581 0 
L 581 641 
L 1222 641 
L 1222 0 
L 581 0 
z
" transform="scale(0.015625)"/>
        <path id="ArialMT-30" d="M 266 2259 
Q 266 3072 433 3567 
Q 600 4063 929 4331 
Q 1259 4600 1759 4600 
Q 2128 4600 2406 4451 
Q 2684 4303 2865 4023 
Q 3047 3744 3150 3342 
Q 3253 2941 3253 2259 
Q 3253 1453 3087 958 
Q 2922 463 2592 192 
Q 2263 -78 1759 -78 
Q 1097 -78 719 397 
Q 266 969 266 2259 
z
M 844 2259 
Q 844 1131 1108 757 
Q 1372 384 1759 384 
Q 2147 384 2411 759 
Q 2675 1134 2675 2259 
Q 2675 3391 2411 3762 
Q 2147 4134 1753 4134 
Q 1366 4134 1134 3806 
Q 844 3388 844 2259 
z
" transform="scale(0.015625)"/>
       </defs>
       <use xlink:href="#ArialMT-31"/>
       <use xlink:href="#ArialMT-2e" x="55.615234"/>
       <use xlink:href="#ArialMT-30" x="83.398438"/>
      </g>
     </g>
    </g>
    <g id="xtick_2">
     <g id="line2d_2">
      <g>
       <use xlink:href="#mf606d74c48" x="387.289062" y="228.96" style="stroke: #000000; stroke-width: 0.8"/>
      </g>
     </g>
     <g id="text_2">
      <!-- 10.0 -->
      <g transform="translate(377.558594 243.117812) scale(0.1 -0.1)">
       <use xlink:href="#ArialMT-31"/>
       <use xlink:href="#ArialMT-30" x="55.615234"/>
       <use xlink:href="#ArialMT-2e" x="111.230469"/>
       <use xlink:href="#ArialMT-30" x="139.013672"/>
      </g>
     </g>
    </g>
    <g id="xtick_3">
     <g id="line2d_3">
      <defs>
       <path id="m7e1bd6881e" d="M 0 0 
L 0 2 
" style="stroke: #000000; stroke-width: 0.6"/>
      </defs>
      <g>
       <use xlink:href="#m7e1bd6881e" x="52.489063" y="228.96" style="stroke: #000000; stroke-width: 0.6"/>
      </g>
     </g>
    </g>
    <g id="xtick_4">
     <g id="line2d_4">
      <g>
       <use xlink:href="#m7e1bd6881e" x="87.189707" y="228.96" style="stroke: #000000; stroke-width: 0.6"/>
      </g>
     </g>
    </g>
    <g id="xtick_5">
     <g id="line2d_5">
      <g>
       <use xlink:href="#m7e1bd6881e" x="111.810205" y="228.96" style="stroke: #000000; stroke-width: 0.6"/>
      </g>
     </g>
    </g>
    <g id="xtick_6">
     <g id="line2d_6">
      <g>
       <use xlink:href="#m7e1bd6881e" x="130.907348" y="228.96" style="stroke: #000000; stroke-width: 0.6"/>
      </g>
     </g>
    </g>
    <g id="xtick_7">
     <g id="line2d_7">
      <g>
       <use xlink:href="#m7e1bd6881e" x="146.51085" y="228.96" style="stroke: #000000; stroke-width: 0.6"/>
      </g>
     </g>
    </g>
    <g id="xtick_8">
     <g id="line2d_8">
      <g>
       <use xlink:href="#m7e1bd6881e" x="159.703422" y="228.96" style="stroke: #000000; stroke-width: 0.6"/>
      </g>
     </g>
    </g>
    <g id="xtick_9">
     <g id="line2d_9">
      <g>
       <use xlink:href="#m7e1bd6881e" x="171.131348" y="228.96" style="stroke: #000000; stroke-width: 0.6"/>
      </g>
     </g>
    </g>
    <g id="xtick_10">
     <g id="line2d_10">
      <g>
       <use xlink:href="#m7e1bd6881e" x="181.211494" y="228.96" style="stroke: #000000; stroke-width: 0.6"/>
      </g>
     </g>
    </g>
    <g id="xtick_11">
     <g id="line2d_11">
      <g>
       <use xlink:href="#m7e1bd6881e" x="249.549634" y="228.96" style="stroke: #000000; stroke-width: 0.6"/>
      </g>
     </g>
    </g>
    <g id="xtick_12">
     <g id="line2d_12">
      <g>
       <use xlink:href="#m7e1bd6881e" x="284.250278" y="228.96" style="stroke: #000000; stroke-width: 0.6"/>
      </g>
     </g>
    </g>
    <g id="xtick_13">
     <g id="line2d_13">
      <g>
       <use xlink:href="#m7e1bd6881e" x="308.870777" y="228.96" style="stroke: #000000; stroke-width: 0.6"/>
      </g>
     </g>
    </g>
    <g id="xtick_14">
     <g id="line2d_14">
      <g>
       <use xlink:href="#m7e1bd6881e" x="327.96792" y="228.96" style="stroke: #000000; stroke-width: 0.6"/>
      </g>
     </g>
    </g>
    <g id="xtick_15">
     <g id="line2d_15">
      <g>
       <use xlink:href="#m7e1bd6881e" x="343.571421" y="228.96" style="stroke: #000000; stroke-width: 0.6"/>
      </g>
     </g>
    </g>
    <g id="xtick_16">
     <g id="line2d_16">
      <g>
       <use xlink:href="#m7e1bd6881e" x="356.763994" y="228.96" style="stroke: #000000; stroke-width: 0.6"/>
      </g>
     </g>
    </g>
    <g id="xtick_17">
     <g id="line2d_17">
      <g>
       <use xlink:href="#m7e1bd6881e" x="368.19192" y="228.96" style="stroke: #000000; stroke-width: 0.6"/>
      </g>
     </g>
    </g>
    <g id="xtick_18">
     <g id="line2d_18">
      <g>
       <use xlink:href="#m7e1bd6881e" x="378.272065" y="228.96" style="stroke: #000000; stroke-width: 0.6"/>
      </g>
     </g>
    </g>
    <g id="text_3">
     <!-- Frequency (Hz) -->
     <g transform="translate(185.438281 256.385) scale(0.1 -0.1)">
      <defs>
       <path id="ArialMT-46" d="M 525 0 
L 525 4581 
L 3616 4581 
L 3616 4041 
L 1131 4041 
L 1131 2622 
L 3281 2622 
L 3281 2081 
L 1131 2081 
L 1131 0 
L 525 0 
z
" transform="scale(0.015625)"/>
       <path id="ArialMT-72" d="M 416 0 
L 416 3319 
L 922 3319 
L 922 2816 
Q 1116 3169 1280 3281 
Q 1444 3394 1641 3394 
Q 1925 3394 2219 3213 
L 2025 2691 
Q 1819 2813 1613 2813 
Q 1428 2813 1281 2702 
Q 1134 2591 1072 2394 
Q 978 2094 978 1738 
L 978 0 
L 416 0 
z
" transform="scale(0.015625)"/>
       <path id="ArialMT-65" d="M 2694 1069 
L 3275 997 
Q 3138 488 2766 206 
Q 2394 -75 1816 -75 
Q 1088 -75 661 373 
Q 234 822 234 1631 
Q 234 2469 665 2931 
Q 1097 3394 1784 3394 
Q 2450 3394 2872 2941 
Q 3294 2488 3294 1666 
Q 3294 1616 3291 1516 
L 816 1516 
Q 847 969 1125 678 
Q 1403 388 1819 388 
Q 2128 388 2347 550 
Q 2566 713 2694 1069 
z
M 847 1978 
L 2700 1978 
Q 2663 2397 2488 2606 
Q 2219 2931 1791 2931 
Q 1403 2931 1139 2672 
Q 875 2413 847 1978 
z
" transform="scale(0.015625)"/>
       <path id="ArialMT-71" d="M 2538 -1272 
L 2538 353 
Q 2406 169 2170 47 
Q 1934 -75 1669 -75 
Q 1078 -75 651 397 
Q 225 869 225 1691 
Q 225 2191 398 2587 
Q 572 2984 901 3189 
Q 1231 3394 1625 3394 
Q 2241 3394 2594 2875 
L 2594 3319 
L 3100 3319 
L 3100 -1272 
L 2538 -1272 
z
M 803 1669 
Q 803 1028 1072 708 
Q 1341 388 1716 388 
Q 2075 388 2334 692 
Q 2594 997 2594 1619 
Q 2594 2281 2320 2615 
Q 2047 2950 1678 2950 
Q 1313 2950 1058 2639 
Q 803 2328 803 1669 
z
" transform="scale(0.015625)"/>
       <path id="ArialMT-75" d="M 2597 0 
L 2597 488 
Q 2209 -75 1544 -75 
Q 1250 -75 995 37 
Q 741 150 617 320 
Q 494 491 444 738 
Q 409 903 409 1263 
L 409 3319 
L 972 3319 
L 972 1478 
Q 972 1038 1006 884 
Q 1059 663 1231 536 
Q 1403 409 1656 409 
Q 1909 409 2131 539 
Q 2353 669 2445 892 
Q 2538 1116 2538 1541 
L 2538 3319 
L 3100 3319 
L 3100 0 
L 2597 0 
z
" transform="scale(0.015625)"/>
       <path id="ArialMT-6e" d="M 422 0 
L 422 3319 
L 928 3319 
L 928 2847 
Q 1294 3394 1984 3394 
Q 2284 3394 2536 3286 
Q 2788 3178 2913 3003 
Q 3038 2828 3088 2588 
Q 3119 2431 3119 2041 
L 3119 0 
L 2556 0 
L 2556 2019 
Q 2556 2363 2490 2533 
Q 2425 2703 2258 2804 
Q 2091 2906 1866 2906 
Q 1506 2906 1245 2678 
Q 984 2450 984 1813 
L 984 0 
L 422 0 
z
" transform="scale(0.015625)"/>
       <path id="ArialMT-63" d="M 2588 1216 
L 3141 1144 
Q 3050 572 2676 248 
Q 2303 -75 1759 -75 
Q 1078 -75 664 370 
Q 250 816 250 1647 
Q 250 2184 428 2587 
Q 606 2991 970 3192 
Q 1334 3394 1763 3394 
Q 2303 3394 2647 3120 
Q 2991 2847 3088 2344 
L 2541 2259 
Q 2463 2594 2264 2762 
Q 2066 2931 1784 2931 
Q 1359 2931 1093 2626 
Q 828 2322 828 1663 
Q 828 994 1084 691 
Q 1341 388 1753 388 
Q 2084 388 2306 591 
Q 2528 794 2588 1216 
z
" transform="scale(0.015625)"/>
       <path id="ArialMT-79" d="M 397 -1278 
L 334 -750 
Q 519 -800 656 -800 
Q 844 -800 956 -737 
Q 1069 -675 1141 -563 
Q 1194 -478 1313 -144 
Q 1328 -97 1363 -6 
L 103 3319 
L 709 3319 
L 1400 1397 
Q 1534 1031 1641 628 
Q 1738 1016 1872 1384 
L 2581 3319 
L 3144 3319 
L 1881 -56 
Q 1678 -603 1566 -809 
Q 1416 -1088 1222 -1217 
Q 1028 -1347 759 -1347 
Q 597 -1347 397 -1278 
z
" transform="scale(0.015625)"/>
       <path id="ArialMT-20" transform="scale(0.015625)"/>
       <path id="ArialMT-28" d="M 1497 -1347 
Q 1031 -759 709 28 
Q 388 816 388 1659 
Q 388 2403 628 3084 
Q 909 3875 1497 4659 
L 1900 4659 
Q 1522 4009 1400 3731 
Q 1209 3300 1100 2831 
Q 966 2247 966 1656 
Q 966 153 1900 -1347 
L 1497 -1347 
z
" transform="scale(0.015625)"/>
       <path id="ArialMT-48" d="M 513 0 
L 513 4581 
L 1119 4581 
L 1119 2700 
L 3500 2700 
L 3500 4581 
L 4106 4581 
L 4106 0 
L 3500 0 
L 3500 2159 
L 1119 2159 
L 1119 0 
L 513 0 
z
" transform="scale(0.015625)"/>
       <path id="ArialMT-7a" d="M 125 0 
L 125 456 
L 2238 2881 
Q 1878 2863 1603 2863 
L 250 2863 
L 250 3319 
L 2963 3319 
L 2963 2947 
L 1166 841 
L 819 456 
Q 1197 484 1528 484 
L 3063 484 
L 3063 0 
L 125 0 
z
" transform="scale(0.015625)"/>
       <path id="ArialMT-29" d="M 791 -1347 
L 388 -1347 
Q 1322 153 1322 1656 
Q 1322 2244 1188 2822 
Q 1081 3291 891 3722 
Q 769 4003 388 4659 
L 791 4659 
Q 1378 3875 1659 3084 
Q 1900 2403 1900 1659 
Q 1900 816 1576 28 
Q 1253 -759 791 -1347 
z
" transform="scale(0.015625)"/>
      </defs>
      <use xlink:href="#ArialMT-46"/>
      <use xlink:href="#ArialMT-72" x="61.083984"/>
      <use xlink:href="#ArialMT-65" x="94.384766"/>
      <use xlink:href="#ArialMT-71" x="150"/>
      <use xlink:href="#ArialMT-75" x="205.615234"/>
      <use xlink:href="#ArialMT-65" x="261.230469"/>
      <use xlink:href="#ArialMT-6e" x="316.845703"/>
      <use xlink:href="#ArialMT-63" x="372.460938"/>
      <use xlink:href="#ArialMT-79" x="422.460938"/>
      <use xlink:href="#ArialMT-20" x="472.460938"/>
      <use xlink:href="#ArialMT-28" x="500.244141"/>
      <use xlink:href="#ArialMT-48" x="533.544922"/>
      <use xlink:href="#ArialMT-7a" x="605.761719"/>
      <use xlink:href="#ArialMT-29" x="655.761719"/>
     </g>
    </g>
   </g>
   <g id="matplotlib.axis_2">
    <g id="ytick_1">
     <g id="line2d_19">
      <defs>
       <path id="m4598b7d5ec" d="M 0 0 
L -3.5 0 
" style="stroke: #000000; stroke-width: 0.8"/>
      </defs>
      <g>
       <use xlink:href="#m4598b7d5ec" x="52.489063" y="228.96" style="stroke: #000000; stroke-width: 0.8"/>
      </g>
     </g>
     <g id="text_4">
      <!-- 0.0 -->
      <g transform="translate(31.589063 232.538906) scale(0.1 -0.1)">
       <use xlink:href="#ArialMT-30"/>
       <use xlink:href="#ArialMT-2e" x="55.615234"/>
       <use xlink:href="#ArialMT-30" x="83.398438"/>
      </g>
     </g>
    </g>
    <g id="ytick_2">
     <g id="line2d_20">
      <g>
       <use xlink:href="#m4598b7d5ec" x="52.489063" y="198.20066" style="stroke: #000000; stroke-width: 0.8"/>
      </g>
     </g>
     <g id="text_5">
      <!-- 50.0 -->
      <g transform="translate(26.028125 201.779567) scale(0.1 -0.1)">
       <defs>
        <path id="ArialMT-35" d="M 266 1200 
L 856 1250 
Q 922 819 1161 601 
Q 1400 384 1738 384 
Q 2144 384 2425 690 
Q 2706 997 2706 1503 
Q 2706 1984 2436 2262 
Q 2166 2541 1728 2541 
Q 1456 2541 1237 2417 
Q 1019 2294 894 2097 
L 366 2166 
L 809 4519 
L 3088 4519 
L 3088 3981 
L 1259 3981 
L 1013 2750 
Q 1425 3038 1878 3038 
Q 2478 3038 2890 2622 
Q 3303 2206 3303 1553 
Q 3303 931 2941 478 
Q 2500 -78 1738 -78 
Q 1113 -78 717 272 
Q 322 622 266 1200 
z
" transform="scale(0.015625)"/>
       </defs>
       <use xlink:href="#ArialMT-35"/>
       <use xlink:href="#ArialMT-30" x="55.615234"/>
       <use xlink:href="#ArialMT-2e" x="111.230469"/>
       <use xlink:href="#ArialMT-30" x="139.013672"/>
      </g>
     </g>
    </g>
    <g id="ytick_3">
     <g id="line2d_21">
      <g>
       <use xlink:href="#m4598b7d5ec" x="52.489063" y="167.441321" style="stroke: #000000; stroke-width: 0.8"/>
      </g>
     </g>
     <g id="text_6">
      <!-- 100.0 -->
      <g transform="translate(20.467188 171.020227) scale(0.1 -0.1)">
       <use xlink:href="#ArialMT-31"/>
       <use xlink:href="#ArialMT-30" x="55.615234"/>
       <use xlink:href="#ArialMT-30" x="111.230469"/>
       <use xlink:href="#ArialMT-2e" x="166.845703"/>
       <use xlink:href="#ArialMT-30" x="194.628906"/>
      </g>
     </g>
    </g>
    <g id="ytick_4">
     <g id="line2d_22">
      <g>
       <use xlink:href="#m4598b7d5ec" x="52.489063" y="136.681981" style="stroke: #000000; stroke-width: 0.8"/>
      </g>
     </g>
     <g id="text_7">
      <!-- 150.0 -->
      <g transform="translate(20.467188 140.260887) scale(0.1 -0.1)">
       <use xlink:href="#ArialMT-31"/>
       <use xlink:href="#ArialMT-35" x="55.615234"/>
       <use xlink:href="#ArialMT-30" x="111.230469"/>
       <use xlink:href="#ArialMT-2e" x="166.845703"/>
       <use xlink:href="#ArialMT-30" x="194.628906"/>
      </g>
     </g>
    </g>
    <g id="ytick_5">
     <g id="line2d_23">
      <g>
       <use xlink:href="#m4598b7d5ec" x="52.489063" y="105.922641" style="stroke: #000000; stroke-width: 0.8"/>
      </g>
     </g>
     <g id="text_8">
      <!-- 200.0 -->
      <g transform="translate(20.467188 109.501547) scale(0.1 -0.1)">
       <defs>
        <path id="ArialMT-32" d="M 3222 541 
L 3222 0 
L 194 0 
Q 188 203 259 391 
Q 375 700 629 1000 
Q 884 1300 1366 1694 
Q 2113 2306 2375 2664 
Q 2638 3022 2638 3341 
Q 2638 3675 2398 3904 
Q 2159 4134 1775 4134 
Q 1369 4134 1125 3890 
Q 881 3647 878 3216 
L 300 3275 
Q 359 3922 746 4261 
Q 1134 4600 1788 4600 
Q 2447 4600 2831 4234 
Q 3216 3869 3216 3328 
Q 3216 3053 3103 2787 
Q 2991 2522 2730 2228 
Q 2469 1934 1863 1422 
Q 1356 997 1212 845 
Q 1069 694 975 541 
L 3222 541 
z
" transform="scale(0.015625)"/>
       </defs>
       <use xlink:href="#ArialMT-32"/>
       <use xlink:href="#ArialMT-30" x="55.615234"/>
       <use xlink:href="#ArialMT-30" x="111.230469"/>
       <use xlink:href="#ArialMT-2e" x="166.845703"/>
       <use xlink:href="#ArialMT-30" x="194.628906"/>
      </g>
     </g>
    </g>
    <g id="ytick_6">
     <g id="line2d_24">
      <g>
       <use xlink:href="#m4598b7d5ec" x="52.489063" y="75.163301" style="stroke: #000000; stroke-width: 0.8"/>
      </g>
     </g>
     <g id="text_9">
      <!-- 250.0 -->
      <g transform="translate(20.467188 78.742208) scale(0.1 -0.1)">
       <use xlink:href="#ArialMT-32"/>
       <use xlink:href="#ArialMT-35" x="55.615234"/>
       <use xlink:href="#ArialMT-30" x="111.230469"/>
       <use xlink:href="#ArialMT-2e" x="166.845703"/>
       <use xlink:href="#ArialMT-30" x="194.628906"/>
      </g>
     </g>
    </g>
    <g id="ytick_7">
     <g id="line2d_25">
      <g>
       <use xlink:href="#m4598b7d5ec" x="52.489063" y="44.403962" style="stroke: #000000; stroke-width: 0.8"/>
      </g>
     </g>
     <g id="text_10">
      <!-- 300.0 -->
      <g transform="translate(20.467188 47.982868) scale(0.1 -0.1)">
       <defs>
        <path id="ArialMT-33" d="M 269 1209 
L 831 1284 
Q 928 806 1161 595 
Q 1394 384 1728 384 
Q 2125 384 2398 659 
Q 2672 934 2672 1341 
Q 2672 1728 2419 1979 
Q 2166 2231 1775 2231 
Q 1616 2231 1378 2169 
L 1441 2663 
Q 1497 2656 1531 2656 
Q 1891 2656 2178 2843 
Q 2466 3031 2466 3422 
Q 2466 3731 2256 3934 
Q 2047 4138 1716 4138 
Q 1388 4138 1169 3931 
Q 950 3725 888 3313 
L 325 3413 
Q 428 3978 793 4289 
Q 1159 4600 1703 4600 
Q 2078 4600 2393 4439 
Q 2709 4278 2876 4000 
Q 3044 3722 3044 3409 
Q 3044 3113 2884 2869 
Q 2725 2625 2413 2481 
Q 2819 2388 3044 2092 
Q 3269 1797 3269 1353 
Q 3269 753 2831 336 
Q 2394 -81 1725 -81 
Q 1122 -81 723 278 
Q 325 638 269 1209 
z
" transform="scale(0.015625)"/>
       </defs>
       <use xlink:href="#ArialMT-33"/>
       <use xlink:href="#ArialMT-30" x="55.615234"/>
       <use xlink:href="#ArialMT-30" x="111.230469"/>
       <use xlink:href="#ArialMT-2e" x="166.845703"/>
       <use xlink:href="#ArialMT-30" x="194.628906"/>
      </g>
     </g>
    </g>
    <g id="ytick_8">
     <g id="line2d_26">
      <g>
       <use xlink:href="#m4598b7d5ec" x="52.489063" y="13.644622" style="stroke: #000000; stroke-width: 0.8"/>
      </g>
     </g>
     <g id="text_11">
      <!-- 350.0 -->
      <g transform="translate(20.467188 17.223528) scale(0.1 -0.1)">
       <use xlink:href="#ArialMT-33"/>
       <use xlink:href="#ArialMT-35" x="55.615234"/>
       <use xlink:href="#ArialMT-30" x="111.230469"/>
       <use xlink:href="#ArialMT-2e" x="166.845703"/>
       <use xlink:href="#ArialMT-30" x="194.628906"/>
      </g>
     </g>
    </g>
    <g id="text_12">
     <!-- H/V Amplitude -->
     <g transform="translate(14.479688 149.762031) rotate(-90) scale(0.1 -0.1)">
      <defs>
       <path id="ArialMT-2f" d="M 0 -78 
L 1328 4659 
L 1778 4659 
L 453 -78 
L 0 -78 
z
" transform="scale(0.015625)"/>
       <path id="ArialMT-56" d="M 1803 0 
L 28 4581 
L 684 4581 
L 1875 1253 
Q 2019 853 2116 503 
Q 2222 878 2363 1253 
L 3600 4581 
L 4219 4581 
L 2425 0 
L 1803 0 
z
" transform="scale(0.015625)"/>
       <path id="ArialMT-41" d="M -9 0 
L 1750 4581 
L 2403 4581 
L 4278 0 
L 3588 0 
L 3053 1388 
L 1138 1388 
L 634 0 
L -9 0 
z
M 1313 1881 
L 2866 1881 
L 2388 3150 
Q 2169 3728 2063 4100 
Q 1975 3659 1816 3225 
L 1313 1881 
z
" transform="scale(0.015625)"/>
       <path id="ArialMT-6d" d="M 422 0 
L 422 3319 
L 925 3319 
L 925 2853 
Q 1081 3097 1340 3245 
Q 1600 3394 1931 3394 
Q 2300 3394 2536 3241 
Q 2772 3088 2869 2813 
Q 3263 3394 3894 3394 
Q 4388 3394 4653 3120 
Q 4919 2847 4919 2278 
L 4919 0 
L 4359 0 
L 4359 2091 
Q 4359 2428 4304 2576 
Q 4250 2725 4106 2815 
Q 3963 2906 3769 2906 
Q 3419 2906 3187 2673 
Q 2956 2441 2956 1928 
L 2956 0 
L 2394 0 
L 2394 2156 
Q 2394 2531 2256 2718 
Q 2119 2906 1806 2906 
Q 1569 2906 1367 2781 
Q 1166 2656 1075 2415 
Q 984 2175 984 1722 
L 984 0 
L 422 0 
z
" transform="scale(0.015625)"/>
       <path id="ArialMT-70" d="M 422 -1272 
L 422 3319 
L 934 3319 
L 934 2888 
Q 1116 3141 1344 3267 
Q 1572 3394 1897 3394 
Q 2322 3394 2647 3175 
Q 2972 2956 3137 2557 
Q 3303 2159 3303 1684 
Q 3303 1175 3120 767 
Q 2938 359 2589 142 
Q 2241 -75 1856 -75 
Q 1575 -75 1351 44 
Q 1128 163 984 344 
L 984 -1272 
L 422 -1272 
z
M 931 1641 
Q 931 1000 1190 694 
Q 1450 388 1819 388 
Q 2194 388 2461 705 
Q 2728 1022 2728 1688 
Q 2728 2322 2467 2637 
Q 2206 2953 1844 2953 
Q 1484 2953 1207 2617 
Q 931 2281 931 1641 
z
" transform="scale(0.015625)"/>
       <path id="ArialMT-6c" d="M 409 0 
L 409 4581 
L 972 4581 
L 972 0 
L 409 0 
z
" transform="scale(0.015625)"/>
       <path id="ArialMT-69" d="M 425 3934 
L 425 4581 
L 988 4581 
L 988 3934 
L 425 3934 
z
M 425 0 
L 425 3319 
L 988 3319 
L 988 0 
L 425 0 
z
" transform="scale(0.015625)"/>
       <path id="ArialMT-74" d="M 1650 503 
L 1731 6 
Q 1494 -44 1306 -44 
Q 1000 -44 831 53 
Q 663 150 594 308 
Q 525 466 525 972 
L 525 2881 
L 113 2881 
L 113 3319 
L 525 3319 
L 525 4141 
L 1084 4478 
L 1084 3319 
L 1650 3319 
L 1650 2881 
L 1084 2881 
L 1084 941 
Q 1084 700 1114 631 
Q 1144 563 1211 522 
Q 1278 481 1403 481 
Q 1497 481 1650 503 
z
" transform="scale(0.015625)"/>
       <path id="ArialMT-64" d="M 2575 0 
L 2575 419 
Q 2259 -75 1647 -75 
Q 1250 -75 917 144 
Q 584 363 401 755 
Q 219 1147 219 1656 
Q 219 2153 384 2558 
Q 550 2963 881 3178 
Q 1213 3394 1622 3394 
Q 1922 3394 2156 3267 
Q 2391 3141 2538 2938 
L 2538 4581 
L 3097 4581 
L 3097 0 
L 2575 0 
z
M 797 1656 
Q 797 1019 1065 703 
Q 1334 388 1700 388 
Q 2069 388 2326 689 
Q 2584 991 2584 1609 
Q 2584 2291 2321 2609 
Q 2059 2928 1675 2928 
Q 1300 2928 1048 2622 
Q 797 2316 797 1656 
z
" transform="scale(0.015625)"/>
      </defs>
      <use xlink:href="#ArialMT-48"/>
      <use xlink:href="#ArialMT-2f" x="72.216797"/>
      <use xlink:href="#ArialMT-56" x="100"/>
      <use xlink:href="#ArialMT-20" x="166.699219"/>
      <use xlink:href="#ArialMT-41" x="188.982422"/>
      <use xlink:href="#ArialMT-6d" x="255.681641"/>
      <use xlink:href="#ArialMT-70" x="338.982422"/>
      <use xlink:href="#ArialMT-6c" x="394.597656"/>
      <use xlink:href="#ArialMT-69" x="416.814453"/>
      <use xlink:href="#ArialMT-74" x="439.03125"/>
      <use xlink:href="#ArialMT-75" x="466.814453"/>
      <use xlink:href="#ArialMT-64" x="522.429688"/>
      <use xlink:href="#ArialMT-65" x="578.044922"/>
     </g>
    </g>
   </g>
   <g id="line2d_27">
    <path d="M 52.489063 213.933091 
L 54.863632 218.438318 
L 57.238202 221.302938 
L 59.612772 222.606957 
L 61.987342 222.962932 
L 64.361912 222.798153 
L 69.111052 222.064543 
L 73.860192 221.850178 
L 76.234762 221.490745 
L 78.609332 220.832373 
L 80.983902 220.025195 
L 83.358472 218.946064 
L 85.733042 217.160954 
L 90.482182 211.753038 
L 92.856752 209.582422 
L 95.231322 208.031628 
L 97.605892 206.872981 
L 99.980462 206.223556 
L 102.355032 206.208891 
L 104.729602 206.495148 
L 107.104172 206.598297 
L 109.478742 206.214478 
L 111.853312 204.989894 
L 114.227882 202.508235 
L 116.602452 199.098867 
L 118.977022 196.933387 
L 121.351592 198.475102 
L 123.726162 202.95425 
L 126.100732 207.763235 
L 128.475302 211.535152 
L 130.849872 214.223854 
L 133.224442 216.171221 
L 135.599012 217.668988 
L 140.348152 220.066256 
L 142.722722 221.045007 
L 145.097292 221.792804 
L 147.471862 222.317556 
L 149.846432 222.727504 
L 152.221002 223.003104 
L 154.595572 222.863745 
L 156.970142 222.206597 
L 159.344712 221.304769 
L 161.719282 220.528079 
L 164.093852 220.127195 
L 166.468422 220.214384 
L 168.842992 220.797171 
L 171.217562 221.784449 
L 175.966702 224.341052 
L 178.341272 225.327884 
L 180.715842 225.771361 
L 183.090412 225.717239 
L 185.464982 225.463099 
L 187.839552 225.454065 
L 190.214122 225.886668 
L 192.588692 226.433988 
L 194.963262 226.71645 
L 197.337832 226.6764 
L 202.086972 226.284852 
L 209.210682 225.981175 
L 213.959822 225.65994 
L 218.708962 225.842947 
L 223.458102 226.072552 
L 228.207242 226.624784 
L 230.581812 226.908147 
L 232.956382 227.022929 
L 237.705522 227.061807 
L 242.454662 227.477688 
L 247.203802 227.845222 
L 251.952942 227.965551 
L 256.702082 227.849434 
L 261.451222 227.606813 
L 266.200362 227.737808 
L 270.949502 227.998798 
L 273.324072 228.023614 
L 282.822352 227.745279 
L 292.320632 228.176424 
L 308.942622 228.406686 
L 316.066332 228.333122 
L 349.310312 228.534825 
L 396.801711 228.045819 
L 401.550851 227.889764 
L 405.219531 227.866914 
L 405.219531 227.866914 
" clip-path="url(#p25300840ee)" style="fill: none; stroke: #808080; stroke-opacity: 0.5; stroke-width: 0.5; stroke-linecap: square"/>
   </g>
   <g id="line2d_28">
    <path d="M 52.489063 212.492887 
L 54.863632 210.337086 
L 57.238202 207.040877 
L 59.612772 204.077838 
L 61.987342 204.587723 
L 64.361912 208.400213 
L 66.736482 211.396793 
L 69.111052 211.071978 
L 71.485622 207.30939 
L 73.860192 202.145127 
L 76.234762 197.739718 
L 78.609332 192.932587 
L 80.983902 184.66253 
L 83.358472 172.310591 
L 85.733042 160.726624 
L 88.107612 154.260981 
L 90.482182 148.633823 
L 92.856752 137.20412 
L 95.231322 123.951679 
L 97.605892 124.51921 
L 99.980462 140.129059 
L 102.355032 157.780537 
L 104.729602 170.927202 
L 111.853312 201.365104 
L 114.227882 209.232667 
L 116.602452 214.243849 
L 118.977022 217.194341 
L 121.351592 219.073539 
L 123.726162 220.24254 
L 126.100732 220.676127 
L 130.849872 220.77618 
L 135.599012 221.531318 
L 137.973582 221.481152 
L 140.348152 221.010817 
L 142.722722 220.369061 
L 145.097292 219.883938 
L 147.471862 219.92423 
L 149.846432 220.820928 
L 154.595572 224.016994 
L 156.970142 225.033423 
L 159.344712 225.53674 
L 161.719282 225.737126 
L 164.093852 225.742506 
L 168.842992 225.35397 
L 171.217562 225.170722 
L 173.592132 225.135485 
L 183.090412 225.397081 
L 190.214122 225.459269 
L 192.588692 225.178579 
L 194.963262 224.669143 
L 197.337832 224.275555 
L 199.712402 224.37092 
L 211.585252 226.503315 
L 213.959822 226.774153 
L 218.708962 227.013394 
L 244.829232 227.723237 
L 249.578372 227.657746 
L 254.327512 227.510209 
L 263.825792 227.724764 
L 275.698642 228.00845 
L 301.818912 228.008425 
L 308.942622 228.368875 
L 316.066332 228.511938 
L 332.688322 228.485842 
L 342.186602 228.369232 
L 356.434022 228.381408 
L 368.306872 228.586522 
L 394.427141 228.598336 
L 401.550851 228.575743 
L 405.219531 228.512722 
L 405.219531 228.512722 
" clip-path="url(#p25300840ee)" style="fill: none; stroke: #808080; stroke-opacity: 0.5; stroke-width: 0.5; stroke-linecap: square"/>
   </g>
   <g id="line2d_29">
    <path d="M 52.489063 215.86215 
L 54.863632 216.286275 
L 57.238202 217.90864 
L 59.612772 219.074604 
L 61.987342 219.137972 
L 64.361912 218.306075 
L 66.736482 216.98776 
L 69.111052 215.5361 
L 71.485622 213.874845 
L 73.860192 211.296603 
L 76.234762 206.923732 
L 78.609332 200.719742 
L 80.983902 195.373038 
L 83.358472 196.337221 
L 88.107612 210.305531 
L 90.482182 214.574933 
L 92.856752 216.677902 
L 95.231322 217.20467 
L 97.605892 216.408902 
L 99.980462 214.764645 
L 102.355032 213.65565 
L 104.729602 214.279256 
L 107.104172 215.801412 
L 109.478742 216.905959 
L 111.853312 217.29067 
L 114.227882 217.163833 
L 116.602452 216.579744 
L 118.977022 215.360512 
L 123.726162 211.680941 
L 126.100732 210.437521 
L 128.475302 209.727797 
L 130.849872 208.581002 
L 133.224442 205.796659 
L 135.599012 200.291271 
L 137.973582 191.057341 
L 140.348152 177.478911 
L 142.722722 161.171408 
L 145.097292 149.680993 
L 147.471862 151.674636 
L 149.846432 163.183589 
L 152.221002 175.678357 
L 154.595572 186.41051 
L 156.970142 195.296392 
L 159.344712 202.216863 
L 161.719282 207.413182 
L 166.468422 216.070655 
L 168.842992 219.415208 
L 171.217562 221.120384 
L 173.592132 221.454367 
L 175.966702 220.946323 
L 178.341272 220.207405 
L 180.715842 220.074752 
L 183.090412 220.957367 
L 185.464982 222.16494 
L 187.839552 222.9214 
L 190.214122 223.176886 
L 192.588692 223.317282 
L 194.963262 223.707915 
L 199.712402 225.163116 
L 202.086972 225.589023 
L 204.461542 225.343752 
L 206.836112 224.394504 
L 209.210682 223.660414 
L 211.585252 224.186645 
L 213.959822 225.293542 
L 216.334392 226.186649 
L 218.708962 226.761469 
L 221.083532 227.117197 
L 223.458102 227.326794 
L 225.832672 227.407046 
L 230.581812 227.200919 
L 232.956382 227.068807 
L 235.330952 227.07691 
L 240.080092 227.501205 
L 242.454662 227.716496 
L 244.829232 227.777285 
L 251.952942 227.567492 
L 261.451222 228.234272 
L 270.949502 228.315015 
L 289.946062 228.234724 
L 294.695202 228.239052 
L 304.193482 228.400472 
L 405.219531 228.620942 
L 405.219531 228.620942 
" clip-path="url(#p25300840ee)" style="fill: none; stroke: #808080; stroke-opacity: 0.5; stroke-width: 0.5; stroke-linecap: square"/>
   </g>
   <g id="line2d_30">
    <path d="M 52.489063 218.151309 
L 54.863632 218.971657 
L 57.238202 218.658642 
L 59.612772 217.083938 
L 61.987342 214.063677 
L 64.361912 210.298874 
L 66.736482 208.395184 
L 69.111052 209.604619 
L 71.485622 211.601433 
L 73.860192 212.660491 
L 78.609332 213.010867 
L 85.733042 214.476862 
L 88.107612 215.279565 
L 90.482182 217.001805 
L 92.856752 219.271921 
L 95.231322 221.261617 
L 97.605892 222.641838 
L 99.980462 223.516367 
L 102.355032 224.070939 
L 107.104172 224.721531 
L 111.853312 225.314399 
L 118.977022 226.443036 
L 123.726162 226.843624 
L 140.348152 227.776928 
L 152.221002 227.972889 
L 164.093852 228.007475 
L 180.715842 228.236754 
L 197.337832 228.417224 
L 223.458102 228.390538 
L 278.073212 228.861029 
L 325.564612 228.7279 
L 332.688322 228.713 
L 342.186602 228.738674 
L 356.434022 228.577446 
L 375.430581 228.668008 
L 405.219531 228.744769 
L 405.219531 228.744769 
" clip-path="url(#p25300840ee)" style="fill: none; stroke: #808080; stroke-opacity: 0.5; stroke-width: 0.5; stroke-linecap: square"/>
   </g>
   <g id="line2d_31">
    <path d="M 52.489063 228.158499 
L 59.612772 228.339467 
L 64.361912 228.174856 
L 69.111052 227.932392 
L 76.234762 227.917814 
L 88.107612 227.922784 
L 92.856752 227.565639 
L 97.605892 227.217866 
L 104.729602 227.259603 
L 107.104172 227.0614 
L 111.853312 226.446905 
L 114.227882 226.442385 
L 128.475302 227.892952 
L 133.224442 228.252775 
L 145.097292 228.596252 
L 152.221002 228.652571 
L 159.344712 228.394315 
L 164.093852 228.21225 
L 171.217562 228.256143 
L 180.715842 228.358791 
L 197.337832 228.392064 
L 202.086972 228.414761 
L 206.836112 228.195581 
L 211.585252 227.80858 
L 216.334392 227.256419 
L 218.708962 227.250014 
L 225.832672 228.358421 
L 230.581812 228.522096 
L 237.705522 228.419655 
L 249.578372 228.161533 
L 263.825792 228.333279 
L 268.574932 228.282126 
L 282.822352 228.813551 
L 289.946062 228.664035 
L 294.695202 228.530466 
L 335.062892 228.542594 
L 342.186602 228.589356 
L 354.059452 228.471182 
L 361.183162 228.388228 
L 365.932302 228.310588 
L 377.805151 228.390621 
L 384.928861 228.448774 
L 401.550851 228.687879 
L 405.219531 228.654738 
L 405.219531 228.654738 
" clip-path="url(#p25300840ee)" style="fill: none; stroke: #808080; stroke-opacity: 0.5; stroke-width: 0.5; stroke-linecap: square"/>
   </g>
   <g id="line2d_32">
    <path d="M 52.489063 228.746226 
L 64.361912 228.463901 
L 76.234762 228.272828 
L 80.983902 228.295046 
L 83.358472 228.144433 
L 88.107612 227.588344 
L 90.482182 227.666106 
L 95.231322 228.192077 
L 99.980462 228.463749 
L 107.104172 228.57186 
L 121.351592 228.435696 
L 152.221002 228.258784 
L 159.344712 227.636935 
L 168.842992 228.003915 
L 173.592132 228.094551 
L 180.715842 228.312855 
L 187.839552 228.097533 
L 194.963262 228.58471 
L 199.712402 228.631897 
L 209.210682 228.583453 
L 221.083532 228.637452 
L 237.705522 228.666727 
L 247.203802 228.725906 
L 256.702082 228.700492 
L 266.200362 228.856059 
L 285.196922 228.818264 
L 301.818912 228.689552 
L 405.219531 228.698293 
L 405.219531 228.698293 
" clip-path="url(#p25300840ee)" style="fill: none; stroke: #808080; stroke-opacity: 0.5; stroke-width: 0.5; stroke-linecap: square"/>
   </g>
   <g id="line2d_33">
    <path d="M 52.489063 228.537927 
L 57.238202 228.399952 
L 61.987342 228.207407 
L 73.860192 228.508853 
L 78.609332 228.290044 
L 85.733042 227.711938 
L 88.107612 227.816898 
L 92.856752 228.254025 
L 97.605892 228.443273 
L 102.355032 228.391153 
L 111.853312 227.955674 
L 116.602452 227.836392 
L 121.351592 227.632083 
L 130.849872 228.146902 
L 135.599012 228.203344 
L 142.722722 228.572429 
L 149.846432 228.637147 
L 154.595572 228.519561 
L 161.719282 228.099853 
L 166.468422 228.280499 
L 173.592132 228.528259 
L 178.341272 228.538874 
L 183.090412 228.377104 
L 187.839552 228.175127 
L 202.086972 228.490093 
L 211.585252 228.691889 
L 230.581812 228.658222 
L 254.327512 228.901885 
L 405.219531 228.95281 
L 405.219531 228.95281 
" clip-path="url(#p25300840ee)" style="fill: none; stroke: #808080; stroke-opacity: 0.5; stroke-width: 0.5; stroke-linecap: square"/>
   </g>
   <g id="line2d_34">
    <path d="M 52.489063 225.896316 
L 57.238202 225.959399 
L 73.860192 224.868024 
L 78.609332 224.168839 
L 85.733042 222.628317 
L 88.107612 222.544856 
L 92.856752 223.195762 
L 99.980462 224.043598 
L 104.729602 224.431112 
L 114.227882 224.637712 
L 121.351592 225.096478 
L 130.849872 226.008544 
L 137.973582 226.424297 
L 147.471862 226.691339 
L 152.221002 226.89784 
L 156.970142 226.724545 
L 159.344712 226.603784 
L 161.719282 226.600918 
L 168.842992 227.015393 
L 178.341272 227.483982 
L 183.090412 227.475601 
L 187.839552 227.433692 
L 199.712402 227.844604 
L 228.207242 228.175005 
L 266.200362 228.646107 
L 285.196922 228.742602 
L 323.190042 228.725934 
L 358.808592 228.720681 
L 405.219531 228.746165 
L 405.219531 228.746165 
" clip-path="url(#p25300840ee)" style="fill: none; stroke: #000000; stroke-width: 1.5; stroke-linecap: square"/>
   </g>
   <g id="line2d_35">
    <defs>
     <path id="m0a8cc3d787" d="M 0 2.5 
C 0.663008 2.5 1.29895 2.236584 1.767767 1.767767 
C 2.236584 1.29895 2.5 0.663008 2.5 0 
C 2.5 -0.663008 2.236584 -1.29895 1.767767 -1.767767 
C 1.29895 -2.236584 0.663008 -2.5 0 -2.5 
C -0.663008 -2.5 -1.29895 -2.236584 -1.767767 -1.767767 
C -2.236584 -1.29895 -2.5 -0.663008 -2.5 0 
C -2.5 0.663008 -2.236584 1.29895 -1.767767 1.767767 
C -1.29895 2.236584 -0.663008 2.5 0 2.5 
z
" style="stroke: #ffffff; stroke-width: 0.5"/>
    </defs>
    <g clip-path="url(#p25300840ee)">
     <use xlink:href="#m0a8cc3d787" x="525.028491" y="215.595679" style="fill: #ff0000; stroke: #ffffff; stroke-width: 0.5"/>
    </g>
   </g>
   <g id="patch_3">
    <path d="M 52.489063 228.96 
L 52.489063 7.2 
" style="fill: none; stroke: #000000; stroke-width: 0.8; stroke-linejoin: miter; stroke-linecap: square"/>
   </g>
   <g id="patch_4">
    <path d="M 52.489063 228.96 
L 387.289062 228.96 
" style="fill: none; stroke: #000000; stroke-width: 0.8; stroke-linejoin: miter; stroke-linecap: square"/>
   </g>
  </g>
 </g>
 <defs>
  <clipPath id="p25300840ee">
   <rect x="52.489063" y="7.2" width="334.8" height="221.76"/>
  </clipPath>
 </defs>
</svg>
