<?xml version="1.0" encoding="utf-8" standalone="no"?>
<!DOCTYPE svg PUBLIC "-//W3C//DTD SVG 1.1//EN"
  "http://www.w3.org/Graphics/SVG/1.1/DTD/svg11.dtd">
<svg xmlns:xlink="http://www.w3.org/1999/xlink" width="393.097656pt" height="265.689687pt" viewBox="0 0 393.097656 265.689687" xmlns="http://www.w3.org/2000/svg" version="1.1">
 <metadata>
  <rdf:RDF xmlns:dc="http://purl.org/dc/elements/1.1/" xmlns:cc="http://creativecommons.org/ns#" xmlns:rdf="http://www.w3.org/1999/02/22-rdf-syntax-ns#">
   <cc:Work>
    <dc:type rdf:resource="http://purl.org/dc/dcmitype/StillImage"/>
    <dc:date>2024-09-14T12:48:49.139692</dc:date>
    <dc:format>image/svg+xml</dc:format>
    <dc:creator>
     <cc:Agent>
      <dc:title>Matplotlib v3.9.2, https://matplotlib.org/</dc:title>
     </cc:Agent>
    </dc:creator>
   </cc:Work>
  </rdf:RDF>
 </metadata>
 <defs>
  <style type="text/css">*{stroke-linejoin: round; stroke-linecap: butt}</style>
 </defs>
 <g id="figure_1">
  <g id="patch_1">
   <path d="M 0 265.689687 
L 393.097656 265.689687 
L 393.097656 0 
L 0 0 
z
" style="fill: #ffffff"/>
  </g>
  <g id="axes_1">
   <g id="patch_2">
    <path d="M 41.367188 228.96 
L 376.167188 228.96 
L 376.167188 7.2 
L 41.367188 7.2 
z
" style="fill: #ffffff"/>
   </g>
   <g id="PolyCollection_1">
    <path d="M 41.367188 92.168822 
L 41.367188 180.000539 
L 43.741757 182.456352 
L 46.116327 183.961614 
L 48.490897 183.393347 
L 50.865467 181.227203 
L 53.240037 179.065766 
L 55.614607 178.200512 
L 57.989177 178.604987 
L 60.363747 179.521153 
L 62.738317 179.829121 
L 65.112887 178.359558 
L 67.487457 175.367589 
L 69.862027 173.109622 
L 72.236597 173.844456 
L 74.611167 176.648081 
L 76.985737 178.823977 
L 79.360307 178.909757 
L 81.734877 176.386735 
L 84.109447 172.39204 
L 86.484017 170.690844 
L 88.858587 171.889137 
L 91.233157 174.127837 
L 93.607727 176.755514 
L 95.982297 179.104198 
L 98.356867 180.603597 
L 100.731437 180.861252 
L 103.106007 180.019694 
L 105.480577 178.862806 
L 107.855147 177.795135 
L 110.229717 176.888972 
L 112.604287 176.197898 
L 114.978857 175.678488 
L 117.353427 175.713588 
L 119.727997 177.275591 
L 122.102567 179.395168 
L 124.477137 179.776994 
L 126.851707 178.33631 
L 129.226277 175.435363 
L 131.600847 171.419412 
L 133.975417 167.149265 
L 136.349987 165.911784 
L 138.724557 169.710007 
L 141.099127 174.106803 
L 143.473697 177.464622 
L 145.848267 179.382285 
L 148.222837 179.974991 
L 150.597407 180.488281 
L 152.971977 180.498907 
L 155.346547 178.556282 
L 157.721117 174.97392 
L 160.095687 173.112415 
L 162.470257 173.705858 
L 164.844827 173.497874 
L 167.219397 171.549425 
L 169.593967 168.295781 
L 171.968537 165.774833 
L 174.343107 165.913255 
L 176.717677 167.772346 
L 179.092247 168.559844 
L 181.466817 168.103132 
L 183.841387 169.69526 
L 186.215957 173.180587 
L 188.590527 176.460455 
L 190.965097 178.643808 
L 193.339667 179.163432 
L 195.714237 177.829036 
L 198.088807 176.221614 
L 200.463377 175.600813 
L 202.837947 174.860582 
L 205.212517 173.556721 
L 207.587087 173.27266 
L 209.961657 174.436144 
L 212.336227 175.405201 
L 214.710797 175.601394 
L 217.085367 176.804848 
L 219.459937 180.728701 
L 221.834507 185.329101 
L 224.209077 189.049422 
L 226.583647 192.205194 
L 228.958217 194.925624 
L 231.332787 198.222083 
L 233.707357 202.125893 
L 236.081927 205.269026 
L 238.456497 206.619987 
L 240.831067 205.926684 
L 243.205637 203.541702 
L 245.580207 200.598701 
L 247.954777 199.854534 
L 250.329347 202.914501 
L 252.703917 205.246845 
L 255.078487 205.463638 
L 257.453057 203.877593 
L 259.827627 202.147355 
L 262.202197 201.135783 
L 264.576767 200.097713 
L 266.951337 199.129825 
L 269.325907 199.03039 
L 271.700477 199.896117 
L 274.075047 200.718707 
L 276.449617 200.883989 
L 278.824187 200.412079 
L 281.198757 199.943437 
L 283.573327 200.820669 
L 285.947897 203.521639 
L 288.322467 206.443858 
L 290.697037 208.371513 
L 293.071607 209.038357 
L 295.446177 208.219404 
L 297.820747 205.903904 
L 300.195317 202.714069 
L 302.569887 199.834335 
L 304.944457 198.544712 
L 307.319027 198.957612 
L 309.693597 199.780866 
L 312.068167 199.904685 
L 314.442737 199.216234 
L 316.817307 198.433761 
L 319.191877 198.467278 
L 321.566447 200.044806 
L 323.941017 203.070599 
L 326.315587 206.509959 
L 328.690157 209.311986 
L 331.064727 210.898947 
L 333.439297 211.291912 
L 335.813867 210.936744 
L 338.188437 210.451184 
L 340.563007 210.374122 
L 342.937577 210.955488 
L 345.312147 212.163438 
L 347.686717 213.692896 
L 350.061287 214.938708 
L 352.435857 215.478436 
L 354.810427 215.282938 
L 357.184997 214.578419 
L 359.559566 213.942432 
L 361.934136 214.107535 
L 364.308706 214.808268 
L 366.683276 215.533768 
L 369.057846 216.173211 
L 371.432416 216.661517 
L 373.806986 216.803566 
L 376.181556 216.421495 
L 378.556126 215.519221 
L 380.930696 214.311365 
L 383.305266 213.152456 
L 385.679836 212.270655 
L 388.054406 211.636354 
L 390.428976 211.215499 
L 392.803546 211.108042 
L 395.178116 211.286697 
L 397.552686 211.538224 
L 399.927256 211.781549 
L 402.301826 212.084161 
L 404.676396 212.301941 
L 407.050966 212.252428 
L 409.425536 211.892698 
L 411.800106 211.286492 
L 414.174676 210.642152 
L 416.549246 210.330028 
L 418.923816 210.348254 
L 421.298386 210.542378 
L 423.672956 210.949355 
L 426.047526 211.334721 
L 428.422096 211.416973 
L 430.796666 211.415652 
L 433.171236 211.953139 
L 435.545806 213.01713 
L 437.920376 213.941763 
L 440.294946 214.234476 
L 442.669516 213.703214 
L 445.044086 212.533198 
L 447.418656 211.375731 
L 449.793226 210.795457 
L 452.167796 210.961152 
L 454.542366 211.647423 
L 456.916936 212.46243 
L 459.291506 213.035451 
L 461.666076 213.171808 
L 464.040646 212.941779 
L 466.415216 212.541589 
L 468.789786 212.211764 
L 471.164356 212.123877 
L 473.538926 212.22186 
L 475.913496 212.332644 
L 478.288066 212.260536 
L 480.662636 211.893828 
L 483.037206 211.252121 
L 485.411776 210.443839 
L 487.786346 209.679741 
L 490.160916 209.563227 
L 492.535486 210.169921 
L 494.910056 210.97031 
L 497.284626 211.558521 
L 499.659196 211.849229 
L 502.033766 211.92059 
L 504.408336 211.894869 
L 506.782906 211.888038 
L 509.157476 211.877968 
L 511.532046 211.742882 
L 513.906616 211.440182 
L 513.906616 200.695173 
L 513.906616 200.695173 
L 511.532046 200.557501 
L 509.157476 199.708366 
L 506.782906 198.377207 
L 504.408336 196.629429 
L 502.033766 195.123926 
L 499.659196 194.565538 
L 497.284626 195.129454 
L 494.910056 196.694535 
L 492.535486 199.06987 
L 490.160916 201.869463 
L 487.786346 204.218135 
L 485.411776 205.554355 
L 483.037206 206.217325 
L 480.662636 206.511814 
L 478.288066 206.619848 
L 475.913496 206.526338 
L 473.538926 206.265723 
L 471.164356 206.059707 
L 468.789786 206.027565 
L 466.415216 205.818298 
L 464.040646 205.163416 
L 461.666076 204.330959 
L 459.291506 203.959191 
L 456.916936 204.479737 
L 454.542366 205.502392 
L 452.167796 206.262923 
L 449.793226 206.5022 
L 447.418656 206.678527 
L 445.044086 207.139239 
L 442.669516 207.449608 
L 440.294946 207.358753 
L 437.920376 206.993582 
L 435.545806 206.736385 
L 433.171236 206.79601 
L 430.796666 206.801136 
L 428.422096 206.593312 
L 426.047526 206.507807 
L 423.672956 206.657614 
L 421.298386 206.932623 
L 418.923816 207.366151 
L 416.549246 208.005067 
L 414.174676 208.477185 
L 411.800106 208.676063 
L 409.425536 208.953028 
L 407.050966 209.406478 
L 404.676396 209.939805 
L 402.301826 210.362473 
L 399.927256 210.429147 
L 397.552686 210.120128 
L 395.178116 209.770263 
L 392.803546 209.550415 
L 390.428976 209.430065 
L 388.054406 209.540282 
L 385.679836 210.077158 
L 383.305266 210.926551 
L 380.930696 211.75102 
L 378.556126 212.360026 
L 376.181556 212.754812 
L 373.806986 212.959128 
L 371.432416 212.962071 
L 369.057846 212.68981 
L 366.683276 212.147793 
L 364.308706 211.575848 
L 361.934136 211.190455 
L 359.559566 210.692072 
L 357.184997 209.853774 
L 354.810427 209.293852 
L 352.435857 209.192914 
L 350.061287 209.190355 
L 347.686717 208.832364 
L 345.312147 207.874713 
L 342.937577 206.603275 
L 340.563007 205.405922 
L 338.188437 204.044033 
L 335.813867 202.140953 
L 333.439297 199.744853 
L 331.064727 197.099268 
L 328.690157 194.230537 
L 326.315587 191.040148 
L 323.941017 187.929237 
L 321.566447 185.941726 
L 319.191877 185.623821 
L 316.817307 186.653119 
L 314.442737 187.8426 
L 312.068167 187.920424 
L 309.693597 186.793915 
L 307.319027 185.28 
L 304.944457 184.341203 
L 302.569887 184.615443 
L 300.195317 186.555322 
L 297.820747 189.796782 
L 295.446177 193.348207 
L 293.071607 196.309084 
L 290.697037 197.684303 
L 288.322467 196.979947 
L 285.947897 194.651111 
L 283.573327 191.026855 
L 281.198757 186.458794 
L 278.824187 182.696478 
L 276.449617 180.788488 
L 274.075047 180.387667 
L 271.700477 180.855843 
L 269.325907 181.241868 
L 266.951337 181.035414 
L 264.576767 181.876005 
L 262.202197 185.446663 
L 259.827627 190.313938 
L 257.453057 192.997681 
L 255.078487 193.153316 
L 252.703917 192.997274 
L 250.329347 193.61753 
L 247.954777 194.193367 
L 245.580207 191.160891 
L 243.205637 186.468255 
L 240.831067 181.547266 
L 238.456497 176.279487 
L 236.081927 171.852589 
L 233.707357 170.248988 
L 231.332787 171.651295 
L 228.958217 173.74633 
L 226.583647 174.402765 
L 224.209077 172.162117 
L 221.834507 165.823664 
L 219.459937 157.175905 
L 217.085367 147.419895 
L 214.710797 136.422144 
L 212.336227 128.185204 
L 209.961657 125.332512 
L 207.587087 125.124116 
L 205.212517 123.864504 
L 202.837947 122.364954 
L 200.463377 124.755719 
L 198.088807 129.729148 
L 195.714237 131.285056 
L 193.339667 128.88798 
L 190.965097 126.62854 
L 188.590527 126.583901 
L 186.215957 128.637171 
L 183.841387 131.525229 
L 181.466817 130.924014 
L 179.092247 123.760389 
L 176.717677 114.310787 
L 174.343107 106.970253 
L 171.968537 106.139867 
L 169.593967 113.166768 
L 167.219397 121.461111 
L 164.844827 125.620391 
L 162.470257 127.630546 
L 160.095687 130.040263 
L 157.721117 127.125244 
L 155.346547 118.048536 
L 152.971977 111.031622 
L 150.597407 111.961839 
L 148.222837 117.226971 
L 145.848267 121.703768 
L 143.473697 125.495154 
L 141.099127 128.529555 
L 138.724557 130.870496 
L 136.349987 128.52064 
L 133.975417 113.552186 
L 131.600847 94.482579 
L 129.226277 88.334231 
L 126.851707 95.379959 
L 124.477137 107.658151 
L 122.102567 118.018241 
L 119.727997 122.069521 
L 117.353427 117.591473 
L 114.978857 109.075799 
L 112.604287 105.33541 
L 110.229717 107.881788 
L 107.855147 111.618705 
L 105.480577 112.343075 
L 103.106007 109.938825 
L 100.731437 108.160866 
L 98.356867 110.557292 
L 95.982297 114.693384 
L 93.607727 116.738598 
L 91.233157 118.020188 
L 88.858587 123.706593 
L 86.484017 134.307339 
L 84.109447 141.732996 
L 81.734877 142.290182 
L 79.360307 139.462987 
L 76.985737 135.329351 
L 74.611167 131.016099 
L 72.236597 128.394094 
L 69.862027 128.420312 
L 67.487457 129.730189 
L 65.112887 129.764307 
L 62.738317 126.888844 
L 60.363747 120.725296 
L 57.989177 112.867389 
L 55.614607 107.198817 
L 53.240037 105.539634 
L 50.865467 107.738265 
L 48.490897 111.346532 
L 46.116327 110.236615 
L 43.741757 101.789961 
L 41.367188 92.168822 
z
" clip-path="url(#pe94dd0dd8b)" style="fill: #808080; fill-opacity: 0.5; stroke: #808080; stroke-opacity: 0.5"/>
   </g>
   <g id="matplotlib.axis_1">
    <g id="xtick_1">
     <g id="line2d_1">
      <defs>
       <path id="m07b569f3b5" d="M 0 0 
L 0 3.5 
" style="stroke: #000000; stroke-width: 0.8"/>
      </defs>
      <g>
       <use xlink:href="#m07b569f3b5" x="179.106616" y="228.96" style="stroke: #000000; stroke-width: 0.8"/>
      </g>
     </g>
     <g id="text_1">
      <!-- 1.0 -->
      <g transform="translate(172.156616 243.117812) scale(0.1 -0.1)">
       <defs>
        <path id="ArialMT-31" d="M 2384 0 
L 1822 0 
L 1822 3584 
Q 1619 3391 1289 3197 
Q 959 3003 697 2906 
L 697 3450 
Q 1169 3672 1522 3987 
Q 1875 4303 2022 4600 
L 2384 4600 
L 2384 0 
z
" transform="scale(0.015625)"/>
        <path id="ArialMT-2e" d="M 581 0 
L 581 641 
L 1222 641 
L 1222 0 
L 581 0 
z
" transform="scale(0.015625)"/>
        <path id="ArialMT-30" d="M 266 2259 
Q 266 3072 433 3567 
Q 600 4063 929 4331 
Q 1259 4600 1759 4600 
Q 2128 4600 2406 4451 
Q 2684 4303 2865 4023 
Q 3047 3744 3150 3342 
Q 3253 2941 3253 2259 
Q 3253 1453 3087 958 
Q 2922 463 2592 192 
Q 2263 -78 1759 -78 
Q 1097 -78 719 397 
Q 266 969 266 2259 
z
M 844 2259 
Q 844 1131 1108 757 
Q 1372 384 1759 384 
Q 2147 384 2411 759 
Q 2675 1134 2675 2259 
Q 2675 3391 2411 3762 
Q 2147 4134 1753 4134 
Q 1366 4134 1134 3806 
Q 844 3388 844 2259 
z
" transform="scale(0.015625)"/>
       </defs>
       <use xlink:href="#ArialMT-31"/>
       <use xlink:href="#ArialMT-2e" x="55.615234"/>
       <use xlink:href="#ArialMT-30" x="83.398438"/>
      </g>
     </g>
    </g>
    <g id="xtick_2">
     <g id="line2d_2">
      <g>
       <use xlink:href="#m07b569f3b5" x="376.167188" y="228.96" style="stroke: #000000; stroke-width: 0.8"/>
      </g>
     </g>
     <g id="text_2">
      <!-- 10.0 -->
      <g transform="translate(366.436719 243.117812) scale(0.1 -0.1)">
       <use xlink:href="#ArialMT-31"/>
       <use xlink:href="#ArialMT-30" x="55.615234"/>
       <use xlink:href="#ArialMT-2e" x="111.230469"/>
       <use xlink:href="#ArialMT-30" x="139.013672"/>
      </g>
     </g>
    </g>
    <g id="xtick_3">
     <g id="line2d_3">
      <defs>
       <path id="mbf5e4ea26c" d="M 0 0 
L 0 2 
" style="stroke: #000000; stroke-width: 0.6"/>
      </defs>
      <g>
       <use xlink:href="#mbf5e4ea26c" x="41.367188" y="228.96" style="stroke: #000000; stroke-width: 0.6"/>
      </g>
     </g>
    </g>
    <g id="xtick_4">
     <g id="line2d_4">
      <g>
       <use xlink:href="#mbf5e4ea26c" x="76.067832" y="228.96" style="stroke: #000000; stroke-width: 0.6"/>
      </g>
     </g>
    </g>
    <g id="xtick_5">
     <g id="line2d_5">
      <g>
       <use xlink:href="#mbf5e4ea26c" x="100.68833" y="228.96" style="stroke: #000000; stroke-width: 0.6"/>
      </g>
     </g>
    </g>
    <g id="xtick_6">
     <g id="line2d_6">
      <g>
       <use xlink:href="#mbf5e4ea26c" x="119.785473" y="228.96" style="stroke: #000000; stroke-width: 0.6"/>
      </g>
     </g>
    </g>
    <g id="xtick_7">
     <g id="line2d_7">
      <g>
       <use xlink:href="#mbf5e4ea26c" x="135.388975" y="228.96" style="stroke: #000000; stroke-width: 0.6"/>
      </g>
     </g>
    </g>
    <g id="xtick_8">
     <g id="line2d_8">
      <g>
       <use xlink:href="#mbf5e4ea26c" x="148.581547" y="228.96" style="stroke: #000000; stroke-width: 0.6"/>
      </g>
     </g>
    </g>
    <g id="xtick_9">
     <g id="line2d_9">
      <g>
       <use xlink:href="#mbf5e4ea26c" x="160.009473" y="228.96" style="stroke: #000000; stroke-width: 0.6"/>
      </g>
     </g>
    </g>
    <g id="xtick_10">
     <g id="line2d_10">
      <g>
       <use xlink:href="#mbf5e4ea26c" x="170.089619" y="228.96" style="stroke: #000000; stroke-width: 0.6"/>
      </g>
     </g>
    </g>
    <g id="xtick_11">
     <g id="line2d_11">
      <g>
       <use xlink:href="#mbf5e4ea26c" x="238.427759" y="228.96" style="stroke: #000000; stroke-width: 0.6"/>
      </g>
     </g>
    </g>
    <g id="xtick_12">
     <g id="line2d_12">
      <g>
       <use xlink:href="#mbf5e4ea26c" x="273.128403" y="228.96" style="stroke: #000000; stroke-width: 0.6"/>
      </g>
     </g>
    </g>
    <g id="xtick_13">
     <g id="line2d_13">
      <g>
       <use xlink:href="#mbf5e4ea26c" x="297.748902" y="228.96" style="stroke: #000000; stroke-width: 0.6"/>
      </g>
     </g>
    </g>
    <g id="xtick_14">
     <g id="line2d_14">
      <g>
       <use xlink:href="#mbf5e4ea26c" x="316.846045" y="228.96" style="stroke: #000000; stroke-width: 0.6"/>
      </g>
     </g>
    </g>
    <g id="xtick_15">
     <g id="line2d_15">
      <g>
       <use xlink:href="#mbf5e4ea26c" x="332.449546" y="228.96" style="stroke: #000000; stroke-width: 0.6"/>
      </g>
     </g>
    </g>
    <g id="xtick_16">
     <g id="line2d_16">
      <g>
       <use xlink:href="#mbf5e4ea26c" x="345.642119" y="228.96" style="stroke: #000000; stroke-width: 0.6"/>
      </g>
     </g>
    </g>
    <g id="xtick_17">
     <g id="line2d_17">
      <g>
       <use xlink:href="#mbf5e4ea26c" x="357.070045" y="228.96" style="stroke: #000000; stroke-width: 0.6"/>
      </g>
     </g>
    </g>
    <g id="xtick_18">
     <g id="line2d_18">
      <g>
       <use xlink:href="#mbf5e4ea26c" x="367.15019" y="228.96" style="stroke: #000000; stroke-width: 0.6"/>
      </g>
     </g>
    </g>
    <g id="text_3">
     <!-- Frequency (Hz) -->
     <g transform="translate(174.316406 256.385) scale(0.1 -0.1)">
      <defs>
       <path id="ArialMT-46" d="M 525 0 
L 525 4581 
L 3616 4581 
L 3616 4041 
L 1131 4041 
L 1131 2622 
L 3281 2622 
L 3281 2081 
L 1131 2081 
L 1131 0 
L 525 0 
z
" transform="scale(0.015625)"/>
       <path id="ArialMT-72" d="M 416 0 
L 416 3319 
L 922 3319 
L 922 2816 
Q 1116 3169 1280 3281 
Q 1444 3394 1641 3394 
Q 1925 3394 2219 3213 
L 2025 2691 
Q 1819 2813 1613 2813 
Q 1428 2813 1281 2702 
Q 1134 2591 1072 2394 
Q 978 2094 978 1738 
L 978 0 
L 416 0 
z
" transform="scale(0.015625)"/>
       <path id="ArialMT-65" d="M 2694 1069 
L 3275 997 
Q 3138 488 2766 206 
Q 2394 -75 1816 -75 
Q 1088 -75 661 373 
Q 234 822 234 1631 
Q 234 2469 665 2931 
Q 1097 3394 1784 3394 
Q 2450 3394 2872 2941 
Q 3294 2488 3294 1666 
Q 3294 1616 3291 1516 
L 816 1516 
Q 847 969 1125 678 
Q 1403 388 1819 388 
Q 2128 388 2347 550 
Q 2566 713 2694 1069 
z
M 847 1978 
L 2700 1978 
Q 2663 2397 2488 2606 
Q 2219 2931 1791 2931 
Q 1403 2931 1139 2672 
Q 875 2413 847 1978 
z
" transform="scale(0.015625)"/>
       <path id="ArialMT-71" d="M 2538 -1272 
L 2538 353 
Q 2406 169 2170 47 
Q 1934 -75 1669 -75 
Q 1078 -75 651 397 
Q 225 869 225 1691 
Q 225 2191 398 2587 
Q 572 2984 901 3189 
Q 1231 3394 1625 3394 
Q 2241 3394 2594 2875 
L 2594 3319 
L 3100 3319 
L 3100 -1272 
L 2538 -1272 
z
M 803 1669 
Q 803 1028 1072 708 
Q 1341 388 1716 388 
Q 2075 388 2334 692 
Q 2594 997 2594 1619 
Q 2594 2281 2320 2615 
Q 2047 2950 1678 2950 
Q 1313 2950 1058 2639 
Q 803 2328 803 1669 
z
" transform="scale(0.015625)"/>
       <path id="ArialMT-75" d="M 2597 0 
L 2597 488 
Q 2209 -75 1544 -75 
Q 1250 -75 995 37 
Q 741 150 617 320 
Q 494 491 444 738 
Q 409 903 409 1263 
L 409 3319 
L 972 3319 
L 972 1478 
Q 972 1038 1006 884 
Q 1059 663 1231 536 
Q 1403 409 1656 409 
Q 1909 409 2131 539 
Q 2353 669 2445 892 
Q 2538 1116 2538 1541 
L 2538 3319 
L 3100 3319 
L 3100 0 
L 2597 0 
z
" transform="scale(0.015625)"/>
       <path id="ArialMT-6e" d="M 422 0 
L 422 3319 
L 928 3319 
L 928 2847 
Q 1294 3394 1984 3394 
Q 2284 3394 2536 3286 
Q 2788 3178 2913 3003 
Q 3038 2828 3088 2588 
Q 3119 2431 3119 2041 
L 3119 0 
L 2556 0 
L 2556 2019 
Q 2556 2363 2490 2533 
Q 2425 2703 2258 2804 
Q 2091 2906 1866 2906 
Q 1506 2906 1245 2678 
Q 984 2450 984 1813 
L 984 0 
L 422 0 
z
" transform="scale(0.015625)"/>
       <path id="ArialMT-63" d="M 2588 1216 
L 3141 1144 
Q 3050 572 2676 248 
Q 2303 -75 1759 -75 
Q 1078 -75 664 370 
Q 250 816 250 1647 
Q 250 2184 428 2587 
Q 606 2991 970 3192 
Q 1334 3394 1763 3394 
Q 2303 3394 2647 3120 
Q 2991 2847 3088 2344 
L 2541 2259 
Q 2463 2594 2264 2762 
Q 2066 2931 1784 2931 
Q 1359 2931 1093 2626 
Q 828 2322 828 1663 
Q 828 994 1084 691 
Q 1341 388 1753 388 
Q 2084 388 2306 591 
Q 2528 794 2588 1216 
z
" transform="scale(0.015625)"/>
       <path id="ArialMT-79" d="M 397 -1278 
L 334 -750 
Q 519 -800 656 -800 
Q 844 -800 956 -737 
Q 1069 -675 1141 -563 
Q 1194 -478 1313 -144 
Q 1328 -97 1363 -6 
L 103 3319 
L 709 3319 
L 1400 1397 
Q 1534 1031 1641 628 
Q 1738 1016 1872 1384 
L 2581 3319 
L 3144 3319 
L 1881 -56 
Q 1678 -603 1566 -809 
Q 1416 -1088 1222 -1217 
Q 1028 -1347 759 -1347 
Q 597 -1347 397 -1278 
z
" transform="scale(0.015625)"/>
       <path id="ArialMT-20" transform="scale(0.015625)"/>
       <path id="ArialMT-28" d="M 1497 -1347 
Q 1031 -759 709 28 
Q 388 816 388 1659 
Q 388 2403 628 3084 
Q 909 3875 1497 4659 
L 1900 4659 
Q 1522 4009 1400 3731 
Q 1209 3300 1100 2831 
Q 966 2247 966 1656 
Q 966 153 1900 -1347 
L 1497 -1347 
z
" transform="scale(0.015625)"/>
       <path id="ArialMT-48" d="M 513 0 
L 513 4581 
L 1119 4581 
L 1119 2700 
L 3500 2700 
L 3500 4581 
L 4106 4581 
L 4106 0 
L 3500 0 
L 3500 2159 
L 1119 2159 
L 1119 0 
L 513 0 
z
" transform="scale(0.015625)"/>
       <path id="ArialMT-7a" d="M 125 0 
L 125 456 
L 2238 2881 
Q 1878 2863 1603 2863 
L 250 2863 
L 250 3319 
L 2963 3319 
L 2963 2947 
L 1166 841 
L 819 456 
Q 1197 484 1528 484 
L 3063 484 
L 3063 0 
L 125 0 
z
" transform="scale(0.015625)"/>
       <path id="ArialMT-29" d="M 791 -1347 
L 388 -1347 
Q 1322 153 1322 1656 
Q 1322 2244 1188 2822 
Q 1081 3291 891 3722 
Q 769 4003 388 4659 
L 791 4659 
Q 1378 3875 1659 3084 
Q 1900 2403 1900 1659 
Q 1900 816 1576 28 
Q 1253 -759 791 -1347 
z
" transform="scale(0.015625)"/>
      </defs>
      <use xlink:href="#ArialMT-46"/>
      <use xlink:href="#ArialMT-72" x="61.083984"/>
      <use xlink:href="#ArialMT-65" x="94.384766"/>
      <use xlink:href="#ArialMT-71" x="150"/>
      <use xlink:href="#ArialMT-75" x="205.615234"/>
      <use xlink:href="#ArialMT-65" x="261.230469"/>
      <use xlink:href="#ArialMT-6e" x="316.845703"/>
      <use xlink:href="#ArialMT-63" x="372.460938"/>
      <use xlink:href="#ArialMT-79" x="422.460938"/>
      <use xlink:href="#ArialMT-20" x="472.460938"/>
      <use xlink:href="#ArialMT-28" x="500.244141"/>
      <use xlink:href="#ArialMT-48" x="533.544922"/>
      <use xlink:href="#ArialMT-7a" x="605.761719"/>
      <use xlink:href="#ArialMT-29" x="655.761719"/>
     </g>
    </g>
   </g>
   <g id="matplotlib.axis_2">
    <g id="ytick_1">
     <g id="line2d_19">
      <defs>
       <path id="mb55719c64f" d="M 0 0 
L -3.5 0 
" style="stroke: #000000; stroke-width: 0.8"/>
      </defs>
      <g>
       <use xlink:href="#mb55719c64f" x="41.367188" y="228.96" style="stroke: #000000; stroke-width: 0.8"/>
      </g>
     </g>
     <g id="text_4">
      <!-- 0.0 -->
      <g transform="translate(20.467188 232.538906) scale(0.1 -0.1)">
       <use xlink:href="#ArialMT-30"/>
       <use xlink:href="#ArialMT-2e" x="55.615234"/>
       <use xlink:href="#ArialMT-30" x="83.398438"/>
      </g>
     </g>
    </g>
    <g id="ytick_2">
     <g id="line2d_20">
      <g>
       <use xlink:href="#mb55719c64f" x="41.367188" y="184.499361" style="stroke: #000000; stroke-width: 0.8"/>
      </g>
     </g>
     <g id="text_5">
      <!-- 1.0 -->
      <g transform="translate(20.467188 188.078267) scale(0.1 -0.1)">
       <use xlink:href="#ArialMT-31"/>
       <use xlink:href="#ArialMT-2e" x="55.615234"/>
       <use xlink:href="#ArialMT-30" x="83.398438"/>
      </g>
     </g>
    </g>
    <g id="ytick_3">
     <g id="line2d_21">
      <g>
       <use xlink:href="#mb55719c64f" x="41.367188" y="140.038721" style="stroke: #000000; stroke-width: 0.8"/>
      </g>
     </g>
     <g id="text_6">
      <!-- 2.0 -->
      <g transform="translate(20.467188 143.617628) scale(0.1 -0.1)">
       <defs>
        <path id="ArialMT-32" d="M 3222 541 
L 3222 0 
L 194 0 
Q 188 203 259 391 
Q 375 700 629 1000 
Q 884 1300 1366 1694 
Q 2113 2306 2375 2664 
Q 2638 3022 2638 3341 
Q 2638 3675 2398 3904 
Q 2159 4134 1775 4134 
Q 1369 4134 1125 3890 
Q 881 3647 878 3216 
L 300 3275 
Q 359 3922 746 4261 
Q 1134 4600 1788 4600 
Q 2447 4600 2831 4234 
Q 3216 3869 3216 3328 
Q 3216 3053 3103 2787 
Q 2991 2522 2730 2228 
Q 2469 1934 1863 1422 
Q 1356 997 1212 845 
Q 1069 694 975 541 
L 3222 541 
z
" transform="scale(0.015625)"/>
       </defs>
       <use xlink:href="#ArialMT-32"/>
       <use xlink:href="#ArialMT-2e" x="55.615234"/>
       <use xlink:href="#ArialMT-30" x="83.398438"/>
      </g>
     </g>
    </g>
    <g id="ytick_4">
     <g id="line2d_22">
      <g>
       <use xlink:href="#mb55719c64f" x="41.367188" y="95.578082" style="stroke: #000000; stroke-width: 0.8"/>
      </g>
     </g>
     <g id="text_7">
      <!-- 3.0 -->
      <g transform="translate(20.467188 99.156988) scale(0.1 -0.1)">
       <defs>
        <path id="ArialMT-33" d="M 269 1209 
L 831 1284 
Q 928 806 1161 595 
Q 1394 384 1728 384 
Q 2125 384 2398 659 
Q 2672 934 2672 1341 
Q 2672 1728 2419 1979 
Q 2166 2231 1775 2231 
Q 1616 2231 1378 2169 
L 1441 2663 
Q 1497 2656 1531 2656 
Q 1891 2656 2178 2843 
Q 2466 3031 2466 3422 
Q 2466 3731 2256 3934 
Q 2047 4138 1716 4138 
Q 1388 4138 1169 3931 
Q 950 3725 888 3313 
L 325 3413 
Q 428 3978 793 4289 
Q 1159 4600 1703 4600 
Q 2078 4600 2393 4439 
Q 2709 4278 2876 4000 
Q 3044 3722 3044 3409 
Q 3044 3113 2884 2869 
Q 2725 2625 2413 2481 
Q 2819 2388 3044 2092 
Q 3269 1797 3269 1353 
Q 3269 753 2831 336 
Q 2394 -81 1725 -81 
Q 1122 -81 723 278 
Q 325 638 269 1209 
z
" transform="scale(0.015625)"/>
       </defs>
       <use xlink:href="#ArialMT-33"/>
       <use xlink:href="#ArialMT-2e" x="55.615234"/>
       <use xlink:href="#ArialMT-30" x="83.398438"/>
      </g>
     </g>
    </g>
    <g id="ytick_5">
     <g id="line2d_23">
      <g>
       <use xlink:href="#mb55719c64f" x="41.367188" y="51.117443" style="stroke: #000000; stroke-width: 0.8"/>
      </g>
     </g>
     <g id="text_8">
      <!-- 4.0 -->
      <g transform="translate(20.467188 54.696349) scale(0.1 -0.1)">
       <defs>
        <path id="ArialMT-34" d="M 2069 0 
L 2069 1097 
L 81 1097 
L 81 1613 
L 2172 4581 
L 2631 4581 
L 2631 1613 
L 3250 1613 
L 3250 1097 
L 2631 1097 
L 2631 0 
L 2069 0 
z
M 2069 1613 
L 2069 3678 
L 634 1613 
L 2069 1613 
z
" transform="scale(0.015625)"/>
       </defs>
       <use xlink:href="#ArialMT-34"/>
       <use xlink:href="#ArialMT-2e" x="55.615234"/>
       <use xlink:href="#ArialMT-30" x="83.398438"/>
      </g>
     </g>
    </g>
    <g id="text_9">
     <!-- H/V Amplitude -->
     <g transform="translate(14.479688 149.762031) rotate(-90) scale(0.1 -0.1)">
      <defs>
       <path id="ArialMT-2f" d="M 0 -78 
L 1328 4659 
L 1778 4659 
L 453 -78 
L 0 -78 
z
" transform="scale(0.015625)"/>
       <path id="ArialMT-56" d="M 1803 0 
L 28 4581 
L 684 4581 
L 1875 1253 
Q 2019 853 2116 503 
Q 2222 878 2363 1253 
L 3600 4581 
L 4219 4581 
L 2425 0 
L 1803 0 
z
" transform="scale(0.015625)"/>
       <path id="ArialMT-41" d="M -9 0 
L 1750 4581 
L 2403 4581 
L 4278 0 
L 3588 0 
L 3053 1388 
L 1138 1388 
L 634 0 
L -9 0 
z
M 1313 1881 
L 2866 1881 
L 2388 3150 
Q 2169 3728 2063 4100 
Q 1975 3659 1816 3225 
L 1313 1881 
z
" transform="scale(0.015625)"/>
       <path id="ArialMT-6d" d="M 422 0 
L 422 3319 
L 925 3319 
L 925 2853 
Q 1081 3097 1340 3245 
Q 1600 3394 1931 3394 
Q 2300 3394 2536 3241 
Q 2772 3088 2869 2813 
Q 3263 3394 3894 3394 
Q 4388 3394 4653 3120 
Q 4919 2847 4919 2278 
L 4919 0 
L 4359 0 
L 4359 2091 
Q 4359 2428 4304 2576 
Q 4250 2725 4106 2815 
Q 3963 2906 3769 2906 
Q 3419 2906 3187 2673 
Q 2956 2441 2956 1928 
L 2956 0 
L 2394 0 
L 2394 2156 
Q 2394 2531 2256 2718 
Q 2119 2906 1806 2906 
Q 1569 2906 1367 2781 
Q 1166 2656 1075 2415 
Q 984 2175 984 1722 
L 984 0 
L 422 0 
z
" transform="scale(0.015625)"/>
       <path id="ArialMT-70" d="M 422 -1272 
L 422 3319 
L 934 3319 
L 934 2888 
Q 1116 3141 1344 3267 
Q 1572 3394 1897 3394 
Q 2322 3394 2647 3175 
Q 2972 2956 3137 2557 
Q 3303 2159 3303 1684 
Q 3303 1175 3120 767 
Q 2938 359 2589 142 
Q 2241 -75 1856 -75 
Q 1575 -75 1351 44 
Q 1128 163 984 344 
L 984 -1272 
L 422 -1272 
z
M 931 1641 
Q 931 1000 1190 694 
Q 1450 388 1819 388 
Q 2194 388 2461 705 
Q 2728 1022 2728 1688 
Q 2728 2322 2467 2637 
Q 2206 2953 1844 2953 
Q 1484 2953 1207 2617 
Q 931 2281 931 1641 
z
" transform="scale(0.015625)"/>
       <path id="ArialMT-6c" d="M 409 0 
L 409 4581 
L 972 4581 
L 972 0 
L 409 0 
z
" transform="scale(0.015625)"/>
       <path id="ArialMT-69" d="M 425 3934 
L 425 4581 
L 988 4581 
L 988 3934 
L 425 3934 
z
M 425 0 
L 425 3319 
L 988 3319 
L 988 0 
L 425 0 
z
" transform="scale(0.015625)"/>
       <path id="ArialMT-74" d="M 1650 503 
L 1731 6 
Q 1494 -44 1306 -44 
Q 1000 -44 831 53 
Q 663 150 594 308 
Q 525 466 525 972 
L 525 2881 
L 113 2881 
L 113 3319 
L 525 3319 
L 525 4141 
L 1084 4478 
L 1084 3319 
L 1650 3319 
L 1650 2881 
L 1084 2881 
L 1084 941 
Q 1084 700 1114 631 
Q 1144 563 1211 522 
Q 1278 481 1403 481 
Q 1497 481 1650 503 
z
" transform="scale(0.015625)"/>
       <path id="ArialMT-64" d="M 2575 0 
L 2575 419 
Q 2259 -75 1647 -75 
Q 1250 -75 917 144 
Q 584 363 401 755 
Q 219 1147 219 1656 
Q 219 2153 384 2558 
Q 550 2963 881 3178 
Q 1213 3394 1622 3394 
Q 1922 3394 2156 3267 
Q 2391 3141 2538 2938 
L 2538 4581 
L 3097 4581 
L 3097 0 
L 2575 0 
z
M 797 1656 
Q 797 1019 1065 703 
Q 1334 388 1700 388 
Q 2069 388 2326 689 
Q 2584 991 2584 1609 
Q 2584 2291 2321 2609 
Q 2059 2928 1675 2928 
Q 1300 2928 1048 2622 
Q 797 2316 797 1656 
z
" transform="scale(0.015625)"/>
      </defs>
      <use xlink:href="#ArialMT-48"/>
      <use xlink:href="#ArialMT-2f" x="72.216797"/>
      <use xlink:href="#ArialMT-56" x="100"/>
      <use xlink:href="#ArialMT-20" x="166.699219"/>
      <use xlink:href="#ArialMT-41" x="188.982422"/>
      <use xlink:href="#ArialMT-6d" x="255.681641"/>
      <use xlink:href="#ArialMT-70" x="338.982422"/>
      <use xlink:href="#ArialMT-6c" x="394.597656"/>
      <use xlink:href="#ArialMT-69" x="416.814453"/>
      <use xlink:href="#ArialMT-74" x="439.03125"/>
      <use xlink:href="#ArialMT-75" x="466.814453"/>
      <use xlink:href="#ArialMT-64" x="522.429688"/>
      <use xlink:href="#ArialMT-65" x="578.044922"/>
     </g>
    </g>
   </g>
   <g id="line2d_24">
    <path d="M 41.367188 116.673708 
L 43.741757 130.518372 
L 46.116327 148.537488 
L 48.490897 157.028926 
L 50.865467 155.148984 
L 53.240037 147.019674 
L 55.614607 139.401905 
L 57.989177 141.167147 
L 60.363747 151.747033 
L 62.738317 160.702098 
L 65.112887 163.680046 
L 67.487457 163.210134 
L 69.862027 163.891682 
L 72.236597 167.487167 
L 74.611167 170.74436 
L 76.985737 171.189363 
L 79.360307 169.943414 
L 81.734877 169.650258 
L 84.109447 171.26784 
L 86.484017 173.360109 
L 88.858587 174.926239 
L 91.233157 176.233579 
L 93.607727 177.357414 
L 95.982297 177.823409 
L 100.731437 177.481215 
L 105.480577 178.221277 
L 107.855147 177.975688 
L 110.229717 177.238091 
L 112.604287 176.697358 
L 114.978857 176.793445 
L 117.353427 177.256386 
L 119.727997 177.222953 
L 122.102567 175.76432 
L 124.477137 172.633517 
L 126.851707 168.836428 
L 129.226277 166.033088 
L 131.600847 165.215986 
L 133.975417 166.321349 
L 136.349987 169.002373 
L 138.724557 173.06282 
L 141.099127 177.953221 
L 143.473697 182.549631 
L 145.848267 185.665623 
L 148.222837 186.516216 
L 150.597407 185.013654 
L 152.971977 181.615141 
L 155.346547 175.953889 
L 157.721117 166.132508 
L 160.095687 150.246212 
L 162.470257 128.076078 
L 164.844827 102.964426 
L 167.219397 82.92341 
L 169.593967 75.886455 
L 171.968537 80.438708 
L 174.343107 89.077845 
L 176.717677 99.669967 
L 179.092247 113.853561 
L 181.466817 128.882168 
L 183.841387 138.560066 
L 186.215957 140.286649 
L 188.590527 136.321711 
L 190.965097 132.046361 
L 193.339667 132.172811 
L 195.714237 136.772852 
L 198.088807 143.716094 
L 200.463377 151.852947 
L 202.837947 160.552218 
L 205.212517 168.735149 
L 207.587087 175.450022 
L 209.961657 180.241587 
L 212.336227 182.906861 
L 214.710797 183.792337 
L 217.085367 184.427521 
L 219.459937 186.779485 
L 221.834507 190.552025 
L 224.209077 193.266426 
L 226.583647 193.368216 
L 228.958217 191.282969 
L 231.332787 188.831326 
L 233.707357 187.767517 
L 236.081927 188.092808 
L 238.456497 189.151563 
L 240.831067 191.327321 
L 245.580207 198.061615 
L 247.954777 200.282964 
L 250.329347 200.630607 
L 252.703917 198.829923 
L 255.078487 194.829687 
L 257.453057 188.7385 
L 259.827627 181.535751 
L 262.202197 176.245406 
L 264.576767 175.631485 
L 266.951337 177.99743 
L 269.325907 180.853284 
L 271.700477 184.329669 
L 274.075047 189.189788 
L 276.449617 194.418771 
L 278.824187 197.755184 
L 281.198757 198.263955 
L 285.947897 195.569885 
L 288.322467 195.301264 
L 290.697037 195.961992 
L 293.071607 196.459008 
L 295.446177 196.137936 
L 297.820747 195.385668 
L 300.195317 195.174674 
L 302.569887 195.995454 
L 304.944457 197.123126 
L 307.319027 197.353504 
L 309.693597 196.36217 
L 312.068167 195.12064 
L 314.442737 195.093477 
L 316.817307 196.899252 
L 319.191877 199.973429 
L 323.941017 206.773685 
L 326.315587 209.652133 
L 328.690157 211.715746 
L 331.064727 212.620231 
L 333.439297 212.326116 
L 335.813867 211.302655 
L 338.188437 210.452832 
L 340.563007 210.50507 
L 345.312147 212.036343 
L 347.686717 212.417658 
L 352.435857 212.424581 
L 357.184997 212.452726 
L 359.559566 212.543943 
L 361.934136 212.776496 
L 364.308706 213.27677 
L 366.683276 214.120985 
L 371.432416 216.170389 
L 373.806986 216.570606 
L 376.181556 216.172844 
L 378.556126 215.086996 
L 380.930696 213.721695 
L 383.305266 212.607457 
L 385.679836 212.014354 
L 392.803546 211.1955 
L 394.097656 211.148872 
L 394.097656 211.148872 
" clip-path="url(#pe94dd0dd8b)" style="fill: none; stroke: #808080; stroke-opacity: 0.5; stroke-width: 0.5; stroke-linecap: square"/>
   </g>
   <g id="line2d_25">
    <path d="M 41.367188 200.81682 
L 43.741757 200.639374 
L 46.116327 198.4928 
L 48.490897 193.276785 
L 50.865467 185.524536 
L 53.240037 178.257894 
L 55.614607 173.898179 
L 57.989177 172.76074 
L 60.363747 174.80939 
L 62.738317 178.75345 
L 65.112887 182.364938 
L 67.487457 184.47277 
L 69.862027 185.606178 
L 72.236597 187.276084 
L 74.611167 189.354136 
L 76.985737 189.490785 
L 79.360307 185.749415 
L 81.734877 176.472212 
L 84.109447 159.12763 
L 88.858587 105.250654 
L 91.233157 91.777416 
L 93.607727 85.422488 
L 95.982297 69.603204 
L 98.356867 44.512139 
L 100.731437 29.40848 
L 103.106007 34.535206 
L 105.480577 42.648272 
L 107.855147 38.043555 
L 110.229717 23.52456 
L 112.604287 17.190764 
L 114.978857 32.606094 
L 117.353427 60.97423 
L 119.727997 83.006146 
L 122.102567 83.445491 
L 124.477137 58.538302 
L 126.851707 26.761969 
L 129.226277 17.195977 
L 131.600847 36.469033 
L 133.975417 68.828281 
L 136.349987 97.313403 
L 138.724557 113.693915 
L 141.099127 116.364394 
L 143.473697 108.653081 
L 145.848267 103.024451 
L 148.222837 112.607086 
L 150.597407 131.098642 
L 152.971977 147.935648 
L 155.346547 161.983794 
L 157.721117 174.485452 
L 160.095687 183.824073 
L 162.470257 187.565436 
L 164.844827 184.090304 
L 167.219397 171.949674 
L 169.593967 152.0475 
L 171.968537 134.866678 
L 174.343107 133.602462 
L 176.717677 141.94707 
L 179.092247 146.810317 
L 181.466817 143.874922 
L 183.841387 134.677242 
L 186.215957 124.47507 
L 188.590527 123.37946 
L 190.965097 137.095339 
L 193.339667 154.437007 
L 195.714237 164.322247 
L 198.088807 165.941105 
L 200.463377 162.214067 
L 202.837947 156.741614 
L 205.212517 152.150186 
L 207.587087 148.901024 
L 209.961657 147.444838 
L 212.336227 149.705902 
L 214.710797 156.45831 
L 217.085367 165.096571 
L 219.459937 172.09047 
L 221.834507 176.15218 
L 224.209077 178.282755 
L 228.958217 181.177921 
L 231.332787 183.268082 
L 236.081927 189.71518 
L 238.456497 190.596054 
L 240.831067 188.756402 
L 243.205637 187.382695 
L 245.580207 191.230964 
L 247.954777 199.23213 
L 250.329347 206.158348 
L 252.703917 209.736427 
L 255.078487 210.024254 
L 257.453057 207.22784 
L 259.827627 201.279469 
L 262.202197 192.915852 
L 264.576767 185.172002 
L 266.951337 180.877366 
L 269.325907 178.99071 
L 274.075047 175.841765 
L 276.449617 175.911754 
L 278.824187 179.14592 
L 281.198757 185.684555 
L 283.573327 193.738116 
L 285.947897 200.718911 
L 288.322467 205.162528 
L 290.697037 206.856072 
L 293.071607 205.717171 
L 295.446177 201.463027 
L 300.195317 188.19043 
L 302.569887 185.852318 
L 304.944457 188.167665 
L 307.319027 191.809123 
L 309.693597 193.957938 
L 312.068167 193.72816 
L 314.442737 191.289376 
L 316.817307 187.60414 
L 319.191877 184.460711 
L 321.566447 183.448921 
L 326.315587 184.833373 
L 328.690157 185.221874 
L 331.064727 186.739245 
L 333.439297 190.432747 
L 335.813867 195.578694 
L 338.188437 200.332756 
L 340.563007 203.61683 
L 342.937577 205.607611 
L 345.312147 206.85889 
L 347.686717 207.644769 
L 350.061287 207.945249 
L 354.810427 207.529092 
L 357.184997 207.897776 
L 359.559566 209.139951 
L 361.934136 210.665214 
L 364.308706 211.873471 
L 366.683276 212.618111 
L 369.057846 212.964148 
L 371.432416 212.952266 
L 378.556126 212.086038 
L 383.305266 212.560066 
L 385.679836 212.416 
L 388.054406 211.771801 
L 390.428976 210.863359 
L 392.803546 210.223464 
L 394.097656 210.276079 
L 394.097656 210.276079 
" clip-path="url(#pe94dd0dd8b)" style="fill: none; stroke: #808080; stroke-opacity: 0.5; stroke-width: 0.5; stroke-linecap: square"/>
   </g>
   <g id="line2d_26">
    <path d="M 41.367188 166.106854 
L 43.741757 173.728364 
L 46.116327 184.222142 
L 48.490897 191.497948 
L 50.865467 195.198225 
L 53.240037 196.748635 
L 55.614607 197.221211 
L 57.989177 196.741549 
L 60.363747 194.774918 
L 62.738317 190.307301 
L 65.112887 181.949987 
L 67.487457 169.65857 
L 69.862027 158.401209 
L 72.236597 155.919152 
L 74.611167 162.355763 
L 76.985737 171.293017 
L 79.360307 177.676963 
L 81.734877 179.681916 
L 84.109447 178.735244 
L 86.484017 178.431 
L 88.858587 180.509145 
L 91.233157 183.846522 
L 93.607727 186.755991 
L 95.982297 188.179604 
L 98.356867 187.968456 
L 100.731437 186.725395 
L 103.106007 184.943858 
L 105.480577 181.977169 
L 107.855147 175.941559 
L 110.229717 165.228716 
L 112.604287 151.879268 
L 114.978857 144.079974 
L 117.353427 147.467808 
L 119.727997 155.15214 
L 122.102567 157.013919 
L 124.477137 147.351549 
L 126.851707 124.402475 
L 129.226277 95.689761 
L 131.600847 89.783614 
L 133.975417 120.594329 
L 136.349987 153.798697 
L 138.724557 171.82901 
L 141.099127 178.711584 
L 143.473697 178.130164 
L 145.848267 168.829838 
L 148.222837 147.991238 
L 150.597407 120.839439 
L 152.971977 106.074101 
L 155.346547 111.669461 
L 157.721117 126.49406 
L 160.095687 142.700976 
L 162.470257 157.842325 
L 164.844827 169.259231 
L 167.219397 174.388325 
L 169.593967 172.864987 
L 171.968537 167.549112 
L 174.343107 162.756597 
L 176.717677 159.410056 
L 179.092247 154.469906 
L 183.841387 136.909862 
L 186.215957 135.942657 
L 188.590527 141.726236 
L 190.965097 145.755729 
L 193.339667 144.123319 
L 195.714237 137.991894 
L 198.088807 131.25414 
L 200.463377 128.675374 
L 202.837947 131.940886 
L 205.212517 138.344321 
L 209.961657 152.380128 
L 214.710797 168.825087 
L 217.085367 175.087627 
L 219.459937 178.898757 
L 221.834507 181.561998 
L 224.209077 183.945871 
L 226.583647 185.25765 
L 228.958217 184.585913 
L 231.332787 182.771653 
L 233.707357 182.534351 
L 236.081927 186.333171 
L 238.456497 192.773556 
L 240.831067 197.891538 
L 243.205637 199.780471 
L 245.580207 198.876195 
L 250.329347 193.519971 
L 252.703917 192.518203 
L 255.078487 194.042994 
L 259.827627 200.575196 
L 262.202197 202.772028 
L 264.576767 203.126887 
L 266.951337 201.948217 
L 274.075047 196.460483 
L 276.449617 194.017183 
L 278.824187 190.732392 
L 281.198757 187.860149 
L 283.573327 187.414751 
L 285.947897 189.666651 
L 288.322467 192.647862 
L 290.697037 194.453951 
L 293.071607 194.388037 
L 295.446177 192.408019 
L 297.820747 188.609994 
L 302.569887 177.845371 
L 304.944457 174.440341 
L 307.319027 175.315992 
L 312.068167 183.97034 
L 314.442737 186.05377 
L 316.817307 186.404872 
L 319.191877 187.46694 
L 321.566447 191.457279 
L 323.941017 197.648941 
L 326.315587 203.081323 
L 328.690157 206.019213 
L 331.064727 206.6042 
L 333.439297 205.788668 
L 335.813867 204.708403 
L 338.188437 204.226473 
L 340.563007 204.68469 
L 342.937577 206.119808 
L 345.312147 208.163372 
L 347.686717 210.008289 
L 350.061287 211.059747 
L 352.435857 211.272035 
L 357.184997 210.656109 
L 359.559566 210.641126 
L 361.934136 210.837651 
L 364.308706 211.251328 
L 366.683276 212.127272 
L 371.432416 214.592335 
L 373.806986 215.426077 
L 376.181556 215.731684 
L 378.556126 215.391615 
L 380.930696 214.369006 
L 383.305266 212.830107 
L 385.679836 211.140227 
L 388.054406 209.794162 
L 390.428976 209.206956 
L 392.803546 209.382272 
L 394.097656 209.698057 
L 394.097656 209.698057 
" clip-path="url(#pe94dd0dd8b)" style="fill: none; stroke: #808080; stroke-opacity: 0.5; stroke-width: 0.5; stroke-linecap: square"/>
   </g>
   <g id="line2d_27">
    <path d="M 41.367188 82.487855 
L 43.741757 89.11137 
L 46.116327 96.665388 
L 48.490897 102.129811 
L 50.865467 105.120035 
L 53.240037 107.500831 
L 55.614607 110.759769 
L 57.989177 114.45299 
L 60.363747 117.302801 
L 62.738317 118.778466 
L 65.112887 119.166738 
L 69.862027 118.68701 
L 72.236597 118.909263 
L 74.611167 120.069692 
L 76.985737 122.149196 
L 79.360307 124.693841 
L 81.734877 127.044035 
L 84.109447 128.506901 
L 86.484017 128.598386 
L 88.858587 127.437816 
L 91.233157 126.050277 
L 93.607727 126.093397 
L 95.982297 128.596484 
L 98.356867 132.693872 
L 100.731437 136.369643 
L 103.106007 138.501743 
L 105.480577 139.70699 
L 107.855147 141.643171 
L 110.229717 145.725637 
L 112.604287 151.937769 
L 114.978857 158.688697 
L 117.353427 164.466989 
L 122.102567 174.570365 
L 124.477137 179.80633 
L 126.851707 183.291275 
L 129.226277 182.278251 
L 131.600847 175.330081 
L 133.975417 164.169628 
L 136.349987 152.168289 
L 138.724557 141.677995 
L 141.099127 133.689924 
L 143.473697 128.49541 
L 145.848267 126.917147 
L 148.222837 130.450422 
L 150.597407 138.024527 
L 152.971977 144.827825 
L 155.346547 145.967386 
L 157.721117 139.572992 
L 160.095687 129.182618 
L 162.470257 126.906659 
L 164.844827 141.591545 
L 167.219397 160.637572 
L 169.593967 172.428771 
L 171.968537 177.550857 
L 174.343107 178.98392 
L 176.717677 177.976849 
L 179.092247 174.398866 
L 181.466817 168.581484 
L 183.841387 163.760616 
L 186.215957 164.917264 
L 188.590527 170.994988 
L 190.965097 174.737887 
L 193.339667 170.368889 
L 195.714237 154.842387 
L 198.088807 128.191229 
L 200.463377 99.451147 
L 202.837947 85.352742 
L 205.212517 88.445768 
L 207.587087 95.325467 
L 209.961657 98.275966 
L 212.336227 103.392559 
L 214.710797 121.723902 
L 217.085367 148.887404 
L 219.459937 170.360138 
L 221.834507 180.721279 
L 224.209077 182.303144 
L 226.583647 179.748953 
L 228.958217 177.720718 
L 231.332787 178.649161 
L 233.707357 182.179409 
L 236.081927 186.772371 
L 238.456497 190.923115 
L 240.831067 193.618345 
L 243.205637 194.589384 
L 245.580207 194.2012 
L 247.954777 193.155684 
L 250.329347 192.420347 
L 252.703917 193.070453 
L 255.078487 195.519964 
L 257.453057 198.836339 
L 259.827627 201.517352 
L 262.202197 202.699018 
L 264.576767 202.333319 
L 266.951337 200.715017 
L 269.325907 198.174999 
L 271.700477 195.229756 
L 274.075047 193.007496 
L 276.449617 193.017408 
L 278.824187 195.535119 
L 281.198757 199.139452 
L 283.573327 202.290203 
L 285.947897 204.157484 
L 288.322467 204.544529 
L 290.697037 203.833794 
L 293.071607 202.647771 
L 295.446177 201.159185 
L 297.820747 199.049788 
L 300.195317 196.139821 
L 302.569887 192.971287 
L 304.944457 190.934732 
L 307.319027 191.025999 
L 309.693597 192.307102 
L 312.068167 193.281325 
L 314.442737 193.610832 
L 319.191877 193.737142 
L 321.566447 194.642804 
L 323.941017 197.413674 
L 326.315587 201.627678 
L 328.690157 205.520011 
L 331.064727 208.089752 
L 333.439297 209.428936 
L 335.813867 209.984513 
L 338.188437 210.050978 
L 340.563007 209.806046 
L 342.937577 209.759928 
L 345.312147 210.792485 
L 350.061287 215.219241 
L 352.435857 216.545518 
L 354.810427 216.66375 
L 357.184997 215.562164 
L 359.559566 213.736915 
L 361.934136 212.407379 
L 364.308706 212.403039 
L 371.432416 214.970033 
L 373.806986 215.156034 
L 376.181556 214.720634 
L 378.556126 213.649812 
L 380.930696 212.24835 
L 383.305266 211.034802 
L 385.679836 210.319816 
L 388.054406 210.093135 
L 390.428976 210.235413 
L 394.097656 210.85518 
L 394.097656 210.85518 
" clip-path="url(#pe94dd0dd8b)" style="fill: none; stroke: #808080; stroke-opacity: 0.5; stroke-width: 0.5; stroke-linecap: square"/>
   </g>
   <g id="line2d_28">
    <path d="M 41.367188 130.23837 
L 43.741757 136.54515 
L 46.116327 139.279623 
L 48.490897 137.85775 
L 50.865467 134.105179 
L 53.240037 130.616111 
L 55.614607 129.009452 
L 57.989177 129.267253 
L 60.363747 130.172039 
L 62.738317 130.848721 
L 65.112887 131.907044 
L 67.487457 134.493037 
L 72.236597 142.897081 
L 74.611167 145.488869 
L 76.985737 146.187358 
L 79.360307 146.229604 
L 84.109447 147.146731 
L 86.484017 146.620236 
L 91.233157 143.039289 
L 93.607727 143.268644 
L 95.982297 146.064057 
L 98.356867 149.874974 
L 100.731437 152.165736 
L 103.106007 151.279255 
L 107.855147 144.485698 
L 110.229717 143.474973 
L 112.604287 144.503876 
L 114.978857 143.99248 
L 117.353427 136.005405 
L 122.102567 100.604009 
L 124.477137 100.221169 
L 126.851707 116.451505 
L 129.226277 136.053741 
L 131.600847 148.056518 
L 133.975417 149.079541 
L 136.349987 141.857846 
L 138.724557 133.303168 
L 141.099127 130.710995 
L 143.473697 132.358711 
L 145.848267 128.976454 
L 148.222837 116.576397 
L 150.597407 99.237603 
L 152.971977 87.609905 
L 155.346547 91.858501 
L 157.721117 107.532314 
L 160.095687 122.30966 
L 162.470257 130.516075 
L 164.844827 132.551742 
L 167.219397 130.946682 
L 169.593967 127.98217 
L 171.968537 124.627297 
L 174.343107 123.036059 
L 176.717677 126.347269 
L 181.466817 141.611787 
L 183.841387 146.69587 
L 186.215957 147.654253 
L 188.590527 144.816409 
L 190.965097 142.690206 
L 193.339667 146.609713 
L 195.714237 155.610233 
L 198.088807 165.682125 
L 200.463377 173.316413 
L 202.837947 175.956516 
L 205.212517 173.013804 
L 207.587087 167.526653 
L 209.961657 163.913699 
L 212.336227 162.63296 
L 217.085367 160.865533 
L 219.459937 161.256001 
L 221.834507 163.116391 
L 226.583647 167.508456 
L 228.958217 170.773855 
L 231.332787 175.529947 
L 233.707357 181.12978 
L 236.081927 186.23895 
L 238.456497 189.678641 
L 240.831067 191.120844 
L 243.205637 191.339234 
L 245.580207 192.091998 
L 247.954777 194.635698 
L 250.329347 197.829633 
L 252.703917 199.50173 
L 255.078487 198.790799 
L 257.453057 196.154637 
L 259.827627 192.698463 
L 262.202197 189.529034 
L 266.951337 184.245366 
L 269.325907 182.064817 
L 271.700477 181.522299 
L 274.075047 183.126743 
L 276.449617 186.136586 
L 278.824187 189.738594 
L 281.198757 193.751678 
L 283.573327 198.065704 
L 285.947897 202.106329 
L 288.322467 204.832375 
L 290.697037 205.257759 
L 293.071607 203.526829 
L 295.446177 201.340274 
L 297.820747 200.006756 
L 300.195317 198.888643 
L 302.569887 196.93149 
L 307.319027 191.218929 
L 309.693597 189.25687 
L 314.442737 186.998429 
L 316.817307 185.453889 
L 319.191877 183.759298 
L 321.566447 182.786548 
L 323.941017 184.048783 
L 326.315587 188.361606 
L 328.690157 194.284923 
L 331.064727 199.761711 
L 333.439297 203.771315 
L 335.813867 206.156662 
L 338.188437 207.233363 
L 340.563007 207.564323 
L 350.061287 208.163449 
L 352.435857 208.644385 
L 354.810427 209.674372 
L 361.934136 213.695231 
L 364.308706 214.834741 
L 366.683276 215.769768 
L 369.057846 216.381583 
L 371.432416 216.637537 
L 373.806986 216.58543 
L 376.181556 216.263676 
L 378.556126 215.643076 
L 380.930696 214.664142 
L 385.679836 212.081661 
L 388.054406 211.188589 
L 390.428976 210.954532 
L 394.097656 211.383834 
L 394.097656 211.383834 
" clip-path="url(#pe94dd0dd8b)" style="fill: none; stroke: #808080; stroke-opacity: 0.5; stroke-width: 0.5; stroke-linecap: square"/>
   </g>
   <g id="line2d_29">
    <path d="M 41.367188 157.556802 
L 43.741757 161.929265 
L 46.116327 156.924742 
L 48.490897 143.592244 
L 50.865467 131.014578 
L 53.240037 130.805623 
L 55.614607 140.616213 
L 57.989177 151.835312 
L 60.363747 160.992548 
L 62.738317 167.38536 
L 65.112887 170.045974 
L 67.487457 167.986299 
L 69.862027 162.169034 
L 72.236597 157.120862 
L 74.611167 157.638 
L 76.985737 162.580576 
L 79.360307 167.215467 
L 81.734877 168.38468 
L 84.109447 165.300754 
L 86.484017 159.522313 
L 88.858587 155.341183 
L 91.233157 156.533241 
L 93.607727 161.078715 
L 95.982297 164.251302 
L 98.356867 163.841392 
L 100.731437 160.724751 
L 103.106007 158.077333 
L 105.480577 158.322422 
L 107.855147 159.686136 
L 110.229717 159.260853 
L 112.604287 157.319272 
L 114.978857 157.529881 
L 119.727997 166.41313 
L 122.102567 166.452922 
L 124.477137 160.749033 
L 126.851707 152.201746 
L 129.226277 146.602833 
L 131.600847 146.298731 
L 133.975417 149.20663 
L 136.349987 152.514353 
L 138.724557 154.380821 
L 141.099127 154.815837 
L 143.473697 155.381701 
L 145.848267 156.964114 
L 148.222837 158.782932 
L 150.597407 160.098504 
L 152.971977 160.960771 
L 155.346547 161.406809 
L 162.470257 161.346402 
L 164.844827 159.03588 
L 167.219397 151.104695 
L 169.593967 136.304904 
L 171.968537 120.615626 
L 174.343107 113.289389 
L 176.717677 115.711155 
L 179.092247 125.152728 
L 181.466817 138.585501 
L 183.841387 150.668807 
L 186.215957 156.458732 
L 188.590527 153.944409 
L 190.965097 145.050014 
L 193.339667 138.306951 
L 195.714237 140.896922 
L 198.088807 147.095587 
L 200.463377 149.853972 
L 202.837947 147.545652 
L 205.212517 141.43055 
L 207.587087 134.409324 
L 209.961657 129.83078 
L 212.336227 129.024637 
L 214.710797 131.199125 
L 217.085367 136.353092 
L 219.459937 146.20516 
L 221.834507 160.259842 
L 224.209077 173.540216 
L 226.583647 181.327805 
L 228.958217 182.536516 
L 231.332787 178.934423 
L 233.707357 174.060666 
L 236.081927 171.999363 
L 238.456497 174.905444 
L 243.205637 187.744466 
L 245.580207 192.351643 
L 247.954777 194.836281 
L 250.329347 195.875222 
L 252.703917 196.451714 
L 255.078487 197.188803 
L 257.453057 197.640581 
L 259.827627 196.65046 
L 262.202197 193.805406 
L 264.576767 190.455483 
L 266.951337 189.086273 
L 269.325907 190.193438 
L 271.700477 191.018959 
L 274.075047 189.11755 
L 276.449617 185.00684 
L 278.824187 182.319259 
L 281.198757 184.829107 
L 285.947897 198.261974 
L 288.322467 202.495352 
L 290.697037 203.825156 
L 293.071607 202.606336 
L 295.446177 199.482909 
L 297.820747 195.550997 
L 300.195317 192.463197 
L 302.569887 192.024788 
L 304.944457 194.82346 
L 307.319027 199.062172 
L 309.693597 202.021485 
L 312.068167 202.128119 
L 314.442737 199.434897 
L 316.817307 195.923145 
L 319.191877 194.772178 
L 321.566447 196.656252 
L 323.941017 199.312244 
L 326.315587 201.279036 
L 328.690157 202.8607 
L 335.813867 207.997168 
L 338.188437 209.292491 
L 345.312147 212.738932 
L 347.686717 213.628041 
L 350.061287 213.916464 
L 352.435857 213.647315 
L 354.810427 213.265865 
L 357.184997 213.366409 
L 359.559566 214.103879 
L 364.308706 216.014242 
L 366.683276 216.639952 
L 369.057846 216.968765 
L 371.432416 217.00605 
L 373.806986 216.684023 
L 376.181556 215.886355 
L 378.556126 214.649904 
L 380.930696 213.263972 
L 383.305266 212.085598 
L 385.679836 211.31141 
L 388.054406 210.913677 
L 392.803546 210.640709 
L 394.097656 210.654579 
L 394.097656 210.654579 
" clip-path="url(#pe94dd0dd8b)" style="fill: none; stroke: #808080; stroke-opacity: 0.5; stroke-width: 0.5; stroke-linecap: square"/>
   </g>
   <g id="line2d_30">
    <path d="M 41.367188 109.0875 
L 43.741757 109.723861 
L 46.116327 110.00131 
L 48.490897 110.151651 
L 50.865467 110.629817 
L 53.240037 112.168827 
L 55.614607 115.337054 
L 60.363747 124.367609 
L 62.738317 127.66717 
L 65.112887 129.155146 
L 67.487457 129.162022 
L 69.862027 128.75222 
L 72.236597 129.40815 
L 74.611167 132.249612 
L 76.985737 137.114188 
L 79.360307 142.601199 
L 81.734877 147.04112 
L 84.109447 149.245895 
L 86.484017 148.79238 
L 88.858587 146.50019 
L 91.233157 144.947695 
L 93.607727 146.680765 
L 98.356867 155.145398 
L 100.731437 157.930871 
L 103.106007 159.735956 
L 105.480577 161.859503 
L 107.855147 165.371199 
L 110.229717 169.709125 
L 112.604287 172.584938 
L 114.978857 172.78602 
L 117.353427 172.52712 
L 119.727997 174.555971 
L 122.102567 178.227168 
L 124.477137 180.453901 
L 126.851707 178.234363 
L 129.226277 170.63564 
L 131.600847 162.418729 
L 133.975417 160.626231 
L 136.349987 162.344664 
L 138.724557 163.667025 
L 141.099127 167.001299 
L 143.473697 174.485443 
L 145.848267 183.430735 
L 148.222837 189.914484 
L 150.597407 192.596217 
L 152.971977 191.944154 
L 155.346547 188.146903 
L 157.721117 181.051849 
L 160.095687 172.063977 
L 162.470257 163.863314 
L 164.844827 157.256986 
L 167.219397 151.000962 
L 169.593967 145.793168 
L 171.968537 146.406331 
L 174.343107 155.173995 
L 176.717677 166.584399 
L 179.092247 175.085836 
L 181.466817 180.39892 
L 186.215957 188.668767 
L 188.590527 192.497881 
L 190.965097 195.271518 
L 193.339667 196.322178 
L 195.714237 195.038488 
L 198.088807 191.117511 
L 202.837947 179.930067 
L 205.212517 176.735098 
L 207.587087 176.159998 
L 209.961657 176.051876 
L 212.336227 173.397754 
L 214.710797 168.022293 
L 217.085367 164.125622 
L 219.459937 167.022641 
L 221.834507 176.658935 
L 224.209077 187.596332 
L 226.583647 196.211659 
L 228.958217 202.943795 
L 231.332787 208.815026 
L 233.707357 213.387378 
L 236.081927 215.98158 
L 238.456497 216.431505 
L 240.831067 214.606312 
L 243.205637 210.281894 
L 245.580207 204.44183 
L 247.954777 200.758118 
L 250.329347 201.491876 
L 252.703917 203.994321 
L 255.078487 205.078988 
L 257.453057 203.286607 
L 262.202197 194.86735 
L 264.576767 193.43067 
L 266.951337 195.817983 
L 271.700477 205.124956 
L 274.075047 207.750863 
L 276.449617 207.956466 
L 278.824187 205.917118 
L 281.198757 202.922614 
L 283.573327 201.445432 
L 285.947897 203.035705 
L 288.322467 206.865725 
L 290.697037 210.976877 
L 293.071607 213.72077 
L 295.446177 214.293398 
L 297.820747 212.496458 
L 300.195317 208.63469 
L 302.569887 203.921059 
L 304.944457 200.229601 
L 307.319027 198.74063 
L 309.693597 199.347006 
L 312.068167 201.035671 
L 314.442737 202.275476 
L 316.817307 201.931614 
L 321.566447 198.511355 
L 323.941017 199.075348 
L 326.315587 202.380337 
L 328.690157 206.347844 
L 331.064727 208.98796 
L 333.439297 209.990378 
L 335.813867 209.810487 
L 338.188437 209.067889 
L 340.563007 208.617915 
L 342.937577 209.434913 
L 345.312147 211.665587 
L 347.686717 214.118073 
L 350.061287 215.658083 
L 352.435857 216.046907 
L 354.810427 215.515289 
L 359.559566 213.608239 
L 361.934136 213.050997 
L 366.683276 212.330828 
L 371.432416 211.335998 
L 373.806986 211.081947 
L 378.556126 211.057292 
L 380.930696 210.633059 
L 385.679836 208.929927 
L 388.054406 208.621029 
L 394.097656 209.047318 
L 394.097656 209.047318 
" clip-path="url(#pe94dd0dd8b)" style="fill: none; stroke: #808080; stroke-opacity: 0.5; stroke-width: 0.5; stroke-linecap: square"/>
   </g>
   <g id="line2d_31">
    <path d="M 41.367188 147.123441 
L 43.741757 152.058304 
L 46.116327 155.868545 
L 48.490897 155.753087 
L 50.865467 152.89258 
L 53.240037 150.4873 
L 55.614607 150.343619 
L 57.989177 152.501875 
L 60.363747 155.809477 
L 62.738317 158.144425 
L 65.112887 158.112658 
L 69.862027 154.025498 
L 72.236597 154.510389 
L 74.611167 157.38044 
L 76.985737 160.445269 
L 79.360307 162.032074 
L 81.734877 161.458035 
L 84.109447 158.715757 
L 86.484017 154.694728 
L 88.858587 151.455789 
L 91.233157 150.965963 
L 93.607727 152.419418 
L 95.982297 153.482495 
L 98.356867 153.292774 
L 100.731437 152.734761 
L 105.480577 152.525841 
L 107.855147 151.476121 
L 110.229717 149.558067 
L 112.604287 148.196808 
L 114.978857 149.037466 
L 117.353427 151.953672 
L 119.727997 154.63254 
L 122.102567 154.806041 
L 124.477137 151.720181 
L 126.851707 146.726706 
L 129.226277 142.202042 
L 131.600847 140.99461 
L 133.975417 144.500295 
L 136.349987 149.382852 
L 138.724557 152.724822 
L 141.099127 154.737827 
L 143.473697 155.967115 
L 145.848267 156.03868 
L 148.222837 154.978628 
L 150.597407 153.65328 
L 152.971977 153.362791 
L 155.346547 154.191356 
L 157.721117 154.813798 
L 160.095687 154.633501 
L 162.470257 154.134389 
L 164.844827 153.253762 
L 167.219397 150.40064 
L 169.593967 145.147674 
L 171.968537 140.866807 
L 174.343107 141.261331 
L 179.092247 149.247561 
L 181.466817 151.719058 
L 186.215957 154.153927 
L 190.965097 157.203959 
L 193.339667 158.36791 
L 195.714237 158.290247 
L 198.088807 156.618622 
L 200.463377 154.392878 
L 202.837947 153.021012 
L 205.212517 152.653807 
L 207.587087 152.918273 
L 209.961657 153.792386 
L 212.336227 155.495901 
L 214.710797 158.691294 
L 217.085367 163.746991 
L 221.834507 176.474811 
L 224.209077 181.348695 
L 226.583647 184.180088 
L 231.332787 186.989174 
L 233.707357 189.267966 
L 236.081927 192.177801 
L 238.456497 194.654267 
L 240.831067 195.91348 
L 245.580207 196.218103 
L 247.954777 197.149639 
L 250.329347 198.620055 
L 252.703917 199.757437 
L 255.078487 199.954366 
L 257.453057 198.926327 
L 259.827627 196.769891 
L 262.202197 194.164533 
L 264.576767 192.096037 
L 266.951337 191.149965 
L 269.325907 191.168664 
L 274.075047 191.922918 
L 276.449617 192.18414 
L 278.824187 192.618187 
L 281.198757 193.842499 
L 283.573327 196.288708 
L 285.947897 199.417456 
L 288.322467 202.125928 
L 290.697037 203.584435 
L 293.071607 203.455885 
L 295.446177 201.782623 
L 297.820747 198.910858 
L 300.195317 195.599091 
L 302.569887 193.021654 
L 304.944457 192.121249 
L 307.319027 192.759112 
L 309.693597 193.883372 
L 312.068167 194.428597 
L 314.442737 193.988779 
L 316.817307 193.022972 
L 319.191877 192.60841 
L 321.566447 193.691292 
L 323.941017 196.367641 
L 326.315587 199.782916 
L 328.690157 202.837883 
L 331.064727 204.971704 
L 333.439297 206.240498 
L 335.813867 206.974401 
L 340.563007 208.036969 
L 342.937577 208.897051 
L 347.686717 211.430291 
L 350.061287 212.310797 
L 352.435857 212.635441 
L 359.559566 212.396792 
L 361.934136 212.714338 
L 366.683276 213.935866 
L 369.057846 214.536288 
L 371.432416 214.933231 
L 373.806986 215.013189 
L 376.181556 214.705568 
L 378.556126 214.022913 
L 385.679836 211.207753 
L 388.054406 210.618236 
L 390.428976 210.344175 
L 394.097656 210.453731 
L 394.097656 210.453731 
" clip-path="url(#pe94dd0dd8b)" style="fill: none; stroke: #000000; stroke-width: 1.5; stroke-linecap: square"/>
   </g>
   <g id="line2d_32">
    <defs>
     <path id="m41a5925460" d="M 0 2.5 
C 0.663008 2.5 1.29895 2.236584 1.767767 1.767767 
C 2.236584 1.29895 2.5 0.663008 2.5 0 
C 2.5 -0.663008 2.236584 -1.29895 1.767767 -1.767767 
C 1.29895 -2.236584 0.663008 -2.5 0 -2.5 
C -0.663008 -2.5 -1.29895 -2.236584 -1.767767 -1.767767 
C -2.236584 -1.29895 -2.5 -0.663008 -2.5 0 
C -2.5 0.663008 -2.236584 1.29895 -1.767767 1.767767 
C -1.29895 2.236584 -0.663008 2.5 0 2.5 
z
" style="stroke: #ffffff; stroke-width: 0.5"/>
    </defs>
    <g clip-path="url(#pe94dd0dd8b)">
     <use xlink:href="#m41a5925460" x="171.968537" y="140.866807" style="fill: #ff0000; stroke: #ffffff; stroke-width: 0.5"/>
    </g>
   </g>
   <g id="patch_3">
    <path d="M 41.367188 228.96 
L 41.367188 7.2 
" style="fill: none; stroke: #000000; stroke-width: 0.8; stroke-linejoin: miter; stroke-linecap: square"/>
   </g>
   <g id="patch_4">
    <path d="M 41.367188 228.96 
L 376.167188 228.96 
" style="fill: none; stroke: #000000; stroke-width: 0.8; stroke-linejoin: miter; stroke-linecap: square"/>
   </g>
  </g>
 </g>
 <defs>
  <clipPath id="pe94dd0dd8b">
   <rect x="41.367188" y="7.2" width="334.8" height="221.76"/>
  </clipPath>
 </defs>
</svg>
