<?xml version="1.0" encoding="utf-8" standalone="no"?>
<!DOCTYPE svg PUBLIC "-//W3C//DTD SVG 1.1//EN"
  "http://www.w3.org/Graphics/SVG/1.1/DTD/svg11.dtd">
<svg xmlns:xlink="http://www.w3.org/1999/xlink" width="404.219531pt" height="265.689687pt" viewBox="0 0 404.219531 265.689687" xmlns="http://www.w3.org/2000/svg" version="1.1">
 <metadata>
  <rdf:RDF xmlns:dc="http://purl.org/dc/elements/1.1/" xmlns:cc="http://creativecommons.org/ns#" xmlns:rdf="http://www.w3.org/1999/02/22-rdf-syntax-ns#">
   <cc:Work>
    <dc:type rdf:resource="http://purl.org/dc/dcmitype/StillImage"/>
    <dc:date>2024-09-14T12:49:00.737718</dc:date>
    <dc:format>image/svg+xml</dc:format>
    <dc:creator>
     <cc:Agent>
      <dc:title>Matplotlib v3.9.2, https://matplotlib.org/</dc:title>
     </cc:Agent>
    </dc:creator>
   </cc:Work>
  </rdf:RDF>
 </metadata>
 <defs>
  <style type="text/css">*{stroke-linejoin: round; stroke-linecap: butt}</style>
 </defs>
 <g id="figure_1">
  <g id="patch_1">
   <path d="M 0 265.689687 
L 404.219531 265.689687 
L 404.219531 0 
L 0 0 
z
" style="fill: #ffffff"/>
  </g>
  <g id="axes_1">
   <g id="patch_2">
    <path d="M 52.489063 228.96 
L 387.289062 228.96 
L 387.289062 7.2 
L 52.489063 7.2 
z
" style="fill: #ffffff"/>
   </g>
   <g id="PolyCollection_1">
    <path d="M 52.489063 220.686013 
L 52.489063 227.967136 
L 54.863632 227.883877 
L 57.238202 227.806114 
L 59.612772 227.733649 
L 61.987342 227.673528 
L 64.361912 227.634437 
L 66.736482 227.634368 
L 69.111052 227.676146 
L 71.485622 227.719034 
L 73.860192 227.717866 
L 76.234762 227.670696 
L 78.609332 227.596683 
L 80.983902 227.516561 
L 83.358472 227.452681 
L 85.733042 227.425822 
L 88.107612 227.435554 
L 90.482182 227.460889 
L 92.856752 227.491269 
L 95.231322 227.522412 
L 97.605892 227.537833 
L 99.980462 227.530956 
L 102.355032 227.53242 
L 104.729602 227.581027 
L 107.104172 227.663196 
L 109.478742 227.726833 
L 111.853312 227.74966 
L 114.227882 227.738131 
L 116.602452 227.706683 
L 118.977022 227.662337 
L 121.351592 227.604455 
L 123.726162 227.550698 
L 126.100732 227.532825 
L 128.475302 227.563326 
L 130.849872 227.605931 
L 133.224442 227.613817 
L 135.599012 227.579748 
L 137.973582 227.510954 
L 140.348152 227.409834 
L 142.722722 227.300687 
L 145.097292 227.238725 
L 147.471862 227.258188 
L 149.846432 227.305749 
L 152.221002 227.308046 
L 154.595572 227.246957 
L 156.970142 227.174518 
L 159.344712 227.134573 
L 161.719282 227.11423 
L 164.093852 227.128927 
L 166.468422 227.192411 
L 168.842992 227.242043 
L 171.217562 227.208785 
L 173.592132 227.080696 
L 175.966702 226.915377 
L 178.341272 226.79424 
L 180.715842 226.745811 
L 183.090412 226.741807 
L 185.464982 226.758276 
L 187.839552 226.779308 
L 190.214122 226.796696 
L 192.588692 226.808703 
L 194.963262 226.797895 
L 197.337832 226.734946 
L 199.712402 226.633301 
L 202.086972 226.576495 
L 204.461542 226.616281 
L 206.836112 226.694176 
L 209.210682 226.763407 
L 211.585252 226.830059 
L 213.959822 226.90722 
L 216.334392 227.020009 
L 218.708962 227.166233 
L 221.083532 227.289912 
L 223.458102 227.338296 
L 225.832672 227.312856 
L 228.207242 227.271651 
L 230.581812 227.28416 
L 232.956382 227.363386 
L 235.330952 227.468956 
L 237.705522 227.567604 
L 240.080092 227.642493 
L 242.454662 227.675279 
L 244.829232 227.670404 
L 247.203802 227.665987 
L 249.578372 227.69214 
L 251.952942 227.735313 
L 254.327512 227.776124 
L 256.702082 227.8081 
L 259.076652 227.825477 
L 261.451222 227.831894 
L 263.825792 227.841492 
L 266.200362 227.85685 
L 268.574932 227.878664 
L 270.949502 227.915723 
L 273.324072 227.956776 
L 275.698642 227.977246 
L 278.073212 227.964536 
L 280.447782 227.924108 
L 282.822352 227.873781 
L 285.196922 227.829157 
L 287.571492 227.802961 
L 289.946062 227.799458 
L 292.320632 227.801966 
L 294.695202 227.789788 
L 297.069772 227.749637 
L 299.444342 227.678396 
L 301.818912 227.592232 
L 304.193482 227.521983 
L 306.568052 227.485297 
L 308.942622 227.480052 
L 311.317192 227.506321 
L 313.691762 227.557947 
L 316.066332 227.607455 
L 318.440902 227.63396 
L 320.815472 227.646999 
L 323.190042 227.663074 
L 325.564612 227.678312 
L 327.939182 227.676185 
L 330.313752 227.652757 
L 332.688322 227.625466 
L 335.062892 227.614645 
L 337.437462 227.624281 
L 339.812032 227.655647 
L 342.186602 227.70876 
L 344.561172 227.759033 
L 346.935742 227.785161 
L 349.310312 227.795925 
L 351.684882 227.817636 
L 354.059452 227.86126 
L 356.434022 227.916112 
L 358.808592 227.968709 
L 361.183162 228.011863 
L 363.557732 228.045534 
L 365.932302 228.074507 
L 368.306872 228.098503 
L 370.681441 228.113801 
L 373.056011 228.126212 
L 375.430581 228.142899 
L 377.805151 228.161119 
L 380.179721 228.175765 
L 382.554291 228.187976 
L 384.928861 228.207835 
L 387.303431 228.242839 
L 389.678001 228.286529 
L 392.052571 228.321237 
L 394.427141 228.331195 
L 396.801711 228.31692 
L 399.176281 228.294354 
L 401.550851 228.277809 
L 403.925421 228.269002 
L 406.299991 228.259735 
L 408.674561 228.245721 
L 411.049131 228.233703 
L 413.423701 228.231885 
L 415.798271 228.23857 
L 418.172841 228.246495 
L 420.547411 228.249983 
L 422.921981 228.248145 
L 425.296551 228.243281 
L 427.671121 228.236945 
L 430.045691 228.228372 
L 432.420261 228.21528 
L 434.794831 228.195708 
L 437.169401 228.169835 
L 439.543971 228.140544 
L 441.918541 228.112148 
L 444.293111 228.086552 
L 446.667681 228.062938 
L 449.042251 228.041488 
L 451.416821 228.02213 
L 453.791391 228.000691 
L 456.165961 227.971221 
L 458.540531 227.93595 
L 460.915101 227.90739 
L 463.289671 227.898498 
L 465.664241 227.918 
L 468.038811 227.967029 
L 470.413381 228.029487 
L 472.787951 228.074826 
L 475.162521 228.076755 
L 477.537091 228.030495 
L 479.911661 227.95454 
L 482.286231 227.874645 
L 484.660801 227.803857 
L 487.035371 227.740328 
L 489.409941 227.685409 
L 491.784511 227.649427 
L 494.159081 227.63736 
L 496.533651 227.641681 
L 498.908221 227.652129 
L 501.282791 227.665772 
L 503.657361 227.686471 
L 506.031931 227.717268 
L 508.406501 227.754668 
L 510.781071 227.791444 
L 513.155641 227.824374 
L 515.530211 227.857792 
L 517.904781 227.898981 
L 520.279351 227.950293 
L 522.653921 228.006366 
L 525.028491 228.057455 
L 525.028491 227.676358 
L 525.028491 227.676358 
L 522.653921 227.651937 
L 520.279351 227.622024 
L 517.904781 227.581851 
L 515.530211 227.53042 
L 513.155641 227.472976 
L 510.781071 227.419926 
L 508.406501 227.379004 
L 506.031931 227.348978 
L 503.657361 227.322797 
L 501.282791 227.295953 
L 498.908221 227.270114 
L 496.533651 227.25109 
L 494.159081 227.247084 
L 491.784511 227.265685 
L 489.409941 227.309185 
L 487.035371 227.372888 
L 484.660801 227.446094 
L 482.286231 227.517668 
L 479.911661 227.585123 
L 477.537091 227.650997 
L 475.162521 227.704786 
L 472.787951 227.723205 
L 470.413381 227.696276 
L 468.038811 227.642217 
L 465.664241 227.591732 
L 463.289671 227.56768 
L 460.915101 227.574949 
L 458.540531 227.600901 
L 456.165961 227.632539 
L 453.791391 227.667147 
L 451.416821 227.703576 
L 449.042251 227.739965 
L 446.667681 227.777162 
L 444.293111 227.814032 
L 441.918541 227.845722 
L 439.543971 227.870182 
L 437.169401 227.893764 
L 434.794831 227.923863 
L 432.420261 227.958807 
L 430.045691 227.990385 
L 427.671121 228.012582 
L 425.296551 228.025564 
L 422.921981 228.032779 
L 420.547411 228.038023 
L 418.172841 228.043067 
L 415.798271 228.04577 
L 413.423701 228.043667 
L 411.049131 228.038444 
L 408.674561 228.03684 
L 406.299991 228.048722 
L 403.925421 228.074069 
L 401.550851 228.09978 
L 399.176281 228.111705 
L 396.801711 228.099865 
L 394.427141 228.058143 
L 392.052571 227.993238 
L 389.678001 227.92489 
L 387.303431 227.872618 
L 384.928861 227.842428 
L 382.554291 227.825972 
L 380.179721 227.813494 
L 377.805151 227.803042 
L 375.430581 227.796848 
L 373.056011 227.792688 
L 370.681441 227.781564 
L 368.306872 227.764122 
L 365.932302 227.742947 
L 363.557732 227.708304 
L 361.183162 227.654761 
L 358.808592 227.588888 
L 356.434022 227.520618 
L 354.059452 227.457438 
L 351.684882 227.395959 
L 349.310312 227.322938 
L 346.935742 227.239676 
L 344.561172 227.168216 
L 342.186602 227.116519 
L 339.812032 227.063201 
L 337.437462 226.99614 
L 335.062892 226.936339 
L 332.688322 226.884688 
L 330.313752 226.834945 
L 327.939182 226.817664 
L 325.564612 226.861358 
L 323.190042 226.935468 
L 320.815472 226.971883 
L 318.440902 226.92826 
L 316.066332 226.811654 
L 313.691762 226.652577 
L 311.317192 226.476366 
L 308.942622 226.316691 
L 306.568052 226.216848 
L 304.193482 226.18498 
L 301.818912 226.193276 
L 299.444342 226.234945 
L 297.069772 226.327429 
L 294.695202 226.463651 
L 292.320632 226.610327 
L 289.946062 226.744444 
L 287.571492 226.854344 
L 285.196922 226.940999 
L 282.822352 227.019731 
L 280.447782 227.081689 
L 278.073212 227.11086 
L 275.698642 227.116345 
L 273.324072 227.112969 
L 270.949502 227.103301 
L 268.574932 227.072368 
L 266.200362 227.017803 
L 263.825792 226.972056 
L 261.451222 226.943419 
L 259.076652 226.907129 
L 256.702082 226.859628 
L 254.327512 226.825787 
L 251.952942 226.837124 
L 249.578372 226.883698 
L 247.203802 226.88717 
L 244.829232 226.791494 
L 242.454662 226.645233 
L 240.080092 226.531693 
L 237.705522 226.457491 
L 235.330952 226.373305 
L 232.956382 226.26047 
L 230.581812 226.127785 
L 228.207242 225.988613 
L 225.832672 225.863898 
L 223.458102 225.775324 
L 221.083532 225.709404 
L 218.708962 225.633424 
L 216.334392 225.529198 
L 213.959822 225.399967 
L 211.585252 225.265933 
L 209.210682 225.126518 
L 206.836112 224.95267 
L 204.461542 224.747132 
L 202.086972 224.508146 
L 199.712402 224.251836 
L 197.337832 224.099823 
L 194.963262 224.118618 
L 192.588692 224.21855 
L 190.214122 224.270442 
L 187.839552 224.208378 
L 185.464982 224.045579 
L 183.090412 223.834533 
L 180.715842 223.645482 
L 178.341272 223.560575 
L 175.966702 223.590122 
L 173.592132 223.707261 
L 171.217562 223.865116 
L 168.842992 224.019798 
L 166.468422 224.176689 
L 164.093852 224.301235 
L 161.719282 224.307885 
L 159.344712 224.243626 
L 156.970142 224.173494 
L 154.595572 224.059257 
L 152.221002 223.942046 
L 149.846432 223.935909 
L 147.471862 224.036136 
L 145.097292 224.037932 
L 142.722722 223.781825 
L 140.348152 223.402798 
L 137.973582 223.159729 
L 135.599012 223.156367 
L 133.224442 223.276953 
L 130.849872 223.36939 
L 128.475302 223.338671 
L 126.100732 223.140326 
L 123.726162 222.816087 
L 121.351592 222.539153 
L 118.977022 222.479874 
L 116.602452 222.505377 
L 114.227882 222.307158 
L 111.853312 221.753174 
L 109.478742 220.93256 
L 107.104172 220.112506 
L 104.729602 219.611446 
L 102.355032 219.393906 
L 99.980462 219.253138 
L 97.605892 219.084783 
L 95.231322 218.771493 
L 92.856752 218.1471 
L 90.482182 217.216614 
L 88.107612 216.372939 
L 85.733042 216.101953 
L 83.358472 216.401253 
L 80.983902 216.913573 
L 78.609332 217.38175 
L 76.234762 217.652778 
L 73.860192 217.707334 
L 71.485622 217.912332 
L 69.111052 218.665106 
L 66.736482 219.611208 
L 64.361912 220.192281 
L 61.987342 220.245332 
L 59.612772 219.977342 
L 57.238202 219.867929 
L 54.863632 220.193482 
L 52.489063 220.686013 
z
" clip-path="url(#pf40a3c2c9e)" style="fill: #808080; fill-opacity: 0.5; stroke: #808080; stroke-opacity: 0.5"/>
   </g>
   <g id="matplotlib.axis_1">
    <g id="xtick_1">
     <g id="line2d_1">
      <defs>
       <path id="mcfdc36143f" d="M 0 0 
L 0 3.5 
" style="stroke: #000000; stroke-width: 0.8"/>
      </defs>
      <g>
       <use xlink:href="#mcfdc36143f" x="190.228491" y="228.96" style="stroke: #000000; stroke-width: 0.8"/>
      </g>
     </g>
     <g id="text_1">
      <!-- 1.0 -->
      <g transform="translate(183.278491 243.117812) scale(0.1 -0.1)">
       <defs>
        <path id="ArialMT-31" d="M 2384 0 
L 1822 0 
L 1822 3584 
Q 1619 3391 1289 3197 
Q 959 3003 697 2906 
L 697 3450 
Q 1169 3672 1522 3987 
Q 1875 4303 2022 4600 
L 2384 4600 
L 2384 0 
z
" transform="scale(0.015625)"/>
        <path id="ArialMT-2e" d="M 581 0 
L 581 641 
L 1222 641 
L 1222 0 
L 581 0 
z
" transform="scale(0.015625)"/>
        <path id="ArialMT-30" d="M 266 2259 
Q 266 3072 433 3567 
Q 600 4063 929 4331 
Q 1259 4600 1759 4600 
Q 2128 4600 2406 4451 
Q 2684 4303 2865 4023 
Q 3047 3744 3150 3342 
Q 3253 2941 3253 2259 
Q 3253 1453 3087 958 
Q 2922 463 2592 192 
Q 2263 -78 1759 -78 
Q 1097 -78 719 397 
Q 266 969 266 2259 
z
M 844 2259 
Q 844 1131 1108 757 
Q 1372 384 1759 384 
Q 2147 384 2411 759 
Q 2675 1134 2675 2259 
Q 2675 3391 2411 3762 
Q 2147 4134 1753 4134 
Q 1366 4134 1134 3806 
Q 844 3388 844 2259 
z
" transform="scale(0.015625)"/>
       </defs>
       <use xlink:href="#ArialMT-31"/>
       <use xlink:href="#ArialMT-2e" x="55.615234"/>
       <use xlink:href="#ArialMT-30" x="83.398438"/>
      </g>
     </g>
    </g>
    <g id="xtick_2">
     <g id="line2d_2">
      <g>
       <use xlink:href="#mcfdc36143f" x="387.289062" y="228.96" style="stroke: #000000; stroke-width: 0.8"/>
      </g>
     </g>
     <g id="text_2">
      <!-- 10.0 -->
      <g transform="translate(377.558594 243.117812) scale(0.1 -0.1)">
       <use xlink:href="#ArialMT-31"/>
       <use xlink:href="#ArialMT-30" x="55.615234"/>
       <use xlink:href="#ArialMT-2e" x="111.230469"/>
       <use xlink:href="#ArialMT-30" x="139.013672"/>
      </g>
     </g>
    </g>
    <g id="xtick_3">
     <g id="line2d_3">
      <defs>
       <path id="m7fe1c19a65" d="M 0 0 
L 0 2 
" style="stroke: #000000; stroke-width: 0.6"/>
      </defs>
      <g>
       <use xlink:href="#m7fe1c19a65" x="52.489063" y="228.96" style="stroke: #000000; stroke-width: 0.6"/>
      </g>
     </g>
    </g>
    <g id="xtick_4">
     <g id="line2d_4">
      <g>
       <use xlink:href="#m7fe1c19a65" x="87.189707" y="228.96" style="stroke: #000000; stroke-width: 0.6"/>
      </g>
     </g>
    </g>
    <g id="xtick_5">
     <g id="line2d_5">
      <g>
       <use xlink:href="#m7fe1c19a65" x="111.810205" y="228.96" style="stroke: #000000; stroke-width: 0.6"/>
      </g>
     </g>
    </g>
    <g id="xtick_6">
     <g id="line2d_6">
      <g>
       <use xlink:href="#m7fe1c19a65" x="130.907348" y="228.96" style="stroke: #000000; stroke-width: 0.6"/>
      </g>
     </g>
    </g>
    <g id="xtick_7">
     <g id="line2d_7">
      <g>
       <use xlink:href="#m7fe1c19a65" x="146.51085" y="228.96" style="stroke: #000000; stroke-width: 0.6"/>
      </g>
     </g>
    </g>
    <g id="xtick_8">
     <g id="line2d_8">
      <g>
       <use xlink:href="#m7fe1c19a65" x="159.703422" y="228.96" style="stroke: #000000; stroke-width: 0.6"/>
      </g>
     </g>
    </g>
    <g id="xtick_9">
     <g id="line2d_9">
      <g>
       <use xlink:href="#m7fe1c19a65" x="171.131348" y="228.96" style="stroke: #000000; stroke-width: 0.6"/>
      </g>
     </g>
    </g>
    <g id="xtick_10">
     <g id="line2d_10">
      <g>
       <use xlink:href="#m7fe1c19a65" x="181.211494" y="228.96" style="stroke: #000000; stroke-width: 0.6"/>
      </g>
     </g>
    </g>
    <g id="xtick_11">
     <g id="line2d_11">
      <g>
       <use xlink:href="#m7fe1c19a65" x="249.549634" y="228.96" style="stroke: #000000; stroke-width: 0.6"/>
      </g>
     </g>
    </g>
    <g id="xtick_12">
     <g id="line2d_12">
      <g>
       <use xlink:href="#m7fe1c19a65" x="284.250278" y="228.96" style="stroke: #000000; stroke-width: 0.6"/>
      </g>
     </g>
    </g>
    <g id="xtick_13">
     <g id="line2d_13">
      <g>
       <use xlink:href="#m7fe1c19a65" x="308.870777" y="228.96" style="stroke: #000000; stroke-width: 0.6"/>
      </g>
     </g>
    </g>
    <g id="xtick_14">
     <g id="line2d_14">
      <g>
       <use xlink:href="#m7fe1c19a65" x="327.96792" y="228.96" style="stroke: #000000; stroke-width: 0.6"/>
      </g>
     </g>
    </g>
    <g id="xtick_15">
     <g id="line2d_15">
      <g>
       <use xlink:href="#m7fe1c19a65" x="343.571421" y="228.96" style="stroke: #000000; stroke-width: 0.6"/>
      </g>
     </g>
    </g>
    <g id="xtick_16">
     <g id="line2d_16">
      <g>
       <use xlink:href="#m7fe1c19a65" x="356.763994" y="228.96" style="stroke: #000000; stroke-width: 0.6"/>
      </g>
     </g>
    </g>
    <g id="xtick_17">
     <g id="line2d_17">
      <g>
       <use xlink:href="#m7fe1c19a65" x="368.19192" y="228.96" style="stroke: #000000; stroke-width: 0.6"/>
      </g>
     </g>
    </g>
    <g id="xtick_18">
     <g id="line2d_18">
      <g>
       <use xlink:href="#m7fe1c19a65" x="378.272065" y="228.96" style="stroke: #000000; stroke-width: 0.6"/>
      </g>
     </g>
    </g>
    <g id="text_3">
     <!-- Frequency (Hz) -->
     <g transform="translate(185.438281 256.385) scale(0.1 -0.1)">
      <defs>
       <path id="ArialMT-46" d="M 525 0 
L 525 4581 
L 3616 4581 
L 3616 4041 
L 1131 4041 
L 1131 2622 
L 3281 2622 
L 3281 2081 
L 1131 2081 
L 1131 0 
L 525 0 
z
" transform="scale(0.015625)"/>
       <path id="ArialMT-72" d="M 416 0 
L 416 3319 
L 922 3319 
L 922 2816 
Q 1116 3169 1280 3281 
Q 1444 3394 1641 3394 
Q 1925 3394 2219 3213 
L 2025 2691 
Q 1819 2813 1613 2813 
Q 1428 2813 1281 2702 
Q 1134 2591 1072 2394 
Q 978 2094 978 1738 
L 978 0 
L 416 0 
z
" transform="scale(0.015625)"/>
       <path id="ArialMT-65" d="M 2694 1069 
L 3275 997 
Q 3138 488 2766 206 
Q 2394 -75 1816 -75 
Q 1088 -75 661 373 
Q 234 822 234 1631 
Q 234 2469 665 2931 
Q 1097 3394 1784 3394 
Q 2450 3394 2872 2941 
Q 3294 2488 3294 1666 
Q 3294 1616 3291 1516 
L 816 1516 
Q 847 969 1125 678 
Q 1403 388 1819 388 
Q 2128 388 2347 550 
Q 2566 713 2694 1069 
z
M 847 1978 
L 2700 1978 
Q 2663 2397 2488 2606 
Q 2219 2931 1791 2931 
Q 1403 2931 1139 2672 
Q 875 2413 847 1978 
z
" transform="scale(0.015625)"/>
       <path id="ArialMT-71" d="M 2538 -1272 
L 2538 353 
Q 2406 169 2170 47 
Q 1934 -75 1669 -75 
Q 1078 -75 651 397 
Q 225 869 225 1691 
Q 225 2191 398 2587 
Q 572 2984 901 3189 
Q 1231 3394 1625 3394 
Q 2241 3394 2594 2875 
L 2594 3319 
L 3100 3319 
L 3100 -1272 
L 2538 -1272 
z
M 803 1669 
Q 803 1028 1072 708 
Q 1341 388 1716 388 
Q 2075 388 2334 692 
Q 2594 997 2594 1619 
Q 2594 2281 2320 2615 
Q 2047 2950 1678 2950 
Q 1313 2950 1058 2639 
Q 803 2328 803 1669 
z
" transform="scale(0.015625)"/>
       <path id="ArialMT-75" d="M 2597 0 
L 2597 488 
Q 2209 -75 1544 -75 
Q 1250 -75 995 37 
Q 741 150 617 320 
Q 494 491 444 738 
Q 409 903 409 1263 
L 409 3319 
L 972 3319 
L 972 1478 
Q 972 1038 1006 884 
Q 1059 663 1231 536 
Q 1403 409 1656 409 
Q 1909 409 2131 539 
Q 2353 669 2445 892 
Q 2538 1116 2538 1541 
L 2538 3319 
L 3100 3319 
L 3100 0 
L 2597 0 
z
" transform="scale(0.015625)"/>
       <path id="ArialMT-6e" d="M 422 0 
L 422 3319 
L 928 3319 
L 928 2847 
Q 1294 3394 1984 3394 
Q 2284 3394 2536 3286 
Q 2788 3178 2913 3003 
Q 3038 2828 3088 2588 
Q 3119 2431 3119 2041 
L 3119 0 
L 2556 0 
L 2556 2019 
Q 2556 2363 2490 2533 
Q 2425 2703 2258 2804 
Q 2091 2906 1866 2906 
Q 1506 2906 1245 2678 
Q 984 2450 984 1813 
L 984 0 
L 422 0 
z
" transform="scale(0.015625)"/>
       <path id="ArialMT-63" d="M 2588 1216 
L 3141 1144 
Q 3050 572 2676 248 
Q 2303 -75 1759 -75 
Q 1078 -75 664 370 
Q 250 816 250 1647 
Q 250 2184 428 2587 
Q 606 2991 970 3192 
Q 1334 3394 1763 3394 
Q 2303 3394 2647 3120 
Q 2991 2847 3088 2344 
L 2541 2259 
Q 2463 2594 2264 2762 
Q 2066 2931 1784 2931 
Q 1359 2931 1093 2626 
Q 828 2322 828 1663 
Q 828 994 1084 691 
Q 1341 388 1753 388 
Q 2084 388 2306 591 
Q 2528 794 2588 1216 
z
" transform="scale(0.015625)"/>
       <path id="ArialMT-79" d="M 397 -1278 
L 334 -750 
Q 519 -800 656 -800 
Q 844 -800 956 -737 
Q 1069 -675 1141 -563 
Q 1194 -478 1313 -144 
Q 1328 -97 1363 -6 
L 103 3319 
L 709 3319 
L 1400 1397 
Q 1534 1031 1641 628 
Q 1738 1016 1872 1384 
L 2581 3319 
L 3144 3319 
L 1881 -56 
Q 1678 -603 1566 -809 
Q 1416 -1088 1222 -1217 
Q 1028 -1347 759 -1347 
Q 597 -1347 397 -1278 
z
" transform="scale(0.015625)"/>
       <path id="ArialMT-20" transform="scale(0.015625)"/>
       <path id="ArialMT-28" d="M 1497 -1347 
Q 1031 -759 709 28 
Q 388 816 388 1659 
Q 388 2403 628 3084 
Q 909 3875 1497 4659 
L 1900 4659 
Q 1522 4009 1400 3731 
Q 1209 3300 1100 2831 
Q 966 2247 966 1656 
Q 966 153 1900 -1347 
L 1497 -1347 
z
" transform="scale(0.015625)"/>
       <path id="ArialMT-48" d="M 513 0 
L 513 4581 
L 1119 4581 
L 1119 2700 
L 3500 2700 
L 3500 4581 
L 4106 4581 
L 4106 0 
L 3500 0 
L 3500 2159 
L 1119 2159 
L 1119 0 
L 513 0 
z
" transform="scale(0.015625)"/>
       <path id="ArialMT-7a" d="M 125 0 
L 125 456 
L 2238 2881 
Q 1878 2863 1603 2863 
L 250 2863 
L 250 3319 
L 2963 3319 
L 2963 2947 
L 1166 841 
L 819 456 
Q 1197 484 1528 484 
L 3063 484 
L 3063 0 
L 125 0 
z
" transform="scale(0.015625)"/>
       <path id="ArialMT-29" d="M 791 -1347 
L 388 -1347 
Q 1322 153 1322 1656 
Q 1322 2244 1188 2822 
Q 1081 3291 891 3722 
Q 769 4003 388 4659 
L 791 4659 
Q 1378 3875 1659 3084 
Q 1900 2403 1900 1659 
Q 1900 816 1576 28 
Q 1253 -759 791 -1347 
z
" transform="scale(0.015625)"/>
      </defs>
      <use xlink:href="#ArialMT-46"/>
      <use xlink:href="#ArialMT-72" x="61.083984"/>
      <use xlink:href="#ArialMT-65" x="94.384766"/>
      <use xlink:href="#ArialMT-71" x="150"/>
      <use xlink:href="#ArialMT-75" x="205.615234"/>
      <use xlink:href="#ArialMT-65" x="261.230469"/>
      <use xlink:href="#ArialMT-6e" x="316.845703"/>
      <use xlink:href="#ArialMT-63" x="372.460938"/>
      <use xlink:href="#ArialMT-79" x="422.460938"/>
      <use xlink:href="#ArialMT-20" x="472.460938"/>
      <use xlink:href="#ArialMT-28" x="500.244141"/>
      <use xlink:href="#ArialMT-48" x="533.544922"/>
      <use xlink:href="#ArialMT-7a" x="605.761719"/>
      <use xlink:href="#ArialMT-29" x="655.761719"/>
     </g>
    </g>
   </g>
   <g id="matplotlib.axis_2">
    <g id="ytick_1">
     <g id="line2d_19">
      <defs>
       <path id="mb21b9f0046" d="M 0 0 
L -3.5 0 
" style="stroke: #000000; stroke-width: 0.8"/>
      </defs>
      <g>
       <use xlink:href="#mb21b9f0046" x="52.489063" y="228.96" style="stroke: #000000; stroke-width: 0.8"/>
      </g>
     </g>
     <g id="text_4">
      <!-- 0.0 -->
      <g transform="translate(31.589063 232.538906) scale(0.1 -0.1)">
       <use xlink:href="#ArialMT-30"/>
       <use xlink:href="#ArialMT-2e" x="55.615234"/>
       <use xlink:href="#ArialMT-30" x="83.398438"/>
      </g>
     </g>
    </g>
    <g id="ytick_2">
     <g id="line2d_20">
      <g>
       <use xlink:href="#mb21b9f0046" x="52.489063" y="201.111245" style="stroke: #000000; stroke-width: 0.8"/>
      </g>
     </g>
     <g id="text_5">
      <!-- 20.0 -->
      <g transform="translate(26.028125 204.690151) scale(0.1 -0.1)">
       <defs>
        <path id="ArialMT-32" d="M 3222 541 
L 3222 0 
L 194 0 
Q 188 203 259 391 
Q 375 700 629 1000 
Q 884 1300 1366 1694 
Q 2113 2306 2375 2664 
Q 2638 3022 2638 3341 
Q 2638 3675 2398 3904 
Q 2159 4134 1775 4134 
Q 1369 4134 1125 3890 
Q 881 3647 878 3216 
L 300 3275 
Q 359 3922 746 4261 
Q 1134 4600 1788 4600 
Q 2447 4600 2831 4234 
Q 3216 3869 3216 3328 
Q 3216 3053 3103 2787 
Q 2991 2522 2730 2228 
Q 2469 1934 1863 1422 
Q 1356 997 1212 845 
Q 1069 694 975 541 
L 3222 541 
z
" transform="scale(0.015625)"/>
       </defs>
       <use xlink:href="#ArialMT-32"/>
       <use xlink:href="#ArialMT-30" x="55.615234"/>
       <use xlink:href="#ArialMT-2e" x="111.230469"/>
       <use xlink:href="#ArialMT-30" x="139.013672"/>
      </g>
     </g>
    </g>
    <g id="ytick_3">
     <g id="line2d_21">
      <g>
       <use xlink:href="#mb21b9f0046" x="52.489063" y="173.262489" style="stroke: #000000; stroke-width: 0.8"/>
      </g>
     </g>
     <g id="text_6">
      <!-- 40.0 -->
      <g transform="translate(26.028125 176.841395) scale(0.1 -0.1)">
       <defs>
        <path id="ArialMT-34" d="M 2069 0 
L 2069 1097 
L 81 1097 
L 81 1613 
L 2172 4581 
L 2631 4581 
L 2631 1613 
L 3250 1613 
L 3250 1097 
L 2631 1097 
L 2631 0 
L 2069 0 
z
M 2069 1613 
L 2069 3678 
L 634 1613 
L 2069 1613 
z
" transform="scale(0.015625)"/>
       </defs>
       <use xlink:href="#ArialMT-34"/>
       <use xlink:href="#ArialMT-30" x="55.615234"/>
       <use xlink:href="#ArialMT-2e" x="111.230469"/>
       <use xlink:href="#ArialMT-30" x="139.013672"/>
      </g>
     </g>
    </g>
    <g id="ytick_4">
     <g id="line2d_22">
      <g>
       <use xlink:href="#mb21b9f0046" x="52.489063" y="145.413734" style="stroke: #000000; stroke-width: 0.8"/>
      </g>
     </g>
     <g id="text_7">
      <!-- 60.0 -->
      <g transform="translate(26.028125 148.99264) scale(0.1 -0.1)">
       <defs>
        <path id="ArialMT-36" d="M 3184 3459 
L 2625 3416 
Q 2550 3747 2413 3897 
Q 2184 4138 1850 4138 
Q 1581 4138 1378 3988 
Q 1113 3794 959 3422 
Q 806 3050 800 2363 
Q 1003 2672 1297 2822 
Q 1591 2972 1913 2972 
Q 2475 2972 2870 2558 
Q 3266 2144 3266 1488 
Q 3266 1056 3080 686 
Q 2894 316 2569 119 
Q 2244 -78 1831 -78 
Q 1128 -78 684 439 
Q 241 956 241 2144 
Q 241 3472 731 4075 
Q 1159 4600 1884 4600 
Q 2425 4600 2770 4297 
Q 3116 3994 3184 3459 
z
M 888 1484 
Q 888 1194 1011 928 
Q 1134 663 1356 523 
Q 1578 384 1822 384 
Q 2178 384 2434 671 
Q 2691 959 2691 1453 
Q 2691 1928 2437 2201 
Q 2184 2475 1800 2475 
Q 1419 2475 1153 2201 
Q 888 1928 888 1484 
z
" transform="scale(0.015625)"/>
       </defs>
       <use xlink:href="#ArialMT-36"/>
       <use xlink:href="#ArialMT-30" x="55.615234"/>
       <use xlink:href="#ArialMT-2e" x="111.230469"/>
       <use xlink:href="#ArialMT-30" x="139.013672"/>
      </g>
     </g>
    </g>
    <g id="ytick_5">
     <g id="line2d_23">
      <g>
       <use xlink:href="#mb21b9f0046" x="52.489063" y="117.564978" style="stroke: #000000; stroke-width: 0.8"/>
      </g>
     </g>
     <g id="text_8">
      <!-- 80.0 -->
      <g transform="translate(26.028125 121.143884) scale(0.1 -0.1)">
       <defs>
        <path id="ArialMT-38" d="M 1131 2484 
Q 781 2613 612 2850 
Q 444 3088 444 3419 
Q 444 3919 803 4259 
Q 1163 4600 1759 4600 
Q 2359 4600 2725 4251 
Q 3091 3903 3091 3403 
Q 3091 3084 2923 2848 
Q 2756 2613 2416 2484 
Q 2838 2347 3058 2040 
Q 3278 1734 3278 1309 
Q 3278 722 2862 322 
Q 2447 -78 1769 -78 
Q 1091 -78 675 323 
Q 259 725 259 1325 
Q 259 1772 486 2073 
Q 713 2375 1131 2484 
z
M 1019 3438 
Q 1019 3113 1228 2906 
Q 1438 2700 1772 2700 
Q 2097 2700 2305 2904 
Q 2513 3109 2513 3406 
Q 2513 3716 2298 3927 
Q 2084 4138 1766 4138 
Q 1444 4138 1231 3931 
Q 1019 3725 1019 3438 
z
M 838 1322 
Q 838 1081 952 856 
Q 1066 631 1291 507 
Q 1516 384 1775 384 
Q 2178 384 2440 643 
Q 2703 903 2703 1303 
Q 2703 1709 2433 1975 
Q 2163 2241 1756 2241 
Q 1359 2241 1098 1978 
Q 838 1716 838 1322 
z
" transform="scale(0.015625)"/>
       </defs>
       <use xlink:href="#ArialMT-38"/>
       <use xlink:href="#ArialMT-30" x="55.615234"/>
       <use xlink:href="#ArialMT-2e" x="111.230469"/>
       <use xlink:href="#ArialMT-30" x="139.013672"/>
      </g>
     </g>
    </g>
    <g id="ytick_6">
     <g id="line2d_24">
      <g>
       <use xlink:href="#mb21b9f0046" x="52.489063" y="89.716223" style="stroke: #000000; stroke-width: 0.8"/>
      </g>
     </g>
     <g id="text_9">
      <!-- 100.0 -->
      <g transform="translate(20.467188 93.295129) scale(0.1 -0.1)">
       <use xlink:href="#ArialMT-31"/>
       <use xlink:href="#ArialMT-30" x="55.615234"/>
       <use xlink:href="#ArialMT-30" x="111.230469"/>
       <use xlink:href="#ArialMT-2e" x="166.845703"/>
       <use xlink:href="#ArialMT-30" x="194.628906"/>
      </g>
     </g>
    </g>
    <g id="ytick_7">
     <g id="line2d_25">
      <g>
       <use xlink:href="#mb21b9f0046" x="52.489063" y="61.867467" style="stroke: #000000; stroke-width: 0.8"/>
      </g>
     </g>
     <g id="text_10">
      <!-- 120.0 -->
      <g transform="translate(20.467188 65.446374) scale(0.1 -0.1)">
       <use xlink:href="#ArialMT-31"/>
       <use xlink:href="#ArialMT-32" x="55.615234"/>
       <use xlink:href="#ArialMT-30" x="111.230469"/>
       <use xlink:href="#ArialMT-2e" x="166.845703"/>
       <use xlink:href="#ArialMT-30" x="194.628906"/>
      </g>
     </g>
    </g>
    <g id="ytick_8">
     <g id="line2d_26">
      <g>
       <use xlink:href="#mb21b9f0046" x="52.489063" y="34.018712" style="stroke: #000000; stroke-width: 0.8"/>
      </g>
     </g>
     <g id="text_11">
      <!-- 140.0 -->
      <g transform="translate(20.467188 37.597618) scale(0.1 -0.1)">
       <use xlink:href="#ArialMT-31"/>
       <use xlink:href="#ArialMT-34" x="55.615234"/>
       <use xlink:href="#ArialMT-30" x="111.230469"/>
       <use xlink:href="#ArialMT-2e" x="166.845703"/>
       <use xlink:href="#ArialMT-30" x="194.628906"/>
      </g>
     </g>
    </g>
    <g id="text_12">
     <!-- H/V Amplitude -->
     <g transform="translate(14.479688 149.762031) rotate(-90) scale(0.1 -0.1)">
      <defs>
       <path id="ArialMT-2f" d="M 0 -78 
L 1328 4659 
L 1778 4659 
L 453 -78 
L 0 -78 
z
" transform="scale(0.015625)"/>
       <path id="ArialMT-56" d="M 1803 0 
L 28 4581 
L 684 4581 
L 1875 1253 
Q 2019 853 2116 503 
Q 2222 878 2363 1253 
L 3600 4581 
L 4219 4581 
L 2425 0 
L 1803 0 
z
" transform="scale(0.015625)"/>
       <path id="ArialMT-41" d="M -9 0 
L 1750 4581 
L 2403 4581 
L 4278 0 
L 3588 0 
L 3053 1388 
L 1138 1388 
L 634 0 
L -9 0 
z
M 1313 1881 
L 2866 1881 
L 2388 3150 
Q 2169 3728 2063 4100 
Q 1975 3659 1816 3225 
L 1313 1881 
z
" transform="scale(0.015625)"/>
       <path id="ArialMT-6d" d="M 422 0 
L 422 3319 
L 925 3319 
L 925 2853 
Q 1081 3097 1340 3245 
Q 1600 3394 1931 3394 
Q 2300 3394 2536 3241 
Q 2772 3088 2869 2813 
Q 3263 3394 3894 3394 
Q 4388 3394 4653 3120 
Q 4919 2847 4919 2278 
L 4919 0 
L 4359 0 
L 4359 2091 
Q 4359 2428 4304 2576 
Q 4250 2725 4106 2815 
Q 3963 2906 3769 2906 
Q 3419 2906 3187 2673 
Q 2956 2441 2956 1928 
L 2956 0 
L 2394 0 
L 2394 2156 
Q 2394 2531 2256 2718 
Q 2119 2906 1806 2906 
Q 1569 2906 1367 2781 
Q 1166 2656 1075 2415 
Q 984 2175 984 1722 
L 984 0 
L 422 0 
z
" transform="scale(0.015625)"/>
       <path id="ArialMT-70" d="M 422 -1272 
L 422 3319 
L 934 3319 
L 934 2888 
Q 1116 3141 1344 3267 
Q 1572 3394 1897 3394 
Q 2322 3394 2647 3175 
Q 2972 2956 3137 2557 
Q 3303 2159 3303 1684 
Q 3303 1175 3120 767 
Q 2938 359 2589 142 
Q 2241 -75 1856 -75 
Q 1575 -75 1351 44 
Q 1128 163 984 344 
L 984 -1272 
L 422 -1272 
z
M 931 1641 
Q 931 1000 1190 694 
Q 1450 388 1819 388 
Q 2194 388 2461 705 
Q 2728 1022 2728 1688 
Q 2728 2322 2467 2637 
Q 2206 2953 1844 2953 
Q 1484 2953 1207 2617 
Q 931 2281 931 1641 
z
" transform="scale(0.015625)"/>
       <path id="ArialMT-6c" d="M 409 0 
L 409 4581 
L 972 4581 
L 972 0 
L 409 0 
z
" transform="scale(0.015625)"/>
       <path id="ArialMT-69" d="M 425 3934 
L 425 4581 
L 988 4581 
L 988 3934 
L 425 3934 
z
M 425 0 
L 425 3319 
L 988 3319 
L 988 0 
L 425 0 
z
" transform="scale(0.015625)"/>
       <path id="ArialMT-74" d="M 1650 503 
L 1731 6 
Q 1494 -44 1306 -44 
Q 1000 -44 831 53 
Q 663 150 594 308 
Q 525 466 525 972 
L 525 2881 
L 113 2881 
L 113 3319 
L 525 3319 
L 525 4141 
L 1084 4478 
L 1084 3319 
L 1650 3319 
L 1650 2881 
L 1084 2881 
L 1084 941 
Q 1084 700 1114 631 
Q 1144 563 1211 522 
Q 1278 481 1403 481 
Q 1497 481 1650 503 
z
" transform="scale(0.015625)"/>
       <path id="ArialMT-64" d="M 2575 0 
L 2575 419 
Q 2259 -75 1647 -75 
Q 1250 -75 917 144 
Q 584 363 401 755 
Q 219 1147 219 1656 
Q 219 2153 384 2558 
Q 550 2963 881 3178 
Q 1213 3394 1622 3394 
Q 1922 3394 2156 3267 
Q 2391 3141 2538 2938 
L 2538 4581 
L 3097 4581 
L 3097 0 
L 2575 0 
z
M 797 1656 
Q 797 1019 1065 703 
Q 1334 388 1700 388 
Q 2069 388 2326 689 
Q 2584 991 2584 1609 
Q 2584 2291 2321 2609 
Q 2059 2928 1675 2928 
Q 1300 2928 1048 2622 
Q 797 2316 797 1656 
z
" transform="scale(0.015625)"/>
      </defs>
      <use xlink:href="#ArialMT-48"/>
      <use xlink:href="#ArialMT-2f" x="72.216797"/>
      <use xlink:href="#ArialMT-56" x="100"/>
      <use xlink:href="#ArialMT-20" x="166.699219"/>
      <use xlink:href="#ArialMT-41" x="188.982422"/>
      <use xlink:href="#ArialMT-6d" x="255.681641"/>
      <use xlink:href="#ArialMT-70" x="338.982422"/>
      <use xlink:href="#ArialMT-6c" x="394.597656"/>
      <use xlink:href="#ArialMT-69" x="416.814453"/>
      <use xlink:href="#ArialMT-74" x="439.03125"/>
      <use xlink:href="#ArialMT-75" x="466.814453"/>
      <use xlink:href="#ArialMT-64" x="522.429688"/>
      <use xlink:href="#ArialMT-65" x="578.044922"/>
     </g>
    </g>
   </g>
   <g id="line2d_27">
    <path d="M 52.489063 227.711657 
L 57.238202 227.575034 
L 61.987342 227.592667 
L 66.736482 227.29527 
L 71.485622 226.960933 
L 80.983902 226.850032 
L 88.107612 227.184811 
L 95.231322 226.752426 
L 102.355032 227.407162 
L 114.227882 227.479797 
L 121.351592 227.585585 
L 130.849872 227.267757 
L 142.722722 227.848502 
L 152.221002 227.319469 
L 164.093852 227.439135 
L 168.842992 227.223005 
L 171.217562 226.949474 
L 173.592132 226.477513 
L 178.341272 225.122927 
L 180.715842 224.779038 
L 183.090412 224.910413 
L 185.464982 225.233348 
L 187.839552 225.432794 
L 190.214122 225.419271 
L 199.712402 224.728129 
L 202.086972 224.723322 
L 204.461542 224.958633 
L 211.585252 226.143272 
L 213.959822 226.229804 
L 221.083532 225.920992 
L 223.458102 226.124547 
L 228.207242 226.901337 
L 230.581812 227.114215 
L 232.956382 227.109428 
L 235.330952 226.883328 
L 237.705522 226.517765 
L 240.080092 226.277718 
L 242.454662 226.42513 
L 247.203802 227.177691 
L 249.578372 227.338286 
L 254.327512 227.183861 
L 259.076652 227.062359 
L 273.324072 227.124347 
L 278.073212 227.209086 
L 287.571492 227.031013 
L 292.320632 227.226818 
L 294.695202 227.104201 
L 301.818912 226.209732 
L 304.193482 226.371609 
L 308.942622 227.193634 
L 311.317192 227.465311 
L 313.691762 227.549016 
L 318.440902 227.278226 
L 323.190042 226.934512 
L 327.939182 226.997873 
L 335.062892 227.277615 
L 339.812032 227.416562 
L 354.059452 228.105785 
L 370.681441 228.122546 
L 377.805151 228.243637 
L 405.219531 228.218067 
L 405.219531 228.218067 
" clip-path="url(#pf40a3c2c9e)" style="fill: none; stroke: #808080; stroke-opacity: 0.5; stroke-width: 0.5; stroke-linecap: square"/>
   </g>
   <g id="line2d_28">
    <path d="M 52.489063 227.29385 
L 59.612772 227.687906 
L 64.361912 227.546527 
L 66.736482 227.680112 
L 71.485622 228.228408 
L 73.860192 228.28939 
L 76.234762 228.184654 
L 78.609332 227.918044 
L 83.358472 227.054316 
L 85.733042 226.885598 
L 90.482182 226.970111 
L 99.980462 226.733119 
L 102.355032 227.055696 
L 107.104172 228.008025 
L 109.478742 228.230563 
L 114.227882 228.247289 
L 135.599012 227.789741 
L 142.722722 227.17497 
L 147.471862 227.06243 
L 149.846432 226.694245 
L 152.221002 226.109138 
L 154.595572 225.694968 
L 156.970142 225.889162 
L 161.719282 226.893019 
L 164.093852 227.192169 
L 166.468422 227.34121 
L 168.842992 227.35304 
L 173.592132 227.029941 
L 178.341272 226.511844 
L 180.715842 226.374903 
L 185.464982 226.507426 
L 190.214122 226.820399 
L 192.588692 226.888061 
L 194.963262 226.820705 
L 202.086972 226.163977 
L 206.836112 226.323724 
L 211.585252 226.259601 
L 213.959822 226.487433 
L 218.708962 227.30524 
L 221.083532 227.563666 
L 223.458102 227.657697 
L 232.956382 227.476399 
L 240.080092 227.153036 
L 244.829232 227.52726 
L 249.578372 227.850651 
L 256.702082 228.131107 
L 261.451222 228.058486 
L 268.574932 227.574997 
L 273.324072 227.519803 
L 280.447782 227.611439 
L 287.571492 227.443345 
L 292.320632 227.355289 
L 297.069772 226.945905 
L 299.444342 226.916605 
L 306.568052 227.290546 
L 318.440902 227.127289 
L 327.939182 227.433882 
L 332.688322 227.163743 
L 337.437462 226.877943 
L 346.935742 227.006806 
L 351.684882 227.186268 
L 363.557732 227.884871 
L 382.554291 228.280298 
L 405.219531 227.942725 
L 405.219531 227.942725 
" clip-path="url(#pf40a3c2c9e)" style="fill: none; stroke: #808080; stroke-opacity: 0.5; stroke-width: 0.5; stroke-linecap: square"/>
   </g>
   <g id="line2d_29">
    <path d="M 52.489063 222.336411 
L 54.863632 221.173605 
L 59.612772 217.358006 
L 61.987342 216.626218 
L 64.361912 217.129557 
L 66.736482 217.942566 
L 69.111052 218.624055 
L 71.485622 219.186063 
L 73.860192 219.630271 
L 76.234762 219.808138 
L 78.609332 219.425801 
L 80.983902 218.012196 
L 83.358472 215.205166 
L 85.733042 212.963005 
L 88.107612 215.090411 
L 90.482182 218.773697 
L 92.856752 221.159068 
L 95.231322 222.285576 
L 97.605892 222.511177 
L 99.980462 221.971639 
L 104.729602 219.462436 
L 107.104172 219.502269 
L 111.853312 222.599074 
L 114.227882 223.388933 
L 116.602452 223.547505 
L 121.351592 223.292495 
L 126.100732 223.387898 
L 128.475302 223.2784 
L 130.849872 223.042224 
L 133.224442 222.965814 
L 140.348152 223.718912 
L 142.722722 223.545672 
L 145.097292 223.251255 
L 147.471862 223.221924 
L 154.595572 224.113239 
L 161.719282 223.764161 
L 164.093852 224.15509 
L 166.468422 224.672936 
L 168.842992 225.046061 
L 171.217562 225.198631 
L 178.341272 225.264907 
L 183.090412 225.673921 
L 192.588692 226.678211 
L 194.963262 226.750955 
L 204.461542 226.573626 
L 209.210682 226.823991 
L 216.334392 226.864997 
L 223.458102 226.679191 
L 230.581812 226.272113 
L 232.956382 226.423156 
L 237.705522 227.046763 
L 242.454662 227.324891 
L 256.702082 227.81237 
L 263.825792 227.82099 
L 278.073212 227.270058 
L 282.822352 226.726709 
L 285.196922 226.649004 
L 292.320632 227.100306 
L 297.069772 226.958875 
L 306.568052 226.294739 
L 308.942622 226.360607 
L 313.691762 226.832611 
L 318.440902 227.293076 
L 320.815472 227.341799 
L 325.564612 226.995892 
L 332.688322 226.284978 
L 335.062892 226.18205 
L 337.437462 226.321021 
L 344.561172 227.3036 
L 346.935742 227.446258 
L 351.684882 227.352818 
L 354.059452 227.302657 
L 356.434022 227.382112 
L 365.932302 228.161712 
L 370.681441 228.100085 
L 375.430581 227.81075 
L 380.179721 227.955419 
L 384.928861 228.143625 
L 399.176281 228.244637 
L 405.219531 228.116108 
L 405.219531 228.116108 
" clip-path="url(#pf40a3c2c9e)" style="fill: none; stroke: #808080; stroke-opacity: 0.5; stroke-width: 0.5; stroke-linecap: square"/>
   </g>
   <g id="line2d_30">
    <path d="M 52.489063 228.407266 
L 54.863632 228.223955 
L 61.987342 227.303212 
L 66.736482 227.256434 
L 71.485622 227.459811 
L 80.983902 228.112419 
L 85.733042 227.846333 
L 90.482182 227.298534 
L 92.856752 226.821073 
L 95.231322 226.182068 
L 97.605892 225.670366 
L 99.980462 225.657571 
L 102.355032 226.095182 
L 104.729602 226.670349 
L 107.104172 227.06505 
L 109.478742 227.100644 
L 114.227882 226.562433 
L 116.602452 226.53639 
L 126.100732 227.50068 
L 128.475302 227.454581 
L 130.849872 227.192543 
L 133.224442 226.651743 
L 137.973582 225.240984 
L 140.348152 225.100151 
L 142.722722 225.502944 
L 147.471862 226.770492 
L 149.846432 227.084593 
L 152.221002 227.096676 
L 171.217562 225.672088 
L 173.592132 225.372537 
L 178.341272 224.356861 
L 180.715842 224.256466 
L 194.963262 225.731741 
L 197.337832 225.751183 
L 199.712402 225.427069 
L 204.461542 224.372038 
L 206.836112 224.253379 
L 209.210682 224.44296 
L 213.959822 225.146435 
L 218.708962 225.925386 
L 223.458102 226.356804 
L 235.330952 226.850768 
L 242.454662 226.575243 
L 247.203802 226.825198 
L 249.578372 226.804784 
L 254.327512 226.439552 
L 256.702082 226.43182 
L 266.200362 227.41127 
L 270.949502 227.318436 
L 282.822352 226.61404 
L 287.571492 226.599478 
L 292.320632 226.718944 
L 299.444342 226.66405 
L 306.568052 226.997341 
L 311.317192 226.875034 
L 318.440902 226.576835 
L 323.190042 226.676099 
L 335.062892 227.27505 
L 339.812032 227.50172 
L 368.306872 227.856129 
L 373.056011 227.78147 
L 389.678001 228.042165 
L 396.801711 228.176733 
L 405.219531 228.085275 
L 405.219531 228.085275 
" clip-path="url(#pf40a3c2c9e)" style="fill: none; stroke: #808080; stroke-opacity: 0.5; stroke-width: 0.5; stroke-linecap: square"/>
   </g>
   <g id="line2d_31">
    <path d="M 52.489063 226.815807 
L 57.238202 226.993538 
L 61.987342 226.804004 
L 73.860192 225.920641 
L 76.234762 225.976988 
L 80.983902 226.592939 
L 83.358472 226.581413 
L 88.107612 225.657942 
L 90.482182 225.46937 
L 95.231322 225.2971 
L 99.980462 224.78884 
L 102.355032 224.794385 
L 104.729602 225.102627 
L 109.478742 226.073426 
L 111.853312 226.397692 
L 114.227882 226.511825 
L 116.602452 226.427073 
L 121.351592 226.06589 
L 123.726162 226.056849 
L 135.599012 226.581244 
L 140.348152 226.516567 
L 145.097292 226.402943 
L 149.846432 226.733931 
L 156.970142 227.245453 
L 161.719282 227.33762 
L 171.217562 227.151843 
L 175.966702 227.042153 
L 180.715842 226.708544 
L 185.464982 226.142869 
L 187.839552 225.667424 
L 190.214122 224.989811 
L 194.963262 223.310908 
L 197.337832 222.931419 
L 199.712402 223.234114 
L 206.836112 225.440362 
L 211.585252 226.159243 
L 216.334392 226.702996 
L 218.708962 226.836559 
L 221.083532 226.792755 
L 225.832672 226.398402 
L 228.207242 226.34689 
L 230.581812 226.597318 
L 235.330952 227.409501 
L 237.705522 227.542178 
L 240.080092 227.476721 
L 247.203802 226.958945 
L 256.702082 227.484747 
L 268.574932 227.601712 
L 278.073212 227.378579 
L 289.946062 227.204019 
L 294.695202 227.306402 
L 301.818912 227.114514 
L 306.568052 227.303486 
L 308.942622 227.271938 
L 316.066332 226.867651 
L 325.564612 227.302838 
L 339.812032 227.346498 
L 344.561172 227.533035 
L 349.310312 227.715618 
L 363.557732 227.702618 
L 375.430581 228.05879 
L 382.554291 228.072794 
L 387.303431 228.123878 
L 394.427141 228.294771 
L 405.219531 228.179067 
L 405.219531 228.179067 
" clip-path="url(#pf40a3c2c9e)" style="fill: none; stroke: #808080; stroke-opacity: 0.5; stroke-width: 0.5; stroke-linecap: square"/>
   </g>
   <g id="line2d_32">
    <path d="M 52.489063 225.038909 
L 54.863632 224.774513 
L 57.238202 224.783213 
L 59.612772 225.062161 
L 69.111052 227.06981 
L 71.485622 227.314947 
L 73.860192 227.440292 
L 78.609332 227.330319 
L 83.358472 227.232721 
L 88.107612 227.240441 
L 90.482182 227.047741 
L 97.605892 225.917037 
L 99.980462 225.883241 
L 104.729602 226.311839 
L 107.104172 226.575101 
L 109.478742 226.702932 
L 111.853312 226.630989 
L 118.977022 226.036443 
L 123.726162 226.125178 
L 128.475302 226.25319 
L 130.849872 226.199815 
L 133.224442 225.99562 
L 135.599012 225.589636 
L 137.973582 225.025786 
L 140.348152 224.650409 
L 142.722722 224.935998 
L 147.471862 226.371997 
L 149.846432 226.740044 
L 152.221002 226.741949 
L 154.595572 226.396935 
L 156.970142 225.896193 
L 159.344712 225.593177 
L 161.719282 225.58363 
L 168.842992 225.875279 
L 171.217562 225.830999 
L 173.592132 225.584842 
L 178.341272 224.540198 
L 180.715842 224.396083 
L 183.090412 224.864396 
L 185.464982 225.462627 
L 187.839552 225.772097 
L 190.214122 225.72641 
L 194.963262 225.320417 
L 197.337832 225.394971 
L 204.461542 226.180696 
L 206.836112 226.226075 
L 211.585252 225.947422 
L 221.083532 225.379749 
L 225.832672 225.314001 
L 228.207242 225.525808 
L 232.956382 226.134334 
L 237.705522 226.166107 
L 240.080092 226.201568 
L 242.454662 226.412306 
L 247.203802 227.05443 
L 251.952942 227.470799 
L 256.702082 227.732328 
L 261.451222 227.645169 
L 266.200362 227.520078 
L 275.698642 227.954158 
L 285.196922 227.887613 
L 289.946062 227.611679 
L 297.069772 227.134485 
L 301.818912 227.034517 
L 316.066332 227.287575 
L 320.815472 227.31213 
L 332.688322 227.059454 
L 339.812032 227.233213 
L 351.684882 227.29718 
L 356.434022 227.341197 
L 368.306872 227.999389 
L 399.176281 228.264644 
L 405.219531 228.242973 
L 405.219531 228.242973 
" clip-path="url(#pf40a3c2c9e)" style="fill: none; stroke: #808080; stroke-opacity: 0.5; stroke-width: 0.5; stroke-linecap: square"/>
   </g>
   <g id="line2d_33">
    <path d="M 52.489063 228.036833 
L 57.238202 228.116361 
L 59.612772 227.975238 
L 61.987342 227.642914 
L 64.361912 227.037975 
L 69.111052 225.287589 
L 71.485622 225.465422 
L 73.860192 226.313502 
L 76.234762 227.008367 
L 78.609332 227.395429 
L 80.983902 227.518881 
L 83.358472 227.384341 
L 88.107612 226.618704 
L 90.482182 226.496535 
L 92.856752 226.771132 
L 97.605892 227.637695 
L 99.980462 227.825298 
L 104.729602 227.855829 
L 114.227882 227.674703 
L 118.977022 227.561068 
L 130.849872 227.971352 
L 135.599012 227.892063 
L 140.348152 227.486779 
L 147.471862 226.235154 
L 149.846432 226.204225 
L 156.970142 227.176038 
L 161.719282 227.352396 
L 166.468422 227.207407 
L 173.592132 226.666353 
L 185.464982 226.705641 
L 187.839552 226.526508 
L 190.214122 226.084299 
L 192.588692 225.299827 
L 194.963262 224.303724 
L 197.337832 223.640691 
L 199.712402 223.940029 
L 204.461542 225.774652 
L 206.836112 226.327227 
L 209.210682 226.641622 
L 213.959822 226.869574 
L 218.708962 226.972939 
L 225.832672 227.406549 
L 230.581812 227.219389 
L 235.330952 226.944659 
L 240.080092 226.823291 
L 242.454662 226.88846 
L 249.578372 227.37316 
L 259.076652 227.404785 
L 266.200362 227.742625 
L 273.324072 227.846772 
L 280.447782 227.63076 
L 294.695202 227.169664 
L 299.444342 226.596439 
L 304.193482 225.796475 
L 306.568052 225.592935 
L 308.942622 225.765169 
L 311.317192 226.302716 
L 313.691762 226.957667 
L 316.066332 227.467722 
L 318.440902 227.745807 
L 320.815472 227.835127 
L 325.564612 227.682276 
L 330.313752 227.415977 
L 335.062892 227.368832 
L 361.183162 227.628339 
L 377.805151 227.981952 
L 384.928861 227.974028 
L 396.801711 228.31553 
L 405.219531 228.255706 
L 405.219531 228.255706 
" clip-path="url(#pf40a3c2c9e)" style="fill: none; stroke: #808080; stroke-opacity: 0.5; stroke-width: 0.5; stroke-linecap: square"/>
   </g>
   <g id="line2d_34">
    <path d="M 52.489063 227.555057 
L 57.238202 226.849809 
L 59.612772 226.763559 
L 64.361912 227.086542 
L 66.736482 227.048038 
L 73.860192 226.182202 
L 78.609332 226.269279 
L 80.983902 226.127425 
L 85.733042 225.463384 
L 88.107612 225.378677 
L 90.482182 225.768092 
L 92.856752 226.325934 
L 95.231322 226.658431 
L 97.605892 226.711397 
L 102.355032 226.593412 
L 104.729602 226.795451 
L 109.478742 227.437654 
L 111.853312 227.591407 
L 116.602452 227.535677 
L 118.977022 227.33528 
L 128.475302 226.116498 
L 130.849872 226.062438 
L 133.224442 226.184541 
L 140.348152 227.324384 
L 142.722722 227.4631 
L 154.595572 227.191196 
L 159.344712 226.797585 
L 161.719282 226.865776 
L 166.468422 227.304385 
L 168.842992 227.277783 
L 171.217562 226.988592 
L 173.592132 226.461824 
L 178.341272 225.04725 
L 180.715842 224.135177 
L 185.464982 221.598669 
L 187.839552 221.012459 
L 190.214122 221.44239 
L 194.963262 222.887064 
L 197.337832 223.573632 
L 204.461542 226.044322 
L 206.836112 226.460957 
L 209.210682 226.579981 
L 216.334392 226.390865 
L 221.083532 227.037336 
L 223.458102 227.346264 
L 225.832672 227.517409 
L 230.581812 227.499864 
L 235.330952 227.552103 
L 240.080092 227.684452 
L 242.454662 227.605836 
L 244.829232 227.371796 
L 249.578372 226.617957 
L 251.952942 226.429096 
L 254.327512 226.546113 
L 259.076652 227.15268 
L 263.825792 227.405831 
L 268.574932 227.313947 
L 275.698642 226.786679 
L 278.073212 226.830757 
L 282.822352 227.216217 
L 287.571492 227.273258 
L 292.320632 227.163996 
L 299.444342 227.258499 
L 301.818912 227.136145 
L 306.568052 226.6984 
L 308.942622 226.70219 
L 313.691762 227.105296 
L 316.066332 227.171831 
L 318.440902 227.06964 
L 325.564612 226.432236 
L 327.939182 226.411882 
L 332.688322 226.755244 
L 339.812032 227.420393 
L 344.561172 227.625808 
L 375.430581 227.997304 
L 384.928861 228.248373 
L 396.801711 228.398506 
L 405.219531 228.224592 
L 405.219531 228.224592 
" clip-path="url(#pf40a3c2c9e)" style="fill: none; stroke: #808080; stroke-opacity: 0.5; stroke-width: 0.5; stroke-linecap: square"/>
   </g>
   <g id="line2d_35">
    <path d="M 52.489063 227.46694 
L 61.987342 227.042068 
L 64.361912 226.726834 
L 69.111052 225.813106 
L 71.485622 225.903518 
L 76.234762 226.873391 
L 78.609332 227.051329 
L 80.983902 226.985007 
L 88.107612 226.379118 
L 90.482182 226.446004 
L 95.231322 226.955727 
L 97.605892 226.953663 
L 99.980462 226.682188 
L 104.729602 225.512774 
L 107.104172 225.503245 
L 111.853312 226.451999 
L 114.227882 226.71002 
L 126.100732 227.369663 
L 133.224442 227.435179 
L 137.973582 227.59316 
L 140.348152 227.331414 
L 142.722722 226.663235 
L 147.471862 224.668795 
L 149.846432 224.305014 
L 154.595572 224.710475 
L 159.344712 224.499219 
L 161.719282 224.922811 
L 164.093852 225.626931 
L 166.468422 226.16863 
L 168.842992 226.340476 
L 171.217562 226.058567 
L 173.592132 225.30927 
L 175.966702 224.355583 
L 178.341272 223.554474 
L 180.715842 222.966735 
L 183.090412 222.673514 
L 185.464982 222.989869 
L 190.214122 224.633078 
L 192.588692 225.025415 
L 199.712402 225.258129 
L 206.836112 226.074802 
L 213.959822 226.547675 
L 221.083532 227.348296 
L 223.458102 227.33519 
L 225.832672 227.086769 
L 230.581812 226.400694 
L 232.956382 226.366063 
L 237.705522 226.728108 
L 240.080092 226.789169 
L 249.578372 226.526372 
L 254.327512 226.238788 
L 256.702082 226.241672 
L 259.076652 226.487477 
L 263.825792 227.186006 
L 266.200362 227.379289 
L 270.949502 227.471994 
L 278.073212 227.416608 
L 285.196922 227.273873 
L 289.946062 227.3222 
L 292.320632 227.184309 
L 297.069772 226.542157 
L 301.818912 225.900465 
L 304.193482 225.808214 
L 306.568052 225.899833 
L 311.317192 226.44668 
L 316.066332 226.949051 
L 320.815472 226.970961 
L 325.564612 226.952783 
L 335.062892 227.51188 
L 342.186602 227.464435 
L 349.310312 227.495358 
L 370.681441 227.799318 
L 399.176281 228.221442 
L 405.219531 228.200892 
L 405.219531 228.200892 
" clip-path="url(#pf40a3c2c9e)" style="fill: none; stroke: #808080; stroke-opacity: 0.5; stroke-width: 0.5; stroke-linecap: square"/>
   </g>
   <g id="line2d_36">
    <path d="M 52.489063 228.143273 
L 57.238202 227.863141 
L 64.361912 227.127052 
L 69.111052 227.081403 
L 73.860192 227.036206 
L 83.358472 226.611233 
L 85.733042 226.545875 
L 88.107612 226.326098 
L 90.482182 225.893427 
L 95.231322 224.674043 
L 97.605892 224.308728 
L 99.980462 224.674574 
L 104.729602 226.911232 
L 107.104172 227.571295 
L 109.478742 227.876431 
L 111.853312 227.935859 
L 114.227882 227.78032 
L 121.351592 226.650507 
L 126.100732 226.471483 
L 130.849872 225.896713 
L 133.224442 225.874472 
L 140.348152 226.995272 
L 142.722722 227.148688 
L 145.097292 227.133305 
L 147.471862 226.933714 
L 152.221002 226.314318 
L 154.595572 226.330788 
L 159.344712 226.641833 
L 161.719282 226.460338 
L 164.093852 225.915533 
L 166.468422 225.043374 
L 168.842992 224.025884 
L 171.217562 223.223647 
L 173.592132 223.133877 
L 175.966702 223.875188 
L 178.341272 224.842192 
L 180.715842 225.431863 
L 183.090412 225.445316 
L 185.464982 224.905642 
L 187.839552 224.048211 
L 190.214122 223.416719 
L 192.588692 223.430953 
L 197.337832 224.406345 
L 204.461542 225.960837 
L 206.836112 226.213721 
L 209.210682 226.234633 
L 211.585252 226.043189 
L 218.708962 224.856327 
L 221.083532 225.078569 
L 223.458102 225.489674 
L 225.832672 225.728345 
L 235.330952 225.777444 
L 240.080092 226.208341 
L 244.829232 226.459576 
L 251.952942 227.300159 
L 254.327512 227.406945 
L 259.076652 227.246486 
L 263.825792 227.079024 
L 266.200362 227.200472 
L 273.324072 227.9045 
L 278.073212 227.977727 
L 280.447782 227.854819 
L 282.822352 227.615116 
L 292.320632 226.208651 
L 297.069772 226.235445 
L 306.568052 226.447753 
L 311.317192 226.821956 
L 316.066332 227.215665 
L 320.815472 227.379885 
L 325.564612 227.377729 
L 330.313752 227.129371 
L 335.062892 226.934813 
L 339.812032 227.164322 
L 346.935742 227.641217 
L 356.434022 227.944254 
L 368.306872 228.023953 
L 384.928861 228.190626 
L 401.550851 228.297908 
L 405.219531 228.243579 
L 405.219531 228.243579 
" clip-path="url(#pf40a3c2c9e)" style="fill: none; stroke: #808080; stroke-opacity: 0.5; stroke-width: 0.5; stroke-linecap: square"/>
   </g>
   <g id="line2d_37">
    <path d="M 52.489063 225.480437 
L 57.238202 224.500771 
L 59.612772 224.420709 
L 64.361912 225.975356 
L 66.736482 226.338316 
L 69.111052 226.242005 
L 71.485622 225.764873 
L 73.860192 224.916384 
L 76.234762 223.855976 
L 78.609332 223.372465 
L 80.983902 224.103155 
L 83.358472 225.18584 
L 85.733042 225.915204 
L 88.107612 226.311051 
L 95.231322 226.983269 
L 97.605892 227.142112 
L 99.980462 227.1507 
L 111.853312 226.610837 
L 114.227882 226.237608 
L 116.602452 225.540729 
L 118.977022 225.011533 
L 121.351592 225.224169 
L 123.726162 225.838135 
L 126.100732 226.265366 
L 128.475302 226.274595 
L 130.849872 225.883526 
L 133.224442 225.337262 
L 135.599012 225.010384 
L 137.973582 225.025345 
L 140.348152 225.162433 
L 142.722722 225.035132 
L 145.097292 224.262144 
L 147.471862 222.989346 
L 149.846432 222.230228 
L 152.221002 222.727566 
L 154.595572 223.981566 
L 156.970142 225.094917 
L 159.344712 225.646076 
L 161.719282 225.676647 
L 166.468422 225.392191 
L 171.217562 225.393178 
L 178.341272 224.929031 
L 180.715842 225.221156 
L 183.090412 225.671975 
L 185.464982 225.959935 
L 187.839552 225.916518 
L 190.214122 225.475442 
L 192.588692 224.638343 
L 194.963262 223.652574 
L 197.337832 223.091594 
L 199.712402 223.303126 
L 206.836112 225.346462 
L 211.585252 226.109019 
L 213.959822 226.42204 
L 216.334392 226.604222 
L 218.708962 226.559817 
L 221.083532 226.276784 
L 223.458102 225.85631 
L 225.832672 225.60535 
L 228.207242 225.909843 
L 230.581812 226.562802 
L 232.956382 227.089793 
L 235.330952 227.369728 
L 237.705522 227.454634 
L 244.829232 227.483069 
L 249.578372 227.656524 
L 254.327512 227.575281 
L 261.451222 227.209752 
L 266.200362 227.451862 
L 270.949502 227.783659 
L 275.698642 227.918764 
L 280.447782 227.819012 
L 292.320632 227.00794 
L 297.069772 226.648542 
L 299.444342 226.612277 
L 304.193482 226.857585 
L 313.691762 227.395556 
L 320.815472 227.698612 
L 325.564612 227.664266 
L 332.688322 227.319787 
L 337.437462 227.107687 
L 342.186602 227.244769 
L 354.059452 227.849368 
L 368.306872 227.949189 
L 375.430581 228.170844 
L 392.052571 228.292086 
L 405.219531 228.27393 
L 405.219531 228.27393 
" clip-path="url(#pf40a3c2c9e)" style="fill: none; stroke: #808080; stroke-opacity: 0.5; stroke-width: 0.5; stroke-linecap: square"/>
   </g>
   <g id="line2d_38">
    <path d="M 52.489063 226.736732 
L 54.863632 226.430856 
L 57.238202 226.499244 
L 64.361912 227.717089 
L 69.111052 228.093332 
L 73.860192 228.134805 
L 76.234762 227.973039 
L 78.609332 227.579719 
L 80.983902 227.067729 
L 83.358472 226.99022 
L 88.107612 227.986166 
L 90.482182 228.275109 
L 95.231322 228.370468 
L 104.729602 228.059188 
L 111.853312 227.472164 
L 114.227882 227.525358 
L 118.977022 227.862534 
L 123.726162 227.901916 
L 128.475302 227.760312 
L 135.599012 227.84434 
L 140.348152 227.588077 
L 145.097292 227.03119 
L 149.846432 226.538686 
L 152.221002 226.49461 
L 159.344712 226.611865 
L 171.217562 225.551278 
L 173.592132 225.217738 
L 175.966702 225.210544 
L 180.715842 225.937166 
L 183.090412 226.096642 
L 185.464982 226.000569 
L 187.839552 225.661785 
L 192.588692 224.597519 
L 194.963262 224.329603 
L 197.337832 224.417617 
L 204.461542 225.236686 
L 211.585252 226.517322 
L 216.334392 226.945241 
L 221.083532 227.157509 
L 223.458102 227.112664 
L 225.832672 226.891705 
L 232.956382 225.752957 
L 235.330952 225.565384 
L 237.705522 225.584443 
L 240.080092 225.86642 
L 244.829232 226.794209 
L 247.203802 227.139762 
L 251.952942 227.460359 
L 256.702082 227.367734 
L 261.451222 227.052554 
L 268.574932 226.980516 
L 275.698642 227.017958 
L 282.822352 226.895953 
L 289.946062 227.070425 
L 292.320632 226.901667 
L 297.069772 226.353837 
L 299.444342 226.289399 
L 313.691762 227.004426 
L 318.440902 227.048612 
L 323.190042 226.769722 
L 325.564612 226.614907 
L 327.939182 226.637574 
L 337.437462 227.487849 
L 342.186602 227.51047 
L 351.684882 227.42293 
L 365.932302 227.984456 
L 375.430581 228.053008 
L 392.052571 228.423642 
L 405.219531 228.279984 
L 405.219531 228.279984 
" clip-path="url(#pf40a3c2c9e)" style="fill: none; stroke: #808080; stroke-opacity: 0.5; stroke-width: 0.5; stroke-linecap: square"/>
   </g>
   <g id="line2d_39">
    <path d="M 52.489063 225.840843 
L 57.238202 223.395682 
L 59.612772 223.09876 
L 64.361912 223.71264 
L 73.860192 224.202271 
L 76.234762 223.951751 
L 78.609332 223.150021 
L 83.358472 220.03115 
L 85.733042 219.432462 
L 90.482182 220.330301 
L 92.856752 220.313294 
L 95.231322 219.819262 
L 97.605892 219.455771 
L 99.980462 219.911957 
L 104.729602 222.476407 
L 107.104172 223.443672 
L 109.478742 223.933286 
L 111.853312 223.981559 
L 114.227882 223.567083 
L 116.602452 222.657237 
L 118.977022 221.538295 
L 121.351592 221.074488 
L 123.726162 221.702553 
L 126.100732 222.709057 
L 128.475302 223.432489 
L 130.849872 223.691952 
L 133.224442 223.497899 
L 135.599012 223.011523 
L 137.973582 222.639265 
L 140.348152 222.781434 
L 147.471862 224.553514 
L 149.846432 224.868994 
L 159.344712 225.458613 
L 164.093852 225.615226 
L 171.217562 225.461272 
L 175.966702 225.518692 
L 183.090412 225.245827 
L 185.464982 225.565025 
L 190.214122 226.522664 
L 192.588692 226.737489 
L 194.963262 226.67308 
L 197.337832 226.325388 
L 202.086972 225.275125 
L 204.461542 225.00793 
L 206.836112 224.989657 
L 211.585252 225.399013 
L 221.083532 226.645658 
L 228.207242 227.04696 
L 232.956382 227.032595 
L 235.330952 226.956244 
L 237.705522 227.02722 
L 242.454662 227.421118 
L 249.578372 227.526659 
L 256.702082 227.606651 
L 263.825792 227.390213 
L 280.447782 227.344103 
L 285.196922 227.415565 
L 297.069772 227.238619 
L 301.818912 226.740373 
L 304.193482 226.448749 
L 306.568052 226.37581 
L 308.942622 226.575675 
L 316.066332 227.499104 
L 318.440902 227.59922 
L 320.815472 227.521824 
L 327.939182 226.897483 
L 332.688322 227.001489 
L 339.812032 227.127423 
L 354.059452 227.467056 
L 370.681441 228.049329 
L 384.928861 228.095341 
L 399.176281 228.206564 
L 405.219531 228.194216 
L 405.219531 228.194216 
" clip-path="url(#pf40a3c2c9e)" style="fill: none; stroke: #808080; stroke-opacity: 0.5; stroke-width: 0.5; stroke-linecap: square"/>
   </g>
   <g id="line2d_40">
    <path d="M 52.489063 228.384863 
L 57.238202 228.247394 
L 61.987342 228.171607 
L 71.485622 227.612807 
L 73.860192 227.600857 
L 78.609332 227.901383 
L 83.358472 228.142334 
L 92.856752 228.321027 
L 97.605892 228.379269 
L 104.729602 228.186305 
L 109.478742 228.191568 
L 118.977022 227.833936 
L 137.973582 228.317746 
L 140.348152 228.106778 
L 142.722722 227.724349 
L 145.097292 227.140587 
L 147.471862 226.426676 
L 149.846432 225.976822 
L 152.221002 226.100332 
L 156.970142 226.78517 
L 159.344712 226.868952 
L 166.468422 226.511703 
L 173.592132 227.105464 
L 175.966702 227.01962 
L 180.715842 226.60082 
L 185.464982 226.648437 
L 194.963262 226.913464 
L 199.712402 226.69896 
L 204.461542 226.532266 
L 209.210682 226.761639 
L 218.708962 227.419746 
L 221.083532 227.405381 
L 225.832672 227.035112 
L 230.581812 226.584794 
L 232.956382 226.423023 
L 235.330952 226.378601 
L 237.705522 226.581052 
L 242.454662 227.382868 
L 244.829232 227.58588 
L 247.203802 227.595338 
L 259.076652 226.934469 
L 263.825792 226.467719 
L 266.200362 226.409581 
L 268.574932 226.491267 
L 270.949502 226.733269 
L 275.698642 227.483812 
L 278.073212 227.713202 
L 282.822352 227.78271 
L 292.320632 227.569699 
L 297.069772 227.504704 
L 301.818912 227.243483 
L 306.568052 226.926189 
L 308.942622 226.967134 
L 316.066332 227.470639 
L 320.815472 227.447617 
L 330.313752 227.203479 
L 337.437462 227.412369 
L 370.681441 228.191905 
L 380.179721 228.097628 
L 387.303431 227.965271 
L 396.801711 228.238381 
L 405.219531 228.217679 
L 405.219531 228.217679 
" clip-path="url(#pf40a3c2c9e)" style="fill: none; stroke: #808080; stroke-opacity: 0.5; stroke-width: 0.5; stroke-linecap: square"/>
   </g>
   <g id="line2d_41">
    <path d="M 52.489063 227.106888 
L 54.863632 226.957107 
L 57.238202 226.669777 
L 61.987342 225.797426 
L 64.361912 225.667868 
L 69.111052 226.219371 
L 71.485622 226.264396 
L 73.860192 226.034211 
L 76.234762 225.551249 
L 78.609332 224.815298 
L 80.983902 223.762574 
L 85.733042 220.943953 
L 88.107612 220.905153 
L 92.856752 223.947079 
L 95.231322 224.702127 
L 97.605892 224.873595 
L 107.104172 224.497047 
L 111.853312 223.568993 
L 114.227882 223.907183 
L 116.602452 224.763646 
L 118.977022 225.380216 
L 121.351592 225.547148 
L 123.726162 225.35804 
L 128.475302 224.650023 
L 130.849872 224.676541 
L 135.599012 225.399893 
L 137.973582 225.568499 
L 142.722722 225.363275 
L 145.097292 225.52313 
L 149.846432 226.511151 
L 152.221002 226.713379 
L 154.595572 226.595568 
L 156.970142 226.314138 
L 159.344712 226.195717 
L 161.719282 226.356153 
L 168.842992 227.31629 
L 171.217562 227.432193 
L 180.715842 227.072915 
L 183.090412 226.846255 
L 187.839552 226.150163 
L 190.214122 226.079755 
L 192.588692 226.28878 
L 197.337832 226.90667 
L 199.712402 227.108125 
L 202.086972 227.19153 
L 204.461542 227.112002 
L 206.836112 226.822523 
L 213.959822 225.420953 
L 216.334392 225.425184 
L 221.083532 225.797345 
L 228.207242 225.951315 
L 232.956382 226.575296 
L 237.705522 227.342274 
L 240.080092 227.60555 
L 244.829232 227.812276 
L 254.327512 227.774068 
L 263.825792 227.70258 
L 270.949502 228.047453 
L 294.695202 228.474389 
L 299.444342 228.370219 
L 304.193482 227.948673 
L 308.942622 227.350274 
L 311.317192 227.227033 
L 346.935742 227.644963 
L 354.059452 227.622257 
L 363.557732 227.937775 
L 375.430581 227.946265 
L 382.554291 228.106573 
L 403.925421 228.109003 
L 405.219531 228.113507 
L 405.219531 228.113507 
" clip-path="url(#pf40a3c2c9e)" style="fill: none; stroke: #808080; stroke-opacity: 0.5; stroke-width: 0.5; stroke-linecap: square"/>
   </g>
   <g id="line2d_42">
    <path d="M 52.489063 227.772131 
L 54.863632 227.893129 
L 57.238202 227.886079 
L 59.612772 227.684924 
L 64.361912 226.90194 
L 66.736482 226.830531 
L 71.485622 227.430744 
L 73.860192 227.446208 
L 76.234762 227.221475 
L 80.983902 226.489244 
L 83.358472 226.328742 
L 97.605892 226.379326 
L 99.980462 226.280963 
L 102.355032 226.339604 
L 107.104172 226.93376 
L 111.853312 227.613059 
L 114.227882 227.801475 
L 116.602452 227.833177 
L 118.977022 227.690022 
L 121.351592 227.35201 
L 126.100732 226.426362 
L 133.224442 225.39165 
L 135.599012 225.261871 
L 137.973582 225.383731 
L 140.348152 225.772887 
L 145.097292 226.902133 
L 147.471862 227.232663 
L 149.846432 227.288887 
L 152.221002 227.112446 
L 156.970142 226.425219 
L 159.344712 225.900741 
L 161.719282 224.984839 
L 164.093852 223.59102 
L 166.468422 222.342832 
L 168.842992 222.141656 
L 171.217562 222.805651 
L 175.966702 224.454337 
L 178.341272 225.026142 
L 180.715842 225.343296 
L 187.839552 225.671647 
L 192.588692 225.740727 
L 197.337832 225.839733 
L 204.461542 226.380243 
L 206.836112 226.260656 
L 209.210682 225.868848 
L 211.585252 225.306581 
L 213.959822 224.868779 
L 216.334392 224.868125 
L 223.458102 226.090034 
L 235.330952 227.153339 
L 240.080092 227.154304 
L 244.829232 227.05086 
L 254.327512 226.537121 
L 259.076652 226.777906 
L 263.825792 226.869525 
L 273.324072 227.409445 
L 280.447782 227.313804 
L 289.946062 227.068398 
L 301.818912 226.501475 
L 308.942622 226.910576 
L 316.066332 227.280285 
L 325.564612 227.32123 
L 337.437462 227.077381 
L 346.935742 227.360953 
L 354.059452 227.670884 
L 368.306872 227.810729 
L 384.928861 227.950281 
L 392.052571 228.274292 
L 396.801711 228.299899 
L 403.925421 228.298392 
L 405.219531 228.311024 
L 405.219531 228.311024 
" clip-path="url(#pf40a3c2c9e)" style="fill: none; stroke: #808080; stroke-opacity: 0.5; stroke-width: 0.5; stroke-linecap: square"/>
   </g>
   <g id="line2d_43">
    <path d="M 52.489063 227.204554 
L 61.987342 227.108841 
L 71.485622 227.345837 
L 73.860192 227.414754 
L 76.234762 227.350013 
L 78.609332 227.090311 
L 83.358472 226.207597 
L 85.733042 225.757997 
L 88.107612 225.502724 
L 90.482182 225.567529 
L 95.231322 226.322591 
L 97.605892 226.713538 
L 99.980462 226.9652 
L 104.729602 227.072349 
L 107.104172 227.122102 
L 116.602452 227.748521 
L 118.977022 227.605823 
L 126.100732 226.496533 
L 128.475302 226.522719 
L 133.224442 226.767422 
L 135.599012 226.693694 
L 140.348152 226.324577 
L 145.097292 226.426025 
L 147.471862 226.514783 
L 149.846432 226.473915 
L 152.221002 226.215094 
L 154.595572 225.689087 
L 156.970142 225.019315 
L 159.344712 224.585312 
L 161.719282 224.567115 
L 166.468422 224.876586 
L 171.217562 225.097289 
L 175.966702 225.579383 
L 185.464982 226.712079 
L 187.839552 226.794045 
L 190.214122 226.719275 
L 192.588692 226.479276 
L 197.337832 225.622966 
L 202.086972 224.763906 
L 204.461542 224.586382 
L 206.836112 224.765053 
L 211.585252 225.720048 
L 213.959822 225.975345 
L 221.083532 226.279782 
L 225.832672 226.670406 
L 235.330952 227.196738 
L 240.080092 227.504012 
L 256.702082 228.107487 
L 261.451222 227.814657 
L 266.200362 227.260106 
L 270.949502 227.079354 
L 278.073212 227.068186 
L 282.822352 227.230281 
L 285.196922 227.1604 
L 289.946062 226.739635 
L 292.320632 226.689641 
L 299.444342 227.119717 
L 304.193482 227.021144 
L 308.942622 226.777589 
L 313.691762 226.778553 
L 323.190042 227.027226 
L 327.939182 227.26296 
L 330.313752 227.221404 
L 337.437462 226.823019 
L 342.186602 227.185635 
L 346.935742 227.521725 
L 354.059452 227.613885 
L 361.183162 227.699253 
L 373.056011 228.083175 
L 382.554291 227.953365 
L 394.427141 228.308848 
L 405.219531 228.230009 
L 405.219531 228.230009 
" clip-path="url(#pf40a3c2c9e)" style="fill: none; stroke: #808080; stroke-opacity: 0.5; stroke-width: 0.5; stroke-linecap: square"/>
   </g>
   <g id="line2d_44">
    <path d="M 52.489063 217.746657 
L 54.863632 214.035398 
L 57.238202 212.641869 
L 59.612772 214.233022 
L 61.987342 216.256537 
L 64.361912 217.432961 
L 71.485622 219.457703 
L 73.860192 219.289728 
L 76.234762 217.808219 
L 80.983902 212.381466 
L 83.358472 210.982508 
L 85.733042 211.195216 
L 90.482182 213.409083 
L 92.856752 214.149899 
L 95.231322 214.421579 
L 97.605892 214.895768 
L 99.980462 216.31521 
L 102.355032 218.28272 
L 104.729602 219.899906 
L 107.104172 220.852766 
L 109.478742 221.326873 
L 111.853312 221.573954 
L 114.227882 221.648128 
L 121.351592 221.273565 
L 123.726162 221.601763 
L 128.475302 222.528062 
L 130.849872 222.867236 
L 137.973582 223.435599 
L 142.722722 224.216037 
L 154.595572 225.555038 
L 161.719282 225.971961 
L 168.842992 226.143631 
L 180.715842 226.054038 
L 185.464982 225.900725 
L 190.214122 225.524339 
L 199.712402 224.444614 
L 202.086972 224.397426 
L 204.461542 224.653111 
L 211.585252 226.239566 
L 213.959822 226.405553 
L 216.334392 226.30257 
L 218.708962 225.963952 
L 221.083532 225.509465 
L 223.458102 225.24162 
L 225.832672 225.438112 
L 230.581812 226.275342 
L 237.705522 227.074952 
L 240.080092 227.364726 
L 242.454662 227.527061 
L 247.203802 227.556574 
L 251.952942 227.557922 
L 259.076652 227.841517 
L 263.825792 227.764235 
L 278.073212 227.235048 
L 287.571492 227.121056 
L 289.946062 226.855232 
L 294.695202 226.044496 
L 297.069772 225.780283 
L 299.444342 225.722795 
L 311.317192 226.244744 
L 316.066332 226.703871 
L 318.440902 226.962018 
L 320.815472 227.0914 
L 323.190042 227.02323 
L 327.939182 226.650378 
L 330.313752 226.706709 
L 337.437462 227.300162 
L 339.812032 227.276592 
L 344.561172 226.991251 
L 346.935742 226.974405 
L 351.684882 227.349281 
L 356.434022 227.743511 
L 361.183162 227.836213 
L 370.681441 227.534704 
L 384.928861 227.808415 
L 392.052571 227.871851 
L 399.176281 228.122991 
L 405.219531 228.096334 
L 405.219531 228.096334 
" clip-path="url(#pf40a3c2c9e)" style="fill: none; stroke: #808080; stroke-opacity: 0.5; stroke-width: 0.5; stroke-linecap: square"/>
   </g>
   <g id="line2d_45">
    <path d="M 52.489063 227.288748 
L 57.238202 227.497354 
L 64.361912 227.738916 
L 66.736482 227.531917 
L 69.111052 227.076907 
L 71.485622 226.353142 
L 73.860192 225.467111 
L 76.234762 224.807008 
L 78.609332 224.786351 
L 80.983902 225.373705 
L 83.358472 226.141556 
L 85.733042 226.748718 
L 88.107612 227.118153 
L 90.482182 227.30037 
L 97.605892 227.39515 
L 104.729602 227.491305 
L 114.227882 227.270042 
L 118.977022 227.500386 
L 123.726162 227.278446 
L 126.100732 227.179116 
L 128.475302 227.300712 
L 130.849872 227.539433 
L 133.224442 227.643409 
L 135.599012 227.511457 
L 142.722722 226.665509 
L 145.097292 226.80194 
L 149.846432 227.469758 
L 152.221002 227.580334 
L 156.970142 227.327619 
L 161.719282 227.143923 
L 168.842992 227.181185 
L 178.341272 226.865029 
L 183.090412 226.495603 
L 187.839552 226.503387 
L 192.588692 226.526058 
L 197.337832 226.270525 
L 206.836112 225.571349 
L 209.210682 225.541381 
L 213.959822 225.789334 
L 218.708962 225.946206 
L 221.083532 225.959736 
L 223.458102 226.147087 
L 230.581812 227.325487 
L 232.956382 227.520403 
L 237.705522 227.519549 
L 244.829232 227.155771 
L 251.952942 226.699395 
L 254.327512 226.766367 
L 266.200362 227.633973 
L 270.949502 227.77081 
L 278.073212 227.725327 
L 292.320632 227.285836 
L 299.444342 226.69162 
L 306.568052 226.505072 
L 311.317192 226.582353 
L 323.190042 227.279087 
L 335.062892 227.385148 
L 344.561172 227.403655 
L 368.306872 227.908425 
L 375.430581 228.076504 
L 380.179721 228.193067 
L 394.427141 228.166778 
L 401.550851 228.270879 
L 405.219531 228.260732 
L 405.219531 228.260732 
" clip-path="url(#pf40a3c2c9e)" style="fill: none; stroke: #808080; stroke-opacity: 0.5; stroke-width: 0.5; stroke-linecap: square"/>
   </g>
   <g id="line2d_46">
    <path d="M 52.489063 224.453521 
L 54.863632 225.723744 
L 57.238202 226.659738 
L 59.612772 227.117575 
L 61.987342 227.139157 
L 64.361912 226.82853 
L 69.111052 225.828779 
L 71.485622 225.578017 
L 83.358472 225.58938 
L 88.107612 225.384596 
L 92.856752 225.123335 
L 97.605892 224.927841 
L 102.355032 224.698571 
L 114.227882 225.240842 
L 116.602452 225.515593 
L 121.351592 226.289412 
L 123.726162 226.54974 
L 126.100732 226.649873 
L 135.599012 226.537837 
L 149.846432 227.266791 
L 154.595572 227.099665 
L 159.344712 226.886554 
L 183.090412 226.782365 
L 194.963262 226.470852 
L 199.712402 226.089687 
L 204.461542 225.61597 
L 209.210682 225.449045 
L 221.083532 225.307643 
L 237.705522 226.27714 
L 242.454662 226.614998 
L 254.327512 227.778854 
L 259.076652 227.89486 
L 266.200362 227.973204 
L 273.324072 228.30124 
L 275.698642 228.271392 
L 280.447782 227.906311 
L 282.822352 227.697832 
L 287.571492 227.596832 
L 292.320632 227.528523 
L 297.069772 227.102219 
L 301.818912 226.292392 
L 306.568052 225.44983 
L 308.942622 225.106696 
L 311.317192 224.876019 
L 313.691762 224.949699 
L 316.066332 225.486597 
L 320.815472 227.023153 
L 323.190042 227.492864 
L 325.564612 227.722955 
L 330.313752 227.740098 
L 335.062892 227.447166 
L 342.186602 226.675221 
L 344.561172 226.654173 
L 349.310312 227.107137 
L 354.059452 227.521943 
L 358.808592 227.573852 
L 363.557732 227.615429 
L 370.681441 228.055611 
L 375.430581 228.104408 
L 382.554291 228.033919 
L 392.052571 228.319269 
L 405.219531 228.333955 
L 405.219531 228.333955 
" clip-path="url(#pf40a3c2c9e)" style="fill: none; stroke: #808080; stroke-opacity: 0.5; stroke-width: 0.5; stroke-linecap: square"/>
   </g>
   <g id="line2d_47">
    <path d="M 52.489063 227.288053 
L 54.863632 226.922483 
L 59.612772 225.708436 
L 61.987342 225.600581 
L 69.111052 226.68464 
L 71.485622 226.728302 
L 73.860192 226.564767 
L 80.983902 225.728565 
L 85.733042 225.478648 
L 95.231322 225.501531 
L 97.605892 225.684556 
L 99.980462 226.014863 
L 102.355032 226.196497 
L 116.602452 226.051228 
L 118.977022 225.782433 
L 121.351592 225.397422 
L 126.100732 224.288568 
L 128.475302 223.765798 
L 133.224442 223.278278 
L 135.599012 223.141095 
L 137.973582 223.300298 
L 140.348152 223.879143 
L 142.722722 224.609616 
L 145.097292 225.181049 
L 147.471862 225.441921 
L 149.846432 225.320855 
L 154.595572 224.204776 
L 156.970142 224.03656 
L 159.344712 224.274945 
L 161.719282 224.340408 
L 164.093852 223.906484 
L 166.468422 223.080487 
L 168.842992 222.432892 
L 171.217562 222.410406 
L 175.966702 223.227022 
L 183.090412 224.947411 
L 185.464982 225.284786 
L 202.086972 226.342281 
L 209.210682 225.945375 
L 211.585252 226.033168 
L 221.083532 227.088299 
L 223.458102 227.121553 
L 230.581812 226.937408 
L 237.705522 227.54074 
L 247.203802 227.801323 
L 256.702082 227.843122 
L 275.698642 227.846933 
L 282.822352 227.842726 
L 297.069772 227.431392 
L 304.193482 227.070833 
L 311.317192 227.227601 
L 320.815472 227.461405 
L 337.437462 227.425185 
L 344.561172 227.146304 
L 349.310312 227.272067 
L 358.808592 227.91245 
L 363.557732 227.973151 
L 380.179721 227.965861 
L 389.678001 228.182487 
L 403.925421 228.214219 
L 405.219531 228.205222 
L 405.219531 228.205222 
" clip-path="url(#pf40a3c2c9e)" style="fill: none; stroke: #808080; stroke-opacity: 0.5; stroke-width: 0.5; stroke-linecap: square"/>
   </g>
   <g id="line2d_48">
    <path d="M 52.489063 159.285132 
L 54.863632 164.656073 
L 57.238202 168.957984 
L 59.612772 168.710906 
L 61.987342 161.317595 
L 64.361912 142.966876 
L 66.736482 107.646185 
L 69.111052 55.012428 
L 71.485622 17.736876 
L 73.860192 34.421934 
L 76.234762 73.299392 
L 78.609332 100.547191 
L 80.983902 111.306787 
L 83.358472 108.792459 
L 85.733042 99.62605 
L 88.107612 97.935998 
L 90.482182 113.514961 
L 92.856752 135.294415 
L 95.231322 150.926116 
L 97.605892 158.131998 
L 99.980462 159.00427 
L 102.355032 157.933917 
L 104.729602 161.100939 
L 107.104172 169.989604 
L 109.478742 179.554914 
L 111.853312 186.271662 
L 114.227882 190.210012 
L 118.977022 195.675947 
L 123.726162 202.656324 
L 126.100732 205.562658 
L 128.475302 207.482542 
L 130.849872 208.348151 
L 133.224442 208.270247 
L 135.599012 207.633267 
L 137.973582 207.249099 
L 140.348152 207.955279 
L 142.722722 209.673019 
L 145.097292 211.560766 
L 147.471862 213.048999 
L 149.846432 214.083269 
L 152.221002 214.766745 
L 154.595572 215.124015 
L 159.344712 215.310344 
L 161.719282 216.016887 
L 166.468422 218.850406 
L 168.842992 219.805135 
L 171.217562 220.198983 
L 173.592132 220.33481 
L 175.966702 220.669339 
L 185.464982 223.334624 
L 190.214122 224.556843 
L 194.963262 225.86344 
L 197.337832 226.172162 
L 199.712402 226.116949 
L 202.086972 225.744385 
L 209.210682 223.960308 
L 211.585252 223.880596 
L 213.959822 224.333405 
L 216.334392 224.982232 
L 218.708962 225.504262 
L 221.083532 225.785952 
L 230.581812 226.099743 
L 240.080092 227.190044 
L 244.829232 227.406161 
L 251.952942 227.303812 
L 256.702082 227.720475 
L 261.451222 228.115629 
L 266.200362 228.188572 
L 278.073212 227.801431 
L 282.822352 227.400338 
L 287.571492 226.865608 
L 292.320632 226.478032 
L 294.695202 226.450621 
L 299.444342 226.893889 
L 304.193482 227.317002 
L 311.317192 227.563432 
L 316.066332 227.599769 
L 320.815472 227.382555 
L 327.939182 226.92005 
L 332.688322 227.080991 
L 337.437462 227.335913 
L 346.935742 227.557073 
L 356.434022 227.677339 
L 363.557732 227.923826 
L 370.681441 227.907821 
L 382.554291 227.650698 
L 401.550851 228.017641 
L 405.219531 227.995283 
L 405.219531 227.995283 
" clip-path="url(#pf40a3c2c9e)" style="fill: none; stroke: #808080; stroke-opacity: 0.5; stroke-width: 0.5; stroke-linecap: square"/>
   </g>
   <g id="line2d_49">
    <path d="M 52.489063 224.982788 
L 57.238202 223.635793 
L 59.612772 223.18985 
L 61.987342 222.929596 
L 64.361912 222.425639 
L 66.736482 221.468779 
L 69.111052 219.997477 
L 71.485622 217.800965 
L 73.860192 214.484101 
L 76.234762 210.142383 
L 78.609332 207.048001 
L 80.983902 208.002366 
L 88.107612 218.629058 
L 90.482182 221.662365 
L 92.856752 224.090531 
L 95.231322 225.634481 
L 97.605892 226.325908 
L 99.980462 226.305699 
L 102.355032 225.670776 
L 104.729602 224.489955 
L 109.478742 221.431628 
L 111.853312 220.857224 
L 116.602452 221.368739 
L 121.351592 220.864252 
L 123.726162 221.206658 
L 126.100732 222.44036 
L 128.475302 224.061045 
L 130.849872 225.273118 
L 133.224442 225.851722 
L 135.599012 225.97969 
L 142.722722 225.805344 
L 145.097292 225.776454 
L 147.471862 225.470834 
L 152.221002 224.399734 
L 154.595572 224.442552 
L 159.344712 225.451729 
L 161.719282 225.694599 
L 164.093852 225.639614 
L 166.468422 225.379474 
L 168.842992 224.944004 
L 173.592132 223.689022 
L 175.966702 223.361772 
L 178.341272 223.467677 
L 183.090412 224.17072 
L 187.839552 224.989775 
L 192.588692 225.488904 
L 199.712402 225.830862 
L 206.836112 226.997373 
L 209.210682 227.137244 
L 213.959822 227.152717 
L 216.334392 227.389626 
L 218.708962 227.738312 
L 221.083532 227.967057 
L 223.458102 228.003745 
L 228.207242 227.662484 
L 230.581812 227.504462 
L 242.454662 227.188424 
L 251.952942 226.657403 
L 254.327512 226.895274 
L 259.076652 227.577839 
L 263.825792 227.844488 
L 268.574932 227.834648 
L 275.698642 227.565789 
L 282.822352 227.30984 
L 289.946062 227.264125 
L 316.066332 227.580961 
L 325.564612 227.346306 
L 344.561172 227.931084 
L 361.183162 227.880439 
L 380.179721 228.030403 
L 387.303431 227.985181 
L 396.801711 228.152135 
L 405.219531 228.020612 
L 405.219531 228.020612 
" clip-path="url(#pf40a3c2c9e)" style="fill: none; stroke: #808080; stroke-opacity: 0.5; stroke-width: 0.5; stroke-linecap: square"/>
   </g>
   <g id="line2d_50">
    <path d="M 52.489063 222.904465 
L 54.863632 220.664828 
L 57.238202 219.138906 
L 59.612772 219.257371 
L 61.987342 219.888235 
L 64.361912 219.860683 
L 66.736482 218.832825 
L 69.111052 217.188175 
L 71.485622 216.08748 
L 73.860192 216.049732 
L 76.234762 216.266532 
L 80.983902 215.80797 
L 83.358472 216.634282 
L 85.733042 218.38833 
L 88.107612 219.767435 
L 90.482182 220.15352 
L 92.856752 219.535695 
L 97.605892 216.836016 
L 99.980462 215.845281 
L 104.729602 214.271932 
L 107.104172 213.736704 
L 109.478742 214.012876 
L 111.853312 215.164415 
L 118.977022 219.923354 
L 121.351592 221.178599 
L 123.726162 222.144015 
L 126.100732 222.823705 
L 128.475302 223.274803 
L 133.224442 223.789661 
L 135.599012 223.905272 
L 137.973582 223.909447 
L 140.348152 223.765661 
L 142.722722 223.379961 
L 145.097292 222.584701 
L 147.471862 221.229549 
L 149.846432 219.601146 
L 152.221002 218.929999 
L 154.595572 219.885185 
L 156.970142 221.364305 
L 159.344712 222.562754 
L 161.719282 223.432307 
L 164.093852 224.045607 
L 166.468422 224.399831 
L 168.842992 224.472066 
L 171.217562 224.261824 
L 173.592132 223.797817 
L 178.341272 222.55399 
L 180.715842 222.261598 
L 183.090412 222.444305 
L 187.839552 223.331661 
L 190.214122 223.531313 
L 197.337832 223.6726 
L 202.086972 224.103256 
L 204.461542 224.411188 
L 209.210682 225.377976 
L 213.959822 226.338331 
L 216.334392 226.621687 
L 218.708962 226.741687 
L 225.832672 226.599216 
L 230.581812 227.216353 
L 235.330952 227.731731 
L 240.080092 227.868608 
L 249.578372 227.600311 
L 254.327512 227.342273 
L 261.451222 226.771324 
L 266.200362 226.666453 
L 278.073212 226.681637 
L 292.320632 227.328074 
L 297.069772 227.614408 
L 301.818912 227.617588 
L 318.440902 227.07313 
L 323.190042 227.115509 
L 330.313752 227.389038 
L 335.062892 227.473097 
L 342.186602 227.887531 
L 354.059452 228.046826 
L 358.808592 228.267734 
L 365.932302 228.29718 
L 380.179721 228.161078 
L 387.303431 227.883408 
L 392.052571 227.943563 
L 399.176281 228.117629 
L 405.219531 228.101042 
L 405.219531 228.101042 
" clip-path="url(#pf40a3c2c9e)" style="fill: none; stroke: #808080; stroke-opacity: 0.5; stroke-width: 0.5; stroke-linecap: square"/>
   </g>
   <g id="line2d_51">
    <path d="M 52.489063 221.579444 
L 54.863632 221.240709 
L 57.238202 221.314031 
L 59.612772 221.556944 
L 61.987342 221.957629 
L 66.736482 223.214759 
L 69.111052 223.641776 
L 73.860192 224.055486 
L 78.609332 224.72309 
L 80.983902 224.538032 
L 83.358472 223.612007 
L 85.733042 221.762613 
L 88.107612 219.293258 
L 90.482182 217.433011 
L 92.856752 217.410953 
L 95.231322 219.084418 
L 97.605892 221.242709 
L 99.980462 222.84405 
L 102.355032 223.606589 
L 104.729602 223.803236 
L 107.104172 223.881551 
L 109.478742 224.123179 
L 114.227882 224.745599 
L 116.602452 224.771295 
L 118.977022 224.672096 
L 121.351592 224.80425 
L 126.100732 225.819746 
L 128.475302 226.099525 
L 130.849872 226.036177 
L 133.224442 225.661731 
L 135.599012 225.1577 
L 137.973582 224.884236 
L 140.348152 225.069263 
L 145.097292 225.829839 
L 147.471862 225.940017 
L 154.595572 225.691829 
L 156.970142 225.542572 
L 159.344712 225.201786 
L 161.719282 224.648988 
L 171.217562 221.749118 
L 175.966702 219.83242 
L 178.341272 219.281283 
L 180.715842 219.552412 
L 183.090412 220.532625 
L 185.464982 221.797321 
L 187.839552 222.921839 
L 190.214122 223.648741 
L 192.588692 223.950173 
L 197.337832 223.848711 
L 199.712402 223.834179 
L 204.461542 224.11912 
L 206.836112 224.330641 
L 209.210682 224.6708 
L 213.959822 225.612116 
L 216.334392 225.936887 
L 218.708962 226.089443 
L 223.458102 226.040058 
L 230.581812 225.815575 
L 237.705522 225.895763 
L 240.080092 225.893261 
L 242.454662 226.04862 
L 247.203802 226.691484 
L 249.578372 226.880668 
L 251.952942 226.913007 
L 256.702082 226.648566 
L 261.451222 226.225714 
L 263.825792 226.183002 
L 280.447782 227.387274 
L 282.822352 227.338346 
L 287.571492 226.807771 
L 289.946062 226.550353 
L 292.320632 226.476806 
L 297.069772 226.515284 
L 304.193482 226.18139 
L 306.568052 226.290236 
L 311.317192 227.008498 
L 313.691762 227.360742 
L 316.066332 227.570267 
L 318.440902 227.631306 
L 323.190042 227.450684 
L 332.688322 226.819995 
L 335.062892 226.828249 
L 337.437462 227.010168 
L 342.186602 227.653047 
L 344.561172 227.835516 
L 349.310312 227.78638 
L 354.059452 227.66533 
L 358.808592 227.791499 
L 365.932302 228.089824 
L 370.681441 227.982295 
L 377.805151 227.699749 
L 389.678001 227.700319 
L 401.550851 228.110634 
L 405.219531 228.069974 
L 405.219531 228.069974 
" clip-path="url(#pf40a3c2c9e)" style="fill: none; stroke: #808080; stroke-opacity: 0.5; stroke-width: 0.5; stroke-linecap: square"/>
   </g>
   <g id="line2d_52">
    <path d="M 52.489063 210.389326 
L 54.863632 210.699037 
L 57.238202 212.867482 
L 59.612772 217.20248 
L 61.987342 220.686003 
L 64.361912 222.214244 
L 66.736482 222.513365 
L 69.111052 222.215503 
L 71.485622 221.595615 
L 73.860192 220.692053 
L 76.234762 219.369088 
L 78.609332 217.39555 
L 80.983902 214.76944 
L 83.358472 212.332032 
L 85.733042 211.215381 
L 88.107612 211.199071 
L 90.482182 211.752856 
L 92.856752 212.948964 
L 97.605892 216.674973 
L 99.980462 217.802786 
L 102.355032 217.859342 
L 104.729602 217.657728 
L 107.104172 218.812471 
L 109.478742 221.515994 
L 111.853312 223.900893 
L 114.227882 225.156321 
L 116.602452 225.603979 
L 118.977022 225.610094 
L 126.100732 224.962892 
L 128.475302 224.952599 
L 135.599012 225.334432 
L 140.348152 225.439659 
L 145.097292 226.083895 
L 149.846432 226.676479 
L 154.595572 226.901349 
L 159.344712 226.882598 
L 161.719282 226.69581 
L 166.468422 226.039381 
L 168.842992 225.869073 
L 175.966702 225.966962 
L 183.090412 225.669094 
L 185.464982 225.852554 
L 190.214122 226.495754 
L 192.588692 226.661115 
L 197.337832 226.587063 
L 206.836112 226.177991 
L 213.959822 225.58621 
L 216.334392 225.650907 
L 218.708962 226.029283 
L 223.458102 227.017875 
L 225.832672 227.254641 
L 228.207242 227.303593 
L 235.330952 227.162257 
L 247.203802 227.631517 
L 251.952942 227.362917 
L 256.702082 227.011889 
L 259.076652 227.090693 
L 266.200362 227.834113 
L 273.324072 228.070875 
L 280.447782 228.109931 
L 287.571492 228.004698 
L 294.695202 228.159355 
L 299.444342 227.954336 
L 304.193482 227.628865 
L 308.942622 227.600062 
L 318.440902 227.804631 
L 325.564612 228.044358 
L 332.688322 227.95092 
L 342.186602 227.664338 
L 349.310312 227.784452 
L 358.808592 227.732124 
L 384.928861 227.974062 
L 405.219531 228.065851 
L 405.219531 228.065851 
" clip-path="url(#pf40a3c2c9e)" style="fill: none; stroke: #808080; stroke-opacity: 0.5; stroke-width: 0.5; stroke-linecap: square"/>
   </g>
   <g id="line2d_53">
    <path d="M 52.489063 224.6539 
L 57.238202 224.207167 
L 64.361912 224.046694 
L 66.736482 223.622244 
L 71.485622 222.549448 
L 78.609332 221.378821 
L 80.983902 220.756063 
L 83.358472 220.356636 
L 85.733042 220.636008 
L 90.482182 221.994437 
L 92.856752 222.400565 
L 95.231322 222.441871 
L 99.980462 221.637267 
L 102.355032 221.924334 
L 104.729602 223.192117 
L 107.104172 224.617121 
L 109.478742 225.517381 
L 111.853312 225.81911 
L 114.227882 225.641951 
L 116.602452 225.060911 
L 118.977022 224.261614 
L 121.351592 224.131403 
L 123.726162 225.419526 
L 126.100732 226.876822 
L 128.475302 227.66539 
L 130.849872 227.887826 
L 133.224442 227.744703 
L 137.973582 227.106921 
L 140.348152 226.933461 
L 145.097292 226.88246 
L 147.471862 226.991686 
L 152.221002 227.494866 
L 154.595572 227.525864 
L 159.344712 227.276508 
L 161.719282 227.262737 
L 171.217562 227.742811 
L 187.839552 226.828308 
L 190.214122 226.574606 
L 192.588692 226.529204 
L 197.337832 226.712055 
L 206.836112 226.518556 
L 211.585252 227.040317 
L 213.959822 227.138249 
L 221.083532 227.130039 
L 235.330952 227.581844 
L 240.080092 227.587116 
L 244.829232 227.152063 
L 247.203802 226.895358 
L 249.578372 226.795319 
L 251.952942 226.919997 
L 259.076652 227.649666 
L 266.200362 227.810686 
L 275.698642 228.023598 
L 280.447782 228.14634 
L 285.196922 228.058212 
L 297.069772 227.60101 
L 304.193482 227.908464 
L 308.942622 227.900634 
L 318.440902 227.594206 
L 323.190042 227.776488 
L 327.939182 228.000372 
L 332.688322 227.942321 
L 337.437462 227.720685 
L 342.186602 227.886373 
L 346.935742 227.954143 
L 356.434022 227.594318 
L 363.557732 227.504652 
L 368.306872 227.379516 
L 375.430581 227.555315 
L 401.550851 228.095649 
L 405.219531 228.014692 
L 405.219531 228.014692 
" clip-path="url(#pf40a3c2c9e)" style="fill: none; stroke: #808080; stroke-opacity: 0.5; stroke-width: 0.5; stroke-linecap: square"/>
   </g>
   <g id="line2d_54">
    <path d="M 52.489063 220.56508 
L 54.863632 221.526638 
L 57.238202 221.653495 
L 59.612772 221.12891 
L 61.987342 220.395833 
L 66.736482 219.293426 
L 69.111052 218.791527 
L 71.485622 218.642291 
L 73.860192 219.27133 
L 76.234762 220.626428 
L 78.609332 222.148539 
L 80.983902 223.319357 
L 83.358472 223.93363 
L 85.733042 224.01135 
L 90.482182 223.626927 
L 95.231322 223.866388 
L 97.605892 223.415122 
L 99.980462 222.191348 
L 104.729602 218.261684 
L 107.104172 217.87689 
L 109.478742 220.334978 
L 111.853312 223.480587 
L 114.227882 225.530999 
L 116.602452 226.473647 
L 118.977022 226.580414 
L 121.351592 226.031646 
L 123.726162 225.175277 
L 126.100732 224.584642 
L 130.849872 224.325404 
L 135.599012 223.517376 
L 137.973582 223.56974 
L 140.348152 224.433416 
L 142.722722 225.636106 
L 145.097292 226.596383 
L 147.471862 227.136909 
L 149.846432 227.337327 
L 152.221002 227.298533 
L 154.595572 227.055091 
L 159.344712 226.229664 
L 161.719282 226.333577 
L 166.468422 227.457532 
L 168.842992 227.796588 
L 171.217562 227.919207 
L 173.592132 227.851552 
L 178.341272 227.428006 
L 180.715842 227.35639 
L 185.464982 227.653189 
L 190.214122 227.955859 
L 194.963262 227.978232 
L 204.461542 227.593359 
L 211.585252 227.66152 
L 230.581812 227.196596 
L 232.956382 227.29969 
L 242.454662 228.134911 
L 244.829232 228.057295 
L 249.578372 227.544982 
L 251.952942 227.263684 
L 254.327512 227.12539 
L 268.574932 227.467243 
L 273.324072 227.842932 
L 278.073212 227.940336 
L 287.571492 227.951234 
L 299.444342 228.106582 
L 311.317192 227.798962 
L 325.564612 228.001472 
L 332.688322 227.856133 
L 346.935742 227.671961 
L 351.684882 227.7401 
L 361.183162 228.071654 
L 368.306872 227.902801 
L 387.303431 227.547194 
L 405.219531 228.044457 
L 405.219531 228.044457 
" clip-path="url(#pf40a3c2c9e)" style="fill: none; stroke: #808080; stroke-opacity: 0.5; stroke-width: 0.5; stroke-linecap: square"/>
   </g>
   <g id="line2d_55">
    <path d="M 52.489063 226.093827 
L 57.238202 225.720986 
L 78.609332 224.986988 
L 83.358472 224.609133 
L 85.733042 224.518544 
L 88.107612 224.579555 
L 97.605892 225.212439 
L 104.729602 225.36954 
L 114.227882 226.108877 
L 118.977022 226.060169 
L 123.726162 226.017445 
L 133.224442 226.19406 
L 142.722722 226.028752 
L 154.595572 226.062556 
L 164.093852 226.039291 
L 171.217562 225.972989 
L 178.341272 225.540372 
L 183.090412 225.588164 
L 190.214122 225.774888 
L 204.461542 225.817743 
L 221.083532 226.630026 
L 256.702082 227.404552 
L 278.073212 227.603257 
L 294.695202 227.250831 
L 306.568052 226.948698 
L 311.317192 227.059893 
L 318.440902 227.318608 
L 325.564612 227.319938 
L 335.062892 227.309987 
L 351.684882 227.623324 
L 370.681441 227.961406 
L 392.052571 228.174168 
L 399.176281 228.208559 
L 405.219531 228.168636 
L 405.219531 228.168636 
" clip-path="url(#pf40a3c2c9e)" style="fill: none; stroke: #000000; stroke-width: 1.5; stroke-linecap: square"/>
   </g>
   <g id="line2d_56">
    <defs>
     <path id="m7d3a778dfd" d="M 0 2.5 
C 0.663008 2.5 1.29895 2.236584 1.767767 1.767767 
C 2.236584 1.29895 2.5 0.663008 2.5 0 
C 2.5 -0.663008 2.236584 -1.29895 1.767767 -1.767767 
C 1.29895 -2.236584 0.663008 -2.5 0 -2.5 
C -0.663008 -2.5 -1.29895 -2.236584 -1.767767 -1.767767 
C -2.236584 -1.29895 -2.5 -0.663008 -2.5 0 
C -2.5 0.663008 -2.236584 1.29895 -1.767767 1.767767 
C -1.29895 2.236584 -0.663008 2.5 0 2.5 
z
" style="stroke: #ffffff; stroke-width: 0.5"/>
    </defs>
    <g clip-path="url(#pf40a3c2c9e)">
     <use xlink:href="#m7d3a778dfd" x="85.733042" y="224.518544" style="fill: #ff0000; stroke: #ffffff; stroke-width: 0.5"/>
    </g>
   </g>
   <g id="patch_3">
    <path d="M 52.489063 228.96 
L 52.489063 7.2 
" style="fill: none; stroke: #000000; stroke-width: 0.8; stroke-linejoin: miter; stroke-linecap: square"/>
   </g>
   <g id="patch_4">
    <path d="M 52.489063 228.96 
L 387.289062 228.96 
" style="fill: none; stroke: #000000; stroke-width: 0.8; stroke-linejoin: miter; stroke-linecap: square"/>
   </g>
  </g>
 </g>
 <defs>
  <clipPath id="pf40a3c2c9e">
   <rect x="52.489063" y="7.2" width="334.8" height="221.76"/>
  </clipPath>
 </defs>
</svg>
