<?xml version="1.0" encoding="utf-8" standalone="no"?>
<!DOCTYPE svg PUBLIC "-//W3C//DTD SVG 1.1//EN"
  "http://www.w3.org/Graphics/SVG/1.1/DTD/svg11.dtd">
<svg xmlns:xlink="http://www.w3.org/1999/xlink" width="398.658594pt" height="265.689687pt" viewBox="0 0 398.658594 265.689687" xmlns="http://www.w3.org/2000/svg" version="1.1">
 <metadata>
  <rdf:RDF xmlns:dc="http://purl.org/dc/elements/1.1/" xmlns:cc="http://creativecommons.org/ns#" xmlns:rdf="http://www.w3.org/1999/02/22-rdf-syntax-ns#">
   <cc:Work>
    <dc:type rdf:resource="http://purl.org/dc/dcmitype/StillImage"/>
    <dc:date>2024-09-14T12:48:53.057367</dc:date>
    <dc:format>image/svg+xml</dc:format>
    <dc:creator>
     <cc:Agent>
      <dc:title>Matplotlib v3.9.2, https://matplotlib.org/</dc:title>
     </cc:Agent>
    </dc:creator>
   </cc:Work>
  </rdf:RDF>
 </metadata>
 <defs>
  <style type="text/css">*{stroke-linejoin: round; stroke-linecap: butt}</style>
 </defs>
 <g id="figure_1">
  <g id="patch_1">
   <path d="M 0 265.689687 
L 398.658594 265.689687 
L 398.658594 0 
L 0 0 
z
" style="fill: #ffffff"/>
  </g>
  <g id="axes_1">
   <g id="patch_2">
    <path d="M 46.928125 228.96 
L 381.728125 228.96 
L 381.728125 7.2 
L 46.928125 7.2 
z
" style="fill: #ffffff"/>
   </g>
   <g id="PolyCollection_1">
    <path d="M 46.928125 186.058347 
L 46.928125 223.882619 
L 49.302695 223.936562 
L 51.677265 223.954389 
L 54.051835 223.892116 
L 56.426405 223.637812 
L 58.800975 223.000963 
L 61.175545 221.843029 
L 63.550115 220.639286 
L 65.924685 220.302996 
L 68.299255 221.037115 
L 70.673825 222.126921 
L 73.048395 222.979492 
L 75.422965 223.473245 
L 77.797535 223.668634 
L 80.172105 223.594352 
L 82.546675 223.264012 
L 84.921245 222.783072 
L 87.295815 222.396457 
L 89.670385 222.303194 
L 92.044955 222.427917 
L 94.419525 222.50492 
L 96.794095 222.34915 
L 99.168665 222.05884 
L 101.543235 221.968256 
L 103.917805 222.14342 
L 106.292375 222.233823 
L 108.666945 222.107705 
L 111.041515 221.989375 
L 113.416085 222.175106 
L 115.790655 222.709804 
L 118.165225 223.278785 
L 120.539795 223.606823 
L 122.914365 223.695863 
L 125.288935 223.746888 
L 127.663505 223.788363 
L 130.038075 223.587244 
L 132.412645 223.111343 
L 134.787215 222.642269 
L 137.161785 222.435723 
L 139.536355 222.496879 
L 141.910925 222.733912 
L 144.285495 223.04253 
L 146.660065 223.369843 
L 149.034635 223.650153 
L 151.409205 223.851684 
L 153.783775 224.022738 
L 156.158345 224.200618 
L 158.532915 224.359412 
L 160.907485 224.4788 
L 163.282055 224.602055 
L 165.656625 224.721333 
L 168.031195 224.77583 
L 170.405765 224.779613 
L 172.780335 224.821383 
L 175.154905 224.911992 
L 177.529475 224.904938 
L 179.904045 224.683899 
L 182.278615 224.36531 
L 184.653185 224.248556 
L 187.027755 224.324994 
L 189.402325 224.429462 
L 191.776895 224.472052 
L 194.151465 224.53635 
L 196.526035 224.767954 
L 198.900605 225.050034 
L 201.275175 225.228041 
L 203.649745 225.235586 
L 206.024314 225.105864 
L 208.398884 224.929458 
L 210.773454 224.721894 
L 213.148024 224.414301 
L 215.522594 224.015028 
L 217.897164 223.667446 
L 220.271734 223.526306 
L 222.646304 223.549359 
L 225.020874 223.539779 
L 227.395444 223.364002 
L 229.770014 223.058146 
L 232.144584 222.76083 
L 234.519154 222.616918 
L 236.893724 222.64859 
L 239.268294 222.662973 
L 241.642864 222.536902 
L 244.017434 222.330019 
L 246.392004 222.204537 
L 248.766574 222.280481 
L 251.141144 222.420996 
L 253.515714 222.600832 
L 255.890284 223.017058 
L 258.264854 223.643551 
L 260.639424 224.204403 
L 263.013994 224.454191 
L 265.388564 224.321611 
L 267.763134 224.017961 
L 270.137704 223.865017 
L 272.512274 223.977796 
L 274.886844 224.324181 
L 277.261414 224.757461 
L 279.635984 225.08417 
L 282.010554 225.282513 
L 284.385124 225.457399 
L 286.759694 225.65191 
L 289.134264 225.803445 
L 291.508834 225.829207 
L 293.883404 225.744613 
L 296.257974 225.678475 
L 298.632544 225.703281 
L 301.007114 225.758475 
L 303.381684 225.778954 
L 305.756254 225.778781 
L 308.130824 225.823776 
L 310.505394 225.940425 
L 312.879964 226.085979 
L 315.254534 226.21651 
L 317.629104 226.342937 
L 320.003674 226.502311 
L 322.378244 226.695544 
L 324.752814 226.907714 
L 327.127384 227.11319 
L 329.501954 227.257464 
L 331.876524 227.291988 
L 334.251094 227.19825 
L 336.625664 227.002022 
L 339.000234 226.780792 
L 341.374804 226.589001 
L 343.749374 226.42157 
L 346.123944 226.291249 
L 348.498514 226.236667 
L 350.873084 226.263517 
L 353.247654 226.311147 
L 355.622224 226.324715 
L 357.996794 226.33797 
L 360.371364 226.399138 
L 362.745934 226.484025 
L 365.120504 226.553598 
L 367.495074 226.57331 
L 369.869644 226.51801 
L 372.244214 226.407286 
L 374.618784 226.295126 
L 376.993354 226.217276 
L 379.367924 226.189543 
L 381.742494 226.22354 
L 384.117064 226.299056 
L 386.491634 226.36603 
L 388.866204 226.389376 
L 391.240774 226.381003 
L 393.615344 226.396277 
L 395.989914 226.475154 
L 398.364484 226.596347 
L 400.739054 226.713997 
L 403.113624 226.808826 
L 405.488194 226.878749 
L 407.862764 226.919779 
L 410.237334 226.935586 
L 412.611904 226.945457 
L 414.986474 226.970667 
L 417.361044 227.018155 
L 419.735614 227.084686 
L 422.110184 227.161568 
L 424.484754 227.245471 
L 426.859324 227.334353 
L 429.233894 227.413385 
L 431.608464 227.464179 
L 433.983034 227.486772 
L 436.357604 227.498617 
L 438.732174 227.512164 
L 441.106744 227.526833 
L 443.481314 227.538789 
L 445.855884 227.549096 
L 448.230454 227.558505 
L 450.605024 227.568973 
L 452.979594 227.603524 
L 455.354164 227.682429 
L 457.728734 227.773232 
L 460.103304 227.847063 
L 462.477874 227.91354 
L 464.852444 227.988667 
L 467.227014 228.066398 
L 469.601584 228.136433 
L 471.976154 228.195014 
L 474.350724 228.235929 
L 476.725294 228.256469 
L 479.099864 228.263613 
L 481.474434 228.267906 
L 483.849004 228.272834 
L 486.223574 228.274927 
L 488.598144 228.269614 
L 490.972714 228.253577 
L 493.347284 228.22954 
L 495.721854 228.207371 
L 498.096424 228.192165 
L 500.470994 228.179707 
L 502.845564 228.166182 
L 505.220134 228.151471 
L 507.594704 228.135475 
L 509.969274 228.118008 
L 512.343844 228.097629 
L 514.718414 228.06971 
L 517.092984 228.032026 
L 519.467554 227.986303 
L 519.467554 227.227306 
L 519.467554 227.227306 
L 517.092984 227.460112 
L 514.718414 227.593198 
L 512.343844 227.664497 
L 509.969274 227.710054 
L 507.594704 227.751734 
L 505.220134 227.79533 
L 502.845564 227.837511 
L 500.470994 227.87883 
L 498.096424 227.922838 
L 495.721854 227.963741 
L 493.347284 227.98992 
L 490.972714 228.0004 
L 488.598144 228.002435 
L 486.223574 227.996873 
L 483.849004 227.980807 
L 481.474434 227.957216 
L 479.099864 227.934699 
L 476.725294 227.922322 
L 474.350724 227.920375 
L 471.976154 227.913524 
L 469.601584 227.882083 
L 467.227014 227.820209 
L 464.852444 227.736229 
L 462.477874 227.625973 
L 460.103304 227.48145 
L 457.728734 227.336526 
L 455.354164 227.244265 
L 452.979594 227.189415 
L 450.605024 227.114248 
L 448.230454 227.023074 
L 445.855884 226.946082 
L 443.481314 226.889642 
L 441.106744 226.831491 
L 438.732174 226.742796 
L 436.357604 226.616918 
L 433.983034 226.470539 
L 431.608464 226.321638 
L 429.233894 226.181727 
L 426.859324 226.07016 
L 424.484754 226.011363 
L 422.110184 225.994188 
L 419.735614 225.966095 
L 417.361044 225.878747 
L 414.986474 225.73586 
L 412.611904 225.59111 
L 410.237334 225.476274 
L 407.862764 225.373163 
L 405.488194 225.244696 
L 403.113624 225.074541 
L 400.739054 224.884422 
L 398.364484 224.738054 
L 395.989914 224.701007 
L 393.615344 224.75559 
L 391.240774 224.804215 
L 388.866204 224.760754 
L 386.491634 224.621039 
L 384.117064 224.471732 
L 381.742494 224.391446 
L 379.367924 224.355662 
L 376.993354 224.303116 
L 374.618784 224.208549 
L 372.244214 224.098759 
L 369.869644 224.075129 
L 367.495074 224.218943 
L 365.120504 224.462351 
L 362.745934 224.690758 
L 360.371364 224.852387 
L 357.996794 224.915393 
L 355.622224 224.8643 
L 353.247654 224.758393 
L 350.873084 224.645954 
L 348.498514 224.545746 
L 346.123944 224.547882 
L 343.749374 224.755564 
L 341.374804 225.143208 
L 339.000234 225.563594 
L 336.625664 225.867753 
L 334.251094 226.020691 
L 331.876524 226.044777 
L 329.501954 225.945528 
L 327.127384 225.743258 
L 324.752814 225.493316 
L 322.378244 225.264313 
L 320.003674 225.068516 
L 317.629104 224.822386 
L 315.254534 224.49647 
L 312.879964 224.214597 
L 310.505394 224.0564 
L 308.130824 223.940053 
L 305.756254 223.765019 
L 303.381684 223.559036 
L 301.007114 223.478838 
L 298.632544 223.643422 
L 296.257974 223.954341 
L 293.883404 224.188598 
L 291.508834 224.255536 
L 289.134264 224.192018 
L 286.759694 224.02986 
L 284.385124 223.810875 
L 282.010554 223.546171 
L 279.635984 223.147249 
L 277.261414 222.517876 
L 274.886844 221.676403 
L 272.512274 220.870238 
L 270.137704 220.561753 
L 267.763134 220.823229 
L 265.388564 221.152721 
L 263.013994 221.204909 
L 260.639424 220.953672 
L 258.264854 220.508728 
L 255.890284 219.998498 
L 253.515714 219.506015 
L 251.141144 219.238818 
L 248.766574 219.251153 
L 246.392004 219.072497 
L 244.017434 218.456332 
L 241.642864 217.822918 
L 239.268294 217.562089 
L 236.893724 217.581798 
L 234.519154 217.347503 
L 232.144584 216.43443 
L 229.770014 215.130496 
L 227.395444 214.065718 
L 225.020874 213.634215 
L 222.646304 213.857431 
L 220.271734 214.473636 
L 217.897164 215.233892 
L 215.522594 216.200026 
L 213.148024 217.536935 
L 210.773454 218.915543 
L 208.398884 219.73406 
L 206.024314 219.759407 
L 203.649745 219.37937 
L 201.275175 219.273926 
L 198.900605 219.708124 
L 196.526035 220.406366 
L 194.151465 220.964642 
L 191.776895 221.144216 
L 189.402325 221.086163 
L 187.027755 221.030513 
L 184.653185 221.186378 
L 182.278615 221.382592 
L 179.904045 221.233366 
L 177.529475 220.796786 
L 175.154905 220.285816 
L 172.780335 219.904159 
L 170.405765 219.722592 
L 168.031195 219.653316 
L 165.656625 219.609728 
L 163.282055 219.605989 
L 160.907485 219.612027 
L 158.532915 219.58118 
L 156.158345 219.427819 
L 153.783775 218.945643 
L 151.409205 218.035336 
L 149.034635 216.912533 
L 146.660065 215.85788 
L 144.285495 214.79872 
L 141.910925 213.741408 
L 139.536355 212.968776 
L 137.161785 212.780605 
L 134.787215 213.371819 
L 132.412645 214.086578 
L 130.038075 214.39171 
L 127.663505 214.289196 
L 125.288935 213.488296 
L 122.914365 211.474494 
L 120.539795 208.676854 
L 118.165225 206.369073 
L 115.790655 205.138444 
L 113.416085 204.327709 
L 111.041515 203.071775 
L 108.666945 201.601478 
L 106.292375 200.907938 
L 103.917805 201.532495 
L 101.543235 202.408334 
L 99.168665 201.841114 
L 96.794095 199.422425 
L 94.419525 195.474868 
L 92.044955 190.725366 
L 89.670385 186.926593 
L 87.295815 185.522588 
L 84.921245 185.941831 
L 82.546675 186.71721 
L 80.172105 186.855755 
L 77.797535 186.110148 
L 75.422965 184.387212 
L 73.048395 181.889991 
L 70.673825 180.441831 
L 68.299255 181.321417 
L 65.924685 181.410814 
L 63.550115 176.475919 
L 61.175545 165.191074 
L 58.800975 154.07822 
L 56.426405 156.273526 
L 54.051835 168.151575 
L 51.677265 179.047522 
L 49.302695 185.096525 
L 46.928125 186.058347 
z
" clip-path="url(#p029379c316)" style="fill: #808080; fill-opacity: 0.5; stroke: #808080; stroke-opacity: 0.5"/>
   </g>
   <g id="matplotlib.axis_1">
    <g id="xtick_1">
     <g id="line2d_1">
      <defs>
       <path id="m40a024ad1b" d="M 0 0 
L 0 3.5 
" style="stroke: #000000; stroke-width: 0.8"/>
      </defs>
      <g>
       <use xlink:href="#m40a024ad1b" x="184.667554" y="228.96" style="stroke: #000000; stroke-width: 0.8"/>
      </g>
     </g>
     <g id="text_1">
      <!-- 1.0 -->
      <g transform="translate(177.717554 243.117812) scale(0.1 -0.1)">
       <defs>
        <path id="ArialMT-31" d="M 2384 0 
L 1822 0 
L 1822 3584 
Q 1619 3391 1289 3197 
Q 959 3003 697 2906 
L 697 3450 
Q 1169 3672 1522 3987 
Q 1875 4303 2022 4600 
L 2384 4600 
L 2384 0 
z
" transform="scale(0.015625)"/>
        <path id="ArialMT-2e" d="M 581 0 
L 581 641 
L 1222 641 
L 1222 0 
L 581 0 
z
" transform="scale(0.015625)"/>
        <path id="ArialMT-30" d="M 266 2259 
Q 266 3072 433 3567 
Q 600 4063 929 4331 
Q 1259 4600 1759 4600 
Q 2128 4600 2406 4451 
Q 2684 4303 2865 4023 
Q 3047 3744 3150 3342 
Q 3253 2941 3253 2259 
Q 3253 1453 3087 958 
Q 2922 463 2592 192 
Q 2263 -78 1759 -78 
Q 1097 -78 719 397 
Q 266 969 266 2259 
z
M 844 2259 
Q 844 1131 1108 757 
Q 1372 384 1759 384 
Q 2147 384 2411 759 
Q 2675 1134 2675 2259 
Q 2675 3391 2411 3762 
Q 2147 4134 1753 4134 
Q 1366 4134 1134 3806 
Q 844 3388 844 2259 
z
" transform="scale(0.015625)"/>
       </defs>
       <use xlink:href="#ArialMT-31"/>
       <use xlink:href="#ArialMT-2e" x="55.615234"/>
       <use xlink:href="#ArialMT-30" x="83.398438"/>
      </g>
     </g>
    </g>
    <g id="xtick_2">
     <g id="line2d_2">
      <g>
       <use xlink:href="#m40a024ad1b" x="381.728125" y="228.96" style="stroke: #000000; stroke-width: 0.8"/>
      </g>
     </g>
     <g id="text_2">
      <!-- 10.0 -->
      <g transform="translate(371.997656 243.117812) scale(0.1 -0.1)">
       <use xlink:href="#ArialMT-31"/>
       <use xlink:href="#ArialMT-30" x="55.615234"/>
       <use xlink:href="#ArialMT-2e" x="111.230469"/>
       <use xlink:href="#ArialMT-30" x="139.013672"/>
      </g>
     </g>
    </g>
    <g id="xtick_3">
     <g id="line2d_3">
      <defs>
       <path id="ma536d805dc" d="M 0 0 
L 0 2 
" style="stroke: #000000; stroke-width: 0.6"/>
      </defs>
      <g>
       <use xlink:href="#ma536d805dc" x="46.928125" y="228.96" style="stroke: #000000; stroke-width: 0.6"/>
      </g>
     </g>
    </g>
    <g id="xtick_4">
     <g id="line2d_4">
      <g>
       <use xlink:href="#ma536d805dc" x="81.628769" y="228.96" style="stroke: #000000; stroke-width: 0.6"/>
      </g>
     </g>
    </g>
    <g id="xtick_5">
     <g id="line2d_5">
      <g>
       <use xlink:href="#ma536d805dc" x="106.249268" y="228.96" style="stroke: #000000; stroke-width: 0.6"/>
      </g>
     </g>
    </g>
    <g id="xtick_6">
     <g id="line2d_6">
      <g>
       <use xlink:href="#ma536d805dc" x="125.346411" y="228.96" style="stroke: #000000; stroke-width: 0.6"/>
      </g>
     </g>
    </g>
    <g id="xtick_7">
     <g id="line2d_7">
      <g>
       <use xlink:href="#ma536d805dc" x="140.949912" y="228.96" style="stroke: #000000; stroke-width: 0.6"/>
      </g>
     </g>
    </g>
    <g id="xtick_8">
     <g id="line2d_8">
      <g>
       <use xlink:href="#ma536d805dc" x="154.142485" y="228.96" style="stroke: #000000; stroke-width: 0.6"/>
      </g>
     </g>
    </g>
    <g id="xtick_9">
     <g id="line2d_9">
      <g>
       <use xlink:href="#ma536d805dc" x="165.570411" y="228.96" style="stroke: #000000; stroke-width: 0.6"/>
      </g>
     </g>
    </g>
    <g id="xtick_10">
     <g id="line2d_10">
      <g>
       <use xlink:href="#ma536d805dc" x="175.650556" y="228.96" style="stroke: #000000; stroke-width: 0.6"/>
      </g>
     </g>
    </g>
    <g id="xtick_11">
     <g id="line2d_11">
      <g>
       <use xlink:href="#ma536d805dc" x="243.988696" y="228.96" style="stroke: #000000; stroke-width: 0.6"/>
      </g>
     </g>
    </g>
    <g id="xtick_12">
     <g id="line2d_12">
      <g>
       <use xlink:href="#ma536d805dc" x="278.689341" y="228.96" style="stroke: #000000; stroke-width: 0.6"/>
      </g>
     </g>
    </g>
    <g id="xtick_13">
     <g id="line2d_13">
      <g>
       <use xlink:href="#ma536d805dc" x="303.309839" y="228.96" style="stroke: #000000; stroke-width: 0.6"/>
      </g>
     </g>
    </g>
    <g id="xtick_14">
     <g id="line2d_14">
      <g>
       <use xlink:href="#ma536d805dc" x="322.406982" y="228.96" style="stroke: #000000; stroke-width: 0.6"/>
      </g>
     </g>
    </g>
    <g id="xtick_15">
     <g id="line2d_15">
      <g>
       <use xlink:href="#ma536d805dc" x="338.010484" y="228.96" style="stroke: #000000; stroke-width: 0.6"/>
      </g>
     </g>
    </g>
    <g id="xtick_16">
     <g id="line2d_16">
      <g>
       <use xlink:href="#ma536d805dc" x="351.203056" y="228.96" style="stroke: #000000; stroke-width: 0.6"/>
      </g>
     </g>
    </g>
    <g id="xtick_17">
     <g id="line2d_17">
      <g>
       <use xlink:href="#ma536d805dc" x="362.630982" y="228.96" style="stroke: #000000; stroke-width: 0.6"/>
      </g>
     </g>
    </g>
    <g id="xtick_18">
     <g id="line2d_18">
      <g>
       <use xlink:href="#ma536d805dc" x="372.711128" y="228.96" style="stroke: #000000; stroke-width: 0.6"/>
      </g>
     </g>
    </g>
    <g id="text_3">
     <!-- Frequency (Hz) -->
     <g transform="translate(179.877344 256.385) scale(0.1 -0.1)">
      <defs>
       <path id="ArialMT-46" d="M 525 0 
L 525 4581 
L 3616 4581 
L 3616 4041 
L 1131 4041 
L 1131 2622 
L 3281 2622 
L 3281 2081 
L 1131 2081 
L 1131 0 
L 525 0 
z
" transform="scale(0.015625)"/>
       <path id="ArialMT-72" d="M 416 0 
L 416 3319 
L 922 3319 
L 922 2816 
Q 1116 3169 1280 3281 
Q 1444 3394 1641 3394 
Q 1925 3394 2219 3213 
L 2025 2691 
Q 1819 2813 1613 2813 
Q 1428 2813 1281 2702 
Q 1134 2591 1072 2394 
Q 978 2094 978 1738 
L 978 0 
L 416 0 
z
" transform="scale(0.015625)"/>
       <path id="ArialMT-65" d="M 2694 1069 
L 3275 997 
Q 3138 488 2766 206 
Q 2394 -75 1816 -75 
Q 1088 -75 661 373 
Q 234 822 234 1631 
Q 234 2469 665 2931 
Q 1097 3394 1784 3394 
Q 2450 3394 2872 2941 
Q 3294 2488 3294 1666 
Q 3294 1616 3291 1516 
L 816 1516 
Q 847 969 1125 678 
Q 1403 388 1819 388 
Q 2128 388 2347 550 
Q 2566 713 2694 1069 
z
M 847 1978 
L 2700 1978 
Q 2663 2397 2488 2606 
Q 2219 2931 1791 2931 
Q 1403 2931 1139 2672 
Q 875 2413 847 1978 
z
" transform="scale(0.015625)"/>
       <path id="ArialMT-71" d="M 2538 -1272 
L 2538 353 
Q 2406 169 2170 47 
Q 1934 -75 1669 -75 
Q 1078 -75 651 397 
Q 225 869 225 1691 
Q 225 2191 398 2587 
Q 572 2984 901 3189 
Q 1231 3394 1625 3394 
Q 2241 3394 2594 2875 
L 2594 3319 
L 3100 3319 
L 3100 -1272 
L 2538 -1272 
z
M 803 1669 
Q 803 1028 1072 708 
Q 1341 388 1716 388 
Q 2075 388 2334 692 
Q 2594 997 2594 1619 
Q 2594 2281 2320 2615 
Q 2047 2950 1678 2950 
Q 1313 2950 1058 2639 
Q 803 2328 803 1669 
z
" transform="scale(0.015625)"/>
       <path id="ArialMT-75" d="M 2597 0 
L 2597 488 
Q 2209 -75 1544 -75 
Q 1250 -75 995 37 
Q 741 150 617 320 
Q 494 491 444 738 
Q 409 903 409 1263 
L 409 3319 
L 972 3319 
L 972 1478 
Q 972 1038 1006 884 
Q 1059 663 1231 536 
Q 1403 409 1656 409 
Q 1909 409 2131 539 
Q 2353 669 2445 892 
Q 2538 1116 2538 1541 
L 2538 3319 
L 3100 3319 
L 3100 0 
L 2597 0 
z
" transform="scale(0.015625)"/>
       <path id="ArialMT-6e" d="M 422 0 
L 422 3319 
L 928 3319 
L 928 2847 
Q 1294 3394 1984 3394 
Q 2284 3394 2536 3286 
Q 2788 3178 2913 3003 
Q 3038 2828 3088 2588 
Q 3119 2431 3119 2041 
L 3119 0 
L 2556 0 
L 2556 2019 
Q 2556 2363 2490 2533 
Q 2425 2703 2258 2804 
Q 2091 2906 1866 2906 
Q 1506 2906 1245 2678 
Q 984 2450 984 1813 
L 984 0 
L 422 0 
z
" transform="scale(0.015625)"/>
       <path id="ArialMT-63" d="M 2588 1216 
L 3141 1144 
Q 3050 572 2676 248 
Q 2303 -75 1759 -75 
Q 1078 -75 664 370 
Q 250 816 250 1647 
Q 250 2184 428 2587 
Q 606 2991 970 3192 
Q 1334 3394 1763 3394 
Q 2303 3394 2647 3120 
Q 2991 2847 3088 2344 
L 2541 2259 
Q 2463 2594 2264 2762 
Q 2066 2931 1784 2931 
Q 1359 2931 1093 2626 
Q 828 2322 828 1663 
Q 828 994 1084 691 
Q 1341 388 1753 388 
Q 2084 388 2306 591 
Q 2528 794 2588 1216 
z
" transform="scale(0.015625)"/>
       <path id="ArialMT-79" d="M 397 -1278 
L 334 -750 
Q 519 -800 656 -800 
Q 844 -800 956 -737 
Q 1069 -675 1141 -563 
Q 1194 -478 1313 -144 
Q 1328 -97 1363 -6 
L 103 3319 
L 709 3319 
L 1400 1397 
Q 1534 1031 1641 628 
Q 1738 1016 1872 1384 
L 2581 3319 
L 3144 3319 
L 1881 -56 
Q 1678 -603 1566 -809 
Q 1416 -1088 1222 -1217 
Q 1028 -1347 759 -1347 
Q 597 -1347 397 -1278 
z
" transform="scale(0.015625)"/>
       <path id="ArialMT-20" transform="scale(0.015625)"/>
       <path id="ArialMT-28" d="M 1497 -1347 
Q 1031 -759 709 28 
Q 388 816 388 1659 
Q 388 2403 628 3084 
Q 909 3875 1497 4659 
L 1900 4659 
Q 1522 4009 1400 3731 
Q 1209 3300 1100 2831 
Q 966 2247 966 1656 
Q 966 153 1900 -1347 
L 1497 -1347 
z
" transform="scale(0.015625)"/>
       <path id="ArialMT-48" d="M 513 0 
L 513 4581 
L 1119 4581 
L 1119 2700 
L 3500 2700 
L 3500 4581 
L 4106 4581 
L 4106 0 
L 3500 0 
L 3500 2159 
L 1119 2159 
L 1119 0 
L 513 0 
z
" transform="scale(0.015625)"/>
       <path id="ArialMT-7a" d="M 125 0 
L 125 456 
L 2238 2881 
Q 1878 2863 1603 2863 
L 250 2863 
L 250 3319 
L 2963 3319 
L 2963 2947 
L 1166 841 
L 819 456 
Q 1197 484 1528 484 
L 3063 484 
L 3063 0 
L 125 0 
z
" transform="scale(0.015625)"/>
       <path id="ArialMT-29" d="M 791 -1347 
L 388 -1347 
Q 1322 153 1322 1656 
Q 1322 2244 1188 2822 
Q 1081 3291 891 3722 
Q 769 4003 388 4659 
L 791 4659 
Q 1378 3875 1659 3084 
Q 1900 2403 1900 1659 
Q 1900 816 1576 28 
Q 1253 -759 791 -1347 
z
" transform="scale(0.015625)"/>
      </defs>
      <use xlink:href="#ArialMT-46"/>
      <use xlink:href="#ArialMT-72" x="61.083984"/>
      <use xlink:href="#ArialMT-65" x="94.384766"/>
      <use xlink:href="#ArialMT-71" x="150"/>
      <use xlink:href="#ArialMT-75" x="205.615234"/>
      <use xlink:href="#ArialMT-65" x="261.230469"/>
      <use xlink:href="#ArialMT-6e" x="316.845703"/>
      <use xlink:href="#ArialMT-63" x="372.460938"/>
      <use xlink:href="#ArialMT-79" x="422.460938"/>
      <use xlink:href="#ArialMT-20" x="472.460938"/>
      <use xlink:href="#ArialMT-28" x="500.244141"/>
      <use xlink:href="#ArialMT-48" x="533.544922"/>
      <use xlink:href="#ArialMT-7a" x="605.761719"/>
      <use xlink:href="#ArialMT-29" x="655.761719"/>
     </g>
    </g>
   </g>
   <g id="matplotlib.axis_2">
    <g id="ytick_1">
     <g id="line2d_19">
      <defs>
       <path id="m7044d6c0c8" d="M 0 0 
L -3.5 0 
" style="stroke: #000000; stroke-width: 0.8"/>
      </defs>
      <g>
       <use xlink:href="#m7044d6c0c8" x="46.928125" y="228.96" style="stroke: #000000; stroke-width: 0.8"/>
      </g>
     </g>
     <g id="text_4">
      <!-- 0.0 -->
      <g transform="translate(26.028125 232.538906) scale(0.1 -0.1)">
       <use xlink:href="#ArialMT-30"/>
       <use xlink:href="#ArialMT-2e" x="55.615234"/>
       <use xlink:href="#ArialMT-30" x="83.398438"/>
      </g>
     </g>
    </g>
    <g id="ytick_2">
     <g id="line2d_20">
      <g>
       <use xlink:href="#m7044d6c0c8" x="46.928125" y="185.655983" style="stroke: #000000; stroke-width: 0.8"/>
      </g>
     </g>
     <g id="text_5">
      <!-- 10.0 -->
      <g transform="translate(20.467188 189.234889) scale(0.1 -0.1)">
       <use xlink:href="#ArialMT-31"/>
       <use xlink:href="#ArialMT-30" x="55.615234"/>
       <use xlink:href="#ArialMT-2e" x="111.230469"/>
       <use xlink:href="#ArialMT-30" x="139.013672"/>
      </g>
     </g>
    </g>
    <g id="ytick_3">
     <g id="line2d_21">
      <g>
       <use xlink:href="#m7044d6c0c8" x="46.928125" y="142.351965" style="stroke: #000000; stroke-width: 0.8"/>
      </g>
     </g>
     <g id="text_6">
      <!-- 20.0 -->
      <g transform="translate(20.467188 145.930872) scale(0.1 -0.1)">
       <defs>
        <path id="ArialMT-32" d="M 3222 541 
L 3222 0 
L 194 0 
Q 188 203 259 391 
Q 375 700 629 1000 
Q 884 1300 1366 1694 
Q 2113 2306 2375 2664 
Q 2638 3022 2638 3341 
Q 2638 3675 2398 3904 
Q 2159 4134 1775 4134 
Q 1369 4134 1125 3890 
Q 881 3647 878 3216 
L 300 3275 
Q 359 3922 746 4261 
Q 1134 4600 1788 4600 
Q 2447 4600 2831 4234 
Q 3216 3869 3216 3328 
Q 3216 3053 3103 2787 
Q 2991 2522 2730 2228 
Q 2469 1934 1863 1422 
Q 1356 997 1212 845 
Q 1069 694 975 541 
L 3222 541 
z
" transform="scale(0.015625)"/>
       </defs>
       <use xlink:href="#ArialMT-32"/>
       <use xlink:href="#ArialMT-30" x="55.615234"/>
       <use xlink:href="#ArialMT-2e" x="111.230469"/>
       <use xlink:href="#ArialMT-30" x="139.013672"/>
      </g>
     </g>
    </g>
    <g id="ytick_4">
     <g id="line2d_22">
      <g>
       <use xlink:href="#m7044d6c0c8" x="46.928125" y="99.047948" style="stroke: #000000; stroke-width: 0.8"/>
      </g>
     </g>
     <g id="text_7">
      <!-- 30.0 -->
      <g transform="translate(20.467188 102.626854) scale(0.1 -0.1)">
       <defs>
        <path id="ArialMT-33" d="M 269 1209 
L 831 1284 
Q 928 806 1161 595 
Q 1394 384 1728 384 
Q 2125 384 2398 659 
Q 2672 934 2672 1341 
Q 2672 1728 2419 1979 
Q 2166 2231 1775 2231 
Q 1616 2231 1378 2169 
L 1441 2663 
Q 1497 2656 1531 2656 
Q 1891 2656 2178 2843 
Q 2466 3031 2466 3422 
Q 2466 3731 2256 3934 
Q 2047 4138 1716 4138 
Q 1388 4138 1169 3931 
Q 950 3725 888 3313 
L 325 3413 
Q 428 3978 793 4289 
Q 1159 4600 1703 4600 
Q 2078 4600 2393 4439 
Q 2709 4278 2876 4000 
Q 3044 3722 3044 3409 
Q 3044 3113 2884 2869 
Q 2725 2625 2413 2481 
Q 2819 2388 3044 2092 
Q 3269 1797 3269 1353 
Q 3269 753 2831 336 
Q 2394 -81 1725 -81 
Q 1122 -81 723 278 
Q 325 638 269 1209 
z
" transform="scale(0.015625)"/>
       </defs>
       <use xlink:href="#ArialMT-33"/>
       <use xlink:href="#ArialMT-30" x="55.615234"/>
       <use xlink:href="#ArialMT-2e" x="111.230469"/>
       <use xlink:href="#ArialMT-30" x="139.013672"/>
      </g>
     </g>
    </g>
    <g id="ytick_5">
     <g id="line2d_23">
      <g>
       <use xlink:href="#m7044d6c0c8" x="46.928125" y="55.743931" style="stroke: #000000; stroke-width: 0.8"/>
      </g>
     </g>
     <g id="text_8">
      <!-- 40.0 -->
      <g transform="translate(20.467188 59.322837) scale(0.1 -0.1)">
       <defs>
        <path id="ArialMT-34" d="M 2069 0 
L 2069 1097 
L 81 1097 
L 81 1613 
L 2172 4581 
L 2631 4581 
L 2631 1613 
L 3250 1613 
L 3250 1097 
L 2631 1097 
L 2631 0 
L 2069 0 
z
M 2069 1613 
L 2069 3678 
L 634 1613 
L 2069 1613 
z
" transform="scale(0.015625)"/>
       </defs>
       <use xlink:href="#ArialMT-34"/>
       <use xlink:href="#ArialMT-30" x="55.615234"/>
       <use xlink:href="#ArialMT-2e" x="111.230469"/>
       <use xlink:href="#ArialMT-30" x="139.013672"/>
      </g>
     </g>
    </g>
    <g id="ytick_6">
     <g id="line2d_24">
      <g>
       <use xlink:href="#m7044d6c0c8" x="46.928125" y="12.439913" style="stroke: #000000; stroke-width: 0.8"/>
      </g>
     </g>
     <g id="text_9">
      <!-- 50.0 -->
      <g transform="translate(20.467188 16.01882) scale(0.1 -0.1)">
       <defs>
        <path id="ArialMT-35" d="M 266 1200 
L 856 1250 
Q 922 819 1161 601 
Q 1400 384 1738 384 
Q 2144 384 2425 690 
Q 2706 997 2706 1503 
Q 2706 1984 2436 2262 
Q 2166 2541 1728 2541 
Q 1456 2541 1237 2417 
Q 1019 2294 894 2097 
L 366 2166 
L 809 4519 
L 3088 4519 
L 3088 3981 
L 1259 3981 
L 1013 2750 
Q 1425 3038 1878 3038 
Q 2478 3038 2890 2622 
Q 3303 2206 3303 1553 
Q 3303 931 2941 478 
Q 2500 -78 1738 -78 
Q 1113 -78 717 272 
Q 322 622 266 1200 
z
" transform="scale(0.015625)"/>
       </defs>
       <use xlink:href="#ArialMT-35"/>
       <use xlink:href="#ArialMT-30" x="55.615234"/>
       <use xlink:href="#ArialMT-2e" x="111.230469"/>
       <use xlink:href="#ArialMT-30" x="139.013672"/>
      </g>
     </g>
    </g>
    <g id="text_10">
     <!-- H/V Amplitude -->
     <g transform="translate(14.479688 149.762031) rotate(-90) scale(0.1 -0.1)">
      <defs>
       <path id="ArialMT-2f" d="M 0 -78 
L 1328 4659 
L 1778 4659 
L 453 -78 
L 0 -78 
z
" transform="scale(0.015625)"/>
       <path id="ArialMT-56" d="M 1803 0 
L 28 4581 
L 684 4581 
L 1875 1253 
Q 2019 853 2116 503 
Q 2222 878 2363 1253 
L 3600 4581 
L 4219 4581 
L 2425 0 
L 1803 0 
z
" transform="scale(0.015625)"/>
       <path id="ArialMT-41" d="M -9 0 
L 1750 4581 
L 2403 4581 
L 4278 0 
L 3588 0 
L 3053 1388 
L 1138 1388 
L 634 0 
L -9 0 
z
M 1313 1881 
L 2866 1881 
L 2388 3150 
Q 2169 3728 2063 4100 
Q 1975 3659 1816 3225 
L 1313 1881 
z
" transform="scale(0.015625)"/>
       <path id="ArialMT-6d" d="M 422 0 
L 422 3319 
L 925 3319 
L 925 2853 
Q 1081 3097 1340 3245 
Q 1600 3394 1931 3394 
Q 2300 3394 2536 3241 
Q 2772 3088 2869 2813 
Q 3263 3394 3894 3394 
Q 4388 3394 4653 3120 
Q 4919 2847 4919 2278 
L 4919 0 
L 4359 0 
L 4359 2091 
Q 4359 2428 4304 2576 
Q 4250 2725 4106 2815 
Q 3963 2906 3769 2906 
Q 3419 2906 3187 2673 
Q 2956 2441 2956 1928 
L 2956 0 
L 2394 0 
L 2394 2156 
Q 2394 2531 2256 2718 
Q 2119 2906 1806 2906 
Q 1569 2906 1367 2781 
Q 1166 2656 1075 2415 
Q 984 2175 984 1722 
L 984 0 
L 422 0 
z
" transform="scale(0.015625)"/>
       <path id="ArialMT-70" d="M 422 -1272 
L 422 3319 
L 934 3319 
L 934 2888 
Q 1116 3141 1344 3267 
Q 1572 3394 1897 3394 
Q 2322 3394 2647 3175 
Q 2972 2956 3137 2557 
Q 3303 2159 3303 1684 
Q 3303 1175 3120 767 
Q 2938 359 2589 142 
Q 2241 -75 1856 -75 
Q 1575 -75 1351 44 
Q 1128 163 984 344 
L 984 -1272 
L 422 -1272 
z
M 931 1641 
Q 931 1000 1190 694 
Q 1450 388 1819 388 
Q 2194 388 2461 705 
Q 2728 1022 2728 1688 
Q 2728 2322 2467 2637 
Q 2206 2953 1844 2953 
Q 1484 2953 1207 2617 
Q 931 2281 931 1641 
z
" transform="scale(0.015625)"/>
       <path id="ArialMT-6c" d="M 409 0 
L 409 4581 
L 972 4581 
L 972 0 
L 409 0 
z
" transform="scale(0.015625)"/>
       <path id="ArialMT-69" d="M 425 3934 
L 425 4581 
L 988 4581 
L 988 3934 
L 425 3934 
z
M 425 0 
L 425 3319 
L 988 3319 
L 988 0 
L 425 0 
z
" transform="scale(0.015625)"/>
       <path id="ArialMT-74" d="M 1650 503 
L 1731 6 
Q 1494 -44 1306 -44 
Q 1000 -44 831 53 
Q 663 150 594 308 
Q 525 466 525 972 
L 525 2881 
L 113 2881 
L 113 3319 
L 525 3319 
L 525 4141 
L 1084 4478 
L 1084 3319 
L 1650 3319 
L 1650 2881 
L 1084 2881 
L 1084 941 
Q 1084 700 1114 631 
Q 1144 563 1211 522 
Q 1278 481 1403 481 
Q 1497 481 1650 503 
z
" transform="scale(0.015625)"/>
       <path id="ArialMT-64" d="M 2575 0 
L 2575 419 
Q 2259 -75 1647 -75 
Q 1250 -75 917 144 
Q 584 363 401 755 
Q 219 1147 219 1656 
Q 219 2153 384 2558 
Q 550 2963 881 3178 
Q 1213 3394 1622 3394 
Q 1922 3394 2156 3267 
Q 2391 3141 2538 2938 
L 2538 4581 
L 3097 4581 
L 3097 0 
L 2575 0 
z
M 797 1656 
Q 797 1019 1065 703 
Q 1334 388 1700 388 
Q 2069 388 2326 689 
Q 2584 991 2584 1609 
Q 2584 2291 2321 2609 
Q 2059 2928 1675 2928 
Q 1300 2928 1048 2622 
Q 797 2316 797 1656 
z
" transform="scale(0.015625)"/>
      </defs>
      <use xlink:href="#ArialMT-48"/>
      <use xlink:href="#ArialMT-2f" x="72.216797"/>
      <use xlink:href="#ArialMT-56" x="100"/>
      <use xlink:href="#ArialMT-20" x="166.699219"/>
      <use xlink:href="#ArialMT-41" x="188.982422"/>
      <use xlink:href="#ArialMT-6d" x="255.681641"/>
      <use xlink:href="#ArialMT-70" x="338.982422"/>
      <use xlink:href="#ArialMT-6c" x="394.597656"/>
      <use xlink:href="#ArialMT-69" x="416.814453"/>
      <use xlink:href="#ArialMT-74" x="439.03125"/>
      <use xlink:href="#ArialMT-75" x="466.814453"/>
      <use xlink:href="#ArialMT-64" x="522.429688"/>
      <use xlink:href="#ArialMT-65" x="578.044922"/>
     </g>
    </g>
   </g>
   <g id="line2d_25">
    <path d="M 46.928125 217.856335 
L 49.302695 217.544638 
L 51.677265 217.472975 
L 56.426405 217.983233 
L 58.800975 218.224835 
L 65.924685 218.601809 
L 68.299255 219.014126 
L 75.422965 220.786531 
L 80.172105 221.571063 
L 84.921245 221.988032 
L 92.044955 222.247121 
L 106.292375 223.539229 
L 111.041515 224.222078 
L 115.790655 224.48018 
L 130.038075 224.844053 
L 134.787215 224.865926 
L 141.910925 225.04756 
L 149.034635 224.956392 
L 156.158345 224.942967 
L 160.907485 225.16055 
L 165.656625 225.426871 
L 170.405765 225.632379 
L 175.154905 225.954581 
L 177.529475 225.747257 
L 184.653185 224.106417 
L 187.027755 224.116751 
L 189.402325 224.277286 
L 191.776895 223.938681 
L 194.151465 222.697628 
L 196.526035 220.887588 
L 198.900605 219.42789 
L 201.275175 218.916561 
L 203.649745 219.102566 
L 206.024314 219.420918 
L 208.398884 219.341704 
L 210.773454 218.353939 
L 215.522594 214.248596 
L 217.897164 213.60556 
L 220.271734 214.24531 
L 225.020874 215.939359 
L 227.395444 216.797261 
L 229.770014 217.81073 
L 232.144584 218.672853 
L 234.519154 219.162723 
L 241.642864 219.911572 
L 244.017434 219.963652 
L 246.392004 219.652573 
L 248.766574 219.139222 
L 251.141144 219.059922 
L 253.515714 219.772457 
L 260.639424 223.000954 
L 263.013994 223.795581 
L 265.388564 224.134304 
L 267.763134 223.971567 
L 270.137704 223.412854 
L 272.512274 222.679798 
L 274.886844 222.160013 
L 277.261414 222.19891 
L 282.010554 223.062413 
L 286.759694 223.638243 
L 289.134264 223.853881 
L 291.508834 223.90102 
L 301.007114 223.307618 
L 310.505394 223.598917 
L 324.752814 224.603104 
L 336.625664 225.002674 
L 343.749374 225.332437 
L 355.622224 225.32299 
L 357.996794 225.433991 
L 360.371364 225.402328 
L 369.869644 224.689272 
L 379.367924 225.521551 
L 388.866204 225.812946 
L 393.615344 226.019818 
L 399.658594 226.465773 
L 399.658594 226.465773 
" clip-path="url(#p029379c316)" style="fill: none; stroke: #808080; stroke-opacity: 0.5; stroke-width: 0.5; stroke-linecap: square"/>
   </g>
   <g id="line2d_26">
    <path d="M 46.928125 187.251476 
L 49.302695 186.899318 
L 51.677265 186.165196 
L 56.426405 182.147638 
L 58.800975 183.469454 
L 61.175545 187.094219 
L 63.550115 189.942711 
L 65.924685 190.829908 
L 68.299255 189.816829 
L 70.673825 188.143268 
L 73.048395 188.165688 
L 75.422965 190.058892 
L 77.797535 192.231435 
L 82.546675 195.95324 
L 84.921245 198.386627 
L 89.670385 204.435544 
L 92.044955 206.923432 
L 94.419525 208.72398 
L 96.794095 209.775834 
L 99.168665 210.250217 
L 101.543235 210.386563 
L 103.917805 210.015324 
L 106.292375 208.636572 
L 108.666945 206.284599 
L 111.041515 204.107099 
L 113.416085 203.699663 
L 115.790655 205.967417 
L 118.165225 210.016957 
L 120.539795 213.711746 
L 122.914365 215.884511 
L 125.288935 216.832719 
L 127.663505 217.192484 
L 132.412645 217.385469 
L 137.161785 217.661755 
L 139.536355 217.821739 
L 141.910925 217.696655 
L 146.660065 216.757265 
L 149.034635 217.070596 
L 151.409205 218.243188 
L 153.783775 219.201257 
L 156.158345 219.476793 
L 158.532915 219.564361 
L 160.907485 220.051194 
L 165.656625 221.763053 
L 168.031195 222.417107 
L 172.780335 223.35711 
L 177.529475 224.056699 
L 182.278615 224.554015 
L 184.653185 224.604651 
L 191.776895 224.317671 
L 194.151465 224.567382 
L 201.275175 225.971735 
L 203.649745 226.146927 
L 206.024314 226.108697 
L 208.398884 225.910787 
L 210.773454 225.592383 
L 213.148024 225.133567 
L 220.271734 223.322611 
L 227.395444 221.921957 
L 229.770014 221.83588 
L 232.144584 222.272588 
L 234.519154 222.898037 
L 236.893724 223.24341 
L 239.268294 223.169106 
L 246.392004 222.127869 
L 251.141144 221.698531 
L 253.515714 221.585642 
L 255.890284 221.747792 
L 258.264854 222.259047 
L 260.639424 222.903779 
L 263.013994 223.257979 
L 265.388564 223.020003 
L 270.137704 221.555903 
L 272.512274 221.523557 
L 274.886844 222.31988 
L 277.261414 223.400608 
L 279.635984 224.257241 
L 282.010554 224.84758 
L 284.385124 225.300723 
L 286.759694 225.633712 
L 289.134264 225.777549 
L 291.508834 225.661186 
L 293.883404 225.225446 
L 296.257974 224.46433 
L 298.632544 223.586284 
L 301.007114 223.081155 
L 303.381684 223.247051 
L 308.130824 224.308918 
L 310.505394 224.63606 
L 320.003674 225.439017 
L 324.752814 226.152805 
L 327.127384 226.529447 
L 329.501954 226.77505 
L 334.251094 226.86827 
L 339.000234 226.696116 
L 343.749374 226.224787 
L 348.498514 225.486782 
L 350.873084 225.303126 
L 353.247654 225.400022 
L 357.996794 226.203829 
L 360.371364 226.594216 
L 362.745934 226.848599 
L 365.120504 226.972169 
L 367.495074 226.972439 
L 369.869644 226.839103 
L 374.618784 226.198539 
L 379.367924 225.494838 
L 384.117064 225.224152 
L 391.240774 225.196141 
L 395.989914 225.302403 
L 399.658594 225.508127 
L 399.658594 225.508127 
" clip-path="url(#p029379c316)" style="fill: none; stroke: #808080; stroke-opacity: 0.5; stroke-width: 0.5; stroke-linecap: square"/>
   </g>
   <g id="line2d_27">
    <path d="M 46.928125 218.407255 
L 49.302695 220.466263 
L 51.677265 221.283287 
L 54.051835 221.348109 
L 56.426405 220.847975 
L 58.800975 219.678591 
L 61.175545 217.718661 
L 63.550115 216.237742 
L 65.924685 218.105085 
L 68.299255 221.620505 
L 70.673825 223.964248 
L 73.048395 225.065521 
L 75.422965 225.394323 
L 77.797535 225.199849 
L 80.172105 224.562185 
L 82.546675 223.628654 
L 84.921245 222.926239 
L 87.295815 223.000913 
L 89.670385 223.562015 
L 92.044955 223.954967 
L 94.419525 223.832219 
L 96.794095 223.097326 
L 99.168665 221.769454 
L 101.543235 219.922093 
L 106.292375 215.562749 
L 108.666945 214.911255 
L 111.041515 216.769279 
L 113.416085 219.98501 
L 115.790655 222.621777 
L 118.165225 224.022366 
L 120.539795 224.379624 
L 122.914365 223.986507 
L 127.663505 222.338002 
L 130.038075 221.738879 
L 137.161785 220.280926 
L 139.536355 220.061366 
L 141.910925 220.519826 
L 146.660065 222.31287 
L 149.034635 222.866285 
L 151.409205 223.109895 
L 160.907485 223.594599 
L 168.031195 224.483689 
L 170.405765 224.339435 
L 172.780335 223.846325 
L 177.529475 222.440626 
L 179.904045 222.057427 
L 182.278615 222.069559 
L 189.402325 222.909705 
L 191.776895 222.863275 
L 196.526035 222.364961 
L 198.900605 222.400268 
L 203.649745 222.78066 
L 206.024314 222.621681 
L 208.398884 222.049267 
L 210.773454 221.060467 
L 213.148024 219.714908 
L 215.522594 218.055373 
L 220.271734 214.282329 
L 222.646304 213.23513 
L 225.020874 213.226548 
L 227.395444 213.891067 
L 229.770014 214.922252 
L 234.519154 217.295434 
L 236.893724 217.935758 
L 239.268294 218.035673 
L 244.017434 217.820188 
L 253.515714 217.798881 
L 255.890284 218.179994 
L 263.013994 219.831401 
L 265.388564 220.651207 
L 270.137704 222.428782 
L 272.512274 223.069883 
L 274.886844 223.53998 
L 277.261414 223.854454 
L 284.385124 224.432117 
L 293.883404 225.770829 
L 298.632544 226.074927 
L 303.381684 226.011074 
L 310.505394 225.58261 
L 312.879964 225.656596 
L 317.629104 226.196316 
L 322.378244 226.746987 
L 327.127384 227.1056 
L 329.501954 227.182915 
L 331.876524 227.145837 
L 334.251094 226.965564 
L 336.625664 226.642107 
L 346.123944 224.959232 
L 348.498514 224.960011 
L 353.247654 225.324267 
L 355.622224 225.315932 
L 360.371364 225.117007 
L 367.495074 225.452459 
L 369.869644 225.334164 
L 374.618784 224.85508 
L 376.993354 224.786983 
L 381.742494 225.005893 
L 386.491634 225.278915 
L 391.240774 225.261266 
L 398.364484 225.068328 
L 399.658594 225.072491 
L 399.658594 225.072491 
" clip-path="url(#p029379c316)" style="fill: none; stroke: #808080; stroke-opacity: 0.5; stroke-width: 0.5; stroke-linecap: square"/>
   </g>
   <g id="line2d_28">
    <path d="M 46.928125 164.454477 
L 49.302695 155.479122 
L 51.677265 131.720901 
L 54.051835 88.873636 
L 56.426405 32.787201 
L 58.800975 17.731639 
L 61.175545 80.853934 
L 63.550115 140.319091 
L 65.924685 167.081251 
L 68.299255 175.073125 
L 70.673825 174.246294 
L 73.048395 168.82446 
L 75.422965 161.405405 
L 77.797535 155.353242 
L 80.172105 153.531975 
L 82.546675 154.97112 
L 87.295815 158.422825 
L 89.670385 163.06897 
L 92.044955 171.770297 
L 94.419525 181.440736 
L 96.794095 187.909033 
L 99.168665 188.847506 
L 101.543235 184.036336 
L 103.917805 176.936135 
L 106.292375 175.417231 
L 108.666945 181.917608 
L 111.041515 190.138803 
L 113.416085 196.186101 
L 115.790655 200.434762 
L 120.539795 207.807797 
L 122.914365 210.233643 
L 125.288935 210.554371 
L 127.663505 209.806434 
L 130.038075 209.879734 
L 132.412645 211.480683 
L 137.161785 216.297228 
L 139.536355 217.736498 
L 141.910925 218.170508 
L 146.660065 218.079491 
L 149.034635 218.370857 
L 151.409205 218.828797 
L 153.783775 219.156396 
L 156.158345 219.172721 
L 158.532915 219.068102 
L 160.907485 219.11545 
L 163.282055 219.414194 
L 168.031195 220.264872 
L 170.405765 220.519615 
L 172.780335 220.897893 
L 179.904045 222.743969 
L 182.278615 223.034441 
L 184.653185 223.163088 
L 187.027755 223.114129 
L 191.776895 222.58848 
L 194.151465 222.866485 
L 198.900605 224.594916 
L 201.275175 225.15546 
L 203.649745 225.398328 
L 208.398884 225.52325 
L 213.148024 225.492325 
L 227.395444 224.624527 
L 229.770014 224.068216 
L 232.144584 223.143093 
L 234.519154 221.801614 
L 236.893724 220.198041 
L 239.268294 218.900518 
L 241.642864 218.587592 
L 244.017434 219.267582 
L 246.392004 220.241264 
L 248.766574 220.900828 
L 251.141144 221.272655 
L 253.515714 221.951399 
L 258.264854 224.135863 
L 260.639424 224.786861 
L 263.013994 224.878773 
L 265.388564 224.293803 
L 270.137704 221.943384 
L 272.512274 221.852531 
L 277.261414 223.887819 
L 279.635984 224.47775 
L 286.759694 225.157747 
L 289.134264 225.490536 
L 291.508834 225.652046 
L 298.632544 225.75663 
L 308.130824 226.441685 
L 312.879964 226.738323 
L 320.003674 226.799516 
L 329.501954 227.344785 
L 336.625664 227.212661 
L 348.498514 226.983264 
L 353.247654 227.041641 
L 357.996794 226.795114 
L 362.745934 226.597178 
L 386.491634 227.132751 
L 399.658594 227.064383 
L 399.658594 227.064383 
" clip-path="url(#p029379c316)" style="fill: none; stroke: #808080; stroke-opacity: 0.5; stroke-width: 0.5; stroke-linecap: square"/>
   </g>
   <g id="line2d_29">
    <path d="M 46.928125 222.184165 
L 49.302695 222.571228 
L 51.677265 222.195085 
L 56.426405 220.120266 
L 58.800975 219.564287 
L 61.175545 219.194461 
L 63.550115 217.901135 
L 65.924685 214.248445 
L 68.299255 207.52185 
L 70.673825 201.453169 
L 73.048395 202.329283 
L 75.422965 207.503881 
L 77.797535 211.661905 
L 80.172105 213.057786 
L 82.546675 211.356224 
L 84.921245 206.806743 
L 87.295815 201.388363 
L 89.670385 198.255201 
L 92.044955 198.151492 
L 94.419525 199.960108 
L 96.794095 203.480628 
L 101.543235 214.199357 
L 103.917805 217.905579 
L 106.292375 219.581767 
L 108.666945 219.630613 
L 111.041515 218.13377 
L 113.416085 214.945214 
L 115.790655 210.441396 
L 118.165225 206.225466 
L 120.539795 204.816834 
L 122.914365 207.128386 
L 125.288935 210.862333 
L 127.663505 213.491642 
L 130.038075 214.161154 
L 132.412645 212.984396 
L 134.787215 210.620599 
L 137.161785 208.6385 
L 139.536355 208.662361 
L 141.910925 210.292606 
L 144.285495 212.264325 
L 146.660065 214.03581 
L 151.409205 217.276118 
L 153.783775 218.993622 
L 156.158345 220.340184 
L 158.532915 220.839543 
L 160.907485 220.430322 
L 163.282055 219.497358 
L 165.656625 218.714961 
L 172.780335 217.880707 
L 175.154905 217.761659 
L 177.529475 218.194241 
L 184.653185 220.769713 
L 187.027755 221.172137 
L 191.776895 221.454231 
L 194.151465 221.503748 
L 196.526035 221.377121 
L 198.900605 221.002618 
L 201.275175 220.490229 
L 203.649745 220.134145 
L 206.024314 220.221966 
L 210.773454 221.104245 
L 213.148024 221.3512 
L 217.897164 221.617394 
L 220.271734 221.925086 
L 225.020874 222.767171 
L 227.395444 222.990686 
L 229.770014 222.97132 
L 244.017434 221.778082 
L 246.392004 222.077112 
L 251.141144 223.026784 
L 255.890284 223.493046 
L 263.013994 224.526272 
L 277.261414 225.208857 
L 284.385124 225.348491 
L 289.134264 225.450301 
L 291.508834 225.360884 
L 298.632544 224.787475 
L 308.130824 224.583211 
L 312.879964 224.968311 
L 317.629104 225.370333 
L 322.378244 225.668471 
L 329.501954 226.872448 
L 331.876524 226.96623 
L 334.251094 226.815913 
L 336.625664 226.459468 
L 341.374804 225.509758 
L 343.749374 225.177775 
L 346.123944 225.048399 
L 353.247654 225.020897 
L 357.996794 224.602827 
L 369.869644 223.078263 
L 372.244214 223.325701 
L 376.993354 224.288019 
L 381.742494 224.87383 
L 386.491634 225.18676 
L 388.866204 225.187254 
L 393.615344 224.840869 
L 398.364484 224.537904 
L 399.658594 224.520499 
L 399.658594 224.520499 
" clip-path="url(#p029379c316)" style="fill: none; stroke: #808080; stroke-opacity: 0.5; stroke-width: 0.5; stroke-linecap: square"/>
   </g>
   <g id="line2d_30">
    <path d="M 46.928125 198.46196 
L 49.302695 197.926116 
L 51.677265 193.703929 
L 54.051835 186.41189 
L 56.426405 179.595733 
L 58.800975 177.375619 
L 61.175545 177.371315 
L 63.550115 175.046965 
L 65.924685 170.953721 
L 68.299255 172.363305 
L 73.048395 192.56023 
L 75.422965 198.153218 
L 77.797535 199.655888 
L 80.172105 198.748626 
L 82.546675 197.119646 
L 84.921245 195.802367 
L 87.295815 195.167815 
L 89.670385 196.181895 
L 92.044955 199.54404 
L 94.419525 203.495997 
L 96.794095 206.171909 
L 99.168665 207.531322 
L 101.543235 208.43866 
L 106.292375 210.866509 
L 108.666945 211.688299 
L 111.041515 211.955891 
L 113.416085 212.010434 
L 115.790655 212.310153 
L 118.165225 213.357081 
L 120.539795 215.510926 
L 122.914365 218.382641 
L 125.288935 220.856782 
L 127.663505 222.080874 
L 130.038075 221.860471 
L 132.412645 220.345852 
L 134.787215 218.1979 
L 137.161785 217.252633 
L 139.536355 218.493508 
L 141.910925 220.342009 
L 144.285495 221.705862 
L 146.660065 222.59012 
L 151.409205 223.805333 
L 153.783775 224.287611 
L 156.158345 224.64751 
L 158.532915 224.873124 
L 163.282055 224.977519 
L 165.656625 224.854891 
L 172.780335 224.126493 
L 179.904045 224.361334 
L 184.653185 223.915446 
L 187.027755 224.067936 
L 194.151465 225.399186 
L 196.526035 225.51742 
L 198.900605 225.298317 
L 201.275175 224.785054 
L 203.649745 224.023653 
L 206.024314 222.938704 
L 208.398884 221.386532 
L 210.773454 219.521763 
L 213.148024 218.217146 
L 215.522594 218.324973 
L 220.271734 220.432595 
L 222.646304 220.984297 
L 225.020874 220.985088 
L 229.770014 220.299009 
L 232.144584 220.638825 
L 236.893724 222.467028 
L 239.268294 223.058311 
L 241.642864 223.254191 
L 244.017434 223.085612 
L 246.392004 222.618056 
L 251.141144 221.413388 
L 253.515714 221.172905 
L 255.890284 221.374037 
L 260.639424 222.19911 
L 263.013994 222.244759 
L 267.763134 221.736343 
L 270.137704 221.996104 
L 272.512274 222.903907 
L 274.886844 224.014579 
L 277.261414 224.868101 
L 279.635984 225.348649 
L 282.010554 225.564317 
L 286.759694 225.736661 
L 291.508834 225.697861 
L 298.632544 225.330417 
L 305.756254 225.247077 
L 312.879964 224.569456 
L 315.254534 224.831302 
L 320.003674 225.836382 
L 322.378244 226.106449 
L 331.876524 226.830676 
L 334.251094 226.776777 
L 336.625664 226.445256 
L 339.000234 225.872955 
L 343.749374 224.580556 
L 346.123944 224.338765 
L 348.498514 224.597476 
L 353.247654 225.611615 
L 355.622224 225.874505 
L 357.996794 225.926372 
L 360.371364 225.819741 
L 367.495074 225.118615 
L 369.869644 225.103263 
L 374.618784 225.363421 
L 376.993354 225.328183 
L 384.117064 224.723188 
L 391.240774 224.955394 
L 395.989914 224.669464 
L 398.364484 224.793477 
L 399.658594 225.012567 
L 399.658594 225.012567 
" clip-path="url(#p029379c316)" style="fill: none; stroke: #808080; stroke-opacity: 0.5; stroke-width: 0.5; stroke-linecap: square"/>
   </g>
   <g id="line2d_31">
    <path d="M 46.928125 226.618415 
L 49.302695 226.287168 
L 56.426405 225.768841 
L 58.800975 224.915277 
L 61.175545 223.619084 
L 63.550115 222.668588 
L 65.924685 222.709222 
L 70.673825 223.999892 
L 73.048395 224.325981 
L 82.546675 224.807683 
L 84.921245 224.482692 
L 89.670385 222.856663 
L 92.044955 222.544227 
L 96.794095 222.789116 
L 103.917805 222.423639 
L 106.292375 222.079058 
L 108.666945 221.555742 
L 111.041515 221.264897 
L 113.416085 221.465264 
L 118.165225 222.345402 
L 122.914365 222.572984 
L 127.663505 223.091328 
L 130.038075 222.839334 
L 132.412645 222.004346 
L 134.787215 220.610447 
L 139.536355 216.938932 
L 141.910925 216.133542 
L 144.285495 217.128169 
L 146.660065 218.818555 
L 149.034635 220.017578 
L 151.409205 220.564452 
L 158.532915 221.126794 
L 160.907485 221.122091 
L 163.282055 220.829825 
L 168.031195 219.846273 
L 170.405765 219.842286 
L 172.780335 220.615419 
L 175.154905 221.849864 
L 177.529475 222.806346 
L 179.904045 222.857584 
L 182.278615 221.773023 
L 184.653185 220.07314 
L 187.027755 218.974393 
L 189.402325 218.974073 
L 191.776895 219.437617 
L 194.151465 219.666655 
L 196.526035 219.283231 
L 198.900605 218.373297 
L 201.275175 217.847276 
L 203.649745 218.753454 
L 206.024314 220.540332 
L 208.398884 221.793678 
L 210.773454 221.928244 
L 213.148024 221.000162 
L 215.522594 219.208336 
L 217.897164 216.798563 
L 222.646304 211.445669 
L 225.020874 209.82124 
L 227.395444 210.013801 
L 229.770014 211.596327 
L 232.144584 213.346138 
L 234.519154 214.50432 
L 239.268294 215.834813 
L 241.642864 216.942086 
L 246.392004 219.946036 
L 248.766574 221.055261 
L 251.141144 221.627976 
L 253.515714 221.798344 
L 258.264854 221.759361 
L 260.639424 221.643779 
L 263.013994 221.23883 
L 267.763134 219.514051 
L 270.137704 219.281953 
L 272.512274 219.925617 
L 277.261414 222.049278 
L 279.635984 222.812122 
L 282.010554 223.262795 
L 284.385124 223.465348 
L 293.883404 223.637031 
L 298.632544 223.880529 
L 303.381684 224.015939 
L 308.130824 224.737371 
L 312.879964 225.555384 
L 315.254534 225.856577 
L 317.629104 226.021729 
L 324.752814 226.19346 
L 331.876524 226.620924 
L 334.251094 226.597584 
L 336.625664 226.444358 
L 343.749374 225.587961 
L 353.247654 225.224155 
L 355.622224 225.130062 
L 357.996794 225.259177 
L 362.745934 225.723907 
L 365.120504 225.741242 
L 367.495074 225.549833 
L 374.618784 224.464157 
L 376.993354 224.340957 
L 379.367924 224.4124 
L 384.117064 224.900568 
L 391.240774 225.813106 
L 399.658594 226.558797 
L 399.658594 226.558797 
" clip-path="url(#p029379c316)" style="fill: none; stroke: #808080; stroke-opacity: 0.5; stroke-width: 0.5; stroke-linecap: square"/>
   </g>
   <g id="line2d_32">
    <path d="M 46.928125 214.201002 
L 49.302695 214.115963 
L 51.677265 213.153594 
L 54.051835 211.405227 
L 56.426405 209.291469 
L 58.800975 207.836003 
L 61.175545 207.656442 
L 63.550115 208.062512 
L 65.924685 208.671248 
L 68.299255 209.532313 
L 70.673825 210.752076 
L 73.048395 212.181961 
L 75.422965 213.321587 
L 77.797535 213.902303 
L 80.172105 213.92948 
L 82.546675 213.448248 
L 84.921245 212.659075 
L 87.295815 212.074998 
L 89.670385 212.232531 
L 92.044955 213.156462 
L 94.419525 214.257986 
L 96.794095 214.986151 
L 99.168665 215.279658 
L 103.917805 215.286603 
L 108.666945 215.26808 
L 111.041515 215.526568 
L 113.416085 216.032221 
L 115.790655 216.757975 
L 122.914365 219.365935 
L 125.288935 219.979146 
L 127.663505 220.249542 
L 130.038075 220.112861 
L 132.412645 219.633182 
L 134.787215 219.036193 
L 137.161785 218.685816 
L 139.536355 218.793722 
L 141.910925 219.225921 
L 151.409205 221.489616 
L 153.783775 221.928392 
L 156.158345 222.224476 
L 160.907485 222.487741 
L 179.904045 223.211968 
L 184.653185 222.908142 
L 189.402325 222.987336 
L 194.151465 223.012844 
L 201.275175 222.947676 
L 206.024314 223.005142 
L 208.398884 222.862006 
L 210.773454 222.435472 
L 217.897164 220.436728 
L 220.271734 220.087882 
L 225.020874 219.845773 
L 229.770014 219.925637 
L 236.893724 220.485775 
L 241.642864 220.502189 
L 251.141144 220.987118 
L 253.515714 221.206325 
L 255.890284 221.662214 
L 260.639424 222.789516 
L 263.013994 223.048743 
L 265.388564 222.94226 
L 267.763134 222.618688 
L 270.137704 222.418676 
L 272.512274 222.61139 
L 279.635984 224.213503 
L 284.385124 224.713198 
L 289.134264 225.080516 
L 291.508834 225.122201 
L 303.381684 224.815037 
L 310.505394 225.112041 
L 317.629104 225.669347 
L 331.876524 226.754864 
L 334.251094 226.684406 
L 339.000234 226.239435 
L 343.749374 225.693096 
L 346.123944 225.528551 
L 350.873084 225.549318 
L 357.996794 225.703456 
L 365.120504 225.670144 
L 376.993354 225.38613 
L 384.117064 225.504131 
L 388.866204 225.674474 
L 398.364484 225.801011 
L 399.658594 225.873751 
L 399.658594 225.873751 
" clip-path="url(#p029379c316)" style="fill: none; stroke: #000000; stroke-width: 1.5; stroke-linecap: square"/>
   </g>
   <g id="line2d_33">
    <defs>
     <path id="m85aa210121" d="M 0 2.5 
C 0.663008 2.5 1.29895 2.236584 1.767767 1.767767 
C 2.236584 1.29895 2.5 0.663008 2.5 0 
C 2.5 -0.663008 2.236584 -1.29895 1.767767 -1.767767 
C 1.29895 -2.236584 0.663008 -2.5 0 -2.5 
C -0.663008 -2.5 -1.29895 -2.236584 -1.767767 -1.767767 
C -2.236584 -1.29895 -2.5 -0.663008 -2.5 0 
C -2.5 0.663008 -2.236584 1.29895 -1.767767 1.767767 
C -1.29895 2.236584 -0.663008 2.5 0 2.5 
z
" style="stroke: #ffffff; stroke-width: 0.5"/>
    </defs>
    <g clip-path="url(#p029379c316)">
     <use xlink:href="#m85aa210121" x="61.175545" y="207.656442" style="fill: #ff0000; stroke: #ffffff; stroke-width: 0.5"/>
    </g>
   </g>
   <g id="patch_3">
    <path d="M 46.928125 228.96 
L 46.928125 7.2 
" style="fill: none; stroke: #000000; stroke-width: 0.8; stroke-linejoin: miter; stroke-linecap: square"/>
   </g>
   <g id="patch_4">
    <path d="M 46.928125 228.96 
L 381.728125 228.96 
" style="fill: none; stroke: #000000; stroke-width: 0.8; stroke-linejoin: miter; stroke-linecap: square"/>
   </g>
  </g>
 </g>
 <defs>
  <clipPath id="p029379c316">
   <rect x="46.928125" y="7.2" width="334.8" height="221.76"/>
  </clipPath>
 </defs>
</svg>
