<?xml version="1.0" encoding="utf-8" standalone="no"?>
<!DOCTYPE svg PUBLIC "-//W3C//DTD SVG 1.1//EN"
  "http://www.w3.org/Graphics/SVG/1.1/DTD/svg11.dtd">
<svg xmlns:xlink="http://www.w3.org/1999/xlink" width="398.658594pt" height="265.689687pt" viewBox="0 0 398.658594 265.689687" xmlns="http://www.w3.org/2000/svg" version="1.1">
 <metadata>
  <rdf:RDF xmlns:dc="http://purl.org/dc/elements/1.1/" xmlns:cc="http://creativecommons.org/ns#" xmlns:rdf="http://www.w3.org/1999/02/22-rdf-syntax-ns#">
   <cc:Work>
    <dc:type rdf:resource="http://purl.org/dc/dcmitype/StillImage"/>
    <dc:date>2024-09-14T12:48:51.859578</dc:date>
    <dc:format>image/svg+xml</dc:format>
    <dc:creator>
     <cc:Agent>
      <dc:title>Matplotlib v3.9.2, https://matplotlib.org/</dc:title>
     </cc:Agent>
    </dc:creator>
   </cc:Work>
  </rdf:RDF>
 </metadata>
 <defs>
  <style type="text/css">*{stroke-linejoin: round; stroke-linecap: butt}</style>
 </defs>
 <g id="figure_1">
  <g id="patch_1">
   <path d="M 0 265.689687 
L 398.658594 265.689687 
L 398.658594 0 
L 0 0 
z
" style="fill: #ffffff"/>
  </g>
  <g id="axes_1">
   <g id="patch_2">
    <path d="M 46.928125 228.96 
L 381.728125 228.96 
L 381.728125 7.2 
L 46.928125 7.2 
z
" style="fill: #ffffff"/>
   </g>
   <g id="PolyCollection_1">
    <path d="M 46.928125 194.357036 
L 46.928125 221.273598 
L 49.302695 221.120833 
L 51.677265 221.006847 
L 54.051835 220.970752 
L 56.426405 221.006717 
L 58.800975 221.007528 
L 61.175545 220.897136 
L 63.550115 220.707434 
L 65.924685 220.492719 
L 68.299255 220.349559 
L 70.673825 220.414805 
L 73.048395 220.732763 
L 75.422965 221.251911 
L 77.797535 221.885041 
L 80.172105 222.506543 
L 82.546675 222.962637 
L 84.921245 223.152938 
L 87.295815 223.155776 
L 89.670385 223.067042 
L 92.044955 222.882544 
L 94.419525 222.58576 
L 96.794095 222.255963 
L 99.168665 222.065189 
L 101.543235 222.078753 
L 103.917805 222.19406 
L 106.292375 222.298567 
L 108.666945 222.345525 
L 111.041515 222.346813 
L 113.416085 222.357043 
L 115.790655 222.452026 
L 118.165225 222.637949 
L 120.539795 222.880028 
L 122.914365 223.11234 
L 125.288935 223.265706 
L 127.663505 223.34659 
L 130.038075 223.39408 
L 132.412645 223.367129 
L 134.787215 223.235495 
L 137.161785 223.09203 
L 139.536355 223.045347 
L 141.910925 223.116469 
L 144.285495 223.259474 
L 146.660065 223.391753 
L 149.034635 223.42129 
L 151.409205 223.352679 
L 153.783775 223.253869 
L 156.158345 223.177994 
L 158.532915 223.128367 
L 160.907485 223.033864 
L 163.282055 222.85017 
L 165.656625 222.653332 
L 168.031195 222.510246 
L 170.405765 222.394444 
L 172.780335 222.276117 
L 175.154905 222.165355 
L 177.529475 222.075756 
L 179.904045 222.019693 
L 182.278615 221.991957 
L 184.653185 221.944917 
L 187.027755 221.898037 
L 189.402325 221.910305 
L 191.776895 221.9673 
L 194.151465 222.035939 
L 196.526035 222.142288 
L 198.900605 222.290258 
L 201.275175 222.479965 
L 203.649745 222.73429 
L 206.024314 223.0067 
L 208.398884 223.236965 
L 210.773454 223.462955 
L 213.148024 223.776382 
L 215.522594 224.161612 
L 217.897164 224.499724 
L 220.271734 224.70016 
L 222.646304 224.77661 
L 225.020874 224.792206 
L 227.395444 224.782306 
L 229.770014 224.771915 
L 232.144584 224.777982 
L 234.519154 224.776515 
L 236.893724 224.786952 
L 239.268294 224.834696 
L 241.642864 224.85875 
L 244.017434 224.789388 
L 246.392004 224.637687 
L 248.766574 224.501028 
L 251.141144 224.458737 
L 253.515714 224.502185 
L 255.890284 224.599782 
L 258.264854 224.698368 
L 260.639424 224.689475 
L 263.013994 224.492715 
L 265.388564 224.126055 
L 267.763134 223.739343 
L 270.137704 223.563418 
L 272.512274 223.709839 
L 274.886844 224.061994 
L 277.261414 224.424964 
L 279.635984 224.702413 
L 282.010554 224.868477 
L 284.385124 224.885347 
L 286.759694 224.789635 
L 289.134264 224.698998 
L 291.508834 224.682285 
L 293.883404 224.731981 
L 296.257974 224.864217 
L 298.632544 225.097433 
L 301.007114 225.347793 
L 303.381684 225.515602 
L 305.756254 225.569698 
L 308.130824 225.543976 
L 310.505394 225.495601 
L 312.879964 225.456111 
L 315.254534 225.384319 
L 317.629104 225.201319 
L 320.003674 224.863303 
L 322.378244 224.418862 
L 324.752814 224.065834 
L 327.127384 223.957639 
L 329.501954 223.925925 
L 331.876524 223.77128 
L 334.251094 223.470903 
L 336.625664 223.176096 
L 339.000234 223.135304 
L 341.374804 223.446972 
L 343.749374 223.931847 
L 346.123944 224.381464 
L 348.498514 224.709307 
L 350.873084 224.913857 
L 353.247654 225.022858 
L 355.622224 225.049502 
L 357.996794 224.998309 
L 360.371364 224.888279 
L 362.745934 224.791871 
L 365.120504 224.822056 
L 367.495074 224.992007 
L 369.869644 225.175525 
L 372.244214 225.261503 
L 374.618784 225.251936 
L 376.993354 225.213648 
L 379.367924 225.213423 
L 381.742494 225.271656 
L 384.117064 225.360407 
L 386.491634 225.443349 
L 388.866204 225.498051 
L 391.240774 225.503742 
L 393.615344 225.447894 
L 395.989914 225.368617 
L 398.364484 225.344536 
L 400.739054 225.394563 
L 403.113624 225.463591 
L 405.488194 225.499036 
L 407.862764 225.496461 
L 410.237334 225.486968 
L 412.611904 225.49551 
L 414.986474 225.51747 
L 417.361044 225.524899 
L 419.735614 225.506803 
L 422.110184 225.470965 
L 424.484754 225.429195 
L 426.859324 225.388017 
L 429.233894 225.347494 
L 431.608464 225.302585 
L 433.983034 225.244555 
L 436.357604 225.159157 
L 438.732174 225.025686 
L 441.106744 224.844514 
L 443.481314 224.657337 
L 445.855884 224.504249 
L 448.230454 224.392086 
L 450.605024 224.308103 
L 452.979594 224.262219 
L 455.354164 224.305967 
L 457.728734 224.478292 
L 460.103304 224.738774 
L 462.477874 225.008703 
L 464.852444 225.227939 
L 467.227014 225.374011 
L 469.601584 225.470334 
L 471.976154 225.545283 
L 474.350724 225.589191 
L 476.725294 225.549942 
L 479.099864 225.392477 
L 481.474434 225.149469 
L 483.849004 224.882142 
L 486.223574 224.630921 
L 488.598144 224.408564 
L 490.972714 224.232057 
L 493.347284 224.1095 
L 495.721854 224.005393 
L 498.096424 223.881769 
L 500.470994 223.737193 
L 502.845564 223.593338 
L 505.220134 223.466911 
L 507.594704 223.364926 
L 509.969274 223.285852 
L 512.343844 223.203832 
L 514.718414 223.115592 
L 517.092984 223.078061 
L 519.467554 223.143483 
L 519.467554 218.158024 
L 519.467554 218.158024 
L 517.092984 218.533211 
L 514.718414 218.483944 
L 512.343844 218.049471 
L 509.969274 217.377559 
L 507.594704 216.634103 
L 505.220134 215.937472 
L 502.845564 215.326873 
L 500.470994 214.841192 
L 498.096424 214.604778 
L 495.721854 214.801491 
L 493.347284 215.49311 
L 490.972714 216.46438 
L 488.598144 217.430208 
L 486.223574 218.243644 
L 483.849004 218.791199 
L 481.474434 218.976782 
L 479.099864 218.85811 
L 476.725294 218.631103 
L 474.350724 218.493669 
L 471.976154 218.512729 
L 469.601584 218.662751 
L 467.227014 218.873905 
L 464.852444 219.047012 
L 462.477874 219.131499 
L 460.103304 219.194149 
L 457.728734 219.330774 
L 455.354164 219.513357 
L 452.979594 219.653668 
L 450.605024 219.745592 
L 448.230454 219.897194 
L 445.855884 220.190923 
L 443.481314 220.581115 
L 441.106744 220.962362 
L 438.732174 221.229935 
L 436.357604 221.354933 
L 433.983034 221.405174 
L 431.608464 221.492027 
L 429.233894 221.694079 
L 426.859324 222.009981 
L 424.484754 222.36014 
L 422.110184 222.653635 
L 419.735614 222.878559 
L 417.361044 223.101635 
L 414.986474 223.352143 
L 412.611904 223.54794 
L 410.237334 223.611464 
L 407.862764 223.565656 
L 405.488194 223.505498 
L 403.113624 223.548668 
L 400.739054 223.726066 
L 398.364484 223.922973 
L 395.989914 223.982847 
L 393.615344 223.847231 
L 391.240774 223.584853 
L 388.866204 223.305596 
L 386.491634 223.090792 
L 384.117064 222.956004 
L 381.742494 222.872029 
L 379.367924 222.812546 
L 376.993354 222.749475 
L 374.618784 222.648894 
L 372.244214 222.496289 
L 369.869644 222.317452 
L 367.495074 222.159026 
L 365.120504 222.045033 
L 362.745934 222.010809 
L 360.371364 222.109314 
L 357.996794 222.288022 
L 355.622224 222.351989 
L 353.247654 222.166306 
L 350.873084 221.761305 
L 348.498514 221.259006 
L 346.123944 220.771289 
L 343.749374 220.371998 
L 341.374804 220.128734 
L 339.000234 220.000586 
L 336.625664 219.865055 
L 334.251094 219.762418 
L 331.876524 219.869212 
L 329.501954 220.283095 
L 327.127384 220.896761 
L 324.752814 221.421603 
L 322.378244 221.658151 
L 320.003674 221.78076 
L 317.629104 221.963147 
L 315.254534 222.163494 
L 312.879964 222.316759 
L 310.505394 222.427644 
L 308.130824 222.54815 
L 305.756254 222.707281 
L 303.381684 222.862229 
L 301.007114 222.971825 
L 298.632544 223.018766 
L 296.257974 222.94761 
L 293.883404 222.684616 
L 291.508834 222.277563 
L 289.134264 221.846188 
L 286.759694 221.542891 
L 284.385124 221.507689 
L 282.010554 221.645738 
L 279.635984 221.596685 
L 277.261414 221.165974 
L 274.886844 220.661554 
L 272.512274 220.516334 
L 270.137704 220.763722 
L 267.763134 221.165856 
L 265.388564 221.560847 
L 263.013994 221.895029 
L 260.639424 222.104692 
L 258.264854 222.101816 
L 255.890284 221.827121 
L 253.515714 221.346695 
L 251.141144 220.895268 
L 248.766574 220.626613 
L 246.392004 220.463146 
L 244.017434 220.344535 
L 241.642864 220.295757 
L 239.268294 220.262737 
L 236.893724 220.141026 
L 234.519154 219.893759 
L 232.144584 219.58848 
L 229.770014 219.237884 
L 227.395444 218.800528 
L 225.020874 218.300266 
L 222.646304 217.654824 
L 220.271734 216.777072 
L 217.897164 215.817209 
L 215.522594 215.10438 
L 213.148024 214.880918 
L 210.773454 215.042154 
L 208.398884 215.152074 
L 206.024314 214.847742 
L 203.649745 214.019759 
L 201.275175 212.961155 
L 198.900605 212.230565 
L 196.526035 211.890119 
L 194.151465 211.37546 
L 191.776895 210.48448 
L 189.402325 209.730847 
L 187.027755 209.49853 
L 184.653185 209.506141 
L 182.278615 209.24365 
L 179.904045 208.476907 
L 177.529475 207.446957 
L 175.154905 206.767102 
L 172.780335 206.565057 
L 170.405765 206.492472 
L 168.031195 206.48138 
L 165.656625 206.816796 
L 163.282055 207.739374 
L 160.907485 209.176255 
L 158.532915 210.736567 
L 156.158345 211.808996 
L 153.783775 212.148591 
L 151.409205 212.049913 
L 149.034635 211.89507 
L 146.660065 211.929802 
L 144.285495 212.137556 
L 141.910925 212.34294 
L 139.536355 212.575614 
L 137.161785 212.777144 
L 134.787215 212.853477 
L 132.412645 212.918752 
L 130.038075 213.013878 
L 127.663505 212.923695 
L 125.288935 212.650045 
L 122.914365 212.482185 
L 120.539795 212.546834 
L 118.165225 212.804849 
L 115.790655 213.12471 
L 113.416085 213.367419 
L 111.041515 213.358883 
L 108.666945 213.002694 
L 106.292375 212.409789 
L 103.917805 211.866174 
L 101.543235 211.46225 
L 99.168665 211.178535 
L 96.794095 210.917233 
L 94.419525 210.469851 
L 92.044955 209.781174 
L 89.670385 209.006498 
L 87.295815 208.351735 
L 84.921245 207.928811 
L 82.546675 207.663691 
L 80.172105 207.349874 
L 77.797535 206.961225 
L 75.422965 206.499572 
L 73.048395 205.898631 
L 70.673825 205.473533 
L 68.299255 205.227819 
L 65.924685 204.648124 
L 63.550115 203.446314 
L 61.175545 201.787691 
L 58.800975 200.32348 
L 56.426405 199.590298 
L 54.051835 199.217198 
L 51.677265 198.434538 
L 49.302695 196.891112 
L 46.928125 194.357036 
z
" clip-path="url(#p23546ffd4e)" style="fill: #808080; fill-opacity: 0.5; stroke: #808080; stroke-opacity: 0.5"/>
   </g>
   <g id="matplotlib.axis_1">
    <g id="xtick_1">
     <g id="line2d_1">
      <defs>
       <path id="m0bac9bc8fa" d="M 0 0 
L 0 3.5 
" style="stroke: #000000; stroke-width: 0.8"/>
      </defs>
      <g>
       <use xlink:href="#m0bac9bc8fa" x="184.667554" y="228.96" style="stroke: #000000; stroke-width: 0.8"/>
      </g>
     </g>
     <g id="text_1">
      <!-- 1.0 -->
      <g transform="translate(177.717554 243.117812) scale(0.1 -0.1)">
       <defs>
        <path id="ArialMT-31" d="M 2384 0 
L 1822 0 
L 1822 3584 
Q 1619 3391 1289 3197 
Q 959 3003 697 2906 
L 697 3450 
Q 1169 3672 1522 3987 
Q 1875 4303 2022 4600 
L 2384 4600 
L 2384 0 
z
" transform="scale(0.015625)"/>
        <path id="ArialMT-2e" d="M 581 0 
L 581 641 
L 1222 641 
L 1222 0 
L 581 0 
z
" transform="scale(0.015625)"/>
        <path id="ArialMT-30" d="M 266 2259 
Q 266 3072 433 3567 
Q 600 4063 929 4331 
Q 1259 4600 1759 4600 
Q 2128 4600 2406 4451 
Q 2684 4303 2865 4023 
Q 3047 3744 3150 3342 
Q 3253 2941 3253 2259 
Q 3253 1453 3087 958 
Q 2922 463 2592 192 
Q 2263 -78 1759 -78 
Q 1097 -78 719 397 
Q 266 969 266 2259 
z
M 844 2259 
Q 844 1131 1108 757 
Q 1372 384 1759 384 
Q 2147 384 2411 759 
Q 2675 1134 2675 2259 
Q 2675 3391 2411 3762 
Q 2147 4134 1753 4134 
Q 1366 4134 1134 3806 
Q 844 3388 844 2259 
z
" transform="scale(0.015625)"/>
       </defs>
       <use xlink:href="#ArialMT-31"/>
       <use xlink:href="#ArialMT-2e" x="55.615234"/>
       <use xlink:href="#ArialMT-30" x="83.398438"/>
      </g>
     </g>
    </g>
    <g id="xtick_2">
     <g id="line2d_2">
      <g>
       <use xlink:href="#m0bac9bc8fa" x="381.728125" y="228.96" style="stroke: #000000; stroke-width: 0.8"/>
      </g>
     </g>
     <g id="text_2">
      <!-- 10.0 -->
      <g transform="translate(371.997656 243.117812) scale(0.1 -0.1)">
       <use xlink:href="#ArialMT-31"/>
       <use xlink:href="#ArialMT-30" x="55.615234"/>
       <use xlink:href="#ArialMT-2e" x="111.230469"/>
       <use xlink:href="#ArialMT-30" x="139.013672"/>
      </g>
     </g>
    </g>
    <g id="xtick_3">
     <g id="line2d_3">
      <defs>
       <path id="m1ab6d76c72" d="M 0 0 
L 0 2 
" style="stroke: #000000; stroke-width: 0.6"/>
      </defs>
      <g>
       <use xlink:href="#m1ab6d76c72" x="46.928125" y="228.96" style="stroke: #000000; stroke-width: 0.6"/>
      </g>
     </g>
    </g>
    <g id="xtick_4">
     <g id="line2d_4">
      <g>
       <use xlink:href="#m1ab6d76c72" x="81.628769" y="228.96" style="stroke: #000000; stroke-width: 0.6"/>
      </g>
     </g>
    </g>
    <g id="xtick_5">
     <g id="line2d_5">
      <g>
       <use xlink:href="#m1ab6d76c72" x="106.249268" y="228.96" style="stroke: #000000; stroke-width: 0.6"/>
      </g>
     </g>
    </g>
    <g id="xtick_6">
     <g id="line2d_6">
      <g>
       <use xlink:href="#m1ab6d76c72" x="125.346411" y="228.96" style="stroke: #000000; stroke-width: 0.6"/>
      </g>
     </g>
    </g>
    <g id="xtick_7">
     <g id="line2d_7">
      <g>
       <use xlink:href="#m1ab6d76c72" x="140.949912" y="228.96" style="stroke: #000000; stroke-width: 0.6"/>
      </g>
     </g>
    </g>
    <g id="xtick_8">
     <g id="line2d_8">
      <g>
       <use xlink:href="#m1ab6d76c72" x="154.142485" y="228.96" style="stroke: #000000; stroke-width: 0.6"/>
      </g>
     </g>
    </g>
    <g id="xtick_9">
     <g id="line2d_9">
      <g>
       <use xlink:href="#m1ab6d76c72" x="165.570411" y="228.96" style="stroke: #000000; stroke-width: 0.6"/>
      </g>
     </g>
    </g>
    <g id="xtick_10">
     <g id="line2d_10">
      <g>
       <use xlink:href="#m1ab6d76c72" x="175.650556" y="228.96" style="stroke: #000000; stroke-width: 0.6"/>
      </g>
     </g>
    </g>
    <g id="xtick_11">
     <g id="line2d_11">
      <g>
       <use xlink:href="#m1ab6d76c72" x="243.988696" y="228.96" style="stroke: #000000; stroke-width: 0.6"/>
      </g>
     </g>
    </g>
    <g id="xtick_12">
     <g id="line2d_12">
      <g>
       <use xlink:href="#m1ab6d76c72" x="278.689341" y="228.96" style="stroke: #000000; stroke-width: 0.6"/>
      </g>
     </g>
    </g>
    <g id="xtick_13">
     <g id="line2d_13">
      <g>
       <use xlink:href="#m1ab6d76c72" x="303.309839" y="228.96" style="stroke: #000000; stroke-width: 0.6"/>
      </g>
     </g>
    </g>
    <g id="xtick_14">
     <g id="line2d_14">
      <g>
       <use xlink:href="#m1ab6d76c72" x="322.406982" y="228.96" style="stroke: #000000; stroke-width: 0.6"/>
      </g>
     </g>
    </g>
    <g id="xtick_15">
     <g id="line2d_15">
      <g>
       <use xlink:href="#m1ab6d76c72" x="338.010484" y="228.96" style="stroke: #000000; stroke-width: 0.6"/>
      </g>
     </g>
    </g>
    <g id="xtick_16">
     <g id="line2d_16">
      <g>
       <use xlink:href="#m1ab6d76c72" x="351.203056" y="228.96" style="stroke: #000000; stroke-width: 0.6"/>
      </g>
     </g>
    </g>
    <g id="xtick_17">
     <g id="line2d_17">
      <g>
       <use xlink:href="#m1ab6d76c72" x="362.630982" y="228.96" style="stroke: #000000; stroke-width: 0.6"/>
      </g>
     </g>
    </g>
    <g id="xtick_18">
     <g id="line2d_18">
      <g>
       <use xlink:href="#m1ab6d76c72" x="372.711128" y="228.96" style="stroke: #000000; stroke-width: 0.6"/>
      </g>
     </g>
    </g>
    <g id="text_3">
     <!-- Frequency (Hz) -->
     <g transform="translate(179.877344 256.385) scale(0.1 -0.1)">
      <defs>
       <path id="ArialMT-46" d="M 525 0 
L 525 4581 
L 3616 4581 
L 3616 4041 
L 1131 4041 
L 1131 2622 
L 3281 2622 
L 3281 2081 
L 1131 2081 
L 1131 0 
L 525 0 
z
" transform="scale(0.015625)"/>
       <path id="ArialMT-72" d="M 416 0 
L 416 3319 
L 922 3319 
L 922 2816 
Q 1116 3169 1280 3281 
Q 1444 3394 1641 3394 
Q 1925 3394 2219 3213 
L 2025 2691 
Q 1819 2813 1613 2813 
Q 1428 2813 1281 2702 
Q 1134 2591 1072 2394 
Q 978 2094 978 1738 
L 978 0 
L 416 0 
z
" transform="scale(0.015625)"/>
       <path id="ArialMT-65" d="M 2694 1069 
L 3275 997 
Q 3138 488 2766 206 
Q 2394 -75 1816 -75 
Q 1088 -75 661 373 
Q 234 822 234 1631 
Q 234 2469 665 2931 
Q 1097 3394 1784 3394 
Q 2450 3394 2872 2941 
Q 3294 2488 3294 1666 
Q 3294 1616 3291 1516 
L 816 1516 
Q 847 969 1125 678 
Q 1403 388 1819 388 
Q 2128 388 2347 550 
Q 2566 713 2694 1069 
z
M 847 1978 
L 2700 1978 
Q 2663 2397 2488 2606 
Q 2219 2931 1791 2931 
Q 1403 2931 1139 2672 
Q 875 2413 847 1978 
z
" transform="scale(0.015625)"/>
       <path id="ArialMT-71" d="M 2538 -1272 
L 2538 353 
Q 2406 169 2170 47 
Q 1934 -75 1669 -75 
Q 1078 -75 651 397 
Q 225 869 225 1691 
Q 225 2191 398 2587 
Q 572 2984 901 3189 
Q 1231 3394 1625 3394 
Q 2241 3394 2594 2875 
L 2594 3319 
L 3100 3319 
L 3100 -1272 
L 2538 -1272 
z
M 803 1669 
Q 803 1028 1072 708 
Q 1341 388 1716 388 
Q 2075 388 2334 692 
Q 2594 997 2594 1619 
Q 2594 2281 2320 2615 
Q 2047 2950 1678 2950 
Q 1313 2950 1058 2639 
Q 803 2328 803 1669 
z
" transform="scale(0.015625)"/>
       <path id="ArialMT-75" d="M 2597 0 
L 2597 488 
Q 2209 -75 1544 -75 
Q 1250 -75 995 37 
Q 741 150 617 320 
Q 494 491 444 738 
Q 409 903 409 1263 
L 409 3319 
L 972 3319 
L 972 1478 
Q 972 1038 1006 884 
Q 1059 663 1231 536 
Q 1403 409 1656 409 
Q 1909 409 2131 539 
Q 2353 669 2445 892 
Q 2538 1116 2538 1541 
L 2538 3319 
L 3100 3319 
L 3100 0 
L 2597 0 
z
" transform="scale(0.015625)"/>
       <path id="ArialMT-6e" d="M 422 0 
L 422 3319 
L 928 3319 
L 928 2847 
Q 1294 3394 1984 3394 
Q 2284 3394 2536 3286 
Q 2788 3178 2913 3003 
Q 3038 2828 3088 2588 
Q 3119 2431 3119 2041 
L 3119 0 
L 2556 0 
L 2556 2019 
Q 2556 2363 2490 2533 
Q 2425 2703 2258 2804 
Q 2091 2906 1866 2906 
Q 1506 2906 1245 2678 
Q 984 2450 984 1813 
L 984 0 
L 422 0 
z
" transform="scale(0.015625)"/>
       <path id="ArialMT-63" d="M 2588 1216 
L 3141 1144 
Q 3050 572 2676 248 
Q 2303 -75 1759 -75 
Q 1078 -75 664 370 
Q 250 816 250 1647 
Q 250 2184 428 2587 
Q 606 2991 970 3192 
Q 1334 3394 1763 3394 
Q 2303 3394 2647 3120 
Q 2991 2847 3088 2344 
L 2541 2259 
Q 2463 2594 2264 2762 
Q 2066 2931 1784 2931 
Q 1359 2931 1093 2626 
Q 828 2322 828 1663 
Q 828 994 1084 691 
Q 1341 388 1753 388 
Q 2084 388 2306 591 
Q 2528 794 2588 1216 
z
" transform="scale(0.015625)"/>
       <path id="ArialMT-79" d="M 397 -1278 
L 334 -750 
Q 519 -800 656 -800 
Q 844 -800 956 -737 
Q 1069 -675 1141 -563 
Q 1194 -478 1313 -144 
Q 1328 -97 1363 -6 
L 103 3319 
L 709 3319 
L 1400 1397 
Q 1534 1031 1641 628 
Q 1738 1016 1872 1384 
L 2581 3319 
L 3144 3319 
L 1881 -56 
Q 1678 -603 1566 -809 
Q 1416 -1088 1222 -1217 
Q 1028 -1347 759 -1347 
Q 597 -1347 397 -1278 
z
" transform="scale(0.015625)"/>
       <path id="ArialMT-20" transform="scale(0.015625)"/>
       <path id="ArialMT-28" d="M 1497 -1347 
Q 1031 -759 709 28 
Q 388 816 388 1659 
Q 388 2403 628 3084 
Q 909 3875 1497 4659 
L 1900 4659 
Q 1522 4009 1400 3731 
Q 1209 3300 1100 2831 
Q 966 2247 966 1656 
Q 966 153 1900 -1347 
L 1497 -1347 
z
" transform="scale(0.015625)"/>
       <path id="ArialMT-48" d="M 513 0 
L 513 4581 
L 1119 4581 
L 1119 2700 
L 3500 2700 
L 3500 4581 
L 4106 4581 
L 4106 0 
L 3500 0 
L 3500 2159 
L 1119 2159 
L 1119 0 
L 513 0 
z
" transform="scale(0.015625)"/>
       <path id="ArialMT-7a" d="M 125 0 
L 125 456 
L 2238 2881 
Q 1878 2863 1603 2863 
L 250 2863 
L 250 3319 
L 2963 3319 
L 2963 2947 
L 1166 841 
L 819 456 
Q 1197 484 1528 484 
L 3063 484 
L 3063 0 
L 125 0 
z
" transform="scale(0.015625)"/>
       <path id="ArialMT-29" d="M 791 -1347 
L 388 -1347 
Q 1322 153 1322 1656 
Q 1322 2244 1188 2822 
Q 1081 3291 891 3722 
Q 769 4003 388 4659 
L 791 4659 
Q 1378 3875 1659 3084 
Q 1900 2403 1900 1659 
Q 1900 816 1576 28 
Q 1253 -759 791 -1347 
z
" transform="scale(0.015625)"/>
      </defs>
      <use xlink:href="#ArialMT-46"/>
      <use xlink:href="#ArialMT-72" x="61.083984"/>
      <use xlink:href="#ArialMT-65" x="94.384766"/>
      <use xlink:href="#ArialMT-71" x="150"/>
      <use xlink:href="#ArialMT-75" x="205.615234"/>
      <use xlink:href="#ArialMT-65" x="261.230469"/>
      <use xlink:href="#ArialMT-6e" x="316.845703"/>
      <use xlink:href="#ArialMT-63" x="372.460938"/>
      <use xlink:href="#ArialMT-79" x="422.460938"/>
      <use xlink:href="#ArialMT-20" x="472.460938"/>
      <use xlink:href="#ArialMT-28" x="500.244141"/>
      <use xlink:href="#ArialMT-48" x="533.544922"/>
      <use xlink:href="#ArialMT-7a" x="605.761719"/>
      <use xlink:href="#ArialMT-29" x="655.761719"/>
     </g>
    </g>
   </g>
   <g id="matplotlib.axis_2">
    <g id="ytick_1">
     <g id="line2d_19">
      <defs>
       <path id="md98371ee41" d="M 0 0 
L -3.5 0 
" style="stroke: #000000; stroke-width: 0.8"/>
      </defs>
      <g>
       <use xlink:href="#md98371ee41" x="46.928125" y="228.96" style="stroke: #000000; stroke-width: 0.8"/>
      </g>
     </g>
     <g id="text_4">
      <!-- 0.0 -->
      <g transform="translate(26.028125 232.538906) scale(0.1 -0.1)">
       <use xlink:href="#ArialMT-30"/>
       <use xlink:href="#ArialMT-2e" x="55.615234"/>
       <use xlink:href="#ArialMT-30" x="83.398438"/>
      </g>
     </g>
    </g>
    <g id="ytick_2">
     <g id="line2d_20">
      <g>
       <use xlink:href="#md98371ee41" x="46.928125" y="195.430844" style="stroke: #000000; stroke-width: 0.8"/>
      </g>
     </g>
     <g id="text_5">
      <!-- 5.0 -->
      <g transform="translate(26.028125 199.00975) scale(0.1 -0.1)">
       <defs>
        <path id="ArialMT-35" d="M 266 1200 
L 856 1250 
Q 922 819 1161 601 
Q 1400 384 1738 384 
Q 2144 384 2425 690 
Q 2706 997 2706 1503 
Q 2706 1984 2436 2262 
Q 2166 2541 1728 2541 
Q 1456 2541 1237 2417 
Q 1019 2294 894 2097 
L 366 2166 
L 809 4519 
L 3088 4519 
L 3088 3981 
L 1259 3981 
L 1013 2750 
Q 1425 3038 1878 3038 
Q 2478 3038 2890 2622 
Q 3303 2206 3303 1553 
Q 3303 931 2941 478 
Q 2500 -78 1738 -78 
Q 1113 -78 717 272 
Q 322 622 266 1200 
z
" transform="scale(0.015625)"/>
       </defs>
       <use xlink:href="#ArialMT-35"/>
       <use xlink:href="#ArialMT-2e" x="55.615234"/>
       <use xlink:href="#ArialMT-30" x="83.398438"/>
      </g>
     </g>
    </g>
    <g id="ytick_3">
     <g id="line2d_21">
      <g>
       <use xlink:href="#md98371ee41" x="46.928125" y="161.901688" style="stroke: #000000; stroke-width: 0.8"/>
      </g>
     </g>
     <g id="text_6">
      <!-- 10.0 -->
      <g transform="translate(20.467188 165.480594) scale(0.1 -0.1)">
       <use xlink:href="#ArialMT-31"/>
       <use xlink:href="#ArialMT-30" x="55.615234"/>
       <use xlink:href="#ArialMT-2e" x="111.230469"/>
       <use xlink:href="#ArialMT-30" x="139.013672"/>
      </g>
     </g>
    </g>
    <g id="ytick_4">
     <g id="line2d_22">
      <g>
       <use xlink:href="#md98371ee41" x="46.928125" y="128.372531" style="stroke: #000000; stroke-width: 0.8"/>
      </g>
     </g>
     <g id="text_7">
      <!-- 15.0 -->
      <g transform="translate(20.467188 131.951438) scale(0.1 -0.1)">
       <use xlink:href="#ArialMT-31"/>
       <use xlink:href="#ArialMT-35" x="55.615234"/>
       <use xlink:href="#ArialMT-2e" x="111.230469"/>
       <use xlink:href="#ArialMT-30" x="139.013672"/>
      </g>
     </g>
    </g>
    <g id="ytick_5">
     <g id="line2d_23">
      <g>
       <use xlink:href="#md98371ee41" x="46.928125" y="94.843375" style="stroke: #000000; stroke-width: 0.8"/>
      </g>
     </g>
     <g id="text_8">
      <!-- 20.0 -->
      <g transform="translate(20.467188 98.422281) scale(0.1 -0.1)">
       <defs>
        <path id="ArialMT-32" d="M 3222 541 
L 3222 0 
L 194 0 
Q 188 203 259 391 
Q 375 700 629 1000 
Q 884 1300 1366 1694 
Q 2113 2306 2375 2664 
Q 2638 3022 2638 3341 
Q 2638 3675 2398 3904 
Q 2159 4134 1775 4134 
Q 1369 4134 1125 3890 
Q 881 3647 878 3216 
L 300 3275 
Q 359 3922 746 4261 
Q 1134 4600 1788 4600 
Q 2447 4600 2831 4234 
Q 3216 3869 3216 3328 
Q 3216 3053 3103 2787 
Q 2991 2522 2730 2228 
Q 2469 1934 1863 1422 
Q 1356 997 1212 845 
Q 1069 694 975 541 
L 3222 541 
z
" transform="scale(0.015625)"/>
       </defs>
       <use xlink:href="#ArialMT-32"/>
       <use xlink:href="#ArialMT-30" x="55.615234"/>
       <use xlink:href="#ArialMT-2e" x="111.230469"/>
       <use xlink:href="#ArialMT-30" x="139.013672"/>
      </g>
     </g>
    </g>
    <g id="ytick_6">
     <g id="line2d_24">
      <g>
       <use xlink:href="#md98371ee41" x="46.928125" y="61.314219" style="stroke: #000000; stroke-width: 0.8"/>
      </g>
     </g>
     <g id="text_9">
      <!-- 25.0 -->
      <g transform="translate(20.467188 64.893125) scale(0.1 -0.1)">
       <use xlink:href="#ArialMT-32"/>
       <use xlink:href="#ArialMT-35" x="55.615234"/>
       <use xlink:href="#ArialMT-2e" x="111.230469"/>
       <use xlink:href="#ArialMT-30" x="139.013672"/>
      </g>
     </g>
    </g>
    <g id="ytick_7">
     <g id="line2d_25">
      <g>
       <use xlink:href="#md98371ee41" x="46.928125" y="27.785063" style="stroke: #000000; stroke-width: 0.8"/>
      </g>
     </g>
     <g id="text_10">
      <!-- 30.0 -->
      <g transform="translate(20.467188 31.363969) scale(0.1 -0.1)">
       <defs>
        <path id="ArialMT-33" d="M 269 1209 
L 831 1284 
Q 928 806 1161 595 
Q 1394 384 1728 384 
Q 2125 384 2398 659 
Q 2672 934 2672 1341 
Q 2672 1728 2419 1979 
Q 2166 2231 1775 2231 
Q 1616 2231 1378 2169 
L 1441 2663 
Q 1497 2656 1531 2656 
Q 1891 2656 2178 2843 
Q 2466 3031 2466 3422 
Q 2466 3731 2256 3934 
Q 2047 4138 1716 4138 
Q 1388 4138 1169 3931 
Q 950 3725 888 3313 
L 325 3413 
Q 428 3978 793 4289 
Q 1159 4600 1703 4600 
Q 2078 4600 2393 4439 
Q 2709 4278 2876 4000 
Q 3044 3722 3044 3409 
Q 3044 3113 2884 2869 
Q 2725 2625 2413 2481 
Q 2819 2388 3044 2092 
Q 3269 1797 3269 1353 
Q 3269 753 2831 336 
Q 2394 -81 1725 -81 
Q 1122 -81 723 278 
Q 325 638 269 1209 
z
" transform="scale(0.015625)"/>
       </defs>
       <use xlink:href="#ArialMT-33"/>
       <use xlink:href="#ArialMT-30" x="55.615234"/>
       <use xlink:href="#ArialMT-2e" x="111.230469"/>
       <use xlink:href="#ArialMT-30" x="139.013672"/>
      </g>
     </g>
    </g>
    <g id="text_11">
     <!-- H/V Amplitude -->
     <g transform="translate(14.479688 149.762031) rotate(-90) scale(0.1 -0.1)">
      <defs>
       <path id="ArialMT-2f" d="M 0 -78 
L 1328 4659 
L 1778 4659 
L 453 -78 
L 0 -78 
z
" transform="scale(0.015625)"/>
       <path id="ArialMT-56" d="M 1803 0 
L 28 4581 
L 684 4581 
L 1875 1253 
Q 2019 853 2116 503 
Q 2222 878 2363 1253 
L 3600 4581 
L 4219 4581 
L 2425 0 
L 1803 0 
z
" transform="scale(0.015625)"/>
       <path id="ArialMT-41" d="M -9 0 
L 1750 4581 
L 2403 4581 
L 4278 0 
L 3588 0 
L 3053 1388 
L 1138 1388 
L 634 0 
L -9 0 
z
M 1313 1881 
L 2866 1881 
L 2388 3150 
Q 2169 3728 2063 4100 
Q 1975 3659 1816 3225 
L 1313 1881 
z
" transform="scale(0.015625)"/>
       <path id="ArialMT-6d" d="M 422 0 
L 422 3319 
L 925 3319 
L 925 2853 
Q 1081 3097 1340 3245 
Q 1600 3394 1931 3394 
Q 2300 3394 2536 3241 
Q 2772 3088 2869 2813 
Q 3263 3394 3894 3394 
Q 4388 3394 4653 3120 
Q 4919 2847 4919 2278 
L 4919 0 
L 4359 0 
L 4359 2091 
Q 4359 2428 4304 2576 
Q 4250 2725 4106 2815 
Q 3963 2906 3769 2906 
Q 3419 2906 3187 2673 
Q 2956 2441 2956 1928 
L 2956 0 
L 2394 0 
L 2394 2156 
Q 2394 2531 2256 2718 
Q 2119 2906 1806 2906 
Q 1569 2906 1367 2781 
Q 1166 2656 1075 2415 
Q 984 2175 984 1722 
L 984 0 
L 422 0 
z
" transform="scale(0.015625)"/>
       <path id="ArialMT-70" d="M 422 -1272 
L 422 3319 
L 934 3319 
L 934 2888 
Q 1116 3141 1344 3267 
Q 1572 3394 1897 3394 
Q 2322 3394 2647 3175 
Q 2972 2956 3137 2557 
Q 3303 2159 3303 1684 
Q 3303 1175 3120 767 
Q 2938 359 2589 142 
Q 2241 -75 1856 -75 
Q 1575 -75 1351 44 
Q 1128 163 984 344 
L 984 -1272 
L 422 -1272 
z
M 931 1641 
Q 931 1000 1190 694 
Q 1450 388 1819 388 
Q 2194 388 2461 705 
Q 2728 1022 2728 1688 
Q 2728 2322 2467 2637 
Q 2206 2953 1844 2953 
Q 1484 2953 1207 2617 
Q 931 2281 931 1641 
z
" transform="scale(0.015625)"/>
       <path id="ArialMT-6c" d="M 409 0 
L 409 4581 
L 972 4581 
L 972 0 
L 409 0 
z
" transform="scale(0.015625)"/>
       <path id="ArialMT-69" d="M 425 3934 
L 425 4581 
L 988 4581 
L 988 3934 
L 425 3934 
z
M 425 0 
L 425 3319 
L 988 3319 
L 988 0 
L 425 0 
z
" transform="scale(0.015625)"/>
       <path id="ArialMT-74" d="M 1650 503 
L 1731 6 
Q 1494 -44 1306 -44 
Q 1000 -44 831 53 
Q 663 150 594 308 
Q 525 466 525 972 
L 525 2881 
L 113 2881 
L 113 3319 
L 525 3319 
L 525 4141 
L 1084 4478 
L 1084 3319 
L 1650 3319 
L 1650 2881 
L 1084 2881 
L 1084 941 
Q 1084 700 1114 631 
Q 1144 563 1211 522 
Q 1278 481 1403 481 
Q 1497 481 1650 503 
z
" transform="scale(0.015625)"/>
       <path id="ArialMT-64" d="M 2575 0 
L 2575 419 
Q 2259 -75 1647 -75 
Q 1250 -75 917 144 
Q 584 363 401 755 
Q 219 1147 219 1656 
Q 219 2153 384 2558 
Q 550 2963 881 3178 
Q 1213 3394 1622 3394 
Q 1922 3394 2156 3267 
Q 2391 3141 2538 2938 
L 2538 4581 
L 3097 4581 
L 3097 0 
L 2575 0 
z
M 797 1656 
Q 797 1019 1065 703 
Q 1334 388 1700 388 
Q 2069 388 2326 689 
Q 2584 991 2584 1609 
Q 2584 2291 2321 2609 
Q 2059 2928 1675 2928 
Q 1300 2928 1048 2622 
Q 797 2316 797 1656 
z
" transform="scale(0.015625)"/>
      </defs>
      <use xlink:href="#ArialMT-48"/>
      <use xlink:href="#ArialMT-2f" x="72.216797"/>
      <use xlink:href="#ArialMT-56" x="100"/>
      <use xlink:href="#ArialMT-20" x="166.699219"/>
      <use xlink:href="#ArialMT-41" x="188.982422"/>
      <use xlink:href="#ArialMT-6d" x="255.681641"/>
      <use xlink:href="#ArialMT-70" x="338.982422"/>
      <use xlink:href="#ArialMT-6c" x="394.597656"/>
      <use xlink:href="#ArialMT-69" x="416.814453"/>
      <use xlink:href="#ArialMT-74" x="439.03125"/>
      <use xlink:href="#ArialMT-75" x="466.814453"/>
      <use xlink:href="#ArialMT-64" x="522.429688"/>
      <use xlink:href="#ArialMT-65" x="578.044922"/>
     </g>
    </g>
   </g>
   <g id="line2d_26">
    <path d="M 46.928125 17.658763 
L 49.302695 48.041921 
L 51.677265 71.512528 
L 54.051835 89.328758 
L 56.426405 104.181348 
L 58.800975 117.970682 
L 61.175545 130.700053 
L 63.550115 141.02156 
L 65.924685 147.988913 
L 68.299255 152.027027 
L 70.673825 153.776667 
L 73.048395 152.255223 
L 75.422965 144.640258 
L 77.797535 128.84461 
L 80.172105 107.457524 
L 82.546675 88.078701 
L 84.921245 78.732836 
L 87.295815 83.712977 
L 89.670385 101.866294 
L 92.044955 126.453203 
L 94.419525 148.535636 
L 96.794095 163.508088 
L 99.168665 173.262305 
L 101.543235 181.015991 
L 103.917805 187.336321 
L 106.292375 191.318424 
L 108.666945 193.017101 
L 111.041515 193.896174 
L 113.416085 195.433004 
L 115.790655 197.816017 
L 118.165225 199.630919 
L 120.539795 198.8175 
L 122.914365 194.417652 
L 125.288935 187.166318 
L 127.663505 179.074313 
L 130.038075 173.236427 
L 132.412645 172.13405 
L 134.787215 175.273899 
L 137.161785 180.099155 
L 139.536355 184.586833 
L 144.285495 192.23262 
L 146.660065 195.887414 
L 149.034635 198.817377 
L 153.783775 202.583804 
L 156.158345 205.371786 
L 158.532915 208.648174 
L 160.907485 211.447233 
L 163.282055 212.976834 
L 165.656625 212.811579 
L 170.405765 209.820666 
L 172.780335 209.918531 
L 175.154905 211.945767 
L 177.529475 214.293416 
L 179.904045 215.778159 
L 182.278615 216.459065 
L 187.027755 216.799573 
L 189.402325 217.415322 
L 194.151465 219.644511 
L 196.526035 220.158335 
L 198.900605 219.973897 
L 201.275175 219.203836 
L 203.649745 218.097475 
L 206.024314 216.752453 
L 208.398884 215.178061 
L 210.773454 213.759308 
L 213.148024 213.307456 
L 215.522594 214.244065 
L 220.271734 218.048133 
L 222.646304 219.429401 
L 225.020874 219.963288 
L 227.395444 219.670982 
L 229.770014 218.871474 
L 232.144584 218.274504 
L 234.519154 218.593384 
L 239.268294 220.549638 
L 241.642864 220.954055 
L 244.017434 220.835108 
L 246.392004 220.491387 
L 248.766574 220.39102 
L 251.141144 220.841069 
L 255.890284 222.588799 
L 258.264854 223.13318 
L 260.639424 223.194464 
L 263.013994 222.814686 
L 265.388564 222.211668 
L 267.763134 221.77884 
L 270.137704 221.864837 
L 274.886844 222.862835 
L 277.261414 222.94668 
L 279.635984 222.500112 
L 284.385124 221.001619 
L 286.759694 220.655642 
L 289.134264 220.717561 
L 291.508834 221.100763 
L 296.257974 222.152688 
L 298.632544 222.338925 
L 301.007114 222.068509 
L 305.756254 220.591118 
L 308.130824 220.385877 
L 310.505394 221.104051 
L 312.879964 222.211929 
L 315.254534 223.071779 
L 317.629104 223.453858 
L 320.003674 223.328189 
L 322.378244 222.697812 
L 324.752814 221.615701 
L 331.876524 217.465898 
L 334.251094 216.560187 
L 339.000234 215.212563 
L 343.749374 213.172032 
L 346.123944 212.617274 
L 348.498514 213.170999 
L 350.873084 214.550898 
L 353.247654 215.797284 
L 355.622224 216.308729 
L 360.371364 216.06545 
L 362.745934 216.435646 
L 367.495074 217.975432 
L 369.869644 218.392169 
L 374.618784 218.698977 
L 381.742494 219.708371 
L 388.866204 219.999722 
L 391.240774 220.488907 
L 393.615344 221.12184 
L 395.989914 221.468321 
L 398.364484 221.186511 
L 399.658594 220.750963 
L 399.658594 220.750963 
" clip-path="url(#p23546ffd4e)" style="fill: none; stroke: #808080; stroke-opacity: 0.5; stroke-width: 0.5; stroke-linecap: square"/>
   </g>
   <g id="line2d_27">
    <path d="M 46.928125 212.662751 
L 51.677265 215.775353 
L 54.051835 216.830318 
L 56.426405 217.452489 
L 58.800975 217.839336 
L 61.175545 217.981717 
L 63.550115 217.7549 
L 65.924685 217.333464 
L 68.299255 217.253462 
L 70.673825 217.880622 
L 73.048395 218.94318 
L 75.422965 219.791892 
L 77.797535 220.10726 
L 82.546675 220.12948 
L 84.921245 220.371983 
L 89.670385 221.347222 
L 94.419525 222.241842 
L 103.917805 223.502469 
L 106.292375 223.527022 
L 108.666945 223.308527 
L 120.539795 221.57262 
L 122.914365 221.415829 
L 125.288935 221.449703 
L 130.038075 221.819291 
L 141.910925 222.988818 
L 151.409205 224.360284 
L 153.783775 224.5105 
L 156.158345 224.461774 
L 160.907485 223.943623 
L 163.282055 223.689372 
L 165.656625 223.57628 
L 177.529475 223.749312 
L 182.278615 224.083603 
L 184.653185 224.112151 
L 187.027755 224.001087 
L 189.402325 223.756426 
L 191.776895 223.355788 
L 198.900605 221.772532 
L 201.275175 221.772235 
L 203.649745 221.926584 
L 206.024314 221.798917 
L 208.398884 221.437304 
L 210.773454 221.312564 
L 215.522594 221.943084 
L 217.897164 221.85249 
L 220.271734 221.060688 
L 222.646304 219.765153 
L 225.020874 218.774185 
L 227.395444 218.992543 
L 232.144584 221.737104 
L 234.519154 222.465587 
L 236.893724 222.468536 
L 241.642864 221.846373 
L 244.017434 221.731009 
L 246.392004 221.90361 
L 248.766574 222.453352 
L 253.515714 223.956852 
L 255.890284 224.483249 
L 258.264854 224.730006 
L 260.639424 224.646908 
L 263.013994 224.230641 
L 267.763134 223.026594 
L 270.137704 222.968127 
L 272.512274 223.493409 
L 274.886844 224.221591 
L 277.261414 224.747952 
L 279.635984 224.932377 
L 286.759694 224.777996 
L 291.508834 225.036537 
L 293.883404 224.875392 
L 296.257974 224.433698 
L 298.632544 223.862208 
L 301.007114 223.418156 
L 303.381684 223.262721 
L 310.505394 223.392813 
L 315.254534 223.214136 
L 322.378244 222.62568 
L 324.752814 222.648786 
L 331.876524 223.028879 
L 334.251094 223.02191 
L 336.625664 223.132889 
L 339.000234 223.480612 
L 343.749374 224.425284 
L 346.123944 224.70245 
L 353.247654 225.102841 
L 355.622224 225.120328 
L 357.996794 224.956006 
L 365.120504 223.93174 
L 367.495074 223.989238 
L 379.367924 225.572058 
L 384.117064 226.287237 
L 386.491634 226.496264 
L 388.866204 226.547549 
L 391.240774 226.440923 
L 395.989914 225.846461 
L 399.658594 225.472771 
L 399.658594 225.472771 
" clip-path="url(#p23546ffd4e)" style="fill: none; stroke: #808080; stroke-opacity: 0.5; stroke-width: 0.5; stroke-linecap: square"/>
   </g>
   <g id="line2d_28">
    <path d="M 46.928125 210.569132 
L 49.302695 211.519667 
L 51.677265 212.742769 
L 54.051835 213.379846 
L 56.426405 213.678556 
L 58.800975 214.272613 
L 68.299255 217.731274 
L 70.673825 218.44638 
L 73.048395 218.903729 
L 75.422965 218.969207 
L 80.172105 218.73994 
L 84.921245 218.971607 
L 89.670385 219.377623 
L 96.794095 220.164277 
L 101.543235 220.463477 
L 103.917805 220.74292 
L 108.666945 221.648514 
L 111.041515 221.965297 
L 113.416085 222.163644 
L 115.790655 222.210637 
L 120.539795 221.993876 
L 122.914365 222.133911 
L 127.663505 222.731341 
L 130.038075 222.837226 
L 137.161785 222.72024 
L 144.285495 223.247034 
L 151.409205 223.284776 
L 158.532915 223.609627 
L 163.282055 223.444804 
L 170.405765 222.702894 
L 175.154905 222.692538 
L 189.402325 223.092281 
L 191.776895 222.81188 
L 194.151465 222.256468 
L 198.900605 220.853215 
L 201.275175 220.52137 
L 203.649745 220.672929 
L 217.897164 224.103533 
L 220.271734 224.440894 
L 222.646304 224.315413 
L 225.020874 223.927246 
L 227.395444 223.704327 
L 229.770014 223.88506 
L 232.144584 224.192628 
L 234.519154 224.264068 
L 241.642864 223.720289 
L 246.392004 223.524593 
L 253.515714 222.787232 
L 255.890284 222.923269 
L 260.639424 223.724149 
L 263.013994 223.78642 
L 265.388564 223.535387 
L 267.763134 223.168828 
L 270.137704 222.963765 
L 272.512274 223.131309 
L 274.886844 223.661987 
L 277.261414 224.311603 
L 279.635984 224.79413 
L 282.010554 224.977671 
L 284.385124 224.886457 
L 286.759694 224.594736 
L 291.508834 223.7366 
L 293.883404 223.475279 
L 296.257974 223.527387 
L 301.007114 223.977627 
L 303.381684 223.897055 
L 308.130824 223.204751 
L 310.505394 223.085406 
L 315.254534 223.185927 
L 320.003674 223.087544 
L 322.378244 223.288803 
L 327.127384 224.12522 
L 329.501954 224.173493 
L 331.876524 223.67841 
L 334.251094 222.813085 
L 336.625664 222.131149 
L 339.000234 222.211473 
L 341.374804 223.054026 
L 343.749374 224.089456 
L 346.123944 224.840739 
L 348.498514 225.219948 
L 350.873084 225.31465 
L 353.247654 225.184919 
L 360.371364 224.168753 
L 362.745934 224.285093 
L 369.869644 225.413802 
L 374.618784 225.570756 
L 384.117064 225.65584 
L 388.866204 225.473932 
L 393.615344 225.087314 
L 395.989914 224.87662 
L 399.658594 224.931985 
L 399.658594 224.931985 
" clip-path="url(#p23546ffd4e)" style="fill: none; stroke: #808080; stroke-opacity: 0.5; stroke-width: 0.5; stroke-linecap: square"/>
   </g>
   <g id="line2d_29">
    <path d="M 46.928125 222.455253 
L 51.677265 223.893962 
L 54.051835 224.230281 
L 56.426405 224.171105 
L 58.800975 223.784335 
L 63.550115 222.49289 
L 65.924685 221.733268 
L 68.299255 220.8293 
L 73.048395 218.773186 
L 75.422965 218.438324 
L 80.172105 219.163056 
L 82.546675 219.014094 
L 84.921245 218.187703 
L 87.295815 216.611952 
L 89.670385 214.275158 
L 92.044955 211.421552 
L 94.419525 208.860355 
L 96.794095 207.751147 
L 99.168665 208.490358 
L 103.917805 212.313364 
L 106.292375 213.655847 
L 111.041515 214.8029 
L 113.416085 216.055314 
L 118.165225 219.441182 
L 120.539795 220.475941 
L 122.914365 220.664045 
L 125.288935 220.327664 
L 127.663505 220.272322 
L 130.038075 220.478996 
L 132.412645 220.225958 
L 134.787215 219.000125 
L 139.536355 214.64913 
L 141.910925 213.481262 
L 144.285495 213.136748 
L 146.660065 212.659809 
L 149.034635 211.950879 
L 151.409205 212.164884 
L 153.783775 213.508539 
L 156.158345 214.338584 
L 158.532915 213.522043 
L 160.907485 211.185268 
L 163.282055 208.4351 
L 165.656625 206.770515 
L 168.031195 206.698442 
L 170.405765 207.091938 
L 172.780335 206.499782 
L 177.529475 203.24081 
L 182.278615 200.584549 
L 184.653185 199.225578 
L 187.027755 198.507786 
L 191.776895 198.341364 
L 196.526035 197.100207 
L 198.900605 198.190145 
L 201.275175 201.69573 
L 203.649745 206.144072 
L 206.024314 209.98524 
L 208.398884 212.753219 
L 210.773454 214.690026 
L 215.522594 217.699907 
L 217.897164 218.888318 
L 220.271734 219.445313 
L 222.646304 219.302319 
L 225.020874 218.75807 
L 227.395444 218.388091 
L 229.770014 218.898031 
L 232.144584 220.372774 
L 234.519154 222.025921 
L 236.893724 223.211789 
L 239.268294 223.766631 
L 241.642864 223.753068 
L 248.766574 222.536678 
L 251.141144 222.497479 
L 255.890284 223.064714 
L 258.264854 223.091344 
L 263.013994 222.611305 
L 265.388564 222.606616 
L 270.137704 222.899167 
L 272.512274 223.254144 
L 279.635984 225.164452 
L 282.010554 225.273842 
L 284.385124 224.963446 
L 289.134264 223.827055 
L 291.508834 223.614241 
L 293.883404 223.865529 
L 301.007114 225.68028 
L 303.381684 225.825254 
L 305.756254 225.672065 
L 310.505394 225.148504 
L 315.254534 225.109629 
L 317.629104 224.931627 
L 320.003674 224.500982 
L 322.378244 223.917917 
L 324.752814 223.462448 
L 327.127384 223.344237 
L 331.876524 223.553488 
L 334.251094 223.453267 
L 336.625664 223.100467 
L 339.000234 222.611531 
L 341.374804 222.280587 
L 343.749374 222.33958 
L 355.622224 224.09933 
L 357.996794 224.297515 
L 360.371364 224.279185 
L 365.120504 223.72862 
L 369.869644 223.228795 
L 374.618784 223.066826 
L 379.367924 223.266996 
L 386.491634 224.027724 
L 391.240774 224.668584 
L 393.615344 224.857443 
L 395.989914 224.850933 
L 399.658594 224.528072 
L 399.658594 224.528072 
" clip-path="url(#p23546ffd4e)" style="fill: none; stroke: #808080; stroke-opacity: 0.5; stroke-width: 0.5; stroke-linecap: square"/>
   </g>
   <g id="line2d_30">
    <path d="M 46.928125 207.124735 
L 49.302695 209.682874 
L 51.677265 209.437371 
L 54.051835 206.89332 
L 56.426405 202.155616 
L 58.800975 195.708805 
L 61.175545 190.190724 
L 63.550115 188.217975 
L 65.924685 187.901254 
L 68.299255 187.154174 
L 70.673825 187.901589 
L 73.048395 193.441744 
L 75.422965 201.30631 
L 77.797535 207.252527 
L 80.172105 210.693525 
L 82.546675 212.359502 
L 84.921245 212.744009 
L 87.295815 212.236388 
L 89.670385 211.516043 
L 92.044955 211.046321 
L 94.419525 210.329698 
L 96.794095 208.489097 
L 99.168665 205.361318 
L 101.543235 201.936384 
L 103.917805 199.764242 
L 106.292375 199.93158 
L 108.666945 201.634658 
L 111.041515 202.422322 
L 113.416085 200.501349 
L 115.790655 195.168884 
L 118.165225 187.01538 
L 120.539795 180.135262 
L 122.914365 180.795946 
L 125.288935 188.986143 
L 127.663505 198.908293 
L 130.038075 206.406709 
L 132.412645 210.349336 
L 134.787215 211.19571 
L 137.161785 210.368391 
L 139.536355 209.93544 
L 141.910925 211.183762 
L 144.285495 213.379067 
L 146.660065 215.025926 
L 149.034635 215.463731 
L 151.409205 214.954021 
L 153.783775 214.132969 
L 156.158345 213.518488 
L 158.532915 213.244772 
L 163.282055 212.927513 
L 165.656625 212.753842 
L 168.031195 212.93475 
L 170.405765 213.484007 
L 172.780335 213.69726 
L 175.154905 212.559393 
L 177.529475 209.563929 
L 179.904045 205.813495 
L 182.278615 204.102524 
L 184.653185 205.284846 
L 187.027755 207.287455 
L 189.402325 208.513068 
L 191.776895 208.690813 
L 194.151465 208.457586 
L 196.526035 208.930799 
L 198.900605 210.115201 
L 201.275175 210.989235 
L 203.649745 211.134527 
L 206.024314 210.417288 
L 208.398884 208.411415 
L 210.773454 204.730788 
L 213.148024 200.651126 
L 215.522594 199.171312 
L 217.897164 200.981633 
L 225.020874 210.630751 
L 227.395444 213.34535 
L 229.770014 215.455991 
L 232.144584 216.83337 
L 234.519154 217.695248 
L 239.268294 219.110773 
L 241.642864 220.041825 
L 246.392004 222.422174 
L 248.766574 223.315705 
L 251.141144 223.82137 
L 253.515714 223.979442 
L 260.639424 223.728857 
L 265.388564 223.371393 
L 270.137704 222.923092 
L 272.512274 222.925122 
L 274.886844 223.185848 
L 282.010554 224.690515 
L 284.385124 224.798398 
L 289.134264 224.398145 
L 291.508834 224.430876 
L 296.257974 225.069478 
L 298.632544 225.376439 
L 301.007114 225.545604 
L 303.381684 225.543118 
L 308.130824 225.181365 
L 312.879964 224.716985 
L 317.629104 223.986004 
L 322.378244 223.214782 
L 331.876524 221.959289 
L 336.625664 221.050794 
L 339.000234 220.753091 
L 341.374804 220.949012 
L 343.749374 221.777572 
L 346.123944 222.886394 
L 348.498514 223.749626 
L 350.873084 224.133795 
L 353.247654 224.076956 
L 362.745934 222.692828 
L 374.618784 221.800769 
L 376.993354 221.629963 
L 379.367924 221.58783 
L 381.742494 221.756619 
L 386.491634 222.597526 
L 391.240774 223.485666 
L 395.989914 224.058166 
L 399.658594 224.313455 
L 399.658594 224.313455 
" clip-path="url(#p23546ffd4e)" style="fill: none; stroke: #808080; stroke-opacity: 0.5; stroke-width: 0.5; stroke-linecap: square"/>
   </g>
   <g id="line2d_31">
    <path d="M 46.928125 211.220791 
L 51.677265 208.870416 
L 54.051835 208.194306 
L 56.426405 208.198965 
L 61.175545 208.864249 
L 70.673825 209.76891 
L 73.048395 209.90792 
L 75.422965 210.839901 
L 77.797535 213.526641 
L 80.172105 217.067656 
L 82.546675 219.097561 
L 84.921245 219.159227 
L 87.295815 218.257021 
L 92.044955 216.086568 
L 94.419525 215.13043 
L 96.794095 214.388263 
L 99.168665 214.092169 
L 101.543235 214.538684 
L 103.917805 215.914145 
L 106.292375 217.947844 
L 108.666945 219.646525 
L 111.041515 220.020492 
L 113.416085 219.241398 
L 115.790655 218.183344 
L 118.165225 217.406721 
L 120.539795 217.08797 
L 122.914365 217.324384 
L 125.288935 218.17933 
L 127.663505 219.396393 
L 130.038075 220.233436 
L 132.412645 220.048726 
L 137.161785 218.143259 
L 139.536355 217.787102 
L 141.910925 218.111006 
L 146.660065 219.523885 
L 149.034635 219.640912 
L 153.783775 219.078403 
L 156.158345 219.190925 
L 158.532915 219.441376 
L 160.907485 219.489897 
L 163.282055 219.399428 
L 165.656625 219.684207 
L 168.031195 220.283716 
L 170.405765 220.339032 
L 172.780335 219.341422 
L 175.154905 217.733628 
L 177.529475 217.094398 
L 179.904045 218.330165 
L 182.278615 219.970932 
L 184.653185 220.615424 
L 187.027755 220.012944 
L 189.402325 218.394798 
L 191.776895 216.132927 
L 194.151465 213.48661 
L 196.526035 210.619905 
L 198.900605 208.656862 
L 201.275175 209.499121 
L 203.649745 212.569361 
L 206.024314 215.395126 
L 208.398884 216.758238 
L 210.773454 216.82646 
L 213.148024 216.434864 
L 215.522594 216.459268 
L 217.897164 217.174581 
L 222.646304 219.530765 
L 227.395444 221.94267 
L 229.770014 222.766778 
L 232.144584 223.072148 
L 236.893724 222.811805 
L 239.268294 223.187087 
L 241.642864 223.889453 
L 244.017434 224.44298 
L 246.392004 224.654947 
L 248.766574 224.566119 
L 251.141144 224.279623 
L 255.890284 223.380275 
L 258.264854 222.88407 
L 260.639424 222.52999 
L 265.388564 222.282258 
L 270.137704 222.161682 
L 272.512274 222.35639 
L 279.635984 223.792757 
L 282.010554 223.697398 
L 284.385124 223.394254 
L 286.759694 223.319267 
L 296.257974 224.543346 
L 301.007114 224.474738 
L 303.381684 224.398855 
L 305.756254 224.537233 
L 310.505394 225.195048 
L 312.879964 225.343194 
L 315.254534 225.258144 
L 317.629104 224.946398 
L 329.501954 222.69911 
L 331.876524 222.407394 
L 334.251094 222.312035 
L 336.625664 222.443288 
L 343.749374 223.212401 
L 350.873084 223.443449 
L 357.996794 223.943751 
L 365.120504 223.972544 
L 372.244214 223.563883 
L 374.618784 223.654413 
L 381.742494 224.305674 
L 395.989914 224.758498 
L 399.658594 224.790044 
L 399.658594 224.790044 
" clip-path="url(#p23546ffd4e)" style="fill: none; stroke: #808080; stroke-opacity: 0.5; stroke-width: 0.5; stroke-linecap: square"/>
   </g>
   <g id="line2d_32">
    <path d="M 46.928125 208.688982 
L 49.302695 208.077117 
L 51.677265 208.034762 
L 54.051835 208.327097 
L 56.426405 208.845119 
L 58.800975 209.834163 
L 61.175545 211.601378 
L 63.550115 213.889164 
L 65.924685 215.994515 
L 68.299255 217.379959 
L 70.673825 217.868866 
L 73.048395 217.578651 
L 75.422965 216.885213 
L 77.797535 216.310273 
L 80.172105 216.196708 
L 82.546675 216.501669 
L 87.295815 217.567107 
L 89.670385 218.141511 
L 92.044955 218.59935 
L 94.419525 218.740128 
L 96.794095 218.450204 
L 103.917805 216.563481 
L 106.292375 216.352264 
L 111.041515 216.236052 
L 113.416085 216.311347 
L 115.790655 216.755198 
L 118.165225 217.599383 
L 120.539795 218.629373 
L 122.914365 219.507244 
L 125.288935 219.81119 
L 127.663505 219.169882 
L 130.038075 217.709383 
L 132.412645 216.414376 
L 134.787215 216.358136 
L 137.161785 217.536751 
L 139.536355 219.115523 
L 141.910925 220.306474 
L 144.285495 220.810555 
L 146.660065 220.760332 
L 149.034635 220.288183 
L 151.409205 219.200911 
L 153.783775 216.977834 
L 156.158345 213.002579 
L 158.532915 207.416151 
L 160.907485 202.551606 
L 163.282055 200.994848 
L 165.656625 201.99839 
L 168.031195 203.925652 
L 170.405765 206.251662 
L 177.529475 214.279388 
L 179.904045 216.55421 
L 182.278615 218.411896 
L 187.027755 221.541563 
L 189.402325 222.850451 
L 191.776895 223.725651 
L 194.151465 224.142361 
L 198.900605 224.56749 
L 203.649745 225.118447 
L 206.024314 225.043949 
L 213.148024 223.895907 
L 217.897164 223.54299 
L 222.646304 223.405019 
L 227.395444 223.48883 
L 229.770014 223.339353 
L 232.144584 222.953945 
L 239.268294 221.185855 
L 241.642864 220.893886 
L 244.017434 221.091808 
L 246.392004 221.849495 
L 248.766574 222.793808 
L 251.141144 223.478848 
L 253.515714 223.769326 
L 255.890284 223.753283 
L 263.013994 223.326181 
L 265.388564 222.966721 
L 267.763134 222.230994 
L 270.137704 221.00533 
L 272.512274 219.430787 
L 274.886844 218.104408 
L 277.261414 217.63985 
L 282.010554 217.972905 
L 284.385124 218.47634 
L 286.759694 219.736891 
L 289.134264 221.338612 
L 291.508834 222.612846 
L 293.883404 223.331863 
L 296.257974 223.628003 
L 301.007114 223.959086 
L 303.381684 224.172818 
L 305.756254 224.272785 
L 308.130824 224.182329 
L 310.505394 223.909895 
L 320.003674 222.313163 
L 329.501954 222.03678 
L 334.251094 222.010318 
L 339.000234 222.278814 
L 353.247654 223.883612 
L 355.622224 223.891052 
L 357.996794 223.57288 
L 360.371364 222.895625 
L 362.745934 222.059895 
L 365.120504 221.51568 
L 367.495074 221.620217 
L 374.618784 223.42893 
L 379.367924 223.731878 
L 384.117064 224.160449 
L 388.866204 224.762023 
L 391.240774 224.87172 
L 393.615344 224.781443 
L 398.364484 224.444553 
L 399.658594 224.4859 
L 399.658594 224.4859 
" clip-path="url(#p23546ffd4e)" style="fill: none; stroke: #808080; stroke-opacity: 0.5; stroke-width: 0.5; stroke-linecap: square"/>
   </g>
   <g id="line2d_33">
    <path d="M 46.928125 206.603068 
L 49.302695 206.536131 
L 51.677265 207.470254 
L 56.426405 212.441199 
L 58.800975 213.941774 
L 61.175545 214.682965 
L 63.550115 215.030188 
L 65.924685 215.164667 
L 68.299255 215.129165 
L 70.673825 214.860578 
L 73.048395 214.256199 
L 75.422965 213.468608 
L 77.797535 213.633555 
L 80.172105 216.25141 
L 82.546675 219.540666 
L 84.921245 221.114915 
L 87.295815 221.085359 
L 89.670385 220.196064 
L 92.044955 219.122464 
L 94.419525 218.549621 
L 96.794095 218.922987 
L 101.543235 221.083475 
L 103.917805 221.558756 
L 106.292375 221.374944 
L 108.666945 221.049275 
L 111.041515 221.052333 
L 118.165225 221.900513 
L 125.288935 223.061616 
L 127.663505 222.890286 
L 130.038075 222.575191 
L 132.412645 222.493144 
L 137.161785 222.933771 
L 139.536355 222.784079 
L 144.285495 221.63486 
L 149.034635 220.394006 
L 153.783775 218.879202 
L 158.532915 217.791261 
L 160.907485 217.33618 
L 163.282055 217.001813 
L 165.656625 216.997875 
L 168.031195 217.398405 
L 170.405765 217.961468 
L 172.780335 218.393814 
L 177.529475 219.088989 
L 179.904045 219.753442 
L 187.027755 222.398039 
L 189.402325 222.83255 
L 191.776895 222.953953 
L 201.275175 222.612519 
L 213.148024 223.305658 
L 215.522594 223.687497 
L 217.897164 223.954748 
L 220.271734 223.862395 
L 222.646304 223.38849 
L 225.020874 222.708275 
L 227.395444 222.221038 
L 229.770014 222.345116 
L 232.144584 222.87557 
L 234.519154 223.237332 
L 236.893724 223.195966 
L 241.642864 222.63542 
L 244.017434 222.747002 
L 246.392004 223.175239 
L 251.141144 224.182623 
L 253.515714 224.370125 
L 255.890284 224.213963 
L 258.264854 223.772352 
L 260.639424 223.134853 
L 263.013994 222.281733 
L 265.388564 221.097335 
L 267.763134 219.633898 
L 270.137704 218.396471 
L 272.512274 218.224679 
L 274.886844 219.558573 
L 277.261414 221.776371 
L 279.635984 223.807551 
L 282.010554 225.115832 
L 284.385124 225.72695 
L 286.759694 225.861118 
L 293.883404 225.528864 
L 301.007114 225.583585 
L 303.381684 225.394473 
L 305.756254 225.020306 
L 310.505394 223.939019 
L 315.254534 222.79649 
L 317.629104 222.351777 
L 320.003674 222.257152 
L 322.378244 222.691188 
L 327.127384 224.260246 
L 329.501954 224.794028 
L 331.876524 224.946137 
L 334.251094 224.642497 
L 336.625664 223.917621 
L 339.000234 223.020433 
L 341.374804 222.503648 
L 343.749374 222.930762 
L 348.498514 225.1188 
L 350.873084 225.716551 
L 353.247654 225.948724 
L 355.622224 225.928399 
L 357.996794 225.70278 
L 365.120504 224.586056 
L 367.495074 224.779232 
L 369.869644 225.115898 
L 372.244214 225.21346 
L 379.367924 224.735767 
L 381.742494 224.927828 
L 386.491634 225.59518 
L 388.866204 225.726603 
L 391.240774 225.687568 
L 399.658594 224.99552 
L 399.658594 224.99552 
" clip-path="url(#p23546ffd4e)" style="fill: none; stroke: #808080; stroke-opacity: 0.5; stroke-width: 0.5; stroke-linecap: square"/>
   </g>
   <g id="line2d_34">
    <path d="M 46.928125 218.47805 
L 49.302695 217.785745 
L 51.677265 216.212321 
L 56.426405 211.284694 
L 58.800975 210.073822 
L 61.175545 210.611594 
L 63.550115 212.555115 
L 65.924685 214.887013 
L 68.299255 216.568572 
L 70.673825 217.412209 
L 73.048395 218.068316 
L 77.797535 220.338024 
L 80.172105 220.724147 
L 82.546675 220.070677 
L 84.921245 219.085213 
L 87.295815 218.95979 
L 92.044955 220.730362 
L 94.419525 220.986606 
L 96.794095 220.320577 
L 99.168665 219.219539 
L 101.543235 218.709549 
L 103.917805 219.157529 
L 106.292375 219.838439 
L 108.666945 219.853812 
L 111.041515 218.735295 
L 113.416085 216.669001 
L 115.790655 215.029568 
L 118.165225 215.325767 
L 120.539795 216.818717 
L 122.914365 218.115925 
L 125.288935 218.707748 
L 127.663505 218.518805 
L 130.038075 217.707129 
L 132.412645 216.772057 
L 137.161785 215.358019 
L 139.536355 214.426378 
L 146.660065 210.736638 
L 149.034635 209.932294 
L 151.409205 209.422696 
L 153.783775 209.486574 
L 156.158345 210.181078 
L 158.532915 210.741533 
L 160.907485 209.85573 
L 163.282055 206.342665 
L 165.656625 200.710701 
L 168.031195 195.826665 
L 170.405765 193.251483 
L 172.780335 192.350835 
L 175.154905 193.707566 
L 177.529475 198.972109 
L 179.904045 206.068184 
L 182.278615 211.174837 
L 184.653185 213.553273 
L 187.027755 214.160228 
L 191.776895 214.140259 
L 194.151465 214.314839 
L 196.526035 214.126025 
L 203.649745 212.168876 
L 206.024314 212.160086 
L 208.398884 212.629516 
L 210.773454 213.683018 
L 215.522594 216.95006 
L 217.897164 218.010746 
L 222.646304 219.187535 
L 227.395444 220.786741 
L 229.770014 221.186433 
L 232.144584 220.925742 
L 234.519154 219.903314 
L 236.893724 218.601809 
L 239.268294 217.991363 
L 241.642864 218.237158 
L 244.017434 218.763426 
L 246.392004 219.170118 
L 251.141144 219.767059 
L 255.890284 221.124015 
L 258.264854 221.533097 
L 260.639424 221.387425 
L 263.013994 220.896751 
L 265.388564 220.624757 
L 267.763134 220.875939 
L 272.512274 221.800556 
L 277.261414 222.408428 
L 279.635984 222.47884 
L 282.010554 222.181902 
L 284.385124 221.638134 
L 286.759694 221.360211 
L 289.134264 221.835845 
L 293.883404 224.034174 
L 296.257974 224.911143 
L 298.632544 225.520671 
L 301.007114 225.928556 
L 305.756254 226.347217 
L 310.505394 226.417346 
L 315.254534 226.190791 
L 317.629104 225.84181 
L 320.003674 225.203463 
L 322.378244 224.180644 
L 327.127384 221.572383 
L 329.501954 220.76365 
L 331.876524 220.546911 
L 334.251094 220.807259 
L 339.000234 221.592111 
L 346.123944 222.145383 
L 350.873084 222.820013 
L 353.247654 222.956008 
L 357.996794 222.911214 
L 362.745934 222.855048 
L 367.495074 223.084012 
L 372.244214 223.464301 
L 376.993354 224.149609 
L 381.742494 224.886046 
L 384.117064 225.004828 
L 386.491634 224.902345 
L 391.240774 224.450714 
L 393.615344 224.474975 
L 395.989914 224.799491 
L 399.658594 225.465101 
L 399.658594 225.465101 
" clip-path="url(#p23546ffd4e)" style="fill: none; stroke: #808080; stroke-opacity: 0.5; stroke-width: 0.5; stroke-linecap: square"/>
   </g>
   <g id="line2d_35">
    <path d="M 46.928125 214.657238 
L 49.302695 215.679782 
L 51.677265 214.466413 
L 54.051835 211.442051 
L 56.426405 208.045704 
L 58.800975 206.751 
L 61.175545 208.100722 
L 63.550115 209.817311 
L 65.924685 210.816343 
L 68.299255 212.145094 
L 73.048395 216.505571 
L 75.422965 217.929391 
L 77.797535 218.680938 
L 80.172105 219.188792 
L 82.546675 219.813209 
L 87.295815 221.343857 
L 89.670385 221.781833 
L 92.044955 221.727376 
L 99.168665 220.409986 
L 101.543235 220.425229 
L 108.666945 220.960987 
L 115.790655 221.182661 
L 118.165225 221.421758 
L 127.663505 222.806372 
L 130.038075 223.008127 
L 132.412645 222.94931 
L 134.787215 222.546056 
L 137.161785 221.952327 
L 139.536355 221.490647 
L 141.910925 221.365535 
L 146.660065 221.463994 
L 151.409205 220.978713 
L 153.783775 220.977667 
L 158.532915 221.739298 
L 160.907485 221.718304 
L 163.282055 220.825486 
L 165.656625 218.919891 
L 168.031195 216.647294 
L 170.405765 215.392539 
L 172.780335 215.878776 
L 175.154905 217.303927 
L 177.529475 218.471887 
L 179.904045 218.814381 
L 182.278615 218.285244 
L 184.653185 217.020811 
L 187.027755 215.430212 
L 189.402325 214.218698 
L 191.776895 213.514315 
L 194.151465 212.663965 
L 196.526035 211.393858 
L 198.900605 210.623689 
L 201.275175 211.859496 
L 206.024314 217.69996 
L 208.398884 219.401597 
L 210.773454 220.119171 
L 215.522594 220.826002 
L 227.395444 223.802118 
L 229.770014 224.146375 
L 232.144584 224.288522 
L 234.519154 224.167688 
L 239.268294 223.351662 
L 244.017434 222.585733 
L 246.392004 222.408739 
L 248.766574 222.526614 
L 251.141144 223.037947 
L 255.890284 224.418059 
L 258.264854 224.80639 
L 260.639424 224.932783 
L 263.013994 224.821259 
L 265.388564 224.453008 
L 267.763134 223.796066 
L 272.512274 222.136741 
L 274.886844 221.829218 
L 277.261414 222.094621 
L 282.010554 223.272439 
L 284.385124 223.718373 
L 298.632544 225.317729 
L 312.879964 225.908462 
L 315.254534 225.798324 
L 320.003674 225.24319 
L 324.752814 224.669365 
L 327.127384 224.485604 
L 331.876524 223.7835 
L 334.251094 223.46049 
L 339.000234 223.162713 
L 343.749374 223.073967 
L 348.498514 223.282117 
L 353.247654 223.665895 
L 357.996794 224.142147 
L 365.120504 224.3379 
L 369.869644 224.792533 
L 372.244214 224.853825 
L 374.618784 224.69422 
L 379.367924 224.025189 
L 381.742494 223.871401 
L 384.117064 223.947637 
L 388.866204 224.450509 
L 395.989914 225.219684 
L 399.658594 225.424324 
L 399.658594 225.424324 
" clip-path="url(#p23546ffd4e)" style="fill: none; stroke: #808080; stroke-opacity: 0.5; stroke-width: 0.5; stroke-linecap: square"/>
   </g>
   <g id="line2d_36">
    <path d="M 46.928125 216.948128 
L 49.302695 217.071985 
L 58.800975 216.375304 
L 61.175545 216.020543 
L 65.924685 215.022861 
L 68.299255 214.97062 
L 70.673825 215.370319 
L 75.422965 216.517341 
L 80.172105 217.635755 
L 84.921245 219.015822 
L 87.295815 219.477871 
L 89.670385 219.709116 
L 101.543235 220.287419 
L 106.292375 220.98312 
L 108.666945 221.348249 
L 111.041515 221.508023 
L 113.416085 221.370674 
L 115.790655 220.966746 
L 120.539795 220.007861 
L 122.914365 219.794522 
L 125.288935 219.810483 
L 134.787215 220.43164 
L 137.161785 220.754829 
L 139.536355 221.309384 
L 144.285495 222.774675 
L 146.660065 223.167862 
L 149.034635 222.883516 
L 151.409205 221.583307 
L 153.783775 218.875412 
L 156.158345 214.341323 
L 160.907485 201.583984 
L 163.282055 198.397545 
L 165.656625 199.341766 
L 168.031195 201.589944 
L 170.405765 202.878115 
L 172.780335 203.124216 
L 175.154905 203.763811 
L 177.529475 206.283177 
L 179.904045 210.12741 
L 182.278615 213.183214 
L 184.653185 214.243463 
L 189.402325 213.339483 
L 191.776895 214.051059 
L 194.151465 215.649539 
L 196.526035 217.06668 
L 198.900605 217.831618 
L 201.275175 218.397428 
L 203.649745 219.097654 
L 206.024314 219.641921 
L 210.773454 220.031038 
L 213.148024 220.738701 
L 217.897164 222.967027 
L 220.271734 223.617079 
L 222.646304 223.884731 
L 229.770014 224.258828 
L 234.519154 224.574167 
L 239.268294 224.636099 
L 241.642864 224.476959 
L 244.017434 224.116051 
L 246.392004 223.423221 
L 251.141144 221.353517 
L 253.515714 221.312499 
L 258.264854 223.212926 
L 260.639424 223.828326 
L 263.013994 223.91024 
L 265.388564 223.439073 
L 270.137704 221.70537 
L 272.512274 221.298003 
L 274.886844 221.550664 
L 279.635984 223.059768 
L 282.010554 223.504402 
L 284.385124 223.622434 
L 291.508834 223.637527 
L 296.257974 223.903232 
L 303.381684 224.578944 
L 305.756254 224.630158 
L 310.505394 224.391895 
L 312.879964 224.192144 
L 315.254534 223.857722 
L 317.629104 223.277972 
L 320.003674 222.416115 
L 324.752814 220.510605 
L 327.127384 219.841103 
L 329.501954 219.446765 
L 331.876524 219.379305 
L 334.251094 219.576617 
L 346.123944 221.203199 
L 348.498514 222.003255 
L 350.873084 222.935757 
L 353.247654 223.681782 
L 355.622224 224.054383 
L 357.996794 224.055138 
L 362.745934 223.647567 
L 365.120504 223.7642 
L 372.244214 225.100178 
L 374.618784 225.17117 
L 379.367924 224.794632 
L 384.117064 224.52804 
L 393.615344 224.315375 
L 399.658594 224.899 
L 399.658594 224.899 
" clip-path="url(#p23546ffd4e)" style="fill: none; stroke: #808080; stroke-opacity: 0.5; stroke-width: 0.5; stroke-linecap: square"/>
   </g>
   <g id="line2d_37">
    <path d="M 46.928125 207.802667 
L 49.302695 211.197599 
L 51.677265 213.445109 
L 54.051835 214.682637 
L 56.426405 215.184399 
L 65.924685 215.577245 
L 73.048395 216.283805 
L 75.422965 216.797175 
L 80.172105 218.070598 
L 82.546675 218.438414 
L 84.921245 218.519929 
L 89.670385 218.359277 
L 92.044955 218.449125 
L 111.041515 220.234646 
L 118.165225 220.496217 
L 122.914365 221.001075 
L 127.663505 221.714666 
L 132.412645 222.061144 
L 139.536355 222.235983 
L 141.910925 222.050704 
L 146.660065 221.408333 
L 149.034635 221.334055 
L 156.158345 221.877161 
L 158.532915 221.684444 
L 160.907485 221.378396 
L 163.282055 221.219047 
L 168.031195 221.235649 
L 170.405765 220.913496 
L 172.780335 220.209405 
L 177.529475 218.374565 
L 182.278615 216.710097 
L 184.653185 215.346956 
L 187.027755 213.481825 
L 189.402325 211.806081 
L 191.776895 211.327585 
L 194.151465 212.242568 
L 196.526035 213.884414 
L 201.275175 217.463654 
L 203.649745 219.116509 
L 206.024314 220.505051 
L 210.773454 222.668891 
L 213.148024 223.67417 
L 215.522594 224.549764 
L 217.897164 225.226764 
L 220.271734 225.739072 
L 222.646304 226.090917 
L 225.020874 226.228039 
L 227.395444 226.097084 
L 229.770014 225.6941 
L 236.893724 223.838859 
L 241.642864 223.090684 
L 244.017434 222.471201 
L 248.766574 220.571188 
L 251.141144 220.51976 
L 253.515714 221.489331 
L 255.890284 222.716648 
L 258.264854 223.572763 
L 260.639424 223.87441 
L 263.013994 223.758807 
L 267.763134 223.377915 
L 270.137704 223.376471 
L 274.886844 223.747516 
L 277.261414 224.007378 
L 279.635984 224.137795 
L 282.010554 224.021724 
L 284.385124 223.642628 
L 286.759694 223.1373 
L 289.134264 222.775205 
L 291.508834 222.717383 
L 296.257974 222.878905 
L 301.007114 222.74735 
L 303.381684 222.899157 
L 310.505394 224.056805 
L 312.879964 224.027757 
L 315.254534 223.612683 
L 317.629104 222.808874 
L 320.003674 221.837248 
L 322.378244 221.142978 
L 324.752814 220.860256 
L 329.501954 220.685525 
L 331.876524 220.785471 
L 334.251094 221.129948 
L 341.374804 222.625816 
L 348.498514 223.56275 
L 350.873084 223.832844 
L 353.247654 223.912402 
L 355.622224 223.660057 
L 360.371364 222.593221 
L 362.745934 222.361358 
L 365.120504 222.502272 
L 369.869644 223.143932 
L 374.618784 223.460067 
L 388.866204 224.18311 
L 393.615344 224.568364 
L 399.658594 224.543562 
L 399.658594 224.543562 
" clip-path="url(#p23546ffd4e)" style="fill: none; stroke: #808080; stroke-opacity: 0.5; stroke-width: 0.5; stroke-linecap: square"/>
   </g>
   <g id="line2d_38">
    <path d="M 46.928125 212.353143 
L 49.302695 212.806405 
L 51.677265 213.453851 
L 54.051835 213.963771 
L 63.550115 215.525828 
L 70.673825 216.183506 
L 84.921245 219.067019 
L 89.670385 219.787113 
L 101.543235 221.290419 
L 106.292375 221.840653 
L 113.416085 222.411007 
L 120.539795 223.138401 
L 125.288935 223.407768 
L 134.787215 223.634793 
L 146.660065 223.995698 
L 151.409205 224.512831 
L 156.158345 225.160376 
L 158.532915 225.325337 
L 163.282055 225.264218 
L 168.031195 225.258709 
L 177.529475 225.830237 
L 179.904045 225.516079 
L 182.278615 224.709599 
L 184.653185 223.365919 
L 189.402325 220.065721 
L 191.776895 218.7184 
L 194.151465 217.805238 
L 196.526035 217.470413 
L 198.900605 217.802132 
L 201.275175 218.670838 
L 203.649745 219.75946 
L 206.024314 220.69446 
L 208.398884 221.089033 
L 210.773454 220.731173 
L 213.148024 219.772911 
L 215.522594 218.679216 
L 217.897164 218.109579 
L 220.271734 218.594605 
L 225.020874 221.277032 
L 227.395444 222.287678 
L 239.268294 225.733481 
L 241.642864 226.187893 
L 244.017434 226.384667 
L 251.141144 226.377436 
L 260.639424 226.435661 
L 263.013994 226.187578 
L 267.763134 225.436975 
L 270.137704 225.280051 
L 272.512274 225.382989 
L 277.261414 225.861224 
L 279.635984 225.951797 
L 284.385124 225.729303 
L 291.508834 225.33774 
L 296.257974 224.734628 
L 298.632544 224.682138 
L 303.381684 225.348412 
L 305.756254 225.370394 
L 308.130824 224.975213 
L 310.505394 224.288943 
L 312.879964 223.721325 
L 315.254534 223.627031 
L 320.003674 224.154469 
L 324.752814 224.849129 
L 327.127384 225.230909 
L 329.501954 225.468205 
L 331.876524 225.393195 
L 334.251094 224.951054 
L 336.625664 224.326444 
L 339.000234 223.882266 
L 341.374804 223.82223 
L 346.123944 224.14854 
L 350.873084 224.154749 
L 353.247654 224.383288 
L 357.996794 225.176509 
L 360.371364 225.394247 
L 376.993354 225.938953 
L 381.742494 225.884615 
L 386.491634 225.434417 
L 388.866204 225.173323 
L 393.615344 224.899588 
L 395.989914 224.612481 
L 399.658594 223.73082 
L 399.658594 223.73082 
" clip-path="url(#p23546ffd4e)" style="fill: none; stroke: #808080; stroke-opacity: 0.5; stroke-width: 0.5; stroke-linecap: square"/>
   </g>
   <g id="line2d_39">
    <path d="M 46.928125 205.023527 
L 49.302695 205.667653 
L 51.677265 207.385607 
L 54.051835 209.944004 
L 56.426405 212.07699 
L 58.800975 213.459584 
L 61.175545 214.316736 
L 63.550115 214.848935 
L 68.299255 215.658338 
L 70.673825 216.476258 
L 73.048395 217.596475 
L 75.422965 218.343134 
L 77.797535 218.571325 
L 82.546675 218.732644 
L 84.921245 219.010038 
L 92.044955 220.429214 
L 99.168665 220.773368 
L 106.292375 221.683845 
L 120.539795 221.869724 
L 130.038075 222.419178 
L 151.409205 222.865974 
L 158.532915 223.064629 
L 163.282055 223.323855 
L 168.031195 223.685719 
L 170.405765 223.532656 
L 172.780335 223.053915 
L 177.529475 221.8448 
L 182.278615 220.838581 
L 184.653185 220.113848 
L 189.402325 218.29097 
L 191.776895 217.817488 
L 194.151465 217.928275 
L 196.526035 218.34009 
L 198.900605 218.889498 
L 201.275175 219.796678 
L 206.024314 222.247643 
L 208.398884 222.958145 
L 210.773454 223.152554 
L 215.522594 223.031078 
L 217.897164 223.319358 
L 222.646304 224.191399 
L 227.395444 224.571508 
L 229.770014 224.597695 
L 232.144584 224.382566 
L 234.519154 223.745382 
L 236.893724 222.547597 
L 239.268294 220.79154 
L 241.642864 218.874383 
L 244.017434 217.753655 
L 246.392004 218.146965 
L 248.766574 219.616473 
L 251.141144 221.257504 
L 253.515714 222.547318 
L 255.890284 223.349026 
L 258.264854 223.694619 
L 260.639424 223.692469 
L 265.388564 223.379925 
L 270.137704 223.434066 
L 274.886844 223.621949 
L 277.261414 223.627128 
L 282.010554 223.313212 
L 286.759694 222.884688 
L 289.134264 222.762909 
L 291.508834 222.770964 
L 293.883404 222.943527 
L 296.257974 223.273149 
L 303.381684 224.525439 
L 305.756254 224.69289 
L 310.505394 224.729518 
L 312.879964 224.679784 
L 315.254534 224.485895 
L 317.629104 223.994502 
L 320.003674 223.126375 
L 324.752814 220.958847 
L 327.127384 220.375315 
L 329.501954 220.271035 
L 331.876524 220.408601 
L 334.251094 220.677492 
L 336.625664 221.166297 
L 339.000234 221.956129 
L 341.374804 222.912557 
L 343.749374 223.748178 
L 346.123944 224.290351 
L 348.498514 224.538689 
L 360.371364 224.684693 
L 365.120504 224.607004 
L 369.869644 224.458913 
L 374.618784 224.544751 
L 384.117064 224.994751 
L 388.866204 225.262509 
L 393.615344 225.199771 
L 399.658594 225.119227 
L 399.658594 225.119227 
" clip-path="url(#p23546ffd4e)" style="fill: none; stroke: #808080; stroke-opacity: 0.5; stroke-width: 0.5; stroke-linecap: square"/>
   </g>
   <g id="line2d_40">
    <path d="M 46.928125 212.014822 
L 49.302695 212.451188 
L 51.677265 212.711708 
L 54.051835 212.804679 
L 56.426405 212.749363 
L 61.175545 212.429588 
L 63.550115 212.642176 
L 65.924685 213.297085 
L 70.673825 215.16682 
L 75.422965 217.025382 
L 77.797535 217.840251 
L 80.172105 218.485852 
L 82.546675 218.753864 
L 84.921245 218.448021 
L 87.295815 217.788146 
L 89.670385 217.320367 
L 92.044955 217.288646 
L 94.419525 217.569785 
L 101.543235 218.66735 
L 108.666945 219.320509 
L 122.914365 220.730895 
L 125.288935 221.008945 
L 127.663505 221.154271 
L 130.038075 221.14542 
L 137.161785 220.661998 
L 139.536355 220.840523 
L 141.910925 221.535701 
L 144.285495 222.390662 
L 146.660065 223.008625 
L 149.034635 223.317188 
L 151.409205 223.219065 
L 153.783775 222.556922 
L 156.158345 221.394574 
L 158.532915 220.012779 
L 160.907485 218.808713 
L 163.282055 218.256003 
L 165.656625 218.526928 
L 170.405765 219.885281 
L 172.780335 220.288095 
L 175.154905 220.263663 
L 179.904045 219.652646 
L 182.278615 219.924895 
L 184.653185 220.795653 
L 187.027755 221.871155 
L 189.402325 222.696304 
L 191.776895 223.167015 
L 196.526035 223.827071 
L 201.275175 224.646196 
L 206.024314 225.220448 
L 210.773454 225.646593 
L 215.522594 225.854385 
L 217.897164 225.815824 
L 222.646304 225.421483 
L 225.020874 225.192968 
L 227.395444 225.084861 
L 232.144584 225.276088 
L 236.893724 225.560201 
L 239.268294 225.602281 
L 241.642864 225.462245 
L 244.017434 225.045359 
L 248.766574 223.598066 
L 251.141144 222.899633 
L 253.515714 222.348501 
L 255.890284 221.942296 
L 260.639424 221.48861 
L 265.388564 221.40906 
L 267.763134 221.637374 
L 270.137704 222.157065 
L 272.512274 222.850332 
L 274.886844 223.417523 
L 277.261414 223.616781 
L 279.635984 223.447828 
L 282.010554 223.150664 
L 284.385124 223.027771 
L 291.508834 223.467543 
L 293.883404 223.218806 
L 298.632544 222.138608 
L 301.007114 221.782965 
L 303.381684 221.688116 
L 308.130824 221.875021 
L 317.629104 222.568149 
L 320.003674 222.498014 
L 322.378244 222.188553 
L 329.501954 220.808079 
L 336.625664 219.671019 
L 339.000234 219.257506 
L 341.374804 219.174733 
L 343.749374 219.719455 
L 346.123944 220.818184 
L 348.498514 222.060635 
L 350.873084 223.090028 
L 353.247654 223.779095 
L 355.622224 224.135721 
L 357.996794 224.191721 
L 360.371364 223.963327 
L 362.745934 223.462528 
L 367.495074 222.030069 
L 369.869644 221.801578 
L 372.244214 222.320885 
L 374.618784 223.143115 
L 376.993354 223.787652 
L 379.367924 224.147119 
L 384.117064 224.317539 
L 388.866204 224.550957 
L 393.615344 224.968891 
L 395.989914 225.063505 
L 399.658594 224.956977 
L 399.658594 224.956977 
" clip-path="url(#p23546ffd4e)" style="fill: none; stroke: #808080; stroke-opacity: 0.5; stroke-width: 0.5; stroke-linecap: square"/>
   </g>
   <g id="line2d_41">
    <path d="M 46.928125 212.971225 
L 49.302695 213.975299 
L 51.677265 213.942324 
L 56.426405 212.543051 
L 58.800975 212.573985 
L 61.175545 213.646401 
L 63.550115 214.872657 
L 65.924685 215.417375 
L 68.299255 215.28452 
L 70.673825 214.958545 
L 73.048395 215.079041 
L 75.422965 215.872727 
L 77.797535 216.799787 
L 80.172105 217.323719 
L 87.295815 217.796496 
L 89.670385 218.237254 
L 92.044955 218.535238 
L 96.794095 218.721927 
L 99.168665 219.004518 
L 103.917805 219.891863 
L 106.292375 220.224637 
L 111.041515 220.564377 
L 118.165225 220.899285 
L 122.914365 221.132478 
L 139.536355 221.436572 
L 144.285495 221.829743 
L 151.409205 222.610012 
L 156.158345 223.531064 
L 158.532915 223.796267 
L 160.907485 223.661067 
L 163.282055 223.131076 
L 165.656625 222.425745 
L 168.031195 221.861173 
L 172.780335 221.300626 
L 175.154905 220.741865 
L 177.529475 219.794597 
L 179.904045 218.719491 
L 182.278615 218.031537 
L 184.653185 218.161044 
L 187.027755 219.070026 
L 189.402325 220.234917 
L 191.776895 221.007307 
L 194.151465 221.000487 
L 196.526035 220.378529 
L 198.900605 219.947729 
L 201.275175 220.352954 
L 206.024314 222.040419 
L 208.398884 222.519939 
L 213.148024 223.136706 
L 217.897164 224.156235 
L 222.646304 225.249006 
L 225.020874 225.667752 
L 227.395444 225.930847 
L 236.893724 226.456165 
L 239.268294 226.483499 
L 244.017434 226.182887 
L 263.013994 224.216588 
L 267.763134 223.746008 
L 274.886844 223.303062 
L 277.261414 222.865875 
L 279.635984 222.07069 
L 282.010554 221.060251 
L 284.385124 220.398112 
L 286.759694 220.573027 
L 293.883404 222.782285 
L 296.257974 223.186614 
L 301.007114 223.566912 
L 305.756254 223.843663 
L 308.130824 223.820083 
L 310.505394 223.538644 
L 317.629104 222.076639 
L 322.378244 221.612379 
L 329.501954 220.100273 
L 331.876524 220.013883 
L 334.251094 220.390985 
L 336.625664 221.113091 
L 341.374804 222.765829 
L 343.749374 223.398447 
L 346.123944 223.739815 
L 348.498514 223.791606 
L 353.247654 223.466929 
L 357.996794 223.110294 
L 360.371364 223.024129 
L 362.745934 223.263074 
L 369.869644 225.161211 
L 372.244214 225.400708 
L 374.618784 225.379386 
L 379.367924 224.870003 
L 386.491634 223.711501 
L 388.866204 223.670073 
L 395.989914 224.458047 
L 399.658594 224.58663 
L 399.658594 224.58663 
" clip-path="url(#p23546ffd4e)" style="fill: none; stroke: #808080; stroke-opacity: 0.5; stroke-width: 0.5; stroke-linecap: square"/>
   </g>
   <g id="line2d_42">
    <path d="M 46.928125 217.685915 
L 49.302695 218.446813 
L 56.426405 221.426851 
L 58.800975 222.070177 
L 61.175545 222.163645 
L 63.550115 221.450878 
L 65.924685 219.966901 
L 68.299255 218.221344 
L 70.673825 217.097795 
L 73.048395 217.169063 
L 75.422965 218.099091 
L 77.797535 219.17493 
L 84.921245 221.963709 
L 87.295815 222.794775 
L 89.670385 223.404982 
L 92.044955 223.639889 
L 94.419525 223.346221 
L 103.917805 219.948798 
L 106.292375 218.746428 
L 108.666945 217.717317 
L 111.041515 217.599669 
L 113.416085 218.570305 
L 115.790655 219.829301 
L 118.165225 220.360498 
L 120.539795 219.671404 
L 122.914365 218.066227 
L 125.288935 217.044664 
L 127.663505 217.950856 
L 130.038075 219.595196 
L 132.412645 220.429637 
L 134.787215 219.987434 
L 137.161785 218.120264 
L 141.910925 211.433194 
L 144.285495 209.923321 
L 146.660065 210.120237 
L 149.034635 211.003143 
L 151.409205 212.200596 
L 153.783775 213.140956 
L 156.158345 213.214971 
L 160.907485 211.917962 
L 163.282055 212.180566 
L 165.656625 213.10961 
L 168.031195 213.563389 
L 170.405765 212.973177 
L 172.780335 211.818085 
L 175.154905 211.10895 
L 177.529475 211.378788 
L 179.904045 211.863234 
L 182.278615 211.548752 
L 184.653185 210.634422 
L 187.027755 210.843794 
L 189.402325 213.204352 
L 191.776895 216.150248 
L 194.151465 218.252211 
L 196.526035 219.311467 
L 198.900605 219.474631 
L 201.275175 218.924625 
L 206.024314 217.034475 
L 208.398884 215.987392 
L 210.773454 214.522425 
L 213.148024 212.417425 
L 215.522594 210.115249 
L 217.897164 209.088006 
L 220.271734 210.505712 
L 225.020874 216.221295 
L 227.395444 218.307568 
L 229.770014 219.796313 
L 232.144584 220.937036 
L 234.519154 221.797049 
L 236.893724 222.338598 
L 241.642864 222.78995 
L 246.392004 223.315626 
L 248.766574 223.404617 
L 251.141144 223.162911 
L 258.264854 221.732039 
L 263.013994 221.450244 
L 267.763134 221.258261 
L 270.137704 221.358229 
L 272.512274 221.802634 
L 277.261414 223.134241 
L 279.635984 223.598022 
L 282.010554 223.780437 
L 284.385124 223.659262 
L 286.759694 223.277996 
L 291.508834 222.282864 
L 293.883404 222.07601 
L 296.257974 222.230549 
L 305.756254 223.858311 
L 308.130824 223.779551 
L 315.254534 222.715437 
L 317.629104 222.817305 
L 320.003674 223.128189 
L 322.378244 223.291759 
L 324.752814 223.085339 
L 327.127384 222.422908 
L 329.501954 221.339301 
L 331.876524 220.126822 
L 334.251094 219.393288 
L 336.625664 219.571951 
L 341.374804 221.284301 
L 343.749374 221.861094 
L 355.622224 223.139994 
L 357.996794 223.133462 
L 362.745934 222.931925 
L 365.120504 223.159517 
L 369.869644 224.030287 
L 372.244214 224.206013 
L 381.742494 224.034438 
L 388.866204 224.426634 
L 395.989914 225.351836 
L 399.658594 225.305099 
L 399.658594 225.305099 
" clip-path="url(#p23546ffd4e)" style="fill: none; stroke: #808080; stroke-opacity: 0.5; stroke-width: 0.5; stroke-linecap: square"/>
   </g>
   <g id="line2d_43">
    <path d="M 46.928125 226.058735 
L 51.677265 225.138392 
L 54.051835 225.037169 
L 56.426405 225.078691 
L 58.800975 224.776189 
L 61.175545 223.818515 
L 63.550115 222.558525 
L 65.924685 221.920152 
L 68.299255 222.34793 
L 73.048395 224.130737 
L 75.422965 224.724616 
L 77.797535 225.170548 
L 80.172105 225.498732 
L 82.546675 225.549184 
L 84.921245 225.169463 
L 87.295815 224.401556 
L 89.670385 223.367221 
L 92.044955 222.147017 
L 94.419525 220.77768 
L 96.794095 219.276263 
L 99.168665 217.541386 
L 101.543235 215.242781 
L 103.917805 212.491202 
L 106.292375 211.238949 
L 108.666945 213.105099 
L 111.041515 215.761467 
L 113.416085 217.096802 
L 115.790655 216.948819 
L 118.165225 215.834413 
L 120.539795 214.565264 
L 122.914365 213.902092 
L 127.663505 213.715043 
L 134.787215 212.602207 
L 137.161785 212.80906 
L 139.536355 212.832145 
L 141.910925 211.535541 
L 146.660065 205.082369 
L 149.034635 205.651625 
L 151.409205 209.049409 
L 153.783775 211.583385 
L 156.158345 212.002163 
L 158.532915 210.462735 
L 160.907485 207.510352 
L 163.282055 204.268855 
L 165.656625 202.534091 
L 168.031195 203.223646 
L 170.405765 205.067732 
L 172.780335 206.324251 
L 175.154905 206.788165 
L 177.529475 207.783277 
L 179.904045 209.753733 
L 182.278615 211.506723 
L 184.653185 212.214151 
L 187.027755 212.132882 
L 189.402325 212.374785 
L 191.776895 214.016926 
L 194.151465 216.436667 
L 196.526035 218.093584 
L 198.900605 218.491806 
L 201.275175 217.992929 
L 203.649745 217.155458 
L 206.024314 216.473241 
L 208.398884 216.283132 
L 210.773454 216.682508 
L 217.897164 219.173349 
L 220.271734 219.624496 
L 222.646304 219.716816 
L 227.395444 219.531136 
L 229.770014 219.890858 
L 234.519154 221.550645 
L 236.893724 222.122731 
L 239.268294 222.251267 
L 241.642864 221.990013 
L 248.766574 220.628518 
L 251.141144 220.672261 
L 253.515714 221.186161 
L 258.264854 222.872124 
L 260.639424 223.504806 
L 263.013994 223.728413 
L 265.388564 223.463325 
L 267.763134 222.784197 
L 270.137704 221.933005 
L 272.512274 221.268829 
L 274.886844 221.081283 
L 279.635984 221.582441 
L 282.010554 221.457787 
L 286.759694 220.475716 
L 289.134264 220.644013 
L 296.257974 222.74054 
L 298.632544 223.197055 
L 301.007114 223.534071 
L 303.381684 223.742649 
L 308.130824 223.722809 
L 310.505394 223.717437 
L 317.629104 224.127761 
L 320.003674 224.027512 
L 327.127384 223.461421 
L 329.501954 223.290947 
L 331.876524 222.990108 
L 336.625664 222.156242 
L 339.000234 222.102628 
L 341.374804 222.55754 
L 343.749374 223.233254 
L 346.123944 223.745768 
L 348.498514 223.990906 
L 353.247654 224.031512 
L 360.371364 223.836016 
L 367.495074 223.101043 
L 369.869644 223.082448 
L 376.993354 223.551256 
L 379.367924 223.501555 
L 384.117064 223.230881 
L 386.491634 223.384602 
L 391.240774 224.150098 
L 393.615344 224.314409 
L 399.658594 224.045868 
L 399.658594 224.045868 
" clip-path="url(#p23546ffd4e)" style="fill: none; stroke: #808080; stroke-opacity: 0.5; stroke-width: 0.5; stroke-linecap: square"/>
   </g>
   <g id="line2d_44">
    <path d="M 46.928125 211.284487 
L 49.302695 210.750745 
L 51.677265 210.43053 
L 54.051835 210.651779 
L 56.426405 211.26994 
L 61.175545 212.887048 
L 65.924685 214.774028 
L 68.299255 215.493397 
L 73.048395 216.4924 
L 77.797535 217.244231 
L 82.546675 217.54786 
L 87.295815 217.760659 
L 92.044955 218.255609 
L 96.794095 218.902879 
L 101.543235 219.074521 
L 103.917805 219.152468 
L 108.666945 219.705869 
L 113.416085 220.297843 
L 127.663505 221.634833 
L 130.038075 221.612664 
L 137.161785 221.089024 
L 146.660065 220.957934 
L 149.034635 221.110816 
L 153.783775 221.667837 
L 156.158345 221.750895 
L 163.282055 221.619292 
L 165.656625 221.177579 
L 168.031195 219.895373 
L 170.405765 217.599567 
L 172.780335 214.836915 
L 175.154905 212.496003 
L 177.529475 211.037512 
L 179.904045 210.591869 
L 182.278615 211.163127 
L 184.653185 212.45295 
L 189.402325 215.449509 
L 191.776895 216.692043 
L 194.151465 217.665706 
L 201.275175 219.919915 
L 208.398884 222.492772 
L 213.148024 223.906098 
L 215.522594 224.538019 
L 217.897164 225.035521 
L 220.271734 225.326783 
L 222.646304 225.403386 
L 225.020874 225.300903 
L 229.770014 224.718997 
L 234.519154 223.983163 
L 239.268294 223.558427 
L 241.642864 223.375082 
L 244.017434 223.052343 
L 251.141144 221.471361 
L 253.515714 221.561845 
L 258.264854 222.460973 
L 260.639424 222.558618 
L 263.013994 222.234838 
L 270.137704 220.375665 
L 272.512274 220.206358 
L 274.886844 220.531407 
L 277.261414 221.296484 
L 279.635984 222.191786 
L 282.010554 222.963562 
L 284.385124 223.577349 
L 286.759694 224.064337 
L 289.134264 224.410268 
L 291.508834 224.575707 
L 293.883404 224.526913 
L 296.257974 224.23186 
L 298.632544 223.693422 
L 303.381684 222.360963 
L 310.505394 220.698046 
L 315.254534 219.865072 
L 317.629104 219.70712 
L 320.003674 220.101488 
L 324.752814 222.151342 
L 327.127384 222.629822 
L 329.501954 222.5601 
L 336.625664 221.244803 
L 339.000234 221.139652 
L 341.374804 221.313441 
L 346.123944 221.915796 
L 348.498514 222.321695 
L 355.622224 224.077073 
L 360.371364 224.721422 
L 365.120504 225.073697 
L 367.495074 225.130226 
L 369.869644 225.064398 
L 374.618784 224.56148 
L 379.367924 223.961003 
L 384.117064 223.68522 
L 386.491634 223.69836 
L 388.866204 223.846031 
L 395.989914 224.605227 
L 399.658594 224.517069 
L 399.658594 224.517069 
" clip-path="url(#p23546ffd4e)" style="fill: none; stroke: #808080; stroke-opacity: 0.5; stroke-width: 0.5; stroke-linecap: square"/>
   </g>
   <g id="line2d_45">
    <path d="M 46.928125 220.975092 
L 49.302695 218.964946 
L 51.677265 217.15109 
L 54.051835 215.932174 
L 56.426405 215.609759 
L 58.800975 216.675718 
L 61.175545 218.588266 
L 63.550115 219.984014 
L 65.924685 220.000141 
L 68.299255 218.412285 
L 73.048395 212.681084 
L 75.422965 211.417872 
L 77.797535 211.906279 
L 80.172105 213.093116 
L 87.295815 217.272924 
L 89.670385 218.203451 
L 92.044955 218.610856 
L 94.419525 218.483251 
L 96.794095 218.027954 
L 99.168665 217.752743 
L 103.917805 217.872085 
L 106.292375 217.52737 
L 108.666945 216.714664 
L 113.416085 214.560279 
L 115.790655 213.998991 
L 118.165225 214.563578 
L 122.914365 217.959172 
L 125.288935 218.098719 
L 127.663505 216.69689 
L 130.038075 214.474344 
L 132.412645 212.623126 
L 134.787215 212.255211 
L 137.161785 212.769005 
L 139.536355 212.696087 
L 141.910925 211.444835 
L 144.285495 209.172046 
L 146.660065 206.421669 
L 149.034635 203.92846 
L 151.409205 202.552558 
L 153.783775 203.084637 
L 156.158345 205.081288 
L 158.532915 206.685757 
L 160.907485 206.60049 
L 163.282055 204.803585 
L 165.656625 202.534581 
L 168.031195 201.681549 
L 170.405765 202.642432 
L 175.154905 206.280745 
L 177.529475 206.754057 
L 179.904045 205.076297 
L 184.653185 198.484116 
L 187.027755 197.275413 
L 189.402325 199.380878 
L 191.776895 204.842371 
L 194.151465 211.041592 
L 196.526035 215.446604 
L 198.900605 217.749378 
L 201.275175 218.547609 
L 203.649745 218.398679 
L 206.024314 217.954327 
L 208.398884 218.210238 
L 213.148024 220.928502 
L 215.522594 221.690042 
L 217.897164 221.749011 
L 220.271734 221.322197 
L 222.646304 220.619809 
L 225.020874 219.704729 
L 227.395444 218.479364 
L 229.770014 216.985007 
L 232.144584 216.169609 
L 234.519154 217.528018 
L 236.893724 220.165336 
L 239.268294 222.223965 
L 241.642864 223.351358 
L 244.017434 223.791606 
L 246.392004 223.770189 
L 251.141144 223.057711 
L 253.515714 222.722121 
L 255.890284 222.608058 
L 263.013994 222.89662 
L 265.388564 222.514003 
L 267.763134 221.769971 
L 272.512274 219.873362 
L 274.886844 219.675456 
L 277.261414 220.499866 
L 279.635984 221.759696 
L 282.010554 222.732001 
L 284.385124 223.230286 
L 298.632544 224.435305 
L 301.007114 224.257906 
L 303.381684 223.803996 
L 305.756254 223.194565 
L 308.130824 222.772011 
L 310.505394 222.822216 
L 315.254534 223.660417 
L 317.629104 223.800863 
L 320.003674 223.595306 
L 324.752814 222.628998 
L 327.127384 222.118977 
L 329.501954 221.724198 
L 334.251094 221.142392 
L 339.000234 220.274284 
L 341.374804 220.147548 
L 343.749374 220.386266 
L 353.247654 221.957113 
L 357.996794 222.401624 
L 365.120504 222.905548 
L 372.244214 223.480888 
L 376.993354 223.65145 
L 381.742494 223.749881 
L 386.491634 224.21806 
L 388.866204 224.480996 
L 391.240774 224.616218 
L 399.658594 224.537143 
L 399.658594 224.537143 
" clip-path="url(#p23546ffd4e)" style="fill: none; stroke: #808080; stroke-opacity: 0.5; stroke-width: 0.5; stroke-linecap: square"/>
   </g>
   <g id="line2d_46">
    <path d="M 46.928125 207.86888 
L 49.302695 210.554681 
L 51.677265 212.531948 
L 54.051835 214.215959 
L 56.426405 215.696666 
L 58.800975 216.880757 
L 61.175545 217.701967 
L 63.550115 218.059402 
L 65.924685 217.705078 
L 68.299255 216.420579 
L 70.673825 214.805861 
L 73.048395 214.421476 
L 75.422965 215.428524 
L 77.797535 216.591077 
L 87.295815 219.885447 
L 89.670385 220.43002 
L 92.044955 220.523709 
L 96.794095 220.201994 
L 99.168665 220.267751 
L 111.041515 221.326482 
L 115.790655 221.23695 
L 118.165225 221.177346 
L 120.539795 221.262839 
L 125.288935 221.766707 
L 127.663505 221.882613 
L 134.787215 221.839704 
L 139.536355 221.903902 
L 144.285495 221.911254 
L 153.783775 222.318737 
L 156.158345 222.280076 
L 158.532915 222.128073 
L 160.907485 221.843774 
L 168.031195 220.512534 
L 170.405765 220.412574 
L 172.780335 220.749942 
L 175.154905 221.266148 
L 177.529475 221.59917 
L 179.904045 221.626083 
L 182.278615 221.441054 
L 184.653185 221.130398 
L 191.776895 219.784063 
L 194.151465 219.865864 
L 198.900605 220.649944 
L 203.649745 220.866511 
L 206.024314 220.799216 
L 208.398884 220.389654 
L 213.148024 218.691255 
L 215.522594 218.433437 
L 217.897164 219.175284 
L 220.271734 220.496691 
L 222.646304 221.61417 
L 225.020874 222.079603 
L 227.395444 221.782524 
L 229.770014 220.710563 
L 232.144584 219.059292 
L 234.519154 217.646007 
L 236.893724 217.514678 
L 239.268294 218.531329 
L 241.642864 219.734718 
L 244.017434 220.613099 
L 251.141144 222.457021 
L 253.515714 223.15312 
L 255.890284 223.685073 
L 258.264854 223.88177 
L 260.639424 223.705046 
L 267.763134 222.247248 
L 270.137704 222.037383 
L 272.512274 222.061003 
L 282.010554 222.617918 
L 286.759694 222.967015 
L 291.508834 223.427661 
L 293.883404 223.78338 
L 296.257974 224.342305 
L 301.007114 225.640538 
L 303.381684 226.071697 
L 308.130824 226.459684 
L 315.254534 226.834013 
L 317.629104 226.82472 
L 320.003674 226.611865 
L 322.378244 226.079165 
L 324.752814 225.107042 
L 329.501954 222.539374 
L 331.876524 221.929982 
L 334.251094 221.857452 
L 339.000234 222.196702 
L 343.749374 222.88021 
L 353.247654 224.473443 
L 355.622224 224.42661 
L 360.371364 223.924239 
L 362.745934 224.175233 
L 365.120504 224.729482 
L 367.495074 225.140197 
L 369.869644 225.196369 
L 372.244214 224.950382 
L 376.993354 224.220885 
L 379.367924 224.063127 
L 381.742494 224.131545 
L 386.491634 224.701833 
L 391.240774 225.226764 
L 393.615344 225.295829 
L 395.989914 225.205961 
L 399.658594 224.85467 
L 399.658594 224.85467 
" clip-path="url(#p23546ffd4e)" style="fill: none; stroke: #808080; stroke-opacity: 0.5; stroke-width: 0.5; stroke-linecap: square"/>
   </g>
   <g id="line2d_47">
    <path d="M 46.928125 212.651343 
L 49.302695 213.104611 
L 54.051835 213.544987 
L 58.800975 213.869237 
L 63.550115 214.449543 
L 68.299255 214.665087 
L 70.673825 214.793263 
L 73.048395 215.1857 
L 77.797535 216.484407 
L 80.172105 217.15068 
L 82.546675 217.658598 
L 84.921245 217.908782 
L 92.044955 218.163775 
L 101.543235 217.987018 
L 111.041515 218.802584 
L 118.165225 218.853878 
L 122.914365 219.143857 
L 127.663505 219.472199 
L 130.038075 219.539021 
L 134.787215 219.357819 
L 139.536355 219.115816 
L 144.285495 219.16731 
L 151.409205 219.222429 
L 156.158345 219.001726 
L 158.532915 218.651151 
L 165.656625 217.142647 
L 168.031195 216.919171 
L 175.154905 216.680226 
L 177.529475 216.790323 
L 182.278615 217.238892 
L 189.402325 217.316991 
L 201.275175 218.778003 
L 206.024314 219.794057 
L 208.398884 220.070498 
L 213.148024 220.417132 
L 217.897164 221.303599 
L 220.271734 221.75602 
L 222.646304 222.08294 
L 227.395444 222.445158 
L 236.893724 222.893535 
L 241.642864 222.998941 
L 251.141144 222.934929 
L 258.264854 223.553795 
L 260.639424 223.549292 
L 263.013994 223.342061 
L 270.137704 222.309295 
L 272.512274 222.301877 
L 274.886844 222.584591 
L 279.635984 223.360897 
L 282.010554 223.489491 
L 289.134264 223.454369 
L 303.381684 224.377081 
L 310.505394 224.202828 
L 315.254534 224.03028 
L 320.003674 223.536794 
L 327.127384 222.608998 
L 334.251094 221.854621 
L 336.625664 221.707119 
L 339.000234 221.736021 
L 341.374804 221.982392 
L 350.873084 223.563061 
L 353.247654 223.788179 
L 355.622224 223.876634 
L 360.371364 223.678515 
L 362.745934 223.578074 
L 365.120504 223.610818 
L 374.618784 224.12244 
L 381.742494 224.221379 
L 395.989914 224.732133 
L 399.658594 224.663979 
L 399.658594 224.663979 
" clip-path="url(#p23546ffd4e)" style="fill: none; stroke: #000000; stroke-width: 1.5; stroke-linecap: square"/>
   </g>
   <g id="line2d_48">
    <defs>
     <path id="m5e8c9283e3" d="M 0 2.5 
C 0.663008 2.5 1.29895 2.236584 1.767767 1.767767 
C 2.236584 1.29895 2.5 0.663008 2.5 0 
C 2.5 -0.663008 2.236584 -1.29895 1.767767 -1.767767 
C 1.29895 -2.236584 0.663008 -2.5 0 -2.5 
C -0.663008 -2.5 -1.29895 -2.236584 -1.767767 -1.767767 
C -2.236584 -1.29895 -2.5 -0.663008 -2.5 0 
C -2.5 0.663008 -2.236584 1.29895 -1.767767 1.767767 
C -1.29895 2.236584 -0.663008 2.5 0 2.5 
z
" style="stroke: #ffffff; stroke-width: 0.5"/>
    </defs>
    <g clip-path="url(#p23546ffd4e)">
     <use xlink:href="#m5e8c9283e3" x="46.928125" y="212.651343" style="fill: #ff0000; stroke: #ffffff; stroke-width: 0.5"/>
    </g>
   </g>
   <g id="patch_3">
    <path d="M 46.928125 228.96 
L 46.928125 7.2 
" style="fill: none; stroke: #000000; stroke-width: 0.8; stroke-linejoin: miter; stroke-linecap: square"/>
   </g>
   <g id="patch_4">
    <path d="M 46.928125 228.96 
L 381.728125 228.96 
" style="fill: none; stroke: #000000; stroke-width: 0.8; stroke-linejoin: miter; stroke-linecap: square"/>
   </g>
  </g>
 </g>
 <defs>
  <clipPath id="p23546ffd4e">
   <rect x="46.928125" y="7.2" width="334.8" height="221.76"/>
  </clipPath>
 </defs>
</svg>
