<?xml version="1.0" encoding="utf-8" standalone="no"?>
<!DOCTYPE svg PUBLIC "-//W3C//DTD SVG 1.1//EN"
  "http://www.w3.org/Graphics/SVG/1.1/DTD/svg11.dtd">
<svg xmlns:xlink="http://www.w3.org/1999/xlink" width="398.658594pt" height="265.689687pt" viewBox="0 0 398.658594 265.689687" xmlns="http://www.w3.org/2000/svg" version="1.1">
 <metadata>
  <rdf:RDF xmlns:dc="http://purl.org/dc/elements/1.1/" xmlns:cc="http://creativecommons.org/ns#" xmlns:rdf="http://www.w3.org/1999/02/22-rdf-syntax-ns#">
   <cc:Work>
    <dc:type rdf:resource="http://purl.org/dc/dcmitype/StillImage"/>
    <dc:date>2024-09-14T12:48:54.263383</dc:date>
    <dc:format>image/svg+xml</dc:format>
    <dc:creator>
     <cc:Agent>
      <dc:title>Matplotlib v3.9.2, https://matplotlib.org/</dc:title>
     </cc:Agent>
    </dc:creator>
   </cc:Work>
  </rdf:RDF>
 </metadata>
 <defs>
  <style type="text/css">*{stroke-linejoin: round; stroke-linecap: butt}</style>
 </defs>
 <g id="figure_1">
  <g id="patch_1">
   <path d="M 0 265.689687 
L 398.658594 265.689687 
L 398.658594 0 
L 0 0 
z
" style="fill: #ffffff"/>
  </g>
  <g id="axes_1">
   <g id="patch_2">
    <path d="M 46.928125 228.96 
L 381.728125 228.96 
L 381.728125 7.2 
L 46.928125 7.2 
z
" style="fill: #ffffff"/>
   </g>
   <g id="PolyCollection_1">
    <path d="M 46.928125 142.205542 
L 46.928125 217.741859 
L 49.302695 218.18743 
L 51.677265 218.213071 
L 54.051835 217.905893 
L 56.426405 217.806685 
L 58.800975 218.232713 
L 61.175545 218.940371 
L 63.550115 219.526383 
L 65.924685 219.82802 
L 68.299255 219.871678 
L 70.673825 219.686242 
L 73.048395 219.284296 
L 75.422965 218.814897 
L 77.797535 218.641368 
L 80.172105 218.978741 
L 82.546675 219.515399 
L 84.921245 219.858191 
L 87.295815 219.829847 
L 89.670385 219.405653 
L 92.044955 218.787516 
L 94.419525 218.23536 
L 96.794095 217.822251 
L 99.168665 217.458406 
L 101.543235 217.009136 
L 103.917805 216.329176 
L 106.292375 215.487594 
L 108.666945 214.879511 
L 111.041515 214.862425 
L 113.416085 215.364793 
L 115.790655 215.920351 
L 118.165225 216.15139 
L 120.539795 216.165058 
L 122.914365 216.230364 
L 125.288935 216.407897 
L 127.663505 216.593311 
L 130.038075 216.819256 
L 132.412645 217.182369 
L 134.787215 217.564954 
L 137.161785 217.945178 
L 139.536355 218.454217 
L 141.910925 219.104078 
L 144.285495 219.811086 
L 146.660065 220.505322 
L 149.034635 221.104711 
L 151.409205 221.429607 
L 153.783775 221.339684 
L 156.158345 220.937648 
L 158.532915 220.5121 
L 160.907485 220.31799 
L 163.282055 220.388146 
L 165.656625 220.566081 
L 168.031195 220.603968 
L 170.405765 220.484529 
L 172.780335 220.409325 
L 175.154905 220.399666 
L 177.529475 220.36257 
L 179.904045 220.147883 
L 182.278615 219.615034 
L 184.653185 218.985344 
L 187.027755 218.84836 
L 189.402325 219.266831 
L 191.776895 219.566679 
L 194.151465 219.376786 
L 196.526035 218.953334 
L 198.900605 218.745598 
L 201.275175 218.784485 
L 203.649745 218.9713 
L 206.024314 219.173802 
L 208.398884 219.353461 
L 210.773454 219.661573 
L 213.148024 220.147701 
L 215.522594 220.718108 
L 217.897164 221.260309 
L 220.271734 221.551894 
L 222.646304 221.449848 
L 225.020874 221.15992 
L 227.395444 221.101077 
L 229.770014 221.365258 
L 232.144584 221.674193 
L 234.519154 221.846635 
L 236.893724 221.973258 
L 239.268294 222.243663 
L 241.642864 222.628934 
L 244.017434 223.02839 
L 246.392004 223.396927 
L 248.766574 223.697639 
L 251.141144 223.960673 
L 253.515714 224.234414 
L 255.890284 224.466463 
L 258.264854 224.585995 
L 260.639424 224.625862 
L 263.013994 224.661216 
L 265.388564 224.680677 
L 267.763134 224.639244 
L 270.137704 224.54982 
L 272.512274 224.434696 
L 274.886844 224.250913 
L 277.261414 223.970563 
L 279.635984 223.686466 
L 282.010554 223.48635 
L 284.385124 223.334172 
L 286.759694 223.220164 
L 289.134264 223.184222 
L 291.508834 223.253951 
L 293.883404 223.395139 
L 296.257974 223.488487 
L 298.632544 223.459555 
L 301.007114 223.381053 
L 303.381684 223.350321 
L 305.756254 223.383427 
L 308.130824 223.425948 
L 310.505394 223.460444 
L 312.879964 223.518971 
L 315.254534 223.596152 
L 317.629104 223.66354 
L 320.003674 223.777846 
L 322.378244 224.039004 
L 324.752814 224.328943 
L 327.127384 224.488095 
L 329.501954 224.537342 
L 331.876524 224.604205 
L 334.251094 224.782463 
L 336.625664 225.072219 
L 339.000234 225.378965 
L 341.374804 225.604727 
L 343.749374 225.722626 
L 346.123944 225.746514 
L 348.498514 225.689499 
L 350.873084 225.560831 
L 353.247654 225.397075 
L 355.622224 225.291435 
L 357.996794 225.320592 
L 360.371364 225.438545 
L 362.745934 225.550132 
L 365.120504 225.605847 
L 367.495074 225.601642 
L 369.869644 225.561905 
L 372.244214 225.520871 
L 374.618784 225.46725 
L 376.993354 225.363766 
L 379.367924 225.224488 
L 381.742494 225.101221 
L 384.117064 225.036525 
L 386.491634 225.038021 
L 388.866204 225.065698 
L 391.240774 225.056156 
L 393.615344 224.969642 
L 395.989914 224.814024 
L 398.364484 224.635072 
L 400.739054 224.440525 
L 403.113624 224.181452 
L 405.488194 223.84152 
L 407.862764 223.44319 
L 410.237334 223.008229 
L 412.611904 222.555188 
L 414.986474 222.131924 
L 417.361044 221.817705 
L 419.735614 221.652894 
L 422.110184 221.616029 
L 424.484754 221.679845 
L 426.859324 221.829316 
L 429.233894 222.0115 
L 431.608464 222.106801 
L 433.983034 222.058769 
L 436.357604 221.948983 
L 438.732174 221.851512 
L 441.106744 221.772814 
L 443.481314 221.714196 
L 445.855884 221.700043 
L 448.230454 221.749171 
L 450.605024 221.815331 
L 452.979594 221.90191 
L 455.354164 222.090407 
L 457.728734 222.417031 
L 460.103304 222.788432 
L 462.477874 223.093969 
L 464.852444 223.294614 
L 467.227014 223.385887 
L 469.601584 223.40509 
L 471.976154 223.418865 
L 474.350724 223.47378 
L 476.725294 223.592457 
L 479.099864 223.773173 
L 481.474434 223.965438 
L 483.849004 224.118429 
L 486.223574 224.231161 
L 488.598144 224.318984 
L 490.972714 224.378143 
L 493.347284 224.419568 
L 495.721854 224.46272 
L 498.096424 224.477574 
L 500.470994 224.424067 
L 502.845564 224.318618 
L 505.220134 224.221309 
L 507.594704 224.181539 
L 509.969274 224.219875 
L 512.343844 224.334866 
L 514.718414 224.502732 
L 517.092984 224.686561 
L 519.467554 224.862167 
L 519.467554 222.609132 
L 519.467554 222.609132 
L 517.092984 222.459758 
L 514.718414 222.216914 
L 512.343844 221.910665 
L 509.969274 221.584327 
L 507.594704 221.280196 
L 505.220134 221.023541 
L 502.845564 220.836835 
L 500.470994 220.779112 
L 498.096424 220.934007 
L 495.721854 221.287214 
L 493.347284 221.691344 
L 490.972714 221.997404 
L 488.598144 222.144472 
L 486.223574 222.12769 
L 483.849004 221.983927 
L 481.474434 221.779858 
L 479.099864 221.556927 
L 476.725294 221.330207 
L 474.350724 221.144762 
L 471.976154 221.056835 
L 469.601584 221.043054 
L 467.227014 221.027486 
L 464.852444 220.957842 
L 462.477874 220.814017 
L 460.103304 220.604728 
L 457.728734 220.380184 
L 455.354164 220.166495 
L 452.979594 219.991385 
L 450.605024 219.935939 
L 448.230454 220.00382 
L 445.855884 220.079299 
L 443.481314 220.085983 
L 441.106744 220.08997 
L 438.732174 220.139193 
L 436.357604 220.211093 
L 433.983034 220.254408 
L 431.608464 220.248526 
L 429.233894 220.186986 
L 426.859324 220.054234 
L 424.484754 219.903273 
L 422.110184 219.86188 
L 419.735614 219.984554 
L 417.361044 220.204564 
L 414.986474 220.473595 
L 412.611904 220.846034 
L 410.237334 221.372012 
L 407.862764 221.981501 
L 405.488194 222.55557 
L 403.113624 223.032097 
L 400.739054 223.414527 
L 398.364484 223.703868 
L 395.989914 223.869231 
L 393.615344 223.93977 
L 391.240774 223.991001 
L 388.866204 224.060977 
L 386.491634 224.139005 
L 384.117064 224.202736 
L 381.742494 224.265149 
L 379.367924 224.352877 
L 376.993354 224.471661 
L 374.618784 224.619248 
L 372.244214 224.756063 
L 369.869644 224.790438 
L 367.495074 224.687453 
L 365.120504 224.496079 
L 362.745934 224.286499 
L 360.371364 224.146316 
L 357.996794 224.138105 
L 355.622224 224.214934 
L 353.247654 224.305538 
L 350.873084 224.439809 
L 348.498514 224.623693 
L 346.123944 224.746624 
L 343.749374 224.693392 
L 341.374804 224.441378 
L 339.000234 224.068561 
L 336.625664 223.683217 
L 334.251094 223.332154 
L 331.876524 223.016812 
L 329.501954 222.70969 
L 327.127384 222.380023 
L 324.752814 222.105224 
L 322.378244 221.926304 
L 320.003674 221.682704 
L 317.629104 221.338438 
L 315.254534 221.185308 
L 312.879964 221.315112 
L 310.505394 221.503861 
L 308.130824 221.55102 
L 305.756254 221.443283 
L 303.381684 221.269493 
L 301.007114 221.133203 
L 298.632544 221.110262 
L 296.257974 221.185073 
L 293.883404 221.244878 
L 291.508834 221.109328 
L 289.134264 220.710873 
L 286.759694 220.186704 
L 284.385124 219.793385 
L 282.010554 219.771151 
L 279.635984 220.074044 
L 277.261414 220.36825 
L 274.886844 220.578823 
L 272.512274 220.793437 
L 270.137704 220.896288 
L 267.763134 220.818454 
L 265.388564 220.755423 
L 263.013994 220.868569 
L 260.639424 221.022738 
L 258.264854 221.069252 
L 255.890284 221.107307 
L 253.515714 221.239756 
L 251.141144 221.376001 
L 248.766574 221.380492 
L 246.392004 221.163284 
L 244.017434 220.643954 
L 241.642864 219.852428 
L 239.268294 218.93816 
L 236.893724 217.879658 
L 234.519154 216.574423 
L 232.144584 215.449911 
L 229.770014 215.160432 
L 227.395444 215.567486 
L 225.020874 215.835347 
L 222.646304 215.545802 
L 220.271734 214.906618 
L 217.897164 214.123719 
L 215.522594 213.15868 
L 213.148024 212.027548 
L 210.773454 211.016612 
L 208.398884 210.351803 
L 206.024314 210.191782 
L 203.649745 210.616418 
L 201.275175 211.308395 
L 198.900605 212.040211 
L 196.526035 212.516959 
L 194.151465 212.183755 
L 191.776895 211.422658 
L 189.402325 211.065665 
L 187.027755 211.074165 
L 184.653185 210.693803 
L 182.278615 210.110653 
L 179.904045 210.116694 
L 177.529475 210.550473 
L 175.154905 210.807157 
L 172.780335 210.790285 
L 170.405765 210.514006 
L 168.031195 209.909385 
L 165.656625 209.10502 
L 163.282055 207.899926 
L 160.907485 206.196526 
L 158.532915 204.477553 
L 156.158345 203.051231 
L 153.783775 201.695168 
L 151.409205 200.145465 
L 149.034635 198.549471 
L 146.660065 196.884971 
L 144.285495 195.020903 
L 141.910925 193.24036 
L 139.536355 191.929583 
L 137.161785 190.992062 
L 134.787215 190.099515 
L 132.412645 189.140449 
L 130.038075 187.720047 
L 127.663505 185.791345 
L 125.288935 184.583225 
L 122.914365 184.147625 
L 120.539795 183.200356 
L 118.165225 181.440715 
L 115.790655 180.173559 
L 113.416085 179.972953 
L 111.041515 179.675411 
L 108.666945 178.928188 
L 106.292375 178.092837 
L 103.917805 177.060133 
L 101.543235 175.520163 
L 99.168665 173.411858 
L 96.794095 171.684701 
L 94.419525 171.778668 
L 92.044955 173.213115 
L 89.670385 174.33145 
L 87.295815 173.925294 
L 84.921245 171.241655 
L 82.546675 166.507746 
L 80.172105 161.74244 
L 77.797535 158.139975 
L 75.422965 155.33797 
L 73.048395 154.422551 
L 70.673825 154.742632 
L 68.299255 153.757328 
L 65.924685 150.641753 
L 63.550115 147.028054 
L 61.175545 145.844295 
L 58.800975 147.625384 
L 56.426405 149.660516 
L 54.051835 149.752769 
L 51.677265 148.138848 
L 49.302695 145.781789 
L 46.928125 142.205542 
z
" clip-path="url(#p309cc646c1)" style="fill: #808080; fill-opacity: 0.5; stroke: #808080; stroke-opacity: 0.5"/>
   </g>
   <g id="matplotlib.axis_1">
    <g id="xtick_1">
     <g id="line2d_1">
      <defs>
       <path id="mb1a4d77687" d="M 0 0 
L 0 3.5 
" style="stroke: #000000; stroke-width: 0.8"/>
      </defs>
      <g>
       <use xlink:href="#mb1a4d77687" x="184.667554" y="228.96" style="stroke: #000000; stroke-width: 0.8"/>
      </g>
     </g>
     <g id="text_1">
      <!-- 1.0 -->
      <g transform="translate(177.717554 243.117812) scale(0.1 -0.1)">
       <defs>
        <path id="ArialMT-31" d="M 2384 0 
L 1822 0 
L 1822 3584 
Q 1619 3391 1289 3197 
Q 959 3003 697 2906 
L 697 3450 
Q 1169 3672 1522 3987 
Q 1875 4303 2022 4600 
L 2384 4600 
L 2384 0 
z
" transform="scale(0.015625)"/>
        <path id="ArialMT-2e" d="M 581 0 
L 581 641 
L 1222 641 
L 1222 0 
L 581 0 
z
" transform="scale(0.015625)"/>
        <path id="ArialMT-30" d="M 266 2259 
Q 266 3072 433 3567 
Q 600 4063 929 4331 
Q 1259 4600 1759 4600 
Q 2128 4600 2406 4451 
Q 2684 4303 2865 4023 
Q 3047 3744 3150 3342 
Q 3253 2941 3253 2259 
Q 3253 1453 3087 958 
Q 2922 463 2592 192 
Q 2263 -78 1759 -78 
Q 1097 -78 719 397 
Q 266 969 266 2259 
z
M 844 2259 
Q 844 1131 1108 757 
Q 1372 384 1759 384 
Q 2147 384 2411 759 
Q 2675 1134 2675 2259 
Q 2675 3391 2411 3762 
Q 2147 4134 1753 4134 
Q 1366 4134 1134 3806 
Q 844 3388 844 2259 
z
" transform="scale(0.015625)"/>
       </defs>
       <use xlink:href="#ArialMT-31"/>
       <use xlink:href="#ArialMT-2e" x="55.615234"/>
       <use xlink:href="#ArialMT-30" x="83.398438"/>
      </g>
     </g>
    </g>
    <g id="xtick_2">
     <g id="line2d_2">
      <g>
       <use xlink:href="#mb1a4d77687" x="381.728125" y="228.96" style="stroke: #000000; stroke-width: 0.8"/>
      </g>
     </g>
     <g id="text_2">
      <!-- 10.0 -->
      <g transform="translate(371.997656 243.117812) scale(0.1 -0.1)">
       <use xlink:href="#ArialMT-31"/>
       <use xlink:href="#ArialMT-30" x="55.615234"/>
       <use xlink:href="#ArialMT-2e" x="111.230469"/>
       <use xlink:href="#ArialMT-30" x="139.013672"/>
      </g>
     </g>
    </g>
    <g id="xtick_3">
     <g id="line2d_3">
      <defs>
       <path id="mb143c103e0" d="M 0 0 
L 0 2 
" style="stroke: #000000; stroke-width: 0.6"/>
      </defs>
      <g>
       <use xlink:href="#mb143c103e0" x="46.928125" y="228.96" style="stroke: #000000; stroke-width: 0.6"/>
      </g>
     </g>
    </g>
    <g id="xtick_4">
     <g id="line2d_4">
      <g>
       <use xlink:href="#mb143c103e0" x="81.628769" y="228.96" style="stroke: #000000; stroke-width: 0.6"/>
      </g>
     </g>
    </g>
    <g id="xtick_5">
     <g id="line2d_5">
      <g>
       <use xlink:href="#mb143c103e0" x="106.249268" y="228.96" style="stroke: #000000; stroke-width: 0.6"/>
      </g>
     </g>
    </g>
    <g id="xtick_6">
     <g id="line2d_6">
      <g>
       <use xlink:href="#mb143c103e0" x="125.346411" y="228.96" style="stroke: #000000; stroke-width: 0.6"/>
      </g>
     </g>
    </g>
    <g id="xtick_7">
     <g id="line2d_7">
      <g>
       <use xlink:href="#mb143c103e0" x="140.949912" y="228.96" style="stroke: #000000; stroke-width: 0.6"/>
      </g>
     </g>
    </g>
    <g id="xtick_8">
     <g id="line2d_8">
      <g>
       <use xlink:href="#mb143c103e0" x="154.142485" y="228.96" style="stroke: #000000; stroke-width: 0.6"/>
      </g>
     </g>
    </g>
    <g id="xtick_9">
     <g id="line2d_9">
      <g>
       <use xlink:href="#mb143c103e0" x="165.570411" y="228.96" style="stroke: #000000; stroke-width: 0.6"/>
      </g>
     </g>
    </g>
    <g id="xtick_10">
     <g id="line2d_10">
      <g>
       <use xlink:href="#mb143c103e0" x="175.650556" y="228.96" style="stroke: #000000; stroke-width: 0.6"/>
      </g>
     </g>
    </g>
    <g id="xtick_11">
     <g id="line2d_11">
      <g>
       <use xlink:href="#mb143c103e0" x="243.988696" y="228.96" style="stroke: #000000; stroke-width: 0.6"/>
      </g>
     </g>
    </g>
    <g id="xtick_12">
     <g id="line2d_12">
      <g>
       <use xlink:href="#mb143c103e0" x="278.689341" y="228.96" style="stroke: #000000; stroke-width: 0.6"/>
      </g>
     </g>
    </g>
    <g id="xtick_13">
     <g id="line2d_13">
      <g>
       <use xlink:href="#mb143c103e0" x="303.309839" y="228.96" style="stroke: #000000; stroke-width: 0.6"/>
      </g>
     </g>
    </g>
    <g id="xtick_14">
     <g id="line2d_14">
      <g>
       <use xlink:href="#mb143c103e0" x="322.406982" y="228.96" style="stroke: #000000; stroke-width: 0.6"/>
      </g>
     </g>
    </g>
    <g id="xtick_15">
     <g id="line2d_15">
      <g>
       <use xlink:href="#mb143c103e0" x="338.010484" y="228.96" style="stroke: #000000; stroke-width: 0.6"/>
      </g>
     </g>
    </g>
    <g id="xtick_16">
     <g id="line2d_16">
      <g>
       <use xlink:href="#mb143c103e0" x="351.203056" y="228.96" style="stroke: #000000; stroke-width: 0.6"/>
      </g>
     </g>
    </g>
    <g id="xtick_17">
     <g id="line2d_17">
      <g>
       <use xlink:href="#mb143c103e0" x="362.630982" y="228.96" style="stroke: #000000; stroke-width: 0.6"/>
      </g>
     </g>
    </g>
    <g id="xtick_18">
     <g id="line2d_18">
      <g>
       <use xlink:href="#mb143c103e0" x="372.711128" y="228.96" style="stroke: #000000; stroke-width: 0.6"/>
      </g>
     </g>
    </g>
    <g id="text_3">
     <!-- Frequency (Hz) -->
     <g transform="translate(179.877344 256.385) scale(0.1 -0.1)">
      <defs>
       <path id="ArialMT-46" d="M 525 0 
L 525 4581 
L 3616 4581 
L 3616 4041 
L 1131 4041 
L 1131 2622 
L 3281 2622 
L 3281 2081 
L 1131 2081 
L 1131 0 
L 525 0 
z
" transform="scale(0.015625)"/>
       <path id="ArialMT-72" d="M 416 0 
L 416 3319 
L 922 3319 
L 922 2816 
Q 1116 3169 1280 3281 
Q 1444 3394 1641 3394 
Q 1925 3394 2219 3213 
L 2025 2691 
Q 1819 2813 1613 2813 
Q 1428 2813 1281 2702 
Q 1134 2591 1072 2394 
Q 978 2094 978 1738 
L 978 0 
L 416 0 
z
" transform="scale(0.015625)"/>
       <path id="ArialMT-65" d="M 2694 1069 
L 3275 997 
Q 3138 488 2766 206 
Q 2394 -75 1816 -75 
Q 1088 -75 661 373 
Q 234 822 234 1631 
Q 234 2469 665 2931 
Q 1097 3394 1784 3394 
Q 2450 3394 2872 2941 
Q 3294 2488 3294 1666 
Q 3294 1616 3291 1516 
L 816 1516 
Q 847 969 1125 678 
Q 1403 388 1819 388 
Q 2128 388 2347 550 
Q 2566 713 2694 1069 
z
M 847 1978 
L 2700 1978 
Q 2663 2397 2488 2606 
Q 2219 2931 1791 2931 
Q 1403 2931 1139 2672 
Q 875 2413 847 1978 
z
" transform="scale(0.015625)"/>
       <path id="ArialMT-71" d="M 2538 -1272 
L 2538 353 
Q 2406 169 2170 47 
Q 1934 -75 1669 -75 
Q 1078 -75 651 397 
Q 225 869 225 1691 
Q 225 2191 398 2587 
Q 572 2984 901 3189 
Q 1231 3394 1625 3394 
Q 2241 3394 2594 2875 
L 2594 3319 
L 3100 3319 
L 3100 -1272 
L 2538 -1272 
z
M 803 1669 
Q 803 1028 1072 708 
Q 1341 388 1716 388 
Q 2075 388 2334 692 
Q 2594 997 2594 1619 
Q 2594 2281 2320 2615 
Q 2047 2950 1678 2950 
Q 1313 2950 1058 2639 
Q 803 2328 803 1669 
z
" transform="scale(0.015625)"/>
       <path id="ArialMT-75" d="M 2597 0 
L 2597 488 
Q 2209 -75 1544 -75 
Q 1250 -75 995 37 
Q 741 150 617 320 
Q 494 491 444 738 
Q 409 903 409 1263 
L 409 3319 
L 972 3319 
L 972 1478 
Q 972 1038 1006 884 
Q 1059 663 1231 536 
Q 1403 409 1656 409 
Q 1909 409 2131 539 
Q 2353 669 2445 892 
Q 2538 1116 2538 1541 
L 2538 3319 
L 3100 3319 
L 3100 0 
L 2597 0 
z
" transform="scale(0.015625)"/>
       <path id="ArialMT-6e" d="M 422 0 
L 422 3319 
L 928 3319 
L 928 2847 
Q 1294 3394 1984 3394 
Q 2284 3394 2536 3286 
Q 2788 3178 2913 3003 
Q 3038 2828 3088 2588 
Q 3119 2431 3119 2041 
L 3119 0 
L 2556 0 
L 2556 2019 
Q 2556 2363 2490 2533 
Q 2425 2703 2258 2804 
Q 2091 2906 1866 2906 
Q 1506 2906 1245 2678 
Q 984 2450 984 1813 
L 984 0 
L 422 0 
z
" transform="scale(0.015625)"/>
       <path id="ArialMT-63" d="M 2588 1216 
L 3141 1144 
Q 3050 572 2676 248 
Q 2303 -75 1759 -75 
Q 1078 -75 664 370 
Q 250 816 250 1647 
Q 250 2184 428 2587 
Q 606 2991 970 3192 
Q 1334 3394 1763 3394 
Q 2303 3394 2647 3120 
Q 2991 2847 3088 2344 
L 2541 2259 
Q 2463 2594 2264 2762 
Q 2066 2931 1784 2931 
Q 1359 2931 1093 2626 
Q 828 2322 828 1663 
Q 828 994 1084 691 
Q 1341 388 1753 388 
Q 2084 388 2306 591 
Q 2528 794 2588 1216 
z
" transform="scale(0.015625)"/>
       <path id="ArialMT-79" d="M 397 -1278 
L 334 -750 
Q 519 -800 656 -800 
Q 844 -800 956 -737 
Q 1069 -675 1141 -563 
Q 1194 -478 1313 -144 
Q 1328 -97 1363 -6 
L 103 3319 
L 709 3319 
L 1400 1397 
Q 1534 1031 1641 628 
Q 1738 1016 1872 1384 
L 2581 3319 
L 3144 3319 
L 1881 -56 
Q 1678 -603 1566 -809 
Q 1416 -1088 1222 -1217 
Q 1028 -1347 759 -1347 
Q 597 -1347 397 -1278 
z
" transform="scale(0.015625)"/>
       <path id="ArialMT-20" transform="scale(0.015625)"/>
       <path id="ArialMT-28" d="M 1497 -1347 
Q 1031 -759 709 28 
Q 388 816 388 1659 
Q 388 2403 628 3084 
Q 909 3875 1497 4659 
L 1900 4659 
Q 1522 4009 1400 3731 
Q 1209 3300 1100 2831 
Q 966 2247 966 1656 
Q 966 153 1900 -1347 
L 1497 -1347 
z
" transform="scale(0.015625)"/>
       <path id="ArialMT-48" d="M 513 0 
L 513 4581 
L 1119 4581 
L 1119 2700 
L 3500 2700 
L 3500 4581 
L 4106 4581 
L 4106 0 
L 3500 0 
L 3500 2159 
L 1119 2159 
L 1119 0 
L 513 0 
z
" transform="scale(0.015625)"/>
       <path id="ArialMT-7a" d="M 125 0 
L 125 456 
L 2238 2881 
Q 1878 2863 1603 2863 
L 250 2863 
L 250 3319 
L 2963 3319 
L 2963 2947 
L 1166 841 
L 819 456 
Q 1197 484 1528 484 
L 3063 484 
L 3063 0 
L 125 0 
z
" transform="scale(0.015625)"/>
       <path id="ArialMT-29" d="M 791 -1347 
L 388 -1347 
Q 1322 153 1322 1656 
Q 1322 2244 1188 2822 
Q 1081 3291 891 3722 
Q 769 4003 388 4659 
L 791 4659 
Q 1378 3875 1659 3084 
Q 1900 2403 1900 1659 
Q 1900 816 1576 28 
Q 1253 -759 791 -1347 
z
" transform="scale(0.015625)"/>
      </defs>
      <use xlink:href="#ArialMT-46"/>
      <use xlink:href="#ArialMT-72" x="61.083984"/>
      <use xlink:href="#ArialMT-65" x="94.384766"/>
      <use xlink:href="#ArialMT-71" x="150"/>
      <use xlink:href="#ArialMT-75" x="205.615234"/>
      <use xlink:href="#ArialMT-65" x="261.230469"/>
      <use xlink:href="#ArialMT-6e" x="316.845703"/>
      <use xlink:href="#ArialMT-63" x="372.460938"/>
      <use xlink:href="#ArialMT-79" x="422.460938"/>
      <use xlink:href="#ArialMT-20" x="472.460938"/>
      <use xlink:href="#ArialMT-28" x="500.244141"/>
      <use xlink:href="#ArialMT-48" x="533.544922"/>
      <use xlink:href="#ArialMT-7a" x="605.761719"/>
      <use xlink:href="#ArialMT-29" x="655.761719"/>
     </g>
    </g>
   </g>
   <g id="matplotlib.axis_2">
    <g id="ytick_1">
     <g id="line2d_19">
      <defs>
       <path id="m562a050f73" d="M 0 0 
L -3.5 0 
" style="stroke: #000000; stroke-width: 0.8"/>
      </defs>
      <g>
       <use xlink:href="#m562a050f73" x="46.928125" y="228.96" style="stroke: #000000; stroke-width: 0.8"/>
      </g>
     </g>
     <g id="text_4">
      <!-- 0.0 -->
      <g transform="translate(26.028125 232.538906) scale(0.1 -0.1)">
       <use xlink:href="#ArialMT-30"/>
       <use xlink:href="#ArialMT-2e" x="55.615234"/>
       <use xlink:href="#ArialMT-30" x="83.398438"/>
      </g>
     </g>
    </g>
    <g id="ytick_2">
     <g id="line2d_20">
      <g>
       <use xlink:href="#m562a050f73" x="46.928125" y="191.763085" style="stroke: #000000; stroke-width: 0.8"/>
      </g>
     </g>
     <g id="text_5">
      <!-- 5.0 -->
      <g transform="translate(26.028125 195.341992) scale(0.1 -0.1)">
       <defs>
        <path id="ArialMT-35" d="M 266 1200 
L 856 1250 
Q 922 819 1161 601 
Q 1400 384 1738 384 
Q 2144 384 2425 690 
Q 2706 997 2706 1503 
Q 2706 1984 2436 2262 
Q 2166 2541 1728 2541 
Q 1456 2541 1237 2417 
Q 1019 2294 894 2097 
L 366 2166 
L 809 4519 
L 3088 4519 
L 3088 3981 
L 1259 3981 
L 1013 2750 
Q 1425 3038 1878 3038 
Q 2478 3038 2890 2622 
Q 3303 2206 3303 1553 
Q 3303 931 2941 478 
Q 2500 -78 1738 -78 
Q 1113 -78 717 272 
Q 322 622 266 1200 
z
" transform="scale(0.015625)"/>
       </defs>
       <use xlink:href="#ArialMT-35"/>
       <use xlink:href="#ArialMT-2e" x="55.615234"/>
       <use xlink:href="#ArialMT-30" x="83.398438"/>
      </g>
     </g>
    </g>
    <g id="ytick_3">
     <g id="line2d_21">
      <g>
       <use xlink:href="#m562a050f73" x="46.928125" y="154.566171" style="stroke: #000000; stroke-width: 0.8"/>
      </g>
     </g>
     <g id="text_6">
      <!-- 10.0 -->
      <g transform="translate(20.467188 158.145077) scale(0.1 -0.1)">
       <use xlink:href="#ArialMT-31"/>
       <use xlink:href="#ArialMT-30" x="55.615234"/>
       <use xlink:href="#ArialMT-2e" x="111.230469"/>
       <use xlink:href="#ArialMT-30" x="139.013672"/>
      </g>
     </g>
    </g>
    <g id="ytick_4">
     <g id="line2d_22">
      <g>
       <use xlink:href="#m562a050f73" x="46.928125" y="117.369256" style="stroke: #000000; stroke-width: 0.8"/>
      </g>
     </g>
     <g id="text_7">
      <!-- 15.0 -->
      <g transform="translate(20.467188 120.948163) scale(0.1 -0.1)">
       <use xlink:href="#ArialMT-31"/>
       <use xlink:href="#ArialMT-35" x="55.615234"/>
       <use xlink:href="#ArialMT-2e" x="111.230469"/>
       <use xlink:href="#ArialMT-30" x="139.013672"/>
      </g>
     </g>
    </g>
    <g id="ytick_5">
     <g id="line2d_23">
      <g>
       <use xlink:href="#m562a050f73" x="46.928125" y="80.172342" style="stroke: #000000; stroke-width: 0.8"/>
      </g>
     </g>
     <g id="text_8">
      <!-- 20.0 -->
      <g transform="translate(20.467188 83.751248) scale(0.1 -0.1)">
       <defs>
        <path id="ArialMT-32" d="M 3222 541 
L 3222 0 
L 194 0 
Q 188 203 259 391 
Q 375 700 629 1000 
Q 884 1300 1366 1694 
Q 2113 2306 2375 2664 
Q 2638 3022 2638 3341 
Q 2638 3675 2398 3904 
Q 2159 4134 1775 4134 
Q 1369 4134 1125 3890 
Q 881 3647 878 3216 
L 300 3275 
Q 359 3922 746 4261 
Q 1134 4600 1788 4600 
Q 2447 4600 2831 4234 
Q 3216 3869 3216 3328 
Q 3216 3053 3103 2787 
Q 2991 2522 2730 2228 
Q 2469 1934 1863 1422 
Q 1356 997 1212 845 
Q 1069 694 975 541 
L 3222 541 
z
" transform="scale(0.015625)"/>
       </defs>
       <use xlink:href="#ArialMT-32"/>
       <use xlink:href="#ArialMT-30" x="55.615234"/>
       <use xlink:href="#ArialMT-2e" x="111.230469"/>
       <use xlink:href="#ArialMT-30" x="139.013672"/>
      </g>
     </g>
    </g>
    <g id="ytick_6">
     <g id="line2d_24">
      <g>
       <use xlink:href="#m562a050f73" x="46.928125" y="42.975427" style="stroke: #000000; stroke-width: 0.8"/>
      </g>
     </g>
     <g id="text_9">
      <!-- 25.0 -->
      <g transform="translate(20.467188 46.554334) scale(0.1 -0.1)">
       <use xlink:href="#ArialMT-32"/>
       <use xlink:href="#ArialMT-35" x="55.615234"/>
       <use xlink:href="#ArialMT-2e" x="111.230469"/>
       <use xlink:href="#ArialMT-30" x="139.013672"/>
      </g>
     </g>
    </g>
    <g id="text_10">
     <!-- H/V Amplitude -->
     <g transform="translate(14.479688 149.762031) rotate(-90) scale(0.1 -0.1)">
      <defs>
       <path id="ArialMT-2f" d="M 0 -78 
L 1328 4659 
L 1778 4659 
L 453 -78 
L 0 -78 
z
" transform="scale(0.015625)"/>
       <path id="ArialMT-56" d="M 1803 0 
L 28 4581 
L 684 4581 
L 1875 1253 
Q 2019 853 2116 503 
Q 2222 878 2363 1253 
L 3600 4581 
L 4219 4581 
L 2425 0 
L 1803 0 
z
" transform="scale(0.015625)"/>
       <path id="ArialMT-41" d="M -9 0 
L 1750 4581 
L 2403 4581 
L 4278 0 
L 3588 0 
L 3053 1388 
L 1138 1388 
L 634 0 
L -9 0 
z
M 1313 1881 
L 2866 1881 
L 2388 3150 
Q 2169 3728 2063 4100 
Q 1975 3659 1816 3225 
L 1313 1881 
z
" transform="scale(0.015625)"/>
       <path id="ArialMT-6d" d="M 422 0 
L 422 3319 
L 925 3319 
L 925 2853 
Q 1081 3097 1340 3245 
Q 1600 3394 1931 3394 
Q 2300 3394 2536 3241 
Q 2772 3088 2869 2813 
Q 3263 3394 3894 3394 
Q 4388 3394 4653 3120 
Q 4919 2847 4919 2278 
L 4919 0 
L 4359 0 
L 4359 2091 
Q 4359 2428 4304 2576 
Q 4250 2725 4106 2815 
Q 3963 2906 3769 2906 
Q 3419 2906 3187 2673 
Q 2956 2441 2956 1928 
L 2956 0 
L 2394 0 
L 2394 2156 
Q 2394 2531 2256 2718 
Q 2119 2906 1806 2906 
Q 1569 2906 1367 2781 
Q 1166 2656 1075 2415 
Q 984 2175 984 1722 
L 984 0 
L 422 0 
z
" transform="scale(0.015625)"/>
       <path id="ArialMT-70" d="M 422 -1272 
L 422 3319 
L 934 3319 
L 934 2888 
Q 1116 3141 1344 3267 
Q 1572 3394 1897 3394 
Q 2322 3394 2647 3175 
Q 2972 2956 3137 2557 
Q 3303 2159 3303 1684 
Q 3303 1175 3120 767 
Q 2938 359 2589 142 
Q 2241 -75 1856 -75 
Q 1575 -75 1351 44 
Q 1128 163 984 344 
L 984 -1272 
L 422 -1272 
z
M 931 1641 
Q 931 1000 1190 694 
Q 1450 388 1819 388 
Q 2194 388 2461 705 
Q 2728 1022 2728 1688 
Q 2728 2322 2467 2637 
Q 2206 2953 1844 2953 
Q 1484 2953 1207 2617 
Q 931 2281 931 1641 
z
" transform="scale(0.015625)"/>
       <path id="ArialMT-6c" d="M 409 0 
L 409 4581 
L 972 4581 
L 972 0 
L 409 0 
z
" transform="scale(0.015625)"/>
       <path id="ArialMT-69" d="M 425 3934 
L 425 4581 
L 988 4581 
L 988 3934 
L 425 3934 
z
M 425 0 
L 425 3319 
L 988 3319 
L 988 0 
L 425 0 
z
" transform="scale(0.015625)"/>
       <path id="ArialMT-74" d="M 1650 503 
L 1731 6 
Q 1494 -44 1306 -44 
Q 1000 -44 831 53 
Q 663 150 594 308 
Q 525 466 525 972 
L 525 2881 
L 113 2881 
L 113 3319 
L 525 3319 
L 525 4141 
L 1084 4478 
L 1084 3319 
L 1650 3319 
L 1650 2881 
L 1084 2881 
L 1084 941 
Q 1084 700 1114 631 
Q 1144 563 1211 522 
Q 1278 481 1403 481 
Q 1497 481 1650 503 
z
" transform="scale(0.015625)"/>
       <path id="ArialMT-64" d="M 2575 0 
L 2575 419 
Q 2259 -75 1647 -75 
Q 1250 -75 917 144 
Q 584 363 401 755 
Q 219 1147 219 1656 
Q 219 2153 384 2558 
Q 550 2963 881 3178 
Q 1213 3394 1622 3394 
Q 1922 3394 2156 3267 
Q 2391 3141 2538 2938 
L 2538 4581 
L 3097 4581 
L 3097 0 
L 2575 0 
z
M 797 1656 
Q 797 1019 1065 703 
Q 1334 388 1700 388 
Q 2069 388 2326 689 
Q 2584 991 2584 1609 
Q 2584 2291 2321 2609 
Q 2059 2928 1675 2928 
Q 1300 2928 1048 2622 
Q 797 2316 797 1656 
z
" transform="scale(0.015625)"/>
      </defs>
      <use xlink:href="#ArialMT-48"/>
      <use xlink:href="#ArialMT-2f" x="72.216797"/>
      <use xlink:href="#ArialMT-56" x="100"/>
      <use xlink:href="#ArialMT-20" x="166.699219"/>
      <use xlink:href="#ArialMT-41" x="188.982422"/>
      <use xlink:href="#ArialMT-6d" x="255.681641"/>
      <use xlink:href="#ArialMT-70" x="338.982422"/>
      <use xlink:href="#ArialMT-6c" x="394.597656"/>
      <use xlink:href="#ArialMT-69" x="416.814453"/>
      <use xlink:href="#ArialMT-74" x="439.03125"/>
      <use xlink:href="#ArialMT-75" x="466.814453"/>
      <use xlink:href="#ArialMT-64" x="522.429688"/>
      <use xlink:href="#ArialMT-65" x="578.044922"/>
     </g>
    </g>
   </g>
   <g id="line2d_25">
    <path d="M 46.928125 90.644745 
L 49.302695 92.724872 
L 51.677265 99.720557 
L 54.051835 104.699795 
L 56.426405 104.32252 
L 58.800975 99.561572 
L 61.175545 97.787952 
L 63.550115 110.548668 
L 65.924685 137.288933 
L 68.299255 161.889264 
L 70.673825 173.013936 
L 73.048395 168.43441 
L 75.422965 148.97731 
L 77.797535 119.620375 
L 80.172105 96.471246 
L 82.546675 95.806692 
L 87.295815 126.001711 
L 89.670385 136.588628 
L 92.044955 142.756076 
L 94.419525 146.390951 
L 96.794095 149.443551 
L 99.168665 153.551947 
L 101.543235 159.489544 
L 103.917805 166.378699 
L 106.292375 172.0417 
L 108.666945 173.982526 
L 111.041515 169.625461 
L 115.790655 145.557555 
L 118.165225 152.851463 
L 120.539795 175.590989 
L 122.914365 194.269954 
L 125.288935 203.518513 
L 127.663505 205.383028 
L 130.038075 202.830952 
L 132.412645 199.622498 
L 134.787215 200.061222 
L 137.161785 204.074989 
L 139.536355 207.268679 
L 141.910925 207.794449 
L 144.285495 207.189568 
L 146.660065 208.218087 
L 151.409205 215.205882 
L 153.783775 216.765578 
L 156.158345 216.169758 
L 158.532915 214.232709 
L 160.907485 213.139506 
L 163.282055 214.720898 
L 165.656625 216.990844 
L 168.031195 217.731854 
L 170.405765 216.747354 
L 172.780335 214.905449 
L 175.154905 213.813317 
L 177.529475 214.513762 
L 179.904045 215.991723 
L 182.278615 216.996836 
L 187.027755 217.885625 
L 189.402325 218.250153 
L 191.776895 218.038624 
L 194.151465 216.737316 
L 196.526035 214.627474 
L 198.900605 213.286739 
L 201.275175 213.696982 
L 203.649745 214.677162 
L 206.024314 215.189811 
L 208.398884 215.305155 
L 210.773454 215.639215 
L 213.148024 216.723312 
L 215.522594 218.333788 
L 217.897164 219.612518 
L 220.271734 219.999182 
L 222.646304 219.488877 
L 227.395444 217.408779 
L 229.770014 217.159253 
L 232.144584 217.652477 
L 234.519154 218.448885 
L 239.268294 220.450031 
L 241.642864 221.411908 
L 244.017434 222.001867 
L 246.392004 222.049752 
L 248.766574 221.505049 
L 255.890284 218.478415 
L 258.264854 218.048814 
L 260.639424 217.735285 
L 263.013994 217.545268 
L 265.388564 217.933062 
L 267.763134 219.149231 
L 270.137704 220.585189 
L 272.512274 221.432059 
L 274.886844 221.389474 
L 277.261414 220.62656 
L 279.635984 219.585851 
L 282.010554 218.730735 
L 284.385124 218.327796 
L 286.759694 218.488007 
L 289.134264 219.225344 
L 293.883404 221.595416 
L 296.257974 222.487689 
L 298.632544 222.909186 
L 301.007114 222.945586 
L 303.381684 222.728581 
L 310.505394 221.544215 
L 312.879964 221.365317 
L 315.254534 221.380599 
L 317.629104 221.592967 
L 320.003674 222.066126 
L 324.752814 223.457859 
L 327.127384 223.848608 
L 329.501954 223.858039 
L 334.251094 223.605338 
L 336.625664 223.766048 
L 341.374804 224.29805 
L 343.749374 224.381578 
L 346.123944 224.264604 
L 350.873084 223.795162 
L 353.247654 223.769517 
L 355.622224 223.980918 
L 362.745934 225.049348 
L 367.495074 225.427712 
L 372.244214 225.508117 
L 376.993354 225.094574 
L 384.117064 224.301715 
L 388.866204 223.900807 
L 391.240774 223.841981 
L 398.364484 224.027587 
L 399.658594 223.870522 
L 399.658594 223.870522 
" clip-path="url(#p309cc646c1)" style="fill: none; stroke: #808080; stroke-opacity: 0.5; stroke-width: 0.5; stroke-linecap: square"/>
   </g>
   <g id="line2d_26">
    <path d="M 46.928125 174.04639 
L 51.677265 190.389397 
L 54.051835 196.994317 
L 56.426405 201.562705 
L 58.800975 203.618698 
L 61.175545 202.790451 
L 63.550115 198.691517 
L 65.924685 190.880813 
L 68.299255 179.258371 
L 70.673825 164.885812 
L 77.797535 119.553262 
L 80.172105 111.356492 
L 82.546675 124.221347 
L 84.921245 152.206387 
L 87.295815 175.061467 
L 89.670385 187.94408 
L 92.044955 193.854903 
L 94.419525 195.198191 
L 96.794095 193.075156 
L 99.168665 188.713882 
L 101.543235 184.654185 
L 103.917805 183.293951 
L 106.292375 184.744474 
L 108.666945 187.827398 
L 111.041515 191.792362 
L 113.416085 196.463971 
L 115.790655 201.496472 
L 118.165225 205.990293 
L 120.539795 208.870683 
L 122.914365 209.335777 
L 125.288935 207.298425 
L 130.038075 200.446165 
L 132.412645 197.718962 
L 134.787215 195.222816 
L 137.161785 193.204583 
L 139.536355 193.400471 
L 141.910925 196.37894 
L 144.285495 200.08791 
L 146.660065 202.983117 
L 153.783775 209.746257 
L 156.158345 212.059924 
L 158.532915 214.086054 
L 160.907485 215.655311 
L 163.282055 216.529638 
L 165.656625 216.444981 
L 170.405765 214.527743 
L 172.780335 214.178215 
L 175.154905 214.280571 
L 177.529475 214.084604 
L 179.904045 212.955919 
L 182.278615 210.744346 
L 184.653185 208.03647 
L 187.027755 206.420507 
L 189.402325 207.390502 
L 191.776895 209.991043 
L 194.151465 212.2606 
L 201.275175 216.944374 
L 203.649745 218.557007 
L 206.024314 219.543469 
L 208.398884 219.813325 
L 210.773454 219.692854 
L 213.148024 219.706277 
L 215.522594 220.132851 
L 217.897164 220.746847 
L 220.271734 221.210728 
L 222.646304 221.529441 
L 225.020874 221.960319 
L 229.770014 223.341374 
L 232.144584 223.796432 
L 234.519154 223.785548 
L 236.893724 223.439341 
L 239.268294 223.255327 
L 241.642864 223.50577 
L 244.017434 223.902521 
L 246.392004 224.079451 
L 248.766574 223.893634 
L 255.890284 222.52081 
L 258.264854 222.516086 
L 260.639424 222.68085 
L 263.013994 222.71384 
L 265.388564 222.49422 
L 267.763134 222.016847 
L 270.137704 221.27632 
L 274.886844 219.468685 
L 277.261414 219.093501 
L 279.635984 219.359905 
L 282.010554 220.101401 
L 289.134264 222.979932 
L 291.508834 223.801401 
L 293.883404 224.421608 
L 296.257974 224.730516 
L 298.632544 224.702746 
L 301.007114 224.402795 
L 305.756254 223.505694 
L 308.130824 223.310329 
L 317.629104 223.436523 
L 322.378244 224.282465 
L 324.752814 224.391629 
L 331.876524 223.77973 
L 334.251094 223.793844 
L 336.625664 223.966178 
L 346.123944 225.265132 
L 348.498514 225.31438 
L 353.247654 225.069723 
L 360.371364 224.512598 
L 362.745934 224.575475 
L 367.495074 225.053888 
L 369.869644 225.100221 
L 374.618784 224.605555 
L 376.993354 224.353181 
L 379.367924 224.227307 
L 388.866204 224.095559 
L 393.615344 223.978426 
L 398.364484 223.90077 
L 399.658594 223.814177 
L 399.658594 223.814177 
" clip-path="url(#p309cc646c1)" style="fill: none; stroke: #808080; stroke-opacity: 0.5; stroke-width: 0.5; stroke-linecap: square"/>
   </g>
   <g id="line2d_27">
    <path d="M 46.928125 121.289477 
L 49.302695 127.660289 
L 51.677265 130.734454 
L 54.051835 126.294883 
L 56.426405 111.39509 
L 58.800975 89.156815 
L 61.175545 78.316902 
L 63.550115 92.609839 
L 65.924685 116.025191 
L 68.299255 135.277707 
L 70.673825 149.32264 
L 73.048395 160.093504 
L 75.422965 169.468701 
L 77.797535 179.40875 
L 80.172105 190.856482 
L 82.546675 201.741419 
L 84.921245 209.306994 
L 87.295815 213.176489 
L 89.670385 214.222704 
L 92.044955 213.177402 
L 96.794095 208.316015 
L 99.168665 207.559324 
L 101.543235 208.575214 
L 103.917805 209.94772 
L 106.292375 210.469139 
L 108.666945 210.057436 
L 111.041515 209.994371 
L 113.416085 211.468978 
L 115.790655 213.481996 
L 118.165225 214.510608 
L 120.539795 214.426232 
L 122.914365 214.08685 
L 127.663505 213.90143 
L 130.038075 213.062595 
L 132.412645 211.350237 
L 134.787215 208.967505 
L 137.161785 206.297568 
L 139.536355 204.268022 
L 141.910925 204.892002 
L 144.285495 209.206557 
L 146.660065 214.693776 
L 149.034635 218.574679 
L 151.409205 220.148633 
L 153.783775 219.784073 
L 156.158345 218.327567 
L 158.532915 217.143731 
L 160.907485 217.439914 
L 163.282055 219.02115 
L 165.656625 220.740575 
L 168.031195 221.815756 
L 170.405765 222.130657 
L 172.780335 221.91975 
L 175.154905 221.377762 
L 177.529475 220.434726 
L 182.278615 217.582697 
L 184.653185 217.506377 
L 187.027755 219.099713 
L 189.402325 221.009594 
L 191.776895 222.121374 
L 194.151465 222.214671 
L 196.526035 221.496483 
L 198.900605 220.584085 
L 201.275175 220.362549 
L 203.649745 220.819228 
L 206.024314 221.082887 
L 210.773454 220.767356 
L 213.148024 221.307439 
L 217.897164 223.384895 
L 220.271734 223.760852 
L 222.646304 223.240627 
L 225.020874 221.832197 
L 229.770014 217.533059 
L 232.144584 216.10743 
L 234.519154 215.777637 
L 236.893724 216.220433 
L 239.268294 217.216995 
L 241.642864 218.804996 
L 244.017434 220.768501 
L 246.392004 222.488016 
L 248.766574 223.552752 
L 251.141144 223.959513 
L 253.515714 223.844323 
L 255.890284 223.370957 
L 260.639424 222.266579 
L 263.013994 222.034634 
L 265.388564 222.091354 
L 272.512274 222.971614 
L 274.886844 222.79953 
L 277.261414 221.952336 
L 282.010554 219.060201 
L 284.385124 218.582653 
L 286.759694 218.719269 
L 289.134264 219.091166 
L 291.508834 219.798795 
L 293.883404 220.825394 
L 296.257974 221.695472 
L 298.632544 222.045234 
L 305.756254 221.939154 
L 308.130824 222.212528 
L 310.505394 222.28279 
L 312.879964 221.894762 
L 315.254534 221.375873 
L 317.629104 221.495185 
L 322.378244 223.271466 
L 324.752814 223.829226 
L 327.127384 223.907916 
L 331.876524 223.316524 
L 334.251094 223.391009 
L 339.000234 224.247528 
L 341.374804 224.507437 
L 346.123944 224.533522 
L 355.622224 224.232871 
L 360.371364 223.925332 
L 362.745934 223.923329 
L 365.120504 224.097136 
L 372.244214 225.123348 
L 374.618784 225.281143 
L 376.993354 225.299435 
L 381.742494 224.964454 
L 386.491634 224.610969 
L 391.240774 224.477463 
L 395.989914 224.021044 
L 399.658594 223.579127 
L 399.658594 223.579127 
" clip-path="url(#p309cc646c1)" style="fill: none; stroke: #808080; stroke-opacity: 0.5; stroke-width: 0.5; stroke-linecap: square"/>
   </g>
   <g id="line2d_28">
    <path d="M 46.928125 206.365785 
L 49.302695 206.799514 
L 51.677265 207.399986 
L 54.051835 208.247977 
L 56.426405 209.74478 
L 58.800975 211.771078 
L 61.175545 213.376699 
L 63.550115 213.747393 
L 65.924685 212.812854 
L 68.299255 211.230668 
L 70.673825 209.954592 
L 73.048395 209.483932 
L 75.422965 209.58154 
L 77.797535 210.026927 
L 80.172105 211.116432 
L 84.921245 214.764583 
L 87.295815 215.526861 
L 89.670385 214.255162 
L 92.044955 210.577381 
L 94.419525 205.944885 
L 96.794095 204.394213 
L 99.168665 207.66167 
L 101.543235 212.245158 
L 103.917805 215.183909 
L 106.292375 216.020547 
L 108.666945 215.431968 
L 111.041515 214.502586 
L 113.416085 213.856796 
L 115.790655 213.045135 
L 118.165225 212.051356 
L 120.539795 212.180845 
L 122.914365 214.237359 
L 125.288935 216.973438 
L 127.663505 218.986225 
L 130.038075 220.090221 
L 132.412645 220.695245 
L 134.787215 221.088261 
L 139.536355 221.40639 
L 141.910925 221.849338 
L 149.034635 224.413155 
L 151.409205 224.89678 
L 153.783775 224.994527 
L 156.158345 224.617175 
L 160.907485 223.188135 
L 163.282055 223.031915 
L 165.656625 223.174451 
L 168.031195 223.079916 
L 170.405765 222.53177 
L 175.154905 220.808038 
L 177.529475 220.253213 
L 179.904045 220.22648 
L 182.278615 220.724716 
L 187.027755 222.381582 
L 189.402325 222.851655 
L 191.776895 222.753625 
L 194.151465 222.197118 
L 196.526035 221.474762 
L 198.900605 220.911099 
L 201.275175 220.76623 
L 208.398884 221.534291 
L 210.773454 221.199446 
L 213.148024 220.422413 
L 215.522594 219.525763 
L 217.897164 219.113113 
L 225.020874 219.776657 
L 227.395444 220.061614 
L 232.144584 221.021759 
L 234.519154 221.103302 
L 236.893724 220.718946 
L 239.268294 220.462571 
L 241.642864 220.946184 
L 244.017434 221.838918 
L 246.392004 222.468808 
L 248.766574 222.545273 
L 253.515714 221.960628 
L 255.890284 222.36532 
L 260.639424 224.322996 
L 263.013994 224.849101 
L 265.388564 225.028867 
L 270.137704 224.976413 
L 272.512274 224.867336 
L 274.886844 224.559573 
L 277.261414 223.836944 
L 279.635984 222.769034 
L 282.010554 222.045043 
L 284.385124 222.122847 
L 286.759694 222.512243 
L 289.134264 222.645495 
L 291.508834 222.357743 
L 293.883404 221.876484 
L 296.257974 221.722077 
L 298.632544 222.117382 
L 303.381684 223.295333 
L 305.756254 223.661554 
L 308.130824 223.820003 
L 310.505394 223.798472 
L 315.254534 223.42183 
L 320.003674 222.587564 
L 322.378244 222.195583 
L 324.752814 222.17007 
L 327.127384 222.569909 
L 331.876524 223.658934 
L 336.625664 224.432781 
L 341.374804 224.933326 
L 346.123944 225.261677 
L 348.498514 225.272587 
L 353.247654 224.884261 
L 355.622224 224.642444 
L 357.996794 224.541384 
L 369.869644 224.853169 
L 374.618784 225.111088 
L 376.993354 225.037954 
L 384.117064 224.468823 
L 388.866204 224.664987 
L 393.615344 224.84373 
L 398.364484 224.498379 
L 399.658594 224.375387 
L 399.658594 224.375387 
" clip-path="url(#p309cc646c1)" style="fill: none; stroke: #808080; stroke-opacity: 0.5; stroke-width: 0.5; stroke-linecap: square"/>
   </g>
   <g id="line2d_29">
    <path d="M 46.928125 207.18029 
L 49.302695 207.27486 
L 51.677265 205.372185 
L 54.051835 202.614406 
L 56.426405 201.204267 
L 58.800975 201.552204 
L 61.175545 202.350187 
L 63.550115 203.437623 
L 65.924685 206.051824 
L 68.299255 209.727893 
L 70.673825 212.490205 
L 73.048395 213.437753 
L 75.422965 212.790388 
L 77.797535 211.411552 
L 80.172105 210.228668 
L 84.921245 208.500266 
L 87.295815 207.039746 
L 89.670385 204.894491 
L 92.044955 202.556817 
L 94.419525 200.735631 
L 96.794095 199.501261 
L 99.168665 198.91615 
L 101.543235 199.63997 
L 103.917805 202.210288 
L 106.292375 205.414594 
L 108.666945 207.385088 
L 111.041515 207.791646 
L 113.416085 206.99837 
L 115.790655 205.044133 
L 118.165225 201.597077 
L 120.539795 196.837029 
L 122.914365 194.019563 
L 125.288935 197.233107 
L 127.663505 202.917056 
L 130.038075 206.862385 
L 132.412645 208.435708 
L 134.787215 208.21596 
L 137.161785 207.372093 
L 139.536355 207.0783 
L 141.910925 207.124226 
L 144.285495 206.425592 
L 146.660065 205.127727 
L 149.034635 205.05863 
L 151.409205 207.802686 
L 153.783775 212.380085 
L 156.158345 216.47338 
L 158.532915 219.022889 
L 160.907485 220.249749 
L 163.282055 220.622327 
L 165.656625 220.464071 
L 168.031195 220.00685 
L 170.405765 219.394868 
L 172.780335 218.55364 
L 175.154905 217.343553 
L 177.529475 215.948127 
L 179.904045 214.82636 
L 182.278615 214.169672 
L 184.653185 213.778799 
L 187.027755 213.55148 
L 189.402325 213.703772 
L 191.776895 214.282533 
L 194.151465 214.636349 
L 196.526035 214.081716 
L 198.900605 212.877969 
L 201.275175 212.136542 
L 203.649745 212.77921 
L 206.024314 214.733397 
L 208.398884 217.22058 
L 210.773454 219.398629 
L 213.148024 220.768545 
L 215.522594 221.211971 
L 217.897164 220.901282 
L 222.646304 219.565375 
L 225.020874 219.125169 
L 227.395444 218.893345 
L 229.770014 218.84263 
L 232.144584 218.989815 
L 234.519154 219.352277 
L 239.268294 220.269949 
L 241.642864 220.635344 
L 244.017434 221.167542 
L 248.766574 222.796396 
L 251.141144 223.436866 
L 253.515714 223.891607 
L 255.890284 224.174523 
L 258.264854 224.201432 
L 267.763134 223.163736 
L 270.137704 222.731413 
L 272.512274 221.907924 
L 274.886844 220.765322 
L 277.261414 219.811805 
L 279.635984 219.630806 
L 282.010554 220.148711 
L 286.759694 221.502581 
L 289.134264 221.885974 
L 291.508834 222.01899 
L 303.381684 221.792425 
L 305.756254 221.964888 
L 308.130824 222.362733 
L 312.879964 223.600915 
L 315.254534 223.85887 
L 317.629104 223.647729 
L 322.378244 222.554252 
L 324.752814 222.419093 
L 327.127384 222.795706 
L 331.876524 223.922889 
L 336.625664 224.52522 
L 341.374804 225.157233 
L 346.123944 225.838816 
L 348.498514 225.94222 
L 350.873084 225.869135 
L 355.622224 225.350459 
L 357.996794 225.040654 
L 360.371364 224.867481 
L 362.745934 224.916373 
L 369.869644 225.4948 
L 372.244214 225.510913 
L 376.993354 225.16391 
L 381.742494 224.787479 
L 388.866204 224.399047 
L 391.240774 224.265878 
L 393.615344 224.285338 
L 399.658594 224.868348 
L 399.658594 224.868348 
" clip-path="url(#p309cc646c1)" style="fill: none; stroke: #808080; stroke-opacity: 0.5; stroke-width: 0.5; stroke-linecap: square"/>
   </g>
   <g id="line2d_30">
    <path d="M 46.928125 213.656911 
L 51.677265 214.836322 
L 63.550115 218.333024 
L 65.924685 218.765438 
L 70.673825 219.240211 
L 77.797535 219.559151 
L 82.546675 219.436587 
L 92.044955 218.779276 
L 96.794095 218.849442 
L 103.917805 219.382938 
L 106.292375 219.386443 
L 113.416085 218.947751 
L 115.790655 219.054136 
L 120.539795 219.472662 
L 125.288935 219.461442 
L 130.038075 219.58149 
L 134.787215 220.000238 
L 141.910925 220.893467 
L 144.285495 220.793338 
L 149.034635 219.850455 
L 151.409205 219.779161 
L 153.783775 220.26767 
L 156.158345 220.874859 
L 158.532915 221.124561 
L 160.907485 220.94852 
L 165.656625 220.33982 
L 170.405765 220.117214 
L 172.780335 220.315061 
L 177.529475 221.146331 
L 179.904045 220.860486 
L 184.653185 218.548896 
L 187.027755 218.37055 
L 189.402325 219.058671 
L 191.776895 219.60259 
L 194.151465 219.575346 
L 196.526035 219.281859 
L 198.900605 219.205238 
L 203.649745 219.567763 
L 206.024314 219.387484 
L 208.398884 219.039383 
L 210.773454 219.070491 
L 213.148024 219.819073 
L 215.522594 220.848281 
L 217.897164 221.509885 
L 220.271734 221.409584 
L 222.646304 220.276174 
L 225.020874 217.976976 
L 227.395444 214.866156 
L 229.770014 212.344465 
L 232.144584 212.662494 
L 236.893724 219.112022 
L 239.268294 221.21606 
L 241.642864 222.169717 
L 244.017434 222.27327 
L 248.766574 221.50237 
L 251.141144 221.744041 
L 255.890284 223.32984 
L 258.264854 223.765912 
L 265.388564 224.549626 
L 267.763134 224.669401 
L 270.137704 224.601343 
L 274.886844 224.227148 
L 279.635984 224.111772 
L 282.010554 223.828282 
L 286.759694 222.719866 
L 289.134264 222.504437 
L 291.508834 222.822267 
L 293.883404 223.300223 
L 296.257974 223.436281 
L 298.632544 223.050905 
L 303.381684 221.4699 
L 305.756254 220.888086 
L 308.130824 220.673562 
L 310.505394 220.89195 
L 317.629104 222.614874 
L 320.003674 222.803463 
L 324.752814 222.773831 
L 327.127384 222.93909 
L 331.876524 223.539601 
L 350.873084 225.010351 
L 353.247654 224.843684 
L 355.622224 224.34845 
L 357.996794 223.645505 
L 360.371364 223.187695 
L 362.745934 223.29585 
L 369.869644 224.539334 
L 372.244214 224.75609 
L 374.618784 224.82254 
L 379.367924 224.582905 
L 381.742494 224.443838 
L 384.117064 224.479259 
L 391.240774 225.071248 
L 395.989914 225.059452 
L 399.658594 224.692291 
L 399.658594 224.692291 
" clip-path="url(#p309cc646c1)" style="fill: none; stroke: #808080; stroke-opacity: 0.5; stroke-width: 0.5; stroke-linecap: square"/>
   </g>
   <g id="line2d_31">
    <path d="M 46.928125 179.837338 
L 49.302695 181.697992 
L 51.677265 180.386878 
L 54.051835 173.454294 
L 56.426405 158.370401 
L 58.800975 133.808511 
L 61.175545 104.730473 
L 63.550115 86.567601 
L 65.924685 83.230655 
L 68.299255 78.775941 
L 70.673825 67.576797 
L 73.048395 63.660849 
L 75.422965 93.560465 
L 77.797535 142.879599 
L 80.172105 176.843538 
L 82.546675 194.855947 
L 84.921245 204.239597 
L 87.295815 208.702369 
L 89.670385 209.844585 
L 92.044955 208.747318 
L 94.419525 207.139708 
L 96.794095 207.817638 
L 99.168665 211.36961 
L 101.543235 214.501241 
L 103.917805 214.796604 
L 106.292375 211.774537 
L 108.666945 205.769364 
L 111.041515 198.30963 
L 113.416085 192.282465 
L 115.790655 190.242514 
L 118.165225 192.762532 
L 120.539795 197.850187 
L 122.914365 202.491205 
L 125.288935 205.157669 
L 127.663505 206.067301 
L 130.038075 206.427394 
L 132.412645 207.544965 
L 134.787215 210.091533 
L 137.161785 213.781183 
L 139.536355 217.177624 
L 141.910925 219.079341 
L 144.285495 219.84944 
L 146.660065 220.467088 
L 149.034635 221.265839 
L 151.409205 221.776397 
L 153.783775 221.372194 
L 156.158345 219.850955 
L 158.532915 218.093666 
L 160.907485 217.75754 
L 163.282055 218.666074 
L 165.656625 219.349717 
L 168.031195 219.151428 
L 170.405765 218.299567 
L 172.780335 217.653122 
L 175.154905 217.901546 
L 177.529475 218.65714 
L 179.904045 219.195597 
L 182.278615 219.300799 
L 187.027755 218.886125 
L 189.402325 218.567713 
L 191.776895 217.918605 
L 194.151465 216.516274 
L 196.526035 214.01114 
L 198.900605 210.668894 
L 201.275175 207.975174 
L 203.649745 207.635897 
L 206.024314 209.777191 
L 210.773454 217.050948 
L 213.148024 219.56588 
L 215.522594 220.45963 
L 217.897164 220.070281 
L 220.271734 219.202466 
L 222.646304 218.753937 
L 225.020874 219.051262 
L 232.144584 221.204614 
L 234.519154 221.712687 
L 239.268294 222.430694 
L 246.392004 223.862278 
L 251.141144 224.484826 
L 253.515714 224.845572 
L 255.890284 224.982784 
L 258.264854 224.749632 
L 265.388564 223.189255 
L 267.763134 223.176935 
L 272.512274 223.820405 
L 274.886844 223.946785 
L 277.261414 223.659471 
L 279.635984 222.933339 
L 282.010554 222.067726 
L 284.385124 221.684985 
L 286.759694 222.05439 
L 289.134264 222.740739 
L 291.508834 223.242228 
L 293.883404 223.353177 
L 301.007114 222.695754 
L 303.381684 222.653258 
L 305.756254 222.468541 
L 308.130824 221.885301 
L 310.505394 220.720351 
L 312.879964 219.068343 
L 315.254534 217.67279 
L 317.629104 217.512718 
L 320.003674 218.534167 
L 322.378244 219.869675 
L 324.752814 220.920581 
L 327.127384 221.595484 
L 331.876524 222.731136 
L 336.625664 224.282349 
L 339.000234 224.882983 
L 341.374804 225.300779 
L 343.749374 225.542667 
L 346.123944 225.590281 
L 348.498514 225.438339 
L 355.622224 224.587398 
L 357.996794 224.636918 
L 367.495074 225.631834 
L 369.869644 225.581574 
L 376.993354 225.119649 
L 384.117064 225.388622 
L 391.240774 225.685415 
L 393.615344 225.555146 
L 395.989914 225.20496 
L 399.658594 224.328053 
L 399.658594 224.328053 
" clip-path="url(#p309cc646c1)" style="fill: none; stroke: #808080; stroke-opacity: 0.5; stroke-width: 0.5; stroke-linecap: square"/>
   </g>
   <g id="line2d_32">
    <path d="M 46.928125 219.556428 
L 49.302695 221.220964 
L 51.677265 221.308778 
L 54.051835 219.754411 
L 56.426405 217.735315 
L 58.800975 217.536346 
L 63.550115 221.088688 
L 65.924685 221.731584 
L 68.299255 220.766564 
L 70.673825 217.938258 
L 73.048395 214.136215 
L 75.422965 212.666852 
L 77.797535 214.928946 
L 80.172105 218.243104 
L 82.546675 220.80265 
L 84.921245 222.239428 
L 87.295815 222.379056 
L 89.670385 221.162383 
L 92.044955 219.319185 
L 96.794095 216.076217 
L 99.168665 214.142039 
L 101.543235 211.394461 
L 103.917805 207.058188 
L 106.292375 200.168941 
L 111.041515 181.946273 
L 113.416085 178.858222 
L 115.790655 184.862702 
L 118.165225 195.914953 
L 120.539795 204.126948 
L 122.914365 206.520597 
L 125.288935 205.256286 
L 127.663505 203.69726 
L 130.038075 203.810047 
L 132.412645 205.261995 
L 137.161785 208.646668 
L 139.536355 210.791908 
L 144.285495 216.993772 
L 146.660065 218.982344 
L 149.034635 219.89993 
L 151.409205 219.900944 
L 153.783775 219.078467 
L 156.158345 217.893089 
L 158.532915 217.545553 
L 160.907485 218.188936 
L 163.282055 218.531757 
L 165.656625 218.151087 
L 170.405765 216.334166 
L 172.780335 215.745203 
L 175.154905 215.743695 
L 177.529475 215.977307 
L 179.904045 216.034433 
L 182.278615 215.81748 
L 184.653185 215.370816 
L 191.776895 213.444592 
L 194.151465 213.499402 
L 196.526035 213.936177 
L 198.900605 214.033121 
L 201.275175 212.747603 
L 203.649745 209.05472 
L 206.024314 203.711981 
L 208.398884 200.526367 
L 210.773454 202.176645 
L 215.522594 212.132236 
L 217.897164 215.832556 
L 220.271734 217.747 
L 222.646304 217.878762 
L 225.020874 216.178477 
L 227.395444 213.07568 
L 229.770014 210.580071 
L 232.144584 211.011134 
L 234.519154 213.892698 
L 236.893724 217.091217 
L 239.268294 219.432719 
L 241.642864 220.854827 
L 244.017434 221.745314 
L 246.392004 222.448745 
L 248.766574 222.986689 
L 251.141144 223.226249 
L 263.013994 223.258607 
L 265.388564 223.144412 
L 267.763134 222.880487 
L 274.886844 221.513829 
L 279.635984 221.235493 
L 282.010554 220.900316 
L 284.385124 220.440323 
L 286.759694 220.406507 
L 289.134264 221.100478 
L 291.508834 222.102989 
L 293.883404 222.918152 
L 296.257974 223.439944 
L 298.632544 223.745059 
L 301.007114 223.848962 
L 303.381684 223.726652 
L 308.130824 223.007227 
L 312.879964 222.103732 
L 315.254534 221.848167 
L 317.629104 221.83249 
L 324.752814 222.222921 
L 327.127384 222.575586 
L 334.251094 224.310666 
L 336.625664 224.633791 
L 339.000234 224.770099 
L 341.374804 224.772446 
L 343.749374 224.634286 
L 346.123944 224.317924 
L 350.873084 223.410745 
L 353.247654 223.225019 
L 355.622224 223.39396 
L 360.371364 224.233963 
L 365.120504 225.206972 
L 367.495074 225.5819 
L 369.869644 225.774474 
L 372.244214 225.791322 
L 386.491634 225.078792 
L 391.240774 224.539591 
L 399.658594 223.515354 
L 399.658594 223.515354 
" clip-path="url(#p309cc646c1)" style="fill: none; stroke: #808080; stroke-opacity: 0.5; stroke-width: 0.5; stroke-linecap: square"/>
   </g>
   <g id="line2d_33">
    <path d="M 46.928125 215.083582 
L 49.302695 213.426521 
L 51.677265 212.21759 
L 54.051835 212.026882 
L 56.426405 212.598548 
L 58.800975 213.050294 
L 61.175545 213.293571 
L 63.550115 213.652198 
L 65.924685 214.435086 
L 70.673825 216.890104 
L 73.048395 217.448518 
L 75.422965 217.301506 
L 77.797535 216.680161 
L 80.172105 215.91756 
L 82.546675 215.555759 
L 84.921245 215.900116 
L 87.295815 216.466542 
L 89.670385 216.828467 
L 92.044955 216.976089 
L 94.419525 216.855438 
L 96.794095 216.084526 
L 99.168665 214.102493 
L 101.543235 210.856306 
L 103.917805 207.234844 
L 106.292375 204.285182 
L 108.666945 202.47182 
L 111.041515 201.447486 
L 113.416085 199.82871 
L 115.790655 196.151705 
L 118.165225 191.298674 
L 120.539795 190.179339 
L 122.914365 196.267655 
L 125.288935 204.895831 
L 127.663505 211.187675 
L 130.038075 214.712255 
L 132.412645 216.508537 
L 134.787215 217.260463 
L 137.161785 217.297537 
L 139.536355 217.071473 
L 141.910925 217.358063 
L 144.285495 218.807892 
L 146.660065 220.892526 
L 149.034635 222.438426 
L 151.409205 222.966478 
L 153.783775 222.421067 
L 156.158345 220.663196 
L 158.532915 217.651893 
L 160.907485 214.07215 
L 163.282055 211.270186 
L 165.656625 210.13589 
L 168.031195 210.522339 
L 170.405765 211.385131 
L 172.780335 211.645024 
L 175.154905 210.968228 
L 179.904045 208.396406 
L 182.278615 207.612708 
L 184.653185 207.347436 
L 187.027755 207.440552 
L 189.402325 208.110076 
L 191.776895 209.800356 
L 196.526035 214.850502 
L 198.900605 216.448792 
L 201.275175 217.058906 
L 206.024314 217.142821 
L 208.398884 216.954062 
L 210.773454 216.287851 
L 213.148024 215.195674 
L 215.522594 214.298381 
L 217.897164 213.987571 
L 220.271734 213.839277 
L 222.646304 213.316787 
L 225.020874 212.522474 
L 227.395444 212.238794 
L 229.770014 213.159266 
L 232.144584 215.061067 
L 234.519154 217.159136 
L 236.893724 218.874418 
L 239.268294 220.019066 
L 241.642864 220.68026 
L 244.017434 221.140731 
L 246.392004 221.718999 
L 251.141144 223.276635 
L 253.515714 223.843811 
L 255.890284 224.082657 
L 258.264854 224.008882 
L 265.388564 223.34005 
L 270.137704 223.273003 
L 272.512274 223.440935 
L 279.635984 224.776932 
L 282.010554 224.787799 
L 289.134264 223.898727 
L 291.508834 223.626395 
L 293.883404 223.212954 
L 301.007114 221.527565 
L 303.381684 221.319491 
L 305.756254 221.389782 
L 308.130824 221.677922 
L 315.254534 222.837882 
L 320.003674 223.240346 
L 322.378244 223.583071 
L 327.127384 224.493922 
L 329.501954 224.760485 
L 343.749374 225.549022 
L 348.498514 225.089105 
L 350.873084 224.861466 
L 353.247654 224.831734 
L 355.622224 225.025757 
L 362.745934 225.882104 
L 365.120504 225.947085 
L 369.869644 225.645848 
L 379.367924 224.878928 
L 395.989914 223.920229 
L 399.658594 223.565492 
L 399.658594 223.565492 
" clip-path="url(#p309cc646c1)" style="fill: none; stroke: #808080; stroke-opacity: 0.5; stroke-width: 0.5; stroke-linecap: square"/>
   </g>
   <g id="line2d_34">
    <path d="M 46.928125 203.601225 
L 49.302695 205.707527 
L 56.426405 213.619572 
L 58.800975 215.533867 
L 61.175545 216.739943 
L 63.550115 217.260381 
L 65.924685 217.246001 
L 70.673825 216.664936 
L 73.048395 216.568421 
L 80.172105 216.943522 
L 82.546675 217.084297 
L 84.921245 217.379615 
L 87.295815 217.949907 
L 92.044955 219.564054 
L 94.419525 220.142887 
L 96.794095 220.326722 
L 99.168665 220.016368 
L 101.543235 219.158751 
L 103.917805 217.901352 
L 106.292375 216.792647 
L 108.666945 216.502 
L 111.041515 217.136828 
L 115.790655 219.184666 
L 118.165225 219.754781 
L 120.539795 219.867156 
L 122.914365 219.651435 
L 130.038075 218.679647 
L 134.787215 218.259305 
L 139.536355 218.321949 
L 141.910925 218.145409 
L 144.285495 217.44388 
L 146.660065 216.166573 
L 149.034635 214.633014 
L 151.409205 213.38535 
L 153.783775 212.598407 
L 158.532915 211.226154 
L 160.907485 210.835417 
L 165.656625 211.07712 
L 168.031195 210.225055 
L 170.405765 208.407702 
L 172.780335 207.521767 
L 175.154905 209.452398 
L 177.529475 212.664425 
L 179.904045 215.124172 
L 182.278615 216.237324 
L 184.653185 216.194131 
L 187.027755 215.693594 
L 189.402325 215.551675 
L 191.776895 215.829935 
L 194.151465 215.845551 
L 196.526035 215.094295 
L 198.900605 214.173593 
L 201.275175 214.49534 
L 203.649745 215.587446 
L 206.024314 216.062863 
L 208.398884 215.843035 
L 210.773454 215.839773 
L 213.148024 216.848212 
L 215.522594 218.394281 
L 217.897164 219.293424 
L 220.271734 218.843266 
L 222.646304 217.222857 
L 225.020874 215.45456 
L 227.395444 214.67162 
L 229.770014 215.217852 
L 232.144584 216.67146 
L 236.893724 220.106843 
L 239.268294 221.610734 
L 241.642864 222.894653 
L 244.017434 223.890948 
L 246.392004 224.533 
L 248.766574 224.810323 
L 251.141144 224.738327 
L 253.515714 224.338706 
L 258.264854 223.04725 
L 260.639424 222.587085 
L 263.013994 222.365013 
L 274.886844 221.854438 
L 277.261414 221.428861 
L 279.635984 220.658827 
L 282.010554 219.757527 
L 284.385124 219.39994 
L 286.759694 220.087749 
L 289.134264 221.317621 
L 291.508834 222.271494 
L 293.883404 222.662085 
L 296.257974 222.633813 
L 305.756254 221.861357 
L 308.130824 221.75824 
L 310.505394 221.520484 
L 315.254534 220.664605 
L 317.629104 220.757862 
L 320.003674 221.463147 
L 322.378244 222.387996 
L 324.752814 223.112611 
L 327.127384 223.481957 
L 331.876524 223.809413 
L 334.251094 224.246665 
L 339.000234 225.254196 
L 341.374804 225.490796 
L 343.749374 225.530283 
L 348.498514 225.246303 
L 353.247654 224.855298 
L 355.622224 224.823546 
L 357.996794 225.032648 
L 362.745934 225.688664 
L 365.120504 225.802627 
L 367.495074 225.716352 
L 372.244214 225.128059 
L 381.742494 223.554523 
L 384.117064 223.626165 
L 388.866204 224.217957 
L 391.240774 224.382956 
L 395.989914 224.388453 
L 399.658594 224.093167 
L 399.658594 224.093167 
" clip-path="url(#p309cc646c1)" style="fill: none; stroke: #808080; stroke-opacity: 0.5; stroke-width: 0.5; stroke-linecap: square"/>
   </g>
   <g id="line2d_35">
    <path d="M 46.928125 217.163738 
L 49.302695 220.787404 
L 51.677265 222.205568 
L 54.051835 222.522077 
L 58.800975 222.689065 
L 61.175545 222.929299 
L 63.550115 223.018037 
L 65.924685 222.703812 
L 68.299255 221.95271 
L 70.673825 220.775848 
L 73.048395 219.022049 
L 75.422965 216.68198 
L 77.797535 214.505665 
L 80.172105 213.785799 
L 82.546675 214.365185 
L 84.921245 214.638341 
L 87.295815 213.893368 
L 89.670385 212.272939 
L 94.419525 207.809921 
L 96.794095 206.691676 
L 99.168665 207.34949 
L 101.543235 209.179184 
L 106.292375 213.611919 
L 108.666945 215.554802 
L 111.041515 216.732858 
L 113.416085 216.916221 
L 115.790655 215.909883 
L 118.165225 213.269571 
L 120.539795 208.964859 
L 122.914365 205.172679 
L 125.288935 204.783214 
L 127.663505 207.106655 
L 130.038075 209.601102 
L 132.412645 210.897281 
L 134.787215 210.828972 
L 137.161785 209.574288 
L 139.536355 207.356243 
L 141.910925 204.942293 
L 144.285495 203.621675 
L 146.660065 203.795914 
L 149.034635 205.413187 
L 151.409205 208.594809 
L 153.783775 212.508952 
L 156.158345 215.724764 
L 158.532915 217.572322 
L 160.907485 218.203011 
L 163.282055 218.07639 
L 165.656625 217.685471 
L 168.031195 217.415004 
L 170.405765 217.394348 
L 172.780335 217.494723 
L 175.154905 217.479055 
L 177.529475 217.137815 
L 182.278615 215.824802 
L 184.653185 215.852445 
L 187.027755 216.602179 
L 189.402325 217.562239 
L 191.776895 218.228347 
L 194.151465 218.366811 
L 196.526035 217.987204 
L 198.900605 217.251249 
L 203.649745 215.331079 
L 208.398884 213.218174 
L 210.773454 212.901813 
L 213.148024 213.827008 
L 215.522594 215.889131 
L 217.897164 218.25506 
L 220.271734 220.118397 
L 222.646304 221.207531 
L 225.020874 221.573164 
L 227.395444 221.345229 
L 232.144584 220.331392 
L 234.519154 220.25261 
L 236.893724 220.331657 
L 239.268294 220.225039 
L 241.642864 219.936187 
L 244.017434 219.83637 
L 246.392004 220.20129 
L 251.141144 221.40054 
L 253.515714 221.684827 
L 255.890284 221.661735 
L 263.013994 220.903581 
L 265.388564 220.512778 
L 270.137704 219.312705 
L 272.512274 219.084683 
L 274.886844 219.659143 
L 279.635984 221.792911 
L 282.010554 222.395035 
L 284.385124 222.609885 
L 291.508834 222.490903 
L 296.257974 222.274333 
L 301.007114 221.900733 
L 305.756254 221.829685 
L 308.130824 221.631933 
L 310.505394 221.304569 
L 312.879964 221.190418 
L 315.254534 221.57587 
L 320.003674 223.027343 
L 322.378244 223.590292 
L 324.752814 223.957225 
L 327.127384 224.157983 
L 334.251094 224.357147 
L 336.625664 224.738737 
L 341.374804 225.676797 
L 343.749374 225.851394 
L 348.498514 225.706616 
L 353.247654 225.371525 
L 357.996794 224.948849 
L 360.371364 224.931711 
L 372.244214 225.498889 
L 374.618784 225.430903 
L 379.367924 224.925897 
L 384.117064 224.294229 
L 386.491634 224.151187 
L 391.240774 224.222739 
L 399.658594 224.504016 
L 399.658594 224.504016 
" clip-path="url(#p309cc646c1)" style="fill: none; stroke: #808080; stroke-opacity: 0.5; stroke-width: 0.5; stroke-linecap: square"/>
   </g>
   <g id="line2d_36">
    <path d="M 46.928125 47.385116 
L 49.302695 61.984678 
L 51.677265 74.214281 
L 54.051835 82.762232 
L 56.426405 86.267563 
L 58.800975 85.755224 
L 61.175545 83.751115 
L 63.550115 81.997969 
L 65.924685 81.441815 
L 68.299255 83.773254 
L 70.673825 91.835729 
L 73.048395 107.099508 
L 77.797535 146.157015 
L 80.172105 160.887007 
L 82.546675 168.48801 
L 84.921245 166.833622 
L 87.295815 155.619836 
L 89.670385 139.456239 
L 92.044955 125.488909 
L 94.419525 117.498785 
L 96.794095 115.757288 
L 99.168665 119.130803 
L 101.543235 125.711628 
L 118.165225 179.970108 
L 120.539795 185.487249 
L 122.914365 187.818322 
L 125.288935 187.477022 
L 127.663505 185.785485 
L 132.412645 181.383726 
L 134.787215 180.286647 
L 137.161785 181.501589 
L 139.536355 185.728659 
L 144.285495 198.530608 
L 146.660065 203.05026 
L 149.034635 205.511589 
L 151.409205 207.106868 
L 156.158345 210.851284 
L 158.532915 211.919891 
L 160.907485 211.215293 
L 165.656625 206.31801 
L 168.031195 206.818107 
L 172.780335 214.017133 
L 175.154905 215.281329 
L 177.529475 214.686694 
L 179.904045 213.725156 
L 182.278615 214.130944 
L 184.653185 215.6711 
L 187.027755 216.783709 
L 189.402325 217.102475 
L 191.776895 217.083231 
L 194.151465 217.308981 
L 196.526035 218.163707 
L 198.900605 219.3746 
L 201.275175 220.261271 
L 203.649745 220.615216 
L 208.398884 220.60705 
L 215.522594 220.470444 
L 217.897164 220.61217 
L 222.646304 221.187409 
L 225.020874 220.887211 
L 227.395444 219.759569 
L 229.770014 218.01785 
L 232.144584 216.585036 
L 234.519154 216.508055 
L 236.893724 217.711133 
L 241.642864 221.003493 
L 244.017434 222.204724 
L 246.392004 222.839601 
L 248.766574 222.918286 
L 251.141144 222.550872 
L 255.890284 221.128373 
L 258.264854 220.436065 
L 260.639424 219.898098 
L 263.013994 219.548251 
L 265.388564 219.467042 
L 267.763134 219.77788 
L 274.886844 221.734901 
L 277.261414 221.600632 
L 279.635984 220.822874 
L 282.010554 219.850009 
L 284.385124 219.41876 
L 286.759694 219.755505 
L 289.134264 220.425974 
L 291.508834 220.936201 
L 293.883404 221.01185 
L 296.257974 220.587286 
L 298.632544 219.848212 
L 301.007114 219.248019 
L 303.381684 219.236767 
L 305.756254 219.852254 
L 310.505394 221.64357 
L 312.879964 222.352608 
L 315.254534 222.857954 
L 317.629104 223.143915 
L 322.378244 223.184358 
L 324.752814 223.241747 
L 331.876524 223.981492 
L 336.625664 223.7745 
L 339.000234 223.933496 
L 343.749374 224.738851 
L 346.123944 224.933413 
L 348.498514 224.91567 
L 362.745934 224.154244 
L 367.495074 224.278456 
L 372.244214 224.733122 
L 374.618784 224.968192 
L 376.993354 225.045161 
L 393.615344 224.32091 
L 399.658594 223.940174 
L 399.658594 223.940174 
" clip-path="url(#p309cc646c1)" style="fill: none; stroke: #808080; stroke-opacity: 0.5; stroke-width: 0.5; stroke-linecap: square"/>
   </g>
   <g id="line2d_37">
    <path d="M 46.928125 92.539429 
L 49.302695 90.369327 
L 51.677265 89.157066 
L 54.051835 97.757747 
L 56.426405 113.610531 
L 58.800975 127.544045 
L 61.175545 135.509064 
L 63.550115 138.744959 
L 65.924685 139.830182 
L 68.299255 140.126035 
L 70.673825 139.899568 
L 73.048395 140.359829 
L 75.422965 143.700854 
L 80.172105 156.4336 
L 82.546675 160.388772 
L 84.921245 161.287246 
L 87.295815 159.929739 
L 89.670385 157.944582 
L 92.044955 157.763559 
L 94.419525 161.371056 
L 96.794095 167.635204 
L 99.168665 173.160039 
L 101.543235 175.733381 
L 103.917805 175.228611 
L 106.292375 172.797089 
L 108.666945 169.415291 
L 111.041515 164.477315 
L 113.416085 156.239627 
L 115.790655 143.146495 
L 118.165225 124.506544 
L 120.539795 101.842369 
L 122.914365 82.922024 
L 125.288935 80.654731 
L 127.663505 95.744532 
L 130.038075 115.186732 
L 132.412645 130.560008 
L 134.787215 140.9069 
L 137.161785 147.702799 
L 139.536355 151.977054 
L 141.910925 153.745335 
L 144.285495 152.936482 
L 149.034635 147.877791 
L 151.409205 147.551729 
L 153.783775 150.604362 
L 156.158345 157.385686 
L 160.907485 176.86467 
L 163.282055 185.105185 
L 165.656625 191.133943 
L 168.031195 195.510931 
L 170.405765 198.937283 
L 172.780335 201.715672 
L 175.154905 203.751781 
L 177.529475 204.904985 
L 179.904045 205.324929 
L 182.278615 205.567883 
L 184.653185 206.385936 
L 187.027755 208.159148 
L 189.402325 210.478189 
L 191.776895 212.530761 
L 194.151465 213.790191 
L 196.526035 214.238132 
L 201.275175 214.075346 
L 208.398884 213.856743 
L 210.773454 213.508103 
L 215.522594 212.048926 
L 217.897164 212.162776 
L 220.271734 213.643589 
L 222.646304 215.649604 
L 225.020874 217.284663 
L 227.395444 218.2649 
L 229.770014 218.678564 
L 236.893724 218.897619 
L 239.268294 219.180249 
L 241.642864 219.733172 
L 244.017434 220.596128 
L 248.766574 222.634475 
L 251.141144 223.485161 
L 253.515714 224.150995 
L 255.890284 224.545191 
L 258.264854 224.527633 
L 260.639424 224.075552 
L 263.013994 223.423476 
L 265.388564 222.914914 
L 267.763134 222.68242 
L 272.512274 222.39907 
L 279.635984 221.587917 
L 282.010554 221.436917 
L 284.385124 221.432525 
L 289.134264 221.769082 
L 291.508834 221.749839 
L 293.883404 221.577098 
L 296.257974 221.529504 
L 301.007114 222.04582 
L 303.381684 222.30266 
L 312.879964 222.865084 
L 317.629104 223.432328 
L 322.378244 223.581182 
L 329.501954 223.751609 
L 334.251094 224.087674 
L 341.374804 225.129312 
L 343.749374 225.30562 
L 346.123944 225.323074 
L 350.873084 224.981834 
L 355.622224 224.415353 
L 357.996794 224.321389 
L 362.745934 224.733609 
L 365.120504 224.923872 
L 367.495074 224.954306 
L 372.244214 224.603823 
L 376.993354 224.304853 
L 386.491634 224.097575 
L 391.240774 223.943211 
L 395.989914 223.928884 
L 399.658594 223.598209 
L 399.658594 223.598209 
" clip-path="url(#p309cc646c1)" style="fill: none; stroke: #808080; stroke-opacity: 0.5; stroke-width: 0.5; stroke-linecap: square"/>
   </g>
   <g id="line2d_38">
    <path d="M 46.928125 210.480506 
L 49.302695 206.363378 
L 51.677265 203.507993 
L 54.051835 204.490071 
L 56.426405 207.981225 
L 58.800975 211.23893 
L 61.175545 213.493754 
L 68.299255 218.582851 
L 70.673825 219.775967 
L 73.048395 220.496024 
L 75.422965 220.89889 
L 77.797535 221.075428 
L 80.172105 220.905819 
L 82.546675 220.214292 
L 84.921245 219.191287 
L 87.295815 218.455655 
L 89.670385 218.482034 
L 92.044955 219.027154 
L 94.419525 219.124327 
L 96.794095 217.55181 
L 99.168665 213.463921 
L 101.543235 207.299509 
L 103.917805 201.928348 
L 106.292375 200.720461 
L 108.666945 202.415182 
L 111.041515 203.284777 
L 113.416085 201.966312 
L 115.790655 199.504736 
L 118.165225 197.760092 
L 120.539795 197.185479 
L 122.914365 195.90937 
L 125.288935 192.503162 
L 127.663505 190.025021 
L 130.038075 193.729184 
L 132.412645 201.313229 
L 134.787215 207.671595 
L 137.161785 211.762984 
L 139.536355 214.437305 
L 141.910925 216.317724 
L 144.285495 217.472008 
L 146.660065 217.799143 
L 149.034635 217.110336 
L 151.409205 214.885743 
L 153.783775 210.498872 
L 156.158345 205.318586 
L 158.532915 203.868363 
L 160.907485 207.528448 
L 163.282055 212.718174 
L 165.656625 216.570104 
L 168.031195 218.619957 
L 170.405765 219.473644 
L 172.780335 219.81951 
L 175.154905 220.035553 
L 177.529475 219.998341 
L 179.904045 219.285889 
L 182.278615 217.66188 
L 184.653185 215.525932 
L 187.027755 214.000348 
L 189.402325 213.836746 
L 191.776895 214.282496 
L 194.151465 214.077314 
L 196.526035 212.820132 
L 198.900605 211.262363 
L 201.275175 210.477507 
L 203.649745 210.563357 
L 206.024314 211.10761 
L 208.398884 212.006712 
L 213.148024 214.446247 
L 215.522594 215.372245 
L 217.897164 215.907947 
L 220.271734 216.164293 
L 225.020874 216.511812 
L 232.144584 217.791337 
L 236.893724 217.667467 
L 239.268294 218.069954 
L 244.017434 220.037172 
L 246.392004 220.552966 
L 248.766574 220.498233 
L 253.515714 219.830642 
L 255.890284 219.935254 
L 258.264854 220.274804 
L 260.639424 220.395165 
L 265.388564 219.932767 
L 267.763134 220.587368 
L 270.137704 221.864163 
L 272.512274 222.979893 
L 274.886844 223.624727 
L 277.261414 223.872447 
L 282.010554 223.83916 
L 284.385124 223.679396 
L 286.759694 223.342173 
L 293.883404 221.709155 
L 296.257974 221.384092 
L 298.632544 221.33041 
L 301.007114 221.628227 
L 303.381684 222.214703 
L 308.130824 223.611875 
L 310.505394 224.107826 
L 312.879964 224.312347 
L 315.254534 224.241559 
L 320.003674 223.864843 
L 322.378244 223.870274 
L 327.127384 224.050084 
L 331.876524 223.763286 
L 334.251094 223.635335 
L 336.625664 223.774831 
L 343.749374 225.091899 
L 346.123944 225.140773 
L 350.873084 224.747699 
L 353.247654 224.745657 
L 357.996794 225.247812 
L 362.745934 225.689104 
L 365.120504 225.78686 
L 367.495074 225.76948 
L 369.869644 225.58324 
L 374.618784 224.895696 
L 376.993354 224.739755 
L 386.491634 224.582696 
L 393.615344 224.00547 
L 398.364484 223.351447 
L 399.658594 223.137848 
L 399.658594 223.137848 
" clip-path="url(#p309cc646c1)" style="fill: none; stroke: #808080; stroke-opacity: 0.5; stroke-width: 0.5; stroke-linecap: square"/>
   </g>
   <g id="line2d_39">
    <path d="M 46.928125 172.136899 
L 49.302695 170.271139 
L 51.677265 164.80128 
L 56.426405 149.238546 
L 58.800975 145.893687 
L 61.175545 148.879172 
L 65.924685 163.204014 
L 68.299255 168.500651 
L 70.673825 171.196018 
L 73.048395 171.398659 
L 75.422965 169.333579 
L 77.797535 165.13269 
L 80.172105 158.972806 
L 82.546675 151.607038 
L 84.921245 144.84331 
L 87.295815 140.809684 
L 89.670385 140.265358 
L 92.044955 142.618912 
L 94.419525 147.535337 
L 96.794095 154.878455 
L 99.168665 163.196604 
L 101.543235 170.236302 
L 103.917805 174.996131 
L 106.292375 178.486276 
L 108.666945 182.949522 
L 113.416085 196.068516 
L 115.790655 200.562374 
L 118.165225 202.033234 
L 120.539795 200.652918 
L 125.288935 194.068256 
L 127.663505 192.752646 
L 132.412645 193.817185 
L 134.787215 192.523841 
L 137.161785 188.529309 
L 139.536355 181.778223 
L 141.910925 174.0419 
L 144.285495 170.738141 
L 146.660065 175.747368 
L 149.034635 183.843104 
L 151.409205 189.453372 
L 153.783775 192.262691 
L 156.158345 194.570549 
L 158.532915 198.218481 
L 160.907485 202.680404 
L 163.282055 206.762172 
L 165.656625 210.146083 
L 168.031195 212.811738 
L 170.405765 214.642121 
L 172.780335 215.666726 
L 175.154905 216.153976 
L 177.529475 216.33495 
L 179.904045 216.150481 
L 182.278615 215.727502 
L 184.653185 216.002632 
L 189.402325 218.677067 
L 191.776895 218.867846 
L 194.151465 217.611856 
L 196.526035 215.323753 
L 198.900605 213.366162 
L 201.275175 212.953558 
L 203.649745 213.463683 
L 206.024314 213.541481 
L 208.398884 212.638483 
L 210.773454 211.221557 
L 213.148024 210.53374 
L 215.522594 211.74661 
L 217.897164 214.427608 
L 220.271734 216.849137 
L 222.646304 218.076103 
L 225.020874 218.261277 
L 227.395444 217.991395 
L 229.770014 217.917435 
L 232.144584 218.366755 
L 234.519154 219.06729 
L 236.893724 219.60266 
L 241.642864 220.499022 
L 244.017434 221.030509 
L 246.392004 221.314798 
L 248.766574 221.453957 
L 251.141144 221.899046 
L 255.890284 223.546718 
L 258.264854 224.081485 
L 260.639424 224.205612 
L 263.013994 223.882407 
L 265.388564 223.12696 
L 272.512274 219.938254 
L 274.886844 219.352956 
L 277.261414 219.031257 
L 279.635984 218.883255 
L 282.010554 218.983971 
L 286.759694 219.880021 
L 291.508834 220.641079 
L 298.632544 221.586586 
L 303.381684 222.620272 
L 305.756254 223.098503 
L 308.130824 223.307999 
L 310.505394 223.237214 
L 312.879964 222.966601 
L 315.254534 222.517398 
L 317.629104 221.853342 
L 322.378244 220.364217 
L 324.752814 220.047235 
L 327.127384 220.293449 
L 329.501954 221.073969 
L 334.251094 223.015238 
L 336.625664 223.72067 
L 341.374804 224.67569 
L 343.749374 224.979097 
L 346.123944 225.105053 
L 348.498514 225.04499 
L 357.996794 224.354197 
L 360.371364 224.36526 
L 365.120504 224.712732 
L 369.869644 225.101437 
L 374.618784 225.286209 
L 379.367924 225.17588 
L 384.117064 224.883209 
L 388.866204 224.989044 
L 393.615344 225.024394 
L 399.658594 224.689899 
L 399.658594 224.689899 
" clip-path="url(#p309cc646c1)" style="fill: none; stroke: #808080; stroke-opacity: 0.5; stroke-width: 0.5; stroke-linecap: square"/>
   </g>
   <g id="line2d_40">
    <path d="M 46.928125 214.903947 
L 49.302695 215.790953 
L 51.677265 215.970449 
L 56.426405 215.151976 
L 58.800975 215.281383 
L 65.924685 217.330007 
L 70.673825 217.726154 
L 75.422965 218.588636 
L 77.797535 218.646326 
L 80.172105 218.260303 
L 82.546675 217.694609 
L 84.921245 217.370874 
L 87.295815 217.509542 
L 96.794095 219.257281 
L 99.168665 219.596398 
L 101.543235 219.810782 
L 103.917805 219.748201 
L 106.292375 219.353284 
L 111.041515 218.089778 
L 113.416085 217.63717 
L 115.790655 217.471228 
L 125.288935 217.633769 
L 130.038075 217.305338 
L 132.412645 216.852048 
L 134.787215 215.849118 
L 137.161785 214.489311 
L 139.536355 213.758158 
L 141.910925 214.314523 
L 144.285495 215.361204 
L 146.660065 215.754245 
L 149.034635 214.915061 
L 151.409205 212.800871 
L 153.783775 210.254578 
L 156.158345 209.36337 
L 158.532915 211.380084 
L 160.907485 214.461843 
L 163.282055 216.33804 
L 165.656625 216.520935 
L 168.031195 215.810405 
L 170.405765 215.413966 
L 172.780335 215.784487 
L 179.904045 218.002752 
L 182.278615 217.856043 
L 184.653185 216.267763 
L 187.027755 213.175404 
L 189.402325 209.860164 
L 191.776895 208.966145 
L 194.151465 211.267872 
L 196.526035 214.229264 
L 198.900605 216.099549 
L 201.275175 216.660261 
L 203.649745 216.087728 
L 206.024314 214.847116 
L 208.398884 213.948734 
L 210.773454 214.36852 
L 215.522594 217.285107 
L 217.897164 217.925904 
L 222.646304 217.930886 
L 225.020874 218.538156 
L 229.770014 220.747037 
L 232.144584 221.188388 
L 234.519154 220.980389 
L 236.893724 220.536821 
L 239.268294 220.488123 
L 241.642864 221.104129 
L 246.392004 223.012593 
L 248.766574 223.774376 
L 251.141144 224.377538 
L 253.515714 224.857975 
L 255.890284 225.199486 
L 258.264854 225.374419 
L 260.639424 225.375565 
L 263.013994 225.222327 
L 265.388564 224.937891 
L 267.763134 224.509685 
L 270.137704 223.880383 
L 274.886844 222.260632 
L 277.261414 222.059001 
L 282.010554 222.670013 
L 284.385124 222.771871 
L 286.759694 222.599792 
L 293.883404 221.382922 
L 296.257974 221.58101 
L 298.632544 222.186574 
L 303.381684 223.560617 
L 305.756254 223.965613 
L 308.130824 223.998619 
L 317.629104 222.900528 
L 322.378244 222.576812 
L 324.752814 222.748075 
L 329.501954 223.847707 
L 331.876524 224.137569 
L 336.625664 224.235483 
L 339.000234 224.441474 
L 343.749374 225.266416 
L 346.123944 225.517012 
L 350.873084 225.563987 
L 367.495074 225.524463 
L 372.244214 225.786703 
L 374.618784 225.755872 
L 379.367924 225.276224 
L 384.117064 224.577938 
L 386.491634 224.342701 
L 388.866204 224.288659 
L 393.615344 224.419673 
L 395.989914 224.338656 
L 399.658594 223.979889 
L 399.658594 223.979889 
" clip-path="url(#p309cc646c1)" style="fill: none; stroke: #808080; stroke-opacity: 0.5; stroke-width: 0.5; stroke-linecap: square"/>
   </g>
   <g id="line2d_41">
    <path d="M 46.928125 218.340625 
L 51.677265 213.457855 
L 54.051835 211.608447 
L 56.426405 210.634692 
L 58.800975 210.588929 
L 61.175545 211.601522 
L 63.550115 213.652003 
L 65.924685 216.173115 
L 68.299255 218.271235 
L 70.673825 219.294314 
L 73.048395 219.060795 
L 75.422965 217.868155 
L 77.797535 216.513078 
L 80.172105 215.90504 
L 82.546675 216.139261 
L 84.921245 216.626023 
L 87.295815 216.825569 
L 89.670385 216.253483 
L 92.044955 214.405126 
L 94.419525 211.387802 
L 96.794095 208.625091 
L 99.168665 207.037396 
L 101.543235 205.854967 
L 103.917805 204.172136 
L 106.292375 201.849003 
L 108.666945 199.81595 
L 111.041515 199.482187 
L 113.416085 200.694146 
L 115.790655 202.27072 
L 118.165225 204.429954 
L 122.914365 210.957089 
L 125.288935 212.52961 
L 127.663505 211.712034 
L 132.412645 206.215386 
L 134.787215 205.558073 
L 137.161785 207.538523 
L 139.536355 210.008369 
L 141.910925 210.885259 
L 144.285495 209.964252 
L 146.660065 208.455873 
L 149.034635 207.811314 
L 151.409205 209.086074 
L 153.783775 212.1888 
L 156.158345 215.773898 
L 158.532915 218.527266 
L 160.907485 219.952244 
L 163.282055 220.240655 
L 168.031195 219.859902 
L 170.405765 220.084244 
L 172.780335 220.495089 
L 175.154905 220.745886 
L 177.529475 220.636682 
L 179.904045 220.174061 
L 182.278615 219.353253 
L 184.653185 217.970634 
L 189.402325 214.096011 
L 191.776895 213.403755 
L 194.151465 214.136521 
L 196.526035 215.128783 
L 198.900605 215.095551 
L 201.275175 213.755628 
L 203.649745 212.073714 
L 206.024314 211.680018 
L 208.398884 212.919876 
L 210.773454 214.339295 
L 213.148024 214.653125 
L 215.522594 213.690206 
L 217.897164 212.525843 
L 220.271734 212.810387 
L 222.646304 214.648196 
L 225.020874 216.787588 
L 227.395444 218.460773 
L 229.770014 219.584201 
L 232.144584 220.287525 
L 234.519154 220.702547 
L 239.268294 221.127602 
L 246.392004 221.527194 
L 251.141144 221.629629 
L 255.890284 221.173362 
L 258.264854 221.613896 
L 263.013994 224.216365 
L 265.388564 224.991952 
L 267.763134 225.205842 
L 270.137704 224.972679 
L 272.512274 224.411112 
L 274.886844 223.72162 
L 277.261414 223.219034 
L 279.635984 223.06421 
L 284.385124 223.016165 
L 291.508834 222.44715 
L 298.632544 221.443074 
L 301.007114 221.664676 
L 308.130824 223.486051 
L 310.505394 223.622367 
L 315.254534 223.367252 
L 317.629104 223.448352 
L 324.752814 224.285727 
L 327.127384 224.154299 
L 329.501954 223.82994 
L 331.876524 223.672929 
L 334.251094 223.974101 
L 339.000234 225.153132 
L 341.374804 225.475824 
L 346.123944 225.652836 
L 350.873084 225.62767 
L 357.996794 225.067131 
L 369.869644 224.988597 
L 376.993354 225.345101 
L 381.742494 225.221247 
L 384.117064 225.004105 
L 388.866204 224.25011 
L 391.240774 223.873998 
L 393.615344 223.623883 
L 399.658594 223.36482 
L 399.658594 223.36482 
" clip-path="url(#p309cc646c1)" style="fill: none; stroke: #808080; stroke-opacity: 0.5; stroke-width: 0.5; stroke-linecap: square"/>
   </g>
   <g id="line2d_42">
    <path d="M 46.928125 215.484973 
L 49.302695 217.179744 
L 51.677265 217.91659 
L 54.051835 217.90396 
L 58.800975 217.268955 
L 65.924685 217.241792 
L 68.299255 216.959115 
L 70.673825 216.492114 
L 73.048395 215.845942 
L 77.797535 214.061334 
L 80.172105 213.463903 
L 82.546675 213.517835 
L 84.921245 213.802537 
L 87.295815 213.633684 
L 89.670385 213.005007 
L 92.044955 212.821459 
L 94.419525 213.883763 
L 96.794095 215.643797 
L 99.168665 216.897019 
L 101.543235 216.960988 
L 103.917805 215.989089 
L 106.292375 214.856105 
L 108.666945 214.420834 
L 111.041515 214.653583 
L 115.790655 215.420225 
L 118.165225 215.65259 
L 120.539795 215.469688 
L 122.914365 214.644581 
L 125.288935 213.638852 
L 127.663505 213.568909 
L 130.038075 214.652065 
L 132.412645 215.873363 
L 134.787215 216.626237 
L 137.161785 217.128361 
L 141.910925 218.375355 
L 144.285495 218.446583 
L 146.660065 217.680812 
L 149.034635 216.63026 
L 151.409205 216.294787 
L 156.158345 217.137461 
L 158.532915 216.878561 
L 160.907485 216.111219 
L 163.282055 215.594583 
L 165.656625 215.944429 
L 170.405765 218.243887 
L 172.780335 218.924342 
L 175.154905 218.833346 
L 182.278615 217.273035 
L 184.653185 216.162808 
L 189.402325 212.33991 
L 191.776895 212.448197 
L 194.151465 213.951085 
L 196.526035 215.097545 
L 198.900605 215.213076 
L 203.649745 213.907723 
L 206.024314 214.225334 
L 208.398884 215.246738 
L 210.773454 216.116973 
L 213.148024 216.221682 
L 215.522594 215.43746 
L 217.897164 214.315136 
L 220.271734 214.10505 
L 222.646304 215.557649 
L 227.395444 220.272687 
L 229.770014 222.011014 
L 232.144584 223.087229 
L 234.519154 223.592464 
L 236.893724 223.696186 
L 241.642864 223.347548 
L 244.017434 223.147059 
L 246.392004 223.122615 
L 248.766574 223.377905 
L 253.515714 224.478919 
L 258.264854 225.490171 
L 263.013994 226.134895 
L 265.388564 226.301905 
L 270.137704 226.300515 
L 272.512274 226.117833 
L 274.886844 225.748814 
L 277.261414 225.14431 
L 279.635984 224.400615 
L 282.010554 223.853525 
L 284.385124 223.73604 
L 291.508834 224.125355 
L 296.257974 224.415116 
L 298.632544 224.306724 
L 303.381684 223.900215 
L 308.130824 223.541947 
L 312.879964 222.993427 
L 315.254534 223.028443 
L 324.752814 224.029911 
L 329.501954 224.714737 
L 336.625664 225.85587 
L 339.000234 226.065386 
L 341.374804 226.10555 
L 343.749374 225.972859 
L 346.123944 225.678049 
L 350.873084 224.818663 
L 353.247654 224.560462 
L 355.622224 224.608566 
L 360.371364 225.043503 
L 365.120504 225.176076 
L 369.869644 225.041498 
L 376.993354 224.618345 
L 384.117064 224.57446 
L 393.615344 224.507714 
L 398.364484 224.068547 
L 399.658594 223.884108 
L 399.658594 223.884108 
" clip-path="url(#p309cc646c1)" style="fill: none; stroke: #808080; stroke-opacity: 0.5; stroke-width: 0.5; stroke-linecap: square"/>
   </g>
   <g id="line2d_43">
    <path d="M 46.928125 220.266457 
L 49.302695 220.234286 
L 51.677265 219.497927 
L 54.051835 218.056135 
L 56.426405 216.760313 
L 58.800975 216.528648 
L 63.550115 217.783317 
L 65.924685 217.739286 
L 68.299255 216.722189 
L 70.673825 214.974602 
L 73.048395 213.572684 
L 75.422965 213.799687 
L 77.797535 215.838984 
L 80.172105 218.385601 
L 82.546675 219.835669 
L 84.921245 219.334478 
L 87.295815 216.655863 
L 89.670385 211.880733 
L 94.419525 198.932343 
L 96.794095 195.279996 
L 99.168665 196.027289 
L 101.543235 198.163904 
L 103.917805 198.948905 
L 106.292375 198.934256 
L 108.666945 201.051983 
L 113.416085 210.62179 
L 115.790655 213.247787 
L 118.165225 213.326305 
L 120.539795 210.391806 
L 122.914365 203.724964 
L 125.288935 195.642631 
L 127.663505 196.713018 
L 130.038075 205.80665 
L 132.412645 212.347674 
L 134.787215 215.160931 
L 137.161785 215.608849 
L 139.536355 215.110698 
L 141.910925 215.750132 
L 146.660065 220.005404 
L 149.034635 221.15829 
L 151.409205 221.502381 
L 153.783775 221.271937 
L 158.532915 220.064339 
L 165.656625 218.066727 
L 168.031195 218.349918 
L 172.780335 220.678273 
L 175.154905 221.504412 
L 177.529475 221.843837 
L 179.904045 221.685979 
L 182.278615 221.071994 
L 184.653185 219.994139 
L 187.027755 218.322389 
L 191.776895 213.82441 
L 194.151465 212.619348 
L 196.526035 212.271883 
L 198.900605 211.33177 
L 201.275175 209.149368 
L 203.649745 206.481076 
L 206.024314 204.432591 
L 208.398884 203.286859 
L 210.773454 203.085272 
L 213.148024 204.654381 
L 215.522594 208.009978 
L 217.897164 211.64404 
L 220.271734 214.250597 
L 222.646304 215.540012 
L 225.020874 215.915876 
L 227.395444 215.995938 
L 229.770014 216.28379 
L 232.144584 217.017555 
L 236.893724 219.012705 
L 241.642864 220.474416 
L 244.017434 221.318771 
L 246.392004 221.842664 
L 248.766574 221.703513 
L 255.890284 219.854332 
L 258.264854 219.858124 
L 260.639424 220.189933 
L 263.013994 220.801924 
L 265.388564 221.738272 
L 267.763134 222.828529 
L 270.137704 223.732236 
L 272.512274 224.204138 
L 274.886844 224.14875 
L 277.261414 223.582546 
L 282.010554 221.923156 
L 284.385124 221.624732 
L 291.508834 221.86907 
L 296.257974 221.358534 
L 298.632544 221.068598 
L 301.007114 220.988898 
L 303.381684 221.3071 
L 308.130824 222.675144 
L 310.505394 223.081854 
L 312.879964 223.090302 
L 315.254534 222.889482 
L 317.629104 222.957466 
L 320.003674 223.579841 
L 322.378244 224.380833 
L 324.752814 224.87591 
L 327.127384 224.92196 
L 331.876524 224.307974 
L 334.251094 224.327309 
L 341.374804 225.380564 
L 343.749374 225.562494 
L 346.123944 225.626759 
L 348.498514 225.555241 
L 350.873084 225.318695 
L 355.622224 224.571027 
L 357.996794 224.368437 
L 360.371364 224.377787 
L 367.495074 224.829925 
L 372.244214 225.156461 
L 376.993354 225.210201 
L 381.742494 225.258528 
L 386.491634 225.453606 
L 388.866204 225.445219 
L 391.240774 225.29036 
L 399.658594 224.11899 
L 399.658594 224.11899 
" clip-path="url(#p309cc646c1)" style="fill: none; stroke: #808080; stroke-opacity: 0.5; stroke-width: 0.5; stroke-linecap: square"/>
   </g>
   <g id="line2d_44">
    <path d="M 46.928125 17.635965 
L 49.302695 44.643577 
L 51.677265 63.805 
L 54.051835 79.057056 
L 56.426405 91.400896 
L 58.800975 99.058418 
L 61.175545 99.751201 
L 63.550115 92.676794 
L 65.924685 80.100402 
L 68.299255 68.403056 
L 70.673825 64.10873 
L 73.048395 66.53536 
L 75.422965 69.710092 
L 77.797535 69.887443 
L 80.172105 67.687338 
L 82.546675 66.068388 
L 84.921245 67.7332 
L 87.295815 73.428408 
L 89.670385 81.125278 
L 92.044955 87.090213 
L 94.419525 89.049219 
L 96.794095 88.734154 
L 99.168665 91.557156 
L 101.543235 101.310768 
L 106.292375 128.867282 
L 108.666945 140.268982 
L 111.041515 149.894884 
L 113.416085 157.956003 
L 115.790655 164.076653 
L 118.165225 167.965605 
L 120.539795 169.845361 
L 122.914365 170.356132 
L 125.288935 170.206258 
L 127.663505 169.735242 
L 130.038075 168.674939 
L 132.412645 166.521768 
L 134.787215 163.533109 
L 137.161785 161.704317 
L 139.536355 163.833143 
L 141.910925 170.202586 
L 144.285495 178.178087 
L 146.660065 185.417164 
L 149.034635 191.031061 
L 151.409205 194.857323 
L 153.783775 196.999162 
L 156.158345 197.853546 
L 158.532915 198.202054 
L 160.907485 198.957514 
L 163.282055 200.460821 
L 165.656625 202.185023 
L 168.031195 203.299826 
L 170.405765 203.203667 
L 172.780335 201.565591 
L 175.154905 198.219106 
L 177.529475 193.63825 
L 179.904045 190.822204 
L 182.278615 194.842502 
L 184.653185 203.932179 
L 187.027755 211.743141 
L 189.402325 216.549763 
L 191.776895 219.181544 
L 194.151465 220.464967 
L 196.526035 220.859373 
L 198.900605 220.591535 
L 201.275175 219.80091 
L 208.398884 216.258614 
L 210.773454 215.522222 
L 213.148024 215.377342 
L 215.522594 215.753017 
L 220.271734 217.086305 
L 222.646304 217.981309 
L 225.020874 218.999408 
L 227.395444 219.8095 
L 229.770014 220.149679 
L 234.519154 220.216402 
L 236.893724 220.575822 
L 239.268294 221.087804 
L 241.642864 221.422215 
L 244.017434 221.428344 
L 246.392004 221.274247 
L 248.766574 221.302699 
L 251.141144 221.701066 
L 255.890284 222.947143 
L 258.264854 223.269072 
L 265.388564 223.411482 
L 270.137704 223.96657 
L 279.635984 224.070787 
L 282.010554 223.988309 
L 284.385124 223.681809 
L 286.759694 223.254379 
L 289.134264 222.981871 
L 291.508834 223.07105 
L 296.257974 223.60818 
L 298.632544 223.542756 
L 303.381684 222.912716 
L 308.130824 222.288277 
L 310.505394 222.217159 
L 312.879964 222.452522 
L 317.629104 223.376806 
L 320.003674 223.470093 
L 322.378244 223.144738 
L 327.127384 222.120029 
L 329.501954 222.043974 
L 331.876524 222.313603 
L 339.000234 223.654229 
L 343.749374 224.466442 
L 348.498514 224.731045 
L 350.873084 224.902635 
L 357.996794 226.053924 
L 360.371364 226.133244 
L 362.745934 226.027804 
L 365.120504 225.740247 
L 369.869644 224.708068 
L 372.244214 224.175028 
L 374.618784 223.821069 
L 376.993354 223.715852 
L 379.367924 223.873431 
L 384.117064 224.733089 
L 386.491634 225.138271 
L 388.866204 225.369909 
L 391.240774 225.423618 
L 395.989914 225.159053 
L 399.658594 224.80258 
L 399.658594 224.80258 
" clip-path="url(#p309cc646c1)" style="fill: none; stroke: #808080; stroke-opacity: 0.5; stroke-width: 0.5; stroke-linecap: square"/>
   </g>
   <g id="line2d_45">
    <path d="M 46.928125 208.007076 
L 49.302695 208.608324 
L 51.677265 209.70504 
L 54.051835 210.34466 
L 56.426405 210.038413 
L 58.800975 209.056091 
L 61.175545 208.369904 
L 63.550115 208.888454 
L 68.299255 211.77784 
L 70.673825 212.464144 
L 73.048395 212.260063 
L 77.797535 210.415802 
L 80.172105 210.176731 
L 82.546675 210.778861 
L 84.921245 211.527934 
L 87.295815 211.922229 
L 89.670385 212.158474 
L 92.044955 212.839757 
L 96.794095 215.637391 
L 99.168665 215.722488 
L 101.543235 213.612493 
L 103.917805 209.209148 
L 106.292375 203.992309 
L 108.666945 201.943406 
L 111.041515 204.892187 
L 113.416085 209.239449 
L 115.790655 212.225711 
L 118.165225 213.648191 
L 120.539795 214.025045 
L 122.914365 213.652481 
L 125.288935 212.443226 
L 127.663505 210.27801 
L 130.038075 207.927859 
L 132.412645 207.314808 
L 134.787215 208.944981 
L 137.161785 211.393168 
L 139.536355 213.51757 
L 141.910925 214.864115 
L 144.285495 215.450824 
L 149.034635 215.837936 
L 151.409205 215.917043 
L 153.783775 215.659085 
L 158.532915 214.64021 
L 160.907485 214.78229 
L 165.656625 216.674318 
L 168.031195 216.901041 
L 170.405765 216.434668 
L 172.780335 215.625119 
L 175.154905 214.680547 
L 177.529475 213.578952 
L 179.904045 212.297532 
L 182.278615 211.542688 
L 184.653185 212.247764 
L 187.027755 213.481653 
L 189.402325 213.968543 
L 191.776895 213.565665 
L 194.151465 212.814278 
L 196.526035 212.406261 
L 203.649745 212.827487 
L 206.024314 214.091894 
L 210.773454 219.074986 
L 213.148024 220.899089 
L 215.522594 222.217548 
L 217.897164 223.219063 
L 220.271734 223.867033 
L 222.646304 224.052135 
L 225.020874 223.775753 
L 229.770014 222.436653 
L 232.144584 222.089561 
L 234.519154 222.323584 
L 239.268294 223.281933 
L 241.642864 223.443918 
L 246.392004 223.12852 
L 248.766574 222.996863 
L 253.515714 223.05597 
L 258.264854 223.126288 
L 263.013994 222.753076 
L 265.388564 222.444413 
L 267.763134 221.999647 
L 274.886844 220.070708 
L 277.261414 220.130798 
L 289.134264 221.936393 
L 291.508834 222.173147 
L 293.883404 222.123106 
L 298.632544 221.40731 
L 301.007114 221.29736 
L 305.756254 221.799914 
L 308.130824 221.845946 
L 312.879964 221.554266 
L 315.254534 221.857475 
L 317.629104 222.59504 
L 320.003674 223.461427 
L 322.378244 224.203604 
L 324.752814 224.748405 
L 327.127384 225.106655 
L 331.876524 225.45115 
L 346.123944 226.170682 
L 350.873084 225.883783 
L 357.996794 225.194639 
L 362.745934 224.981995 
L 369.869644 225.024957 
L 381.742494 224.2501 
L 386.491634 223.99295 
L 391.240774 224.170849 
L 393.615344 224.291771 
L 395.989914 224.300235 
L 399.658594 224.072518 
L 399.658594 224.072518 
" clip-path="url(#p309cc646c1)" style="fill: none; stroke: #808080; stroke-opacity: 0.5; stroke-width: 0.5; stroke-linecap: square"/>
   </g>
   <g id="line2d_46">
    <path d="M 46.928125 197.763466 
L 49.302695 199.026021 
L 51.677265 199.488333 
L 56.426405 199.220261 
L 58.800975 199.421893 
L 61.175545 200.101924 
L 65.924685 202.216764 
L 68.299255 202.816816 
L 70.673825 202.725024 
L 73.048395 202.10479 
L 75.422965 201.630472 
L 77.797535 201.92732 
L 80.172105 203.057956 
L 82.546675 204.673447 
L 84.921245 206.039674 
L 87.295815 206.544039 
L 89.670385 206.113991 
L 94.419525 204.196131 
L 96.794095 203.702963 
L 101.543235 203.688431 
L 103.917805 203.356522 
L 106.292375 202.781706 
L 108.666945 202.418102 
L 111.041515 202.60107 
L 120.539795 204.763058 
L 125.288935 205.35869 
L 127.663505 205.854734 
L 132.412645 207.304054 
L 139.536355 209.236067 
L 141.910925 210.197005 
L 149.034635 213.504144 
L 151.409205 214.229597 
L 153.783775 214.545887 
L 158.532915 214.578579 
L 160.907485 214.934232 
L 165.656625 216.050272 
L 168.031195 216.343045 
L 172.780335 216.495517 
L 175.154905 216.494271 
L 177.529475 216.379276 
L 184.653185 215.461888 
L 187.027755 215.511761 
L 194.151465 216.280475 
L 196.526035 216.132685 
L 201.275175 215.557979 
L 203.649745 215.423806 
L 206.024314 215.407528 
L 208.398884 215.589871 
L 210.773454 216.04314 
L 215.522594 217.548042 
L 217.897164 218.271932 
L 220.271734 218.756621 
L 222.646304 218.922935 
L 229.770014 218.722609 
L 232.144584 219.038715 
L 239.268294 220.75573 
L 244.017434 221.936643 
L 246.392004 222.374128 
L 248.766574 222.644455 
L 255.890284 223.019767 
L 260.639424 223.094747 
L 272.512274 222.880841 
L 277.261414 222.412635 
L 282.010554 221.867994 
L 284.385124 221.778788 
L 289.134264 222.057455 
L 293.883404 222.407628 
L 298.632544 222.389075 
L 303.381684 222.391798 
L 308.130824 222.556744 
L 317.629104 222.606474 
L 334.251094 224.111234 
L 341.374804 225.06626 
L 343.749374 225.243468 
L 346.123944 225.280377 
L 350.873084 225.040192 
L 355.622224 224.78776 
L 360.371364 224.84282 
L 367.495074 225.172027 
L 372.244214 225.157648 
L 388.866204 224.592131 
L 393.615344 224.48423 
L 398.364484 224.19215 
L 399.658594 224.062221 
L 399.658594 224.062221 
" clip-path="url(#p309cc646c1)" style="fill: none; stroke: #000000; stroke-width: 1.5; stroke-linecap: square"/>
   </g>
   <g id="line2d_47">
    <defs>
     <path id="m68963ff5a2" d="M 0 2.5 
C 0.663008 2.5 1.29895 2.236584 1.767767 1.767767 
C 2.236584 1.29895 2.5 0.663008 2.5 0 
C 2.5 -0.663008 2.236584 -1.29895 1.767767 -1.767767 
C 1.29895 -2.236584 0.663008 -2.5 0 -2.5 
C -0.663008 -2.5 -1.29895 -2.236584 -1.767767 -1.767767 
C -2.236584 -1.29895 -2.5 -0.663008 -2.5 0 
C -2.5 0.663008 -2.236584 1.29895 -1.767767 1.767767 
C -1.29895 2.236584 -0.663008 2.5 0 2.5 
z
" style="stroke: #ffffff; stroke-width: 0.5"/>
    </defs>
    <g clip-path="url(#p309cc646c1)">
     <use xlink:href="#m68963ff5a2" x="46.928125" y="197.763466" style="fill: #ff0000; stroke: #ffffff; stroke-width: 0.5"/>
    </g>
   </g>
   <g id="patch_3">
    <path d="M 46.928125 228.96 
L 46.928125 7.2 
" style="fill: none; stroke: #000000; stroke-width: 0.8; stroke-linejoin: miter; stroke-linecap: square"/>
   </g>
   <g id="patch_4">
    <path d="M 46.928125 228.96 
L 381.728125 228.96 
" style="fill: none; stroke: #000000; stroke-width: 0.8; stroke-linejoin: miter; stroke-linecap: square"/>
   </g>
  </g>
 </g>
 <defs>
  <clipPath id="p309cc646c1">
   <rect x="46.928125" y="7.2" width="334.8" height="221.76"/>
  </clipPath>
 </defs>
</svg>
