<?xml version="1.0" encoding="utf-8" standalone="no"?>
<!DOCTYPE svg PUBLIC "-//W3C//DTD SVG 1.1//EN"
  "http://www.w3.org/Graphics/SVG/1.1/DTD/svg11.dtd">
<svg xmlns:xlink="http://www.w3.org/1999/xlink" width="393.097656pt" height="265.689687pt" viewBox="0 0 393.097656 265.689687" xmlns="http://www.w3.org/2000/svg" version="1.1">
 <metadata>
  <rdf:RDF xmlns:dc="http://purl.org/dc/elements/1.1/" xmlns:cc="http://creativecommons.org/ns#" xmlns:rdf="http://www.w3.org/1999/02/22-rdf-syntax-ns#">
   <cc:Work>
    <dc:type rdf:resource="http://purl.org/dc/dcmitype/StillImage"/>
    <dc:date>2024-09-14T12:48:52.318244</dc:date>
    <dc:format>image/svg+xml</dc:format>
    <dc:creator>
     <cc:Agent>
      <dc:title>Matplotlib v3.9.2, https://matplotlib.org/</dc:title>
     </cc:Agent>
    </dc:creator>
   </cc:Work>
  </rdf:RDF>
 </metadata>
 <defs>
  <style type="text/css">*{stroke-linejoin: round; stroke-linecap: butt}</style>
 </defs>
 <g id="figure_1">
  <g id="patch_1">
   <path d="M 0 265.689687 
L 393.097656 265.689687 
L 393.097656 0 
L 0 0 
z
" style="fill: #ffffff"/>
  </g>
  <g id="axes_1">
   <g id="patch_2">
    <path d="M 41.367188 228.96 
L 376.167188 228.96 
L 376.167188 7.2 
L 41.367188 7.2 
z
" style="fill: #ffffff"/>
   </g>
   <g id="PolyCollection_1">
    <path d="M 41.367188 112.084128 
L 41.367188 198.745685 
L 43.741757 202.418124 
L 46.116327 204.919577 
L 48.490897 205.160284 
L 50.865467 203.041392 
L 53.240037 199.344107 
L 55.614607 195.163421 
L 57.989177 192.168722 
L 60.363747 192.21182 
L 62.738317 195.457609 
L 65.112887 199.098902 
L 67.487457 199.465179 
L 69.862027 195.720693 
L 72.236597 189.246566 
L 74.611167 183.133391 
L 76.985737 181.115816 
L 79.360307 182.327769 
L 81.734877 184.52472 
L 84.109447 185.693576 
L 86.484017 184.931015 
L 88.858587 183.288163 
L 91.233157 182.517946 
L 93.607727 182.69237 
L 95.982297 182.469829 
L 98.356867 180.696097 
L 100.731437 178.532855 
L 103.106007 177.947882 
L 105.480577 179.201854 
L 107.855147 181.267691 
L 110.229717 182.857598 
L 112.604287 182.555139 
L 114.978857 179.870576 
L 117.353427 177.101121 
L 119.727997 177.619358 
L 122.102567 181.084026 
L 124.477137 185.210499 
L 126.851707 189.20007 
L 129.226277 191.981121 
L 131.600847 192.897839 
L 133.975417 193.39597 
L 136.349987 195.139863 
L 138.724557 197.534101 
L 141.099127 199.864217 
L 143.473697 201.543303 
L 145.848267 201.815455 
L 148.222837 200.57825 
L 150.597407 198.279284 
L 152.971977 195.551582 
L 155.346547 192.242716 
L 157.721117 187.853269 
L 160.095687 183.238709 
L 162.470257 180.900849 
L 164.844827 181.324415 
L 167.219397 181.366813 
L 169.593967 178.789227 
L 171.968537 173.501429 
L 174.343107 168.202424 
L 176.717677 171.268976 
L 179.092247 177.858701 
L 181.466817 183.151439 
L 183.841387 187.328949 
L 186.215957 189.176323 
L 188.590527 187.937621 
L 190.965097 185.783375 
L 193.339667 185.65893 
L 195.714237 185.555051 
L 198.088807 183.953589 
L 200.463377 181.190095 
L 202.837947 178.880868 
L 205.212517 179.049379 
L 207.587087 181.637951 
L 209.961657 184.237914 
L 212.336227 188.628013 
L 214.710797 194.816974 
L 217.085367 199.783452 
L 219.459937 202.595331 
L 221.834507 203.498494 
L 224.209077 203.12435 
L 226.583647 202.094189 
L 228.958217 200.91256 
L 231.332787 200.509124 
L 233.707357 201.310092 
L 236.081927 202.732974 
L 238.456497 204.35946 
L 240.831067 206.055633 
L 243.205637 207.863333 
L 245.580207 209.736866 
L 247.954777 211.527573 
L 250.329347 213.072545 
L 252.703917 214.212562 
L 255.078487 214.860182 
L 257.453057 214.996413 
L 259.827627 214.582222 
L 262.202197 213.533942 
L 264.576767 211.811192 
L 266.951337 209.85905 
L 269.325907 208.597534 
L 271.700477 207.989539 
L 274.075047 207.171369 
L 276.449617 205.971587 
L 278.824187 204.991747 
L 281.198757 204.806197 
L 283.573327 205.171206 
L 285.947897 205.34013 
L 288.322467 204.992509 
L 290.697037 204.319243 
L 293.071607 203.653334 
L 295.446177 203.297464 
L 297.820747 203.638576 
L 300.195317 205.149887 
L 302.569887 207.319007 
L 304.944457 209.107725 
L 307.319027 210.099398 
L 309.693597 210.374475 
L 312.068167 210.308215 
L 314.442737 210.468976 
L 316.817307 211.00174 
L 319.191877 211.410743 
L 321.566447 211.422572 
L 323.941017 211.337159 
L 326.315587 211.603899 
L 328.690157 212.203755 
L 331.064727 212.66703 
L 333.439297 212.806864 
L 335.813867 212.786427 
L 338.188437 212.475011 
L 340.563007 211.516233 
L 342.937577 209.969276 
L 345.312147 208.652231 
L 347.686717 208.364392 
L 350.061287 208.756277 
L 352.435857 209.479698 
L 354.810427 210.432324 
L 357.184997 211.277771 
L 359.559566 211.85264 
L 361.934136 212.214801 
L 364.308706 212.612264 
L 366.683276 213.419197 
L 369.057846 214.515862 
L 371.432416 215.328915 
L 373.806986 215.628047 
L 376.181556 215.612825 
L 378.556126 215.550548 
L 380.930696 215.440909 
L 383.305266 215.315793 
L 385.679836 215.243535 
L 388.054406 215.326492 
L 390.428976 215.744587 
L 392.803546 216.272896 
L 395.178116 216.535206 
L 397.552686 216.497468 
L 399.927256 216.449647 
L 402.301826 216.838848 
L 404.676396 217.55092 
L 407.050966 218.115705 
L 409.425536 218.414312 
L 411.800106 218.51636 
L 414.174676 218.537147 
L 416.549246 218.512833 
L 418.923816 218.390355 
L 421.298386 218.177965 
L 423.672956 217.970038 
L 426.047526 217.87275 
L 428.422096 217.889704 
L 430.796666 217.922746 
L 433.171236 217.894853 
L 435.545806 217.787018 
L 437.920376 217.636866 
L 440.294946 217.515766 
L 442.669516 217.390177 
L 445.044086 217.194542 
L 447.418656 217.074213 
L 449.793226 217.335024 
L 452.167796 217.957253 
L 454.542366 218.572495 
L 456.916936 218.912355 
L 459.291506 218.938084 
L 461.666076 218.760296 
L 464.040646 218.504025 
L 466.415216 218.215418 
L 468.789786 217.868348 
L 471.164356 217.445306 
L 473.538926 216.989105 
L 475.913496 216.563911 
L 478.288066 216.241127 
L 480.662636 216.09905 
L 483.037206 216.171189 
L 485.411776 216.414414 
L 487.786346 216.697548 
L 490.160916 216.852665 
L 492.535486 216.797482 
L 494.910056 216.63449 
L 497.284626 216.634979 
L 499.659196 216.773693 
L 502.033766 216.595557 
L 504.408336 215.753351 
L 506.782906 214.286646 
L 509.157476 212.858809 
L 511.532046 211.750013 
L 513.906616 210.680224 
L 513.906616 203.35935 
L 513.906616 203.35935 
L 511.532046 205.188742 
L 509.157476 207.704002 
L 506.782906 209.957361 
L 504.408336 211.2314 
L 502.033766 211.900073 
L 499.659196 212.018369 
L 497.284626 211.433448 
L 494.910056 210.189145 
L 492.535486 209.094194 
L 490.160916 208.948193 
L 487.786346 209.444211 
L 485.411776 209.957029 
L 483.037206 210.301041 
L 480.662636 210.631584 
L 478.288066 211.116418 
L 475.913496 211.768589 
L 473.538926 212.499925 
L 471.164356 213.186052 
L 468.789786 213.716511 
L 466.415216 214.065625 
L 464.040646 214.303682 
L 461.666076 214.53613 
L 459.291506 214.78937 
L 456.916936 214.976033 
L 454.542366 214.995396 
L 452.167796 214.816298 
L 449.793226 214.469316 
L 447.418656 213.979718 
L 445.044086 213.547688 
L 442.669516 213.540722 
L 440.294946 213.966551 
L 437.920376 214.384193 
L 435.545806 214.537598 
L 433.171236 214.556018 
L 430.796666 214.617133 
L 428.422096 214.803985 
L 426.047526 215.044271 
L 423.672956 215.193888 
L 421.298386 215.191526 
L 418.923816 215.105633 
L 416.549246 215.129866 
L 414.174676 215.412212 
L 411.800106 215.820241 
L 409.425536 216.090986 
L 407.050966 216.070021 
L 404.676396 215.830482 
L 402.301826 215.542468 
L 399.927256 215.051891 
L 397.552686 214.318976 
L 395.178116 213.643661 
L 392.803546 213.191383 
L 390.428976 213.001467 
L 388.054406 212.927721 
L 385.679836 212.896477 
L 383.305266 213.021139 
L 380.930696 213.213396 
L 378.556126 213.300453 
L 376.181556 213.045132 
L 373.806986 212.249249 
L 371.432416 211.20713 
L 369.057846 210.394703 
L 366.683276 209.821212 
L 364.308706 209.0755 
L 361.934136 208.27627 
L 359.559566 207.878726 
L 357.184997 207.868288 
L 354.810427 207.906876 
L 352.435857 207.613991 
L 350.061287 206.789456 
L 347.686717 205.814963 
L 345.312147 204.884976 
L 342.937577 203.739948 
L 340.563007 202.767726 
L 338.188437 202.37956 
L 335.813867 202.50197 
L 333.439297 202.725373 
L 331.064727 202.636878 
L 328.690157 202.091535 
L 326.315587 201.220624 
L 323.941017 200.586941 
L 321.566447 200.740796 
L 319.191877 201.469851 
L 316.817307 201.968288 
L 314.442737 201.354269 
L 312.068167 199.175097 
L 309.693597 195.910355 
L 307.319027 192.479266 
L 304.944457 189.620953 
L 302.569887 187.753043 
L 300.195317 186.643933 
L 297.820747 185.574961 
L 295.446177 184.208217 
L 293.071607 182.182498 
L 290.697037 178.854552 
L 288.322467 174.865779 
L 285.947897 172.096788 
L 283.573327 171.917205 
L 281.198757 174.394097 
L 278.824187 179.072972 
L 276.449617 185.208522 
L 274.075047 191.149443 
L 271.700477 195.324439 
L 269.325907 197.523334 
L 266.951337 198.285533 
L 264.576767 198.401194 
L 262.202197 198.179692 
L 259.827627 196.866703 
L 257.453057 193.910002 
L 255.078487 189.679745 
L 252.703917 184.869671 
L 250.329347 179.792646 
L 247.954777 174.260204 
L 245.580207 168.429763 
L 243.205637 163.519776 
L 240.831067 161.584834 
L 238.456497 164.536664 
L 236.081927 171.721749 
L 233.707357 179.662145 
L 231.332787 185.149584 
L 228.958217 186.170702 
L 226.583647 182.356479 
L 224.209077 174.21365 
L 221.834507 163.82097 
L 219.459937 157.380982 
L 217.085367 159.451435 
L 214.710797 166.41391 
L 212.336227 172.532136 
L 209.961657 173.646014 
L 207.587087 170.253237 
L 205.212517 164.652169 
L 202.837947 156.84024 
L 200.463377 151.158827 
L 198.088807 152.068254 
L 195.714237 158.354173 
L 193.339667 164.912456 
L 190.965097 167.039987 
L 188.590527 162.065019 
L 186.215957 155.634981 
L 183.841387 153.385006 
L 181.466817 153.013535 
L 179.092247 152.36918 
L 176.717677 153.855313 
L 174.343107 152.966483 
L 171.968537 143.991104 
L 169.593967 137.160464 
L 167.219397 137.25828 
L 164.844827 142.265008 
L 162.470257 147.02346 
L 160.095687 148.54637 
L 157.721117 149.636455 
L 155.346547 153.433549 
L 152.971977 157.093475 
L 150.597407 155.880293 
L 148.222837 149.99603 
L 145.848267 145.918915 
L 143.473697 148.748867 
L 141.099127 155.731526 
L 138.724557 161.479423 
L 136.349987 164.404014 
L 133.975417 163.315167 
L 131.600847 157.012675 
L 129.226277 150.012921 
L 126.851707 149.36117 
L 124.477137 153.490621 
L 122.102567 155.985158 
L 119.727997 153.090413 
L 117.353427 142.167118 
L 114.978857 125.458349 
L 112.604287 111.841669 
L 110.229717 106.253754 
L 107.855147 102.393836 
L 105.480577 95.478755 
L 103.106007 91.160522 
L 100.731437 97.151228 
L 98.356867 112.538423 
L 95.982297 129.700611 
L 93.607727 141.026732 
L 91.233157 142.229394 
L 88.858587 134.018085 
L 86.484017 119.718438 
L 84.109447 104.840108 
L 81.734877 98.438292 
L 79.360307 106.023609 
L 76.985737 121.048894 
L 74.611167 134.131169 
L 72.236597 139.009167 
L 69.862027 138.875444 
L 67.487457 137.177767 
L 65.112887 134.759822 
L 62.738317 132.795235 
L 60.363747 132.743306 
L 57.989177 134.927907 
L 55.614607 136.910454 
L 53.240037 138.264507 
L 50.865467 138.363188 
L 48.490897 134.831376 
L 46.116327 127.44776 
L 43.741757 118.579194 
L 41.367188 112.084128 
z
" clip-path="url(#p7be5f15928)" style="fill: #808080; fill-opacity: 0.5; stroke: #808080; stroke-opacity: 0.5"/>
   </g>
   <g id="matplotlib.axis_1">
    <g id="xtick_1">
     <g id="line2d_1">
      <defs>
       <path id="mbb4a42888c" d="M 0 0 
L 0 3.5 
" style="stroke: #000000; stroke-width: 0.8"/>
      </defs>
      <g>
       <use xlink:href="#mbb4a42888c" x="179.106616" y="228.96" style="stroke: #000000; stroke-width: 0.8"/>
      </g>
     </g>
     <g id="text_1">
      <!-- 1.0 -->
      <g transform="translate(172.156616 243.117812) scale(0.1 -0.1)">
       <defs>
        <path id="ArialMT-31" d="M 2384 0 
L 1822 0 
L 1822 3584 
Q 1619 3391 1289 3197 
Q 959 3003 697 2906 
L 697 3450 
Q 1169 3672 1522 3987 
Q 1875 4303 2022 4600 
L 2384 4600 
L 2384 0 
z
" transform="scale(0.015625)"/>
        <path id="ArialMT-2e" d="M 581 0 
L 581 641 
L 1222 641 
L 1222 0 
L 581 0 
z
" transform="scale(0.015625)"/>
        <path id="ArialMT-30" d="M 266 2259 
Q 266 3072 433 3567 
Q 600 4063 929 4331 
Q 1259 4600 1759 4600 
Q 2128 4600 2406 4451 
Q 2684 4303 2865 4023 
Q 3047 3744 3150 3342 
Q 3253 2941 3253 2259 
Q 3253 1453 3087 958 
Q 2922 463 2592 192 
Q 2263 -78 1759 -78 
Q 1097 -78 719 397 
Q 266 969 266 2259 
z
M 844 2259 
Q 844 1131 1108 757 
Q 1372 384 1759 384 
Q 2147 384 2411 759 
Q 2675 1134 2675 2259 
Q 2675 3391 2411 3762 
Q 2147 4134 1753 4134 
Q 1366 4134 1134 3806 
Q 844 3388 844 2259 
z
" transform="scale(0.015625)"/>
       </defs>
       <use xlink:href="#ArialMT-31"/>
       <use xlink:href="#ArialMT-2e" x="55.615234"/>
       <use xlink:href="#ArialMT-30" x="83.398438"/>
      </g>
     </g>
    </g>
    <g id="xtick_2">
     <g id="line2d_2">
      <g>
       <use xlink:href="#mbb4a42888c" x="376.167188" y="228.96" style="stroke: #000000; stroke-width: 0.8"/>
      </g>
     </g>
     <g id="text_2">
      <!-- 10.0 -->
      <g transform="translate(366.436719 243.117812) scale(0.1 -0.1)">
       <use xlink:href="#ArialMT-31"/>
       <use xlink:href="#ArialMT-30" x="55.615234"/>
       <use xlink:href="#ArialMT-2e" x="111.230469"/>
       <use xlink:href="#ArialMT-30" x="139.013672"/>
      </g>
     </g>
    </g>
    <g id="xtick_3">
     <g id="line2d_3">
      <defs>
       <path id="m5721098c0b" d="M 0 0 
L 0 2 
" style="stroke: #000000; stroke-width: 0.6"/>
      </defs>
      <g>
       <use xlink:href="#m5721098c0b" x="41.367188" y="228.96" style="stroke: #000000; stroke-width: 0.6"/>
      </g>
     </g>
    </g>
    <g id="xtick_4">
     <g id="line2d_4">
      <g>
       <use xlink:href="#m5721098c0b" x="76.067832" y="228.96" style="stroke: #000000; stroke-width: 0.6"/>
      </g>
     </g>
    </g>
    <g id="xtick_5">
     <g id="line2d_5">
      <g>
       <use xlink:href="#m5721098c0b" x="100.68833" y="228.96" style="stroke: #000000; stroke-width: 0.6"/>
      </g>
     </g>
    </g>
    <g id="xtick_6">
     <g id="line2d_6">
      <g>
       <use xlink:href="#m5721098c0b" x="119.785473" y="228.96" style="stroke: #000000; stroke-width: 0.6"/>
      </g>
     </g>
    </g>
    <g id="xtick_7">
     <g id="line2d_7">
      <g>
       <use xlink:href="#m5721098c0b" x="135.388975" y="228.96" style="stroke: #000000; stroke-width: 0.6"/>
      </g>
     </g>
    </g>
    <g id="xtick_8">
     <g id="line2d_8">
      <g>
       <use xlink:href="#m5721098c0b" x="148.581547" y="228.96" style="stroke: #000000; stroke-width: 0.6"/>
      </g>
     </g>
    </g>
    <g id="xtick_9">
     <g id="line2d_9">
      <g>
       <use xlink:href="#m5721098c0b" x="160.009473" y="228.96" style="stroke: #000000; stroke-width: 0.6"/>
      </g>
     </g>
    </g>
    <g id="xtick_10">
     <g id="line2d_10">
      <g>
       <use xlink:href="#m5721098c0b" x="170.089619" y="228.96" style="stroke: #000000; stroke-width: 0.6"/>
      </g>
     </g>
    </g>
    <g id="xtick_11">
     <g id="line2d_11">
      <g>
       <use xlink:href="#m5721098c0b" x="238.427759" y="228.96" style="stroke: #000000; stroke-width: 0.6"/>
      </g>
     </g>
    </g>
    <g id="xtick_12">
     <g id="line2d_12">
      <g>
       <use xlink:href="#m5721098c0b" x="273.128403" y="228.96" style="stroke: #000000; stroke-width: 0.6"/>
      </g>
     </g>
    </g>
    <g id="xtick_13">
     <g id="line2d_13">
      <g>
       <use xlink:href="#m5721098c0b" x="297.748902" y="228.96" style="stroke: #000000; stroke-width: 0.6"/>
      </g>
     </g>
    </g>
    <g id="xtick_14">
     <g id="line2d_14">
      <g>
       <use xlink:href="#m5721098c0b" x="316.846045" y="228.96" style="stroke: #000000; stroke-width: 0.6"/>
      </g>
     </g>
    </g>
    <g id="xtick_15">
     <g id="line2d_15">
      <g>
       <use xlink:href="#m5721098c0b" x="332.449546" y="228.96" style="stroke: #000000; stroke-width: 0.6"/>
      </g>
     </g>
    </g>
    <g id="xtick_16">
     <g id="line2d_16">
      <g>
       <use xlink:href="#m5721098c0b" x="345.642119" y="228.96" style="stroke: #000000; stroke-width: 0.6"/>
      </g>
     </g>
    </g>
    <g id="xtick_17">
     <g id="line2d_17">
      <g>
       <use xlink:href="#m5721098c0b" x="357.070045" y="228.96" style="stroke: #000000; stroke-width: 0.6"/>
      </g>
     </g>
    </g>
    <g id="xtick_18">
     <g id="line2d_18">
      <g>
       <use xlink:href="#m5721098c0b" x="367.15019" y="228.96" style="stroke: #000000; stroke-width: 0.6"/>
      </g>
     </g>
    </g>
    <g id="text_3">
     <!-- Frequency (Hz) -->
     <g transform="translate(174.316406 256.385) scale(0.1 -0.1)">
      <defs>
       <path id="ArialMT-46" d="M 525 0 
L 525 4581 
L 3616 4581 
L 3616 4041 
L 1131 4041 
L 1131 2622 
L 3281 2622 
L 3281 2081 
L 1131 2081 
L 1131 0 
L 525 0 
z
" transform="scale(0.015625)"/>
       <path id="ArialMT-72" d="M 416 0 
L 416 3319 
L 922 3319 
L 922 2816 
Q 1116 3169 1280 3281 
Q 1444 3394 1641 3394 
Q 1925 3394 2219 3213 
L 2025 2691 
Q 1819 2813 1613 2813 
Q 1428 2813 1281 2702 
Q 1134 2591 1072 2394 
Q 978 2094 978 1738 
L 978 0 
L 416 0 
z
" transform="scale(0.015625)"/>
       <path id="ArialMT-65" d="M 2694 1069 
L 3275 997 
Q 3138 488 2766 206 
Q 2394 -75 1816 -75 
Q 1088 -75 661 373 
Q 234 822 234 1631 
Q 234 2469 665 2931 
Q 1097 3394 1784 3394 
Q 2450 3394 2872 2941 
Q 3294 2488 3294 1666 
Q 3294 1616 3291 1516 
L 816 1516 
Q 847 969 1125 678 
Q 1403 388 1819 388 
Q 2128 388 2347 550 
Q 2566 713 2694 1069 
z
M 847 1978 
L 2700 1978 
Q 2663 2397 2488 2606 
Q 2219 2931 1791 2931 
Q 1403 2931 1139 2672 
Q 875 2413 847 1978 
z
" transform="scale(0.015625)"/>
       <path id="ArialMT-71" d="M 2538 -1272 
L 2538 353 
Q 2406 169 2170 47 
Q 1934 -75 1669 -75 
Q 1078 -75 651 397 
Q 225 869 225 1691 
Q 225 2191 398 2587 
Q 572 2984 901 3189 
Q 1231 3394 1625 3394 
Q 2241 3394 2594 2875 
L 2594 3319 
L 3100 3319 
L 3100 -1272 
L 2538 -1272 
z
M 803 1669 
Q 803 1028 1072 708 
Q 1341 388 1716 388 
Q 2075 388 2334 692 
Q 2594 997 2594 1619 
Q 2594 2281 2320 2615 
Q 2047 2950 1678 2950 
Q 1313 2950 1058 2639 
Q 803 2328 803 1669 
z
" transform="scale(0.015625)"/>
       <path id="ArialMT-75" d="M 2597 0 
L 2597 488 
Q 2209 -75 1544 -75 
Q 1250 -75 995 37 
Q 741 150 617 320 
Q 494 491 444 738 
Q 409 903 409 1263 
L 409 3319 
L 972 3319 
L 972 1478 
Q 972 1038 1006 884 
Q 1059 663 1231 536 
Q 1403 409 1656 409 
Q 1909 409 2131 539 
Q 2353 669 2445 892 
Q 2538 1116 2538 1541 
L 2538 3319 
L 3100 3319 
L 3100 0 
L 2597 0 
z
" transform="scale(0.015625)"/>
       <path id="ArialMT-6e" d="M 422 0 
L 422 3319 
L 928 3319 
L 928 2847 
Q 1294 3394 1984 3394 
Q 2284 3394 2536 3286 
Q 2788 3178 2913 3003 
Q 3038 2828 3088 2588 
Q 3119 2431 3119 2041 
L 3119 0 
L 2556 0 
L 2556 2019 
Q 2556 2363 2490 2533 
Q 2425 2703 2258 2804 
Q 2091 2906 1866 2906 
Q 1506 2906 1245 2678 
Q 984 2450 984 1813 
L 984 0 
L 422 0 
z
" transform="scale(0.015625)"/>
       <path id="ArialMT-63" d="M 2588 1216 
L 3141 1144 
Q 3050 572 2676 248 
Q 2303 -75 1759 -75 
Q 1078 -75 664 370 
Q 250 816 250 1647 
Q 250 2184 428 2587 
Q 606 2991 970 3192 
Q 1334 3394 1763 3394 
Q 2303 3394 2647 3120 
Q 2991 2847 3088 2344 
L 2541 2259 
Q 2463 2594 2264 2762 
Q 2066 2931 1784 2931 
Q 1359 2931 1093 2626 
Q 828 2322 828 1663 
Q 828 994 1084 691 
Q 1341 388 1753 388 
Q 2084 388 2306 591 
Q 2528 794 2588 1216 
z
" transform="scale(0.015625)"/>
       <path id="ArialMT-79" d="M 397 -1278 
L 334 -750 
Q 519 -800 656 -800 
Q 844 -800 956 -737 
Q 1069 -675 1141 -563 
Q 1194 -478 1313 -144 
Q 1328 -97 1363 -6 
L 103 3319 
L 709 3319 
L 1400 1397 
Q 1534 1031 1641 628 
Q 1738 1016 1872 1384 
L 2581 3319 
L 3144 3319 
L 1881 -56 
Q 1678 -603 1566 -809 
Q 1416 -1088 1222 -1217 
Q 1028 -1347 759 -1347 
Q 597 -1347 397 -1278 
z
" transform="scale(0.015625)"/>
       <path id="ArialMT-20" transform="scale(0.015625)"/>
       <path id="ArialMT-28" d="M 1497 -1347 
Q 1031 -759 709 28 
Q 388 816 388 1659 
Q 388 2403 628 3084 
Q 909 3875 1497 4659 
L 1900 4659 
Q 1522 4009 1400 3731 
Q 1209 3300 1100 2831 
Q 966 2247 966 1656 
Q 966 153 1900 -1347 
L 1497 -1347 
z
" transform="scale(0.015625)"/>
       <path id="ArialMT-48" d="M 513 0 
L 513 4581 
L 1119 4581 
L 1119 2700 
L 3500 2700 
L 3500 4581 
L 4106 4581 
L 4106 0 
L 3500 0 
L 3500 2159 
L 1119 2159 
L 1119 0 
L 513 0 
z
" transform="scale(0.015625)"/>
       <path id="ArialMT-7a" d="M 125 0 
L 125 456 
L 2238 2881 
Q 1878 2863 1603 2863 
L 250 2863 
L 250 3319 
L 2963 3319 
L 2963 2947 
L 1166 841 
L 819 456 
Q 1197 484 1528 484 
L 3063 484 
L 3063 0 
L 125 0 
z
" transform="scale(0.015625)"/>
       <path id="ArialMT-29" d="M 791 -1347 
L 388 -1347 
Q 1322 153 1322 1656 
Q 1322 2244 1188 2822 
Q 1081 3291 891 3722 
Q 769 4003 388 4659 
L 791 4659 
Q 1378 3875 1659 3084 
Q 1900 2403 1900 1659 
Q 1900 816 1576 28 
Q 1253 -759 791 -1347 
z
" transform="scale(0.015625)"/>
      </defs>
      <use xlink:href="#ArialMT-46"/>
      <use xlink:href="#ArialMT-72" x="61.083984"/>
      <use xlink:href="#ArialMT-65" x="94.384766"/>
      <use xlink:href="#ArialMT-71" x="150"/>
      <use xlink:href="#ArialMT-75" x="205.615234"/>
      <use xlink:href="#ArialMT-65" x="261.230469"/>
      <use xlink:href="#ArialMT-6e" x="316.845703"/>
      <use xlink:href="#ArialMT-63" x="372.460938"/>
      <use xlink:href="#ArialMT-79" x="422.460938"/>
      <use xlink:href="#ArialMT-20" x="472.460938"/>
      <use xlink:href="#ArialMT-28" x="500.244141"/>
      <use xlink:href="#ArialMT-48" x="533.544922"/>
      <use xlink:href="#ArialMT-7a" x="605.761719"/>
      <use xlink:href="#ArialMT-29" x="655.761719"/>
     </g>
    </g>
   </g>
   <g id="matplotlib.axis_2">
    <g id="ytick_1">
     <g id="line2d_19">
      <defs>
       <path id="mb559ed1642" d="M 0 0 
L -3.5 0 
" style="stroke: #000000; stroke-width: 0.8"/>
      </defs>
      <g>
       <use xlink:href="#mb559ed1642" x="41.367188" y="228.96" style="stroke: #000000; stroke-width: 0.8"/>
      </g>
     </g>
     <g id="text_4">
      <!-- 0.0 -->
      <g transform="translate(20.467188 232.538906) scale(0.1 -0.1)">
       <use xlink:href="#ArialMT-30"/>
       <use xlink:href="#ArialMT-2e" x="55.615234"/>
       <use xlink:href="#ArialMT-30" x="83.398438"/>
      </g>
     </g>
    </g>
    <g id="ytick_2">
     <g id="line2d_20">
      <g>
       <use xlink:href="#mb559ed1642" x="41.367188" y="198.509429" style="stroke: #000000; stroke-width: 0.8"/>
      </g>
     </g>
     <g id="text_5">
      <!-- 1.0 -->
      <g transform="translate(20.467188 202.088335) scale(0.1 -0.1)">
       <use xlink:href="#ArialMT-31"/>
       <use xlink:href="#ArialMT-2e" x="55.615234"/>
       <use xlink:href="#ArialMT-30" x="83.398438"/>
      </g>
     </g>
    </g>
    <g id="ytick_3">
     <g id="line2d_21">
      <g>
       <use xlink:href="#mb559ed1642" x="41.367188" y="168.058858" style="stroke: #000000; stroke-width: 0.8"/>
      </g>
     </g>
     <g id="text_6">
      <!-- 2.0 -->
      <g transform="translate(20.467188 171.637765) scale(0.1 -0.1)">
       <defs>
        <path id="ArialMT-32" d="M 3222 541 
L 3222 0 
L 194 0 
Q 188 203 259 391 
Q 375 700 629 1000 
Q 884 1300 1366 1694 
Q 2113 2306 2375 2664 
Q 2638 3022 2638 3341 
Q 2638 3675 2398 3904 
Q 2159 4134 1775 4134 
Q 1369 4134 1125 3890 
Q 881 3647 878 3216 
L 300 3275 
Q 359 3922 746 4261 
Q 1134 4600 1788 4600 
Q 2447 4600 2831 4234 
Q 3216 3869 3216 3328 
Q 3216 3053 3103 2787 
Q 2991 2522 2730 2228 
Q 2469 1934 1863 1422 
Q 1356 997 1212 845 
Q 1069 694 975 541 
L 3222 541 
z
" transform="scale(0.015625)"/>
       </defs>
       <use xlink:href="#ArialMT-32"/>
       <use xlink:href="#ArialMT-2e" x="55.615234"/>
       <use xlink:href="#ArialMT-30" x="83.398438"/>
      </g>
     </g>
    </g>
    <g id="ytick_4">
     <g id="line2d_22">
      <g>
       <use xlink:href="#mb559ed1642" x="41.367188" y="137.608288" style="stroke: #000000; stroke-width: 0.8"/>
      </g>
     </g>
     <g id="text_7">
      <!-- 3.0 -->
      <g transform="translate(20.467188 141.187194) scale(0.1 -0.1)">
       <defs>
        <path id="ArialMT-33" d="M 269 1209 
L 831 1284 
Q 928 806 1161 595 
Q 1394 384 1728 384 
Q 2125 384 2398 659 
Q 2672 934 2672 1341 
Q 2672 1728 2419 1979 
Q 2166 2231 1775 2231 
Q 1616 2231 1378 2169 
L 1441 2663 
Q 1497 2656 1531 2656 
Q 1891 2656 2178 2843 
Q 2466 3031 2466 3422 
Q 2466 3731 2256 3934 
Q 2047 4138 1716 4138 
Q 1388 4138 1169 3931 
Q 950 3725 888 3313 
L 325 3413 
Q 428 3978 793 4289 
Q 1159 4600 1703 4600 
Q 2078 4600 2393 4439 
Q 2709 4278 2876 4000 
Q 3044 3722 3044 3409 
Q 3044 3113 2884 2869 
Q 2725 2625 2413 2481 
Q 2819 2388 3044 2092 
Q 3269 1797 3269 1353 
Q 3269 753 2831 336 
Q 2394 -81 1725 -81 
Q 1122 -81 723 278 
Q 325 638 269 1209 
z
" transform="scale(0.015625)"/>
       </defs>
       <use xlink:href="#ArialMT-33"/>
       <use xlink:href="#ArialMT-2e" x="55.615234"/>
       <use xlink:href="#ArialMT-30" x="83.398438"/>
      </g>
     </g>
    </g>
    <g id="ytick_5">
     <g id="line2d_23">
      <g>
       <use xlink:href="#mb559ed1642" x="41.367188" y="107.157717" style="stroke: #000000; stroke-width: 0.8"/>
      </g>
     </g>
     <g id="text_8">
      <!-- 4.0 -->
      <g transform="translate(20.467188 110.736623) scale(0.1 -0.1)">
       <defs>
        <path id="ArialMT-34" d="M 2069 0 
L 2069 1097 
L 81 1097 
L 81 1613 
L 2172 4581 
L 2631 4581 
L 2631 1613 
L 3250 1613 
L 3250 1097 
L 2631 1097 
L 2631 0 
L 2069 0 
z
M 2069 1613 
L 2069 3678 
L 634 1613 
L 2069 1613 
z
" transform="scale(0.015625)"/>
       </defs>
       <use xlink:href="#ArialMT-34"/>
       <use xlink:href="#ArialMT-2e" x="55.615234"/>
       <use xlink:href="#ArialMT-30" x="83.398438"/>
      </g>
     </g>
    </g>
    <g id="ytick_6">
     <g id="line2d_24">
      <g>
       <use xlink:href="#mb559ed1642" x="41.367188" y="76.707146" style="stroke: #000000; stroke-width: 0.8"/>
      </g>
     </g>
     <g id="text_9">
      <!-- 5.0 -->
      <g transform="translate(20.467188 80.286052) scale(0.1 -0.1)">
       <defs>
        <path id="ArialMT-35" d="M 266 1200 
L 856 1250 
Q 922 819 1161 601 
Q 1400 384 1738 384 
Q 2144 384 2425 690 
Q 2706 997 2706 1503 
Q 2706 1984 2436 2262 
Q 2166 2541 1728 2541 
Q 1456 2541 1237 2417 
Q 1019 2294 894 2097 
L 366 2166 
L 809 4519 
L 3088 4519 
L 3088 3981 
L 1259 3981 
L 1013 2750 
Q 1425 3038 1878 3038 
Q 2478 3038 2890 2622 
Q 3303 2206 3303 1553 
Q 3303 931 2941 478 
Q 2500 -78 1738 -78 
Q 1113 -78 717 272 
Q 322 622 266 1200 
z
" transform="scale(0.015625)"/>
       </defs>
       <use xlink:href="#ArialMT-35"/>
       <use xlink:href="#ArialMT-2e" x="55.615234"/>
       <use xlink:href="#ArialMT-30" x="83.398438"/>
      </g>
     </g>
    </g>
    <g id="ytick_7">
     <g id="line2d_25">
      <g>
       <use xlink:href="#mb559ed1642" x="41.367188" y="46.256575" style="stroke: #000000; stroke-width: 0.8"/>
      </g>
     </g>
     <g id="text_10">
      <!-- 6.0 -->
      <g transform="translate(20.467188 49.835481) scale(0.1 -0.1)">
       <defs>
        <path id="ArialMT-36" d="M 3184 3459 
L 2625 3416 
Q 2550 3747 2413 3897 
Q 2184 4138 1850 4138 
Q 1581 4138 1378 3988 
Q 1113 3794 959 3422 
Q 806 3050 800 2363 
Q 1003 2672 1297 2822 
Q 1591 2972 1913 2972 
Q 2475 2972 2870 2558 
Q 3266 2144 3266 1488 
Q 3266 1056 3080 686 
Q 2894 316 2569 119 
Q 2244 -78 1831 -78 
Q 1128 -78 684 439 
Q 241 956 241 2144 
Q 241 3472 731 4075 
Q 1159 4600 1884 4600 
Q 2425 4600 2770 4297 
Q 3116 3994 3184 3459 
z
M 888 1484 
Q 888 1194 1011 928 
Q 1134 663 1356 523 
Q 1578 384 1822 384 
Q 2178 384 2434 671 
Q 2691 959 2691 1453 
Q 2691 1928 2437 2201 
Q 2184 2475 1800 2475 
Q 1419 2475 1153 2201 
Q 888 1928 888 1484 
z
" transform="scale(0.015625)"/>
       </defs>
       <use xlink:href="#ArialMT-36"/>
       <use xlink:href="#ArialMT-2e" x="55.615234"/>
       <use xlink:href="#ArialMT-30" x="83.398438"/>
      </g>
     </g>
    </g>
    <g id="ytick_8">
     <g id="line2d_26">
      <g>
       <use xlink:href="#mb559ed1642" x="41.367188" y="15.806004" style="stroke: #000000; stroke-width: 0.8"/>
      </g>
     </g>
     <g id="text_11">
      <!-- 7.0 -->
      <g transform="translate(20.467188 19.384911) scale(0.1 -0.1)">
       <defs>
        <path id="ArialMT-37" d="M 303 3981 
L 303 4522 
L 3269 4522 
L 3269 4084 
Q 2831 3619 2401 2847 
Q 1972 2075 1738 1259 
Q 1569 684 1522 0 
L 944 0 
Q 953 541 1156 1306 
Q 1359 2072 1739 2783 
Q 2119 3494 2547 3981 
L 303 3981 
z
" transform="scale(0.015625)"/>
       </defs>
       <use xlink:href="#ArialMT-37"/>
       <use xlink:href="#ArialMT-2e" x="55.615234"/>
       <use xlink:href="#ArialMT-30" x="83.398438"/>
      </g>
     </g>
    </g>
    <g id="text_12">
     <!-- H/V Amplitude -->
     <g transform="translate(14.479688 149.762031) rotate(-90) scale(0.1 -0.1)">
      <defs>
       <path id="ArialMT-2f" d="M 0 -78 
L 1328 4659 
L 1778 4659 
L 453 -78 
L 0 -78 
z
" transform="scale(0.015625)"/>
       <path id="ArialMT-56" d="M 1803 0 
L 28 4581 
L 684 4581 
L 1875 1253 
Q 2019 853 2116 503 
Q 2222 878 2363 1253 
L 3600 4581 
L 4219 4581 
L 2425 0 
L 1803 0 
z
" transform="scale(0.015625)"/>
       <path id="ArialMT-41" d="M -9 0 
L 1750 4581 
L 2403 4581 
L 4278 0 
L 3588 0 
L 3053 1388 
L 1138 1388 
L 634 0 
L -9 0 
z
M 1313 1881 
L 2866 1881 
L 2388 3150 
Q 2169 3728 2063 4100 
Q 1975 3659 1816 3225 
L 1313 1881 
z
" transform="scale(0.015625)"/>
       <path id="ArialMT-6d" d="M 422 0 
L 422 3319 
L 925 3319 
L 925 2853 
Q 1081 3097 1340 3245 
Q 1600 3394 1931 3394 
Q 2300 3394 2536 3241 
Q 2772 3088 2869 2813 
Q 3263 3394 3894 3394 
Q 4388 3394 4653 3120 
Q 4919 2847 4919 2278 
L 4919 0 
L 4359 0 
L 4359 2091 
Q 4359 2428 4304 2576 
Q 4250 2725 4106 2815 
Q 3963 2906 3769 2906 
Q 3419 2906 3187 2673 
Q 2956 2441 2956 1928 
L 2956 0 
L 2394 0 
L 2394 2156 
Q 2394 2531 2256 2718 
Q 2119 2906 1806 2906 
Q 1569 2906 1367 2781 
Q 1166 2656 1075 2415 
Q 984 2175 984 1722 
L 984 0 
L 422 0 
z
" transform="scale(0.015625)"/>
       <path id="ArialMT-70" d="M 422 -1272 
L 422 3319 
L 934 3319 
L 934 2888 
Q 1116 3141 1344 3267 
Q 1572 3394 1897 3394 
Q 2322 3394 2647 3175 
Q 2972 2956 3137 2557 
Q 3303 2159 3303 1684 
Q 3303 1175 3120 767 
Q 2938 359 2589 142 
Q 2241 -75 1856 -75 
Q 1575 -75 1351 44 
Q 1128 163 984 344 
L 984 -1272 
L 422 -1272 
z
M 931 1641 
Q 931 1000 1190 694 
Q 1450 388 1819 388 
Q 2194 388 2461 705 
Q 2728 1022 2728 1688 
Q 2728 2322 2467 2637 
Q 2206 2953 1844 2953 
Q 1484 2953 1207 2617 
Q 931 2281 931 1641 
z
" transform="scale(0.015625)"/>
       <path id="ArialMT-6c" d="M 409 0 
L 409 4581 
L 972 4581 
L 972 0 
L 409 0 
z
" transform="scale(0.015625)"/>
       <path id="ArialMT-69" d="M 425 3934 
L 425 4581 
L 988 4581 
L 988 3934 
L 425 3934 
z
M 425 0 
L 425 3319 
L 988 3319 
L 988 0 
L 425 0 
z
" transform="scale(0.015625)"/>
       <path id="ArialMT-74" d="M 1650 503 
L 1731 6 
Q 1494 -44 1306 -44 
Q 1000 -44 831 53 
Q 663 150 594 308 
Q 525 466 525 972 
L 525 2881 
L 113 2881 
L 113 3319 
L 525 3319 
L 525 4141 
L 1084 4478 
L 1084 3319 
L 1650 3319 
L 1650 2881 
L 1084 2881 
L 1084 941 
Q 1084 700 1114 631 
Q 1144 563 1211 522 
Q 1278 481 1403 481 
Q 1497 481 1650 503 
z
" transform="scale(0.015625)"/>
       <path id="ArialMT-64" d="M 2575 0 
L 2575 419 
Q 2259 -75 1647 -75 
Q 1250 -75 917 144 
Q 584 363 401 755 
Q 219 1147 219 1656 
Q 219 2153 384 2558 
Q 550 2963 881 3178 
Q 1213 3394 1622 3394 
Q 1922 3394 2156 3267 
Q 2391 3141 2538 2938 
L 2538 4581 
L 3097 4581 
L 3097 0 
L 2575 0 
z
M 797 1656 
Q 797 1019 1065 703 
Q 1334 388 1700 388 
Q 2069 388 2326 689 
Q 2584 991 2584 1609 
Q 2584 2291 2321 2609 
Q 2059 2928 1675 2928 
Q 1300 2928 1048 2622 
Q 797 2316 797 1656 
z
" transform="scale(0.015625)"/>
      </defs>
      <use xlink:href="#ArialMT-48"/>
      <use xlink:href="#ArialMT-2f" x="72.216797"/>
      <use xlink:href="#ArialMT-56" x="100"/>
      <use xlink:href="#ArialMT-20" x="166.699219"/>
      <use xlink:href="#ArialMT-41" x="188.982422"/>
      <use xlink:href="#ArialMT-6d" x="255.681641"/>
      <use xlink:href="#ArialMT-70" x="338.982422"/>
      <use xlink:href="#ArialMT-6c" x="394.597656"/>
      <use xlink:href="#ArialMT-69" x="416.814453"/>
      <use xlink:href="#ArialMT-74" x="439.03125"/>
      <use xlink:href="#ArialMT-75" x="466.814453"/>
      <use xlink:href="#ArialMT-64" x="522.429688"/>
      <use xlink:href="#ArialMT-65" x="578.044922"/>
     </g>
    </g>
   </g>
   <g id="line2d_27">
    <path d="M 41.367188 203.551444 
L 43.741757 207.98271 
L 46.116327 208.715279 
L 48.490897 205.695533 
L 50.865467 198.446403 
L 53.240037 189.232116 
L 55.614607 183.074403 
L 57.989177 181.242975 
L 62.738317 182.077166 
L 65.112887 179.212931 
L 67.487457 168.701853 
L 69.862027 149.764538 
L 72.236597 131.793355 
L 74.611167 124.721573 
L 76.985737 128.146036 
L 81.734877 144.826561 
L 84.109447 150.148619 
L 86.484017 152.966677 
L 88.858587 156.293411 
L 91.233157 163.290441 
L 93.607727 171.872424 
L 95.982297 175.189934 
L 98.356867 169.582266 
L 100.731437 159.231036 
L 103.106007 155.242041 
L 105.480577 161.504124 
L 107.855147 170.662572 
L 110.229717 177.068054 
L 112.604287 179.038181 
L 114.978857 176.545427 
L 122.102567 161.872097 
L 124.477137 157.759438 
L 126.851707 154.866003 
L 129.226277 153.430353 
L 131.600847 153.575824 
L 133.975417 156.487746 
L 136.349987 163.147923 
L 138.724557 172.054214 
L 141.099127 179.643153 
L 143.473697 183.372794 
L 145.848267 183.406322 
L 150.597407 179.625789 
L 152.971977 179.3158 
L 155.346547 181.555174 
L 160.095687 190.306092 
L 162.470257 192.556684 
L 164.844827 191.663016 
L 167.219397 187.910533 
L 169.593967 182.401544 
L 174.343107 169.513037 
L 176.717677 163.9473 
L 179.092247 159.710153 
L 181.466817 154.571628 
L 183.841387 148.510707 
L 186.215957 149.537873 
L 188.590527 162.861819 
L 190.965097 177.864745 
L 193.339667 186.458555 
L 195.714237 188.52154 
L 198.088807 185.808231 
L 202.837947 175.291139 
L 205.212517 173.05259 
L 207.587087 173.901115 
L 209.961657 176.195304 
L 212.336227 178.312131 
L 214.710797 179.589874 
L 217.085367 180.410169 
L 219.459937 181.640247 
L 221.834507 183.803104 
L 224.209077 186.993325 
L 226.583647 191.043273 
L 228.958217 194.714484 
L 231.332787 195.770403 
L 233.707357 192.970581 
L 236.081927 187.404591 
L 238.456497 182.128574 
L 240.831067 179.813794 
L 245.580207 179.912009 
L 247.954777 179.070204 
L 250.329347 178.821232 
L 252.703917 181.564919 
L 255.078487 187.922094 
L 257.453057 195.222317 
L 259.827627 200.5184 
L 262.202197 202.98884 
L 264.576767 203.376754 
L 269.325907 202.67812 
L 271.700477 202.015549 
L 274.075047 200.074432 
L 276.449617 196.546338 
L 278.824187 192.364252 
L 281.198757 188.847302 
L 283.573327 186.938164 
L 285.947897 187.051588 
L 288.322467 188.527018 
L 290.697037 189.799398 
L 293.071607 190.130177 
L 295.446177 190.675034 
L 297.820747 193.181886 
L 300.195317 197.303769 
L 302.569887 201.15838 
L 304.944457 203.854043 
L 307.319027 205.53334 
L 309.693597 206.422522 
L 312.068167 206.671432 
L 314.442737 206.707617 
L 316.817307 207.162322 
L 319.191877 208.329521 
L 321.566447 209.898319 
L 323.941017 211.240459 
L 326.315587 211.796002 
L 328.690157 211.188848 
L 331.064727 209.230586 
L 333.439297 206.27611 
L 335.813867 203.660405 
L 338.188437 202.953044 
L 340.563007 204.35534 
L 342.937577 206.648189 
L 345.312147 208.48254 
L 347.686717 209.291869 
L 350.061287 209.328823 
L 352.435857 209.179323 
L 354.810427 209.299272 
L 359.559566 210.177416 
L 364.308706 210.804998 
L 366.683276 211.608623 
L 371.432416 213.799168 
L 373.806986 214.583342 
L 376.181556 215.042154 
L 378.556126 215.146518 
L 380.930696 214.850731 
L 385.679836 213.576657 
L 388.054406 213.211362 
L 390.428976 213.18223 
L 392.803546 213.419625 
L 394.097656 213.709258 
L 394.097656 213.709258 
" clip-path="url(#p7be5f15928)" style="fill: none; stroke: #808080; stroke-opacity: 0.5; stroke-width: 0.5; stroke-linecap: square"/>
   </g>
   <g id="line2d_28">
    <path d="M 41.367188 192.253752 
L 43.741757 199.363214 
L 46.116327 205.086185 
L 48.490897 207.052498 
L 50.865467 205.079885 
L 53.240037 198.846797 
L 55.614607 187.631156 
L 57.989177 172.495872 
L 60.363747 159.400332 
L 62.738317 154.675422 
L 65.112887 155.532292 
L 67.487457 155.965053 
L 69.862027 155.999546 
L 72.236597 157.849518 
L 74.611167 158.7352 
L 76.985737 152.8613 
L 81.734877 120.728933 
L 84.109447 125.566339 
L 86.484017 143.115049 
L 88.858587 155.439027 
L 91.233157 158.646384 
L 93.607727 151.402926 
L 95.982297 130.088643 
L 98.356867 92.164627 
L 100.731437 46.774096 
L 103.106007 17.455559 
L 105.480577 17.412348 
L 107.855147 35.717482 
L 110.229717 59.073248 
L 112.604287 85.133503 
L 117.353427 145.597123 
L 119.727997 166.492295 
L 122.102567 177.17129 
L 124.477137 182.456412 
L 126.851707 185.909778 
L 129.226277 188.656656 
L 131.600847 190.554801 
L 133.975417 190.589237 
L 136.349987 186.884044 
L 138.724557 177.395264 
L 141.099127 161.286622 
L 143.473697 140.771628 
L 145.848267 125.662132 
L 148.222837 130.927646 
L 150.597407 151.207363 
L 152.971977 167.699884 
L 155.346547 174.851728 
L 157.721117 174.807938 
L 160.095687 169.563963 
L 162.470257 159.833061 
L 164.844827 146.974133 
L 167.219397 135.307172 
L 169.593967 131.254134 
L 171.968537 138.711973 
L 174.343107 153.451126 
L 176.717677 166.084523 
L 179.092247 171.751289 
L 181.466817 172.258262 
L 183.841387 172.231077 
L 186.215957 174.406209 
L 188.590527 176.926961 
L 190.965097 176.021658 
L 193.339667 169.07637 
L 195.714237 156.392756 
L 198.088807 145.048971 
L 200.463377 145.800609 
L 202.837947 158.19313 
L 205.212517 172.482067 
L 207.587087 181.39401 
L 209.961657 181.848316 
L 212.336227 173.127022 
L 214.710797 156.989919 
L 217.085367 139.563849 
L 219.459937 131.318907 
L 221.834507 140.190044 
L 224.209077 159.149165 
L 226.583647 173.901682 
L 228.958217 179.649637 
L 231.332787 177.819312 
L 233.707357 170.693394 
L 236.081927 161.254356 
L 238.456497 153.730365 
L 240.831067 152.146448 
L 243.205637 157.632262 
L 247.954777 177.608734 
L 250.329347 186.352316 
L 252.703917 193.081998 
L 255.078487 197.43596 
L 257.453057 199.177776 
L 259.827627 198.770614 
L 262.202197 197.931167 
L 264.576767 198.869952 
L 266.951337 201.578455 
L 269.325907 203.880128 
L 271.700477 204.077958 
L 274.075047 201.904405 
L 276.449617 198.810263 
L 278.824187 197.581192 
L 281.198757 199.47659 
L 283.573327 202.521262 
L 285.947897 204.446084 
L 288.322467 204.750398 
L 290.697037 203.962634 
L 293.071607 202.674333 
L 297.820747 199.726415 
L 300.195317 198.495133 
L 302.569887 197.967375 
L 304.944457 198.417464 
L 307.319027 199.406067 
L 309.693597 200.086744 
L 312.068167 200.009041 
L 314.442737 199.092345 
L 319.191877 195.684157 
L 321.566447 195.500132 
L 323.941017 197.874802 
L 326.315587 201.499427 
L 328.690157 204.101992 
L 331.064727 204.572881 
L 333.439297 203.33697 
L 335.813867 201.743967 
L 338.188437 201.071454 
L 340.563007 201.743041 
L 342.937577 203.366696 
L 345.312147 205.245519 
L 347.686717 206.842543 
L 350.061287 207.967897 
L 352.435857 208.636765 
L 357.184997 209.305583 
L 359.559566 209.925313 
L 361.934136 210.68256 
L 364.308706 211.046848 
L 366.683276 210.763584 
L 369.057846 210.319286 
L 371.432416 210.683675 
L 373.806986 212.109016 
L 376.181556 213.752984 
L 378.556126 214.753235 
L 380.930696 214.89006 
L 383.305266 214.472903 
L 385.679836 213.936339 
L 388.054406 213.547359 
L 390.428976 213.410566 
L 392.803546 213.558078 
L 394.097656 213.777467 
L 394.097656 213.777467 
" clip-path="url(#p7be5f15928)" style="fill: none; stroke: #808080; stroke-opacity: 0.5; stroke-width: 0.5; stroke-linecap: square"/>
   </g>
   <g id="line2d_29">
    <path d="M 41.367188 140.602409 
L 43.741757 138.767673 
L 46.116327 139.58933 
L 48.490897 143.521636 
L 50.865467 148.190613 
L 53.240037 150.96836 
L 55.614607 150.756339 
L 57.989177 148.072618 
L 60.363747 145.069745 
L 62.738317 145.142898 
L 65.112887 150.11759 
L 67.487457 157.74932 
L 69.862027 164.464888 
L 72.236597 168.495225 
L 74.611167 169.708582 
L 76.985737 168.867053 
L 79.360307 167.584442 
L 81.734877 167.968922 
L 84.109447 171.259087 
L 88.858587 182.300518 
L 91.233157 185.971388 
L 93.607727 187.130794 
L 95.982297 186.427078 
L 98.356867 184.975209 
L 100.731437 183.91008 
L 103.106007 184.13406 
L 105.480577 185.67141 
L 107.855147 187.376572 
L 110.229717 187.595574 
L 112.604287 185.253044 
L 114.978857 180.900724 
L 117.353427 176.937215 
L 119.727997 176.309929 
L 122.102567 180.548661 
L 126.851707 196.37415 
L 129.226277 200.513186 
L 131.600847 198.425694 
L 133.975417 189.856245 
L 136.349987 178.080229 
L 138.724557 170.888769 
L 141.099127 173.668127 
L 143.473697 181.934429 
L 145.848267 188.988007 
L 148.222837 192.177479 
L 150.597407 191.224487 
L 152.971977 186.323902 
L 155.346547 178.020105 
L 157.721117 167.437755 
L 160.095687 155.35531 
L 162.470257 141.018241 
L 164.844827 124.125249 
L 167.219397 110.520834 
L 169.593967 112.445338 
L 171.968537 131.976939 
L 174.343107 155.444854 
L 176.717677 173.131316 
L 179.092247 184.355006 
L 181.466817 190.997607 
L 183.841387 194.033005 
L 186.215957 193.160549 
L 188.590527 187.54474 
L 190.965097 177.405939 
L 193.339667 165.923471 
L 195.714237 157.347077 
L 198.088807 153.025324 
L 200.463377 153.635717 
L 202.837947 160.04707 
L 205.212517 169.174066 
L 207.587087 175.713392 
L 209.961657 177.756521 
L 212.336227 177.052162 
L 214.710797 176.520377 
L 217.085367 178.422338 
L 221.834507 187.449303 
L 224.209077 190.110463 
L 226.583647 190.335499 
L 228.958217 188.752759 
L 231.332787 186.7283 
L 233.707357 185.66798 
L 236.081927 185.636052 
L 238.456497 185.153305 
L 240.831067 182.789699 
L 243.205637 179.539196 
L 245.580207 178.95829 
L 247.954777 182.677794 
L 250.329347 188.575752 
L 252.703917 194.101307 
L 255.078487 198.253659 
L 257.453057 201.26888 
L 259.827627 203.479359 
L 262.202197 204.650061 
L 264.576767 204.400763 
L 266.951337 202.844248 
L 269.325907 200.400281 
L 271.700477 196.890152 
L 274.075047 191.857802 
L 276.449617 186.367126 
L 278.824187 182.88054 
L 281.198757 182.444692 
L 283.573327 184.074396 
L 285.947897 186.257251 
L 288.322467 187.745828 
L 290.697037 187.797239 
L 295.446177 185.255131 
L 297.820747 184.700904 
L 300.195317 184.711933 
L 302.569887 185.089655 
L 304.944457 186.45269 
L 307.319027 189.458598 
L 309.693597 193.825377 
L 312.068167 198.622157 
L 314.442737 202.88355 
L 316.817307 205.783013 
L 319.191877 206.845989 
L 321.566447 206.279211 
L 323.941017 205.082639 
L 326.315587 204.54561 
L 328.690157 205.254295 
L 331.064727 206.802772 
L 333.439297 208.502563 
L 335.813867 209.874184 
L 338.188437 210.508935 
L 340.563007 210.103773 
L 345.312147 207.640436 
L 347.686717 207.44453 
L 350.061287 208.464749 
L 354.810427 211.533906 
L 357.184997 212.626793 
L 359.559566 213.357043 
L 364.308706 214.219522 
L 371.432416 215.350509 
L 373.806986 215.329179 
L 376.181556 215.0933 
L 378.556126 215.01495 
L 380.930696 215.234514 
L 385.679836 215.951937 
L 390.428976 216.35312 
L 394.097656 216.466618 
L 394.097656 216.466618 
" clip-path="url(#p7be5f15928)" style="fill: none; stroke: #808080; stroke-opacity: 0.5; stroke-width: 0.5; stroke-linecap: square"/>
   </g>
   <g id="line2d_30">
    <path d="M 41.367188 205.17528 
L 43.741757 206.385776 
L 46.116327 208.142701 
L 48.490897 209.480266 
L 50.865467 210.077773 
L 53.240037 209.783773 
L 55.614607 208.461694 
L 57.989177 206.564128 
L 60.363747 206.405975 
L 62.738317 210.096546 
L 65.112887 214.175745 
L 67.487457 214.795721 
L 69.862027 210.927436 
L 72.236597 201.893802 
L 74.611167 187.33599 
L 76.985737 169.863759 
L 79.360307 157.541155 
L 81.734877 156.868377 
L 84.109447 162.015022 
L 86.484017 163.32006 
L 88.858587 158.665956 
L 91.233157 151.95211 
L 93.607727 147.330372 
L 95.982297 145.931509 
L 100.731437 146.716726 
L 103.106007 145.824012 
L 105.480577 141.42778 
L 107.855147 129.447947 
L 110.229717 109.22823 
L 112.604287 98.518581 
L 114.978857 113.595955 
L 117.353427 138.830902 
L 119.727997 156.891287 
L 122.102567 163.558774 
L 124.477137 162.133025 
L 126.851707 159.876663 
L 129.226277 167.036439 
L 131.600847 183.273948 
L 133.975417 196.838339 
L 136.349987 204.570189 
L 138.724557 208.48064 
L 141.099127 210.056911 
L 143.473697 209.80849 
L 145.848267 207.991885 
L 148.222837 205.256059 
L 150.597407 202.117306 
L 152.971977 197.995468 
L 155.346547 191.871279 
L 157.721117 184.082388 
L 160.095687 176.86137 
L 162.470257 172.399147 
L 164.844827 171.156428 
L 167.219397 171.461614 
L 169.593967 170.59018 
L 171.968537 167.934423 
L 174.343107 166.34917 
L 176.717677 168.544715 
L 179.092247 172.936572 
L 181.466817 175.677082 
L 183.841387 175.178106 
L 186.215957 173.702064 
L 188.590527 174.46297 
L 190.965097 176.183574 
L 193.339667 174.79183 
L 195.714237 168.367751 
L 198.088807 159.152908 
L 200.463377 153.10538 
L 202.837947 154.374985 
L 205.212517 160.390492 
L 207.587087 166.815472 
L 212.336227 178.998465 
L 214.710797 184.194751 
L 217.085367 187.005126 
L 219.459937 187.637589 
L 221.834507 187.624794 
L 224.209077 188.462748 
L 226.583647 189.982792 
L 228.958217 190.570286 
L 231.332787 189.101873 
L 233.707357 185.669077 
L 236.081927 181.622862 
L 238.456497 179.186746 
L 240.831067 179.718966 
L 243.205637 182.864928 
L 245.580207 187.809051 
L 247.954777 193.548853 
L 250.329347 198.793812 
L 252.703917 202.698756 
L 255.078487 205.238526 
L 257.453057 206.84602 
L 259.827627 207.958497 
L 262.202197 208.681836 
L 264.576767 208.704395 
L 266.951337 207.668847 
L 269.325907 205.603764 
L 271.700477 202.665874 
L 274.075047 198.402546 
L 276.449617 192.035439 
L 278.824187 183.537999 
L 281.198757 174.064431 
L 283.573327 165.807016 
L 285.947897 161.508673 
L 288.322467 163.21913 
L 290.697037 169.78619 
L 293.071607 177.042883 
L 295.446177 182.115943 
L 300.195317 188.298461 
L 302.569887 192.254153 
L 304.944457 196.887517 
L 307.319027 201.259532 
L 309.693597 204.549869 
L 312.068167 206.528075 
L 314.442737 207.566972 
L 316.817307 208.142475 
L 319.191877 208.316308 
L 321.566447 207.76296 
L 323.941017 206.209593 
L 328.690157 201.497247 
L 331.064727 200.764513 
L 333.439297 202.285593 
L 335.813867 204.88218 
L 338.188437 206.737218 
L 340.563007 207.046796 
L 345.312147 205.54038 
L 347.686717 205.410528 
L 350.061287 205.985605 
L 354.810427 207.935695 
L 357.184997 208.650322 
L 359.559566 209.028265 
L 364.308706 209.245895 
L 366.683276 209.567416 
L 369.057846 210.379811 
L 371.432416 211.700845 
L 373.806986 213.167345 
L 376.181556 214.306034 
L 378.556126 214.951714 
L 380.930696 215.266165 
L 383.305266 215.358941 
L 385.679836 215.07685 
L 388.054406 214.334457 
L 390.428976 213.464308 
L 392.803546 213.038217 
L 394.097656 213.207698 
L 394.097656 213.207698 
" clip-path="url(#p7be5f15928)" style="fill: none; stroke: #808080; stroke-opacity: 0.5; stroke-width: 0.5; stroke-linecap: square"/>
   </g>
   <g id="line2d_31">
    <path d="M 41.367188 84.973572 
L 43.741757 108.390905 
L 46.116327 130.016389 
L 48.490897 142.790641 
L 50.865467 146.821497 
L 53.240037 143.51244 
L 57.989177 126.538706 
L 60.363747 125.9673 
L 62.738317 136.434455 
L 65.112887 151.318043 
L 67.487457 162.513287 
L 69.862027 165.465161 
L 72.236597 156.398154 
L 74.611167 131.09529 
L 76.985737 93.22692 
L 79.360307 60.54848 
L 81.734877 45.667669 
L 84.109447 50.053957 
L 86.484017 73.166752 
L 88.858587 105.18702 
L 91.233157 126.801415 
L 93.607727 126.058681 
L 98.356867 85.189516 
L 100.731437 81.109418 
L 103.106007 91.902003 
L 105.480577 107.053341 
L 107.855147 119.759083 
L 110.229717 127.188429 
L 112.604287 129.534452 
L 114.978857 129.964558 
L 117.353427 132.429916 
L 119.727997 137.120677 
L 122.102567 139.482042 
L 126.851707 133.404913 
L 129.226277 139.16118 
L 131.600847 152.548371 
L 133.975417 167.058026 
L 136.349987 179.225578 
L 138.724557 188.30253 
L 141.099127 194.338281 
L 143.473697 197.58202 
L 145.848267 198.561066 
L 148.222837 198.08159 
L 150.597407 196.673285 
L 152.971977 193.798887 
L 155.346547 188.066469 
L 157.721117 178.48711 
L 160.095687 166.652577 
L 162.470257 158.649599 
L 164.844827 159.19905 
L 167.219397 164.425324 
L 169.593967 168.758411 
L 171.968537 170.124259 
L 176.717677 167.628045 
L 179.092247 170.964344 
L 181.466817 179.413633 
L 183.841387 187.274192 
L 186.215957 190.310148 
L 188.590527 188.931049 
L 190.965097 185.948828 
L 193.339667 184.010317 
L 195.714237 183.970493 
L 198.088807 185.082181 
L 200.463377 186.052158 
L 202.837947 186.052759 
L 205.212517 185.086917 
L 209.961657 182.239318 
L 212.336227 180.42219 
L 214.710797 176.521736 
L 217.085367 170.414396 
L 219.459937 168.617476 
L 221.834507 177.06068 
L 224.209077 188.215411 
L 226.583647 195.313743 
L 228.958217 198.108049 
L 231.332787 197.621028 
L 233.707357 194.067295 
L 236.081927 187.17883 
L 238.456497 178.798968 
L 240.831067 174.722818 
L 243.205637 178.320648 
L 245.580207 185.954553 
L 247.954777 193.172313 
L 250.329347 198.585026 
L 252.703917 202.477153 
L 255.078487 205.180381 
L 257.453057 206.49618 
L 259.827627 205.832837 
L 262.202197 202.910002 
L 264.576767 198.891062 
L 266.951337 196.21846 
L 269.325907 195.577399 
L 271.700477 195.193576 
L 274.075047 193.364459 
L 276.449617 189.639285 
L 278.824187 184.937174 
L 281.198757 181.091294 
L 283.573327 179.401435 
L 285.947897 179.980174 
L 288.322467 182.521447 
L 290.697037 186.456412 
L 293.071607 190.786812 
L 295.446177 194.451821 
L 297.820747 196.910599 
L 300.195317 198.519358 
L 302.569887 199.967126 
L 304.944457 201.277026 
L 309.693597 203.189002 
L 312.068167 204.831544 
L 314.442737 206.99052 
L 316.817307 208.76699 
L 319.191877 209.484924 
L 323.941017 208.934352 
L 326.315587 209.810453 
L 328.690157 211.54805 
L 331.064727 212.852883 
L 333.439297 213.006475 
L 335.813867 212.001411 
L 338.188437 210.181495 
L 340.563007 208.151329 
L 342.937577 206.647162 
L 345.312147 206.154779 
L 347.686717 206.62417 
L 350.061287 207.471697 
L 352.435857 207.933666 
L 354.810427 207.616139 
L 357.184997 206.810826 
L 359.559566 206.346941 
L 361.934136 206.906454 
L 364.308706 208.367097 
L 366.683276 210.019597 
L 369.057846 211.257062 
L 371.432416 211.92029 
L 373.806986 212.194888 
L 380.930696 212.674376 
L 383.305266 212.980196 
L 385.679836 213.547845 
L 390.428976 215.34174 
L 392.803546 215.984619 
L 394.097656 216.079191 
L 394.097656 216.079191 
" clip-path="url(#p7be5f15928)" style="fill: none; stroke: #808080; stroke-opacity: 0.5; stroke-width: 0.5; stroke-linecap: square"/>
   </g>
   <g id="line2d_32">
    <path d="M 41.367188 128.485285 
L 43.741757 130.32023 
L 46.116327 132.353423 
L 53.240037 139.13738 
L 55.614607 140.868542 
L 57.989177 142.117015 
L 60.363747 143.013649 
L 65.112887 144.638368 
L 69.862027 146.652131 
L 72.236597 147.750799 
L 74.611167 148.982926 
L 76.985737 150.455562 
L 81.734877 154.011253 
L 84.109447 155.775736 
L 86.484017 157.356788 
L 91.233157 160.062737 
L 93.607727 161.263499 
L 95.982297 162.320404 
L 98.356867 163.198478 
L 100.731437 163.908939 
L 105.480577 165.077069 
L 107.855147 165.927774 
L 110.229717 167.431653 
L 112.604287 169.783391 
L 119.727997 178.817262 
L 122.102567 181.291854 
L 126.851707 185.792505 
L 129.226277 187.571248 
L 131.600847 188.41217 
L 133.975417 188.32395 
L 138.724557 187.2867 
L 141.099127 187.022102 
L 145.848267 186.856582 
L 148.222837 186.581776 
L 150.597407 185.904996 
L 152.971977 184.546969 
L 155.346547 182.241677 
L 157.721117 179.020893 
L 160.095687 175.471442 
L 162.470257 172.588585 
L 164.844827 171.151403 
L 169.593967 170.963317 
L 171.968537 168.660145 
L 174.343107 162.353493 
L 176.717677 154.281713 
L 179.092247 151.941596 
L 181.466817 159.547017 
L 183.841387 171.762098 
L 186.215957 181.440179 
L 188.590527 186.163418 
L 190.965097 187.587328 
L 193.339667 188.063027 
L 195.714237 187.687316 
L 198.088807 185.099088 
L 202.837947 175.186649 
L 205.212517 174.862286 
L 207.587087 180.182154 
L 209.961657 188.347169 
L 212.336227 196.916972 
L 214.710797 204.364982 
L 217.085367 209.491787 
L 219.459937 211.969143 
L 221.834507 212.27027 
L 224.209077 211.034904 
L 226.583647 208.535374 
L 228.958217 204.685672 
L 231.332787 200.076981 
L 233.707357 196.965649 
L 236.081927 197.605618 
L 238.456497 201.858711 
L 240.831067 207.759969 
L 243.205637 213.069432 
L 245.580207 216.773218 
L 247.954777 219.140175 
L 250.329347 220.61128 
L 252.703917 221.414505 
L 255.078487 221.659314 
L 257.453057 221.39673 
L 259.827627 220.591462 
L 262.202197 219.095721 
L 264.576767 216.815809 
L 266.951337 214.354919 
L 269.325907 213.076153 
L 271.700477 213.162685 
L 274.075047 213.605474 
L 276.449617 213.885389 
L 281.198757 214.085955 
L 283.573327 213.818912 
L 285.947897 212.984081 
L 288.322467 211.721573 
L 290.697037 210.592017 
L 293.071607 209.912534 
L 295.446177 209.622085 
L 297.820747 210.104927 
L 300.195317 211.922983 
L 302.569887 214.198548 
L 304.944457 215.711397 
L 307.319027 216.138307 
L 309.693597 215.657654 
L 312.068167 214.731186 
L 314.442737 214.013945 
L 316.817307 213.73064 
L 321.566447 213.366448 
L 323.941017 213.400059 
L 326.315587 213.894524 
L 331.064727 215.373561 
L 333.439297 215.845894 
L 335.813867 216.067953 
L 338.188437 215.854214 
L 340.563007 214.796634 
L 342.937577 212.621667 
L 345.312147 209.958392 
L 347.686717 208.236152 
L 350.061287 208.122456 
L 352.435857 209.042303 
L 354.810427 210.114591 
L 357.184997 210.808813 
L 359.559566 211.02258 
L 364.308706 210.811815 
L 366.683276 211.071088 
L 369.057846 211.829311 
L 371.432416 212.742594 
L 373.806986 213.291157 
L 376.181556 213.259474 
L 383.305266 212.051119 
L 385.679836 211.95772 
L 388.054406 212.214568 
L 390.428976 212.903676 
L 392.803546 213.783817 
L 394.097656 214.134137 
L 394.097656 214.134137 
" clip-path="url(#p7be5f15928)" style="fill: none; stroke: #808080; stroke-opacity: 0.5; stroke-width: 0.5; stroke-linecap: square"/>
   </g>
   <g id="line2d_33">
    <path d="M 41.367188 136.672802 
L 43.741757 138.423495 
L 46.116327 145.425796 
L 48.490897 151.780418 
L 50.865467 154.232952 
L 53.240037 155.822877 
L 55.614607 162.184594 
L 57.989177 172.861186 
L 60.363747 181.224363 
L 62.738317 185.216714 
L 65.112887 186.612385 
L 67.487457 186.952421 
L 69.862027 187.128239 
L 72.236597 188.07113 
L 74.611167 190.67305 
L 79.360307 199.332327 
L 81.734877 201.947986 
L 84.109447 201.421068 
L 86.484017 198.022199 
L 88.858587 193.695754 
L 91.233157 190.410008 
L 93.607727 188.172317 
L 95.982297 185.535493 
L 98.356867 181.330041 
L 100.731437 176.07523 
L 103.106007 172.232433 
L 105.480577 172.255976 
L 110.229717 179.155545 
L 112.604287 179.822191 
L 114.978857 177.948343 
L 117.353427 175.642875 
L 119.727997 174.80751 
L 122.102567 175.236892 
L 124.477137 174.050049 
L 126.851707 168.750974 
L 129.226277 161.505139 
L 131.600847 157.861012 
L 133.975417 158.986166 
L 136.349987 159.8463 
L 138.724557 154.684111 
L 141.099127 140.809935 
L 143.473697 124.48917 
L 145.848267 121.236907 
L 148.222837 128.546452 
L 150.597407 130.143187 
L 152.971977 120.797266 
L 155.346547 107.658621 
L 157.721117 106.925241 
L 160.095687 126.256516 
L 162.470257 151.725717 
L 164.844827 168.389404 
L 167.219397 172.836325 
L 169.593967 167.580943 
L 171.968537 157.292753 
L 174.343107 148.097073 
L 176.717677 144.169215 
L 179.092247 144.138458 
L 181.466817 144.316388 
L 183.841387 143.494306 
L 186.215957 143.789393 
L 188.590527 147.552376 
L 190.965097 153.515001 
L 193.339667 158.646648 
L 195.714237 161.567492 
L 200.463377 164.282817 
L 205.212517 167.986149 
L 207.587087 169.949315 
L 209.961657 173.419867 
L 212.336227 179.657729 
L 214.710797 187.124462 
L 217.085367 193.148022 
L 219.459937 196.624732 
L 221.834507 197.774148 
L 224.209077 197.348817 
L 226.583647 196.805102 
L 228.958217 198.283313 
L 231.332787 202.523484 
L 233.707357 207.648266 
L 236.081927 211.619459 
L 238.456497 213.784668 
L 240.831067 214.331083 
L 243.205637 213.723639 
L 245.580207 212.458003 
L 247.954777 210.815369 
L 250.329347 208.774975 
L 252.703917 206.424387 
L 255.078487 204.520525 
L 257.453057 204.150135 
L 259.827627 205.228216 
L 262.202197 206.108991 
L 264.576767 205.400244 
L 266.951337 203.189552 
L 269.325907 200.49445 
L 271.700477 198.05392 
L 276.449617 193.541958 
L 278.824187 191.52086 
L 281.198757 190.305461 
L 283.573327 190.009434 
L 285.947897 190.612433 
L 290.697037 193.436007 
L 293.071607 194.002746 
L 295.446177 193.597367 
L 297.820747 192.994584 
L 300.195317 192.881402 
L 302.569887 193.297491 
L 304.944457 194.241698 
L 307.319027 196.060952 
L 309.693597 198.938681 
L 312.068167 202.155143 
L 314.442737 204.275973 
L 316.817307 204.380929 
L 319.191877 202.722187 
L 321.566447 200.404608 
L 323.941017 198.977961 
L 326.315587 199.628098 
L 331.064727 204.123602 
L 333.439297 205.351319 
L 335.813867 205.528813 
L 338.188437 204.898733 
L 340.563007 203.961225 
L 342.937577 203.596064 
L 345.312147 204.366018 
L 350.061287 207.068333 
L 352.435857 208.022552 
L 354.810427 208.713632 
L 357.184997 209.079621 
L 359.559566 209.20818 
L 361.934136 209.779089 
L 364.308706 211.425423 
L 366.683276 213.709078 
L 369.057846 215.642867 
L 371.432416 216.70313 
L 373.806986 216.912128 
L 376.181556 216.513885 
L 380.930696 214.997219 
L 383.305266 214.470023 
L 385.679836 214.442468 
L 388.054406 215.001872 
L 392.803546 216.863168 
L 394.097656 217.120588 
L 394.097656 217.120588 
" clip-path="url(#p7be5f15928)" style="fill: none; stroke: #808080; stroke-opacity: 0.5; stroke-width: 0.5; stroke-linecap: square"/>
   </g>
   <g id="line2d_34">
    <path d="M 41.367188 169.535052 
L 43.741757 174.83317 
L 46.116327 179.559623 
L 48.490897 181.628885 
L 50.865467 180.502356 
L 53.240037 177.133096 
L 55.614607 173.184022 
L 57.989177 170.141968 
L 60.363747 169.497504 
L 62.738317 172.199542 
L 65.112887 175.923025 
L 67.487457 176.930196 
L 69.862027 174.239362 
L 72.236597 169.191643 
L 76.985737 157.106547 
L 79.360307 153.244756 
L 81.734877 152.803788 
L 84.109447 155.678189 
L 86.484017 159.607314 
L 88.858587 163.110386 
L 91.233157 165.493887 
L 93.607727 165.175488 
L 95.982297 161.029256 
L 98.356867 154.00028 
L 100.731437 147.432458 
L 103.106007 145.118225 
L 105.480577 147.462888 
L 107.855147 151.266805 
L 110.229717 153.746619 
L 112.604287 155.238498 
L 114.978857 157.680014 
L 117.353427 161.870645 
L 119.727997 166.548516 
L 122.102567 169.852119 
L 124.477137 171.499164 
L 126.851707 172.703054 
L 129.226277 174.928764 
L 131.600847 178.023019 
L 133.975417 180.642355 
L 136.349987 182.234287 
L 138.724557 182.909617 
L 141.099127 182.801146 
L 143.473697 182.065178 
L 145.848267 181.482506 
L 148.222837 181.619366 
L 150.597407 181.608783 
L 152.971977 179.960541 
L 155.346547 176.29952 
L 157.721117 171.857184 
L 160.095687 168.324903 
L 162.470257 166.208103 
L 164.844827 164.696739 
L 169.593967 161.095034 
L 171.968537 160.314144 
L 174.343107 161.010151 
L 176.717677 163.135488 
L 179.092247 166.398907 
L 181.466817 169.976967 
L 183.841387 172.86841 
L 186.215957 174.949456 
L 188.590527 176.574971 
L 190.965097 177.254128 
L 193.339667 176.297612 
L 195.714237 173.600788 
L 198.088807 170.132952 
L 200.463377 167.996448 
L 202.837947 168.862621 
L 205.212517 172.306282 
L 207.587087 176.252085 
L 209.961657 179.223124 
L 212.336227 181.254152 
L 214.710797 182.748391 
L 217.085367 183.926457 
L 219.459937 185.518578 
L 221.834507 188.234851 
L 224.209077 191.35139 
L 226.583647 193.575803 
L 228.958217 194.317104 
L 231.332787 193.654976 
L 233.707357 192.040071 
L 236.081927 190.214818 
L 238.456497 189.14984 
L 240.831067 189.6766 
L 243.205637 191.803969 
L 245.580207 194.848699 
L 247.954777 198.080392 
L 250.329347 201.011044 
L 252.703917 203.4606 
L 255.078487 205.4261 
L 257.453057 206.837078 
L 259.827627 207.479071 
L 262.202197 207.169662 
L 264.576767 206.067925 
L 266.951337 204.754392 
L 269.325907 203.659248 
L 271.700477 202.401513 
L 274.075047 200.257382 
L 278.824187 194.381034 
L 281.198757 192.656087 
L 283.573327 192.1228 
L 285.947897 192.311648 
L 288.322467 192.953018 
L 290.697037 193.82261 
L 293.071607 194.553858 
L 295.446177 195.071297 
L 297.820747 195.815302 
L 300.195317 197.218067 
L 307.319027 202.72932 
L 309.693597 204.176033 
L 312.068167 205.39007 
L 314.442737 206.366677 
L 316.817307 206.943548 
L 319.191877 206.995673 
L 321.566447 206.713826 
L 323.941017 206.599009 
L 326.315587 207.01809 
L 328.690157 207.74174 
L 331.064727 208.250538 
L 333.439297 208.374289 
L 335.813867 208.273751 
L 338.188437 208.027292 
L 342.937577 207.075141 
L 345.312147 206.84869 
L 347.686717 207.126858 
L 354.810427 209.209925 
L 357.184997 209.648126 
L 361.934136 210.349434 
L 364.308706 210.930398 
L 369.057846 212.584417 
L 371.432416 213.403944 
L 373.806986 214.033951 
L 376.181556 214.385415 
L 378.556126 214.469108 
L 388.054406 214.175677 
L 390.428976 214.437651 
L 394.097656 215.006108 
L 394.097656 215.006108 
" clip-path="url(#p7be5f15928)" style="fill: none; stroke: #000000; stroke-width: 1.5; stroke-linecap: square"/>
   </g>
   <g id="line2d_35">
    <defs>
     <path id="m22d3b9c991" d="M 0 2.5 
C 0.663008 2.5 1.29895 2.236584 1.767767 1.767767 
C 2.236584 1.29895 2.5 0.663008 2.5 0 
C 2.5 -0.663008 2.236584 -1.29895 1.767767 -1.767767 
C 1.29895 -2.236584 0.663008 -2.5 0 -2.5 
C -0.663008 -2.5 -1.29895 -2.236584 -1.767767 -1.767767 
C -2.236584 -1.29895 -2.5 -0.663008 -2.5 0 
C -2.5 0.663008 -2.236584 1.29895 -1.767767 1.767767 
C -1.29895 2.236584 -0.663008 2.5 0 2.5 
z
" style="stroke: #ffffff; stroke-width: 0.5"/>
    </defs>
    <g clip-path="url(#p7be5f15928)">
     <use xlink:href="#m22d3b9c991" x="103.106007" y="145.118225" style="fill: #ff0000; stroke: #ffffff; stroke-width: 0.5"/>
    </g>
   </g>
   <g id="patch_3">
    <path d="M 41.367188 228.96 
L 41.367188 7.2 
" style="fill: none; stroke: #000000; stroke-width: 0.8; stroke-linejoin: miter; stroke-linecap: square"/>
   </g>
   <g id="patch_4">
    <path d="M 41.367188 228.96 
L 376.167188 228.96 
" style="fill: none; stroke: #000000; stroke-width: 0.8; stroke-linejoin: miter; stroke-linecap: square"/>
   </g>
  </g>
 </g>
 <defs>
  <clipPath id="p7be5f15928">
   <rect x="41.367188" y="7.2" width="334.8" height="221.76"/>
  </clipPath>
 </defs>
</svg>
