<?xml version="1.0" encoding="utf-8" standalone="no"?>
<!DOCTYPE svg PUBLIC "-//W3C//DTD SVG 1.1//EN"
  "http://www.w3.org/Graphics/SVG/1.1/DTD/svg11.dtd">
<svg xmlns:xlink="http://www.w3.org/1999/xlink" width="404.219531pt" height="265.689687pt" viewBox="0 0 404.219531 265.689687" xmlns="http://www.w3.org/2000/svg" version="1.1">
 <metadata>
  <rdf:RDF xmlns:dc="http://purl.org/dc/elements/1.1/" xmlns:cc="http://creativecommons.org/ns#" xmlns:rdf="http://www.w3.org/1999/02/22-rdf-syntax-ns#">
   <cc:Work>
    <dc:type rdf:resource="http://purl.org/dc/dcmitype/StillImage"/>
    <dc:date>2024-09-14T12:49:22.287908</dc:date>
    <dc:format>image/svg+xml</dc:format>
    <dc:creator>
     <cc:Agent>
      <dc:title>Matplotlib v3.9.2, https://matplotlib.org/</dc:title>
     </cc:Agent>
    </dc:creator>
   </cc:Work>
  </rdf:RDF>
 </metadata>
 <defs>
  <style type="text/css">*{stroke-linejoin: round; stroke-linecap: butt}</style>
 </defs>
 <g id="figure_1">
  <g id="patch_1">
   <path d="M 0 265.689687 
L 404.219531 265.689687 
L 404.219531 0 
L 0 0 
z
" style="fill: #ffffff"/>
  </g>
  <g id="axes_1">
   <g id="patch_2">
    <path d="M 52.489063 228.96 
L 387.289062 228.96 
L 387.289062 7.2 
L 52.489063 7.2 
z
" style="fill: #ffffff"/>
   </g>
   <g id="PolyCollection_1">
    <path d="M 52.489063 221.717711 
L 52.489063 228.192401 
L 54.863632 228.193438 
L 57.238202 228.214221 
L 59.612772 228.238601 
L 61.987342 228.259229 
L 64.361912 228.280795 
L 66.736482 228.294487 
L 69.111052 228.294286 
L 71.485622 228.294862 
L 73.860192 228.299823 
L 76.234762 228.305875 
L 78.609332 228.321578 
L 80.983902 228.343141 
L 83.358472 228.349474 
L 85.733042 228.328894 
L 88.107612 228.292944 
L 90.482182 228.265413 
L 92.856752 228.260237 
L 95.231322 228.27045 
L 97.605892 228.279217 
L 99.980462 228.273302 
L 102.355032 228.246664 
L 104.729602 228.197934 
L 107.104172 228.13209 
L 109.478742 228.063292 
L 111.853312 228.005475 
L 114.227882 227.972612 
L 116.602452 227.981143 
L 118.977022 228.023411 
L 121.351592 228.070547 
L 123.726162 228.117026 
L 126.100732 228.173629 
L 128.475302 228.2311 
L 130.849872 228.275115 
L 133.224442 228.304123 
L 135.599012 228.322761 
L 137.973582 228.34012 
L 140.348152 228.353598 
L 142.722722 228.347651 
L 145.097292 228.326959 
L 147.471862 228.318038 
L 149.846432 228.338475 
L 152.221002 228.379525 
L 154.595572 228.425156 
L 156.970142 228.467632 
L 159.344712 228.500929 
L 161.719282 228.520583 
L 164.093852 228.531276 
L 166.468422 228.540065 
L 168.842992 228.550968 
L 171.217562 228.559602 
L 173.592132 228.560164 
L 175.966702 228.555693 
L 178.341272 228.553289 
L 180.715842 228.556279 
L 183.090412 228.562654 
L 185.464982 228.569312 
L 187.839552 228.575545 
L 190.214122 228.581865 
L 192.588692 228.586385 
L 194.963262 228.587485 
L 197.337832 228.58769 
L 199.712402 228.587556 
L 202.086972 228.584528 
L 204.461542 228.576986 
L 206.836112 228.568587 
L 209.210682 228.568029 
L 211.585252 228.57879 
L 213.959822 228.595269 
L 216.334392 228.609471 
L 218.708962 228.613166 
L 221.083532 228.60258 
L 223.458102 228.582987 
L 225.832672 228.56413 
L 228.207242 228.554087 
L 230.581812 228.55434 
L 232.956382 228.559661 
L 235.330952 228.56127 
L 237.705522 228.552883 
L 240.080092 228.536858 
L 242.454662 228.522667 
L 244.829232 228.517349 
L 247.203802 228.51744 
L 249.578372 228.518376 
L 251.952942 228.523115 
L 254.327512 228.533392 
L 256.702082 228.545303 
L 259.076652 228.554736 
L 261.451222 228.559846 
L 263.825792 228.561667 
L 266.200362 228.563567 
L 268.574932 228.570674 
L 270.949502 228.584968 
L 273.324072 228.600942 
L 275.698642 228.612189 
L 278.073212 228.61643 
L 280.447782 228.614059 
L 282.822352 228.607319 
L 285.196922 228.599435 
L 287.571492 228.592808 
L 289.946062 228.588946 
L 292.320632 228.588349 
L 294.695202 228.591511 
L 297.069772 228.597563 
L 299.444342 228.602041 
L 301.818912 228.600684 
L 304.193482 228.592336 
L 306.568052 228.577865 
L 308.942622 228.55997 
L 311.317192 228.542859 
L 313.691762 228.529663 
L 316.066332 228.520661 
L 318.440902 228.514921 
L 320.815472 228.50922 
L 323.190042 228.49971 
L 325.564612 228.486671 
L 327.939182 228.473478 
L 330.313752 228.463611 
L 332.688322 228.459184 
L 335.062892 228.459914 
L 337.437462 228.461884 
L 339.812032 228.459804 
L 342.186602 228.452593 
L 344.561172 228.443279 
L 346.935742 228.436834 
L 349.310312 228.43981 
L 351.684882 228.455435 
L 354.059452 228.478462 
L 356.434022 228.502037 
L 358.808592 228.523915 
L 361.183162 228.542149 
L 363.557732 228.552071 
L 365.932302 228.551635 
L 368.306872 228.54352 
L 370.681441 228.532033 
L 373.056011 228.520348 
L 375.430581 228.509972 
L 377.805151 228.50242 
L 380.179721 228.499964 
L 382.554291 228.503285 
L 384.928861 228.507708 
L 387.303431 228.505825 
L 389.678001 228.494991 
L 392.052571 228.479133 
L 394.427141 228.4653 
L 396.801711 228.457185 
L 399.176281 228.453399 
L 401.550851 228.449234 
L 403.925421 228.444601 
L 406.299991 228.445845 
L 408.674561 228.454472 
L 411.049131 228.463191 
L 413.423701 228.463913 
L 415.798271 228.453243 
L 418.172841 228.432613 
L 420.547411 228.405312 
L 422.921981 228.372461 
L 425.296551 228.335376 
L 427.671121 228.300224 
L 430.045691 228.274556 
L 432.420261 228.261727 
L 434.794831 228.25713 
L 437.169401 228.250733 
L 439.543971 228.234862 
L 441.918541 228.208773 
L 444.293111 228.175779 
L 446.667681 228.139507 
L 449.042251 228.104923 
L 451.416821 228.079524 
L 453.791391 228.070926 
L 456.165961 228.081708 
L 458.540531 228.108646 
L 460.915101 228.147518 
L 463.289671 228.196683 
L 465.664241 228.254292 
L 468.038811 228.314466 
L 470.413381 228.370742 
L 472.787951 228.421605 
L 475.162521 228.468044 
L 477.537091 228.507104 
L 479.911661 228.533216 
L 482.286231 228.543213 
L 484.660801 228.538046 
L 487.035371 228.523593 
L 489.409941 228.508737 
L 491.784511 228.499795 
L 494.159081 228.496871 
L 496.533651 228.494193 
L 498.908221 228.484339 
L 501.282791 228.463885 
L 503.657361 228.436202 
L 506.031931 228.411802 
L 508.406501 228.401054 
L 510.781071 228.403868 
L 513.155641 228.410172 
L 515.530211 228.410104 
L 517.904781 228.40116 
L 520.279351 228.386973 
L 522.653921 228.372449 
L 525.028491 228.361466 
L 525.028491 228.009687 
L 525.028491 228.009687 
L 522.653921 228.033657 
L 520.279351 228.065331 
L 517.904781 228.098452 
L 515.530211 228.127789 
L 513.155641 228.149955 
L 510.781071 228.163874 
L 508.406501 228.172216 
L 506.031931 228.181242 
L 503.657361 228.197095 
L 501.282791 228.219206 
L 498.908221 228.237818 
L 496.533651 228.243285 
L 494.159081 228.236433 
L 491.784511 228.227137 
L 489.409941 228.227679 
L 487.035371 228.243217 
L 484.660801 228.265682 
L 482.286231 228.278495 
L 479.911661 228.268441 
L 477.537091 228.232825 
L 475.162521 228.174569 
L 472.787951 228.095542 
L 470.413381 228.000837 
L 468.038811 227.902273 
L 465.664241 227.809092 
L 463.289671 227.71637 
L 460.915101 227.61306 
L 458.540531 227.497594 
L 456.165961 227.384906 
L 453.791391 227.313704 
L 451.416821 227.326964 
L 449.042251 227.420047 
L 446.667681 227.543496 
L 444.293111 227.655131 
L 441.918541 227.741011 
L 439.543971 227.803398 
L 437.169401 227.845307 
L 434.794831 227.868331 
L 432.420261 227.883531 
L 430.045691 227.911734 
L 427.671121 227.964896 
L 425.296551 228.033089 
L 422.921981 228.098514 
L 420.547411 228.152967 
L 418.172841 228.193723 
L 415.798271 228.219068 
L 413.423701 228.227421 
L 411.049131 228.217341 
L 408.674561 228.192145 
L 406.299991 228.162906 
L 403.925421 228.142105 
L 401.550851 228.134536 
L 399.176281 228.138067 
L 396.801711 228.150964 
L 394.427141 228.178422 
L 392.052571 228.220774 
L 389.678001 228.260461 
L 387.303431 228.281189 
L 384.928861 228.282624 
L 382.554291 228.274394 
L 380.179721 228.26234 
L 377.805151 228.250874 
L 375.430581 228.247064 
L 373.056011 228.25297 
L 370.681441 228.262529 
L 368.306872 228.268579 
L 365.932302 228.268624 
L 363.557732 228.262904 
L 361.183162 228.249773 
L 358.808592 228.224844 
L 356.434022 228.188343 
L 354.059452 228.150867 
L 351.684882 228.124466 
L 349.310312 228.10865 
L 346.935742 228.097279 
L 344.561172 228.09186 
L 342.186602 228.093711 
L 339.812032 228.099149 
L 337.437462 228.106873 
L 335.062892 228.119982 
L 332.688322 228.139739 
L 330.313752 228.161706 
L 327.939182 228.177204 
L 325.564612 228.180059 
L 323.190042 228.170673 
L 320.815472 228.155429 
L 318.440902 228.139748 
L 316.066332 228.123188 
L 313.691762 228.103767 
L 311.317192 228.079741 
L 308.942622 228.053722 
L 306.568052 228.035803 
L 304.193482 228.033045 
L 301.818912 228.043701 
L 299.444342 228.060986 
L 297.069772 228.074672 
L 294.695202 228.074906 
L 292.320632 228.062298 
L 289.946062 228.050142 
L 287.571492 228.053363 
L 285.196922 228.080492 
L 282.822352 228.125117 
L 280.447782 228.163297 
L 278.073212 228.178314 
L 275.698642 228.174868 
L 273.324072 228.167554 
L 270.949502 228.166455 
L 268.574932 228.170296 
L 266.200362 228.173678 
L 263.825792 228.177384 
L 261.451222 228.181867 
L 259.076652 228.18542 
L 256.702082 228.190008 
L 254.327512 228.198338 
L 251.952942 228.209477 
L 249.578372 228.217913 
L 247.203802 228.223508 
L 244.829232 228.229151 
L 242.454662 228.226287 
L 240.080092 228.206415 
L 237.705522 228.175187 
L 235.330952 228.140107 
L 232.956382 228.101385 
L 230.581812 228.058629 
L 228.207242 228.016644 
L 225.832672 227.979955 
L 223.458102 227.955492 
L 221.083532 227.948833 
L 218.708962 227.944734 
L 216.334392 227.924838 
L 213.959822 227.888327 
L 211.585252 227.851021 
L 209.210682 227.819988 
L 206.836112 227.786605 
L 204.461542 227.745424 
L 202.086972 227.692866 
L 199.712402 227.626749 
L 197.337832 227.549683 
L 194.963262 227.467947 
L 192.588692 227.394903 
L 190.214122 227.352292 
L 187.839552 227.327754 
L 185.464982 227.282809 
L 183.090412 227.197662 
L 180.715842 227.078451 
L 178.341272 226.949326 
L 175.966702 226.839817 
L 173.592132 226.764476 
L 171.217562 226.727537 
L 168.842992 226.69724 
L 166.468422 226.625925 
L 164.093852 226.536176 
L 161.719282 226.480988 
L 159.344712 226.470694 
L 156.970142 226.476868 
L 154.595572 226.453838 
L 152.221002 226.386763 
L 149.846432 226.267798 
L 147.471862 226.0792 
L 145.097292 225.836112 
L 142.722722 225.610631 
L 140.348152 225.472204 
L 137.973582 225.389326 
L 135.599012 225.290194 
L 133.224442 225.152371 
L 130.849872 224.979744 
L 128.475302 224.815951 
L 126.100732 224.709793 
L 123.726162 224.626378 
L 121.351592 224.507188 
L 118.977022 224.357903 
L 116.602452 224.200026 
L 114.227882 223.961889 
L 111.853312 223.586213 
L 109.478742 223.275093 
L 107.104172 223.210765 
L 104.729602 223.300222 
L 102.355032 223.380579 
L 99.980462 223.360585 
L 97.605892 223.251983 
L 95.231322 223.138023 
L 92.856752 223.064379 
L 90.482182 223.030603 
L 88.107612 222.993504 
L 85.733042 222.865707 
L 83.358472 222.666391 
L 80.983902 222.57078 
L 78.609332 222.583752 
L 76.234762 222.462052 
L 73.860192 222.18372 
L 71.485622 222.022617 
L 69.111052 222.079927 
L 66.736482 222.23326 
L 64.361912 222.383121 
L 61.987342 222.376047 
L 59.612772 222.149662 
L 57.238202 221.876878 
L 54.863632 221.728004 
L 52.489063 221.717711 
z
" clip-path="url(#p98f380ccf2)" style="fill: #808080; fill-opacity: 0.5; stroke: #808080; stroke-opacity: 0.5"/>
   </g>
   <g id="matplotlib.axis_1">
    <g id="xtick_1">
     <g id="line2d_1">
      <defs>
       <path id="mc831b5377c" d="M 0 0 
L 0 3.5 
" style="stroke: #000000; stroke-width: 0.8"/>
      </defs>
      <g>
       <use xlink:href="#mc831b5377c" x="190.228491" y="228.96" style="stroke: #000000; stroke-width: 0.8"/>
      </g>
     </g>
     <g id="text_1">
      <!-- 1.0 -->
      <g transform="translate(183.278491 243.117812) scale(0.1 -0.1)">
       <defs>
        <path id="ArialMT-31" d="M 2384 0 
L 1822 0 
L 1822 3584 
Q 1619 3391 1289 3197 
Q 959 3003 697 2906 
L 697 3450 
Q 1169 3672 1522 3987 
Q 1875 4303 2022 4600 
L 2384 4600 
L 2384 0 
z
" transform="scale(0.015625)"/>
        <path id="ArialMT-2e" d="M 581 0 
L 581 641 
L 1222 641 
L 1222 0 
L 581 0 
z
" transform="scale(0.015625)"/>
        <path id="ArialMT-30" d="M 266 2259 
Q 266 3072 433 3567 
Q 600 4063 929 4331 
Q 1259 4600 1759 4600 
Q 2128 4600 2406 4451 
Q 2684 4303 2865 4023 
Q 3047 3744 3150 3342 
Q 3253 2941 3253 2259 
Q 3253 1453 3087 958 
Q 2922 463 2592 192 
Q 2263 -78 1759 -78 
Q 1097 -78 719 397 
Q 266 969 266 2259 
z
M 844 2259 
Q 844 1131 1108 757 
Q 1372 384 1759 384 
Q 2147 384 2411 759 
Q 2675 1134 2675 2259 
Q 2675 3391 2411 3762 
Q 2147 4134 1753 4134 
Q 1366 4134 1134 3806 
Q 844 3388 844 2259 
z
" transform="scale(0.015625)"/>
       </defs>
       <use xlink:href="#ArialMT-31"/>
       <use xlink:href="#ArialMT-2e" x="55.615234"/>
       <use xlink:href="#ArialMT-30" x="83.398438"/>
      </g>
     </g>
    </g>
    <g id="xtick_2">
     <g id="line2d_2">
      <g>
       <use xlink:href="#mc831b5377c" x="387.289062" y="228.96" style="stroke: #000000; stroke-width: 0.8"/>
      </g>
     </g>
     <g id="text_2">
      <!-- 10.0 -->
      <g transform="translate(377.558594 243.117812) scale(0.1 -0.1)">
       <use xlink:href="#ArialMT-31"/>
       <use xlink:href="#ArialMT-30" x="55.615234"/>
       <use xlink:href="#ArialMT-2e" x="111.230469"/>
       <use xlink:href="#ArialMT-30" x="139.013672"/>
      </g>
     </g>
    </g>
    <g id="xtick_3">
     <g id="line2d_3">
      <defs>
       <path id="m5296a72165" d="M 0 0 
L 0 2 
" style="stroke: #000000; stroke-width: 0.6"/>
      </defs>
      <g>
       <use xlink:href="#m5296a72165" x="52.489063" y="228.96" style="stroke: #000000; stroke-width: 0.6"/>
      </g>
     </g>
    </g>
    <g id="xtick_4">
     <g id="line2d_4">
      <g>
       <use xlink:href="#m5296a72165" x="87.189707" y="228.96" style="stroke: #000000; stroke-width: 0.6"/>
      </g>
     </g>
    </g>
    <g id="xtick_5">
     <g id="line2d_5">
      <g>
       <use xlink:href="#m5296a72165" x="111.810205" y="228.96" style="stroke: #000000; stroke-width: 0.6"/>
      </g>
     </g>
    </g>
    <g id="xtick_6">
     <g id="line2d_6">
      <g>
       <use xlink:href="#m5296a72165" x="130.907348" y="228.96" style="stroke: #000000; stroke-width: 0.6"/>
      </g>
     </g>
    </g>
    <g id="xtick_7">
     <g id="line2d_7">
      <g>
       <use xlink:href="#m5296a72165" x="146.51085" y="228.96" style="stroke: #000000; stroke-width: 0.6"/>
      </g>
     </g>
    </g>
    <g id="xtick_8">
     <g id="line2d_8">
      <g>
       <use xlink:href="#m5296a72165" x="159.703422" y="228.96" style="stroke: #000000; stroke-width: 0.6"/>
      </g>
     </g>
    </g>
    <g id="xtick_9">
     <g id="line2d_9">
      <g>
       <use xlink:href="#m5296a72165" x="171.131348" y="228.96" style="stroke: #000000; stroke-width: 0.6"/>
      </g>
     </g>
    </g>
    <g id="xtick_10">
     <g id="line2d_10">
      <g>
       <use xlink:href="#m5296a72165" x="181.211494" y="228.96" style="stroke: #000000; stroke-width: 0.6"/>
      </g>
     </g>
    </g>
    <g id="xtick_11">
     <g id="line2d_11">
      <g>
       <use xlink:href="#m5296a72165" x="249.549634" y="228.96" style="stroke: #000000; stroke-width: 0.6"/>
      </g>
     </g>
    </g>
    <g id="xtick_12">
     <g id="line2d_12">
      <g>
       <use xlink:href="#m5296a72165" x="284.250278" y="228.96" style="stroke: #000000; stroke-width: 0.6"/>
      </g>
     </g>
    </g>
    <g id="xtick_13">
     <g id="line2d_13">
      <g>
       <use xlink:href="#m5296a72165" x="308.870777" y="228.96" style="stroke: #000000; stroke-width: 0.6"/>
      </g>
     </g>
    </g>
    <g id="xtick_14">
     <g id="line2d_14">
      <g>
       <use xlink:href="#m5296a72165" x="327.96792" y="228.96" style="stroke: #000000; stroke-width: 0.6"/>
      </g>
     </g>
    </g>
    <g id="xtick_15">
     <g id="line2d_15">
      <g>
       <use xlink:href="#m5296a72165" x="343.571421" y="228.96" style="stroke: #000000; stroke-width: 0.6"/>
      </g>
     </g>
    </g>
    <g id="xtick_16">
     <g id="line2d_16">
      <g>
       <use xlink:href="#m5296a72165" x="356.763994" y="228.96" style="stroke: #000000; stroke-width: 0.6"/>
      </g>
     </g>
    </g>
    <g id="xtick_17">
     <g id="line2d_17">
      <g>
       <use xlink:href="#m5296a72165" x="368.19192" y="228.96" style="stroke: #000000; stroke-width: 0.6"/>
      </g>
     </g>
    </g>
    <g id="xtick_18">
     <g id="line2d_18">
      <g>
       <use xlink:href="#m5296a72165" x="378.272065" y="228.96" style="stroke: #000000; stroke-width: 0.6"/>
      </g>
     </g>
    </g>
    <g id="text_3">
     <!-- Frequency (Hz) -->
     <g transform="translate(185.438281 256.385) scale(0.1 -0.1)">
      <defs>
       <path id="ArialMT-46" d="M 525 0 
L 525 4581 
L 3616 4581 
L 3616 4041 
L 1131 4041 
L 1131 2622 
L 3281 2622 
L 3281 2081 
L 1131 2081 
L 1131 0 
L 525 0 
z
" transform="scale(0.015625)"/>
       <path id="ArialMT-72" d="M 416 0 
L 416 3319 
L 922 3319 
L 922 2816 
Q 1116 3169 1280 3281 
Q 1444 3394 1641 3394 
Q 1925 3394 2219 3213 
L 2025 2691 
Q 1819 2813 1613 2813 
Q 1428 2813 1281 2702 
Q 1134 2591 1072 2394 
Q 978 2094 978 1738 
L 978 0 
L 416 0 
z
" transform="scale(0.015625)"/>
       <path id="ArialMT-65" d="M 2694 1069 
L 3275 997 
Q 3138 488 2766 206 
Q 2394 -75 1816 -75 
Q 1088 -75 661 373 
Q 234 822 234 1631 
Q 234 2469 665 2931 
Q 1097 3394 1784 3394 
Q 2450 3394 2872 2941 
Q 3294 2488 3294 1666 
Q 3294 1616 3291 1516 
L 816 1516 
Q 847 969 1125 678 
Q 1403 388 1819 388 
Q 2128 388 2347 550 
Q 2566 713 2694 1069 
z
M 847 1978 
L 2700 1978 
Q 2663 2397 2488 2606 
Q 2219 2931 1791 2931 
Q 1403 2931 1139 2672 
Q 875 2413 847 1978 
z
" transform="scale(0.015625)"/>
       <path id="ArialMT-71" d="M 2538 -1272 
L 2538 353 
Q 2406 169 2170 47 
Q 1934 -75 1669 -75 
Q 1078 -75 651 397 
Q 225 869 225 1691 
Q 225 2191 398 2587 
Q 572 2984 901 3189 
Q 1231 3394 1625 3394 
Q 2241 3394 2594 2875 
L 2594 3319 
L 3100 3319 
L 3100 -1272 
L 2538 -1272 
z
M 803 1669 
Q 803 1028 1072 708 
Q 1341 388 1716 388 
Q 2075 388 2334 692 
Q 2594 997 2594 1619 
Q 2594 2281 2320 2615 
Q 2047 2950 1678 2950 
Q 1313 2950 1058 2639 
Q 803 2328 803 1669 
z
" transform="scale(0.015625)"/>
       <path id="ArialMT-75" d="M 2597 0 
L 2597 488 
Q 2209 -75 1544 -75 
Q 1250 -75 995 37 
Q 741 150 617 320 
Q 494 491 444 738 
Q 409 903 409 1263 
L 409 3319 
L 972 3319 
L 972 1478 
Q 972 1038 1006 884 
Q 1059 663 1231 536 
Q 1403 409 1656 409 
Q 1909 409 2131 539 
Q 2353 669 2445 892 
Q 2538 1116 2538 1541 
L 2538 3319 
L 3100 3319 
L 3100 0 
L 2597 0 
z
" transform="scale(0.015625)"/>
       <path id="ArialMT-6e" d="M 422 0 
L 422 3319 
L 928 3319 
L 928 2847 
Q 1294 3394 1984 3394 
Q 2284 3394 2536 3286 
Q 2788 3178 2913 3003 
Q 3038 2828 3088 2588 
Q 3119 2431 3119 2041 
L 3119 0 
L 2556 0 
L 2556 2019 
Q 2556 2363 2490 2533 
Q 2425 2703 2258 2804 
Q 2091 2906 1866 2906 
Q 1506 2906 1245 2678 
Q 984 2450 984 1813 
L 984 0 
L 422 0 
z
" transform="scale(0.015625)"/>
       <path id="ArialMT-63" d="M 2588 1216 
L 3141 1144 
Q 3050 572 2676 248 
Q 2303 -75 1759 -75 
Q 1078 -75 664 370 
Q 250 816 250 1647 
Q 250 2184 428 2587 
Q 606 2991 970 3192 
Q 1334 3394 1763 3394 
Q 2303 3394 2647 3120 
Q 2991 2847 3088 2344 
L 2541 2259 
Q 2463 2594 2264 2762 
Q 2066 2931 1784 2931 
Q 1359 2931 1093 2626 
Q 828 2322 828 1663 
Q 828 994 1084 691 
Q 1341 388 1753 388 
Q 2084 388 2306 591 
Q 2528 794 2588 1216 
z
" transform="scale(0.015625)"/>
       <path id="ArialMT-79" d="M 397 -1278 
L 334 -750 
Q 519 -800 656 -800 
Q 844 -800 956 -737 
Q 1069 -675 1141 -563 
Q 1194 -478 1313 -144 
Q 1328 -97 1363 -6 
L 103 3319 
L 709 3319 
L 1400 1397 
Q 1534 1031 1641 628 
Q 1738 1016 1872 1384 
L 2581 3319 
L 3144 3319 
L 1881 -56 
Q 1678 -603 1566 -809 
Q 1416 -1088 1222 -1217 
Q 1028 -1347 759 -1347 
Q 597 -1347 397 -1278 
z
" transform="scale(0.015625)"/>
       <path id="ArialMT-20" transform="scale(0.015625)"/>
       <path id="ArialMT-28" d="M 1497 -1347 
Q 1031 -759 709 28 
Q 388 816 388 1659 
Q 388 2403 628 3084 
Q 909 3875 1497 4659 
L 1900 4659 
Q 1522 4009 1400 3731 
Q 1209 3300 1100 2831 
Q 966 2247 966 1656 
Q 966 153 1900 -1347 
L 1497 -1347 
z
" transform="scale(0.015625)"/>
       <path id="ArialMT-48" d="M 513 0 
L 513 4581 
L 1119 4581 
L 1119 2700 
L 3500 2700 
L 3500 4581 
L 4106 4581 
L 4106 0 
L 3500 0 
L 3500 2159 
L 1119 2159 
L 1119 0 
L 513 0 
z
" transform="scale(0.015625)"/>
       <path id="ArialMT-7a" d="M 125 0 
L 125 456 
L 2238 2881 
Q 1878 2863 1603 2863 
L 250 2863 
L 250 3319 
L 2963 3319 
L 2963 2947 
L 1166 841 
L 819 456 
Q 1197 484 1528 484 
L 3063 484 
L 3063 0 
L 125 0 
z
" transform="scale(0.015625)"/>
       <path id="ArialMT-29" d="M 791 -1347 
L 388 -1347 
Q 1322 153 1322 1656 
Q 1322 2244 1188 2822 
Q 1081 3291 891 3722 
Q 769 4003 388 4659 
L 791 4659 
Q 1378 3875 1659 3084 
Q 1900 2403 1900 1659 
Q 1900 816 1576 28 
Q 1253 -759 791 -1347 
z
" transform="scale(0.015625)"/>
      </defs>
      <use xlink:href="#ArialMT-46"/>
      <use xlink:href="#ArialMT-72" x="61.083984"/>
      <use xlink:href="#ArialMT-65" x="94.384766"/>
      <use xlink:href="#ArialMT-71" x="150"/>
      <use xlink:href="#ArialMT-75" x="205.615234"/>
      <use xlink:href="#ArialMT-65" x="261.230469"/>
      <use xlink:href="#ArialMT-6e" x="316.845703"/>
      <use xlink:href="#ArialMT-63" x="372.460938"/>
      <use xlink:href="#ArialMT-79" x="422.460938"/>
      <use xlink:href="#ArialMT-20" x="472.460938"/>
      <use xlink:href="#ArialMT-28" x="500.244141"/>
      <use xlink:href="#ArialMT-48" x="533.544922"/>
      <use xlink:href="#ArialMT-7a" x="605.761719"/>
      <use xlink:href="#ArialMT-29" x="655.761719"/>
     </g>
    </g>
   </g>
   <g id="matplotlib.axis_2">
    <g id="ytick_1">
     <g id="line2d_19">
      <defs>
       <path id="m6cacc56960" d="M 0 0 
L -3.5 0 
" style="stroke: #000000; stroke-width: 0.8"/>
      </defs>
      <g>
       <use xlink:href="#m6cacc56960" x="52.489063" y="228.96" style="stroke: #000000; stroke-width: 0.8"/>
      </g>
     </g>
     <g id="text_4">
      <!-- 0.0 -->
      <g transform="translate(31.589063 232.538906) scale(0.1 -0.1)">
       <use xlink:href="#ArialMT-30"/>
       <use xlink:href="#ArialMT-2e" x="55.615234"/>
       <use xlink:href="#ArialMT-30" x="83.398438"/>
      </g>
     </g>
    </g>
    <g id="ytick_2">
     <g id="line2d_20">
      <g>
       <use xlink:href="#m6cacc56960" x="52.489063" y="193.470979" style="stroke: #000000; stroke-width: 0.8"/>
      </g>
     </g>
     <g id="text_5">
      <!-- 50.0 -->
      <g transform="translate(26.028125 197.049885) scale(0.1 -0.1)">
       <defs>
        <path id="ArialMT-35" d="M 266 1200 
L 856 1250 
Q 922 819 1161 601 
Q 1400 384 1738 384 
Q 2144 384 2425 690 
Q 2706 997 2706 1503 
Q 2706 1984 2436 2262 
Q 2166 2541 1728 2541 
Q 1456 2541 1237 2417 
Q 1019 2294 894 2097 
L 366 2166 
L 809 4519 
L 3088 4519 
L 3088 3981 
L 1259 3981 
L 1013 2750 
Q 1425 3038 1878 3038 
Q 2478 3038 2890 2622 
Q 3303 2206 3303 1553 
Q 3303 931 2941 478 
Q 2500 -78 1738 -78 
Q 1113 -78 717 272 
Q 322 622 266 1200 
z
" transform="scale(0.015625)"/>
       </defs>
       <use xlink:href="#ArialMT-35"/>
       <use xlink:href="#ArialMT-30" x="55.615234"/>
       <use xlink:href="#ArialMT-2e" x="111.230469"/>
       <use xlink:href="#ArialMT-30" x="139.013672"/>
      </g>
     </g>
    </g>
    <g id="ytick_3">
     <g id="line2d_21">
      <g>
       <use xlink:href="#m6cacc56960" x="52.489063" y="157.981957" style="stroke: #000000; stroke-width: 0.8"/>
      </g>
     </g>
     <g id="text_6">
      <!-- 100.0 -->
      <g transform="translate(20.467188 161.560863) scale(0.1 -0.1)">
       <use xlink:href="#ArialMT-31"/>
       <use xlink:href="#ArialMT-30" x="55.615234"/>
       <use xlink:href="#ArialMT-30" x="111.230469"/>
       <use xlink:href="#ArialMT-2e" x="166.845703"/>
       <use xlink:href="#ArialMT-30" x="194.628906"/>
      </g>
     </g>
    </g>
    <g id="ytick_4">
     <g id="line2d_22">
      <g>
       <use xlink:href="#m6cacc56960" x="52.489063" y="122.492936" style="stroke: #000000; stroke-width: 0.8"/>
      </g>
     </g>
     <g id="text_7">
      <!-- 150.0 -->
      <g transform="translate(20.467188 126.071842) scale(0.1 -0.1)">
       <use xlink:href="#ArialMT-31"/>
       <use xlink:href="#ArialMT-35" x="55.615234"/>
       <use xlink:href="#ArialMT-30" x="111.230469"/>
       <use xlink:href="#ArialMT-2e" x="166.845703"/>
       <use xlink:href="#ArialMT-30" x="194.628906"/>
      </g>
     </g>
    </g>
    <g id="ytick_5">
     <g id="line2d_23">
      <g>
       <use xlink:href="#m6cacc56960" x="52.489063" y="87.003914" style="stroke: #000000; stroke-width: 0.8"/>
      </g>
     </g>
     <g id="text_8">
      <!-- 200.0 -->
      <g transform="translate(20.467188 90.58282) scale(0.1 -0.1)">
       <defs>
        <path id="ArialMT-32" d="M 3222 541 
L 3222 0 
L 194 0 
Q 188 203 259 391 
Q 375 700 629 1000 
Q 884 1300 1366 1694 
Q 2113 2306 2375 2664 
Q 2638 3022 2638 3341 
Q 2638 3675 2398 3904 
Q 2159 4134 1775 4134 
Q 1369 4134 1125 3890 
Q 881 3647 878 3216 
L 300 3275 
Q 359 3922 746 4261 
Q 1134 4600 1788 4600 
Q 2447 4600 2831 4234 
Q 3216 3869 3216 3328 
Q 3216 3053 3103 2787 
Q 2991 2522 2730 2228 
Q 2469 1934 1863 1422 
Q 1356 997 1212 845 
Q 1069 694 975 541 
L 3222 541 
z
" transform="scale(0.015625)"/>
       </defs>
       <use xlink:href="#ArialMT-32"/>
       <use xlink:href="#ArialMT-30" x="55.615234"/>
       <use xlink:href="#ArialMT-30" x="111.230469"/>
       <use xlink:href="#ArialMT-2e" x="166.845703"/>
       <use xlink:href="#ArialMT-30" x="194.628906"/>
      </g>
     </g>
    </g>
    <g id="ytick_6">
     <g id="line2d_24">
      <g>
       <use xlink:href="#m6cacc56960" x="52.489063" y="51.514893" style="stroke: #000000; stroke-width: 0.8"/>
      </g>
     </g>
     <g id="text_9">
      <!-- 250.0 -->
      <g transform="translate(20.467188 55.093799) scale(0.1 -0.1)">
       <use xlink:href="#ArialMT-32"/>
       <use xlink:href="#ArialMT-35" x="55.615234"/>
       <use xlink:href="#ArialMT-30" x="111.230469"/>
       <use xlink:href="#ArialMT-2e" x="166.845703"/>
       <use xlink:href="#ArialMT-30" x="194.628906"/>
      </g>
     </g>
    </g>
    <g id="ytick_7">
     <g id="line2d_25">
      <g>
       <use xlink:href="#m6cacc56960" x="52.489063" y="16.025871" style="stroke: #000000; stroke-width: 0.8"/>
      </g>
     </g>
     <g id="text_10">
      <!-- 300.0 -->
      <g transform="translate(20.467188 19.604777) scale(0.1 -0.1)">
       <defs>
        <path id="ArialMT-33" d="M 269 1209 
L 831 1284 
Q 928 806 1161 595 
Q 1394 384 1728 384 
Q 2125 384 2398 659 
Q 2672 934 2672 1341 
Q 2672 1728 2419 1979 
Q 2166 2231 1775 2231 
Q 1616 2231 1378 2169 
L 1441 2663 
Q 1497 2656 1531 2656 
Q 1891 2656 2178 2843 
Q 2466 3031 2466 3422 
Q 2466 3731 2256 3934 
Q 2047 4138 1716 4138 
Q 1388 4138 1169 3931 
Q 950 3725 888 3313 
L 325 3413 
Q 428 3978 793 4289 
Q 1159 4600 1703 4600 
Q 2078 4600 2393 4439 
Q 2709 4278 2876 4000 
Q 3044 3722 3044 3409 
Q 3044 3113 2884 2869 
Q 2725 2625 2413 2481 
Q 2819 2388 3044 2092 
Q 3269 1797 3269 1353 
Q 3269 753 2831 336 
Q 2394 -81 1725 -81 
Q 1122 -81 723 278 
Q 325 638 269 1209 
z
" transform="scale(0.015625)"/>
       </defs>
       <use xlink:href="#ArialMT-33"/>
       <use xlink:href="#ArialMT-30" x="55.615234"/>
       <use xlink:href="#ArialMT-30" x="111.230469"/>
       <use xlink:href="#ArialMT-2e" x="166.845703"/>
       <use xlink:href="#ArialMT-30" x="194.628906"/>
      </g>
     </g>
    </g>
    <g id="text_11">
     <!-- H/V Amplitude -->
     <g transform="translate(14.479688 149.762031) rotate(-90) scale(0.1 -0.1)">
      <defs>
       <path id="ArialMT-2f" d="M 0 -78 
L 1328 4659 
L 1778 4659 
L 453 -78 
L 0 -78 
z
" transform="scale(0.015625)"/>
       <path id="ArialMT-56" d="M 1803 0 
L 28 4581 
L 684 4581 
L 1875 1253 
Q 2019 853 2116 503 
Q 2222 878 2363 1253 
L 3600 4581 
L 4219 4581 
L 2425 0 
L 1803 0 
z
" transform="scale(0.015625)"/>
       <path id="ArialMT-41" d="M -9 0 
L 1750 4581 
L 2403 4581 
L 4278 0 
L 3588 0 
L 3053 1388 
L 1138 1388 
L 634 0 
L -9 0 
z
M 1313 1881 
L 2866 1881 
L 2388 3150 
Q 2169 3728 2063 4100 
Q 1975 3659 1816 3225 
L 1313 1881 
z
" transform="scale(0.015625)"/>
       <path id="ArialMT-6d" d="M 422 0 
L 422 3319 
L 925 3319 
L 925 2853 
Q 1081 3097 1340 3245 
Q 1600 3394 1931 3394 
Q 2300 3394 2536 3241 
Q 2772 3088 2869 2813 
Q 3263 3394 3894 3394 
Q 4388 3394 4653 3120 
Q 4919 2847 4919 2278 
L 4919 0 
L 4359 0 
L 4359 2091 
Q 4359 2428 4304 2576 
Q 4250 2725 4106 2815 
Q 3963 2906 3769 2906 
Q 3419 2906 3187 2673 
Q 2956 2441 2956 1928 
L 2956 0 
L 2394 0 
L 2394 2156 
Q 2394 2531 2256 2718 
Q 2119 2906 1806 2906 
Q 1569 2906 1367 2781 
Q 1166 2656 1075 2415 
Q 984 2175 984 1722 
L 984 0 
L 422 0 
z
" transform="scale(0.015625)"/>
       <path id="ArialMT-70" d="M 422 -1272 
L 422 3319 
L 934 3319 
L 934 2888 
Q 1116 3141 1344 3267 
Q 1572 3394 1897 3394 
Q 2322 3394 2647 3175 
Q 2972 2956 3137 2557 
Q 3303 2159 3303 1684 
Q 3303 1175 3120 767 
Q 2938 359 2589 142 
Q 2241 -75 1856 -75 
Q 1575 -75 1351 44 
Q 1128 163 984 344 
L 984 -1272 
L 422 -1272 
z
M 931 1641 
Q 931 1000 1190 694 
Q 1450 388 1819 388 
Q 2194 388 2461 705 
Q 2728 1022 2728 1688 
Q 2728 2322 2467 2637 
Q 2206 2953 1844 2953 
Q 1484 2953 1207 2617 
Q 931 2281 931 1641 
z
" transform="scale(0.015625)"/>
       <path id="ArialMT-6c" d="M 409 0 
L 409 4581 
L 972 4581 
L 972 0 
L 409 0 
z
" transform="scale(0.015625)"/>
       <path id="ArialMT-69" d="M 425 3934 
L 425 4581 
L 988 4581 
L 988 3934 
L 425 3934 
z
M 425 0 
L 425 3319 
L 988 3319 
L 988 0 
L 425 0 
z
" transform="scale(0.015625)"/>
       <path id="ArialMT-74" d="M 1650 503 
L 1731 6 
Q 1494 -44 1306 -44 
Q 1000 -44 831 53 
Q 663 150 594 308 
Q 525 466 525 972 
L 525 2881 
L 113 2881 
L 113 3319 
L 525 3319 
L 525 4141 
L 1084 4478 
L 1084 3319 
L 1650 3319 
L 1650 2881 
L 1084 2881 
L 1084 941 
Q 1084 700 1114 631 
Q 1144 563 1211 522 
Q 1278 481 1403 481 
Q 1497 481 1650 503 
z
" transform="scale(0.015625)"/>
       <path id="ArialMT-64" d="M 2575 0 
L 2575 419 
Q 2259 -75 1647 -75 
Q 1250 -75 917 144 
Q 584 363 401 755 
Q 219 1147 219 1656 
Q 219 2153 384 2558 
Q 550 2963 881 3178 
Q 1213 3394 1622 3394 
Q 1922 3394 2156 3267 
Q 2391 3141 2538 2938 
L 2538 4581 
L 3097 4581 
L 3097 0 
L 2575 0 
z
M 797 1656 
Q 797 1019 1065 703 
Q 1334 388 1700 388 
Q 2069 388 2326 689 
Q 2584 991 2584 1609 
Q 2584 2291 2321 2609 
Q 2059 2928 1675 2928 
Q 1300 2928 1048 2622 
Q 797 2316 797 1656 
z
" transform="scale(0.015625)"/>
      </defs>
      <use xlink:href="#ArialMT-48"/>
      <use xlink:href="#ArialMT-2f" x="72.216797"/>
      <use xlink:href="#ArialMT-56" x="100"/>
      <use xlink:href="#ArialMT-20" x="166.699219"/>
      <use xlink:href="#ArialMT-41" x="188.982422"/>
      <use xlink:href="#ArialMT-6d" x="255.681641"/>
      <use xlink:href="#ArialMT-70" x="338.982422"/>
      <use xlink:href="#ArialMT-6c" x="394.597656"/>
      <use xlink:href="#ArialMT-69" x="416.814453"/>
      <use xlink:href="#ArialMT-74" x="439.03125"/>
      <use xlink:href="#ArialMT-75" x="466.814453"/>
      <use xlink:href="#ArialMT-64" x="522.429688"/>
      <use xlink:href="#ArialMT-65" x="578.044922"/>
     </g>
    </g>
   </g>
   <g id="line2d_26">
    <path d="M 52.489063 48.113862 
L 54.863632 34.033576 
L 57.238202 17.748602 
L 59.612772 27.353112 
L 61.987342 57.296073 
L 64.361912 81.612324 
L 66.736482 93.658164 
L 69.111052 99.323479 
L 71.485622 106.088646 
L 73.860192 118.146696 
L 76.234762 133.692034 
L 78.609332 148.183078 
L 80.983902 159.249308 
L 83.358472 166.58228 
L 85.733042 170.393709 
L 88.107612 170.86911 
L 90.482182 168.115208 
L 95.231322 156.925487 
L 97.605892 154.599395 
L 99.980462 154.897947 
L 102.355032 154.150202 
L 104.729602 152.463637 
L 107.104172 154.505122 
L 109.478742 163.022109 
L 111.853312 173.99983 
L 114.227882 183.005954 
L 116.602452 188.887518 
L 118.977022 191.661412 
L 121.351592 191.145178 
L 123.726162 187.416618 
L 126.100732 182.319627 
L 128.475302 179.86756 
L 130.849872 182.670772 
L 135.599012 194.946989 
L 137.973582 198.43073 
L 140.348152 199.632866 
L 142.722722 200.612041 
L 145.097292 203.265971 
L 149.846432 211.867383 
L 152.221002 214.457051 
L 154.595572 215.445463 
L 161.719282 216.312478 
L 164.093852 216.101176 
L 166.468422 214.763585 
L 171.217562 209.502796 
L 173.592132 208.991184 
L 175.966702 210.931248 
L 178.341272 213.442344 
L 180.715842 215.61188 
L 183.090412 217.293513 
L 185.464982 218.235371 
L 187.839552 218.281224 
L 190.214122 217.909881 
L 192.588692 218.410647 
L 197.337832 222.02319 
L 199.712402 223.202533 
L 202.086972 223.888256 
L 206.836112 224.891053 
L 209.210682 225.2878 
L 211.585252 225.522588 
L 218.708962 225.890783 
L 223.458102 226.397931 
L 228.207242 226.919326 
L 232.956382 227.054156 
L 237.705522 227.190097 
L 247.203802 227.801693 
L 251.952942 227.72716 
L 275.698642 226.765084 
L 280.447782 226.667092 
L 287.571492 226.214757 
L 289.946062 226.068991 
L 292.320632 226.036768 
L 311.317192 226.733951 
L 318.440902 227.067608 
L 325.564612 227.749393 
L 327.939182 227.806845 
L 332.688322 227.61511 
L 339.812032 227.253503 
L 356.434022 227.011758 
L 365.932302 227.311614 
L 377.805151 227.416699 
L 387.303431 227.674331 
L 392.052571 227.526592 
L 396.801711 227.254995 
L 401.550851 227.35249 
L 405.219531 227.493681 
L 405.219531 227.493681 
" clip-path="url(#p98f380ccf2)" style="fill: none; stroke: #808080; stroke-opacity: 0.5; stroke-width: 0.5; stroke-linecap: square"/>
   </g>
   <g id="line2d_27">
    <path d="M 52.489063 224.285516 
L 54.863632 224.205096 
L 57.238202 224.777978 
L 59.612772 225.517799 
L 61.987342 225.894816 
L 64.361912 225.889445 
L 66.736482 225.766266 
L 69.111052 225.795477 
L 73.860192 226.139262 
L 76.234762 226.055532 
L 80.983902 225.524683 
L 83.358472 225.450779 
L 85.733042 225.610733 
L 95.231322 226.711477 
L 99.980462 226.79315 
L 109.478742 226.727739 
L 116.602452 226.860069 
L 121.351592 227.048688 
L 123.726162 226.98668 
L 128.475302 226.58143 
L 130.849872 226.52964 
L 137.973582 226.966104 
L 145.097292 226.950193 
L 159.344712 227.892091 
L 164.093852 227.954977 
L 175.966702 227.726877 
L 183.090412 228.093311 
L 190.214122 228.149365 
L 199.712402 227.917395 
L 211.585252 228.542598 
L 216.334392 228.505027 
L 223.458102 228.293329 
L 232.956382 228.290759 
L 237.705522 228.276198 
L 244.829232 228.370458 
L 256.702082 228.269929 
L 268.574932 228.437269 
L 306.568052 228.455668 
L 332.688322 228.486399 
L 405.219531 228.493801 
L 405.219531 228.493801 
" clip-path="url(#p98f380ccf2)" style="fill: none; stroke: #808080; stroke-opacity: 0.5; stroke-width: 0.5; stroke-linecap: square"/>
   </g>
   <g id="line2d_28">
    <path d="M 52.489063 223.095443 
L 66.736482 224.322094 
L 71.485622 225.106433 
L 73.860192 225.546179 
L 76.234762 225.839962 
L 78.609332 225.918248 
L 83.358472 225.665099 
L 85.733042 225.458212 
L 88.107612 225.112515 
L 90.482182 224.487973 
L 95.231322 222.56978 
L 97.605892 222.405444 
L 102.355032 223.969836 
L 104.729602 224.48086 
L 118.977022 226.421601 
L 126.100732 227.004193 
L 128.475302 227.067614 
L 133.224442 226.883154 
L 135.599012 226.779921 
L 137.973582 226.869294 
L 142.722722 227.378568 
L 147.471862 227.650205 
L 154.595572 227.861478 
L 166.468422 227.932305 
L 173.592132 227.90964 
L 178.341272 227.869389 
L 194.963262 228.340755 
L 206.836112 228.247869 
L 216.334392 228.280788 
L 221.083532 228.255976 
L 230.581812 228.454057 
L 259.076652 228.361325 
L 268.574932 228.433339 
L 287.571492 228.494863 
L 316.066332 228.44138 
L 342.186602 228.45746 
L 351.684882 228.436734 
L 365.932302 228.508114 
L 405.219531 228.502854 
L 405.219531 228.502854 
" clip-path="url(#p98f380ccf2)" style="fill: none; stroke: #808080; stroke-opacity: 0.5; stroke-width: 0.5; stroke-linecap: square"/>
   </g>
   <g id="line2d_29">
    <path d="M 52.489063 209.842946 
L 54.863632 211.073642 
L 57.238202 211.676055 
L 59.612772 211.685044 
L 61.987342 211.21828 
L 64.361912 210.414492 
L 66.736482 209.377499 
L 73.860192 205.743672 
L 76.234762 204.925393 
L 78.609332 204.478482 
L 83.358472 203.792728 
L 85.733042 203.351115 
L 88.107612 203.4275 
L 90.482182 204.763736 
L 92.856752 207.330801 
L 95.231322 210.121034 
L 97.605892 212.133953 
L 99.980462 212.945071 
L 102.355032 212.526142 
L 104.729602 211.086538 
L 107.104172 209.263805 
L 109.478742 208.297764 
L 111.853312 209.118068 
L 116.602452 213.073994 
L 118.977022 214.402954 
L 121.351592 215.082075 
L 123.726162 215.195013 
L 126.100732 214.74347 
L 128.475302 213.708302 
L 133.224442 210.755404 
L 135.599012 209.875638 
L 137.973582 210.032925 
L 140.348152 211.325144 
L 145.097292 215.473503 
L 147.471862 216.944607 
L 149.846432 217.465763 
L 152.221002 216.821021 
L 154.595572 214.749356 
L 156.970142 211.297712 
L 159.344712 208.14928 
L 161.719282 208.09081 
L 164.093852 210.346705 
L 166.468422 212.369448 
L 168.842992 213.483959 
L 171.217562 214.091987 
L 175.966702 215.094492 
L 178.341272 215.920514 
L 180.715842 217.236192 
L 183.090412 218.694937 
L 185.464982 219.78453 
L 187.839552 220.353208 
L 192.588692 220.858515 
L 194.963262 221.391999 
L 202.086972 223.534981 
L 204.461542 224.01363 
L 209.210682 224.626412 
L 230.581812 227.082268 
L 237.705522 227.973551 
L 242.454662 228.230947 
L 251.952942 228.266937 
L 261.451222 228.022536 
L 275.698642 227.579713 
L 285.196922 227.825263 
L 294.695202 227.540117 
L 301.818912 227.247057 
L 306.568052 227.601163 
L 311.317192 227.927226 
L 316.066332 228.00884 
L 327.939182 227.957677 
L 337.437462 227.897394 
L 344.561172 227.817601 
L 351.684882 228.087783 
L 356.434022 228.179623 
L 370.681441 228.11992 
L 377.805151 228.341799 
L 396.801711 228.338571 
L 405.219531 228.446833 
L 405.219531 228.446833 
" clip-path="url(#p98f380ccf2)" style="fill: none; stroke: #808080; stroke-opacity: 0.5; stroke-width: 0.5; stroke-linecap: square"/>
   </g>
   <g id="line2d_30">
    <path d="M 52.489063 223.974325 
L 54.863632 225.067683 
L 57.238202 225.927453 
L 59.612772 226.57212 
L 61.987342 227.031054 
L 64.361912 227.332455 
L 66.736482 227.48246 
L 69.111052 227.458943 
L 76.234762 226.912455 
L 80.983902 226.911032 
L 83.358472 226.776717 
L 85.733042 226.415103 
L 88.107612 225.887158 
L 90.482182 225.502117 
L 92.856752 225.606755 
L 97.605892 226.616556 
L 99.980462 226.814764 
L 102.355032 226.555789 
L 104.729602 225.740243 
L 107.104172 224.550071 
L 109.478742 224.035713 
L 111.853312 224.854294 
L 114.227882 225.968619 
L 116.602452 226.662687 
L 118.977022 226.905751 
L 126.100732 226.931594 
L 137.973582 227.579203 
L 142.722722 227.520903 
L 147.471862 227.167171 
L 152.221002 226.634883 
L 156.970142 226.421099 
L 159.344712 226.431123 
L 161.719282 226.627189 
L 171.217562 228.087605 
L 175.966702 228.359181 
L 187.839552 228.467012 
L 221.083532 228.132949 
L 228.207242 228.293578 
L 247.203802 228.423748 
L 268.574932 228.583305 
L 275.698642 228.594474 
L 285.196922 228.614582 
L 311.317192 228.527013 
L 320.815472 228.527632 
L 335.062892 228.419647 
L 344.561172 228.385788 
L 354.059452 228.424364 
L 365.932302 228.543524 
L 394.427141 228.378284 
L 401.550851 228.381253 
L 405.219531 228.323621 
L 405.219531 228.323621 
" clip-path="url(#p98f380ccf2)" style="fill: none; stroke: #808080; stroke-opacity: 0.5; stroke-width: 0.5; stroke-linecap: square"/>
   </g>
   <g id="line2d_31">
    <path d="M 52.489063 224.124583 
L 57.238202 226.245209 
L 59.612772 226.780522 
L 61.987342 226.782701 
L 66.736482 226.199943 
L 69.111052 226.095026 
L 71.485622 226.245702 
L 78.609332 226.998802 
L 83.358472 227.244273 
L 88.107612 227.107776 
L 92.856752 226.853013 
L 99.980462 226.022265 
L 102.355032 226.118404 
L 109.478742 227.052258 
L 114.227882 227.240916 
L 118.977022 227.153752 
L 121.351592 227.264317 
L 126.100732 227.709221 
L 130.849872 227.902404 
L 137.973582 227.97466 
L 142.722722 227.736269 
L 147.471862 227.418597 
L 149.846432 227.505015 
L 159.344712 228.299167 
L 164.093852 228.357914 
L 168.842992 228.235353 
L 173.592132 228.074007 
L 187.839552 228.174283 
L 192.588692 228.096823 
L 209.210682 228.281576 
L 216.334392 228.30508 
L 223.458102 228.231396 
L 232.956382 228.47357 
L 244.829232 228.339291 
L 251.952942 228.214265 
L 259.076652 228.411191 
L 268.574932 228.569133 
L 287.571492 228.696297 
L 297.069772 228.653379 
L 311.317192 228.685661 
L 354.059452 228.464825 
L 370.681441 228.469889 
L 405.219531 228.319514 
L 405.219531 228.319514 
" clip-path="url(#p98f380ccf2)" style="fill: none; stroke: #808080; stroke-opacity: 0.5; stroke-width: 0.5; stroke-linecap: square"/>
   </g>
   <g id="line2d_32">
    <path d="M 52.489063 227.211762 
L 54.863632 227.318788 
L 64.361912 227.148355 
L 66.736482 226.907883 
L 69.111052 226.222393 
L 71.485622 225.07021 
L 73.860192 224.534487 
L 76.234762 225.279936 
L 78.609332 226.277313 
L 80.983902 226.939268 
L 83.358472 227.242544 
L 90.482182 227.531601 
L 95.231322 228.070225 
L 97.605892 228.182113 
L 99.980462 228.167592 
L 102.355032 228.029197 
L 109.478742 227.322748 
L 121.351592 227.271003 
L 126.100732 227.209298 
L 133.224442 227.288533 
L 140.348152 227.121734 
L 156.970142 227.643719 
L 166.468422 227.688174 
L 178.341272 228.392341 
L 185.464982 228.364794 
L 192.588692 228.373158 
L 204.461542 228.494406 
L 218.708962 228.426282 
L 225.832672 228.488263 
L 232.956382 228.404357 
L 240.080092 228.386166 
L 247.203802 228.33177 
L 256.702082 228.539495 
L 287.571492 228.377211 
L 299.444342 228.247052 
L 306.568052 228.23879 
L 318.440902 228.384096 
L 349.310312 228.335624 
L 361.183162 228.465111 
L 405.219531 228.338202 
L 405.219531 228.338202 
" clip-path="url(#p98f380ccf2)" style="fill: none; stroke: #808080; stroke-opacity: 0.5; stroke-width: 0.5; stroke-linecap: square"/>
   </g>
   <g id="line2d_33">
    <path d="M 52.489063 227.037033 
L 57.238202 226.393971 
L 59.612772 226.408395 
L 64.361912 226.73918 
L 66.736482 226.646481 
L 71.485622 225.975049 
L 73.860192 225.890732 
L 80.983902 226.659388 
L 83.358472 226.60192 
L 85.733042 226.315907 
L 90.482182 225.488988 
L 92.856752 225.517383 
L 95.231322 225.816949 
L 97.605892 225.997738 
L 99.980462 225.822231 
L 104.729602 224.758956 
L 107.104172 225.106313 
L 109.478742 226.153478 
L 111.853312 226.969064 
L 114.227882 227.352524 
L 118.977022 227.478297 
L 123.726162 227.537725 
L 140.348152 228.05092 
L 147.471862 227.980105 
L 154.595572 228.17143 
L 159.344712 227.949553 
L 161.719282 227.786462 
L 164.093852 227.767165 
L 171.217562 228.134119 
L 180.715842 228.156021 
L 187.839552 228.442169 
L 194.963262 228.457585 
L 202.086972 228.46396 
L 211.585252 228.585129 
L 237.705522 228.546642 
L 244.829232 228.570111 
L 259.076652 228.596924 
L 325.564612 228.44721 
L 335.062892 228.373749 
L 346.935742 228.42042 
L 358.808592 228.413863 
L 368.306872 228.446546 
L 380.179721 228.374545 
L 389.678001 228.257745 
L 396.801711 228.038127 
L 401.550851 227.796875 
L 405.219531 227.831731 
L 405.219531 227.831731 
" clip-path="url(#p98f380ccf2)" style="fill: none; stroke: #808080; stroke-opacity: 0.5; stroke-width: 0.5; stroke-linecap: square"/>
   </g>
   <g id="line2d_34">
    <path d="M 52.489063 227.37885 
L 57.238202 227.318316 
L 61.987342 227.115927 
L 66.736482 227.341917 
L 71.485622 227.60288 
L 80.983902 227.662893 
L 83.358472 227.667903 
L 85.733042 227.553703 
L 88.107612 227.240701 
L 90.482182 226.696696 
L 95.231322 225.200013 
L 97.605892 225.104503 
L 102.355032 226.498102 
L 104.729602 226.978702 
L 109.478742 227.611719 
L 111.853312 227.782147 
L 114.227882 227.77691 
L 116.602452 227.546411 
L 118.977022 227.08136 
L 121.351592 226.49917 
L 123.726162 226.033986 
L 126.100732 225.881148 
L 128.475302 226.164138 
L 133.224442 227.392124 
L 135.599012 227.80916 
L 137.973582 228.018952 
L 140.348152 228.046376 
L 142.722722 227.906481 
L 147.471862 227.358313 
L 149.846432 227.26042 
L 152.221002 227.420888 
L 156.970142 228.024261 
L 161.719282 228.282766 
L 171.217562 228.426842 
L 178.341272 228.223304 
L 183.090412 228.116621 
L 190.214122 228.149616 
L 197.337832 228.042929 
L 209.210682 228.195782 
L 213.959822 228.245273 
L 221.083532 228.424055 
L 232.956382 228.461298 
L 240.080092 228.506451 
L 259.076652 228.441381 
L 270.949502 228.484242 
L 287.571492 228.354248 
L 294.695202 228.282689 
L 304.193482 228.278727 
L 311.317192 228.275273 
L 320.815472 228.345826 
L 354.059452 228.270264 
L 370.681441 228.425529 
L 380.179721 228.345355 
L 392.052571 228.364649 
L 405.219531 228.366858 
L 405.219531 228.366858 
" clip-path="url(#p98f380ccf2)" style="fill: none; stroke: #808080; stroke-opacity: 0.5; stroke-width: 0.5; stroke-linecap: square"/>
   </g>
   <g id="line2d_35">
    <path d="M 52.489063 227.702703 
L 54.863632 227.323868 
L 57.238202 226.765407 
L 64.361912 224.680326 
L 66.736482 224.592675 
L 69.111052 225.19757 
L 71.485622 225.956758 
L 73.860192 226.257184 
L 78.609332 225.776279 
L 80.983902 225.863866 
L 85.733042 226.92168 
L 88.107612 227.239938 
L 90.482182 227.2846 
L 92.856752 227.082156 
L 97.605892 226.217409 
L 99.980462 226.124575 
L 102.355032 226.601157 
L 104.729602 227.236625 
L 107.104172 227.67741 
L 109.478742 227.852569 
L 111.853312 227.737628 
L 116.602452 226.773835 
L 118.977022 226.677536 
L 128.475302 227.689162 
L 130.849872 227.588606 
L 137.973582 226.793826 
L 140.348152 226.757568 
L 142.722722 226.967502 
L 147.471862 227.668422 
L 149.846432 227.901313 
L 154.595572 228.011598 
L 166.468422 227.784541 
L 171.217562 228.002589 
L 187.839552 228.091911 
L 213.959822 228.601927 
L 251.952942 228.522947 
L 259.076652 228.567844 
L 270.949502 228.46206 
L 289.946062 228.639812 
L 299.444342 228.649934 
L 308.942622 228.605646 
L 320.815472 228.48964 
L 332.688322 228.423729 
L 344.561172 228.36968 
L 384.928861 228.461572 
L 405.219531 228.308394 
L 405.219531 228.308394 
" clip-path="url(#p98f380ccf2)" style="fill: none; stroke: #808080; stroke-opacity: 0.5; stroke-width: 0.5; stroke-linecap: square"/>
   </g>
   <g id="line2d_36">
    <path d="M 52.489063 226.590174 
L 54.863632 226.752824 
L 59.612772 227.575805 
L 61.987342 227.652728 
L 64.361912 227.359679 
L 66.736482 226.596017 
L 69.111052 225.416951 
L 71.485622 224.569841 
L 73.860192 224.865729 
L 76.234762 225.731071 
L 78.609332 226.430412 
L 80.983902 226.802634 
L 85.733042 226.993307 
L 90.482182 227.229336 
L 102.355032 228.175602 
L 104.729602 228.15965 
L 107.104172 228.018266 
L 109.478742 227.756362 
L 114.227882 226.900214 
L 116.602452 226.419954 
L 118.977022 226.110091 
L 121.351592 226.109252 
L 133.224442 227.384067 
L 137.973582 228.128869 
L 140.348152 228.338773 
L 142.722722 228.349818 
L 145.097292 228.195114 
L 149.846432 227.602714 
L 152.221002 227.468036 
L 154.595572 227.60917 
L 159.344712 228.097993 
L 164.093852 228.288147 
L 168.842992 228.195631 
L 173.592132 228.076293 
L 187.839552 228.493773 
L 204.461542 228.198465 
L 218.708962 228.674221 
L 254.327512 228.407918 
L 268.574932 228.564629 
L 275.698642 228.663889 
L 282.822352 228.509624 
L 287.571492 228.389598 
L 301.818912 228.453579 
L 311.317192 228.326393 
L 327.939182 228.308617 
L 335.062892 228.255075 
L 344.561172 228.372789 
L 358.808592 228.365202 
L 370.681441 228.442724 
L 405.219531 228.345763 
L 405.219531 228.345763 
" clip-path="url(#p98f380ccf2)" style="fill: none; stroke: #808080; stroke-opacity: 0.5; stroke-width: 0.5; stroke-linecap: square"/>
   </g>
   <g id="line2d_37">
    <path d="M 52.489063 227.482435 
L 61.987342 227.779496 
L 66.736482 228.176063 
L 69.111052 228.208515 
L 71.485622 228.096397 
L 73.860192 227.829697 
L 76.234762 227.375046 
L 78.609332 226.745546 
L 80.983902 226.239875 
L 83.358472 226.276649 
L 85.733042 226.61906 
L 88.107612 226.798134 
L 90.482182 226.657218 
L 92.856752 226.393518 
L 95.231322 226.472627 
L 99.980462 227.14909 
L 102.355032 227.30157 
L 107.104172 227.253231 
L 111.853312 226.970362 
L 114.227882 226.951229 
L 118.977022 227.260015 
L 123.726162 227.761814 
L 126.100732 227.869609 
L 128.475302 227.810453 
L 133.224442 227.499885 
L 140.348152 227.604915 
L 154.595572 227.743056 
L 164.093852 227.426408 
L 173.592132 227.847225 
L 178.341272 227.929052 
L 185.464982 228.220576 
L 194.963262 228.219372 
L 199.712402 228.410072 
L 204.461542 228.37329 
L 209.210682 228.263423 
L 240.080092 228.596589 
L 263.825792 228.534794 
L 275.698642 228.380212 
L 304.193482 228.571132 
L 320.815472 228.430245 
L 339.812032 228.362525 
L 346.935742 228.188227 
L 375.430581 228.520499 
L 403.925421 228.255768 
L 405.219531 228.277093 
L 405.219531 228.277093 
" clip-path="url(#p98f380ccf2)" style="fill: none; stroke: #808080; stroke-opacity: 0.5; stroke-width: 0.5; stroke-linecap: square"/>
   </g>
   <g id="line2d_38">
    <path d="M 52.489063 227.007765 
L 54.863632 226.972866 
L 57.238202 227.161616 
L 61.987342 227.78347 
L 66.736482 228.18251 
L 71.485622 228.428083 
L 78.609332 228.518339 
L 83.358472 228.521766 
L 85.733042 228.428585 
L 90.482182 227.891303 
L 92.856752 227.624575 
L 95.231322 227.523005 
L 104.729602 227.489105 
L 109.478742 227.332174 
L 114.227882 227.699093 
L 118.977022 227.632318 
L 121.351592 227.548216 
L 123.726162 227.589089 
L 128.475302 227.907256 
L 130.849872 227.949743 
L 133.224442 227.827976 
L 135.599012 227.474846 
L 137.973582 226.806164 
L 140.348152 225.982908 
L 142.722722 225.768575 
L 149.846432 227.630229 
L 152.221002 227.869527 
L 156.970142 227.894796 
L 161.719282 227.872988 
L 187.839552 228.42573 
L 194.963262 228.338766 
L 202.086972 228.322634 
L 209.210682 228.220506 
L 213.959822 228.204531 
L 221.083532 228.541879 
L 240.080092 228.532981 
L 247.203802 228.374259 
L 261.451222 228.612842 
L 270.949502 228.373973 
L 294.695202 228.507096 
L 304.193482 228.535432 
L 311.317192 228.490131 
L 320.815472 228.367237 
L 339.812032 228.386358 
L 361.183162 228.470985 
L 368.306872 228.471642 
L 380.179721 228.343604 
L 394.427141 228.442749 
L 405.219531 228.343798 
L 405.219531 228.343798 
" clip-path="url(#p98f380ccf2)" style="fill: none; stroke: #808080; stroke-opacity: 0.5; stroke-width: 0.5; stroke-linecap: square"/>
   </g>
   <g id="line2d_39">
    <path d="M 52.489063 226.492727 
L 57.238202 227.013544 
L 61.987342 227.521523 
L 64.361912 227.647745 
L 66.736482 227.485769 
L 69.111052 226.890453 
L 71.485622 225.94602 
L 73.860192 225.337112 
L 76.234762 225.522711 
L 78.609332 225.87964 
L 80.983902 225.897779 
L 83.358472 225.508092 
L 85.733042 224.752513 
L 88.107612 223.760944 
L 90.482182 223.128068 
L 92.856752 223.55434 
L 95.231322 224.493513 
L 97.605892 225.200467 
L 99.980462 225.573963 
L 104.729602 225.922615 
L 116.602452 226.518773 
L 123.726162 226.862192 
L 128.475302 226.988792 
L 133.224442 226.887075 
L 137.973582 226.754681 
L 152.221002 227.593449 
L 161.719282 227.984689 
L 166.468422 227.997598 
L 171.217562 227.933106 
L 187.839552 228.252625 
L 194.963262 228.271402 
L 202.086972 228.366692 
L 209.210682 228.267154 
L 218.708962 228.540726 
L 251.952942 228.418312 
L 292.320632 228.4533 
L 311.317192 228.454915 
L 318.440902 228.352569 
L 325.564612 228.391781 
L 337.437462 228.188225 
L 356.434022 228.391083 
L 368.306872 228.466505 
L 380.179721 228.413496 
L 387.303431 228.506266 
L 405.219531 228.355272 
L 405.219531 228.355272 
" clip-path="url(#p98f380ccf2)" style="fill: none; stroke: #808080; stroke-opacity: 0.5; stroke-width: 0.5; stroke-linecap: square"/>
   </g>
   <g id="line2d_40">
    <path d="M 52.489063 228.188265 
L 57.238202 227.998783 
L 61.987342 228.339388 
L 64.361912 228.518758 
L 69.111052 228.527942 
L 73.860192 228.237879 
L 80.983902 227.52396 
L 88.107612 227.234987 
L 90.482182 226.760921 
L 95.231322 225.320939 
L 97.605892 224.909239 
L 99.980462 224.947232 
L 107.104172 226.154975 
L 109.478742 226.297266 
L 114.227882 226.340173 
L 116.602452 226.580331 
L 118.977022 227.010461 
L 121.351592 227.238972 
L 126.100732 227.196809 
L 137.973582 227.00718 
L 156.970142 227.698969 
L 161.719282 227.839782 
L 171.217562 228.240616 
L 194.963262 228.254197 
L 199.712402 228.275266 
L 206.836112 228.454247 
L 211.585252 228.372679 
L 223.458102 227.777684 
L 232.956382 228.190894 
L 256.702082 228.500758 
L 261.451222 228.415815 
L 278.073212 228.505292 
L 301.818912 228.245961 
L 306.568052 228.380635 
L 337.437462 228.2974 
L 346.935742 228.359655 
L 377.805151 228.382181 
L 389.678001 228.511058 
L 405.219531 228.391701 
L 405.219531 228.391701 
" clip-path="url(#p98f380ccf2)" style="fill: none; stroke: #808080; stroke-opacity: 0.5; stroke-width: 0.5; stroke-linecap: square"/>
   </g>
   <g id="line2d_41">
    <path d="M 52.489063 226.816196 
L 57.238202 227.276301 
L 59.612772 227.29054 
L 61.987342 226.959691 
L 64.361912 226.234862 
L 66.736482 225.109558 
L 71.485622 222.421934 
L 73.860192 221.797719 
L 76.234762 221.890496 
L 78.609332 222.267962 
L 80.983902 222.833547 
L 83.358472 223.726636 
L 85.733042 224.785098 
L 88.107612 225.696211 
L 90.482182 226.328396 
L 92.856752 226.721966 
L 97.605892 227.111359 
L 104.729602 227.553017 
L 109.478742 227.478721 
L 114.227882 227.309433 
L 121.351592 227.226577 
L 126.100732 226.803091 
L 128.475302 226.893872 
L 133.224442 227.631016 
L 135.599012 227.783123 
L 140.348152 227.72365 
L 145.097292 227.69317 
L 152.221002 228.293687 
L 154.595572 228.301592 
L 156.970142 228.186699 
L 159.344712 227.924751 
L 164.093852 227.112214 
L 166.468422 227.153262 
L 171.217562 227.921792 
L 173.592132 228.159673 
L 178.341272 228.305512 
L 197.337832 228.282467 
L 202.086972 228.106528 
L 206.836112 228.226071 
L 211.585252 228.440058 
L 216.334392 228.451726 
L 223.458102 228.343907 
L 232.956382 228.389921 
L 240.080092 228.413539 
L 266.200362 228.483107 
L 275.698642 228.404146 
L 285.196922 228.552974 
L 318.440902 228.416004 
L 335.062892 228.282888 
L 344.561172 228.458288 
L 356.434022 228.341698 
L 370.681441 228.470561 
L 389.678001 228.426385 
L 401.550851 228.177433 
L 405.219531 228.24941 
L 405.219531 228.24941 
" clip-path="url(#p98f380ccf2)" style="fill: none; stroke: #808080; stroke-opacity: 0.5; stroke-width: 0.5; stroke-linecap: square"/>
   </g>
   <g id="line2d_42">
    <path d="M 52.489063 223.377019 
L 54.863632 222.106329 
L 57.238202 221.899281 
L 61.987342 222.648045 
L 71.485622 224.195171 
L 76.234762 224.828651 
L 80.983902 225.057359 
L 88.107612 225.060123 
L 90.482182 225.392255 
L 95.231322 226.376944 
L 97.605892 226.645298 
L 99.980462 226.692413 
L 104.729602 226.365204 
L 109.478742 226.02435 
L 111.853312 226.064392 
L 114.227882 226.516489 
L 116.602452 227.118006 
L 118.977022 227.50222 
L 121.351592 227.639377 
L 126.100732 227.522101 
L 133.224442 227.36014 
L 137.973582 227.471597 
L 145.097292 227.86587 
L 149.846432 228.220787 
L 154.595572 228.273342 
L 161.719282 228.113415 
L 173.592132 228.127337 
L 199.712402 228.340749 
L 213.959822 228.467561 
L 244.829232 228.561594 
L 261.451222 228.519002 
L 318.440902 228.435927 
L 325.564612 228.432874 
L 337.437462 228.453538 
L 349.310312 228.325244 
L 361.183162 228.514331 
L 387.303431 228.464449 
L 405.219531 228.367279 
L 405.219531 228.367279 
" clip-path="url(#p98f380ccf2)" style="fill: none; stroke: #808080; stroke-opacity: 0.5; stroke-width: 0.5; stroke-linecap: square"/>
   </g>
   <g id="line2d_43">
    <path d="M 52.489063 227.171059 
L 57.238202 227.32816 
L 59.612772 227.293242 
L 66.736482 226.818394 
L 69.111052 227.018791 
L 73.860192 227.820328 
L 76.234762 228.110751 
L 78.609332 228.267648 
L 95.231322 228.466822 
L 97.605892 228.230089 
L 102.355032 227.178789 
L 104.729602 227.006799 
L 109.478742 227.410352 
L 111.853312 227.363265 
L 118.977022 226.949978 
L 123.726162 227.111174 
L 130.849872 227.706378 
L 137.973582 227.920141 
L 142.722722 228.14865 
L 149.846432 228.11344 
L 159.344712 228.163117 
L 166.468422 228.134927 
L 178.341272 227.974431 
L 183.090412 228.397156 
L 187.839552 228.511644 
L 232.956382 228.476593 
L 237.705522 228.539524 
L 244.829232 228.317748 
L 249.578372 228.244689 
L 259.076652 228.374013 
L 270.949502 228.371201 
L 280.447782 228.539177 
L 289.946062 228.42969 
L 301.818912 228.453689 
L 313.691762 228.221311 
L 320.815472 228.387308 
L 361.183162 228.476925 
L 373.056011 228.419379 
L 380.179721 228.42327 
L 389.678001 228.469795 
L 405.219531 228.385486 
L 405.219531 228.385486 
" clip-path="url(#p98f380ccf2)" style="fill: none; stroke: #808080; stroke-opacity: 0.5; stroke-width: 0.5; stroke-linecap: square"/>
   </g>
   <g id="line2d_44">
    <path d="M 52.489063 227.078867 
L 59.612772 226.297248 
L 61.987342 225.966602 
L 64.361912 225.83578 
L 66.736482 226.15893 
L 69.111052 226.712013 
L 71.485622 227.028363 
L 73.860192 226.870541 
L 76.234762 226.016763 
L 78.609332 224.096823 
L 80.983902 221.53695 
L 83.358472 221.117781 
L 88.107612 225.040996 
L 90.482182 226.177319 
L 92.856752 226.755448 
L 95.231322 226.992136 
L 97.605892 227.010451 
L 102.355032 226.737483 
L 104.729602 226.506203 
L 109.478742 225.636615 
L 111.853312 225.532878 
L 116.602452 226.425529 
L 118.977022 226.616451 
L 128.475302 226.705716 
L 133.224442 226.874007 
L 135.599012 226.919721 
L 137.973582 227.107016 
L 145.097292 227.947646 
L 149.846432 228.207523 
L 156.970142 228.337314 
L 164.093852 228.434714 
L 171.217562 228.586258 
L 178.341272 228.439997 
L 185.464982 228.369257 
L 194.963262 228.46496 
L 204.461542 228.450624 
L 211.585252 228.482275 
L 221.083532 228.2954 
L 249.578372 228.125997 
L 259.076652 227.833801 
L 268.574932 228.35393 
L 273.324072 228.584285 
L 278.073212 228.629383 
L 282.822352 228.498459 
L 294.695202 228.020818 
L 306.568052 227.737909 
L 316.066332 228.382089 
L 323.190042 228.403972 
L 332.688322 228.15389 
L 337.437462 228.012191 
L 342.186602 228.094695 
L 349.310312 228.292241 
L 358.808592 228.330257 
L 365.932302 228.329951 
L 375.430581 228.398621 
L 387.303431 228.415136 
L 405.219531 228.36318 
L 405.219531 228.36318 
" clip-path="url(#p98f380ccf2)" style="fill: none; stroke: #808080; stroke-opacity: 0.5; stroke-width: 0.5; stroke-linecap: square"/>
   </g>
   <g id="line2d_45">
    <path d="M 52.489063 227.988638 
L 54.863632 228.262191 
L 59.612772 228.506908 
L 64.361912 228.517934 
L 69.111052 228.266185 
L 73.860192 228.021167 
L 78.609332 227.754931 
L 80.983902 227.40914 
L 83.358472 226.92303 
L 85.733042 226.635984 
L 88.107612 226.953003 
L 90.482182 227.494893 
L 92.856752 227.774948 
L 95.231322 227.710367 
L 99.980462 227.12713 
L 102.355032 227.153227 
L 107.104172 227.551971 
L 116.602452 228.035294 
L 121.351592 228.201664 
L 137.973582 228.091819 
L 142.722722 227.893077 
L 147.471862 227.959728 
L 159.344712 228.478599 
L 171.217562 228.397522 
L 175.966702 228.425389 
L 183.090412 228.131718 
L 187.839552 227.99517 
L 192.588692 228.226285 
L 197.337832 228.442677 
L 202.086972 228.305643 
L 206.836112 228.127681 
L 211.585252 228.31356 
L 216.334392 228.493204 
L 221.083532 228.361643 
L 225.832672 228.151953 
L 237.705522 228.252507 
L 251.952942 228.375745 
L 263.825792 228.266497 
L 270.949502 228.127185 
L 282.822352 228.342058 
L 289.946062 228.266315 
L 306.568052 228.392668 
L 316.066332 228.189219 
L 327.939182 228.248436 
L 335.062892 228.28533 
L 344.561172 228.301331 
L 361.183162 228.418228 
L 405.219531 228.333171 
L 405.219531 228.333171 
" clip-path="url(#p98f380ccf2)" style="fill: none; stroke: #808080; stroke-opacity: 0.5; stroke-width: 0.5; stroke-linecap: square"/>
   </g>
   <g id="line2d_46">
    <path d="M 52.489063 226.135359 
L 54.863632 226.057064 
L 57.238202 226.458905 
L 61.987342 227.560029 
L 64.361912 227.902233 
L 66.736482 228.042124 
L 73.860192 228.112338 
L 80.983902 228.494252 
L 85.733042 228.542469 
L 97.605892 228.181833 
L 99.980462 228.048237 
L 104.729602 227.401297 
L 107.104172 227.244788 
L 114.227882 227.080545 
L 116.602452 226.819837 
L 118.977022 226.700766 
L 121.351592 227.041063 
L 123.726162 227.506867 
L 126.100732 227.843766 
L 130.849872 228.171836 
L 135.599012 228.196347 
L 152.221002 227.82637 
L 156.970142 228.012026 
L 166.468422 227.97821 
L 173.592132 228.207057 
L 180.715842 228.273402 
L 190.214122 228.129492 
L 202.086972 228.37036 
L 206.836112 228.358776 
L 216.334392 228.559207 
L 254.327512 228.175228 
L 263.825792 228.276006 
L 278.073212 228.290452 
L 285.196922 228.02556 
L 289.946062 228.043729 
L 299.444342 228.237366 
L 320.815472 228.259888 
L 330.313752 228.302069 
L 356.434022 228.228563 
L 365.932302 228.341231 
L 387.303431 228.315753 
L 394.427141 228.14466 
L 405.219531 228.359435 
L 405.219531 228.359435 
" clip-path="url(#p98f380ccf2)" style="fill: none; stroke: #808080; stroke-opacity: 0.5; stroke-width: 0.5; stroke-linecap: square"/>
   </g>
   <g id="line2d_47">
    <path d="M 52.489063 227.592971 
L 54.863632 227.843318 
L 57.238202 227.911258 
L 59.612772 227.80199 
L 61.987342 227.522838 
L 66.736482 226.758384 
L 69.111052 226.862708 
L 73.860192 227.990156 
L 76.234762 228.36228 
L 80.983902 228.676148 
L 85.733042 228.674405 
L 97.605892 228.257641 
L 102.355032 228.380217 
L 104.729602 228.33355 
L 107.104172 228.139072 
L 109.478742 227.731434 
L 116.602452 225.859061 
L 118.977022 225.868354 
L 123.726162 226.613572 
L 137.973582 228.091562 
L 145.097292 228.278216 
L 161.719282 228.524898 
L 197.337832 228.394487 
L 206.836112 228.376519 
L 211.585252 228.298391 
L 225.832672 228.424935 
L 230.581812 228.449945 
L 237.705522 228.538534 
L 261.451222 228.367632 
L 270.949502 228.380135 
L 285.196922 228.563283 
L 294.695202 228.540371 
L 301.818912 228.511672 
L 311.317192 228.369559 
L 344.561172 228.307654 
L 349.310312 228.282766 
L 363.557732 228.511067 
L 387.303431 228.309603 
L 405.219531 228.33153 
L 405.219531 228.33153 
" clip-path="url(#p98f380ccf2)" style="fill: none; stroke: #808080; stroke-opacity: 0.5; stroke-width: 0.5; stroke-linecap: square"/>
   </g>
   <g id="line2d_48">
    <path d="M 52.489063 228.129147 
L 59.612772 227.75989 
L 66.736482 227.875116 
L 73.860192 228.107768 
L 83.358472 228.065347 
L 88.107612 227.961197 
L 92.856752 228.134968 
L 97.605892 228.383413 
L 102.355032 228.430329 
L 107.104172 228.315193 
L 109.478742 228.188283 
L 111.853312 227.938485 
L 116.602452 226.970253 
L 118.977022 226.831722 
L 126.100732 227.57037 
L 130.849872 227.733859 
L 135.599012 227.834492 
L 142.722722 228.157743 
L 149.846432 228.039017 
L 159.344712 228.494928 
L 164.093852 228.415583 
L 171.217562 228.124361 
L 178.341272 228.187415 
L 185.464982 227.988408 
L 194.963262 228.450702 
L 204.461542 228.508417 
L 211.585252 228.308474 
L 223.458102 228.519536 
L 261.451222 228.447971 
L 268.574932 228.517438 
L 280.447782 228.310688 
L 287.571492 228.316009 
L 294.695202 228.315021 
L 301.818912 228.354375 
L 311.317192 228.323915 
L 318.440902 228.420412 
L 342.186602 228.272429 
L 358.808592 228.421817 
L 363.557732 228.526052 
L 399.176281 228.32109 
L 405.219531 228.302732 
L 405.219531 228.302732 
" clip-path="url(#p98f380ccf2)" style="fill: none; stroke: #808080; stroke-opacity: 0.5; stroke-width: 0.5; stroke-linecap: square"/>
   </g>
   <g id="line2d_49">
    <path d="M 52.489063 228.150235 
L 61.987342 228.145565 
L 66.736482 228.518761 
L 71.485622 228.579696 
L 92.856752 228.275375 
L 97.605892 228.51475 
L 99.980462 228.511873 
L 102.355032 228.373826 
L 104.729602 228.022642 
L 109.478742 226.831032 
L 111.853312 226.595108 
L 114.227882 226.707303 
L 121.351592 227.451021 
L 142.722722 227.994744 
L 147.471862 228.315546 
L 161.719282 228.5029 
L 166.468422 228.562579 
L 183.090412 228.242267 
L 187.839552 228.212848 
L 202.086972 228.499253 
L 211.585252 228.475735 
L 225.832672 228.231964 
L 232.956382 228.320849 
L 242.454662 228.104573 
L 254.327512 228.302682 
L 263.825792 228.471922 
L 278.073212 228.381463 
L 287.571492 228.541298 
L 297.069772 228.511847 
L 308.942622 228.267388 
L 316.066332 228.342999 
L 346.935742 228.111203 
L 363.557732 228.436999 
L 399.176281 228.308679 
L 405.219531 228.222248 
L 405.219531 228.222248 
" clip-path="url(#p98f380ccf2)" style="fill: none; stroke: #808080; stroke-opacity: 0.5; stroke-width: 0.5; stroke-linecap: square"/>
   </g>
   <g id="line2d_50">
    <path d="M 52.489063 228.09279 
L 59.612772 227.199064 
L 64.361912 226.571774 
L 66.736482 226.221666 
L 69.111052 226.084288 
L 71.485622 226.304571 
L 73.860192 226.668356 
L 76.234762 226.918235 
L 78.609332 226.99368 
L 85.733042 226.94017 
L 90.482182 227.327095 
L 95.231322 227.72295 
L 99.980462 227.770582 
L 102.355032 227.633515 
L 104.729602 227.270449 
L 109.478742 225.868612 
L 111.853312 225.727313 
L 116.602452 226.296418 
L 121.351592 226.393152 
L 123.726162 226.749987 
L 126.100732 227.233759 
L 128.475302 227.546276 
L 133.224442 227.792926 
L 145.097292 228.22047 
L 154.595572 227.945013 
L 171.217562 228.518065 
L 183.090412 228.455588 
L 190.214122 228.430748 
L 194.963262 228.44503 
L 202.086972 228.60101 
L 206.836112 228.487925 
L 211.585252 228.178982 
L 213.959822 228.158824 
L 218.708962 228.319758 
L 223.458102 228.147405 
L 228.207242 227.860632 
L 230.581812 227.880122 
L 242.454662 228.513613 
L 249.578372 228.573705 
L 256.702082 228.323429 
L 261.451222 228.115264 
L 266.200362 228.203182 
L 273.324072 228.530146 
L 278.073212 228.449257 
L 282.822352 228.10298 
L 285.196922 227.923875 
L 287.571492 227.906357 
L 299.444342 228.428006 
L 311.317192 228.252617 
L 318.440902 228.099406 
L 323.190042 228.023534 
L 337.437462 228.13336 
L 344.561172 228.2002 
L 361.183162 228.479601 
L 368.306872 228.455599 
L 377.805151 228.424179 
L 389.678001 228.466168 
L 399.176281 228.366898 
L 405.219531 228.386361 
L 405.219531 228.386361 
" clip-path="url(#p98f380ccf2)" style="fill: none; stroke: #808080; stroke-opacity: 0.5; stroke-width: 0.5; stroke-linecap: square"/>
   </g>
   <g id="line2d_51">
    <path d="M 52.489063 228.021559 
L 59.612772 228.374155 
L 78.609332 228.423241 
L 85.733042 228.354537 
L 97.605892 228.434433 
L 104.729602 228.603067 
L 126.100732 228.102924 
L 128.475302 227.978844 
L 133.224442 228.066648 
L 137.973582 228.09401 
L 145.097292 227.781636 
L 149.846432 228.047243 
L 159.344712 228.112465 
L 164.093852 228.354758 
L 171.217562 228.132199 
L 178.341272 227.92378 
L 183.090412 228.0954 
L 187.839552 228.350161 
L 192.588692 228.355324 
L 199.712402 228.107228 
L 204.461542 228.184375 
L 213.959822 228.489802 
L 221.083532 228.513861 
L 235.330952 228.388109 
L 242.454662 228.467366 
L 256.702082 228.341483 
L 266.200362 228.571142 
L 273.324072 228.53103 
L 287.571492 228.190799 
L 294.695202 228.323756 
L 311.317192 228.212539 
L 318.440902 228.310478 
L 323.190042 228.357692 
L 342.186602 228.133333 
L 354.059452 228.175162 
L 365.932302 228.489565 
L 382.554291 228.422874 
L 389.678001 228.375521 
L 401.550851 228.209864 
L 405.219531 228.209474 
L 405.219531 228.209474 
" clip-path="url(#p98f380ccf2)" style="fill: none; stroke: #808080; stroke-opacity: 0.5; stroke-width: 0.5; stroke-linecap: square"/>
   </g>
   <g id="line2d_52">
    <path d="M 52.489063 228.239754 
L 57.238202 228.076929 
L 64.361912 227.416524 
L 71.485622 227.476919 
L 76.234762 227.187339 
L 78.609332 227.325417 
L 83.358472 228.092883 
L 85.733042 228.345599 
L 88.107612 228.464941 
L 92.856752 228.368707 
L 104.729602 227.552029 
L 109.478742 227.443414 
L 111.853312 227.561221 
L 118.977022 228.400953 
L 123.726162 228.483983 
L 130.849872 228.456325 
L 137.973582 228.530894 
L 142.722722 228.432402 
L 147.471862 228.041086 
L 152.221002 227.487456 
L 154.595572 227.522725 
L 159.344712 228.29526 
L 161.719282 228.50798 
L 166.468422 228.62493 
L 171.217562 228.495568 
L 178.341272 228.102969 
L 183.090412 228.017349 
L 202.086972 228.317242 
L 206.836112 228.273323 
L 211.585252 228.140148 
L 221.083532 228.489536 
L 228.207242 228.617589 
L 254.327512 228.424121 
L 268.574932 228.315606 
L 273.324072 228.388607 
L 297.069772 228.297717 
L 323.190042 228.300973 
L 335.062892 228.186322 
L 363.557732 228.455581 
L 380.179721 228.456458 
L 389.678001 228.394745 
L 405.219531 228.286866 
L 405.219531 228.286866 
" clip-path="url(#p98f380ccf2)" style="fill: none; stroke: #808080; stroke-opacity: 0.5; stroke-width: 0.5; stroke-linecap: square"/>
   </g>
   <g id="line2d_53">
    <path d="M 52.489063 226.686255 
L 54.863632 226.277967 
L 57.238202 226.146075 
L 61.987342 226.487311 
L 66.736482 227.202815 
L 69.111052 227.567287 
L 71.485622 227.793612 
L 76.234762 227.887419 
L 83.358472 227.699744 
L 90.482182 227.172008 
L 107.104172 227.193662 
L 114.227882 227.416085 
L 118.977022 227.54491 
L 130.849872 228.30625 
L 137.973582 228.331384 
L 149.846432 228.179469 
L 156.970142 228.346414 
L 168.842992 228.257308 
L 185.464982 228.522305 
L 190.214122 228.464353 
L 199.712402 228.626529 
L 204.461542 228.43519 
L 206.836112 228.303246 
L 211.585252 228.400905 
L 216.334392 228.553385 
L 225.832672 228.547773 
L 240.080092 228.322722 
L 249.578372 228.398163 
L 259.076652 228.463801 
L 268.574932 228.464278 
L 318.440902 228.408882 
L 325.564612 228.422303 
L 337.437462 228.449341 
L 346.935742 228.332772 
L 361.183162 228.449965 
L 405.219531 228.35984 
L 405.219531 228.35984 
" clip-path="url(#p98f380ccf2)" style="fill: none; stroke: #808080; stroke-opacity: 0.5; stroke-width: 0.5; stroke-linecap: square"/>
   </g>
   <g id="line2d_54">
    <path d="M 52.489063 226.602209 
L 57.238202 226.661643 
L 64.361912 226.846461 
L 78.609332 226.942394 
L 88.107612 226.96501 
L 95.231322 226.956368 
L 102.355032 226.965005 
L 111.853312 226.695179 
L 121.351592 226.969882 
L 140.348152 227.505694 
L 149.846432 227.66645 
L 161.719282 227.916295 
L 206.836112 228.282296 
L 263.825792 228.401662 
L 342.186602 228.297006 
L 356.434022 228.365533 
L 368.306872 228.423378 
L 405.219531 228.315687 
L 405.219531 228.315687 
" clip-path="url(#p98f380ccf2)" style="fill: none; stroke: #000000; stroke-width: 1.5; stroke-linecap: square"/>
   </g>
   <g id="line2d_55">
    <defs>
     <path id="me00bf10cd1" d="M 0 2.5 
C 0.663008 2.5 1.29895 2.236584 1.767767 1.767767 
C 2.236584 1.29895 2.5 0.663008 2.5 0 
C 2.5 -0.663008 2.236584 -1.29895 1.767767 -1.767767 
C 1.29895 -2.236584 0.663008 -2.5 0 -2.5 
C -0.663008 -2.5 -1.29895 -2.236584 -1.767767 -1.767767 
C -2.236584 -1.29895 -2.5 -0.663008 -2.5 0 
C -2.5 0.663008 -2.236584 1.29895 -1.767767 1.767767 
C -1.29895 2.236584 -0.663008 2.5 0 2.5 
z
" style="stroke: #ffffff; stroke-width: 0.5"/>
    </defs>
    <g clip-path="url(#p98f380ccf2)">
     <use xlink:href="#me00bf10cd1" x="52.489063" y="226.602209" style="fill: #ff0000; stroke: #ffffff; stroke-width: 0.5"/>
    </g>
   </g>
   <g id="patch_3">
    <path d="M 52.489063 228.96 
L 52.489063 7.2 
" style="fill: none; stroke: #000000; stroke-width: 0.8; stroke-linejoin: miter; stroke-linecap: square"/>
   </g>
   <g id="patch_4">
    <path d="M 52.489063 228.96 
L 387.289062 228.96 
" style="fill: none; stroke: #000000; stroke-width: 0.8; stroke-linejoin: miter; stroke-linecap: square"/>
   </g>
  </g>
 </g>
 <defs>
  <clipPath id="p98f380ccf2">
   <rect x="52.489063" y="7.2" width="334.8" height="221.76"/>
  </clipPath>
 </defs>
</svg>
