<?xml version="1.0" encoding="utf-8" standalone="no"?>
<!DOCTYPE svg PUBLIC "-//W3C//DTD SVG 1.1//EN"
  "http://www.w3.org/Graphics/SVG/1.1/DTD/svg11.dtd">
<svg xmlns:xlink="http://www.w3.org/1999/xlink" width="415.341406pt" height="265.689687pt" viewBox="0 0 415.341406 265.689687" xmlns="http://www.w3.org/2000/svg" version="1.1">
 <metadata>
  <rdf:RDF xmlns:dc="http://purl.org/dc/elements/1.1/" xmlns:cc="http://creativecommons.org/ns#" xmlns:rdf="http://www.w3.org/1999/02/22-rdf-syntax-ns#">
   <cc:Work>
    <dc:type rdf:resource="http://purl.org/dc/dcmitype/StillImage"/>
    <dc:date>2024-09-14T12:49:21.682770</dc:date>
    <dc:format>image/svg+xml</dc:format>
    <dc:creator>
     <cc:Agent>
      <dc:title>Matplotlib v3.9.2, https://matplotlib.org/</dc:title>
     </cc:Agent>
    </dc:creator>
   </cc:Work>
  </rdf:RDF>
 </metadata>
 <defs>
  <style type="text/css">*{stroke-linejoin: round; stroke-linecap: butt}</style>
 </defs>
 <g id="figure_1">
  <g id="patch_1">
   <path d="M 0 265.689687 
L 415.341406 265.689687 
L 415.341406 0 
L 0 0 
z
" style="fill: #ffffff"/>
  </g>
  <g id="axes_1">
   <g id="patch_2">
    <path d="M 63.610938 228.96 
L 398.410938 228.96 
L 398.410938 7.2 
L 63.610938 7.2 
z
" style="fill: #ffffff"/>
   </g>
   <g id="PolyCollection_1">
    <path d="M 63.610938 228.930526 
L 63.610938 228.957834 
L 65.985507 228.957805 
L 68.360077 228.957712 
L 70.734647 228.957589 
L 73.109217 228.957441 
L 75.483787 228.957223 
L 77.858357 228.956974 
L 80.232927 228.9568 
L 82.607497 228.956759 
L 84.982067 228.956827 
L 87.356637 228.956941 
L 89.731207 228.957051 
L 92.105777 228.957141 
L 94.480347 228.957197 
L 96.854917 228.95719 
L 99.229487 228.957107 
L 101.604057 228.956982 
L 103.978627 228.956862 
L 106.353197 228.956795 
L 108.727767 228.956782 
L 111.102337 228.956771 
L 113.476907 228.956739 
L 115.851477 228.956737 
L 118.226047 228.956817 
L 120.600617 228.956959 
L 122.975187 228.9571 
L 125.349757 228.957184 
L 127.724327 228.957179 
L 130.098897 228.957082 
L 132.473467 228.956934 
L 134.848037 228.956812 
L 137.222607 228.95678 
L 139.597177 228.956812 
L 141.971747 228.956828 
L 144.346317 228.956802 
L 146.720887 228.956769 
L 149.095457 228.956756 
L 151.470027 228.956769 
L 153.844597 228.956807 
L 156.219167 228.956841 
L 158.593737 228.956827 
L 160.968307 228.956741 
L 163.342877 228.956581 
L 165.717447 228.956401 
L 168.092017 228.956271 
L 170.466587 228.956194 
L 172.841157 228.956127 
L 175.215727 228.956052 
L 177.590297 228.955988 
L 179.964867 228.955977 
L 182.339437 228.956017 
L 184.714007 228.956045 
L 187.088577 228.956035 
L 189.463147 228.956059 
L 191.837717 228.956222 
L 194.212287 228.956477 
L 196.586857 228.956681 
L 198.961427 228.956764 
L 201.335997 228.956711 
L 203.710567 228.956491 
L 206.085137 228.956025 
L 208.459707 228.955232 
L 210.834277 228.954154 
L 213.208847 228.953051 
L 215.583417 228.952156 
L 217.957987 228.951435 
L 220.332557 228.950767 
L 222.707127 228.950097 
L 225.081697 228.949452 
L 227.456267 228.948899 
L 229.830837 228.94846 
L 232.205407 228.948081 
L 234.579977 228.947707 
L 236.954547 228.947318 
L 239.329117 228.946954 
L 241.703687 228.946624 
L 244.078257 228.946295 
L 246.452827 228.946004 
L 248.827397 228.945957 
L 251.201967 228.946543 
L 253.576537 228.947707 
L 255.951107 228.948829 
L 258.325677 228.949516 
L 260.700247 228.949684 
L 263.074817 228.949319 
L 265.449387 228.948358 
L 267.823957 228.946744 
L 270.198527 228.944664 
L 272.573097 228.942744 
L 274.947667 228.941442 
L 277.322237 228.940763 
L 279.696807 228.940699 
L 282.071377 228.94106 
L 284.445947 228.941652 
L 286.820517 228.942527 
L 289.195087 228.94341 
L 291.569657 228.943878 
L 293.944227 228.943792 
L 296.318797 228.943062 
L 298.693367 228.941591 
L 301.067937 228.939416 
L 303.442507 228.937021 
L 305.817077 228.935509 
L 308.191647 228.935539 
L 310.566217 228.93672 
L 312.940787 228.938534 
L 315.315357 228.940344 
L 317.689927 228.941667 
L 320.064497 228.942324 
L 322.439067 228.942357 
L 324.813637 228.941942 
L 327.188207 228.941399 
L 329.562777 228.941211 
L 331.937347 228.941695 
L 334.311917 228.942797 
L 336.686487 228.944266 
L 339.061057 228.945775 
L 341.435627 228.946986 
L 343.810197 228.947833 
L 346.184767 228.948585 
L 348.559337 228.949463 
L 350.933907 228.950343 
L 353.308477 228.951081 
L 355.683047 228.951658 
L 358.057617 228.95212 
L 360.432187 228.952536 
L 362.806757 228.952928 
L 365.181327 228.953227 
L 367.555897 228.953367 
L 369.930467 228.953372 
L 372.305037 228.953326 
L 374.679607 228.953263 
L 377.054177 228.953111 
L 379.428747 228.952798 
L 381.803316 228.95233 
L 384.177886 228.951739 
L 386.552456 228.951121 
L 388.927026 228.950606 
L 391.301596 228.950306 
L 393.676166 228.950322 
L 396.050736 228.950673 
L 398.425306 228.951199 
L 400.799876 228.951649 
L 403.174446 228.951906 
L 405.549016 228.952033 
L 407.923586 228.952067 
L 410.298156 228.951997 
L 412.672726 228.951861 
L 415.047296 228.951741 
L 417.421866 228.951709 
L 419.796436 228.951773 
L 422.171006 228.951927 
L 424.545576 228.952181 
L 426.920146 228.952456 
L 429.294716 228.952633 
L 431.669286 228.952696 
L 434.043856 228.952721 
L 436.418426 228.952804 
L 438.792996 228.953015 
L 441.167566 228.953323 
L 443.542136 228.953624 
L 445.916706 228.95387 
L 448.291276 228.954084 
L 450.665846 228.95432 
L 453.040416 228.954624 
L 455.414986 228.95496 
L 457.789556 228.955239 
L 460.164126 228.955403 
L 462.538696 228.955464 
L 464.913266 228.955477 
L 467.287836 228.955495 
L 469.662406 228.955538 
L 472.036976 228.955592 
L 474.411546 228.955632 
L 476.786116 228.955654 
L 479.160686 228.955664 
L 481.535256 228.955667 
L 483.909826 228.95566 
L 486.284396 228.955631 
L 488.658966 228.955561 
L 491.033536 228.955443 
L 493.408106 228.955284 
L 495.782676 228.95511 
L 498.157246 228.954952 
L 500.531816 228.954831 
L 502.906386 228.954743 
L 505.280956 228.954683 
L 507.655526 228.954665 
L 510.030096 228.954719 
L 512.404666 228.954863 
L 514.779236 228.955088 
L 517.153806 228.955375 
L 519.528376 228.955701 
L 521.902946 228.956048 
L 524.277516 228.956399 
L 526.652086 228.95673 
L 529.026656 228.957006 
L 531.401226 228.957207 
L 533.775796 228.957333 
L 536.150366 228.957396 
L 536.150366 228.925917 
L 536.150366 228.925917 
L 533.775796 228.925648 
L 531.401226 228.925035 
L 529.026656 228.924006 
L 526.652086 228.922745 
L 524.277516 228.921595 
L 521.902946 228.920781 
L 519.528376 228.920244 
L 517.153806 228.919776 
L 514.779236 228.919289 
L 512.404666 228.918899 
L 510.030096 228.918689 
L 507.655526 228.918481 
L 505.280956 228.917961 
L 502.906386 228.916988 
L 500.531816 228.915659 
L 498.157246 228.914091 
L 495.782676 228.912265 
L 493.408106 228.910135 
L 491.033536 228.907899 
L 488.658966 228.906106 
L 486.284396 228.905312 
L 483.909826 228.905446 
L 481.535256 228.90569 
L 479.160686 228.905172 
L 476.786116 228.903562 
L 474.411546 228.900841 
L 472.036976 228.89684 
L 469.662406 228.891419 
L 467.287836 228.885018 
L 464.913266 228.878645 
L 462.538696 228.873056 
L 460.164126 228.868509 
L 457.789556 228.864819 
L 455.414986 228.861107 
L 453.040416 228.856138 
L 450.665846 228.849099 
L 448.291276 228.840941 
L 445.916706 228.83317 
L 443.542136 228.82564 
L 441.167566 228.818003 
L 438.792996 228.810398 
L 436.418426 228.803227 
L 434.043856 228.797806 
L 431.669286 228.793878 
L 429.294716 228.789038 
L 426.920146 228.782261 
L 424.545576 228.774649 
L 422.171006 228.767304 
L 419.796436 228.762486 
L 417.421866 228.762719 
L 415.047296 228.766509 
L 412.672726 228.770427 
L 410.298156 228.772485 
L 407.923586 228.773166 
L 405.549016 228.774177 
L 403.174446 228.77487 
L 400.799876 228.774575 
L 398.425306 228.775103 
L 396.050736 228.777878 
L 393.676166 228.783416 
L 391.301596 228.790935 
L 388.927026 228.797961 
L 386.552456 228.802675 
L 384.177886 228.806052 
L 381.803316 228.810489 
L 379.428747 228.815632 
L 377.054177 228.820228 
L 374.679607 228.826303 
L 372.305037 228.835472 
L 369.930467 228.844853 
L 367.555897 228.851039 
L 365.181327 228.852793 
L 362.806757 228.850417 
L 360.432187 228.846319 
L 358.057617 228.841088 
L 355.683047 228.832279 
L 353.308477 228.818898 
L 350.933907 228.80108 
L 348.559337 228.781448 
L 346.184767 228.768225 
L 343.810197 228.762926 
L 341.435627 228.759027 
L 339.061057 228.756575 
L 336.686487 228.757083 
L 334.311917 228.759917 
L 331.937347 228.76299 
L 329.562777 228.769032 
L 327.188207 228.782231 
L 324.813637 228.793922 
L 322.439067 228.801644 
L 320.064497 228.806335 
L 317.689927 228.807816 
L 315.315357 228.805895 
L 312.940787 228.801602 
L 310.566217 228.797601 
L 308.191647 228.797273 
L 305.817077 228.801372 
L 303.442507 228.804754 
L 301.067937 228.803605 
L 298.693367 228.800107 
L 296.318797 228.796704 
L 293.944227 228.794132 
L 291.569657 228.792035 
L 289.195087 228.790919 
L 286.820517 228.791763 
L 284.445947 228.79336 
L 282.071377 228.796117 
L 279.696807 228.801855 
L 277.322237 228.811136 
L 274.947667 228.822839 
L 272.573097 228.834071 
L 270.198527 228.842006 
L 267.823957 228.846244 
L 265.449387 228.84893 
L 263.074817 228.851804 
L 260.700247 228.855607 
L 258.325677 228.860643 
L 255.951107 228.866962 
L 253.576537 228.874347 
L 251.201967 228.881621 
L 248.827397 228.887508 
L 246.452827 228.892005 
L 244.078257 228.89543 
L 241.703687 228.898038 
L 239.329117 228.9001 
L 236.954547 228.901913 
L 234.579977 228.903939 
L 232.205407 228.906516 
L 229.830837 228.909536 
L 227.456267 228.912512 
L 225.081697 228.914849 
L 222.707127 228.916129 
L 220.332557 228.916114 
L 217.957987 228.914887 
L 215.583417 228.912911 
L 213.208847 228.910325 
L 210.834277 228.906927 
L 208.459707 228.903257 
L 206.085137 228.900494 
L 203.710567 228.899758 
L 201.335997 228.902023 
L 198.961427 228.907061 
L 196.586857 228.913342 
L 194.212287 228.919242 
L 191.837717 228.923477 
L 189.463147 228.925627 
L 187.088577 228.926706 
L 184.714007 228.928061 
L 182.339437 228.929859 
L 179.964867 228.931595 
L 177.590297 228.932896 
L 175.215727 228.933923 
L 172.841157 228.934891 
L 170.466587 228.935833 
L 168.092017 228.936696 
L 165.717447 228.937266 
L 163.342877 228.937505 
L 160.968307 228.937588 
L 158.593737 228.937452 
L 156.219167 228.936852 
L 153.844597 228.935716 
L 151.470027 228.934306 
L 149.095457 228.933232 
L 146.720887 228.932946 
L 144.346317 228.933458 
L 141.971747 228.934775 
L 139.597177 228.936466 
L 137.222607 228.937726 
L 134.848037 228.938003 
L 132.473467 228.937427 
L 130.098897 228.936573 
L 127.724327 228.936009 
L 125.349757 228.935926 
L 122.975187 228.936042 
L 120.600617 228.936166 
L 118.226047 228.936199 
L 115.851477 228.935664 
L 113.476907 228.934141 
L 111.102337 228.932465 
L 108.727767 228.932129 
L 106.353197 228.933286 
L 103.978627 228.934684 
L 101.604057 228.9355 
L 99.229487 228.935744 
L 96.854917 228.935492 
L 94.480347 228.934898 
L 92.105777 228.934305 
L 89.731207 228.933729 
L 87.356637 228.932785 
L 84.982067 228.931528 
L 82.607497 228.930807 
L 80.232927 228.930924 
L 77.858357 228.930891 
L 75.483787 228.929948 
L 73.109217 228.928829 
L 70.734647 228.928744 
L 68.360077 228.92941 
L 65.985507 228.93012 
L 63.610938 228.930526 
z
" clip-path="url(#p04601f83d3)" style="fill: #808080; fill-opacity: 0.5; stroke: #808080; stroke-opacity: 0.5"/>
   </g>
   <g id="matplotlib.axis_1">
    <g id="xtick_1">
     <g id="line2d_1">
      <defs>
       <path id="md62a9be446" d="M 0 0 
L 0 3.5 
" style="stroke: #000000; stroke-width: 0.8"/>
      </defs>
      <g>
       <use xlink:href="#md62a9be446" x="201.350366" y="228.96" style="stroke: #000000; stroke-width: 0.8"/>
      </g>
     </g>
     <g id="text_1">
      <!-- 1.0 -->
      <g transform="translate(194.400366 243.117812) scale(0.1 -0.1)">
       <defs>
        <path id="ArialMT-31" d="M 2384 0 
L 1822 0 
L 1822 3584 
Q 1619 3391 1289 3197 
Q 959 3003 697 2906 
L 697 3450 
Q 1169 3672 1522 3987 
Q 1875 4303 2022 4600 
L 2384 4600 
L 2384 0 
z
" transform="scale(0.015625)"/>
        <path id="ArialMT-2e" d="M 581 0 
L 581 641 
L 1222 641 
L 1222 0 
L 581 0 
z
" transform="scale(0.015625)"/>
        <path id="ArialMT-30" d="M 266 2259 
Q 266 3072 433 3567 
Q 600 4063 929 4331 
Q 1259 4600 1759 4600 
Q 2128 4600 2406 4451 
Q 2684 4303 2865 4023 
Q 3047 3744 3150 3342 
Q 3253 2941 3253 2259 
Q 3253 1453 3087 958 
Q 2922 463 2592 192 
Q 2263 -78 1759 -78 
Q 1097 -78 719 397 
Q 266 969 266 2259 
z
M 844 2259 
Q 844 1131 1108 757 
Q 1372 384 1759 384 
Q 2147 384 2411 759 
Q 2675 1134 2675 2259 
Q 2675 3391 2411 3762 
Q 2147 4134 1753 4134 
Q 1366 4134 1134 3806 
Q 844 3388 844 2259 
z
" transform="scale(0.015625)"/>
       </defs>
       <use xlink:href="#ArialMT-31"/>
       <use xlink:href="#ArialMT-2e" x="55.615234"/>
       <use xlink:href="#ArialMT-30" x="83.398438"/>
      </g>
     </g>
    </g>
    <g id="xtick_2">
     <g id="line2d_2">
      <g>
       <use xlink:href="#md62a9be446" x="398.410938" y="228.96" style="stroke: #000000; stroke-width: 0.8"/>
      </g>
     </g>
     <g id="text_2">
      <!-- 10.0 -->
      <g transform="translate(388.680469 243.117812) scale(0.1 -0.1)">
       <use xlink:href="#ArialMT-31"/>
       <use xlink:href="#ArialMT-30" x="55.615234"/>
       <use xlink:href="#ArialMT-2e" x="111.230469"/>
       <use xlink:href="#ArialMT-30" x="139.013672"/>
      </g>
     </g>
    </g>
    <g id="xtick_3">
     <g id="line2d_3">
      <defs>
       <path id="m4f9ebf9042" d="M 0 0 
L 0 2 
" style="stroke: #000000; stroke-width: 0.6"/>
      </defs>
      <g>
       <use xlink:href="#m4f9ebf9042" x="63.610938" y="228.96" style="stroke: #000000; stroke-width: 0.6"/>
      </g>
     </g>
    </g>
    <g id="xtick_4">
     <g id="line2d_4">
      <g>
       <use xlink:href="#m4f9ebf9042" x="98.311582" y="228.96" style="stroke: #000000; stroke-width: 0.6"/>
      </g>
     </g>
    </g>
    <g id="xtick_5">
     <g id="line2d_5">
      <g>
       <use xlink:href="#m4f9ebf9042" x="122.93208" y="228.96" style="stroke: #000000; stroke-width: 0.6"/>
      </g>
     </g>
    </g>
    <g id="xtick_6">
     <g id="line2d_6">
      <g>
       <use xlink:href="#m4f9ebf9042" x="142.029223" y="228.96" style="stroke: #000000; stroke-width: 0.6"/>
      </g>
     </g>
    </g>
    <g id="xtick_7">
     <g id="line2d_7">
      <g>
       <use xlink:href="#m4f9ebf9042" x="157.632725" y="228.96" style="stroke: #000000; stroke-width: 0.6"/>
      </g>
     </g>
    </g>
    <g id="xtick_8">
     <g id="line2d_8">
      <g>
       <use xlink:href="#m4f9ebf9042" x="170.825297" y="228.96" style="stroke: #000000; stroke-width: 0.6"/>
      </g>
     </g>
    </g>
    <g id="xtick_9">
     <g id="line2d_9">
      <g>
       <use xlink:href="#m4f9ebf9042" x="182.253223" y="228.96" style="stroke: #000000; stroke-width: 0.6"/>
      </g>
     </g>
    </g>
    <g id="xtick_10">
     <g id="line2d_10">
      <g>
       <use xlink:href="#m4f9ebf9042" x="192.333369" y="228.96" style="stroke: #000000; stroke-width: 0.6"/>
      </g>
     </g>
    </g>
    <g id="xtick_11">
     <g id="line2d_11">
      <g>
       <use xlink:href="#m4f9ebf9042" x="260.671509" y="228.96" style="stroke: #000000; stroke-width: 0.6"/>
      </g>
     </g>
    </g>
    <g id="xtick_12">
     <g id="line2d_12">
      <g>
       <use xlink:href="#m4f9ebf9042" x="295.372153" y="228.96" style="stroke: #000000; stroke-width: 0.6"/>
      </g>
     </g>
    </g>
    <g id="xtick_13">
     <g id="line2d_13">
      <g>
       <use xlink:href="#m4f9ebf9042" x="319.992652" y="228.96" style="stroke: #000000; stroke-width: 0.6"/>
      </g>
     </g>
    </g>
    <g id="xtick_14">
     <g id="line2d_14">
      <g>
       <use xlink:href="#m4f9ebf9042" x="339.089795" y="228.96" style="stroke: #000000; stroke-width: 0.6"/>
      </g>
     </g>
    </g>
    <g id="xtick_15">
     <g id="line2d_15">
      <g>
       <use xlink:href="#m4f9ebf9042" x="354.693296" y="228.96" style="stroke: #000000; stroke-width: 0.6"/>
      </g>
     </g>
    </g>
    <g id="xtick_16">
     <g id="line2d_16">
      <g>
       <use xlink:href="#m4f9ebf9042" x="367.885869" y="228.96" style="stroke: #000000; stroke-width: 0.6"/>
      </g>
     </g>
    </g>
    <g id="xtick_17">
     <g id="line2d_17">
      <g>
       <use xlink:href="#m4f9ebf9042" x="379.313795" y="228.96" style="stroke: #000000; stroke-width: 0.6"/>
      </g>
     </g>
    </g>
    <g id="xtick_18">
     <g id="line2d_18">
      <g>
       <use xlink:href="#m4f9ebf9042" x="389.39394" y="228.96" style="stroke: #000000; stroke-width: 0.6"/>
      </g>
     </g>
    </g>
    <g id="text_3">
     <!-- Frequency (Hz) -->
     <g transform="translate(196.560156 256.385) scale(0.1 -0.1)">
      <defs>
       <path id="ArialMT-46" d="M 525 0 
L 525 4581 
L 3616 4581 
L 3616 4041 
L 1131 4041 
L 1131 2622 
L 3281 2622 
L 3281 2081 
L 1131 2081 
L 1131 0 
L 525 0 
z
" transform="scale(0.015625)"/>
       <path id="ArialMT-72" d="M 416 0 
L 416 3319 
L 922 3319 
L 922 2816 
Q 1116 3169 1280 3281 
Q 1444 3394 1641 3394 
Q 1925 3394 2219 3213 
L 2025 2691 
Q 1819 2813 1613 2813 
Q 1428 2813 1281 2702 
Q 1134 2591 1072 2394 
Q 978 2094 978 1738 
L 978 0 
L 416 0 
z
" transform="scale(0.015625)"/>
       <path id="ArialMT-65" d="M 2694 1069 
L 3275 997 
Q 3138 488 2766 206 
Q 2394 -75 1816 -75 
Q 1088 -75 661 373 
Q 234 822 234 1631 
Q 234 2469 665 2931 
Q 1097 3394 1784 3394 
Q 2450 3394 2872 2941 
Q 3294 2488 3294 1666 
Q 3294 1616 3291 1516 
L 816 1516 
Q 847 969 1125 678 
Q 1403 388 1819 388 
Q 2128 388 2347 550 
Q 2566 713 2694 1069 
z
M 847 1978 
L 2700 1978 
Q 2663 2397 2488 2606 
Q 2219 2931 1791 2931 
Q 1403 2931 1139 2672 
Q 875 2413 847 1978 
z
" transform="scale(0.015625)"/>
       <path id="ArialMT-71" d="M 2538 -1272 
L 2538 353 
Q 2406 169 2170 47 
Q 1934 -75 1669 -75 
Q 1078 -75 651 397 
Q 225 869 225 1691 
Q 225 2191 398 2587 
Q 572 2984 901 3189 
Q 1231 3394 1625 3394 
Q 2241 3394 2594 2875 
L 2594 3319 
L 3100 3319 
L 3100 -1272 
L 2538 -1272 
z
M 803 1669 
Q 803 1028 1072 708 
Q 1341 388 1716 388 
Q 2075 388 2334 692 
Q 2594 997 2594 1619 
Q 2594 2281 2320 2615 
Q 2047 2950 1678 2950 
Q 1313 2950 1058 2639 
Q 803 2328 803 1669 
z
" transform="scale(0.015625)"/>
       <path id="ArialMT-75" d="M 2597 0 
L 2597 488 
Q 2209 -75 1544 -75 
Q 1250 -75 995 37 
Q 741 150 617 320 
Q 494 491 444 738 
Q 409 903 409 1263 
L 409 3319 
L 972 3319 
L 972 1478 
Q 972 1038 1006 884 
Q 1059 663 1231 536 
Q 1403 409 1656 409 
Q 1909 409 2131 539 
Q 2353 669 2445 892 
Q 2538 1116 2538 1541 
L 2538 3319 
L 3100 3319 
L 3100 0 
L 2597 0 
z
" transform="scale(0.015625)"/>
       <path id="ArialMT-6e" d="M 422 0 
L 422 3319 
L 928 3319 
L 928 2847 
Q 1294 3394 1984 3394 
Q 2284 3394 2536 3286 
Q 2788 3178 2913 3003 
Q 3038 2828 3088 2588 
Q 3119 2431 3119 2041 
L 3119 0 
L 2556 0 
L 2556 2019 
Q 2556 2363 2490 2533 
Q 2425 2703 2258 2804 
Q 2091 2906 1866 2906 
Q 1506 2906 1245 2678 
Q 984 2450 984 1813 
L 984 0 
L 422 0 
z
" transform="scale(0.015625)"/>
       <path id="ArialMT-63" d="M 2588 1216 
L 3141 1144 
Q 3050 572 2676 248 
Q 2303 -75 1759 -75 
Q 1078 -75 664 370 
Q 250 816 250 1647 
Q 250 2184 428 2587 
Q 606 2991 970 3192 
Q 1334 3394 1763 3394 
Q 2303 3394 2647 3120 
Q 2991 2847 3088 2344 
L 2541 2259 
Q 2463 2594 2264 2762 
Q 2066 2931 1784 2931 
Q 1359 2931 1093 2626 
Q 828 2322 828 1663 
Q 828 994 1084 691 
Q 1341 388 1753 388 
Q 2084 388 2306 591 
Q 2528 794 2588 1216 
z
" transform="scale(0.015625)"/>
       <path id="ArialMT-79" d="M 397 -1278 
L 334 -750 
Q 519 -800 656 -800 
Q 844 -800 956 -737 
Q 1069 -675 1141 -563 
Q 1194 -478 1313 -144 
Q 1328 -97 1363 -6 
L 103 3319 
L 709 3319 
L 1400 1397 
Q 1534 1031 1641 628 
Q 1738 1016 1872 1384 
L 2581 3319 
L 3144 3319 
L 1881 -56 
Q 1678 -603 1566 -809 
Q 1416 -1088 1222 -1217 
Q 1028 -1347 759 -1347 
Q 597 -1347 397 -1278 
z
" transform="scale(0.015625)"/>
       <path id="ArialMT-20" transform="scale(0.015625)"/>
       <path id="ArialMT-28" d="M 1497 -1347 
Q 1031 -759 709 28 
Q 388 816 388 1659 
Q 388 2403 628 3084 
Q 909 3875 1497 4659 
L 1900 4659 
Q 1522 4009 1400 3731 
Q 1209 3300 1100 2831 
Q 966 2247 966 1656 
Q 966 153 1900 -1347 
L 1497 -1347 
z
" transform="scale(0.015625)"/>
       <path id="ArialMT-48" d="M 513 0 
L 513 4581 
L 1119 4581 
L 1119 2700 
L 3500 2700 
L 3500 4581 
L 4106 4581 
L 4106 0 
L 3500 0 
L 3500 2159 
L 1119 2159 
L 1119 0 
L 513 0 
z
" transform="scale(0.015625)"/>
       <path id="ArialMT-7a" d="M 125 0 
L 125 456 
L 2238 2881 
Q 1878 2863 1603 2863 
L 250 2863 
L 250 3319 
L 2963 3319 
L 2963 2947 
L 1166 841 
L 819 456 
Q 1197 484 1528 484 
L 3063 484 
L 3063 0 
L 125 0 
z
" transform="scale(0.015625)"/>
       <path id="ArialMT-29" d="M 791 -1347 
L 388 -1347 
Q 1322 153 1322 1656 
Q 1322 2244 1188 2822 
Q 1081 3291 891 3722 
Q 769 4003 388 4659 
L 791 4659 
Q 1378 3875 1659 3084 
Q 1900 2403 1900 1659 
Q 1900 816 1576 28 
Q 1253 -759 791 -1347 
z
" transform="scale(0.015625)"/>
      </defs>
      <use xlink:href="#ArialMT-46"/>
      <use xlink:href="#ArialMT-72" x="61.083984"/>
      <use xlink:href="#ArialMT-65" x="94.384766"/>
      <use xlink:href="#ArialMT-71" x="150"/>
      <use xlink:href="#ArialMT-75" x="205.615234"/>
      <use xlink:href="#ArialMT-65" x="261.230469"/>
      <use xlink:href="#ArialMT-6e" x="316.845703"/>
      <use xlink:href="#ArialMT-63" x="372.460938"/>
      <use xlink:href="#ArialMT-79" x="422.460938"/>
      <use xlink:href="#ArialMT-20" x="472.460938"/>
      <use xlink:href="#ArialMT-28" x="500.244141"/>
      <use xlink:href="#ArialMT-48" x="533.544922"/>
      <use xlink:href="#ArialMT-7a" x="605.761719"/>
      <use xlink:href="#ArialMT-29" x="655.761719"/>
     </g>
    </g>
   </g>
   <g id="matplotlib.axis_2">
    <g id="ytick_1">
     <g id="line2d_19">
      <defs>
       <path id="mb0ad5e2a05" d="M 0 0 
L -3.5 0 
" style="stroke: #000000; stroke-width: 0.8"/>
      </defs>
      <g>
       <use xlink:href="#mb0ad5e2a05" x="63.610938" y="228.96" style="stroke: #000000; stroke-width: 0.8"/>
      </g>
     </g>
     <g id="text_4">
      <!-- 0.0 -->
      <g transform="translate(42.710938 232.538906) scale(0.1 -0.1)">
       <use xlink:href="#ArialMT-30"/>
       <use xlink:href="#ArialMT-2e" x="55.615234"/>
       <use xlink:href="#ArialMT-30" x="83.398438"/>
      </g>
     </g>
    </g>
    <g id="ytick_2">
     <g id="line2d_20">
      <g>
       <use xlink:href="#mb0ad5e2a05" x="63.610938" y="199.780292" style="stroke: #000000; stroke-width: 0.8"/>
      </g>
     </g>
     <g id="text_5">
      <!-- 2000.0 -->
      <g transform="translate(26.028125 203.359198) scale(0.1 -0.1)">
       <defs>
        <path id="ArialMT-32" d="M 3222 541 
L 3222 0 
L 194 0 
Q 188 203 259 391 
Q 375 700 629 1000 
Q 884 1300 1366 1694 
Q 2113 2306 2375 2664 
Q 2638 3022 2638 3341 
Q 2638 3675 2398 3904 
Q 2159 4134 1775 4134 
Q 1369 4134 1125 3890 
Q 881 3647 878 3216 
L 300 3275 
Q 359 3922 746 4261 
Q 1134 4600 1788 4600 
Q 2447 4600 2831 4234 
Q 3216 3869 3216 3328 
Q 3216 3053 3103 2787 
Q 2991 2522 2730 2228 
Q 2469 1934 1863 1422 
Q 1356 997 1212 845 
Q 1069 694 975 541 
L 3222 541 
z
" transform="scale(0.015625)"/>
       </defs>
       <use xlink:href="#ArialMT-32"/>
       <use xlink:href="#ArialMT-30" x="55.615234"/>
       <use xlink:href="#ArialMT-30" x="111.230469"/>
       <use xlink:href="#ArialMT-30" x="166.845703"/>
       <use xlink:href="#ArialMT-2e" x="222.460938"/>
       <use xlink:href="#ArialMT-30" x="250.244141"/>
      </g>
     </g>
    </g>
    <g id="ytick_3">
     <g id="line2d_21">
      <g>
       <use xlink:href="#mb0ad5e2a05" x="63.610938" y="170.600583" style="stroke: #000000; stroke-width: 0.8"/>
      </g>
     </g>
     <g id="text_6">
      <!-- 4000.0 -->
      <g transform="translate(26.028125 174.17949) scale(0.1 -0.1)">
       <defs>
        <path id="ArialMT-34" d="M 2069 0 
L 2069 1097 
L 81 1097 
L 81 1613 
L 2172 4581 
L 2631 4581 
L 2631 1613 
L 3250 1613 
L 3250 1097 
L 2631 1097 
L 2631 0 
L 2069 0 
z
M 2069 1613 
L 2069 3678 
L 634 1613 
L 2069 1613 
z
" transform="scale(0.015625)"/>
       </defs>
       <use xlink:href="#ArialMT-34"/>
       <use xlink:href="#ArialMT-30" x="55.615234"/>
       <use xlink:href="#ArialMT-30" x="111.230469"/>
       <use xlink:href="#ArialMT-30" x="166.845703"/>
       <use xlink:href="#ArialMT-2e" x="222.460938"/>
       <use xlink:href="#ArialMT-30" x="250.244141"/>
      </g>
     </g>
    </g>
    <g id="ytick_4">
     <g id="line2d_22">
      <g>
       <use xlink:href="#mb0ad5e2a05" x="63.610938" y="141.420875" style="stroke: #000000; stroke-width: 0.8"/>
      </g>
     </g>
     <g id="text_7">
      <!-- 6000.0 -->
      <g transform="translate(26.028125 144.999781) scale(0.1 -0.1)">
       <defs>
        <path id="ArialMT-36" d="M 3184 3459 
L 2625 3416 
Q 2550 3747 2413 3897 
Q 2184 4138 1850 4138 
Q 1581 4138 1378 3988 
Q 1113 3794 959 3422 
Q 806 3050 800 2363 
Q 1003 2672 1297 2822 
Q 1591 2972 1913 2972 
Q 2475 2972 2870 2558 
Q 3266 2144 3266 1488 
Q 3266 1056 3080 686 
Q 2894 316 2569 119 
Q 2244 -78 1831 -78 
Q 1128 -78 684 439 
Q 241 956 241 2144 
Q 241 3472 731 4075 
Q 1159 4600 1884 4600 
Q 2425 4600 2770 4297 
Q 3116 3994 3184 3459 
z
M 888 1484 
Q 888 1194 1011 928 
Q 1134 663 1356 523 
Q 1578 384 1822 384 
Q 2178 384 2434 671 
Q 2691 959 2691 1453 
Q 2691 1928 2437 2201 
Q 2184 2475 1800 2475 
Q 1419 2475 1153 2201 
Q 888 1928 888 1484 
z
" transform="scale(0.015625)"/>
       </defs>
       <use xlink:href="#ArialMT-36"/>
       <use xlink:href="#ArialMT-30" x="55.615234"/>
       <use xlink:href="#ArialMT-30" x="111.230469"/>
       <use xlink:href="#ArialMT-30" x="166.845703"/>
       <use xlink:href="#ArialMT-2e" x="222.460938"/>
       <use xlink:href="#ArialMT-30" x="250.244141"/>
      </g>
     </g>
    </g>
    <g id="ytick_5">
     <g id="line2d_23">
      <g>
       <use xlink:href="#mb0ad5e2a05" x="63.610938" y="112.241167" style="stroke: #000000; stroke-width: 0.8"/>
      </g>
     </g>
     <g id="text_8">
      <!-- 8000.0 -->
      <g transform="translate(26.028125 115.820073) scale(0.1 -0.1)">
       <defs>
        <path id="ArialMT-38" d="M 1131 2484 
Q 781 2613 612 2850 
Q 444 3088 444 3419 
Q 444 3919 803 4259 
Q 1163 4600 1759 4600 
Q 2359 4600 2725 4251 
Q 3091 3903 3091 3403 
Q 3091 3084 2923 2848 
Q 2756 2613 2416 2484 
Q 2838 2347 3058 2040 
Q 3278 1734 3278 1309 
Q 3278 722 2862 322 
Q 2447 -78 1769 -78 
Q 1091 -78 675 323 
Q 259 725 259 1325 
Q 259 1772 486 2073 
Q 713 2375 1131 2484 
z
M 1019 3438 
Q 1019 3113 1228 2906 
Q 1438 2700 1772 2700 
Q 2097 2700 2305 2904 
Q 2513 3109 2513 3406 
Q 2513 3716 2298 3927 
Q 2084 4138 1766 4138 
Q 1444 4138 1231 3931 
Q 1019 3725 1019 3438 
z
M 838 1322 
Q 838 1081 952 856 
Q 1066 631 1291 507 
Q 1516 384 1775 384 
Q 2178 384 2440 643 
Q 2703 903 2703 1303 
Q 2703 1709 2433 1975 
Q 2163 2241 1756 2241 
Q 1359 2241 1098 1978 
Q 838 1716 838 1322 
z
" transform="scale(0.015625)"/>
       </defs>
       <use xlink:href="#ArialMT-38"/>
       <use xlink:href="#ArialMT-30" x="55.615234"/>
       <use xlink:href="#ArialMT-30" x="111.230469"/>
       <use xlink:href="#ArialMT-30" x="166.845703"/>
       <use xlink:href="#ArialMT-2e" x="222.460938"/>
       <use xlink:href="#ArialMT-30" x="250.244141"/>
      </g>
     </g>
    </g>
    <g id="ytick_6">
     <g id="line2d_24">
      <g>
       <use xlink:href="#mb0ad5e2a05" x="63.610938" y="83.061459" style="stroke: #000000; stroke-width: 0.8"/>
      </g>
     </g>
     <g id="text_9">
      <!-- 10000.0 -->
      <g transform="translate(20.467188 86.640365) scale(0.1 -0.1)">
       <use xlink:href="#ArialMT-31"/>
       <use xlink:href="#ArialMT-30" x="55.615234"/>
       <use xlink:href="#ArialMT-30" x="111.230469"/>
       <use xlink:href="#ArialMT-30" x="166.845703"/>
       <use xlink:href="#ArialMT-30" x="222.460938"/>
       <use xlink:href="#ArialMT-2e" x="278.076172"/>
       <use xlink:href="#ArialMT-30" x="305.859375"/>
      </g>
     </g>
    </g>
    <g id="ytick_7">
     <g id="line2d_25">
      <g>
       <use xlink:href="#mb0ad5e2a05" x="63.610938" y="53.88175" style="stroke: #000000; stroke-width: 0.8"/>
      </g>
     </g>
     <g id="text_10">
      <!-- 12000.0 -->
      <g transform="translate(20.467188 57.460657) scale(0.1 -0.1)">
       <use xlink:href="#ArialMT-31"/>
       <use xlink:href="#ArialMT-32" x="55.615234"/>
       <use xlink:href="#ArialMT-30" x="111.230469"/>
       <use xlink:href="#ArialMT-30" x="166.845703"/>
       <use xlink:href="#ArialMT-30" x="222.460938"/>
       <use xlink:href="#ArialMT-2e" x="278.076172"/>
       <use xlink:href="#ArialMT-30" x="305.859375"/>
      </g>
     </g>
    </g>
    <g id="ytick_8">
     <g id="line2d_26">
      <g>
       <use xlink:href="#mb0ad5e2a05" x="63.610938" y="24.702042" style="stroke: #000000; stroke-width: 0.8"/>
      </g>
     </g>
     <g id="text_11">
      <!-- 14000.0 -->
      <g transform="translate(20.467188 28.280948) scale(0.1 -0.1)">
       <use xlink:href="#ArialMT-31"/>
       <use xlink:href="#ArialMT-34" x="55.615234"/>
       <use xlink:href="#ArialMT-30" x="111.230469"/>
       <use xlink:href="#ArialMT-30" x="166.845703"/>
       <use xlink:href="#ArialMT-30" x="222.460938"/>
       <use xlink:href="#ArialMT-2e" x="278.076172"/>
       <use xlink:href="#ArialMT-30" x="305.859375"/>
      </g>
     </g>
    </g>
    <g id="text_12">
     <!-- H/V Amplitude -->
     <g transform="translate(14.479688 149.762031) rotate(-90) scale(0.1 -0.1)">
      <defs>
       <path id="ArialMT-2f" d="M 0 -78 
L 1328 4659 
L 1778 4659 
L 453 -78 
L 0 -78 
z
" transform="scale(0.015625)"/>
       <path id="ArialMT-56" d="M 1803 0 
L 28 4581 
L 684 4581 
L 1875 1253 
Q 2019 853 2116 503 
Q 2222 878 2363 1253 
L 3600 4581 
L 4219 4581 
L 2425 0 
L 1803 0 
z
" transform="scale(0.015625)"/>
       <path id="ArialMT-41" d="M -9 0 
L 1750 4581 
L 2403 4581 
L 4278 0 
L 3588 0 
L 3053 1388 
L 1138 1388 
L 634 0 
L -9 0 
z
M 1313 1881 
L 2866 1881 
L 2388 3150 
Q 2169 3728 2063 4100 
Q 1975 3659 1816 3225 
L 1313 1881 
z
" transform="scale(0.015625)"/>
       <path id="ArialMT-6d" d="M 422 0 
L 422 3319 
L 925 3319 
L 925 2853 
Q 1081 3097 1340 3245 
Q 1600 3394 1931 3394 
Q 2300 3394 2536 3241 
Q 2772 3088 2869 2813 
Q 3263 3394 3894 3394 
Q 4388 3394 4653 3120 
Q 4919 2847 4919 2278 
L 4919 0 
L 4359 0 
L 4359 2091 
Q 4359 2428 4304 2576 
Q 4250 2725 4106 2815 
Q 3963 2906 3769 2906 
Q 3419 2906 3187 2673 
Q 2956 2441 2956 1928 
L 2956 0 
L 2394 0 
L 2394 2156 
Q 2394 2531 2256 2718 
Q 2119 2906 1806 2906 
Q 1569 2906 1367 2781 
Q 1166 2656 1075 2415 
Q 984 2175 984 1722 
L 984 0 
L 422 0 
z
" transform="scale(0.015625)"/>
       <path id="ArialMT-70" d="M 422 -1272 
L 422 3319 
L 934 3319 
L 934 2888 
Q 1116 3141 1344 3267 
Q 1572 3394 1897 3394 
Q 2322 3394 2647 3175 
Q 2972 2956 3137 2557 
Q 3303 2159 3303 1684 
Q 3303 1175 3120 767 
Q 2938 359 2589 142 
Q 2241 -75 1856 -75 
Q 1575 -75 1351 44 
Q 1128 163 984 344 
L 984 -1272 
L 422 -1272 
z
M 931 1641 
Q 931 1000 1190 694 
Q 1450 388 1819 388 
Q 2194 388 2461 705 
Q 2728 1022 2728 1688 
Q 2728 2322 2467 2637 
Q 2206 2953 1844 2953 
Q 1484 2953 1207 2617 
Q 931 2281 931 1641 
z
" transform="scale(0.015625)"/>
       <path id="ArialMT-6c" d="M 409 0 
L 409 4581 
L 972 4581 
L 972 0 
L 409 0 
z
" transform="scale(0.015625)"/>
       <path id="ArialMT-69" d="M 425 3934 
L 425 4581 
L 988 4581 
L 988 3934 
L 425 3934 
z
M 425 0 
L 425 3319 
L 988 3319 
L 988 0 
L 425 0 
z
" transform="scale(0.015625)"/>
       <path id="ArialMT-74" d="M 1650 503 
L 1731 6 
Q 1494 -44 1306 -44 
Q 1000 -44 831 53 
Q 663 150 594 308 
Q 525 466 525 972 
L 525 2881 
L 113 2881 
L 113 3319 
L 525 3319 
L 525 4141 
L 1084 4478 
L 1084 3319 
L 1650 3319 
L 1650 2881 
L 1084 2881 
L 1084 941 
Q 1084 700 1114 631 
Q 1144 563 1211 522 
Q 1278 481 1403 481 
Q 1497 481 1650 503 
z
" transform="scale(0.015625)"/>
       <path id="ArialMT-64" d="M 2575 0 
L 2575 419 
Q 2259 -75 1647 -75 
Q 1250 -75 917 144 
Q 584 363 401 755 
Q 219 1147 219 1656 
Q 219 2153 384 2558 
Q 550 2963 881 3178 
Q 1213 3394 1622 3394 
Q 1922 3394 2156 3267 
Q 2391 3141 2538 2938 
L 2538 4581 
L 3097 4581 
L 3097 0 
L 2575 0 
z
M 797 1656 
Q 797 1019 1065 703 
Q 1334 388 1700 388 
Q 2069 388 2326 689 
Q 2584 991 2584 1609 
Q 2584 2291 2321 2609 
Q 2059 2928 1675 2928 
Q 1300 2928 1048 2622 
Q 797 2316 797 1656 
z
" transform="scale(0.015625)"/>
      </defs>
      <use xlink:href="#ArialMT-48"/>
      <use xlink:href="#ArialMT-2f" x="72.216797"/>
      <use xlink:href="#ArialMT-56" x="100"/>
      <use xlink:href="#ArialMT-20" x="166.699219"/>
      <use xlink:href="#ArialMT-41" x="188.982422"/>
      <use xlink:href="#ArialMT-6d" x="255.681641"/>
      <use xlink:href="#ArialMT-70" x="338.982422"/>
      <use xlink:href="#ArialMT-6c" x="394.597656"/>
      <use xlink:href="#ArialMT-69" x="416.814453"/>
      <use xlink:href="#ArialMT-74" x="439.03125"/>
      <use xlink:href="#ArialMT-75" x="466.814453"/>
      <use xlink:href="#ArialMT-64" x="522.429688"/>
      <use xlink:href="#ArialMT-65" x="578.044922"/>
     </g>
    </g>
   </g>
   <g id="line2d_27">
    <path d="M 63.610938 228.922215 
L 77.858357 228.930344 
L 416.341406 228.938424 
L 416.341406 228.938424 
" clip-path="url(#p04601f83d3)" style="fill: none; stroke: #808080; stroke-opacity: 0.5; stroke-width: 0.5; stroke-linecap: square"/>
   </g>
   <g id="line2d_28">
    <path d="M 63.610938 228.938341 
L 416.341406 228.940257 
L 416.341406 228.940257 
" clip-path="url(#p04601f83d3)" style="fill: none; stroke: #808080; stroke-opacity: 0.5; stroke-width: 0.5; stroke-linecap: square"/>
   </g>
   <g id="line2d_29">
    <path d="M 63.610938 228.948496 
L 416.341406 228.938877 
L 416.341406 228.938877 
" clip-path="url(#p04601f83d3)" style="fill: none; stroke: #808080; stroke-opacity: 0.5; stroke-width: 0.5; stroke-linecap: square"/>
   </g>
   <g id="line2d_30">
    <path d="M 63.610938 228.926362 
L 182.339437 228.920268 
L 194.212287 228.922885 
L 410.298156 228.930372 
L 416.341406 228.926249 
L 416.341406 228.926249 
" clip-path="url(#p04601f83d3)" style="fill: none; stroke: #808080; stroke-opacity: 0.5; stroke-width: 0.5; stroke-linecap: square"/>
   </g>
   <g id="line2d_31">
    <path d="M 63.610938 228.90131 
L 96.854917 228.914321 
L 379.428747 228.933685 
L 416.341406 228.930727 
L 416.341406 228.930727 
" clip-path="url(#p04601f83d3)" style="fill: none; stroke: #808080; stroke-opacity: 0.5; stroke-width: 0.5; stroke-linecap: square"/>
   </g>
   <g id="line2d_32">
    <path d="M 63.610938 228.951562 
L 118.226047 228.948788 
L 416.341406 228.940661 
L 416.341406 228.940661 
" clip-path="url(#p04601f83d3)" style="fill: none; stroke: #808080; stroke-opacity: 0.5; stroke-width: 0.5; stroke-linecap: square"/>
   </g>
   <g id="line2d_33">
    <path d="M 63.610938 228.955367 
L 416.341406 228.930712 
L 416.341406 228.930712 
" clip-path="url(#p04601f83d3)" style="fill: none; stroke: #808080; stroke-opacity: 0.5; stroke-width: 0.5; stroke-linecap: square"/>
   </g>
   <g id="line2d_34">
    <path d="M 63.610938 228.943627 
L 416.341406 228.9413 
L 416.341406 228.9413 
" clip-path="url(#p04601f83d3)" style="fill: none; stroke: #808080; stroke-opacity: 0.5; stroke-width: 0.5; stroke-linecap: square"/>
   </g>
   <g id="line2d_35">
    <path d="M 63.610938 228.956181 
L 416.341406 228.93895 
L 416.341406 228.93895 
" clip-path="url(#p04601f83d3)" style="fill: none; stroke: #808080; stroke-opacity: 0.5; stroke-width: 0.5; stroke-linecap: square"/>
   </g>
   <g id="line2d_36">
    <path d="M 63.610938 228.95613 
L 416.341406 228.933504 
L 416.341406 228.933504 
" clip-path="url(#p04601f83d3)" style="fill: none; stroke: #808080; stroke-opacity: 0.5; stroke-width: 0.5; stroke-linecap: square"/>
   </g>
   <g id="line2d_37">
    <path d="M 63.610938 228.953212 
L 416.341406 228.937422 
L 416.341406 228.937422 
" clip-path="url(#p04601f83d3)" style="fill: none; stroke: #808080; stroke-opacity: 0.5; stroke-width: 0.5; stroke-linecap: square"/>
   </g>
   <g id="line2d_38">
    <path d="M 63.610938 228.951086 
L 303.442507 228.898696 
L 329.562777 228.889621 
L 416.341406 228.937235 
L 416.341406 228.937235 
" clip-path="url(#p04601f83d3)" style="fill: none; stroke: #808080; stroke-opacity: 0.5; stroke-width: 0.5; stroke-linecap: square"/>
   </g>
   <g id="line2d_39">
    <path d="M 63.610938 228.956641 
L 416.341406 228.934128 
L 416.341406 228.934128 
" clip-path="url(#p04601f83d3)" style="fill: none; stroke: #808080; stroke-opacity: 0.5; stroke-width: 0.5; stroke-linecap: square"/>
   </g>
   <g id="line2d_40">
    <path d="M 63.610938 228.957285 
L 416.341406 228.938667 
L 416.341406 228.938667 
" clip-path="url(#p04601f83d3)" style="fill: none; stroke: #808080; stroke-opacity: 0.5; stroke-width: 0.5; stroke-linecap: square"/>
   </g>
   <g id="line2d_41">
    <path d="M 63.610938 228.95581 
L 416.341406 228.926316 
L 416.341406 228.926316 
" clip-path="url(#p04601f83d3)" style="fill: none; stroke: #808080; stroke-opacity: 0.5; stroke-width: 0.5; stroke-linecap: square"/>
   </g>
   <g id="line2d_42">
    <path d="M 63.610938 228.957757 
L 416.341406 228.936272 
L 416.341406 228.936272 
" clip-path="url(#p04601f83d3)" style="fill: none; stroke: #808080; stroke-opacity: 0.5; stroke-width: 0.5; stroke-linecap: square"/>
   </g>
   <g id="line2d_43">
    <path d="M 63.610938 228.954205 
L 416.341406 228.9265 
L 416.341406 228.9265 
" clip-path="url(#p04601f83d3)" style="fill: none; stroke: #808080; stroke-opacity: 0.5; stroke-width: 0.5; stroke-linecap: square"/>
   </g>
   <g id="line2d_44">
    <path d="M 63.610938 228.956543 
L 416.341406 228.933862 
L 416.341406 228.933862 
" clip-path="url(#p04601f83d3)" style="fill: none; stroke: #808080; stroke-opacity: 0.5; stroke-width: 0.5; stroke-linecap: square"/>
   </g>
   <g id="line2d_45">
    <path d="M 63.610938 228.955965 
L 416.341406 228.929221 
L 416.341406 228.929221 
" clip-path="url(#p04601f83d3)" style="fill: none; stroke: #808080; stroke-opacity: 0.5; stroke-width: 0.5; stroke-linecap: square"/>
   </g>
   <g id="line2d_46">
    <path d="M 63.610938 228.956358 
L 416.341406 228.927119 
L 416.341406 228.927119 
" clip-path="url(#p04601f83d3)" style="fill: none; stroke: #808080; stroke-opacity: 0.5; stroke-width: 0.5; stroke-linecap: square"/>
   </g>
   <g id="line2d_47">
    <path d="M 63.610938 228.948053 
L 144.346317 228.952151 
L 416.341406 228.932708 
L 416.341406 228.932708 
" clip-path="url(#p04601f83d3)" style="fill: none; stroke: #808080; stroke-opacity: 0.5; stroke-width: 0.5; stroke-linecap: square"/>
   </g>
   <g id="line2d_48">
    <path d="M 63.610938 228.953167 
L 248.827397 228.924623 
L 312.940787 228.898159 
L 379.428747 228.941449 
L 416.341406 228.93861 
L 416.341406 228.93861 
" clip-path="url(#p04601f83d3)" style="fill: none; stroke: #808080; stroke-opacity: 0.5; stroke-width: 0.5; stroke-linecap: square"/>
   </g>
   <g id="line2d_49">
    <path d="M 63.610938 228.956628 
L 405.549016 228.939634 
L 416.341406 228.936699 
L 416.341406 228.936699 
" clip-path="url(#p04601f83d3)" style="fill: none; stroke: #808080; stroke-opacity: 0.5; stroke-width: 0.5; stroke-linecap: square"/>
   </g>
   <g id="line2d_50">
    <path d="M 63.610938 228.95613 
L 289.195087 228.920661 
L 324.813637 228.92464 
L 416.341406 228.933759 
L 416.341406 228.933759 
" clip-path="url(#p04601f83d3)" style="fill: none; stroke: #808080; stroke-opacity: 0.5; stroke-width: 0.5; stroke-linecap: square"/>
   </g>
   <g id="line2d_51">
    <path d="M 63.610938 228.951674 
L 251.201967 228.930304 
L 322.439067 228.907594 
L 416.341406 228.940779 
L 416.341406 228.940779 
" clip-path="url(#p04601f83d3)" style="fill: none; stroke: #808080; stroke-opacity: 0.5; stroke-width: 0.5; stroke-linecap: square"/>
   </g>
   <g id="line2d_52">
    <path d="M 63.610938 228.957858 
L 416.341406 228.928656 
L 416.341406 228.928656 
" clip-path="url(#p04601f83d3)" style="fill: none; stroke: #808080; stroke-opacity: 0.5; stroke-width: 0.5; stroke-linecap: square"/>
   </g>
   <g id="line2d_53">
    <path d="M 63.610938 228.956718 
L 416.341406 228.919184 
L 416.341406 228.919184 
" clip-path="url(#p04601f83d3)" style="fill: none; stroke: #808080; stroke-opacity: 0.5; stroke-width: 0.5; stroke-linecap: square"/>
   </g>
   <g id="line2d_54">
    <path d="M 63.610938 228.932825 
L 122.975187 228.948918 
L 210.834277 228.941412 
L 416.341406 228.938506 
L 416.341406 228.938506 
" clip-path="url(#p04601f83d3)" style="fill: none; stroke: #808080; stroke-opacity: 0.5; stroke-width: 0.5; stroke-linecap: square"/>
   </g>
   <g id="line2d_55">
    <path d="M 63.610938 228.949541 
L 416.341406 228.930767 
L 416.341406 228.930767 
" clip-path="url(#p04601f83d3)" style="fill: none; stroke: #808080; stroke-opacity: 0.5; stroke-width: 0.5; stroke-linecap: square"/>
   </g>
   <g id="line2d_56">
    <path d="M 63.610938 228.957234 
L 416.341406 228.930378 
L 416.341406 228.930378 
" clip-path="url(#p04601f83d3)" style="fill: none; stroke: #808080; stroke-opacity: 0.5; stroke-width: 0.5; stroke-linecap: square"/>
   </g>
   <g id="line2d_57">
    <path d="M 63.610938 228.955769 
L 416.341406 228.941647 
L 416.341406 228.941647 
" clip-path="url(#p04601f83d3)" style="fill: none; stroke: #808080; stroke-opacity: 0.5; stroke-width: 0.5; stroke-linecap: square"/>
   </g>
   <g id="line2d_58">
    <path d="M 63.610938 228.950963 
L 248.827397 228.927836 
L 293.944227 228.918812 
L 346.184767 228.929445 
L 416.341406 228.927635 
L 416.341406 228.927635 
" clip-path="url(#p04601f83d3)" style="fill: none; stroke: #808080; stroke-opacity: 0.5; stroke-width: 0.5; stroke-linecap: square"/>
   </g>
   <g id="line2d_59">
    <path d="M 63.610938 228.956736 
L 416.341406 228.934356 
L 416.341406 228.934356 
" clip-path="url(#p04601f83d3)" style="fill: none; stroke: #808080; stroke-opacity: 0.5; stroke-width: 0.5; stroke-linecap: square"/>
   </g>
   <g id="line2d_60">
    <path d="M 63.610938 228.953482 
L 416.341406 228.940357 
L 416.341406 228.940357 
" clip-path="url(#p04601f83d3)" style="fill: none; stroke: #808080; stroke-opacity: 0.5; stroke-width: 0.5; stroke-linecap: square"/>
   </g>
   <g id="line2d_61">
    <path d="M 63.610938 228.955261 
L 386.552456 228.941613 
L 416.341406 228.938955 
L 416.341406 228.938955 
" clip-path="url(#p04601f83d3)" style="fill: none; stroke: #808080; stroke-opacity: 0.5; stroke-width: 0.5; stroke-linecap: square"/>
   </g>
   <g id="line2d_62">
    <path d="M 63.610938 228.957008 
L 298.693367 228.891033 
L 339.061057 228.891864 
L 379.428747 228.947461 
L 416.341406 228.933054 
L 416.341406 228.933054 
" clip-path="url(#p04601f83d3)" style="fill: none; stroke: #808080; stroke-opacity: 0.5; stroke-width: 0.5; stroke-linecap: square"/>
   </g>
   <g id="line2d_63">
    <path d="M 63.610938 228.947764 
L 416.341406 228.943637 
L 416.341406 228.943637 
" clip-path="url(#p04601f83d3)" style="fill: none; stroke: #808080; stroke-opacity: 0.5; stroke-width: 0.5; stroke-linecap: square"/>
   </g>
   <g id="line2d_64">
    <path d="M 63.610938 228.957294 
L 324.813637 228.872719 
L 350.933907 228.925196 
L 393.676166 228.933024 
L 416.341406 228.927053 
L 416.341406 228.927053 
" clip-path="url(#p04601f83d3)" style="fill: none; stroke: #808080; stroke-opacity: 0.5; stroke-width: 0.5; stroke-linecap: square"/>
   </g>
   <g id="line2d_65">
    <path d="M 63.610938 228.957864 
L 416.341406 228.906472 
L 416.341406 228.906472 
" clip-path="url(#p04601f83d3)" style="fill: none; stroke: #808080; stroke-opacity: 0.5; stroke-width: 0.5; stroke-linecap: square"/>
   </g>
   <g id="line2d_66">
    <path d="M 63.610938 228.954519 
L 303.442507 228.939182 
L 312.940787 228.929387 
L 327.188207 228.906425 
L 331.937347 228.893244 
L 341.435627 228.937497 
L 374.679607 228.917555 
L 416.341406 228.908429 
L 416.341406 228.908429 
" clip-path="url(#p04601f83d3)" style="fill: none; stroke: #808080; stroke-opacity: 0.5; stroke-width: 0.5; stroke-linecap: square"/>
   </g>
   <g id="line2d_67">
    <path d="M 63.610938 228.949506 
L 270.198527 228.942237 
L 315.315357 228.902842 
L 324.813637 228.88478 
L 331.937347 228.837094 
L 341.435627 228.892571 
L 362.806757 228.858411 
L 374.679607 228.858637 
L 410.298156 228.697069 
L 416.341406 228.680201 
L 416.341406 228.680201 
" clip-path="url(#p04601f83d3)" style="fill: none; stroke: #808080; stroke-opacity: 0.5; stroke-width: 0.5; stroke-linecap: square"/>
   </g>
   <g id="line2d_68">
    <path d="M 63.610938 228.927012 
L 241.703687 228.945839 
L 305.817077 228.779216 
L 315.315357 228.761014 
L 322.439067 228.744936 
L 334.311917 228.542438 
L 341.435627 228.639269 
L 358.057617 228.571709 
L 372.305037 228.48849 
L 386.552456 228.364577 
L 396.050736 228.167332 
L 407.923586 228.301901 
L 416.341406 228.239026 
L 416.341406 228.239026 
" clip-path="url(#p04601f83d3)" style="fill: none; stroke: #808080; stroke-opacity: 0.5; stroke-width: 0.5; stroke-linecap: square"/>
   </g>
   <g id="line2d_69">
    <path d="M 63.610938 228.898192 
L 80.232927 228.845799 
L 87.356637 228.877493 
L 101.604057 228.919644 
L 260.700247 228.899921 
L 277.322237 228.681787 
L 282.071377 228.384355 
L 289.195087 227.468096 
L 301.067937 228.202187 
L 308.191647 228.359917 
L 317.689927 228.297773 
L 327.188207 228.143725 
L 334.311917 228.025151 
L 339.061057 227.701741 
L 341.435627 227.328583 
L 343.810197 226.659332 
L 346.184767 225.769521 
L 348.559337 225.399112 
L 350.933907 226.000612 
L 353.308477 226.803809 
L 355.683047 227.362705 
L 358.057617 227.705966 
L 362.806757 228.030671 
L 367.555897 227.981993 
L 372.305037 227.609962 
L 374.679607 227.293529 
L 377.054177 226.808428 
L 381.803316 225.475445 
L 384.177886 225.605937 
L 386.552456 226.254345 
L 388.927026 226.730361 
L 391.301596 226.92722 
L 396.050736 226.937235 
L 398.425306 226.833139 
L 400.799876 226.572324 
L 403.174446 226.039402 
L 405.549016 225.285763 
L 407.923586 224.881776 
L 410.298156 225.219456 
L 412.672726 225.775297 
L 416.341406 226.312406 
L 416.341406 226.312406 
" clip-path="url(#p04601f83d3)" style="fill: none; stroke: #808080; stroke-opacity: 0.5; stroke-width: 0.5; stroke-linecap: square"/>
   </g>
   <g id="line2d_70">
    <path d="M 63.610938 224.862356 
L 65.985507 225.214389 
L 73.109217 227.076882 
L 75.483787 227.455807 
L 77.858357 227.593951 
L 80.232927 227.516515 
L 92.105777 226.432601 
L 94.480347 226.48091 
L 96.854917 226.730187 
L 103.978627 227.868899 
L 106.353197 227.987583 
L 115.851477 227.86886 
L 127.724327 227.750562 
L 139.597177 227.968703 
L 144.346317 227.812596 
L 149.095457 227.880809 
L 158.593737 228.058666 
L 172.841157 228.314887 
L 179.964867 228.278896 
L 189.463147 228.297978 
L 198.961427 228.182827 
L 225.081697 228.084241 
L 246.452827 227.257037 
L 255.951107 226.354546 
L 258.325677 225.889577 
L 260.700247 225.105707 
L 263.074817 223.974998 
L 267.823957 221.174169 
L 270.198527 219.569216 
L 272.573097 217.346146 
L 274.947667 213.937521 
L 279.696807 204.975411 
L 282.071377 203.118003 
L 284.445947 204.887146 
L 286.820517 208.664418 
L 289.195087 212.166527 
L 291.569657 214.502235 
L 293.944227 215.949116 
L 296.318797 216.985613 
L 298.693367 217.786001 
L 301.067937 218.271538 
L 303.442507 218.367065 
L 305.817077 218.130186 
L 310.566217 217.140893 
L 312.940787 216.51837 
L 315.315357 215.766949 
L 317.689927 214.736702 
L 320.064497 213.246633 
L 322.439067 211.129752 
L 324.813637 208.202205 
L 327.188207 204.181682 
L 329.562777 198.513611 
L 331.937347 189.972231 
L 334.311917 176.407328 
L 336.686487 156.03671 
L 339.061057 132.511114 
L 341.435627 119.923876 
L 343.810197 128.059746 
L 346.184767 146.087682 
L 348.559337 161.735283 
L 350.933907 172.663706 
L 353.308477 180.50347 
L 355.683047 186.344606 
L 358.057617 189.977893 
L 360.432187 190.747575 
L 362.806757 188.521229 
L 365.181327 183.823718 
L 367.555897 176.960605 
L 369.930467 166.985709 
L 374.679607 137.473709 
L 377.054177 134.000767 
L 379.428747 144.727183 
L 381.803316 157.734449 
L 384.177886 165.866751 
L 386.552456 168.469959 
L 388.927026 166.164621 
L 391.301596 158.72632 
L 393.676166 144.819741 
L 396.050736 122.865555 
L 398.425306 95.590552 
L 400.799876 77.452151 
L 403.174446 79.999555 
L 405.549016 91.538445 
L 407.923586 99.377295 
L 410.298156 99.946302 
L 412.672726 91.545622 
L 415.047296 71.470008 
L 416.341406 55.003676 
L 416.341406 55.003676 
" clip-path="url(#p04601f83d3)" style="fill: none; stroke: #808080; stroke-opacity: 0.5; stroke-width: 0.5; stroke-linecap: square"/>
   </g>
   <g id="line2d_71">
    <path d="M 63.610938 228.95201 
L 416.341406 228.919769 
L 416.341406 228.919769 
" clip-path="url(#p04601f83d3)" style="fill: none; stroke: #000000; stroke-width: 1.5; stroke-linecap: square"/>
   </g>
   <g id="line2d_72">
    <defs>
     <path id="m89ac9240a0" d="M 0 2.5 
C 0.663008 2.5 1.29895 2.236584 1.767767 1.767767 
C 2.236584 1.29895 2.5 0.663008 2.5 0 
C 2.5 -0.663008 2.236584 -1.29895 1.767767 -1.767767 
C 1.29895 -2.236584 0.663008 -2.5 0 -2.5 
C -0.663008 -2.5 -1.29895 -2.236584 -1.767767 -1.767767 
C -2.236584 -1.29895 -2.5 -0.663008 -2.5 0 
C -2.5 0.663008 -2.236584 1.29895 -1.767767 1.767767 
C -1.29895 2.236584 -0.663008 2.5 0 2.5 
z
" style="stroke: #ffffff; stroke-width: 0.5"/>
    </defs>
    <g clip-path="url(#p04601f83d3)">
     <use xlink:href="#m89ac9240a0" x="308.191647" y="228.896909" style="fill: #ff0000; stroke: #ffffff; stroke-width: 0.5"/>
    </g>
   </g>
   <g id="patch_3">
    <path d="M 63.610938 228.96 
L 63.610938 7.2 
" style="fill: none; stroke: #000000; stroke-width: 0.8; stroke-linejoin: miter; stroke-linecap: square"/>
   </g>
   <g id="patch_4">
    <path d="M 63.610938 228.96 
L 398.410938 228.96 
" style="fill: none; stroke: #000000; stroke-width: 0.8; stroke-linejoin: miter; stroke-linecap: square"/>
   </g>
  </g>
 </g>
 <defs>
  <clipPath id="p04601f83d3">
   <rect x="63.610938" y="7.2" width="334.8" height="221.76"/>
  </clipPath>
 </defs>
</svg>
