<?xml version="1.0" encoding="utf-8" standalone="no"?>
<!DOCTYPE svg PUBLIC "-//W3C//DTD SVG 1.1//EN"
  "http://www.w3.org/Graphics/SVG/1.1/DTD/svg11.dtd">
<svg xmlns:xlink="http://www.w3.org/1999/xlink" width="409.780469pt" height="265.689687pt" viewBox="0 0 409.780469 265.689687" xmlns="http://www.w3.org/2000/svg" version="1.1">
 <metadata>
  <rdf:RDF xmlns:dc="http://purl.org/dc/elements/1.1/" xmlns:cc="http://creativecommons.org/ns#" xmlns:rdf="http://www.w3.org/1999/02/22-rdf-syntax-ns#">
   <cc:Work>
    <dc:type rdf:resource="http://purl.org/dc/dcmitype/StillImage"/>
    <dc:date>2024-09-14T12:49:18.820250</dc:date>
    <dc:format>image/svg+xml</dc:format>
    <dc:creator>
     <cc:Agent>
      <dc:title>Matplotlib v3.9.2, https://matplotlib.org/</dc:title>
     </cc:Agent>
    </dc:creator>
   </cc:Work>
  </rdf:RDF>
 </metadata>
 <defs>
  <style type="text/css">*{stroke-linejoin: round; stroke-linecap: butt}</style>
 </defs>
 <g id="figure_1">
  <g id="patch_1">
   <path d="M 0 265.689687 
L 409.780469 265.689687 
L 409.780469 0 
L 0 0 
z
" style="fill: #ffffff"/>
  </g>
  <g id="axes_1">
   <g id="patch_2">
    <path d="M 58.05 228.96 
L 392.85 228.96 
L 392.85 7.2 
L 58.05 7.2 
z
" style="fill: #ffffff"/>
   </g>
   <g id="PolyCollection_1">
    <path d="M 58.05 228.511831 
L 58.05 228.847867 
L 60.42457 228.853663 
L 62.79914 228.859176 
L 65.17371 228.863563 
L 67.54828 228.865114 
L 69.92285 228.86348 
L 72.29742 228.860543 
L 74.67199 228.859463 
L 77.04656 228.86119 
L 79.42113 228.86284 
L 81.7957 228.862043 
L 84.17027 228.860129 
L 86.54484 228.859744 
L 88.91941 228.861353 
L 91.29398 228.863797 
L 93.66855 228.86596 
L 96.04312 228.867157 
L 98.41769 228.867157 
L 100.79226 228.866062 
L 103.16683 228.864927 
L 105.5414 228.864964 
L 107.91597 228.866075 
L 110.29054 228.867325 
L 112.66511 228.868253 
L 115.03968 228.869499 
L 117.41425 228.871225 
L 119.78882 228.872684 
L 122.16339 228.873006 
L 124.53796 228.872208 
L 126.91253 228.871323 
L 129.2871 228.871227 
L 131.66167 228.871992 
L 134.03624 228.873191 
L 136.41081 228.873438 
L 138.78538 228.872402 
L 141.15995 228.871847 
L 143.53452 228.873083 
L 145.90909 228.87537 
L 148.28366 228.877048 
L 150.65823 228.877301 
L 153.0328 228.87707 
L 155.40737 228.877287 
L 157.78194 228.877649 
L 160.15651 228.877699 
L 162.53108 228.876799 
L 164.90565 228.874349 
L 167.28022 228.871696 
L 169.65479 228.869112 
L 172.02936 228.864211 
L 174.40393 228.85581 
L 176.7785 228.846629 
L 179.15307 228.841357 
L 181.52764 228.841644 
L 183.90221 228.844789 
L 186.27678 228.847137 
L 188.65135 228.846519 
L 191.02592 228.843117 
L 193.40049 228.83917 
L 195.77506 228.836982 
L 198.14963 228.83716 
L 200.5242 228.838736 
L 202.89877 228.841302 
L 205.27334 228.844981 
L 207.64791 228.848626 
L 210.02248 228.850963 
L 212.39705 228.852521 
L 214.77162 228.854799 
L 217.146189 228.858371 
L 219.520759 228.863089 
L 221.895329 228.868084 
L 224.269899 228.872448 
L 226.644469 228.876054 
L 229.019039 228.878958 
L 231.393609 228.88119 
L 233.768179 228.883193 
L 236.142749 228.88553 
L 238.517319 228.887801 
L 240.891889 228.888976 
L 243.266459 228.888512 
L 245.641029 228.886974 
L 248.015599 228.885845 
L 250.390169 228.886085 
L 252.764739 228.887111 
L 255.139309 228.887843 
L 257.513879 228.88822 
L 259.888449 228.889504 
L 262.263019 228.893016 
L 264.637589 228.89838 
L 267.012159 228.903587 
L 269.386729 228.906313 
L 271.761299 228.905425 
L 274.135869 228.901471 
L 276.510439 228.895767 
L 278.885009 228.890225 
L 281.259579 228.886955 
L 283.634149 228.887013 
L 286.008719 228.889887 
L 288.383289 228.893627 
L 290.757859 228.896317 
L 293.132429 228.897705 
L 295.506999 228.898413 
L 297.881569 228.898779 
L 300.256139 228.898929 
L 302.630709 228.898803 
L 305.005279 228.898153 
L 307.379849 228.897051 
L 309.754419 228.896195 
L 312.128989 228.896281 
L 314.503559 228.897383 
L 316.878129 228.899045 
L 319.252699 228.900664 
L 321.627269 228.901778 
L 324.001839 228.902295 
L 326.376409 228.902582 
L 328.750979 228.902979 
L 331.125549 228.903444 
L 333.500119 228.904031 
L 335.874689 228.905033 
L 338.249259 228.906518 
L 340.623829 228.908171 
L 342.998399 228.909393 
L 345.372969 228.909666 
L 347.747539 228.909162 
L 350.122109 228.908864 
L 352.496679 228.909679 
L 354.871249 228.911287 
L 357.245819 228.912672 
L 359.620389 228.913403 
L 361.994959 228.913761 
L 364.369529 228.914323 
L 366.744099 228.915377 
L 369.118669 228.916544 
L 371.493239 228.917279 
L 373.867809 228.917471 
L 376.242379 228.917521 
L 378.616949 228.917877 
L 380.991519 228.918621 
L 383.366089 228.919399 
L 385.740659 228.91981 
L 388.115229 228.919777 
L 390.489799 228.919502 
L 392.864369 228.919282 
L 395.238939 228.919372 
L 397.613509 228.919941 
L 399.988079 228.920915 
L 402.362649 228.921977 
L 404.737219 228.922916 
L 407.111789 228.923696 
L 409.486359 228.924372 
L 411.860929 228.925075 
L 414.235499 228.925947 
L 416.610069 228.927061 
L 418.984639 228.928392 
L 421.359209 228.929836 
L 423.733779 228.931227 
L 426.108349 228.932424 
L 428.482919 228.933357 
L 430.857489 228.933926 
L 433.232059 228.933925 
L 435.606629 228.933169 
L 437.981199 228.93167 
L 440.355769 228.929627 
L 442.730339 228.92731 
L 445.104909 228.925035 
L 447.479479 228.923104 
L 449.854049 228.921718 
L 452.228619 228.920939 
L 454.603189 228.920714 
L 456.977759 228.920959 
L 459.352329 228.921701 
L 461.726899 228.923032 
L 464.101469 228.924926 
L 466.476039 228.92708 
L 468.850609 228.928956 
L 471.225179 228.930023 
L 473.599749 228.929947 
L 475.974319 228.928544 
L 478.348889 228.925949 
L 480.723459 228.922847 
L 483.098029 228.920415 
L 485.472599 228.919724 
L 487.847169 228.920972 
L 490.221739 228.923447 
L 492.596309 228.926116 
L 494.970879 228.928108 
L 497.345449 228.928924 
L 499.720019 228.928445 
L 502.094589 228.926914 
L 504.469159 228.924853 
L 506.843729 228.92296 
L 509.218299 228.921945 
L 511.592869 228.922186 
L 513.967439 228.923469 
L 516.342009 228.92518 
L 518.716579 228.926692 
L 521.091149 228.927637 
L 523.465719 228.927988 
L 525.840289 228.927923 
L 528.214859 228.927673 
L 530.589429 228.927434 
L 530.589429 228.706079 
L 530.589429 228.706079 
L 528.214859 228.724783 
L 525.840289 228.742761 
L 523.465719 228.758386 
L 521.091149 228.770086 
L 518.716579 228.777083 
L 516.342009 228.780036 
L 513.967439 228.781213 
L 511.592869 228.784069 
L 509.218299 228.791579 
L 506.843729 228.80392 
L 504.469159 228.818476 
L 502.094589 228.832011 
L 499.720019 228.842213 
L 497.345449 228.847987 
L 494.970879 228.849304 
L 492.596309 228.84682 
L 490.221739 228.842023 
L 487.847169 228.837525 
L 485.472599 228.836499 
L 483.098029 228.840858 
L 480.723459 228.849607 
L 478.348889 228.859512 
L 475.974319 228.867458 
L 473.599749 228.872085 
L 471.225179 228.873557 
L 468.850609 228.872562 
L 466.476039 228.869891 
L 464.101469 228.866555 
L 461.726899 228.863481 
L 459.352329 228.861097 
L 456.977759 228.859665 
L 454.603189 228.85952 
L 452.228619 228.860895 
L 449.854049 228.863784 
L 447.479479 228.868042 
L 445.104909 228.873316 
L 442.730339 228.878918 
L 440.355769 228.884115 
L 437.981199 228.888475 
L 435.606629 228.891795 
L 433.232059 228.89393 
L 430.857489 228.895008 
L 428.482919 228.895426 
L 426.108349 228.895413 
L 423.733779 228.894854 
L 421.359209 228.893566 
L 418.984639 228.891655 
L 416.610069 228.889566 
L 414.235499 228.887839 
L 411.860929 228.88688 
L 409.486359 228.886764 
L 407.111789 228.887137 
L 404.737219 228.887326 
L 402.362649 228.886714 
L 399.988079 228.885306 
L 397.613509 228.883566 
L 395.238939 228.882004 
L 392.864369 228.881138 
L 390.489799 228.881074 
L 388.115229 228.881388 
L 385.740659 228.881507 
L 383.366089 228.881128 
L 380.991519 228.880329 
L 378.616949 228.879331 
L 376.242379 228.878524 
L 373.867809 228.878247 
L 371.493239 228.878518 
L 369.118669 228.879191 
L 366.744099 228.879862 
L 364.369529 228.879782 
L 361.994959 228.878315 
L 359.620389 228.875675 
L 357.245819 228.872696 
L 354.871249 228.870308 
L 352.496679 228.868868 
L 350.122109 228.867786 
L 347.747539 228.866481 
L 345.372969 228.864771 
L 342.998399 228.862775 
L 340.623829 228.861226 
L 338.249259 228.860958 
L 335.874689 228.861833 
L 333.500119 228.862872 
L 331.125549 228.863379 
L 328.750979 228.863212 
L 326.376409 228.862263 
L 324.001839 228.860666 
L 321.627269 228.859074 
L 319.252699 228.857742 
L 316.878129 228.856081 
L 314.503559 228.853653 
L 312.128989 228.85103 
L 309.754419 228.849379 
L 307.379849 228.8494 
L 305.005279 228.851079 
L 302.630709 228.853857 
L 300.256139 228.856799 
L 297.881569 228.859016 
L 295.506999 228.859742 
L 293.132429 228.858075 
L 290.757859 228.853246 
L 288.383289 228.845286 
L 286.008719 228.835207 
L 283.634149 228.825785 
L 281.259579 228.822559 
L 278.885009 228.829473 
L 276.510439 228.84346 
L 274.135869 228.857331 
L 271.761299 228.865286 
L 269.386729 228.865476 
L 267.012159 228.859722 
L 264.637589 228.850808 
L 262.263019 228.840543 
L 259.888449 228.829039 
L 257.513879 228.815217 
L 255.139309 228.800099 
L 252.764739 228.788764 
L 250.390169 228.786891 
L 248.015599 228.794204 
L 245.641029 228.804882 
L 243.266459 228.813514 
L 240.891889 228.8179 
L 238.517319 228.81841 
L 236.142749 228.815848 
L 233.768179 228.810217 
L 231.393609 228.801562 
L 229.019039 228.790597 
L 226.644469 228.778294 
L 224.269899 228.765825 
L 221.895329 228.754164 
L 219.520759 228.74487 
L 217.146189 228.73906 
L 214.77162 228.735908 
L 212.39705 228.731715 
L 210.02248 228.721802 
L 207.64791 228.705274 
L 205.27334 228.683791 
L 202.89877 228.66091 
L 200.5242 228.643644 
L 198.14963 228.639232 
L 195.77506 228.647097 
L 193.40049 228.66058 
L 191.02592 228.674606 
L 188.65135 228.685497 
L 186.27678 228.690374 
L 183.90221 228.687744 
L 181.52764 228.679611 
L 179.15307 228.673193 
L 176.7785 228.676072 
L 174.40393 228.689034 
L 172.02936 228.706729 
L 169.65479 228.722901 
L 167.28022 228.731812 
L 164.90565 228.729646 
L 162.53108 228.719969 
L 160.15651 228.710244 
L 157.78194 228.702499 
L 155.40737 228.698958 
L 153.0328 228.699932 
L 150.65823 228.69914 
L 148.28366 228.692308 
L 145.90909 228.682539 
L 143.53452 228.673533 
L 141.15995 228.666019 
L 138.78538 228.659088 
L 136.41081 228.65389 
L 134.03624 228.652822 
L 131.66167 228.653959 
L 129.2871 228.654972 
L 126.91253 228.655668 
L 124.53796 228.654579 
L 122.16339 228.651175 
L 119.78882 228.646048 
L 117.41425 228.640397 
L 115.03968 228.634188 
L 112.66511 228.627954 
L 110.29054 228.62518 
L 107.91597 228.627542 
L 105.5414 228.630039 
L 103.16683 228.628949 
L 100.79226 228.624297 
L 98.41769 228.616568 
L 96.04312 228.602976 
L 93.66855 228.583718 
L 91.29398 228.567225 
L 88.91941 228.562101 
L 86.54484 228.568551 
L 84.17027 228.577906 
L 81.7957 228.583672 
L 79.42113 228.586409 
L 77.04656 228.585691 
L 74.67199 228.575782 
L 72.29742 228.55665 
L 69.92285 228.541161 
L 67.54828 228.537274 
L 65.17371 228.536409 
L 62.79914 228.530463 
L 60.42457 228.520707 
L 58.05 228.511831 
z
" clip-path="url(#pe92b5efb1c)" style="fill: #808080; fill-opacity: 0.5; stroke: #808080; stroke-opacity: 0.5"/>
   </g>
   <g id="matplotlib.axis_1">
    <g id="xtick_1">
     <g id="line2d_1">
      <defs>
       <path id="m082fe238ea" d="M 0 0 
L 0 3.5 
" style="stroke: #000000; stroke-width: 0.8"/>
      </defs>
      <g>
       <use xlink:href="#m082fe238ea" x="195.789429" y="228.96" style="stroke: #000000; stroke-width: 0.8"/>
      </g>
     </g>
     <g id="text_1">
      <!-- 1.0 -->
      <g transform="translate(188.839429 243.117812) scale(0.1 -0.1)">
       <defs>
        <path id="ArialMT-31" d="M 2384 0 
L 1822 0 
L 1822 3584 
Q 1619 3391 1289 3197 
Q 959 3003 697 2906 
L 697 3450 
Q 1169 3672 1522 3987 
Q 1875 4303 2022 4600 
L 2384 4600 
L 2384 0 
z
" transform="scale(0.015625)"/>
        <path id="ArialMT-2e" d="M 581 0 
L 581 641 
L 1222 641 
L 1222 0 
L 581 0 
z
" transform="scale(0.015625)"/>
        <path id="ArialMT-30" d="M 266 2259 
Q 266 3072 433 3567 
Q 600 4063 929 4331 
Q 1259 4600 1759 4600 
Q 2128 4600 2406 4451 
Q 2684 4303 2865 4023 
Q 3047 3744 3150 3342 
Q 3253 2941 3253 2259 
Q 3253 1453 3087 958 
Q 2922 463 2592 192 
Q 2263 -78 1759 -78 
Q 1097 -78 719 397 
Q 266 969 266 2259 
z
M 844 2259 
Q 844 1131 1108 757 
Q 1372 384 1759 384 
Q 2147 384 2411 759 
Q 2675 1134 2675 2259 
Q 2675 3391 2411 3762 
Q 2147 4134 1753 4134 
Q 1366 4134 1134 3806 
Q 844 3388 844 2259 
z
" transform="scale(0.015625)"/>
       </defs>
       <use xlink:href="#ArialMT-31"/>
       <use xlink:href="#ArialMT-2e" x="55.615234"/>
       <use xlink:href="#ArialMT-30" x="83.398438"/>
      </g>
     </g>
    </g>
    <g id="xtick_2">
     <g id="line2d_2">
      <g>
       <use xlink:href="#m082fe238ea" x="392.85" y="228.96" style="stroke: #000000; stroke-width: 0.8"/>
      </g>
     </g>
     <g id="text_2">
      <!-- 10.0 -->
      <g transform="translate(383.119531 243.117812) scale(0.1 -0.1)">
       <use xlink:href="#ArialMT-31"/>
       <use xlink:href="#ArialMT-30" x="55.615234"/>
       <use xlink:href="#ArialMT-2e" x="111.230469"/>
       <use xlink:href="#ArialMT-30" x="139.013672"/>
      </g>
     </g>
    </g>
    <g id="xtick_3">
     <g id="line2d_3">
      <defs>
       <path id="ma37524c4c2" d="M 0 0 
L 0 2 
" style="stroke: #000000; stroke-width: 0.6"/>
      </defs>
      <g>
       <use xlink:href="#ma37524c4c2" x="58.05" y="228.96" style="stroke: #000000; stroke-width: 0.6"/>
      </g>
     </g>
    </g>
    <g id="xtick_4">
     <g id="line2d_4">
      <g>
       <use xlink:href="#ma37524c4c2" x="92.750644" y="228.96" style="stroke: #000000; stroke-width: 0.6"/>
      </g>
     </g>
    </g>
    <g id="xtick_5">
     <g id="line2d_5">
      <g>
       <use xlink:href="#ma37524c4c2" x="117.371143" y="228.96" style="stroke: #000000; stroke-width: 0.6"/>
      </g>
     </g>
    </g>
    <g id="xtick_6">
     <g id="line2d_6">
      <g>
       <use xlink:href="#ma37524c4c2" x="136.468286" y="228.96" style="stroke: #000000; stroke-width: 0.6"/>
      </g>
     </g>
    </g>
    <g id="xtick_7">
     <g id="line2d_7">
      <g>
       <use xlink:href="#ma37524c4c2" x="152.071787" y="228.96" style="stroke: #000000; stroke-width: 0.6"/>
      </g>
     </g>
    </g>
    <g id="xtick_8">
     <g id="line2d_8">
      <g>
       <use xlink:href="#ma37524c4c2" x="165.26436" y="228.96" style="stroke: #000000; stroke-width: 0.6"/>
      </g>
     </g>
    </g>
    <g id="xtick_9">
     <g id="line2d_9">
      <g>
       <use xlink:href="#ma37524c4c2" x="176.692286" y="228.96" style="stroke: #000000; stroke-width: 0.6"/>
      </g>
     </g>
    </g>
    <g id="xtick_10">
     <g id="line2d_10">
      <g>
       <use xlink:href="#ma37524c4c2" x="186.772431" y="228.96" style="stroke: #000000; stroke-width: 0.6"/>
      </g>
     </g>
    </g>
    <g id="xtick_11">
     <g id="line2d_11">
      <g>
       <use xlink:href="#ma37524c4c2" x="255.110571" y="228.96" style="stroke: #000000; stroke-width: 0.6"/>
      </g>
     </g>
    </g>
    <g id="xtick_12">
     <g id="line2d_12">
      <g>
       <use xlink:href="#ma37524c4c2" x="289.811216" y="228.96" style="stroke: #000000; stroke-width: 0.6"/>
      </g>
     </g>
    </g>
    <g id="xtick_13">
     <g id="line2d_13">
      <g>
       <use xlink:href="#ma37524c4c2" x="314.431714" y="228.96" style="stroke: #000000; stroke-width: 0.6"/>
      </g>
     </g>
    </g>
    <g id="xtick_14">
     <g id="line2d_14">
      <g>
       <use xlink:href="#ma37524c4c2" x="333.528857" y="228.96" style="stroke: #000000; stroke-width: 0.6"/>
      </g>
     </g>
    </g>
    <g id="xtick_15">
     <g id="line2d_15">
      <g>
       <use xlink:href="#ma37524c4c2" x="349.132359" y="228.96" style="stroke: #000000; stroke-width: 0.6"/>
      </g>
     </g>
    </g>
    <g id="xtick_16">
     <g id="line2d_16">
      <g>
       <use xlink:href="#ma37524c4c2" x="362.324931" y="228.96" style="stroke: #000000; stroke-width: 0.6"/>
      </g>
     </g>
    </g>
    <g id="xtick_17">
     <g id="line2d_17">
      <g>
       <use xlink:href="#ma37524c4c2" x="373.752857" y="228.96" style="stroke: #000000; stroke-width: 0.6"/>
      </g>
     </g>
    </g>
    <g id="xtick_18">
     <g id="line2d_18">
      <g>
       <use xlink:href="#ma37524c4c2" x="383.833003" y="228.96" style="stroke: #000000; stroke-width: 0.6"/>
      </g>
     </g>
    </g>
    <g id="text_3">
     <!-- Frequency (Hz) -->
     <g transform="translate(190.999219 256.385) scale(0.1 -0.1)">
      <defs>
       <path id="ArialMT-46" d="M 525 0 
L 525 4581 
L 3616 4581 
L 3616 4041 
L 1131 4041 
L 1131 2622 
L 3281 2622 
L 3281 2081 
L 1131 2081 
L 1131 0 
L 525 0 
z
" transform="scale(0.015625)"/>
       <path id="ArialMT-72" d="M 416 0 
L 416 3319 
L 922 3319 
L 922 2816 
Q 1116 3169 1280 3281 
Q 1444 3394 1641 3394 
Q 1925 3394 2219 3213 
L 2025 2691 
Q 1819 2813 1613 2813 
Q 1428 2813 1281 2702 
Q 1134 2591 1072 2394 
Q 978 2094 978 1738 
L 978 0 
L 416 0 
z
" transform="scale(0.015625)"/>
       <path id="ArialMT-65" d="M 2694 1069 
L 3275 997 
Q 3138 488 2766 206 
Q 2394 -75 1816 -75 
Q 1088 -75 661 373 
Q 234 822 234 1631 
Q 234 2469 665 2931 
Q 1097 3394 1784 3394 
Q 2450 3394 2872 2941 
Q 3294 2488 3294 1666 
Q 3294 1616 3291 1516 
L 816 1516 
Q 847 969 1125 678 
Q 1403 388 1819 388 
Q 2128 388 2347 550 
Q 2566 713 2694 1069 
z
M 847 1978 
L 2700 1978 
Q 2663 2397 2488 2606 
Q 2219 2931 1791 2931 
Q 1403 2931 1139 2672 
Q 875 2413 847 1978 
z
" transform="scale(0.015625)"/>
       <path id="ArialMT-71" d="M 2538 -1272 
L 2538 353 
Q 2406 169 2170 47 
Q 1934 -75 1669 -75 
Q 1078 -75 651 397 
Q 225 869 225 1691 
Q 225 2191 398 2587 
Q 572 2984 901 3189 
Q 1231 3394 1625 3394 
Q 2241 3394 2594 2875 
L 2594 3319 
L 3100 3319 
L 3100 -1272 
L 2538 -1272 
z
M 803 1669 
Q 803 1028 1072 708 
Q 1341 388 1716 388 
Q 2075 388 2334 692 
Q 2594 997 2594 1619 
Q 2594 2281 2320 2615 
Q 2047 2950 1678 2950 
Q 1313 2950 1058 2639 
Q 803 2328 803 1669 
z
" transform="scale(0.015625)"/>
       <path id="ArialMT-75" d="M 2597 0 
L 2597 488 
Q 2209 -75 1544 -75 
Q 1250 -75 995 37 
Q 741 150 617 320 
Q 494 491 444 738 
Q 409 903 409 1263 
L 409 3319 
L 972 3319 
L 972 1478 
Q 972 1038 1006 884 
Q 1059 663 1231 536 
Q 1403 409 1656 409 
Q 1909 409 2131 539 
Q 2353 669 2445 892 
Q 2538 1116 2538 1541 
L 2538 3319 
L 3100 3319 
L 3100 0 
L 2597 0 
z
" transform="scale(0.015625)"/>
       <path id="ArialMT-6e" d="M 422 0 
L 422 3319 
L 928 3319 
L 928 2847 
Q 1294 3394 1984 3394 
Q 2284 3394 2536 3286 
Q 2788 3178 2913 3003 
Q 3038 2828 3088 2588 
Q 3119 2431 3119 2041 
L 3119 0 
L 2556 0 
L 2556 2019 
Q 2556 2363 2490 2533 
Q 2425 2703 2258 2804 
Q 2091 2906 1866 2906 
Q 1506 2906 1245 2678 
Q 984 2450 984 1813 
L 984 0 
L 422 0 
z
" transform="scale(0.015625)"/>
       <path id="ArialMT-63" d="M 2588 1216 
L 3141 1144 
Q 3050 572 2676 248 
Q 2303 -75 1759 -75 
Q 1078 -75 664 370 
Q 250 816 250 1647 
Q 250 2184 428 2587 
Q 606 2991 970 3192 
Q 1334 3394 1763 3394 
Q 2303 3394 2647 3120 
Q 2991 2847 3088 2344 
L 2541 2259 
Q 2463 2594 2264 2762 
Q 2066 2931 1784 2931 
Q 1359 2931 1093 2626 
Q 828 2322 828 1663 
Q 828 994 1084 691 
Q 1341 388 1753 388 
Q 2084 388 2306 591 
Q 2528 794 2588 1216 
z
" transform="scale(0.015625)"/>
       <path id="ArialMT-79" d="M 397 -1278 
L 334 -750 
Q 519 -800 656 -800 
Q 844 -800 956 -737 
Q 1069 -675 1141 -563 
Q 1194 -478 1313 -144 
Q 1328 -97 1363 -6 
L 103 3319 
L 709 3319 
L 1400 1397 
Q 1534 1031 1641 628 
Q 1738 1016 1872 1384 
L 2581 3319 
L 3144 3319 
L 1881 -56 
Q 1678 -603 1566 -809 
Q 1416 -1088 1222 -1217 
Q 1028 -1347 759 -1347 
Q 597 -1347 397 -1278 
z
" transform="scale(0.015625)"/>
       <path id="ArialMT-20" transform="scale(0.015625)"/>
       <path id="ArialMT-28" d="M 1497 -1347 
Q 1031 -759 709 28 
Q 388 816 388 1659 
Q 388 2403 628 3084 
Q 909 3875 1497 4659 
L 1900 4659 
Q 1522 4009 1400 3731 
Q 1209 3300 1100 2831 
Q 966 2247 966 1656 
Q 966 153 1900 -1347 
L 1497 -1347 
z
" transform="scale(0.015625)"/>
       <path id="ArialMT-48" d="M 513 0 
L 513 4581 
L 1119 4581 
L 1119 2700 
L 3500 2700 
L 3500 4581 
L 4106 4581 
L 4106 0 
L 3500 0 
L 3500 2159 
L 1119 2159 
L 1119 0 
L 513 0 
z
" transform="scale(0.015625)"/>
       <path id="ArialMT-7a" d="M 125 0 
L 125 456 
L 2238 2881 
Q 1878 2863 1603 2863 
L 250 2863 
L 250 3319 
L 2963 3319 
L 2963 2947 
L 1166 841 
L 819 456 
Q 1197 484 1528 484 
L 3063 484 
L 3063 0 
L 125 0 
z
" transform="scale(0.015625)"/>
       <path id="ArialMT-29" d="M 791 -1347 
L 388 -1347 
Q 1322 153 1322 1656 
Q 1322 2244 1188 2822 
Q 1081 3291 891 3722 
Q 769 4003 388 4659 
L 791 4659 
Q 1378 3875 1659 3084 
Q 1900 2403 1900 1659 
Q 1900 816 1576 28 
Q 1253 -759 791 -1347 
z
" transform="scale(0.015625)"/>
      </defs>
      <use xlink:href="#ArialMT-46"/>
      <use xlink:href="#ArialMT-72" x="61.083984"/>
      <use xlink:href="#ArialMT-65" x="94.384766"/>
      <use xlink:href="#ArialMT-71" x="150"/>
      <use xlink:href="#ArialMT-75" x="205.615234"/>
      <use xlink:href="#ArialMT-65" x="261.230469"/>
      <use xlink:href="#ArialMT-6e" x="316.845703"/>
      <use xlink:href="#ArialMT-63" x="372.460938"/>
      <use xlink:href="#ArialMT-79" x="422.460938"/>
      <use xlink:href="#ArialMT-20" x="472.460938"/>
      <use xlink:href="#ArialMT-28" x="500.244141"/>
      <use xlink:href="#ArialMT-48" x="533.544922"/>
      <use xlink:href="#ArialMT-7a" x="605.761719"/>
      <use xlink:href="#ArialMT-29" x="655.761719"/>
     </g>
    </g>
   </g>
   <g id="matplotlib.axis_2">
    <g id="ytick_1">
     <g id="line2d_19">
      <defs>
       <path id="mb3c4ad3b0e" d="M 0 0 
L -3.5 0 
" style="stroke: #000000; stroke-width: 0.8"/>
      </defs>
      <g>
       <use xlink:href="#mb3c4ad3b0e" x="58.05" y="228.96" style="stroke: #000000; stroke-width: 0.8"/>
      </g>
     </g>
     <g id="text_4">
      <!-- 0.0 -->
      <g transform="translate(37.15 232.538906) scale(0.1 -0.1)">
       <use xlink:href="#ArialMT-30"/>
       <use xlink:href="#ArialMT-2e" x="55.615234"/>
       <use xlink:href="#ArialMT-30" x="83.398438"/>
      </g>
     </g>
    </g>
    <g id="ytick_2">
     <g id="line2d_20">
      <g>
       <use xlink:href="#mb3c4ad3b0e" x="58.05" y="203.02521" style="stroke: #000000; stroke-width: 0.8"/>
      </g>
     </g>
     <g id="text_5">
      <!-- 250.0 -->
      <g transform="translate(26.028125 206.604116) scale(0.1 -0.1)">
       <defs>
        <path id="ArialMT-32" d="M 3222 541 
L 3222 0 
L 194 0 
Q 188 203 259 391 
Q 375 700 629 1000 
Q 884 1300 1366 1694 
Q 2113 2306 2375 2664 
Q 2638 3022 2638 3341 
Q 2638 3675 2398 3904 
Q 2159 4134 1775 4134 
Q 1369 4134 1125 3890 
Q 881 3647 878 3216 
L 300 3275 
Q 359 3922 746 4261 
Q 1134 4600 1788 4600 
Q 2447 4600 2831 4234 
Q 3216 3869 3216 3328 
Q 3216 3053 3103 2787 
Q 2991 2522 2730 2228 
Q 2469 1934 1863 1422 
Q 1356 997 1212 845 
Q 1069 694 975 541 
L 3222 541 
z
" transform="scale(0.015625)"/>
        <path id="ArialMT-35" d="M 266 1200 
L 856 1250 
Q 922 819 1161 601 
Q 1400 384 1738 384 
Q 2144 384 2425 690 
Q 2706 997 2706 1503 
Q 2706 1984 2436 2262 
Q 2166 2541 1728 2541 
Q 1456 2541 1237 2417 
Q 1019 2294 894 2097 
L 366 2166 
L 809 4519 
L 3088 4519 
L 3088 3981 
L 1259 3981 
L 1013 2750 
Q 1425 3038 1878 3038 
Q 2478 3038 2890 2622 
Q 3303 2206 3303 1553 
Q 3303 931 2941 478 
Q 2500 -78 1738 -78 
Q 1113 -78 717 272 
Q 322 622 266 1200 
z
" transform="scale(0.015625)"/>
       </defs>
       <use xlink:href="#ArialMT-32"/>
       <use xlink:href="#ArialMT-35" x="55.615234"/>
       <use xlink:href="#ArialMT-30" x="111.230469"/>
       <use xlink:href="#ArialMT-2e" x="166.845703"/>
       <use xlink:href="#ArialMT-30" x="194.628906"/>
      </g>
     </g>
    </g>
    <g id="ytick_3">
     <g id="line2d_21">
      <g>
       <use xlink:href="#mb3c4ad3b0e" x="58.05" y="177.09042" style="stroke: #000000; stroke-width: 0.8"/>
      </g>
     </g>
     <g id="text_6">
      <!-- 500.0 -->
      <g transform="translate(26.028125 180.669327) scale(0.1 -0.1)">
       <use xlink:href="#ArialMT-35"/>
       <use xlink:href="#ArialMT-30" x="55.615234"/>
       <use xlink:href="#ArialMT-30" x="111.230469"/>
       <use xlink:href="#ArialMT-2e" x="166.845703"/>
       <use xlink:href="#ArialMT-30" x="194.628906"/>
      </g>
     </g>
    </g>
    <g id="ytick_4">
     <g id="line2d_22">
      <g>
       <use xlink:href="#mb3c4ad3b0e" x="58.05" y="151.155631" style="stroke: #000000; stroke-width: 0.8"/>
      </g>
     </g>
     <g id="text_7">
      <!-- 750.0 -->
      <g transform="translate(26.028125 154.734537) scale(0.1 -0.1)">
       <defs>
        <path id="ArialMT-37" d="M 303 3981 
L 303 4522 
L 3269 4522 
L 3269 4084 
Q 2831 3619 2401 2847 
Q 1972 2075 1738 1259 
Q 1569 684 1522 0 
L 944 0 
Q 953 541 1156 1306 
Q 1359 2072 1739 2783 
Q 2119 3494 2547 3981 
L 303 3981 
z
" transform="scale(0.015625)"/>
       </defs>
       <use xlink:href="#ArialMT-37"/>
       <use xlink:href="#ArialMT-35" x="55.615234"/>
       <use xlink:href="#ArialMT-30" x="111.230469"/>
       <use xlink:href="#ArialMT-2e" x="166.845703"/>
       <use xlink:href="#ArialMT-30" x="194.628906"/>
      </g>
     </g>
    </g>
    <g id="ytick_5">
     <g id="line2d_23">
      <g>
       <use xlink:href="#mb3c4ad3b0e" x="58.05" y="125.220841" style="stroke: #000000; stroke-width: 0.8"/>
      </g>
     </g>
     <g id="text_8">
      <!-- 1000.0 -->
      <g transform="translate(20.467188 128.799747) scale(0.1 -0.1)">
       <use xlink:href="#ArialMT-31"/>
       <use xlink:href="#ArialMT-30" x="55.615234"/>
       <use xlink:href="#ArialMT-30" x="111.230469"/>
       <use xlink:href="#ArialMT-30" x="166.845703"/>
       <use xlink:href="#ArialMT-2e" x="222.460938"/>
       <use xlink:href="#ArialMT-30" x="250.244141"/>
      </g>
     </g>
    </g>
    <g id="ytick_6">
     <g id="line2d_24">
      <g>
       <use xlink:href="#mb3c4ad3b0e" x="58.05" y="99.286051" style="stroke: #000000; stroke-width: 0.8"/>
      </g>
     </g>
     <g id="text_9">
      <!-- 1250.0 -->
      <g transform="translate(20.467188 102.864957) scale(0.1 -0.1)">
       <use xlink:href="#ArialMT-31"/>
       <use xlink:href="#ArialMT-32" x="55.615234"/>
       <use xlink:href="#ArialMT-35" x="111.230469"/>
       <use xlink:href="#ArialMT-30" x="166.845703"/>
       <use xlink:href="#ArialMT-2e" x="222.460938"/>
       <use xlink:href="#ArialMT-30" x="250.244141"/>
      </g>
     </g>
    </g>
    <g id="ytick_7">
     <g id="line2d_25">
      <g>
       <use xlink:href="#mb3c4ad3b0e" x="58.05" y="73.351261" style="stroke: #000000; stroke-width: 0.8"/>
      </g>
     </g>
     <g id="text_10">
      <!-- 1500.0 -->
      <g transform="translate(20.467188 76.930168) scale(0.1 -0.1)">
       <use xlink:href="#ArialMT-31"/>
       <use xlink:href="#ArialMT-35" x="55.615234"/>
       <use xlink:href="#ArialMT-30" x="111.230469"/>
       <use xlink:href="#ArialMT-30" x="166.845703"/>
       <use xlink:href="#ArialMT-2e" x="222.460938"/>
       <use xlink:href="#ArialMT-30" x="250.244141"/>
      </g>
     </g>
    </g>
    <g id="ytick_8">
     <g id="line2d_26">
      <g>
       <use xlink:href="#mb3c4ad3b0e" x="58.05" y="47.416472" style="stroke: #000000; stroke-width: 0.8"/>
      </g>
     </g>
     <g id="text_11">
      <!-- 1750.0 -->
      <g transform="translate(20.467188 50.995378) scale(0.1 -0.1)">
       <use xlink:href="#ArialMT-31"/>
       <use xlink:href="#ArialMT-37" x="55.615234"/>
       <use xlink:href="#ArialMT-35" x="111.230469"/>
       <use xlink:href="#ArialMT-30" x="166.845703"/>
       <use xlink:href="#ArialMT-2e" x="222.460938"/>
       <use xlink:href="#ArialMT-30" x="250.244141"/>
      </g>
     </g>
    </g>
    <g id="ytick_9">
     <g id="line2d_27">
      <g>
       <use xlink:href="#mb3c4ad3b0e" x="58.05" y="21.481682" style="stroke: #000000; stroke-width: 0.8"/>
      </g>
     </g>
     <g id="text_12">
      <!-- 2000.0 -->
      <g transform="translate(20.467188 25.060588) scale(0.1 -0.1)">
       <use xlink:href="#ArialMT-32"/>
       <use xlink:href="#ArialMT-30" x="55.615234"/>
       <use xlink:href="#ArialMT-30" x="111.230469"/>
       <use xlink:href="#ArialMT-30" x="166.845703"/>
       <use xlink:href="#ArialMT-2e" x="222.460938"/>
       <use xlink:href="#ArialMT-30" x="250.244141"/>
      </g>
     </g>
    </g>
    <g id="text_13">
     <!-- H/V Amplitude -->
     <g transform="translate(14.479688 149.762031) rotate(-90) scale(0.1 -0.1)">
      <defs>
       <path id="ArialMT-2f" d="M 0 -78 
L 1328 4659 
L 1778 4659 
L 453 -78 
L 0 -78 
z
" transform="scale(0.015625)"/>
       <path id="ArialMT-56" d="M 1803 0 
L 28 4581 
L 684 4581 
L 1875 1253 
Q 2019 853 2116 503 
Q 2222 878 2363 1253 
L 3600 4581 
L 4219 4581 
L 2425 0 
L 1803 0 
z
" transform="scale(0.015625)"/>
       <path id="ArialMT-41" d="M -9 0 
L 1750 4581 
L 2403 4581 
L 4278 0 
L 3588 0 
L 3053 1388 
L 1138 1388 
L 634 0 
L -9 0 
z
M 1313 1881 
L 2866 1881 
L 2388 3150 
Q 2169 3728 2063 4100 
Q 1975 3659 1816 3225 
L 1313 1881 
z
" transform="scale(0.015625)"/>
       <path id="ArialMT-6d" d="M 422 0 
L 422 3319 
L 925 3319 
L 925 2853 
Q 1081 3097 1340 3245 
Q 1600 3394 1931 3394 
Q 2300 3394 2536 3241 
Q 2772 3088 2869 2813 
Q 3263 3394 3894 3394 
Q 4388 3394 4653 3120 
Q 4919 2847 4919 2278 
L 4919 0 
L 4359 0 
L 4359 2091 
Q 4359 2428 4304 2576 
Q 4250 2725 4106 2815 
Q 3963 2906 3769 2906 
Q 3419 2906 3187 2673 
Q 2956 2441 2956 1928 
L 2956 0 
L 2394 0 
L 2394 2156 
Q 2394 2531 2256 2718 
Q 2119 2906 1806 2906 
Q 1569 2906 1367 2781 
Q 1166 2656 1075 2415 
Q 984 2175 984 1722 
L 984 0 
L 422 0 
z
" transform="scale(0.015625)"/>
       <path id="ArialMT-70" d="M 422 -1272 
L 422 3319 
L 934 3319 
L 934 2888 
Q 1116 3141 1344 3267 
Q 1572 3394 1897 3394 
Q 2322 3394 2647 3175 
Q 2972 2956 3137 2557 
Q 3303 2159 3303 1684 
Q 3303 1175 3120 767 
Q 2938 359 2589 142 
Q 2241 -75 1856 -75 
Q 1575 -75 1351 44 
Q 1128 163 984 344 
L 984 -1272 
L 422 -1272 
z
M 931 1641 
Q 931 1000 1190 694 
Q 1450 388 1819 388 
Q 2194 388 2461 705 
Q 2728 1022 2728 1688 
Q 2728 2322 2467 2637 
Q 2206 2953 1844 2953 
Q 1484 2953 1207 2617 
Q 931 2281 931 1641 
z
" transform="scale(0.015625)"/>
       <path id="ArialMT-6c" d="M 409 0 
L 409 4581 
L 972 4581 
L 972 0 
L 409 0 
z
" transform="scale(0.015625)"/>
       <path id="ArialMT-69" d="M 425 3934 
L 425 4581 
L 988 4581 
L 988 3934 
L 425 3934 
z
M 425 0 
L 425 3319 
L 988 3319 
L 988 0 
L 425 0 
z
" transform="scale(0.015625)"/>
       <path id="ArialMT-74" d="M 1650 503 
L 1731 6 
Q 1494 -44 1306 -44 
Q 1000 -44 831 53 
Q 663 150 594 308 
Q 525 466 525 972 
L 525 2881 
L 113 2881 
L 113 3319 
L 525 3319 
L 525 4141 
L 1084 4478 
L 1084 3319 
L 1650 3319 
L 1650 2881 
L 1084 2881 
L 1084 941 
Q 1084 700 1114 631 
Q 1144 563 1211 522 
Q 1278 481 1403 481 
Q 1497 481 1650 503 
z
" transform="scale(0.015625)"/>
       <path id="ArialMT-64" d="M 2575 0 
L 2575 419 
Q 2259 -75 1647 -75 
Q 1250 -75 917 144 
Q 584 363 401 755 
Q 219 1147 219 1656 
Q 219 2153 384 2558 
Q 550 2963 881 3178 
Q 1213 3394 1622 3394 
Q 1922 3394 2156 3267 
Q 2391 3141 2538 2938 
L 2538 4581 
L 3097 4581 
L 3097 0 
L 2575 0 
z
M 797 1656 
Q 797 1019 1065 703 
Q 1334 388 1700 388 
Q 2069 388 2326 689 
Q 2584 991 2584 1609 
Q 2584 2291 2321 2609 
Q 2059 2928 1675 2928 
Q 1300 2928 1048 2622 
Q 797 2316 797 1656 
z
" transform="scale(0.015625)"/>
      </defs>
      <use xlink:href="#ArialMT-48"/>
      <use xlink:href="#ArialMT-2f" x="72.216797"/>
      <use xlink:href="#ArialMT-56" x="100"/>
      <use xlink:href="#ArialMT-20" x="166.699219"/>
      <use xlink:href="#ArialMT-41" x="188.982422"/>
      <use xlink:href="#ArialMT-6d" x="255.681641"/>
      <use xlink:href="#ArialMT-70" x="338.982422"/>
      <use xlink:href="#ArialMT-6c" x="394.597656"/>
      <use xlink:href="#ArialMT-69" x="416.814453"/>
      <use xlink:href="#ArialMT-74" x="439.03125"/>
      <use xlink:href="#ArialMT-75" x="466.814453"/>
      <use xlink:href="#ArialMT-64" x="522.429688"/>
      <use xlink:href="#ArialMT-65" x="578.044922"/>
     </g>
    </g>
   </g>
   <g id="line2d_28">
    <path d="M 58.05 228.846228 
L 72.29742 228.773851 
L 96.04312 228.592561 
L 117.41425 228.679764 
L 126.91253 228.702151 
L 136.41081 228.753552 
L 174.40393 228.842643 
L 283.634149 228.898931 
L 328.750979 228.914434 
L 410.780469 228.91342 
L 410.780469 228.91342 
" clip-path="url(#pe92b5efb1c)" style="fill: none; stroke: #808080; stroke-opacity: 0.5; stroke-width: 0.5; stroke-linecap: square"/>
   </g>
   <g id="line2d_29">
    <path d="M 58.05 227.939672 
L 62.79914 227.981121 
L 67.54828 228.22999 
L 72.29742 228.199572 
L 79.42113 227.797275 
L 84.17027 228.117548 
L 88.91941 228.370353 
L 96.04312 228.398549 
L 105.5414 228.521012 
L 115.03968 228.546635 
L 131.66167 228.448491 
L 143.53452 228.569563 
L 160.15651 228.808538 
L 410.780469 228.921673 
L 410.780469 228.921673 
" clip-path="url(#pe92b5efb1c)" style="fill: none; stroke: #808080; stroke-opacity: 0.5; stroke-width: 0.5; stroke-linecap: square"/>
   </g>
   <g id="line2d_30">
    <path d="M 58.05 228.811574 
L 81.7957 228.854006 
L 93.66855 228.884849 
L 124.53796 228.672974 
L 129.2871 228.605419 
L 136.41081 228.723084 
L 145.90909 228.680269 
L 155.40737 228.735437 
L 188.65135 228.782074 
L 205.27334 228.808455 
L 219.520759 228.80309 
L 231.393609 228.784657 
L 243.266459 228.843847 
L 354.871249 228.903613 
L 410.780469 228.913584 
L 410.780469 228.913584 
" clip-path="url(#pe92b5efb1c)" style="fill: none; stroke: #808080; stroke-opacity: 0.5; stroke-width: 0.5; stroke-linecap: square"/>
   </g>
   <g id="line2d_31">
    <path d="M 58.05 228.661581 
L 65.17371 228.771307 
L 74.67199 228.87612 
L 105.5414 228.726982 
L 117.41425 228.556849 
L 124.53796 228.702753 
L 134.03624 228.563878 
L 141.15995 228.640583 
L 162.53108 228.351303 
L 169.65479 228.775704 
L 174.40393 228.781584 
L 183.90221 228.690891 
L 219.520759 228.801176 
L 229.019039 228.835625 
L 238.517319 228.865028 
L 255.139309 228.803946 
L 271.761299 228.901195 
L 410.780469 228.918969 
L 410.780469 228.918969 
" clip-path="url(#pe92b5efb1c)" style="fill: none; stroke: #808080; stroke-opacity: 0.5; stroke-width: 0.5; stroke-linecap: square"/>
   </g>
   <g id="line2d_32">
    <path d="M 58.05 227.297607 
L 60.42457 227.583734 
L 62.79914 227.68901 
L 72.29742 227.593594 
L 77.04656 227.930492 
L 81.7957 227.871599 
L 88.91941 227.636616 
L 93.66855 227.657053 
L 100.79226 228.045133 
L 107.91597 228.368466 
L 124.53796 228.749159 
L 150.65823 228.590848 
L 155.40737 228.376324 
L 160.15651 228.499128 
L 167.28022 228.722317 
L 176.7785 228.768296 
L 200.5242 228.819359 
L 229.019039 228.87966 
L 321.627269 228.89694 
L 371.493239 228.915846 
L 410.780469 228.91629 
L 410.780469 228.91629 
" clip-path="url(#pe92b5efb1c)" style="fill: none; stroke: #808080; stroke-opacity: 0.5; stroke-width: 0.5; stroke-linecap: square"/>
   </g>
   <g id="line2d_33">
    <path d="M 58.05 228.378593 
L 65.17371 228.122312 
L 69.92285 227.857967 
L 74.67199 227.995688 
L 84.17027 228.359096 
L 91.29398 228.489655 
L 96.04312 228.340386 
L 98.41769 228.237827 
L 100.79226 228.261143 
L 107.91597 228.617221 
L 112.66511 228.656758 
L 126.91253 228.466867 
L 134.03624 228.491224 
L 141.15995 228.392035 
L 155.40737 228.725355 
L 169.65479 228.780975 
L 195.77506 228.706931 
L 202.89877 228.618268 
L 221.895329 228.860213 
L 392.864369 228.918068 
L 410.780469 228.923857 
L 410.780469 228.923857 
" clip-path="url(#pe92b5efb1c)" style="fill: none; stroke: #808080; stroke-opacity: 0.5; stroke-width: 0.5; stroke-linecap: square"/>
   </g>
   <g id="line2d_34">
    <path d="M 58.05 228.890444 
L 79.42113 228.89473 
L 117.41425 228.931585 
L 207.64791 228.883126 
L 214.77162 228.88868 
L 231.393609 228.910445 
L 281.259579 228.923552 
L 410.780469 228.942146 
L 410.780469 228.942146 
" clip-path="url(#pe92b5efb1c)" style="fill: none; stroke: #808080; stroke-opacity: 0.5; stroke-width: 0.5; stroke-linecap: square"/>
   </g>
   <g id="line2d_35">
    <path d="M 58.05 228.826867 
L 91.29398 228.821128 
L 103.16683 228.774104 
L 115.03968 228.750342 
L 126.91253 228.789198 
L 143.53452 228.754894 
L 153.0328 228.781114 
L 162.53108 228.763281 
L 174.40393 228.743867 
L 195.77506 228.737566 
L 212.39705 228.781539 
L 231.393609 228.768107 
L 264.637589 228.7435 
L 283.634149 228.705086 
L 307.379849 228.700767 
L 331.125549 228.655216 
L 342.998399 228.644413 
L 399.988079 228.592536 
L 410.780469 228.491924 
L 410.780469 228.491924 
" clip-path="url(#pe92b5efb1c)" style="fill: none; stroke: #808080; stroke-opacity: 0.5; stroke-width: 0.5; stroke-linecap: square"/>
   </g>
   <g id="line2d_36">
    <path d="M 58.05 228.844199 
L 100.79226 228.787603 
L 122.16339 228.750193 
L 131.66167 228.461969 
L 143.53452 228.519569 
L 155.40737 228.300097 
L 167.28022 228.765298 
L 181.52764 228.864148 
L 410.780469 228.905057 
L 410.780469 228.905057 
" clip-path="url(#pe92b5efb1c)" style="fill: none; stroke: #808080; stroke-opacity: 0.5; stroke-width: 0.5; stroke-linecap: square"/>
   </g>
   <g id="line2d_37">
    <path d="M 58.05 228.6657 
L 69.92285 228.621436 
L 79.42113 228.623148 
L 86.54484 228.709728 
L 98.41769 228.701717 
L 105.5414 228.800441 
L 410.780469 228.881768 
L 410.780469 228.881768 
" clip-path="url(#pe92b5efb1c)" style="fill: none; stroke: #808080; stroke-opacity: 0.5; stroke-width: 0.5; stroke-linecap: square"/>
   </g>
   <g id="line2d_38">
    <path d="M 58.05 228.783778 
L 81.7957 228.642761 
L 93.66855 228.43709 
L 107.91597 228.197956 
L 112.66511 227.995621 
L 115.03968 228.020895 
L 122.16339 228.411816 
L 126.91253 228.412399 
L 134.03624 228.292819 
L 141.15995 228.301536 
L 145.90909 228.079188 
L 148.28366 228.114075 
L 155.40737 228.667245 
L 160.15651 228.704999 
L 176.7785 228.604755 
L 188.65135 228.731754 
L 207.64791 228.805133 
L 221.895329 228.717217 
L 231.393609 228.821655 
L 350.122109 228.885726 
L 402.362649 228.859679 
L 410.780469 228.777093 
L 410.780469 228.777093 
" clip-path="url(#pe92b5efb1c)" style="fill: none; stroke: #808080; stroke-opacity: 0.5; stroke-width: 0.5; stroke-linecap: square"/>
   </g>
   <g id="line2d_39">
    <path d="M 58.05 228.834796 
L 86.54484 228.823555 
L 115.03968 228.697781 
L 124.53796 228.741254 
L 131.66167 228.582524 
L 136.41081 228.5294 
L 143.53452 228.824544 
L 155.40737 228.835489 
L 176.7785 228.767401 
L 183.90221 228.823952 
L 205.27334 228.776392 
L 229.019039 228.83894 
L 240.891889 228.840028 
L 259.888449 228.869661 
L 366.744099 228.900589 
L 410.780469 228.90195 
L 410.780469 228.90195 
" clip-path="url(#pe92b5efb1c)" style="fill: none; stroke: #808080; stroke-opacity: 0.5; stroke-width: 0.5; stroke-linecap: square"/>
   </g>
   <g id="line2d_40">
    <path d="M 58.05 228.391393 
L 81.7957 228.72796 
L 88.91941 228.483287 
L 103.16683 228.75162 
L 117.41425 228.754614 
L 126.91253 228.735734 
L 136.41081 228.714619 
L 148.28366 228.776554 
L 181.52764 228.719973 
L 217.146189 228.826367 
L 231.393609 228.85001 
L 243.266459 228.858991 
L 255.139309 228.820475 
L 267.012159 228.902709 
L 321.627269 228.891134 
L 397.613509 228.900484 
L 410.780469 228.915301 
L 410.780469 228.915301 
" clip-path="url(#pe92b5efb1c)" style="fill: none; stroke: #808080; stroke-opacity: 0.5; stroke-width: 0.5; stroke-linecap: square"/>
   </g>
   <g id="line2d_41">
    <path d="M 58.05 228.743097 
L 77.04656 228.818589 
L 98.41769 228.741795 
L 117.41425 228.443983 
L 131.66167 228.706135 
L 145.90909 228.703706 
L 162.53108 228.794066 
L 179.15307 228.645186 
L 186.27678 228.745747 
L 195.77506 228.642085 
L 200.5242 228.469865 
L 207.64791 228.61224 
L 221.895329 228.757739 
L 276.510439 228.898491 
L 314.503559 228.862955 
L 352.496679 228.90592 
L 410.780469 228.906674 
L 410.780469 228.906674 
" clip-path="url(#pe92b5efb1c)" style="fill: none; stroke: #808080; stroke-opacity: 0.5; stroke-width: 0.5; stroke-linecap: square"/>
   </g>
   <g id="line2d_42">
    <path d="M 58.05 228.705334 
L 65.17371 228.722873 
L 88.91941 228.598652 
L 98.41769 228.671252 
L 105.5414 228.629584 
L 119.78882 228.863074 
L 141.15995 228.857319 
L 150.65823 228.855985 
L 172.02936 228.881898 
L 186.27678 228.767034 
L 202.89877 228.700046 
L 210.02248 228.829919 
L 410.780469 228.899931 
L 410.780469 228.899931 
" clip-path="url(#pe92b5efb1c)" style="fill: none; stroke: #808080; stroke-opacity: 0.5; stroke-width: 0.5; stroke-linecap: square"/>
   </g>
   <g id="line2d_43">
    <path d="M 58.05 228.865059 
L 100.79226 228.830906 
L 122.16339 228.831532 
L 141.15995 228.893346 
L 174.40393 228.755527 
L 181.52764 228.548708 
L 193.40049 228.719312 
L 207.64791 228.59988 
L 221.895329 228.850983 
L 264.637589 228.875365 
L 276.510439 228.86728 
L 288.383289 228.841165 
L 347.747539 228.900116 
L 410.780469 228.926348 
L 410.780469 228.926348 
" clip-path="url(#pe92b5efb1c)" style="fill: none; stroke: #808080; stroke-opacity: 0.5; stroke-width: 0.5; stroke-linecap: square"/>
   </g>
   <g id="line2d_44">
    <path d="M 58.05 228.731568 
L 100.79226 228.829489 
L 117.41425 228.85147 
L 148.28366 228.888909 
L 193.40049 228.76683 
L 207.64791 228.705096 
L 221.895329 228.757658 
L 236.142749 228.861857 
L 354.871249 228.899913 
L 402.362649 228.924441 
L 410.780469 228.925336 
L 410.780469 228.925336 
" clip-path="url(#pe92b5efb1c)" style="fill: none; stroke: #808080; stroke-opacity: 0.5; stroke-width: 0.5; stroke-linecap: square"/>
   </g>
   <g id="line2d_45">
    <path d="M 58.05 228.66497 
L 67.54828 228.734801 
L 84.17027 228.774616 
L 105.5414 228.824297 
L 115.03968 228.772145 
L 129.2871 228.78538 
L 167.28022 228.685295 
L 172.02936 228.496627 
L 195.77506 228.788207 
L 202.89877 228.625263 
L 207.64791 228.614268 
L 226.644469 228.811368 
L 410.780469 228.910576 
L 410.780469 228.910576 
" clip-path="url(#pe92b5efb1c)" style="fill: none; stroke: #808080; stroke-opacity: 0.5; stroke-width: 0.5; stroke-linecap: square"/>
   </g>
   <g id="line2d_46">
    <path d="M 58.05 228.747041 
L 67.54828 228.870865 
L 129.2871 228.824023 
L 150.65823 228.781281 
L 174.40393 228.588256 
L 188.65135 228.681785 
L 207.64791 228.530233 
L 214.77162 228.786211 
L 224.269899 228.77995 
L 236.142749 228.821019 
L 269.386729 228.889902 
L 290.757859 228.865616 
L 305.005279 228.869501 
L 326.376409 228.875207 
L 352.496679 228.901861 
L 410.780469 228.903516 
L 410.780469 228.903516 
" clip-path="url(#pe92b5efb1c)" style="fill: none; stroke: #808080; stroke-opacity: 0.5; stroke-width: 0.5; stroke-linecap: square"/>
   </g>
   <g id="line2d_47">
    <path d="M 58.05 228.845272 
L 84.17027 228.808804 
L 100.79226 228.643405 
L 107.91597 228.705418 
L 115.03968 228.802566 
L 141.15995 228.709582 
L 148.28366 228.792075 
L 174.40393 228.574538 
L 186.27678 228.749899 
L 195.77506 228.541228 
L 200.5242 228.477005 
L 221.895329 228.774297 
L 259.888449 228.877577 
L 314.503559 228.848251 
L 335.874689 228.875013 
L 410.780469 228.910404 
L 410.780469 228.910404 
" clip-path="url(#pe92b5efb1c)" style="fill: none; stroke: #808080; stroke-opacity: 0.5; stroke-width: 0.5; stroke-linecap: square"/>
   </g>
   <g id="line2d_48">
    <path d="M 58.05 228.828187 
L 84.17027 228.883928 
L 93.66855 228.733514 
L 98.41769 228.692062 
L 112.66511 228.881224 
L 174.40393 228.720555 
L 181.52764 228.597027 
L 195.77506 228.655544 
L 210.02248 228.692087 
L 262.263019 228.870311 
L 361.994959 228.902805 
L 410.780469 228.913489 
L 410.780469 228.913489 
" clip-path="url(#pe92b5efb1c)" style="fill: none; stroke: #808080; stroke-opacity: 0.5; stroke-width: 0.5; stroke-linecap: square"/>
   </g>
   <g id="line2d_49">
    <path d="M 58.05 228.804801 
L 93.66855 228.784666 
L 105.5414 228.861054 
L 131.66167 228.79867 
L 138.78538 228.755964 
L 145.90909 228.751831 
L 155.40737 228.729088 
L 169.65479 228.786292 
L 183.90221 228.760643 
L 195.77506 228.602462 
L 205.27334 228.780989 
L 214.77162 228.775195 
L 224.269899 228.730554 
L 238.517319 228.844727 
L 257.513879 228.857664 
L 293.132429 228.88708 
L 335.874689 228.90089 
L 410.780469 228.909442 
L 410.780469 228.909442 
" clip-path="url(#pe92b5efb1c)" style="fill: none; stroke: #808080; stroke-opacity: 0.5; stroke-width: 0.5; stroke-linecap: square"/>
   </g>
   <g id="line2d_50">
    <path d="M 58.05 228.748618 
L 81.7957 228.794542 
L 160.15651 228.880756 
L 212.39705 228.670644 
L 224.269899 228.747909 
L 248.015599 228.821587 
L 333.500119 228.894124 
L 410.780469 228.918759 
L 410.780469 228.918759 
" clip-path="url(#pe92b5efb1c)" style="fill: none; stroke: #808080; stroke-opacity: 0.5; stroke-width: 0.5; stroke-linecap: square"/>
   </g>
   <g id="line2d_51">
    <path d="M 58.05 228.88099 
L 69.92285 228.885922 
L 86.54484 228.728171 
L 91.29398 228.661017 
L 115.03968 228.819873 
L 150.65823 228.707125 
L 169.65479 228.839447 
L 207.64791 228.702271 
L 226.644469 228.770158 
L 248.015599 228.826258 
L 259.888449 228.832742 
L 283.634149 228.879673 
L 410.780469 228.901761 
L 410.780469 228.901761 
" clip-path="url(#pe92b5efb1c)" style="fill: none; stroke: #808080; stroke-opacity: 0.5; stroke-width: 0.5; stroke-linecap: square"/>
   </g>
   <g id="line2d_52">
    <path d="M 58.05 227.527777 
L 62.79914 227.45605 
L 72.29742 228.117829 
L 77.04656 228.447727 
L 81.7957 228.568913 
L 91.29398 228.479762 
L 98.41769 228.450074 
L 110.29054 228.588233 
L 134.03624 228.642189 
L 150.65823 228.66165 
L 195.77506 228.62638 
L 217.146189 228.775759 
L 248.015599 228.870009 
L 264.637589 228.89486 
L 410.780469 228.90878 
L 410.780469 228.90878 
" clip-path="url(#pe92b5efb1c)" style="fill: none; stroke: #808080; stroke-opacity: 0.5; stroke-width: 0.5; stroke-linecap: square"/>
   </g>
   <g id="line2d_53">
    <path d="M 58.05 228.773883 
L 172.02936 228.703988 
L 181.52764 228.733252 
L 210.02248 228.804338 
L 410.780469 228.909234 
L 410.780469 228.909234 
" clip-path="url(#pe92b5efb1c)" style="fill: none; stroke: #808080; stroke-opacity: 0.5; stroke-width: 0.5; stroke-linecap: square"/>
   </g>
   <g id="line2d_54">
    <path d="M 58.05 228.818841 
L 77.04656 228.791407 
L 91.29398 228.54303 
L 98.41769 228.810892 
L 110.29054 228.874854 
L 126.91253 228.867348 
L 136.41081 228.782096 
L 143.53452 228.776692 
L 155.40737 228.777337 
L 179.15307 228.591072 
L 191.02592 228.710313 
L 200.5242 228.777841 
L 221.895329 228.768561 
L 410.780469 228.906211 
L 410.780469 228.906211 
" clip-path="url(#pe92b5efb1c)" style="fill: none; stroke: #808080; stroke-opacity: 0.5; stroke-width: 0.5; stroke-linecap: square"/>
   </g>
   <g id="line2d_55">
    <path d="M 58.05 228.793248 
L 77.04656 228.732806 
L 100.79226 228.859915 
L 136.41081 228.812766 
L 160.15651 228.867979 
L 169.65479 228.784689 
L 186.27678 228.671004 
L 195.77506 228.689525 
L 210.02248 228.759983 
L 262.263019 228.876187 
L 316.878129 228.886153 
L 383.366089 228.891306 
L 410.780469 228.909103 
L 410.780469 228.909103 
" clip-path="url(#pe92b5efb1c)" style="fill: none; stroke: #808080; stroke-opacity: 0.5; stroke-width: 0.5; stroke-linecap: square"/>
   </g>
   <g id="line2d_56">
    <path d="M 58.05 228.789621 
L 98.41769 228.849301 
L 112.66511 228.76502 
L 136.41081 228.689275 
L 155.40737 228.778304 
L 172.02936 228.782932 
L 195.77506 228.695869 
L 214.77162 228.739441 
L 245.641029 228.840306 
L 276.510439 228.860729 
L 290.757859 228.856033 
L 321.627269 228.895268 
L 395.238939 228.905404 
L 410.780469 228.911927 
L 410.780469 228.911927 
" clip-path="url(#pe92b5efb1c)" style="fill: none; stroke: #808080; stroke-opacity: 0.5; stroke-width: 0.5; stroke-linecap: square"/>
   </g>
   <g id="line2d_57">
    <path d="M 58.05 228.723775 
L 77.04656 228.751047 
L 91.29398 228.603891 
L 100.79226 228.718286 
L 107.91597 228.685854 
L 115.03968 228.792964 
L 148.28366 228.660451 
L 155.40737 228.766658 
L 183.90221 228.648497 
L 191.02592 228.568914 
L 229.019039 228.828493 
L 274.135869 228.891436 
L 316.878129 228.869332 
L 364.369529 228.896679 
L 410.780469 228.909909 
L 410.780469 228.909909 
" clip-path="url(#pe92b5efb1c)" style="fill: none; stroke: #808080; stroke-opacity: 0.5; stroke-width: 0.5; stroke-linecap: square"/>
   </g>
   <g id="line2d_58">
    <path d="M 58.05 228.681018 
L 67.54828 228.785843 
L 93.66855 228.80399 
L 110.29054 228.871352 
L 126.91253 228.778647 
L 148.28366 228.687913 
L 164.90565 228.79814 
L 179.15307 228.675986 
L 188.65135 228.662602 
L 210.02248 228.60873 
L 248.015599 228.780528 
L 262.263019 228.854698 
L 278.885009 228.834451 
L 295.506999 228.896058 
L 410.780469 228.906459 
L 410.780469 228.906459 
" clip-path="url(#pe92b5efb1c)" style="fill: none; stroke: #808080; stroke-opacity: 0.5; stroke-width: 0.5; stroke-linecap: square"/>
   </g>
   <g id="line2d_59">
    <path d="M 58.05 227.77894 
L 62.79914 227.785921 
L 69.92285 227.260891 
L 72.29742 227.328858 
L 77.04656 227.701862 
L 81.7957 227.810343 
L 88.91941 227.865706 
L 93.66855 228.037969 
L 98.41769 227.975477 
L 100.79226 227.791368 
L 103.16683 227.455018 
L 107.91597 226.406545 
L 110.29054 226.341235 
L 117.41425 228.042801 
L 119.78882 228.251949 
L 126.91253 228.425741 
L 145.90909 228.850343 
L 410.780469 228.913659 
L 410.780469 228.913659 
" clip-path="url(#pe92b5efb1c)" style="fill: none; stroke: #808080; stroke-opacity: 0.5; stroke-width: 0.5; stroke-linecap: square"/>
   </g>
   <g id="line2d_60">
    <path d="M 58.05 228.486117 
L 62.79914 228.329408 
L 67.54828 228.573491 
L 72.29742 228.79751 
L 79.42113 228.893033 
L 88.91941 228.792207 
L 98.41769 228.641455 
L 117.41425 228.74015 
L 129.2871 228.679045 
L 138.78538 228.777204 
L 150.65823 228.756682 
L 160.15651 228.836518 
L 200.5242 228.724909 
L 347.747539 228.890193 
L 410.780469 228.914388 
L 410.780469 228.914388 
" clip-path="url(#pe92b5efb1c)" style="fill: none; stroke: #808080; stroke-opacity: 0.5; stroke-width: 0.5; stroke-linecap: square"/>
   </g>
   <g id="line2d_61">
    <path d="M 58.05 228.720146 
L 88.91941 228.804415 
L 119.78882 228.857664 
L 157.78194 228.838997 
L 205.27334 228.7966 
L 217.146189 228.796646 
L 224.269899 228.760905 
L 238.517319 228.881804 
L 269.386729 228.892405 
L 302.630709 228.891676 
L 392.864369 228.894655 
L 410.780469 228.909447 
L 410.780469 228.909447 
" clip-path="url(#pe92b5efb1c)" style="fill: none; stroke: #808080; stroke-opacity: 0.5; stroke-width: 0.5; stroke-linecap: square"/>
   </g>
   <g id="line2d_62">
    <path d="M 58.05 228.340507 
L 72.29742 228.015147 
L 74.67199 227.817158 
L 79.42113 227.161347 
L 81.7957 227.013196 
L 91.29398 227.267182 
L 93.66855 227.558159 
L 98.41769 228.272844 
L 103.16683 228.504275 
L 110.29054 228.552676 
L 131.66167 228.379899 
L 138.78538 228.655781 
L 145.90909 228.857719 
L 157.78194 228.880423 
L 212.39705 228.847038 
L 231.393609 228.875449 
L 302.630709 228.891485 
L 410.780469 228.911695 
L 410.780469 228.911695 
" clip-path="url(#pe92b5efb1c)" style="fill: none; stroke: #808080; stroke-opacity: 0.5; stroke-width: 0.5; stroke-linecap: square"/>
   </g>
   <g id="line2d_63">
    <path d="M 58.05 228.73673 
L 72.29742 228.754843 
L 81.7957 228.726329 
L 138.78538 228.858324 
L 169.65479 228.839184 
L 183.90221 228.756275 
L 200.5242 228.735677 
L 207.64791 228.651984 
L 217.146189 228.797108 
L 333.500119 228.884401 
L 361.994959 228.883522 
L 410.780469 228.912489 
L 410.780469 228.912489 
" clip-path="url(#pe92b5efb1c)" style="fill: none; stroke: #808080; stroke-opacity: 0.5; stroke-width: 0.5; stroke-linecap: square"/>
   </g>
   <g id="line2d_64">
    <path d="M 58.05 228.702557 
L 141.15995 228.884755 
L 193.40049 228.73069 
L 202.89877 228.700369 
L 229.019039 228.878881 
L 376.242379 228.911427 
L 410.780469 228.914843 
L 410.780469 228.914843 
" clip-path="url(#pe92b5efb1c)" style="fill: none; stroke: #808080; stroke-opacity: 0.5; stroke-width: 0.5; stroke-linecap: square"/>
   </g>
   <g id="line2d_65">
    <path d="M 58.05 228.724475 
L 74.67199 228.804195 
L 88.91941 228.835023 
L 193.40049 228.777894 
L 205.27334 228.83487 
L 224.269899 228.845676 
L 255.139309 228.861751 
L 288.383289 228.873419 
L 312.128989 228.896183 
L 410.780469 228.90897 
L 410.780469 228.90897 
" clip-path="url(#pe92b5efb1c)" style="fill: none; stroke: #808080; stroke-opacity: 0.5; stroke-width: 0.5; stroke-linecap: square"/>
   </g>
   <g id="line2d_66">
    <path d="M 58.05 228.713833 
L 65.17371 228.763789 
L 74.67199 228.838643 
L 91.29398 228.852456 
L 112.66511 228.810118 
L 122.16339 228.846909 
L 143.53452 228.856308 
L 224.269899 228.852159 
L 240.891889 228.883016 
L 352.496679 228.893788 
L 410.780469 228.909119 
L 410.780469 228.909119 
" clip-path="url(#pe92b5efb1c)" style="fill: none; stroke: #808080; stroke-opacity: 0.5; stroke-width: 0.5; stroke-linecap: square"/>
   </g>
   <g id="line2d_67">
    <path d="M 58.05 228.751459 
L 79.42113 228.748446 
L 91.29398 228.819584 
L 129.2871 228.846559 
L 145.90909 228.842859 
L 164.90565 228.865443 
L 172.02936 228.808668 
L 179.15307 228.626503 
L 191.02592 228.721511 
L 200.5242 228.746787 
L 410.780469 228.91654 
L 410.780469 228.91654 
" clip-path="url(#pe92b5efb1c)" style="fill: none; stroke: #808080; stroke-opacity: 0.5; stroke-width: 0.5; stroke-linecap: square"/>
   </g>
   <g id="line2d_68">
    <path d="M 58.05 228.865593 
L 112.66511 228.790124 
L 124.53796 228.795441 
L 134.03624 228.769552 
L 172.02936 228.817998 
L 188.65135 228.765061 
L 202.89877 228.803649 
L 267.012159 228.855077 
L 278.885009 228.827078 
L 307.379849 228.876434 
L 328.750979 228.884094 
L 410.780469 228.898882 
L 410.780469 228.898882 
" clip-path="url(#pe92b5efb1c)" style="fill: none; stroke: #808080; stroke-opacity: 0.5; stroke-width: 0.5; stroke-linecap: square"/>
   </g>
   <g id="line2d_69">
    <path d="M 58.05 228.809164 
L 79.42113 228.783753 
L 91.29398 228.831335 
L 124.53796 228.87025 
L 164.90565 228.819128 
L 174.40393 228.817318 
L 183.90221 228.813175 
L 410.780469 228.904168 
L 410.780469 228.904168 
" clip-path="url(#pe92b5efb1c)" style="fill: none; stroke: #808080; stroke-opacity: 0.5; stroke-width: 0.5; stroke-linecap: square"/>
   </g>
   <g id="line2d_70">
    <path d="M 58.05 228.577055 
L 65.17371 228.713854 
L 72.29742 228.797726 
L 169.65479 228.825982 
L 181.52764 228.71885 
L 200.5242 228.826179 
L 319.252699 228.885081 
L 410.780469 228.915666 
L 410.780469 228.915666 
" clip-path="url(#pe92b5efb1c)" style="fill: none; stroke: #808080; stroke-opacity: 0.5; stroke-width: 0.5; stroke-linecap: square"/>
   </g>
   <g id="line2d_71">
    <path d="M 58.05 228.820703 
L 131.66167 228.873316 
L 181.52764 228.769548 
L 191.02592 228.798803 
L 207.64791 228.807007 
L 221.895329 228.853096 
L 236.142749 228.864317 
L 262.263019 228.852822 
L 300.256139 228.884157 
L 366.744099 228.895528 
L 410.780469 228.920089 
L 410.780469 228.920089 
" clip-path="url(#pe92b5efb1c)" style="fill: none; stroke: #808080; stroke-opacity: 0.5; stroke-width: 0.5; stroke-linecap: square"/>
   </g>
   <g id="line2d_72">
    <path d="M 58.05 228.911999 
L 164.90565 228.835167 
L 191.02592 228.807846 
L 198.14963 228.721197 
L 217.146189 228.830205 
L 262.263019 228.858009 
L 276.510439 228.885662 
L 410.780469 228.902402 
L 410.780469 228.902402 
" clip-path="url(#pe92b5efb1c)" style="fill: none; stroke: #808080; stroke-opacity: 0.5; stroke-width: 0.5; stroke-linecap: square"/>
   </g>
   <g id="line2d_73">
    <path d="M 58.05 228.867597 
L 77.04656 228.854451 
L 98.41769 228.827463 
L 110.29054 228.774492 
L 126.91253 228.739475 
L 136.41081 228.539009 
L 153.0328 228.846578 
L 160.15651 228.819557 
L 167.28022 228.712151 
L 179.15307 228.781745 
L 207.64791 228.840287 
L 305.005279 228.882401 
L 410.780469 228.910515 
L 410.780469 228.910515 
" clip-path="url(#pe92b5efb1c)" style="fill: none; stroke: #808080; stroke-opacity: 0.5; stroke-width: 0.5; stroke-linecap: square"/>
   </g>
   <g id="line2d_74">
    <path d="M 58.05 228.763503 
L 77.04656 228.827949 
L 98.41769 228.891495 
L 115.03968 228.808579 
L 122.16339 228.776794 
L 134.03624 228.814419 
L 212.39705 228.81738 
L 238.517319 228.869771 
L 283.634149 228.88146 
L 410.780469 228.914941 
L 410.780469 228.914941 
" clip-path="url(#pe92b5efb1c)" style="fill: none; stroke: #808080; stroke-opacity: 0.5; stroke-width: 0.5; stroke-linecap: square"/>
   </g>
   <g id="line2d_75">
    <path d="M 58.05 228.74638 
L 67.54828 228.808148 
L 84.17027 228.842464 
L 100.79226 228.841028 
L 129.2871 228.860431 
L 157.78194 228.878483 
L 198.14963 228.817497 
L 212.39705 228.770565 
L 221.895329 228.775744 
L 233.768179 228.827682 
L 250.390169 228.834981 
L 410.780469 228.923607 
L 410.780469 228.923607 
" clip-path="url(#pe92b5efb1c)" style="fill: none; stroke: #808080; stroke-opacity: 0.5; stroke-width: 0.5; stroke-linecap: square"/>
   </g>
   <g id="line2d_76">
    <path d="M 58.05 228.715883 
L 65.17371 228.709614 
L 74.67199 228.76302 
L 136.41081 228.74608 
L 141.15995 228.688812 
L 160.15651 228.898048 
L 174.40393 228.823177 
L 181.52764 228.73439 
L 191.02592 228.837275 
L 207.64791 228.795774 
L 226.644469 228.842562 
L 300.256139 228.893267 
L 345.372969 228.886302 
L 380.991519 228.905639 
L 410.780469 228.913699 
L 410.780469 228.913699 
" clip-path="url(#pe92b5efb1c)" style="fill: none; stroke: #808080; stroke-opacity: 0.5; stroke-width: 0.5; stroke-linecap: square"/>
   </g>
   <g id="line2d_77">
    <path d="M 58.05 228.665323 
L 98.41769 228.80381 
L 122.16339 228.845049 
L 172.02936 228.823401 
L 224.269899 228.82967 
L 248.015599 228.836125 
L 259.888449 228.841861 
L 283.634149 228.876453 
L 347.747539 228.891863 
L 378.616949 228.912331 
L 410.780469 228.910428 
L 410.780469 228.910428 
" clip-path="url(#pe92b5efb1c)" style="fill: none; stroke: #808080; stroke-opacity: 0.5; stroke-width: 0.5; stroke-linecap: square"/>
   </g>
   <g id="line2d_78">
    <path d="M 58.05 228.859066 
L 69.92285 228.857044 
L 81.7957 228.872179 
L 93.66855 228.855211 
L 107.91597 228.790297 
L 117.41425 228.845055 
L 131.66167 228.767146 
L 141.15995 228.807128 
L 153.0328 228.755569 
L 167.28022 228.81918 
L 188.65135 228.761993 
L 195.77506 228.737268 
L 207.64791 228.843555 
L 300.256139 228.904412 
L 352.496679 228.901345 
L 402.362649 228.886299 
L 410.780469 228.890732 
L 410.780469 228.890732 
" clip-path="url(#pe92b5efb1c)" style="fill: none; stroke: #808080; stroke-opacity: 0.5; stroke-width: 0.5; stroke-linecap: square"/>
   </g>
   <g id="line2d_79">
    <path d="M 58.05 228.797262 
L 110.29054 228.776575 
L 117.41425 228.61353 
L 131.66167 228.687156 
L 143.53452 228.72106 
L 157.78194 228.825931 
L 181.52764 228.729822 
L 191.02592 228.826645 
L 224.269899 228.816936 
L 248.015599 228.828915 
L 264.637589 228.873178 
L 295.506999 228.886983 
L 410.780469 228.909253 
L 410.780469 228.909253 
" clip-path="url(#pe92b5efb1c)" style="fill: none; stroke: #808080; stroke-opacity: 0.5; stroke-width: 0.5; stroke-linecap: square"/>
   </g>
   <g id="line2d_80">
    <path d="M 58.05 228.795959 
L 67.54828 228.689799 
L 72.29742 228.667199 
L 79.42113 228.82181 
L 84.17027 228.715074 
L 91.29398 228.367547 
L 103.16683 228.728345 
L 122.16339 228.609748 
L 134.03624 228.760274 
L 148.28366 228.659302 
L 157.78194 228.85118 
L 181.52764 228.83123 
L 202.89877 228.800458 
L 243.266459 228.861357 
L 259.888449 228.864715 
L 274.135869 228.852833 
L 283.634149 228.792735 
L 295.506999 228.871062 
L 410.780469 228.910123 
L 410.780469 228.910123 
" clip-path="url(#pe92b5efb1c)" style="fill: none; stroke: #808080; stroke-opacity: 0.5; stroke-width: 0.5; stroke-linecap: square"/>
   </g>
   <g id="line2d_81">
    <path d="M 58.05 228.665908 
L 65.17371 228.77821 
L 72.29742 228.640896 
L 84.17027 228.237595 
L 91.29398 228.259854 
L 98.41769 228.541052 
L 107.91597 228.537544 
L 119.78882 228.513043 
L 126.91253 228.673309 
L 162.53108 228.729659 
L 183.90221 228.801073 
L 195.77506 228.682372 
L 202.89877 228.713002 
L 214.77162 228.796142 
L 257.513879 228.871415 
L 328.750979 228.875477 
L 366.744099 228.913667 
L 410.780469 228.900706 
L 410.780469 228.900706 
" clip-path="url(#pe92b5efb1c)" style="fill: none; stroke: #808080; stroke-opacity: 0.5; stroke-width: 0.5; stroke-linecap: square"/>
   </g>
   <g id="line2d_82">
    <path d="M 58.05 228.663977 
L 67.54828 228.68869 
L 79.42113 228.826964 
L 157.78194 228.799567 
L 167.28022 228.869306 
L 186.27678 228.801448 
L 410.780469 228.917736 
L 410.780469 228.917736 
" clip-path="url(#pe92b5efb1c)" style="fill: none; stroke: #808080; stroke-opacity: 0.5; stroke-width: 0.5; stroke-linecap: square"/>
   </g>
   <g id="line2d_83">
    <path d="M 58.05 228.781794 
L 69.92285 228.840781 
L 91.29398 228.842727 
L 105.5414 228.835149 
L 112.66511 228.778176 
L 124.53796 228.888183 
L 186.27678 228.77032 
L 198.14963 228.70835 
L 212.39705 228.81926 
L 233.768179 228.860992 
L 369.118669 228.906666 
L 410.780469 228.91101 
L 410.780469 228.91101 
" clip-path="url(#pe92b5efb1c)" style="fill: none; stroke: #808080; stroke-opacity: 0.5; stroke-width: 0.5; stroke-linecap: square"/>
   </g>
   <g id="line2d_84">
    <path d="M 58.05 228.726174 
L 77.04656 228.780193 
L 119.78882 228.863893 
L 167.28022 228.873613 
L 188.65135 228.773298 
L 195.77506 228.672272 
L 207.64791 228.81017 
L 231.393609 228.838346 
L 248.015599 228.862318 
L 257.513879 228.837012 
L 274.135869 228.868712 
L 290.757859 228.850933 
L 307.379849 228.895863 
L 410.780469 228.910215 
L 410.780469 228.910215 
" clip-path="url(#pe92b5efb1c)" style="fill: none; stroke: #808080; stroke-opacity: 0.5; stroke-width: 0.5; stroke-linecap: square"/>
   </g>
   <g id="line2d_85">
    <path d="M 58.05 228.859216 
L 79.42113 228.80454 
L 138.78538 228.898913 
L 221.895329 228.820386 
L 352.496679 228.901362 
L 410.780469 228.910666 
L 410.780469 228.910666 
" clip-path="url(#pe92b5efb1c)" style="fill: none; stroke: #808080; stroke-opacity: 0.5; stroke-width: 0.5; stroke-linecap: square"/>
   </g>
   <g id="line2d_86">
    <path d="M 58.05 228.744955 
L 67.54828 228.639118 
L 79.42113 228.799146 
L 103.16683 228.809984 
L 119.78882 228.849263 
L 138.78538 228.821094 
L 148.28366 228.772396 
L 169.65479 228.853432 
L 226.644469 228.814092 
L 238.517319 228.880331 
L 264.637589 228.858299 
L 278.885009 228.851141 
L 293.132429 228.871824 
L 342.998399 228.863546 
L 383.366089 228.911834 
L 410.780469 228.913286 
L 410.780469 228.913286 
" clip-path="url(#pe92b5efb1c)" style="fill: none; stroke: #808080; stroke-opacity: 0.5; stroke-width: 0.5; stroke-linecap: square"/>
   </g>
   <g id="line2d_87">
    <path d="M 58.05 228.701268 
L 105.5414 228.867309 
L 224.269899 228.789315 
L 233.768179 228.859551 
L 410.780469 228.909325 
L 410.780469 228.909325 
" clip-path="url(#pe92b5efb1c)" style="fill: none; stroke: #808080; stroke-opacity: 0.5; stroke-width: 0.5; stroke-linecap: square"/>
   </g>
   <g id="line2d_88">
    <path d="M 58.05 228.810159 
L 162.53108 228.844503 
L 193.40049 228.750297 
L 212.39705 228.694044 
L 226.644469 228.810559 
L 236.142749 228.820332 
L 248.015599 228.86868 
L 314.503559 228.842297 
L 338.249259 228.884714 
L 395.238939 228.90039 
L 410.780469 228.913961 
L 410.780469 228.913961 
" clip-path="url(#pe92b5efb1c)" style="fill: none; stroke: #808080; stroke-opacity: 0.5; stroke-width: 0.5; stroke-linecap: square"/>
   </g>
   <g id="line2d_89">
    <path d="M 58.05 228.761195 
L 77.04656 228.829085 
L 88.91941 228.793571 
L 129.2871 228.838647 
L 150.65823 228.832584 
L 198.14963 228.811506 
L 207.64791 228.821731 
L 219.520759 228.775893 
L 231.393609 228.771132 
L 248.015599 228.796141 
L 300.256139 228.857474 
L 326.376409 228.871719 
L 410.780469 228.912457 
L 410.780469 228.912457 
" clip-path="url(#pe92b5efb1c)" style="fill: none; stroke: #808080; stroke-opacity: 0.5; stroke-width: 0.5; stroke-linecap: square"/>
   </g>
   <g id="line2d_90">
    <path d="M 58.05 228.241808 
L 62.79914 228.473144 
L 67.54828 228.487879 
L 77.04656 228.310781 
L 86.54484 228.41771 
L 93.66855 228.465102 
L 110.29054 228.6133 
L 122.16339 228.53693 
L 126.91253 228.669013 
L 143.53452 228.608714 
L 157.78194 228.520561 
L 176.7785 228.626029 
L 193.40049 228.75923 
L 226.644469 228.872608 
L 331.125549 228.891046 
L 410.780469 228.889299 
L 410.780469 228.889299 
" clip-path="url(#pe92b5efb1c)" style="fill: none; stroke: #808080; stroke-opacity: 0.5; stroke-width: 0.5; stroke-linecap: square"/>
   </g>
   <g id="line2d_91">
    <path d="M 58.05 228.088555 
L 65.17371 228.005271 
L 72.29742 228.314827 
L 79.42113 228.533419 
L 91.29398 228.611261 
L 105.5414 228.556836 
L 117.41425 228.690541 
L 188.65135 228.898286 
L 202.89877 228.798561 
L 212.39705 228.79626 
L 250.390169 228.908038 
L 410.780469 228.916273 
L 410.780469 228.916273 
" clip-path="url(#pe92b5efb1c)" style="fill: none; stroke: #808080; stroke-opacity: 0.5; stroke-width: 0.5; stroke-linecap: square"/>
   </g>
   <g id="line2d_92">
    <path d="M 58.05 228.837318 
L 69.92285 228.892622 
L 105.5414 228.848898 
L 202.89877 228.783789 
L 212.39705 228.855639 
L 257.513879 228.774629 
L 269.386729 228.860194 
L 297.881569 228.872682 
L 312.128989 228.820829 
L 335.874689 228.908124 
L 410.780469 228.905318 
L 410.780469 228.905318 
" clip-path="url(#pe92b5efb1c)" style="fill: none; stroke: #808080; stroke-opacity: 0.5; stroke-width: 0.5; stroke-linecap: square"/>
   </g>
   <g id="line2d_93">
    <path d="M 58.05 228.41884 
L 67.54828 228.173878 
L 72.29742 228.394206 
L 77.04656 228.605481 
L 84.17027 228.619835 
L 91.29398 228.55119 
L 110.29054 228.651488 
L 124.53796 228.373359 
L 134.03624 228.620921 
L 160.15651 228.555907 
L 195.77506 228.669709 
L 200.5242 228.638872 
L 210.02248 228.765358 
L 402.362649 228.919569 
L 410.780469 228.916414 
L 410.780469 228.916414 
" clip-path="url(#pe92b5efb1c)" style="fill: none; stroke: #808080; stroke-opacity: 0.5; stroke-width: 0.5; stroke-linecap: square"/>
   </g>
   <g id="line2d_94">
    <path d="M 58.05 228.819856 
L 65.17371 228.739868 
L 69.92285 228.574268 
L 74.67199 228.695813 
L 81.7957 228.835648 
L 150.65823 228.870656 
L 179.15307 228.834528 
L 238.517319 228.850705 
L 267.012159 228.91968 
L 388.115229 228.908706 
L 410.780469 228.909485 
L 410.780469 228.909485 
" clip-path="url(#pe92b5efb1c)" style="fill: none; stroke: #808080; stroke-opacity: 0.5; stroke-width: 0.5; stroke-linecap: square"/>
   </g>
   <g id="line2d_95">
    <path d="M 58.05 228.72861 
L 72.29742 228.819894 
L 84.17027 228.758575 
L 100.79226 228.831981 
L 117.41425 228.849856 
L 136.41081 228.876954 
L 188.65135 228.823247 
L 202.89877 228.762916 
L 212.39705 228.844978 
L 286.008719 228.873561 
L 307.379849 228.855617 
L 331.125549 228.869687 
L 366.744099 228.911567 
L 410.780469 228.913588 
L 410.780469 228.913588 
" clip-path="url(#pe92b5efb1c)" style="fill: none; stroke: #808080; stroke-opacity: 0.5; stroke-width: 0.5; stroke-linecap: square"/>
   </g>
   <g id="line2d_96">
    <path d="M 58.05 228.696558 
L 67.54828 228.764479 
L 79.42113 228.56642 
L 93.66855 228.795046 
L 162.53108 228.818258 
L 245.641029 228.849688 
L 297.881569 228.891747 
L 364.369529 228.911686 
L 410.780469 228.911683 
L 410.780469 228.911683 
" clip-path="url(#pe92b5efb1c)" style="fill: none; stroke: #808080; stroke-opacity: 0.5; stroke-width: 0.5; stroke-linecap: square"/>
   </g>
   <g id="line2d_97">
    <path d="M 58.05 228.710621 
L 115.03968 228.830271 
L 174.40393 228.792615 
L 186.27678 228.7943 
L 205.27334 228.780443 
L 224.269899 228.859732 
L 410.780469 228.903679 
L 410.780469 228.903679 
" clip-path="url(#pe92b5efb1c)" style="fill: none; stroke: #808080; stroke-opacity: 0.5; stroke-width: 0.5; stroke-linecap: square"/>
   </g>
   <g id="line2d_98">
    <path d="M 58.05 228.735825 
L 103.16683 228.782591 
L 410.780469 228.909217 
L 410.780469 228.909217 
" clip-path="url(#pe92b5efb1c)" style="fill: none; stroke: #000000; stroke-width: 1.5; stroke-linecap: square"/>
   </g>
   <g id="line2d_99">
    <defs>
     <path id="m8411bb5a4b" d="M 0 2.5 
C 0.663008 2.5 1.29895 2.236584 1.767767 1.767767 
C 2.236584 1.29895 2.5 0.663008 2.5 0 
C 2.5 -0.663008 2.236584 -1.29895 1.767767 -1.767767 
C 1.29895 -2.236584 0.663008 -2.5 0 -2.5 
C -0.663008 -2.5 -1.29895 -2.236584 -1.767767 -1.767767 
C -2.236584 -1.29895 -2.5 -0.663008 -2.5 0 
C -2.5 0.663008 -2.236584 1.29895 -1.767767 1.767767 
C -1.29895 2.236584 -0.663008 2.5 0 2.5 
z
" style="stroke: #ffffff; stroke-width: 0.5"/>
    </defs>
    <g clip-path="url(#pe92b5efb1c)">
     <use xlink:href="#m8411bb5a4b" x="58.05" y="228.735825" style="fill: #ff0000; stroke: #ffffff; stroke-width: 0.5"/>
    </g>
   </g>
   <g id="patch_3">
    <path d="M 58.05 228.96 
L 58.05 7.2 
" style="fill: none; stroke: #000000; stroke-width: 0.8; stroke-linejoin: miter; stroke-linecap: square"/>
   </g>
   <g id="patch_4">
    <path d="M 58.05 228.96 
L 392.85 228.96 
" style="fill: none; stroke: #000000; stroke-width: 0.8; stroke-linejoin: miter; stroke-linecap: square"/>
   </g>
  </g>
 </g>
 <defs>
  <clipPath id="pe92b5efb1c">
   <rect x="58.05" y="7.2" width="334.8" height="221.76"/>
  </clipPath>
 </defs>
</svg>
