<?xml version="1.0" encoding="utf-8" standalone="no"?>
<!DOCTYPE svg PUBLIC "-//W3C//DTD SVG 1.1//EN"
  "http://www.w3.org/Graphics/SVG/1.1/DTD/svg11.dtd">
<svg xmlns:xlink="http://www.w3.org/1999/xlink" width="398.658594pt" height="265.689687pt" viewBox="0 0 398.658594 265.689687" xmlns="http://www.w3.org/2000/svg" version="1.1">
 <metadata>
  <rdf:RDF xmlns:dc="http://purl.org/dc/elements/1.1/" xmlns:cc="http://creativecommons.org/ns#" xmlns:rdf="http://www.w3.org/1999/02/22-rdf-syntax-ns#">
   <cc:Work>
    <dc:type rdf:resource="http://purl.org/dc/dcmitype/StillImage"/>
    <dc:date>2024-09-14T12:49:01.512269</dc:date>
    <dc:format>image/svg+xml</dc:format>
    <dc:creator>
     <cc:Agent>
      <dc:title>Matplotlib v3.9.2, https://matplotlib.org/</dc:title>
     </cc:Agent>
    </dc:creator>
   </cc:Work>
  </rdf:RDF>
 </metadata>
 <defs>
  <style type="text/css">*{stroke-linejoin: round; stroke-linecap: butt}</style>
 </defs>
 <g id="figure_1">
  <g id="patch_1">
   <path d="M 0 265.689687 
L 398.658594 265.689687 
L 398.658594 0 
L 0 0 
z
" style="fill: #ffffff"/>
  </g>
  <g id="axes_1">
   <g id="patch_2">
    <path d="M 46.928125 228.96 
L 381.728125 228.96 
L 381.728125 7.2 
L 46.928125 7.2 
z
" style="fill: #ffffff"/>
   </g>
   <g id="PolyCollection_1">
    <path d="M 46.928125 221.128174 
L 46.928125 226.631681 
L 49.302695 226.389803 
L 51.677265 226.08697 
L 54.051835 225.798858 
L 56.426405 225.651641 
L 58.800975 225.647651 
L 61.175545 225.650746 
L 63.550115 225.596059 
L 65.924685 225.569907 
L 68.299255 225.657109 
L 70.673825 225.697995 
L 73.048395 225.603915 
L 75.422965 225.465628 
L 77.797535 225.353328 
L 80.172105 225.216686 
L 82.546675 224.96833 
L 84.921245 224.744541 
L 87.295815 224.669022 
L 89.670385 224.589358 
L 92.044955 224.403894 
L 94.419525 224.100281 
L 96.794095 223.687193 
L 99.168665 223.302051 
L 101.543235 223.130699 
L 103.917805 223.141408 
L 106.292375 223.160735 
L 108.666945 223.065125 
L 111.041515 222.809007 
L 113.416085 222.459815 
L 115.790655 222.061859 
L 118.165225 221.595448 
L 120.539795 221.180351 
L 122.914365 220.978489 
L 125.288935 220.934115 
L 127.663505 220.893082 
L 130.038075 220.695178 
L 132.412645 220.202607 
L 134.787215 219.506471 
L 137.161785 218.713175 
L 139.536355 217.799163 
L 141.910925 216.858197 
L 144.285495 216.142008 
L 146.660065 215.800996 
L 149.034635 215.733666 
L 151.409205 215.773153 
L 153.783775 215.780967 
L 156.158345 215.712843 
L 158.532915 215.71489 
L 160.907485 215.91552 
L 163.282055 216.117624 
L 165.656625 216.096387 
L 168.031195 215.840435 
L 170.405765 215.395403 
L 172.780335 214.792585 
L 175.154905 214.231975 
L 177.529475 214.141092 
L 179.904045 214.968359 
L 182.278615 216.611167 
L 184.653185 218.224175 
L 187.027755 219.388659 
L 189.402325 220.25762 
L 191.776895 221.029109 
L 194.151465 221.76954 
L 196.526035 222.528405 
L 198.900605 223.284424 
L 201.275175 223.956035 
L 203.649745 224.493212 
L 206.024314 224.935158 
L 208.398884 225.34289 
L 210.773454 225.733919 
L 213.148024 226.100765 
L 215.522594 226.420178 
L 217.897164 226.666973 
L 220.271734 226.829028 
L 222.646304 226.910926 
L 225.020874 226.938287 
L 227.395444 226.946124 
L 229.770014 226.955249 
L 232.144584 226.999162 
L 234.519154 227.110275 
L 236.893724 227.256425 
L 239.268294 227.388201 
L 241.642864 227.494235 
L 244.017434 227.587376 
L 246.392004 227.662957 
L 248.766574 227.704666 
L 251.141144 227.71773 
L 253.515714 227.711217 
L 255.890284 227.682922 
L 258.264854 227.631213 
L 260.639424 227.552331 
L 263.013994 227.446671 
L 265.388564 227.328432 
L 267.763134 227.221273 
L 270.137704 227.142408 
L 272.512274 227.088517 
L 274.886844 227.039056 
L 277.261414 226.984154 
L 279.635984 226.925485 
L 282.010554 226.857833 
L 284.385124 226.787601 
L 286.759694 226.732998 
L 289.134264 226.721474 
L 291.508834 226.774503 
L 293.883404 226.857469 
L 296.257974 226.905211 
L 298.632544 226.889911 
L 301.007114 226.839003 
L 303.381684 226.805722 
L 305.756254 226.815308 
L 308.130824 226.830154 
L 310.505394 226.807901 
L 312.879964 226.777501 
L 315.254534 226.805788 
L 317.629104 226.876545 
L 320.003674 226.944123 
L 322.378244 226.99493 
L 324.752814 227.024882 
L 327.127384 227.040219 
L 329.501954 227.056152 
L 331.876524 227.06637 
L 334.251094 227.043484 
L 336.625664 226.98694 
L 339.000234 226.949221 
L 341.374804 226.955397 
L 343.749374 226.964405 
L 346.123944 226.961826 
L 348.498514 227.005839 
L 350.873084 227.115138 
L 353.247654 227.213134 
L 355.622224 227.256206 
L 357.996794 227.250044 
L 360.371364 227.226553 
L 362.745934 227.206423 
L 365.120504 227.190522 
L 367.495074 227.17072 
L 369.869644 227.152367 
L 372.244214 227.153015 
L 374.618784 227.172099 
L 376.993354 227.196579 
L 379.367924 227.215207 
L 381.742494 227.225605 
L 384.117064 227.237723 
L 386.491634 227.25508 
L 388.866204 227.266421 
L 391.240774 227.263509 
L 393.615344 227.244911 
L 395.989914 227.212614 
L 398.364484 227.168538 
L 400.739054 227.115713 
L 403.113624 227.053987 
L 405.488194 226.990897 
L 407.862764 226.939763 
L 410.237334 226.891996 
L 412.611904 226.841204 
L 414.986474 226.802686 
L 417.361044 226.799888 
L 419.735614 226.829857 
L 422.110184 226.861323 
L 424.484754 226.866472 
L 426.859324 226.834632 
L 429.233894 226.764709 
L 431.608464 226.669935 
L 433.983034 226.577728 
L 436.357604 226.490529 
L 438.732174 226.398901 
L 441.106744 226.318202 
L 443.481314 226.285286 
L 445.855884 226.313719 
L 448.230454 226.361612 
L 450.605024 226.378136 
L 452.979594 226.353146 
L 455.354164 226.307653 
L 457.728734 226.263382 
L 460.103304 226.227183 
L 462.477874 226.191182 
L 464.852444 226.15475 
L 467.227014 226.121473 
L 469.601584 226.092424 
L 471.976154 226.06506 
L 474.350724 226.03749 
L 476.725294 226.008825 
L 479.099864 225.973503 
L 481.474434 225.918196 
L 483.849004 225.839259 
L 486.223574 225.742366 
L 488.598144 225.633153 
L 490.972714 225.512422 
L 493.347284 225.367898 
L 495.721854 225.203005 
L 498.096424 225.046943 
L 500.470994 224.898137 
L 502.845564 224.734835 
L 505.220134 224.555353 
L 507.594704 224.399893 
L 509.969274 224.315849 
L 512.343844 224.304343 
L 514.718414 224.344617 
L 517.092984 224.418919 
L 519.467554 224.505934 
L 519.467554 223.545243 
L 519.467554 223.545243 
L 517.092984 223.465886 
L 514.718414 223.379321 
L 512.343844 223.291114 
L 509.969274 223.246788 
L 507.594704 223.27836 
L 505.220134 223.380295 
L 502.845564 223.55539 
L 500.470994 223.811209 
L 498.096424 224.134655 
L 495.721854 224.483632 
L 493.347284 224.803619 
L 490.972714 225.066754 
L 488.598144 225.252939 
L 486.223574 225.354409 
L 483.849004 225.385728 
L 481.474434 225.382414 
L 479.099864 225.391125 
L 476.725294 225.429466 
L 474.350724 225.475358 
L 471.976154 225.507573 
L 469.601584 225.522471 
L 467.227014 225.525618 
L 464.852444 225.531939 
L 462.477874 225.558593 
L 460.103304 225.604511 
L 457.728734 225.656007 
L 455.354164 225.695588 
L 452.979594 225.719288 
L 450.605024 225.728626 
L 448.230454 225.737326 
L 445.855884 225.760696 
L 443.481314 225.803857 
L 441.106744 225.875921 
L 438.732174 225.981816 
L 436.357604 226.11038 
L 433.983034 226.245183 
L 431.608464 226.362919 
L 429.233894 226.445878 
L 426.859324 226.499888 
L 424.484754 226.531106 
L 422.110184 226.549728 
L 419.735614 226.569297 
L 417.361044 226.58792 
L 414.986474 226.595166 
L 412.611904 226.599551 
L 410.237334 226.625671 
L 407.862764 226.679971 
L 405.488194 226.738526 
L 403.113624 226.773796 
L 400.739054 226.786556 
L 398.364484 226.781602 
L 395.989914 226.767384 
L 393.615344 226.760204 
L 391.240774 226.76672 
L 388.866204 226.789554 
L 386.491634 226.823619 
L 384.117064 226.845636 
L 381.742494 226.828965 
L 379.367924 226.781573 
L 376.993354 226.73605 
L 374.618784 226.710581 
L 372.244214 226.704097 
L 369.869644 226.712696 
L 367.495074 226.736608 
L 365.120504 226.769933 
L 362.745934 226.787278 
L 360.371364 226.766929 
L 357.996794 226.702654 
L 355.622224 226.607071 
L 353.247654 226.51767 
L 350.873084 226.455998 
L 348.498514 226.390431 
L 346.123944 226.254022 
L 343.749374 226.103322 
L 341.374804 226.048027 
L 339.000234 226.083462 
L 336.625664 226.127556 
L 334.251094 226.149056 
L 331.876524 226.154099 
L 329.501954 226.114928 
L 327.127384 226.031595 
L 324.752814 225.97718 
L 322.378244 226.004758 
L 320.003674 226.070797 
L 317.629104 226.124177 
L 315.254534 226.150685 
L 312.879964 226.107808 
L 310.505394 225.972227 
L 308.130824 225.827604 
L 305.756254 225.727283 
L 303.381684 225.624159 
L 301.007114 225.478284 
L 298.632544 225.340907 
L 296.257974 225.291705 
L 293.883404 225.32004 
L 291.508834 225.323666 
L 289.134264 225.281668 
L 286.759694 225.284989 
L 284.385124 225.410964 
L 282.010554 225.620161 
L 279.635984 225.814206 
L 277.261414 225.913674 
L 274.886844 225.899545 
L 272.512274 225.814178 
L 270.137704 225.696353 
L 267.763134 225.608871 
L 265.388564 225.629716 
L 263.013994 225.779059 
L 260.639424 226.006929 
L 258.264854 226.239767 
L 255.890284 226.420381 
L 253.515714 226.496972 
L 251.141144 226.422672 
L 248.766574 226.185513 
L 246.392004 225.840724 
L 244.017434 225.47482 
L 241.642864 225.117701 
L 239.268294 224.745452 
L 236.893724 224.327255 
L 234.519154 223.853152 
L 232.144584 223.356425 
L 229.770014 222.91717 
L 227.395444 222.621093 
L 225.020874 222.363845 
L 222.646304 221.970634 
L 220.271734 221.444435 
L 217.897164 220.804523 
L 215.522594 219.967331 
L 213.148024 218.915829 
L 210.773454 217.814539 
L 208.398884 216.835127 
L 206.024314 215.984908 
L 203.649745 215.133353 
L 201.275175 214.107327 
L 198.900605 212.734096 
L 196.526035 210.999664 
L 194.151465 209.171349 
L 191.776895 207.703872 
L 189.402325 207.122305 
L 187.027755 207.420288 
L 184.653185 208.078931 
L 182.278615 208.378813 
L 179.904045 207.545506 
L 177.529475 205.18418 
L 175.154905 202.2065 
L 172.780335 200.030277 
L 170.405765 199.290302 
L 168.031195 199.478426 
L 165.656625 199.676978 
L 163.282055 199.412333 
L 160.907485 198.542726 
L 158.532915 196.70457 
L 156.158345 193.72976 
L 153.783775 190.934465 
L 151.409205 190.040291 
L 149.034635 190.78356 
L 146.660065 191.702822 
L 144.285495 191.862947 
L 141.910925 191.175342 
L 139.536355 190.212991 
L 137.161785 189.363975 
L 134.787215 188.452917 
L 132.412645 187.542796 
L 130.038075 188.28062 
L 127.663505 191.28551 
L 125.288935 194.67432 
L 122.914365 197.586448 
L 120.539795 200.106009 
L 118.165225 202.535009 
L 115.790655 205.43471 
L 113.416085 208.846613 
L 111.041515 212.070835 
L 108.666945 214.449548 
L 106.292375 215.843645 
L 103.917805 216.59922 
L 101.543235 217.15538 
L 99.168665 217.818599 
L 96.794095 218.683729 
L 94.419525 219.560396 
L 92.044955 220.134853 
L 89.670385 220.321172 
L 87.295815 220.36802 
L 84.921245 220.444976 
L 82.546675 220.50067 
L 80.172105 220.904358 
L 77.797535 221.693711 
L 75.422965 222.324014 
L 73.048395 222.663671 
L 70.673825 222.857535 
L 68.299255 223.00029 
L 65.924685 222.903023 
L 63.550115 222.383539 
L 61.175545 221.729713 
L 58.800975 221.269755 
L 56.426405 221.064973 
L 54.051835 220.985439 
L 51.677265 220.996416 
L 49.302695 221.08396 
L 46.928125 221.128174 
z
" clip-path="url(#p3db15876d1)" style="fill: #808080; fill-opacity: 0.5; stroke: #808080; stroke-opacity: 0.5"/>
   </g>
   <g id="matplotlib.axis_1">
    <g id="xtick_1">
     <g id="line2d_1">
      <defs>
       <path id="m4ee133b58e" d="M 0 0 
L 0 3.5 
" style="stroke: #000000; stroke-width: 0.8"/>
      </defs>
      <g>
       <use xlink:href="#m4ee133b58e" x="184.667554" y="228.96" style="stroke: #000000; stroke-width: 0.8"/>
      </g>
     </g>
     <g id="text_1">
      <!-- 1.0 -->
      <g transform="translate(177.717554 243.117812) scale(0.1 -0.1)">
       <defs>
        <path id="ArialMT-31" d="M 2384 0 
L 1822 0 
L 1822 3584 
Q 1619 3391 1289 3197 
Q 959 3003 697 2906 
L 697 3450 
Q 1169 3672 1522 3987 
Q 1875 4303 2022 4600 
L 2384 4600 
L 2384 0 
z
" transform="scale(0.015625)"/>
        <path id="ArialMT-2e" d="M 581 0 
L 581 641 
L 1222 641 
L 1222 0 
L 581 0 
z
" transform="scale(0.015625)"/>
        <path id="ArialMT-30" d="M 266 2259 
Q 266 3072 433 3567 
Q 600 4063 929 4331 
Q 1259 4600 1759 4600 
Q 2128 4600 2406 4451 
Q 2684 4303 2865 4023 
Q 3047 3744 3150 3342 
Q 3253 2941 3253 2259 
Q 3253 1453 3087 958 
Q 2922 463 2592 192 
Q 2263 -78 1759 -78 
Q 1097 -78 719 397 
Q 266 969 266 2259 
z
M 844 2259 
Q 844 1131 1108 757 
Q 1372 384 1759 384 
Q 2147 384 2411 759 
Q 2675 1134 2675 2259 
Q 2675 3391 2411 3762 
Q 2147 4134 1753 4134 
Q 1366 4134 1134 3806 
Q 844 3388 844 2259 
z
" transform="scale(0.015625)"/>
       </defs>
       <use xlink:href="#ArialMT-31"/>
       <use xlink:href="#ArialMT-2e" x="55.615234"/>
       <use xlink:href="#ArialMT-30" x="83.398438"/>
      </g>
     </g>
    </g>
    <g id="xtick_2">
     <g id="line2d_2">
      <g>
       <use xlink:href="#m4ee133b58e" x="381.728125" y="228.96" style="stroke: #000000; stroke-width: 0.8"/>
      </g>
     </g>
     <g id="text_2">
      <!-- 10.0 -->
      <g transform="translate(371.997656 243.117812) scale(0.1 -0.1)">
       <use xlink:href="#ArialMT-31"/>
       <use xlink:href="#ArialMT-30" x="55.615234"/>
       <use xlink:href="#ArialMT-2e" x="111.230469"/>
       <use xlink:href="#ArialMT-30" x="139.013672"/>
      </g>
     </g>
    </g>
    <g id="xtick_3">
     <g id="line2d_3">
      <defs>
       <path id="ma2aebdd79b" d="M 0 0 
L 0 2 
" style="stroke: #000000; stroke-width: 0.6"/>
      </defs>
      <g>
       <use xlink:href="#ma2aebdd79b" x="46.928125" y="228.96" style="stroke: #000000; stroke-width: 0.6"/>
      </g>
     </g>
    </g>
    <g id="xtick_4">
     <g id="line2d_4">
      <g>
       <use xlink:href="#ma2aebdd79b" x="81.628769" y="228.96" style="stroke: #000000; stroke-width: 0.6"/>
      </g>
     </g>
    </g>
    <g id="xtick_5">
     <g id="line2d_5">
      <g>
       <use xlink:href="#ma2aebdd79b" x="106.249268" y="228.96" style="stroke: #000000; stroke-width: 0.6"/>
      </g>
     </g>
    </g>
    <g id="xtick_6">
     <g id="line2d_6">
      <g>
       <use xlink:href="#ma2aebdd79b" x="125.346411" y="228.96" style="stroke: #000000; stroke-width: 0.6"/>
      </g>
     </g>
    </g>
    <g id="xtick_7">
     <g id="line2d_7">
      <g>
       <use xlink:href="#ma2aebdd79b" x="140.949912" y="228.96" style="stroke: #000000; stroke-width: 0.6"/>
      </g>
     </g>
    </g>
    <g id="xtick_8">
     <g id="line2d_8">
      <g>
       <use xlink:href="#ma2aebdd79b" x="154.142485" y="228.96" style="stroke: #000000; stroke-width: 0.6"/>
      </g>
     </g>
    </g>
    <g id="xtick_9">
     <g id="line2d_9">
      <g>
       <use xlink:href="#ma2aebdd79b" x="165.570411" y="228.96" style="stroke: #000000; stroke-width: 0.6"/>
      </g>
     </g>
    </g>
    <g id="xtick_10">
     <g id="line2d_10">
      <g>
       <use xlink:href="#ma2aebdd79b" x="175.650556" y="228.96" style="stroke: #000000; stroke-width: 0.6"/>
      </g>
     </g>
    </g>
    <g id="xtick_11">
     <g id="line2d_11">
      <g>
       <use xlink:href="#ma2aebdd79b" x="243.988696" y="228.96" style="stroke: #000000; stroke-width: 0.6"/>
      </g>
     </g>
    </g>
    <g id="xtick_12">
     <g id="line2d_12">
      <g>
       <use xlink:href="#ma2aebdd79b" x="278.689341" y="228.96" style="stroke: #000000; stroke-width: 0.6"/>
      </g>
     </g>
    </g>
    <g id="xtick_13">
     <g id="line2d_13">
      <g>
       <use xlink:href="#ma2aebdd79b" x="303.309839" y="228.96" style="stroke: #000000; stroke-width: 0.6"/>
      </g>
     </g>
    </g>
    <g id="xtick_14">
     <g id="line2d_14">
      <g>
       <use xlink:href="#ma2aebdd79b" x="322.406982" y="228.96" style="stroke: #000000; stroke-width: 0.6"/>
      </g>
     </g>
    </g>
    <g id="xtick_15">
     <g id="line2d_15">
      <g>
       <use xlink:href="#ma2aebdd79b" x="338.010484" y="228.96" style="stroke: #000000; stroke-width: 0.6"/>
      </g>
     </g>
    </g>
    <g id="xtick_16">
     <g id="line2d_16">
      <g>
       <use xlink:href="#ma2aebdd79b" x="351.203056" y="228.96" style="stroke: #000000; stroke-width: 0.6"/>
      </g>
     </g>
    </g>
    <g id="xtick_17">
     <g id="line2d_17">
      <g>
       <use xlink:href="#ma2aebdd79b" x="362.630982" y="228.96" style="stroke: #000000; stroke-width: 0.6"/>
      </g>
     </g>
    </g>
    <g id="xtick_18">
     <g id="line2d_18">
      <g>
       <use xlink:href="#ma2aebdd79b" x="372.711128" y="228.96" style="stroke: #000000; stroke-width: 0.6"/>
      </g>
     </g>
    </g>
    <g id="text_3">
     <!-- Frequency (Hz) -->
     <g transform="translate(179.877344 256.385) scale(0.1 -0.1)">
      <defs>
       <path id="ArialMT-46" d="M 525 0 
L 525 4581 
L 3616 4581 
L 3616 4041 
L 1131 4041 
L 1131 2622 
L 3281 2622 
L 3281 2081 
L 1131 2081 
L 1131 0 
L 525 0 
z
" transform="scale(0.015625)"/>
       <path id="ArialMT-72" d="M 416 0 
L 416 3319 
L 922 3319 
L 922 2816 
Q 1116 3169 1280 3281 
Q 1444 3394 1641 3394 
Q 1925 3394 2219 3213 
L 2025 2691 
Q 1819 2813 1613 2813 
Q 1428 2813 1281 2702 
Q 1134 2591 1072 2394 
Q 978 2094 978 1738 
L 978 0 
L 416 0 
z
" transform="scale(0.015625)"/>
       <path id="ArialMT-65" d="M 2694 1069 
L 3275 997 
Q 3138 488 2766 206 
Q 2394 -75 1816 -75 
Q 1088 -75 661 373 
Q 234 822 234 1631 
Q 234 2469 665 2931 
Q 1097 3394 1784 3394 
Q 2450 3394 2872 2941 
Q 3294 2488 3294 1666 
Q 3294 1616 3291 1516 
L 816 1516 
Q 847 969 1125 678 
Q 1403 388 1819 388 
Q 2128 388 2347 550 
Q 2566 713 2694 1069 
z
M 847 1978 
L 2700 1978 
Q 2663 2397 2488 2606 
Q 2219 2931 1791 2931 
Q 1403 2931 1139 2672 
Q 875 2413 847 1978 
z
" transform="scale(0.015625)"/>
       <path id="ArialMT-71" d="M 2538 -1272 
L 2538 353 
Q 2406 169 2170 47 
Q 1934 -75 1669 -75 
Q 1078 -75 651 397 
Q 225 869 225 1691 
Q 225 2191 398 2587 
Q 572 2984 901 3189 
Q 1231 3394 1625 3394 
Q 2241 3394 2594 2875 
L 2594 3319 
L 3100 3319 
L 3100 -1272 
L 2538 -1272 
z
M 803 1669 
Q 803 1028 1072 708 
Q 1341 388 1716 388 
Q 2075 388 2334 692 
Q 2594 997 2594 1619 
Q 2594 2281 2320 2615 
Q 2047 2950 1678 2950 
Q 1313 2950 1058 2639 
Q 803 2328 803 1669 
z
" transform="scale(0.015625)"/>
       <path id="ArialMT-75" d="M 2597 0 
L 2597 488 
Q 2209 -75 1544 -75 
Q 1250 -75 995 37 
Q 741 150 617 320 
Q 494 491 444 738 
Q 409 903 409 1263 
L 409 3319 
L 972 3319 
L 972 1478 
Q 972 1038 1006 884 
Q 1059 663 1231 536 
Q 1403 409 1656 409 
Q 1909 409 2131 539 
Q 2353 669 2445 892 
Q 2538 1116 2538 1541 
L 2538 3319 
L 3100 3319 
L 3100 0 
L 2597 0 
z
" transform="scale(0.015625)"/>
       <path id="ArialMT-6e" d="M 422 0 
L 422 3319 
L 928 3319 
L 928 2847 
Q 1294 3394 1984 3394 
Q 2284 3394 2536 3286 
Q 2788 3178 2913 3003 
Q 3038 2828 3088 2588 
Q 3119 2431 3119 2041 
L 3119 0 
L 2556 0 
L 2556 2019 
Q 2556 2363 2490 2533 
Q 2425 2703 2258 2804 
Q 2091 2906 1866 2906 
Q 1506 2906 1245 2678 
Q 984 2450 984 1813 
L 984 0 
L 422 0 
z
" transform="scale(0.015625)"/>
       <path id="ArialMT-63" d="M 2588 1216 
L 3141 1144 
Q 3050 572 2676 248 
Q 2303 -75 1759 -75 
Q 1078 -75 664 370 
Q 250 816 250 1647 
Q 250 2184 428 2587 
Q 606 2991 970 3192 
Q 1334 3394 1763 3394 
Q 2303 3394 2647 3120 
Q 2991 2847 3088 2344 
L 2541 2259 
Q 2463 2594 2264 2762 
Q 2066 2931 1784 2931 
Q 1359 2931 1093 2626 
Q 828 2322 828 1663 
Q 828 994 1084 691 
Q 1341 388 1753 388 
Q 2084 388 2306 591 
Q 2528 794 2588 1216 
z
" transform="scale(0.015625)"/>
       <path id="ArialMT-79" d="M 397 -1278 
L 334 -750 
Q 519 -800 656 -800 
Q 844 -800 956 -737 
Q 1069 -675 1141 -563 
Q 1194 -478 1313 -144 
Q 1328 -97 1363 -6 
L 103 3319 
L 709 3319 
L 1400 1397 
Q 1534 1031 1641 628 
Q 1738 1016 1872 1384 
L 2581 3319 
L 3144 3319 
L 1881 -56 
Q 1678 -603 1566 -809 
Q 1416 -1088 1222 -1217 
Q 1028 -1347 759 -1347 
Q 597 -1347 397 -1278 
z
" transform="scale(0.015625)"/>
       <path id="ArialMT-20" transform="scale(0.015625)"/>
       <path id="ArialMT-28" d="M 1497 -1347 
Q 1031 -759 709 28 
Q 388 816 388 1659 
Q 388 2403 628 3084 
Q 909 3875 1497 4659 
L 1900 4659 
Q 1522 4009 1400 3731 
Q 1209 3300 1100 2831 
Q 966 2247 966 1656 
Q 966 153 1900 -1347 
L 1497 -1347 
z
" transform="scale(0.015625)"/>
       <path id="ArialMT-48" d="M 513 0 
L 513 4581 
L 1119 4581 
L 1119 2700 
L 3500 2700 
L 3500 4581 
L 4106 4581 
L 4106 0 
L 3500 0 
L 3500 2159 
L 1119 2159 
L 1119 0 
L 513 0 
z
" transform="scale(0.015625)"/>
       <path id="ArialMT-7a" d="M 125 0 
L 125 456 
L 2238 2881 
Q 1878 2863 1603 2863 
L 250 2863 
L 250 3319 
L 2963 3319 
L 2963 2947 
L 1166 841 
L 819 456 
Q 1197 484 1528 484 
L 3063 484 
L 3063 0 
L 125 0 
z
" transform="scale(0.015625)"/>
       <path id="ArialMT-29" d="M 791 -1347 
L 388 -1347 
Q 1322 153 1322 1656 
Q 1322 2244 1188 2822 
Q 1081 3291 891 3722 
Q 769 4003 388 4659 
L 791 4659 
Q 1378 3875 1659 3084 
Q 1900 2403 1900 1659 
Q 1900 816 1576 28 
Q 1253 -759 791 -1347 
z
" transform="scale(0.015625)"/>
      </defs>
      <use xlink:href="#ArialMT-46"/>
      <use xlink:href="#ArialMT-72" x="61.083984"/>
      <use xlink:href="#ArialMT-65" x="94.384766"/>
      <use xlink:href="#ArialMT-71" x="150"/>
      <use xlink:href="#ArialMT-75" x="205.615234"/>
      <use xlink:href="#ArialMT-65" x="261.230469"/>
      <use xlink:href="#ArialMT-6e" x="316.845703"/>
      <use xlink:href="#ArialMT-63" x="372.460938"/>
      <use xlink:href="#ArialMT-79" x="422.460938"/>
      <use xlink:href="#ArialMT-20" x="472.460938"/>
      <use xlink:href="#ArialMT-28" x="500.244141"/>
      <use xlink:href="#ArialMT-48" x="533.544922"/>
      <use xlink:href="#ArialMT-7a" x="605.761719"/>
      <use xlink:href="#ArialMT-29" x="655.761719"/>
     </g>
    </g>
   </g>
   <g id="matplotlib.axis_2">
    <g id="ytick_1">
     <g id="line2d_19">
      <defs>
       <path id="mcbe3baefd6" d="M 0 0 
L -3.5 0 
" style="stroke: #000000; stroke-width: 0.8"/>
      </defs>
      <g>
       <use xlink:href="#mcbe3baefd6" x="46.928125" y="228.96" style="stroke: #000000; stroke-width: 0.8"/>
      </g>
     </g>
     <g id="text_4">
      <!-- 0.0 -->
      <g transform="translate(26.028125 232.538906) scale(0.1 -0.1)">
       <use xlink:href="#ArialMT-30"/>
       <use xlink:href="#ArialMT-2e" x="55.615234"/>
       <use xlink:href="#ArialMT-30" x="83.398438"/>
      </g>
     </g>
    </g>
    <g id="ytick_2">
     <g id="line2d_20">
      <g>
       <use xlink:href="#mcbe3baefd6" x="46.928125" y="202.966433" style="stroke: #000000; stroke-width: 0.8"/>
      </g>
     </g>
     <g id="text_5">
      <!-- 5.0 -->
      <g transform="translate(26.028125 206.545339) scale(0.1 -0.1)">
       <defs>
        <path id="ArialMT-35" d="M 266 1200 
L 856 1250 
Q 922 819 1161 601 
Q 1400 384 1738 384 
Q 2144 384 2425 690 
Q 2706 997 2706 1503 
Q 2706 1984 2436 2262 
Q 2166 2541 1728 2541 
Q 1456 2541 1237 2417 
Q 1019 2294 894 2097 
L 366 2166 
L 809 4519 
L 3088 4519 
L 3088 3981 
L 1259 3981 
L 1013 2750 
Q 1425 3038 1878 3038 
Q 2478 3038 2890 2622 
Q 3303 2206 3303 1553 
Q 3303 931 2941 478 
Q 2500 -78 1738 -78 
Q 1113 -78 717 272 
Q 322 622 266 1200 
z
" transform="scale(0.015625)"/>
       </defs>
       <use xlink:href="#ArialMT-35"/>
       <use xlink:href="#ArialMT-2e" x="55.615234"/>
       <use xlink:href="#ArialMT-30" x="83.398438"/>
      </g>
     </g>
    </g>
    <g id="ytick_3">
     <g id="line2d_21">
      <g>
       <use xlink:href="#mcbe3baefd6" x="46.928125" y="176.972866" style="stroke: #000000; stroke-width: 0.8"/>
      </g>
     </g>
     <g id="text_6">
      <!-- 10.0 -->
      <g transform="translate(20.467188 180.551773) scale(0.1 -0.1)">
       <use xlink:href="#ArialMT-31"/>
       <use xlink:href="#ArialMT-30" x="55.615234"/>
       <use xlink:href="#ArialMT-2e" x="111.230469"/>
       <use xlink:href="#ArialMT-30" x="139.013672"/>
      </g>
     </g>
    </g>
    <g id="ytick_4">
     <g id="line2d_22">
      <g>
       <use xlink:href="#mcbe3baefd6" x="46.928125" y="150.9793" style="stroke: #000000; stroke-width: 0.8"/>
      </g>
     </g>
     <g id="text_7">
      <!-- 15.0 -->
      <g transform="translate(20.467188 154.558206) scale(0.1 -0.1)">
       <use xlink:href="#ArialMT-31"/>
       <use xlink:href="#ArialMT-35" x="55.615234"/>
       <use xlink:href="#ArialMT-2e" x="111.230469"/>
       <use xlink:href="#ArialMT-30" x="139.013672"/>
      </g>
     </g>
    </g>
    <g id="ytick_5">
     <g id="line2d_23">
      <g>
       <use xlink:href="#mcbe3baefd6" x="46.928125" y="124.985733" style="stroke: #000000; stroke-width: 0.8"/>
      </g>
     </g>
     <g id="text_8">
      <!-- 20.0 -->
      <g transform="translate(20.467188 128.564639) scale(0.1 -0.1)">
       <defs>
        <path id="ArialMT-32" d="M 3222 541 
L 3222 0 
L 194 0 
Q 188 203 259 391 
Q 375 700 629 1000 
Q 884 1300 1366 1694 
Q 2113 2306 2375 2664 
Q 2638 3022 2638 3341 
Q 2638 3675 2398 3904 
Q 2159 4134 1775 4134 
Q 1369 4134 1125 3890 
Q 881 3647 878 3216 
L 300 3275 
Q 359 3922 746 4261 
Q 1134 4600 1788 4600 
Q 2447 4600 2831 4234 
Q 3216 3869 3216 3328 
Q 3216 3053 3103 2787 
Q 2991 2522 2730 2228 
Q 2469 1934 1863 1422 
Q 1356 997 1212 845 
Q 1069 694 975 541 
L 3222 541 
z
" transform="scale(0.015625)"/>
       </defs>
       <use xlink:href="#ArialMT-32"/>
       <use xlink:href="#ArialMT-30" x="55.615234"/>
       <use xlink:href="#ArialMT-2e" x="111.230469"/>
       <use xlink:href="#ArialMT-30" x="139.013672"/>
      </g>
     </g>
    </g>
    <g id="ytick_6">
     <g id="line2d_24">
      <g>
       <use xlink:href="#mcbe3baefd6" x="46.928125" y="98.992166" style="stroke: #000000; stroke-width: 0.8"/>
      </g>
     </g>
     <g id="text_9">
      <!-- 25.0 -->
      <g transform="translate(20.467188 102.571072) scale(0.1 -0.1)">
       <use xlink:href="#ArialMT-32"/>
       <use xlink:href="#ArialMT-35" x="55.615234"/>
       <use xlink:href="#ArialMT-2e" x="111.230469"/>
       <use xlink:href="#ArialMT-30" x="139.013672"/>
      </g>
     </g>
    </g>
    <g id="ytick_7">
     <g id="line2d_25">
      <g>
       <use xlink:href="#mcbe3baefd6" x="46.928125" y="72.998599" style="stroke: #000000; stroke-width: 0.8"/>
      </g>
     </g>
     <g id="text_10">
      <!-- 30.0 -->
      <g transform="translate(20.467188 76.577505) scale(0.1 -0.1)">
       <defs>
        <path id="ArialMT-33" d="M 269 1209 
L 831 1284 
Q 928 806 1161 595 
Q 1394 384 1728 384 
Q 2125 384 2398 659 
Q 2672 934 2672 1341 
Q 2672 1728 2419 1979 
Q 2166 2231 1775 2231 
Q 1616 2231 1378 2169 
L 1441 2663 
Q 1497 2656 1531 2656 
Q 1891 2656 2178 2843 
Q 2466 3031 2466 3422 
Q 2466 3731 2256 3934 
Q 2047 4138 1716 4138 
Q 1388 4138 1169 3931 
Q 950 3725 888 3313 
L 325 3413 
Q 428 3978 793 4289 
Q 1159 4600 1703 4600 
Q 2078 4600 2393 4439 
Q 2709 4278 2876 4000 
Q 3044 3722 3044 3409 
Q 3044 3113 2884 2869 
Q 2725 2625 2413 2481 
Q 2819 2388 3044 2092 
Q 3269 1797 3269 1353 
Q 3269 753 2831 336 
Q 2394 -81 1725 -81 
Q 1122 -81 723 278 
Q 325 638 269 1209 
z
" transform="scale(0.015625)"/>
       </defs>
       <use xlink:href="#ArialMT-33"/>
       <use xlink:href="#ArialMT-30" x="55.615234"/>
       <use xlink:href="#ArialMT-2e" x="111.230469"/>
       <use xlink:href="#ArialMT-30" x="139.013672"/>
      </g>
     </g>
    </g>
    <g id="ytick_8">
     <g id="line2d_26">
      <g>
       <use xlink:href="#mcbe3baefd6" x="46.928125" y="47.005032" style="stroke: #000000; stroke-width: 0.8"/>
      </g>
     </g>
     <g id="text_11">
      <!-- 35.0 -->
      <g transform="translate(20.467188 50.583939) scale(0.1 -0.1)">
       <use xlink:href="#ArialMT-33"/>
       <use xlink:href="#ArialMT-35" x="55.615234"/>
       <use xlink:href="#ArialMT-2e" x="111.230469"/>
       <use xlink:href="#ArialMT-30" x="139.013672"/>
      </g>
     </g>
    </g>
    <g id="ytick_9">
     <g id="line2d_27">
      <g>
       <use xlink:href="#mcbe3baefd6" x="46.928125" y="21.011465" style="stroke: #000000; stroke-width: 0.8"/>
      </g>
     </g>
     <g id="text_12">
      <!-- 40.0 -->
      <g transform="translate(20.467188 24.590372) scale(0.1 -0.1)">
       <defs>
        <path id="ArialMT-34" d="M 2069 0 
L 2069 1097 
L 81 1097 
L 81 1613 
L 2172 4581 
L 2631 4581 
L 2631 1613 
L 3250 1613 
L 3250 1097 
L 2631 1097 
L 2631 0 
L 2069 0 
z
M 2069 1613 
L 2069 3678 
L 634 1613 
L 2069 1613 
z
" transform="scale(0.015625)"/>
       </defs>
       <use xlink:href="#ArialMT-34"/>
       <use xlink:href="#ArialMT-30" x="55.615234"/>
       <use xlink:href="#ArialMT-2e" x="111.230469"/>
       <use xlink:href="#ArialMT-30" x="139.013672"/>
      </g>
     </g>
    </g>
    <g id="text_13">
     <!-- H/V Amplitude -->
     <g transform="translate(14.479688 149.762031) rotate(-90) scale(0.1 -0.1)">
      <defs>
       <path id="ArialMT-2f" d="M 0 -78 
L 1328 4659 
L 1778 4659 
L 453 -78 
L 0 -78 
z
" transform="scale(0.015625)"/>
       <path id="ArialMT-56" d="M 1803 0 
L 28 4581 
L 684 4581 
L 1875 1253 
Q 2019 853 2116 503 
Q 2222 878 2363 1253 
L 3600 4581 
L 4219 4581 
L 2425 0 
L 1803 0 
z
" transform="scale(0.015625)"/>
       <path id="ArialMT-41" d="M -9 0 
L 1750 4581 
L 2403 4581 
L 4278 0 
L 3588 0 
L 3053 1388 
L 1138 1388 
L 634 0 
L -9 0 
z
M 1313 1881 
L 2866 1881 
L 2388 3150 
Q 2169 3728 2063 4100 
Q 1975 3659 1816 3225 
L 1313 1881 
z
" transform="scale(0.015625)"/>
       <path id="ArialMT-6d" d="M 422 0 
L 422 3319 
L 925 3319 
L 925 2853 
Q 1081 3097 1340 3245 
Q 1600 3394 1931 3394 
Q 2300 3394 2536 3241 
Q 2772 3088 2869 2813 
Q 3263 3394 3894 3394 
Q 4388 3394 4653 3120 
Q 4919 2847 4919 2278 
L 4919 0 
L 4359 0 
L 4359 2091 
Q 4359 2428 4304 2576 
Q 4250 2725 4106 2815 
Q 3963 2906 3769 2906 
Q 3419 2906 3187 2673 
Q 2956 2441 2956 1928 
L 2956 0 
L 2394 0 
L 2394 2156 
Q 2394 2531 2256 2718 
Q 2119 2906 1806 2906 
Q 1569 2906 1367 2781 
Q 1166 2656 1075 2415 
Q 984 2175 984 1722 
L 984 0 
L 422 0 
z
" transform="scale(0.015625)"/>
       <path id="ArialMT-70" d="M 422 -1272 
L 422 3319 
L 934 3319 
L 934 2888 
Q 1116 3141 1344 3267 
Q 1572 3394 1897 3394 
Q 2322 3394 2647 3175 
Q 2972 2956 3137 2557 
Q 3303 2159 3303 1684 
Q 3303 1175 3120 767 
Q 2938 359 2589 142 
Q 2241 -75 1856 -75 
Q 1575 -75 1351 44 
Q 1128 163 984 344 
L 984 -1272 
L 422 -1272 
z
M 931 1641 
Q 931 1000 1190 694 
Q 1450 388 1819 388 
Q 2194 388 2461 705 
Q 2728 1022 2728 1688 
Q 2728 2322 2467 2637 
Q 2206 2953 1844 2953 
Q 1484 2953 1207 2617 
Q 931 2281 931 1641 
z
" transform="scale(0.015625)"/>
       <path id="ArialMT-6c" d="M 409 0 
L 409 4581 
L 972 4581 
L 972 0 
L 409 0 
z
" transform="scale(0.015625)"/>
       <path id="ArialMT-69" d="M 425 3934 
L 425 4581 
L 988 4581 
L 988 3934 
L 425 3934 
z
M 425 0 
L 425 3319 
L 988 3319 
L 988 0 
L 425 0 
z
" transform="scale(0.015625)"/>
       <path id="ArialMT-74" d="M 1650 503 
L 1731 6 
Q 1494 -44 1306 -44 
Q 1000 -44 831 53 
Q 663 150 594 308 
Q 525 466 525 972 
L 525 2881 
L 113 2881 
L 113 3319 
L 525 3319 
L 525 4141 
L 1084 4478 
L 1084 3319 
L 1650 3319 
L 1650 2881 
L 1084 2881 
L 1084 941 
Q 1084 700 1114 631 
Q 1144 563 1211 522 
Q 1278 481 1403 481 
Q 1497 481 1650 503 
z
" transform="scale(0.015625)"/>
       <path id="ArialMT-64" d="M 2575 0 
L 2575 419 
Q 2259 -75 1647 -75 
Q 1250 -75 917 144 
Q 584 363 401 755 
Q 219 1147 219 1656 
Q 219 2153 384 2558 
Q 550 2963 881 3178 
Q 1213 3394 1622 3394 
Q 1922 3394 2156 3267 
Q 2391 3141 2538 2938 
L 2538 4581 
L 3097 4581 
L 3097 0 
L 2575 0 
z
M 797 1656 
Q 797 1019 1065 703 
Q 1334 388 1700 388 
Q 2069 388 2326 689 
Q 2584 991 2584 1609 
Q 2584 2291 2321 2609 
Q 2059 2928 1675 2928 
Q 1300 2928 1048 2622 
Q 797 2316 797 1656 
z
" transform="scale(0.015625)"/>
      </defs>
      <use xlink:href="#ArialMT-48"/>
      <use xlink:href="#ArialMT-2f" x="72.216797"/>
      <use xlink:href="#ArialMT-56" x="100"/>
      <use xlink:href="#ArialMT-20" x="166.699219"/>
      <use xlink:href="#ArialMT-41" x="188.982422"/>
      <use xlink:href="#ArialMT-6d" x="255.681641"/>
      <use xlink:href="#ArialMT-70" x="338.982422"/>
      <use xlink:href="#ArialMT-6c" x="394.597656"/>
      <use xlink:href="#ArialMT-69" x="416.814453"/>
      <use xlink:href="#ArialMT-74" x="439.03125"/>
      <use xlink:href="#ArialMT-75" x="466.814453"/>
      <use xlink:href="#ArialMT-64" x="522.429688"/>
      <use xlink:href="#ArialMT-65" x="578.044922"/>
     </g>
    </g>
   </g>
   <g id="line2d_28">
    <path d="M 46.928125 224.50236 
L 51.677265 224.909343 
L 54.051835 225.025768 
L 56.426405 225.009165 
L 63.550115 224.429564 
L 65.924685 224.467377 
L 70.673825 224.784956 
L 75.422965 224.749773 
L 92.044955 223.996871 
L 94.419525 223.963864 
L 96.794095 223.807057 
L 99.168665 223.453778 
L 103.917805 222.547451 
L 108.666945 221.741363 
L 111.041515 221.116591 
L 113.416085 220.148068 
L 115.790655 218.607619 
L 118.165225 216.115597 
L 120.539795 212.157369 
L 122.914365 206.446626 
L 125.288935 200.029405 
L 127.663505 194.883154 
L 130.038075 190.549311 
L 132.412645 185.15657 
L 134.787215 178.734402 
L 137.161785 174.024174 
L 139.536355 173.678892 
L 141.910925 176.167094 
L 144.285495 178.145879 
L 146.660065 178.065256 
L 149.034635 175.839395 
L 153.783775 168.073836 
L 156.158345 167.405581 
L 160.907485 174.17974 
L 163.282055 174.505238 
L 168.031195 170.06071 
L 170.405765 171.790282 
L 172.780335 179.868934 
L 175.154905 191.471553 
L 177.529475 201.834988 
L 179.904045 209.181226 
L 182.278615 213.976541 
L 184.653185 216.960658 
L 187.027755 218.575357 
L 189.402325 219.116907 
L 191.776895 218.880277 
L 194.151465 218.390881 
L 196.526035 218.645079 
L 198.900605 220.193209 
L 201.275175 222.182686 
L 203.649745 223.753676 
L 206.024314 224.739214 
L 208.398884 225.269976 
L 213.148024 225.941127 
L 217.897164 226.889996 
L 222.646304 227.456206 
L 227.395444 227.735672 
L 229.770014 227.732039 
L 236.893724 227.438 
L 248.766574 228.054986 
L 253.515714 227.89503 
L 265.388564 227.11081 
L 270.137704 226.594996 
L 272.512274 226.503333 
L 282.010554 226.821008 
L 286.759694 226.462779 
L 289.134264 226.4468 
L 293.883404 226.88017 
L 298.632544 227.313101 
L 301.007114 227.367228 
L 303.381684 227.272165 
L 310.505394 226.660251 
L 320.003674 226.998465 
L 324.752814 226.7992 
L 329.501954 226.979399 
L 334.251094 227.050699 
L 339.000234 226.827283 
L 343.749374 226.549782 
L 346.123944 226.595976 
L 353.247654 227.111677 
L 357.996794 227.170504 
L 369.869644 226.826756 
L 379.367924 226.963116 
L 388.866204 226.555625 
L 393.615344 226.724782 
L 398.364484 226.919703 
L 399.658594 226.928424 
L 399.658594 226.928424 
" clip-path="url(#p3db15876d1)" style="fill: none; stroke: #808080; stroke-opacity: 0.5; stroke-width: 0.5; stroke-linecap: square"/>
   </g>
   <g id="line2d_29">
    <path d="M 46.928125 227.26571 
L 49.302695 227.140009 
L 51.677265 226.889279 
L 56.426405 226.057518 
L 61.175545 224.918979 
L 63.550115 224.577839 
L 65.924685 224.841434 
L 68.299255 225.48507 
L 70.673825 225.94368 
L 73.048395 226.090655 
L 75.422965 225.930902 
L 77.797535 225.368629 
L 80.172105 224.243416 
L 82.546675 222.596698 
L 84.921245 221.196977 
L 87.295815 221.021766 
L 92.044955 222.322665 
L 99.168665 223.354821 
L 101.543235 223.899306 
L 103.917805 224.029163 
L 106.292375 223.371881 
L 108.666945 221.702229 
L 111.041515 219.20934 
L 113.416085 217.055457 
L 115.790655 216.434154 
L 118.165225 217.147495 
L 120.539795 218.264793 
L 122.914365 219.074686 
L 125.288935 219.282393 
L 127.663505 218.909336 
L 132.412645 217.634931 
L 134.787215 217.071702 
L 137.161785 215.916769 
L 139.536355 213.590773 
L 141.910925 210.671254 
L 144.285495 209.123754 
L 146.660065 209.690077 
L 149.034635 211.065646 
L 153.783775 213.343071 
L 158.532915 216.631842 
L 160.907485 217.813874 
L 163.282055 218.140583 
L 165.656625 217.197339 
L 168.031195 214.495774 
L 172.780335 206.10862 
L 175.154905 204.602975 
L 177.529475 206.275419 
L 179.904045 209.371738 
L 182.278615 211.581056 
L 184.653185 211.693376 
L 187.027755 209.67153 
L 189.402325 206.442199 
L 191.776895 204.354524 
L 194.151465 206.026543 
L 198.900605 214.98266 
L 201.275175 217.672665 
L 203.649745 218.819434 
L 206.024314 219.032534 
L 208.398884 218.996656 
L 210.773454 219.381929 
L 213.148024 220.392608 
L 215.522594 221.552019 
L 217.897164 222.398646 
L 220.271734 222.883161 
L 225.020874 223.595661 
L 229.770014 224.593089 
L 234.519154 225.641896 
L 239.268294 226.337078 
L 244.017434 226.672794 
L 253.515714 226.884922 
L 258.264854 226.843744 
L 263.013994 226.392764 
L 265.388564 226.156784 
L 274.886844 225.697965 
L 277.261414 225.277914 
L 282.010554 224.280448 
L 284.385124 224.115147 
L 286.759694 224.225992 
L 293.883404 225.008261 
L 298.632544 225.254971 
L 303.381684 225.801504 
L 308.130824 226.320104 
L 310.505394 226.413011 
L 317.629104 226.395146 
L 324.752814 226.814436 
L 329.501954 226.743331 
L 334.251094 226.42669 
L 341.374804 225.478606 
L 343.749374 225.396989 
L 346.123944 225.584131 
L 355.622224 227.113849 
L 360.371364 227.348566 
L 365.120504 227.306063 
L 376.993354 226.901218 
L 384.117064 226.944374 
L 391.240774 226.911965 
L 398.364484 226.865325 
L 399.658594 226.828158 
L 399.658594 226.828158 
" clip-path="url(#p3db15876d1)" style="fill: none; stroke: #808080; stroke-opacity: 0.5; stroke-width: 0.5; stroke-linecap: square"/>
   </g>
   <g id="line2d_30">
    <path d="M 46.928125 227.361853 
L 49.302695 227.320091 
L 54.051835 226.941071 
L 61.175545 226.767415 
L 63.550115 226.151335 
L 65.924685 225.25036 
L 68.299255 224.647615 
L 70.673825 224.640263 
L 73.048395 224.852311 
L 75.422965 224.852588 
L 77.797535 224.500722 
L 80.172105 223.993839 
L 82.546675 223.689165 
L 84.921245 223.762847 
L 87.295815 224.021347 
L 89.670385 224.108128 
L 92.044955 223.795414 
L 94.419525 223.045032 
L 99.168665 220.847649 
L 101.543235 219.439008 
L 103.917805 217.644645 
L 106.292375 216.002644 
L 108.666945 215.207996 
L 111.041515 215.19235 
L 113.416085 215.541624 
L 115.790655 216.102105 
L 120.539795 217.408306 
L 127.663505 218.631557 
L 132.412645 219.721785 
L 134.787215 220.012181 
L 137.161785 220.050272 
L 139.536355 219.668853 
L 141.910925 218.599028 
L 144.285495 216.696185 
L 146.660065 214.342298 
L 149.034635 212.557257 
L 151.409205 211.815302 
L 153.783775 211.460387 
L 158.532915 210.396399 
L 160.907485 210.558798 
L 165.656625 212.555884 
L 168.031195 213.002687 
L 170.405765 212.821353 
L 172.780335 212.221408 
L 175.154905 211.775839 
L 179.904045 212.17285 
L 182.278615 211.935831 
L 187.027755 210.972623 
L 189.402325 211.135929 
L 191.776895 212.441313 
L 194.151465 214.547869 
L 196.526035 215.86405 
L 198.900605 215.56863 
L 201.275175 214.384645 
L 203.649745 213.500526 
L 206.024314 213.498399 
L 208.398884 214.3316 
L 210.773454 215.837288 
L 215.522594 219.628715 
L 217.897164 221.20926 
L 220.271734 222.426795 
L 222.646304 223.248985 
L 225.020874 223.599259 
L 227.395444 223.431383 
L 229.770014 222.795592 
L 232.144584 222.043048 
L 234.519154 221.938864 
L 236.893724 222.769626 
L 239.268294 223.849252 
L 241.642864 224.612354 
L 244.017434 224.990347 
L 246.392004 225.124259 
L 251.141144 225.069259 
L 265.388564 224.252997 
L 267.763134 224.247066 
L 270.137704 224.367787 
L 272.512274 224.705145 
L 277.261414 225.572516 
L 279.635984 225.6219 
L 282.010554 225.35922 
L 286.759694 224.642561 
L 291.508834 224.141446 
L 293.883404 224.025039 
L 296.257974 224.202405 
L 298.632544 224.691003 
L 303.381684 225.832128 
L 305.756254 226.197725 
L 310.505394 226.478278 
L 322.378244 226.745648 
L 329.501954 226.56978 
L 334.251094 226.422382 
L 339.000234 226.068088 
L 341.374804 226.027916 
L 343.749374 226.195839 
L 350.873084 227.258134 
L 353.247654 227.398123 
L 360.371364 227.371239 
L 369.869644 227.25165 
L 374.618784 227.157784 
L 381.742494 227.124864 
L 393.615344 226.985988 
L 399.658594 226.899133 
L 399.658594 226.899133 
" clip-path="url(#p3db15876d1)" style="fill: none; stroke: #808080; stroke-opacity: 0.5; stroke-width: 0.5; stroke-linecap: square"/>
   </g>
   <g id="line2d_31">
    <path d="M 46.928125 226.342168 
L 51.677265 224.950171 
L 54.051835 224.788768 
L 56.426405 225.171383 
L 61.175545 226.272423 
L 63.550115 226.603151 
L 65.924685 226.730019 
L 68.299255 226.662246 
L 70.673825 226.422038 
L 73.048395 226.034834 
L 80.172105 224.522911 
L 82.546675 224.369391 
L 84.921245 224.5083 
L 89.670385 224.918169 
L 92.044955 224.766527 
L 94.419525 224.014467 
L 96.794095 222.705442 
L 99.168665 221.979846 
L 101.543235 222.323263 
L 103.917805 222.90602 
L 106.292375 223.250892 
L 108.666945 223.326866 
L 115.790655 223.097795 
L 118.165225 222.636229 
L 120.539795 221.687871 
L 127.663505 217.520221 
L 130.038075 216.543467 
L 132.412645 216.192788 
L 134.787215 216.526061 
L 139.536355 218.086653 
L 141.910925 218.507935 
L 144.285495 218.212379 
L 146.660065 217.02962 
L 149.034635 214.990377 
L 151.409205 212.706587 
L 153.783775 211.810726 
L 156.158345 213.27612 
L 158.532915 215.714556 
L 160.907485 217.647818 
L 163.282055 218.608318 
L 165.656625 218.603108 
L 168.031195 217.811438 
L 170.405765 216.483616 
L 172.780335 214.951556 
L 175.154905 213.901025 
L 177.529475 214.449568 
L 179.904045 216.729424 
L 182.278615 219.290749 
L 184.653185 221.159471 
L 187.027755 222.340257 
L 189.402325 223.055295 
L 191.776895 223.422062 
L 194.151465 223.482872 
L 196.526035 223.292313 
L 201.275175 222.539967 
L 203.649745 222.145898 
L 206.024314 222.005366 
L 208.398884 222.380598 
L 215.522594 224.660225 
L 217.897164 225.191694 
L 220.271734 225.589735 
L 225.020874 226.071896 
L 229.770014 226.58442 
L 234.519154 227.046031 
L 239.268294 226.985241 
L 241.642864 226.934356 
L 244.017434 227.039258 
L 248.766574 227.48587 
L 253.515714 227.627813 
L 260.639424 227.342262 
L 267.763134 227.156067 
L 286.759694 226.87817 
L 296.257974 227.275687 
L 298.632544 227.143735 
L 301.007114 226.836128 
L 305.756254 225.97955 
L 308.130824 225.781685 
L 310.505394 225.924501 
L 315.254534 226.497879 
L 324.752814 227.074163 
L 329.501954 227.075392 
L 334.251094 226.981151 
L 341.374804 227.061796 
L 348.498514 227.037978 
L 355.622224 227.186096 
L 360.371364 227.072095 
L 367.495074 226.649084 
L 372.244214 226.651226 
L 381.742494 226.82798 
L 391.240774 226.528337 
L 395.989914 226.684937 
L 399.658594 226.922561 
L 399.658594 226.922561 
" clip-path="url(#p3db15876d1)" style="fill: none; stroke: #808080; stroke-opacity: 0.5; stroke-width: 0.5; stroke-linecap: square"/>
   </g>
   <g id="line2d_32">
    <path d="M 46.928125 223.905866 
L 51.677265 224.075218 
L 61.175545 224.749719 
L 65.924685 224.722419 
L 73.048395 224.472377 
L 80.172105 224.407386 
L 84.921245 224.230758 
L 89.670385 224.314408 
L 94.419525 224.373508 
L 99.168665 224.061849 
L 101.543235 223.753766 
L 103.917805 223.216556 
L 106.292375 222.289063 
L 108.666945 220.840403 
L 111.041515 218.827471 
L 113.416085 216.323098 
L 115.790655 213.428707 
L 118.165225 210.018817 
L 120.539795 205.489485 
L 122.914365 198.644522 
L 125.288935 187.837419 
L 127.663505 171.84978 
L 130.038075 151.332161 
L 132.412645 129.811657 
L 134.787215 116.740946 
L 137.161785 123.89464 
L 139.536355 144.830729 
L 141.910925 163.701338 
L 144.285495 175.523527 
L 146.660065 181.885122 
L 149.034635 185.012746 
L 151.409205 186.724332 
L 153.783775 188.762607 
L 156.158345 192.33476 
L 158.532915 196.759465 
L 160.907485 199.884796 
L 163.282055 200.167537 
L 165.656625 197.472928 
L 168.031195 193.195915 
L 170.405765 190.902908 
L 172.780335 193.980409 
L 175.154905 200.756723 
L 177.529475 207.138436 
L 179.904045 211.362141 
L 182.278615 213.657813 
L 184.653185 214.660433 
L 187.027755 214.785943 
L 189.402325 214.379238 
L 191.776895 214.10454 
L 194.151465 214.718859 
L 196.526035 216.303995 
L 201.275175 220.400191 
L 203.649745 221.94204 
L 206.024314 222.874053 
L 213.148024 224.344505 
L 217.897164 226.121365 
L 220.271734 226.733865 
L 222.646304 227.067016 
L 225.020874 227.179354 
L 229.770014 227.131201 
L 232.144584 227.25183 
L 239.268294 228.080471 
L 244.017434 228.204985 
L 251.141144 228.010329 
L 258.264854 227.84896 
L 263.013994 227.687437 
L 270.137704 227.127818 
L 277.261414 227.030067 
L 282.010554 226.763536 
L 291.508834 226.523695 
L 296.257974 226.350793 
L 308.130824 226.266375 
L 312.879964 226.050434 
L 322.378244 226.152523 
L 324.752814 226.265275 
L 329.501954 226.725979 
L 331.876524 226.820145 
L 343.749374 226.728022 
L 348.498514 226.674332 
L 355.622224 226.266961 
L 360.371364 226.442426 
L 365.120504 226.865022 
L 367.495074 226.962485 
L 369.869644 226.910035 
L 376.993354 226.382712 
L 379.367924 226.358862 
L 384.117064 226.688702 
L 388.866204 226.985618 
L 395.989914 227.123282 
L 399.658594 227.108615 
L 399.658594 227.108615 
" clip-path="url(#p3db15876d1)" style="fill: none; stroke: #808080; stroke-opacity: 0.5; stroke-width: 0.5; stroke-linecap: square"/>
   </g>
   <g id="line2d_33">
    <path d="M 46.928125 223.028206 
L 49.302695 223.317943 
L 54.051835 224.120449 
L 58.800975 224.394915 
L 61.175545 224.537214 
L 65.924685 225.035509 
L 68.299255 225.040109 
L 70.673825 224.704549 
L 75.422965 223.772448 
L 77.797535 223.445828 
L 80.172105 222.944205 
L 82.546675 221.898281 
L 87.295815 218.626692 
L 89.670385 217.573726 
L 92.044955 217.043938 
L 96.794095 216.702614 
L 99.168665 216.008326 
L 101.543235 214.350606 
L 106.292375 209.41444 
L 108.666945 207.559047 
L 111.041515 206.777931 
L 113.416085 206.70205 
L 115.790655 206.86424 
L 118.165225 207.562764 
L 120.539795 209.355185 
L 122.914365 211.906376 
L 125.288935 213.775793 
L 127.663505 213.827166 
L 130.038075 212.268268 
L 137.161785 205.617002 
L 139.536355 203.127074 
L 141.910925 200.798263 
L 144.285495 199.562404 
L 146.660065 200.142452 
L 149.034635 202.366095 
L 151.409205 205.116795 
L 153.783775 207.228544 
L 156.158345 208.462458 
L 160.907485 210.204019 
L 163.282055 211.145079 
L 165.656625 211.868625 
L 168.031195 212.060632 
L 170.405765 211.376496 
L 172.780335 209.518445 
L 175.154905 206.693326 
L 177.529475 204.18452 
L 179.904045 203.800511 
L 182.278615 205.703134 
L 184.653185 208.195442 
L 187.027755 210.132008 
L 189.402325 211.904048 
L 191.776895 214.370663 
L 194.151465 217.404907 
L 196.526035 220.183269 
L 198.900605 222.299454 
L 201.275175 223.897516 
L 203.649745 225.176646 
L 206.024314 226.109952 
L 208.398884 226.7009 
L 210.773454 227.061206 
L 215.522594 227.477384 
L 220.271734 227.656679 
L 222.646304 227.586932 
L 225.020874 227.329028 
L 227.395444 226.79764 
L 232.144584 225.126353 
L 234.519154 224.847266 
L 236.893724 225.166372 
L 241.642864 226.191671 
L 246.392004 226.8771 
L 251.141144 227.219317 
L 255.890284 227.182641 
L 260.639424 226.762221 
L 263.013994 226.523202 
L 265.388564 226.407933 
L 270.137704 226.49835 
L 274.886844 226.63288 
L 277.261414 226.609454 
L 279.635984 226.445495 
L 284.385124 225.820342 
L 286.759694 225.718999 
L 289.134264 225.962202 
L 291.508834 226.358882 
L 293.883404 226.606182 
L 296.257974 226.577567 
L 301.007114 225.956248 
L 303.381684 225.6714 
L 305.756254 225.60009 
L 315.254534 226.203832 
L 327.127384 226.053714 
L 334.251094 225.475159 
L 336.625664 225.683592 
L 341.374804 226.484455 
L 343.749374 226.682378 
L 348.498514 226.630808 
L 353.247654 226.487135 
L 357.996794 226.725468 
L 362.745934 227.11499 
L 365.120504 227.184684 
L 369.869644 226.94608 
L 372.244214 226.831787 
L 376.993354 226.936012 
L 381.742494 227.112943 
L 388.866204 227.010207 
L 399.658594 226.72359 
L 399.658594 226.72359 
" clip-path="url(#p3db15876d1)" style="fill: none; stroke: #808080; stroke-opacity: 0.5; stroke-width: 0.5; stroke-linecap: square"/>
   </g>
   <g id="line2d_34">
    <path d="M 46.928125 217.511369 
L 49.302695 216.943411 
L 51.677265 217.540703 
L 56.426405 221.359903 
L 58.800975 222.397733 
L 61.175545 222.537568 
L 63.550115 222.45656 
L 65.924685 222.840668 
L 68.299255 223.521673 
L 70.673825 223.935764 
L 73.048395 223.867232 
L 75.422965 223.332141 
L 77.797535 222.472389 
L 80.172105 221.814195 
L 82.546675 222.253565 
L 84.921245 223.419511 
L 87.295815 224.05536 
L 89.670385 223.86487 
L 92.044955 222.970535 
L 94.419525 221.51871 
L 96.794095 219.813815 
L 99.168665 218.382908 
L 101.543235 217.875936 
L 103.917805 218.64146 
L 106.292375 219.93163 
L 108.666945 220.663795 
L 111.041515 220.428089 
L 113.416085 219.083023 
L 115.790655 216.423394 
L 118.165225 212.477465 
L 120.539795 208.153507 
L 122.914365 204.837717 
L 125.288935 202.847762 
L 127.663505 201.276623 
L 130.038075 199.432591 
L 132.412645 198.98592 
L 134.787215 202.716553 
L 137.161785 208.154066 
L 139.536355 211.410482 
L 141.910925 212.137236 
L 144.285495 211.474465 
L 146.660065 210.692972 
L 149.034635 210.297891 
L 151.409205 209.730406 
L 153.783775 208.406581 
L 158.532915 204.067986 
L 160.907485 203.512356 
L 163.282055 205.856598 
L 165.656625 209.832801 
L 168.031195 213.223139 
L 170.405765 214.902366 
L 172.780335 214.777237 
L 175.154905 213.242775 
L 177.529475 211.075772 
L 179.904045 209.123024 
L 182.278615 207.698338 
L 184.653185 206.770368 
L 187.027755 206.517943 
L 189.402325 207.141916 
L 191.776895 208.447479 
L 194.151465 210.161632 
L 201.275175 216.147818 
L 203.649745 217.64122 
L 206.024314 218.832432 
L 208.398884 219.707152 
L 210.773454 220.201293 
L 213.148024 220.258265 
L 217.897164 219.693993 
L 220.271734 220.275601 
L 225.020874 223.169044 
L 227.395444 224.232634 
L 229.770014 224.823571 
L 232.144584 225.067069 
L 239.268294 225.457967 
L 244.017434 225.944688 
L 251.141144 226.970175 
L 253.515714 227.146163 
L 255.890284 227.147443 
L 258.264854 226.954101 
L 260.639424 226.565036 
L 265.388564 225.635979 
L 267.763134 225.415164 
L 274.886844 225.243432 
L 277.261414 225.308413 
L 284.385124 225.905167 
L 293.883404 225.508548 
L 298.632544 225.43742 
L 305.756254 224.827443 
L 308.130824 224.968499 
L 315.254534 226.233323 
L 317.629104 226.370499 
L 320.003674 226.302736 
L 324.752814 225.903362 
L 327.127384 225.927133 
L 336.625664 226.894096 
L 348.498514 226.787224 
L 353.247654 226.988274 
L 362.745934 226.992515 
L 374.618784 226.93811 
L 384.117064 227.184912 
L 388.866204 227.193284 
L 399.658594 227.008308 
L 399.658594 227.008308 
" clip-path="url(#p3db15876d1)" style="fill: none; stroke: #808080; stroke-opacity: 0.5; stroke-width: 0.5; stroke-linecap: square"/>
   </g>
   <g id="line2d_35">
    <path d="M 46.928125 226.474318 
L 49.302695 226.549571 
L 51.677265 226.391206 
L 54.051835 225.875513 
L 56.426405 224.949179 
L 58.800975 223.74208 
L 61.175545 222.858373 
L 63.550115 222.980496 
L 68.299255 224.509054 
L 70.673825 224.706168 
L 75.422965 224.265868 
L 77.797535 224.557973 
L 80.172105 225.022682 
L 82.546675 225.12561 
L 84.921245 224.761894 
L 87.295815 224.080934 
L 89.670385 223.215585 
L 92.044955 222.150186 
L 94.419525 220.800474 
L 96.794095 219.600528 
L 99.168665 219.711003 
L 103.917805 222.498856 
L 106.292375 223.309793 
L 108.666945 223.173083 
L 111.041515 221.95322 
L 113.416085 220.000941 
L 115.790655 218.214111 
L 118.165225 217.183518 
L 120.539795 216.598625 
L 125.288935 215.172198 
L 127.663505 215.210069 
L 130.038075 216.299878 
L 132.412645 217.589686 
L 134.787215 218.156665 
L 137.161785 217.765156 
L 141.910925 215.854369 
L 144.285495 215.301746 
L 146.660065 214.616332 
L 151.409205 211.936516 
L 153.783775 211.854676 
L 158.532915 214.803533 
L 160.907485 215.403344 
L 163.282055 214.826596 
L 165.656625 213.194428 
L 168.031195 211.116345 
L 170.405765 209.709577 
L 172.780335 209.571491 
L 177.529475 210.75223 
L 179.904045 211.046746 
L 182.278615 210.959385 
L 184.653185 210.678773 
L 187.027755 210.742199 
L 189.402325 211.701373 
L 191.776895 213.476078 
L 194.151465 215.401688 
L 196.526035 217.031076 
L 198.900605 218.343616 
L 201.275175 219.378639 
L 203.649745 220.133014 
L 208.398884 221.292149 
L 210.773454 222.105547 
L 213.148024 223.069721 
L 215.522594 223.911403 
L 217.897164 224.464756 
L 220.271734 224.758256 
L 222.646304 224.878858 
L 227.395444 224.889038 
L 229.770014 225.065325 
L 236.893724 226.384504 
L 246.392004 227.420774 
L 248.766574 227.752611 
L 251.141144 227.939537 
L 253.515714 227.954627 
L 260.639424 227.557744 
L 272.512274 226.960851 
L 277.261414 226.854814 
L 284.385124 226.465207 
L 291.508834 226.549822 
L 301.007114 226.609565 
L 305.756254 226.430062 
L 312.879964 226.035129 
L 320.003674 226.030553 
L 324.752814 226.089391 
L 334.251094 226.393961 
L 341.374804 226.237186 
L 346.123944 226.569343 
L 350.873084 226.922066 
L 355.622224 226.882488 
L 360.371364 226.787199 
L 372.244214 227.162318 
L 386.491634 227.08776 
L 391.240774 227.000253 
L 399.658594 227.115546 
L 399.658594 227.115546 
" clip-path="url(#p3db15876d1)" style="fill: none; stroke: #808080; stroke-opacity: 0.5; stroke-width: 0.5; stroke-linecap: square"/>
   </g>
   <g id="line2d_36">
    <path d="M 46.928125 226.900699 
L 51.677265 226.081604 
L 54.051835 225.821543 
L 56.426405 225.96226 
L 61.175545 226.703311 
L 63.550115 226.722633 
L 65.924685 226.425688 
L 68.299255 225.940179 
L 70.673825 225.588781 
L 77.797535 225.444852 
L 80.172105 224.838645 
L 82.546675 223.642857 
L 84.921245 222.062369 
L 87.295815 220.875764 
L 89.670385 220.479622 
L 92.044955 220.555927 
L 94.419525 220.798178 
L 96.794095 221.18412 
L 99.168665 221.867803 
L 101.543235 222.683435 
L 103.917805 223.100783 
L 106.292375 222.931265 
L 108.666945 222.344823 
L 113.416085 220.834286 
L 115.790655 219.952458 
L 120.539795 217.79792 
L 122.914365 217.514792 
L 125.288935 217.97535 
L 127.663505 218.235651 
L 130.038075 217.55235 
L 132.412645 215.878016 
L 134.787215 213.867726 
L 137.161785 212.620669 
L 139.536355 212.674788 
L 141.910925 213.651907 
L 144.285495 215.09154 
L 149.034635 218.32872 
L 151.409205 219.540696 
L 153.783775 220.008219 
L 156.158345 219.477348 
L 160.907485 216.824072 
L 163.282055 216.050282 
L 170.405765 214.528609 
L 175.154905 214.140706 
L 177.529475 213.5569 
L 182.278615 211.297957 
L 184.653185 210.97117 
L 187.027755 211.680983 
L 189.402325 212.638386 
L 194.151465 213.724949 
L 196.526035 215.347684 
L 198.900605 217.924715 
L 201.275175 220.159699 
L 203.649745 221.409011 
L 206.024314 221.823266 
L 208.398884 221.594549 
L 213.148024 219.923283 
L 215.522594 219.931708 
L 220.271734 221.473263 
L 222.646304 221.719791 
L 227.395444 221.405409 
L 229.770014 221.94802 
L 232.144584 223.031767 
L 234.519154 223.966889 
L 236.893724 224.477166 
L 241.642864 225.115843 
L 246.392004 225.982336 
L 248.766574 226.290973 
L 251.141144 226.371396 
L 253.515714 226.1719 
L 260.639424 224.713112 
L 263.013994 224.513178 
L 265.388564 224.567789 
L 267.763134 224.820164 
L 274.886844 225.864146 
L 277.261414 225.968372 
L 279.635984 225.94135 
L 284.385124 225.531076 
L 286.759694 225.315224 
L 289.134264 225.341998 
L 296.257974 226.396775 
L 303.381684 226.636019 
L 308.130824 226.663308 
L 315.254534 226.299188 
L 320.003674 226.460083 
L 324.752814 226.60291 
L 339.000234 226.367835 
L 343.749374 226.428115 
L 348.498514 226.724553 
L 353.247654 227.027686 
L 367.495074 227.201071 
L 374.618784 227.039341 
L 388.866204 227.188628 
L 393.615344 227.27818 
L 399.658594 227.163304 
L 399.658594 227.163304 
" clip-path="url(#p3db15876d1)" style="fill: none; stroke: #808080; stroke-opacity: 0.5; stroke-width: 0.5; stroke-linecap: square"/>
   </g>
   <g id="line2d_37">
    <path d="M 46.928125 227.531066 
L 49.302695 227.144089 
L 51.677265 226.532936 
L 54.051835 225.648212 
L 56.426405 224.617388 
L 58.800975 223.902646 
L 61.175545 223.894429 
L 65.924685 224.631872 
L 73.048395 224.980613 
L 80.172105 225.97921 
L 82.546675 226.081196 
L 84.921245 225.949685 
L 87.295815 225.459446 
L 89.670385 224.556228 
L 99.168665 219.701598 
L 101.543235 218.869259 
L 103.917805 218.489428 
L 108.666945 218.641895 
L 111.041515 218.290232 
L 113.416085 217.818493 
L 115.790655 217.776642 
L 118.165225 218.422353 
L 122.914365 220.678168 
L 125.288935 221.383264 
L 127.663505 221.577605 
L 130.038075 221.310935 
L 132.412645 220.668743 
L 137.161785 219.033928 
L 139.536355 218.56563 
L 141.910925 218.51793 
L 144.285495 218.716856 
L 146.660065 218.732517 
L 149.034635 218.132048 
L 153.783775 215.609176 
L 156.158345 214.919667 
L 158.532915 214.972141 
L 160.907485 215.370773 
L 163.282055 215.467975 
L 165.656625 214.856984 
L 168.031195 213.703422 
L 170.405765 212.423259 
L 172.780335 211.355643 
L 175.154905 210.858146 
L 177.529475 211.204754 
L 182.278615 213.22791 
L 184.653185 213.869881 
L 187.027755 214.038191 
L 189.402325 213.849492 
L 191.776895 213.456241 
L 194.151465 212.812181 
L 196.526035 211.583333 
L 198.900605 209.68279 
L 201.275175 208.132729 
L 203.649745 208.718098 
L 206.024314 211.790485 
L 208.398884 215.800834 
L 210.773454 219.263923 
L 213.148024 221.653473 
L 215.522594 223.139799 
L 217.897164 224.145517 
L 220.271734 224.939797 
L 222.646304 225.542809 
L 225.020874 225.940897 
L 232.144584 226.59697 
L 244.017434 227.579138 
L 248.766574 227.641821 
L 255.890284 227.48937 
L 263.013994 227.372252 
L 267.763134 227.08539 
L 277.261414 226.163696 
L 286.759694 225.814539 
L 291.508834 225.901975 
L 301.007114 226.294194 
L 308.130824 226.80522 
L 310.505394 226.771193 
L 317.629104 226.30774 
L 322.378244 226.360625 
L 329.501954 226.429762 
L 336.625664 226.289897 
L 341.374804 226.207415 
L 346.123944 226.540575 
L 350.873084 226.969008 
L 355.622224 227.082449 
L 360.371364 226.837994 
L 362.745934 226.700439 
L 365.120504 226.676414 
L 376.993354 227.078384 
L 386.491634 227.138703 
L 395.989914 227.127148 
L 399.658594 227.105489 
L 399.658594 227.105489 
" clip-path="url(#p3db15876d1)" style="fill: none; stroke: #808080; stroke-opacity: 0.5; stroke-width: 0.5; stroke-linecap: square"/>
   </g>
   <g id="line2d_38">
    <path d="M 46.928125 224.537111 
L 51.677265 224.275115 
L 54.051835 224.301034 
L 58.800975 224.727094 
L 61.175545 225.036792 
L 63.550115 225.22511 
L 65.924685 225.036569 
L 70.673825 223.957244 
L 75.422965 223.224385 
L 77.797535 223.045792 
L 80.172105 223.169922 
L 82.546675 223.687301 
L 84.921245 224.335228 
L 87.295815 224.789303 
L 89.670385 225.007398 
L 94.419525 225.156291 
L 96.794095 225.133598 
L 99.168665 224.974642 
L 101.543235 224.680898 
L 103.917805 224.1915 
L 106.292375 223.297289 
L 108.666945 221.631544 
L 113.416085 216.464231 
L 115.790655 215.122048 
L 118.165225 214.170231 
L 120.539795 212.665669 
L 122.914365 211.715088 
L 125.288935 213.203154 
L 127.663505 216.033013 
L 130.038075 218.032601 
L 132.412645 218.058191 
L 134.787215 215.055434 
L 139.536355 201.981576 
L 141.910925 199.396926 
L 144.285495 199.363393 
L 146.660065 198.465931 
L 149.034635 196.467553 
L 151.409205 195.900231 
L 153.783775 197.585814 
L 156.158345 199.962897 
L 158.532915 202.027096 
L 163.282055 205.729328 
L 165.656625 206.901869 
L 168.031195 206.859245 
L 170.405765 205.629839 
L 172.780335 204.109751 
L 175.154905 203.881677 
L 177.529475 205.30104 
L 179.904045 206.250837 
L 182.278615 204.764799 
L 184.653185 200.493327 
L 187.027755 194.44721 
L 189.402325 189.796153 
L 191.776895 191.617885 
L 194.151465 200.095251 
L 196.526035 209.436745 
L 198.900605 216.182007 
L 201.275175 219.986562 
L 203.649745 221.485366 
L 206.024314 221.593225 
L 208.398884 221.375203 
L 210.773454 221.657364 
L 213.148024 222.626946 
L 215.522594 223.890127 
L 217.897164 224.908707 
L 220.271734 225.437575 
L 222.646304 225.57263 
L 227.395444 225.486109 
L 229.770014 225.607881 
L 234.519154 226.297449 
L 239.268294 226.864481 
L 244.017434 227.00243 
L 253.515714 226.997115 
L 274.886844 227.186092 
L 279.635984 226.926179 
L 289.134264 226.796551 
L 301.007114 226.886505 
L 310.505394 226.751092 
L 315.254534 226.902791 
L 320.003674 227.041412 
L 329.501954 226.87594 
L 336.625664 226.932913 
L 348.498514 226.653054 
L 357.996794 227.250004 
L 365.120504 227.273761 
L 376.993354 227.109712 
L 386.491634 227.125024 
L 391.240774 227.147846 
L 399.658594 226.928719 
L 399.658594 226.928719 
" clip-path="url(#p3db15876d1)" style="fill: none; stroke: #808080; stroke-opacity: 0.5; stroke-width: 0.5; stroke-linecap: square"/>
   </g>
   <g id="line2d_39">
    <path d="M 46.928125 224.080891 
L 49.302695 224.1624 
L 56.426405 223.549587 
L 61.175545 223.665038 
L 63.550115 223.475848 
L 65.924685 223.037623 
L 68.299255 222.367619 
L 73.048395 220.648952 
L 75.422965 220.341866 
L 77.797535 220.973746 
L 82.546675 223.231424 
L 84.921245 224.02819 
L 87.295815 224.581592 
L 89.670385 224.907687 
L 92.044955 224.880811 
L 94.419525 224.281166 
L 99.168665 221.714387 
L 101.543235 221.776552 
L 103.917805 222.916062 
L 106.292375 223.908735 
L 108.666945 224.451176 
L 111.041515 224.575844 
L 113.416085 224.207497 
L 115.790655 223.141473 
L 120.539795 219.385653 
L 122.914365 218.158871 
L 125.288935 217.123962 
L 127.663505 215.672294 
L 130.038075 214.621125 
L 132.412645 215.089871 
L 134.787215 216.621266 
L 137.161785 217.989736 
L 139.536355 218.279291 
L 141.910925 216.841375 
L 146.660065 210.429807 
L 149.034635 209.699147 
L 151.409205 211.228167 
L 153.783775 213.101363 
L 156.158345 214.529552 
L 158.532915 215.623321 
L 160.907485 216.43244 
L 163.282055 216.852865 
L 165.656625 216.839701 
L 168.031195 216.365456 
L 170.405765 215.354351 
L 172.780335 213.854416 
L 175.154905 212.222312 
L 177.529475 210.982497 
L 179.904045 210.412703 
L 182.278615 210.409461 
L 184.653185 210.832574 
L 187.027755 211.886934 
L 189.402325 213.913874 
L 191.776895 216.380148 
L 194.151465 218.332451 
L 196.526035 219.54214 
L 198.900605 220.121488 
L 201.275175 220.178292 
L 203.649745 220.006196 
L 206.024314 220.228957 
L 208.398884 220.96346 
L 210.773454 221.50962 
L 213.148024 221.503161 
L 215.522594 221.144445 
L 217.897164 220.92576 
L 220.271734 221.262967 
L 222.646304 221.954178 
L 225.020874 222.438622 
L 229.770014 222.730351 
L 232.144584 223.267127 
L 239.268294 225.754126 
L 241.642864 226.327755 
L 244.017434 226.737145 
L 246.392004 226.996911 
L 251.141144 227.216163 
L 255.890284 227.229836 
L 258.264854 227.085552 
L 263.013994 226.413828 
L 265.388564 226.067739 
L 267.763134 225.865886 
L 272.512274 225.814781 
L 274.886844 225.974085 
L 279.635984 226.533572 
L 282.010554 226.649041 
L 291.508834 226.697794 
L 301.007114 227.266039 
L 305.756254 227.091393 
L 310.505394 226.809576 
L 315.254534 226.790119 
L 322.378244 226.888945 
L 334.251094 226.785685 
L 341.374804 226.422167 
L 353.247654 226.607757 
L 357.996794 226.625891 
L 381.742494 227.180012 
L 388.866204 227.198416 
L 399.658594 226.883931 
L 399.658594 226.883931 
" clip-path="url(#p3db15876d1)" style="fill: none; stroke: #808080; stroke-opacity: 0.5; stroke-width: 0.5; stroke-linecap: square"/>
   </g>
   <g id="line2d_40">
    <path d="M 46.928125 221.308991 
L 49.302695 222.203934 
L 51.677265 222.440266 
L 54.051835 222.189967 
L 56.426405 221.815139 
L 58.800975 221.632609 
L 61.175545 221.748339 
L 63.550115 222.099779 
L 68.299255 223.036664 
L 70.673825 223.228252 
L 73.048395 223.064066 
L 75.422965 222.558059 
L 80.172105 221.094624 
L 82.546675 220.900763 
L 84.921245 221.410756 
L 87.295815 222.198711 
L 89.670385 222.782629 
L 92.044955 222.946322 
L 94.419525 222.623714 
L 99.168665 221.048826 
L 101.543235 220.646533 
L 103.917805 221.203186 
L 106.292375 222.485635 
L 108.666945 223.384076 
L 111.041515 223.160662 
L 113.416085 221.65622 
L 118.165225 216.256275 
L 120.539795 215.466457 
L 122.914365 215.931208 
L 125.288935 215.252513 
L 127.663505 212.844313 
L 130.038075 209.824767 
L 132.412645 207.762445 
L 134.787215 207.054656 
L 137.161785 206.715949 
L 139.536355 205.848687 
L 141.910925 204.588301 
L 144.285495 203.657315 
L 146.660065 203.165231 
L 149.034635 202.210171 
L 151.409205 199.934816 
L 153.783775 197.430979 
L 156.158345 197.75661 
L 158.532915 201.596132 
L 160.907485 206.460165 
L 163.282055 210.156348 
L 165.656625 211.989841 
L 168.031195 212.260967 
L 170.405765 211.541154 
L 172.780335 210.357623 
L 175.154905 209.331864 
L 177.529475 209.242577 
L 179.904045 210.450377 
L 182.278615 212.299837 
L 184.653185 213.780683 
L 187.027755 214.581502 
L 189.402325 214.928211 
L 194.151465 214.961236 
L 196.526035 215.324655 
L 198.900605 216.448818 
L 201.275175 217.945624 
L 203.649745 219.176419 
L 206.024314 219.937012 
L 210.773454 220.989054 
L 213.148024 221.593843 
L 215.522594 222.026091 
L 217.897164 222.249954 
L 220.271734 222.601026 
L 222.646304 223.489173 
L 225.020874 224.748839 
L 227.395444 225.801606 
L 229.770014 226.434042 
L 232.144584 226.768498 
L 239.268294 227.228339 
L 246.392004 227.654341 
L 251.141144 227.542425 
L 260.639424 227.823891 
L 282.010554 226.908213 
L 286.759694 226.322371 
L 289.134264 226.181101 
L 293.883404 226.370568 
L 298.632544 226.618855 
L 303.381684 226.642882 
L 310.505394 226.59641 
L 315.254534 226.870282 
L 320.003674 227.322701 
L 322.378244 227.428532 
L 327.127384 227.294562 
L 334.251094 226.928945 
L 339.000234 226.95537 
L 343.749374 227.0797 
L 376.993354 227.108235 
L 393.615344 227.12551 
L 399.658594 226.895692 
L 399.658594 226.895692 
" clip-path="url(#p3db15876d1)" style="fill: none; stroke: #808080; stroke-opacity: 0.5; stroke-width: 0.5; stroke-linecap: square"/>
   </g>
   <g id="line2d_41">
    <path d="M 46.928125 217.657018 
L 49.302695 216.926299 
L 51.677265 216.554767 
L 54.051835 216.475048 
L 56.426405 217.109255 
L 58.800975 218.469973 
L 65.924685 223.536908 
L 68.299255 224.235689 
L 70.673825 223.943882 
L 73.048395 222.567733 
L 75.422965 219.676652 
L 80.172105 209.471436 
L 82.546675 209.69866 
L 84.921245 214.142202 
L 87.295815 218.134627 
L 89.670385 220.694024 
L 92.044955 222.069743 
L 94.419525 222.477757 
L 96.794095 222.057971 
L 99.168665 220.998488 
L 101.543235 219.699687 
L 106.292375 217.291583 
L 108.666945 215.668453 
L 111.041515 214.59785 
L 113.416085 215.187148 
L 115.790655 216.339586 
L 118.165225 216.766812 
L 120.539795 216.649796 
L 122.914365 216.978213 
L 125.288935 218.606564 
L 127.663505 220.824519 
L 130.038075 222.289545 
L 132.412645 222.702415 
L 134.787215 222.192747 
L 137.161785 220.613815 
L 139.536355 217.594879 
L 141.910925 213.234557 
L 144.285495 208.456956 
L 146.660065 204.398678 
L 149.034635 202.046891 
L 151.409205 201.854578 
L 153.783775 203.637365 
L 158.532915 209.999546 
L 160.907485 212.252871 
L 163.282055 213.384593 
L 165.656625 213.656534 
L 168.031195 213.398435 
L 172.780335 212.478354 
L 175.154905 212.427201 
L 177.529475 212.693972 
L 179.904045 212.745887 
L 182.278615 212.075178 
L 184.653185 210.637892 
L 187.027755 209.068794 
L 189.402325 208.115966 
L 191.776895 207.306912 
L 194.151465 205.515192 
L 196.526035 203.39684 
L 198.900605 203.680235 
L 203.649745 209.179097 
L 206.024314 210.330811 
L 208.398884 210.174035 
L 210.773454 210.456501 
L 213.148024 212.291901 
L 215.522594 214.765692 
L 217.897164 216.965989 
L 225.020874 222.736653 
L 227.395444 224.185231 
L 229.770014 224.996953 
L 232.144584 225.360054 
L 241.642864 225.987383 
L 244.017434 226.273456 
L 251.141144 227.372564 
L 253.515714 227.473097 
L 258.264854 227.289819 
L 267.763134 226.928948 
L 272.512274 226.718096 
L 277.261414 226.261585 
L 284.385124 225.192977 
L 286.759694 225.186947 
L 293.883404 226.253346 
L 303.381684 226.612775 
L 308.130824 226.983136 
L 329.501954 227.409243 
L 336.625664 227.070491 
L 341.374804 226.722515 
L 343.749374 226.681407 
L 353.247654 227.066275 
L 369.869644 226.96311 
L 374.618784 226.919633 
L 379.367924 226.855374 
L 386.491634 227.165052 
L 391.240774 227.309338 
L 395.989914 227.291184 
L 399.658594 227.162832 
L 399.658594 227.162832 
" clip-path="url(#p3db15876d1)" style="fill: none; stroke: #808080; stroke-opacity: 0.5; stroke-width: 0.5; stroke-linecap: square"/>
   </g>
   <g id="line2d_42">
    <path d="M 46.928125 225.841923 
L 49.302695 224.374957 
L 51.677265 222.218804 
L 54.051835 219.638082 
L 56.426405 217.663021 
L 58.800975 217.320652 
L 61.175545 218.821205 
L 65.924685 224.050124 
L 68.299255 225.617686 
L 70.673825 226.212303 
L 73.048395 226.109703 
L 75.422965 225.522437 
L 80.172105 223.651867 
L 82.546675 223.242365 
L 84.921245 223.585313 
L 87.295815 224.098533 
L 89.670385 224.189851 
L 92.044955 223.633831 
L 94.419525 222.638672 
L 96.794095 221.82269 
L 99.168665 221.493933 
L 101.543235 221.299024 
L 103.917805 220.979099 
L 106.292375 221.108248 
L 108.666945 222.26903 
L 111.041515 223.624815 
L 113.416085 224.479436 
L 115.790655 224.737942 
L 118.165225 224.374266 
L 120.539795 223.462934 
L 122.914365 222.404736 
L 125.288935 221.640766 
L 127.663505 221.250284 
L 130.038075 221.044824 
L 132.412645 220.678348 
L 134.787215 219.671084 
L 137.161785 217.621555 
L 139.536355 214.725774 
L 141.910925 212.642448 
L 144.285495 213.198559 
L 146.660065 215.19656 
L 149.034635 216.803153 
L 151.409205 217.500808 
L 153.783775 217.305947 
L 156.158345 216.414416 
L 158.532915 215.251765 
L 160.907485 214.23465 
L 163.282055 213.452193 
L 165.656625 212.910599 
L 168.031195 212.748371 
L 172.780335 213.24794 
L 175.154905 213.044711 
L 177.529475 211.996015 
L 179.904045 210.503471 
L 182.278615 209.504808 
L 184.653185 209.606913 
L 187.027755 210.670206 
L 191.776895 213.522224 
L 194.151465 214.340702 
L 196.526035 214.16231 
L 198.900605 213.087334 
L 201.275175 212.250671 
L 203.649745 212.727585 
L 210.773454 216.977849 
L 217.897164 220.642041 
L 220.271734 221.455774 
L 222.646304 221.827771 
L 225.020874 221.830061 
L 232.144584 221.049442 
L 234.519154 221.203569 
L 236.893724 221.637874 
L 239.268294 222.282826 
L 246.392004 224.574942 
L 248.766574 225.127785 
L 253.515714 225.897372 
L 255.890284 226.07554 
L 258.264854 226.061497 
L 260.639424 225.868733 
L 265.388564 225.241652 
L 267.763134 225.219947 
L 274.886844 226.376561 
L 279.635984 226.579916 
L 291.508834 226.991385 
L 293.883404 226.91862 
L 298.632544 226.415635 
L 301.007114 226.059941 
L 303.381684 225.817508 
L 305.756254 225.860488 
L 310.505394 226.298538 
L 315.254534 226.386536 
L 322.378244 226.124121 
L 324.752814 226.052759 
L 327.127384 226.136442 
L 331.876524 226.593368 
L 334.251094 226.673412 
L 341.374804 226.319062 
L 343.749374 226.397829 
L 353.247654 227.285899 
L 357.996794 227.332089 
L 365.120504 227.182147 
L 374.618784 226.77573 
L 379.367924 226.954005 
L 384.117064 227.141006 
L 399.658594 227.052249 
L 399.658594 227.052249 
" clip-path="url(#p3db15876d1)" style="fill: none; stroke: #808080; stroke-opacity: 0.5; stroke-width: 0.5; stroke-linecap: square"/>
   </g>
   <g id="line2d_43">
    <path d="M 46.928125 223.972226 
L 58.800975 225.26692 
L 63.550115 225.207701 
L 70.673825 224.909933 
L 84.921245 224.717587 
L 87.295815 224.524866 
L 89.670385 224.068836 
L 92.044955 223.239127 
L 94.419525 221.996064 
L 99.168665 218.684445 
L 101.543235 217.609205 
L 103.917805 217.525492 
L 106.292375 217.844049 
L 108.666945 217.839874 
L 111.041515 217.281793 
L 113.416085 216.340987 
L 115.790655 215.254548 
L 118.165225 213.955086 
L 120.539795 212.02565 
L 122.914365 208.935942 
L 125.288935 204.281438 
L 127.663505 198.168763 
L 130.038075 191.615531 
L 132.412645 185.896994 
L 134.787215 181.270642 
L 137.161785 177.279286 
L 139.536355 173.691112 
L 141.910925 170.387168 
L 144.285495 166.868582 
L 146.660065 162.456348 
L 149.034635 157.568349 
L 151.409205 156.370938 
L 153.783775 164.838084 
L 156.158345 179.004352 
L 158.532915 190.261128 
L 160.907485 196.474001 
L 163.282055 198.660098 
L 165.656625 197.812486 
L 168.031195 194.688121 
L 170.405765 190.518639 
L 172.780335 187.896904 
L 175.154905 190.263474 
L 177.529475 198.148275 
L 179.904045 207.500892 
L 182.278615 214.467422 
L 184.653185 218.21841 
L 187.027755 219.66566 
L 189.402325 220.234182 
L 191.776895 221.145293 
L 196.526035 224.056813 
L 198.900605 225.151507 
L 201.275175 225.899611 
L 203.649745 226.410605 
L 206.024314 226.751451 
L 208.398884 226.951578 
L 213.148024 227.056237 
L 225.020874 227.021753 
L 234.519154 227.516146 
L 241.642864 227.811545 
L 246.392004 227.895859 
L 248.766574 227.757152 
L 251.141144 227.421295 
L 258.264854 225.834938 
L 260.639424 225.598369 
L 263.013994 225.48141 
L 265.388564 225.494743 
L 267.763134 225.785183 
L 272.512274 226.848633 
L 274.886844 227.145064 
L 277.261414 227.194733 
L 279.635984 227.009098 
L 284.385124 226.156623 
L 289.134264 225.259516 
L 293.883404 224.063353 
L 296.257974 223.767342 
L 298.632544 224.074335 
L 305.756254 226.366226 
L 308.130824 226.767376 
L 310.505394 226.910603 
L 317.629104 226.70763 
L 322.378244 226.57863 
L 324.752814 226.649797 
L 329.501954 227.071844 
L 331.876524 227.121405 
L 336.625664 226.778996 
L 339.000234 226.570788 
L 343.749374 226.511566 
L 348.498514 226.583004 
L 353.247654 226.991285 
L 355.622224 227.202266 
L 357.996794 227.270476 
L 362.745934 227.038928 
L 367.495074 226.761093 
L 381.742494 226.741984 
L 395.989914 226.258505 
L 399.658594 226.448606 
L 399.658594 226.448606 
" clip-path="url(#p3db15876d1)" style="fill: none; stroke: #808080; stroke-opacity: 0.5; stroke-width: 0.5; stroke-linecap: square"/>
   </g>
   <g id="line2d_44">
    <path d="M 46.928125 221.575992 
L 49.302695 221.282188 
L 51.677265 221.518911 
L 58.800975 223.421441 
L 61.175545 223.729209 
L 73.048395 224.559882 
L 75.422965 224.395944 
L 77.797535 223.937084 
L 84.921245 222.029324 
L 99.168665 219.029318 
L 101.543235 218.356309 
L 103.917805 216.883162 
L 106.292375 213.710672 
L 108.666945 207.15791 
L 111.041515 193.98351 
L 113.416085 169.384753 
L 115.790655 132.153205 
L 118.165225 92.44908 
L 120.539795 60.93681 
L 122.914365 38.234126 
L 125.288935 22.945444 
L 127.663505 17.724047 
L 130.038075 42.274845 
L 132.412645 108.419549 
L 134.787215 163.487246 
L 137.161785 187.938825 
L 139.536355 196.523854 
L 141.910925 198.338057 
L 144.285495 196.526578 
L 146.660065 192.198267 
L 149.034635 186.887247 
L 151.409205 184.300669 
L 153.783775 188.027858 
L 156.158345 195.591633 
L 158.532915 201.293805 
L 160.907485 202.476861 
L 163.282055 199.467958 
L 165.656625 195.043369 
L 168.031195 193.43778 
L 170.405765 195.036289 
L 172.780335 197.872865 
L 175.154905 202.171654 
L 177.529475 207.698988 
L 179.904045 212.902725 
L 182.278615 216.822653 
L 184.653185 219.408977 
L 187.027755 220.992957 
L 189.402325 222.005097 
L 194.151465 223.517184 
L 196.526035 224.092306 
L 198.900605 224.462129 
L 203.649745 224.871484 
L 206.024314 225.297753 
L 210.773454 226.610636 
L 213.148024 227.114804 
L 215.522594 227.420017 
L 220.271734 227.638077 
L 225.020874 227.612422 
L 227.395444 227.475786 
L 229.770014 227.203899 
L 232.144584 226.775169 
L 236.893724 225.67553 
L 239.268294 225.323286 
L 241.642864 225.266835 
L 244.017434 225.492395 
L 251.141144 226.659905 
L 255.890284 227.088025 
L 260.639424 227.275839 
L 265.388564 227.187265 
L 274.886844 226.733313 
L 279.635984 226.812474 
L 284.385124 227.098749 
L 289.134264 227.070329 
L 293.883404 226.685715 
L 301.007114 225.783277 
L 305.756254 225.138106 
L 308.130824 225.182347 
L 312.879964 225.946976 
L 315.254534 226.137088 
L 317.629104 226.047639 
L 324.752814 224.980016 
L 327.127384 224.896342 
L 336.625664 225.308189 
L 341.374804 225.104209 
L 343.749374 225.220243 
L 348.498514 225.804471 
L 355.622224 226.417586 
L 360.371364 226.866091 
L 362.745934 226.87091 
L 369.869644 226.539991 
L 379.367924 226.936138 
L 386.491634 226.816365 
L 393.615344 226.655393 
L 399.658594 226.763487 
L 399.658594 226.763487 
" clip-path="url(#p3db15876d1)" style="fill: none; stroke: #808080; stroke-opacity: 0.5; stroke-width: 0.5; stroke-linecap: square"/>
   </g>
   <g id="line2d_45">
    <path d="M 46.928125 224.288015 
L 49.302695 223.617029 
L 51.677265 222.777696 
L 54.051835 221.796971 
L 56.426405 220.97392 
L 58.800975 221.201822 
L 61.175545 222.703047 
L 63.550115 224.35878 
L 65.924685 225.461725 
L 68.299255 225.962168 
L 70.673825 226.014439 
L 75.422965 225.847212 
L 77.797535 225.817305 
L 80.172105 225.54071 
L 82.546675 224.686297 
L 84.921245 222.945421 
L 87.295815 220.905207 
L 89.670385 220.808865 
L 92.044955 222.47847 
L 94.419525 223.811711 
L 96.794095 224.096343 
L 99.168665 223.397546 
L 101.543235 222.395978 
L 103.917805 221.936358 
L 108.666945 222.097961 
L 111.041515 221.752348 
L 113.416085 220.728684 
L 118.165225 217.803159 
L 120.539795 216.962166 
L 125.288935 215.960895 
L 127.663505 215.338626 
L 130.038075 215.123491 
L 134.787215 215.634369 
L 139.536355 215.753216 
L 141.910925 216.135695 
L 146.660065 217.136664 
L 149.034635 217.602806 
L 151.409205 218.234945 
L 153.783775 218.697359 
L 156.158345 218.380372 
L 158.532915 216.981321 
L 163.282055 212.497751 
L 165.656625 211.099337 
L 168.031195 211.045877 
L 170.405765 211.988555 
L 172.780335 213.059179 
L 175.154905 213.493547 
L 177.529475 213.080316 
L 179.904045 212.474573 
L 182.278615 212.500621 
L 184.653185 213.177361 
L 187.027755 214.228997 
L 194.151465 217.979335 
L 196.526035 218.755024 
L 198.900605 219.082777 
L 203.649745 218.919524 
L 206.024314 219.320712 
L 208.398884 220.306368 
L 210.773454 221.506199 
L 213.148024 222.509448 
L 215.522594 223.012305 
L 217.897164 222.795666 
L 220.271734 221.804593 
L 225.020874 218.578885 
L 227.395444 217.717063 
L 229.770014 218.762601 
L 232.144584 220.846662 
L 234.519154 222.419708 
L 236.893724 223.319816 
L 239.268294 223.988214 
L 246.392004 226.335129 
L 248.766574 226.69915 
L 251.141144 226.835711 
L 258.264854 226.825526 
L 263.013994 226.69205 
L 267.763134 226.194412 
L 270.137704 225.941826 
L 272.512274 225.908726 
L 277.261414 226.468285 
L 279.635984 226.730262 
L 282.010554 226.81149 
L 284.385124 226.696151 
L 291.508834 225.96456 
L 296.257974 226.061128 
L 301.007114 226.227247 
L 308.130824 226.725205 
L 310.505394 226.681284 
L 317.629104 226.287496 
L 322.378244 226.293043 
L 324.752814 226.369657 
L 329.501954 226.836479 
L 331.876524 227.069472 
L 334.251094 227.179333 
L 339.000234 227.075988 
L 343.749374 226.968001 
L 357.996794 226.92597 
L 362.745934 226.846366 
L 367.495074 227.063288 
L 374.618784 227.449941 
L 381.742494 227.476774 
L 395.989914 227.325614 
L 399.658594 227.202318 
L 399.658594 227.202318 
" clip-path="url(#p3db15876d1)" style="fill: none; stroke: #808080; stroke-opacity: 0.5; stroke-width: 0.5; stroke-linecap: square"/>
   </g>
   <g id="line2d_46">
    <path d="M 46.928125 218.670313 
L 49.302695 219.268852 
L 54.051835 219.627594 
L 56.426405 220.117965 
L 63.550115 222.43937 
L 65.924685 222.863174 
L 68.299255 223.066206 
L 73.048395 223.203495 
L 77.797535 223.528276 
L 80.172105 223.124353 
L 82.546675 222.155764 
L 99.168665 213.162046 
L 101.543235 213.584836 
L 103.917805 215.138622 
L 106.292375 216.105545 
L 108.666945 215.807795 
L 111.041515 214.300234 
L 113.416085 212.266484 
L 115.790655 211.599004 
L 118.165225 213.546237 
L 120.539795 216.397401 
L 122.914365 218.417143 
L 125.288935 219.139298 
L 127.663505 218.313377 
L 130.038075 215.679314 
L 132.412645 212.037054 
L 134.787215 209.674118 
L 137.161785 209.466314 
L 141.910925 211.121876 
L 144.285495 211.613966 
L 146.660065 211.646717 
L 151.409205 210.982467 
L 153.783775 210.352433 
L 156.158345 208.745005 
L 158.532915 205.7889 
L 160.907485 202.182779 
L 163.282055 199.524145 
L 165.656625 199.006541 
L 168.031195 200.474487 
L 172.780335 205.350211 
L 175.154905 207.2716 
L 179.904045 209.980024 
L 182.278615 211.985496 
L 184.653185 214.13944 
L 187.027755 215.478458 
L 189.402325 215.695459 
L 191.776895 215.174034 
L 194.151465 214.915603 
L 196.526035 216.097892 
L 198.900605 218.266293 
L 201.275175 219.935124 
L 203.649745 220.72384 
L 206.024314 221.114875 
L 208.398884 221.757717 
L 213.148024 223.850573 
L 215.522594 224.495374 
L 217.897164 224.753108 
L 220.271734 224.728033 
L 227.395444 224.064005 
L 229.770014 224.229334 
L 232.144584 224.755132 
L 234.519154 225.417094 
L 236.893724 225.940884 
L 239.268294 226.17871 
L 246.392004 226.143122 
L 251.141144 227.159337 
L 253.515714 227.424032 
L 255.890284 227.381762 
L 263.013994 226.509465 
L 265.388564 226.478349 
L 274.886844 226.970803 
L 277.261414 226.887952 
L 279.635984 226.670202 
L 286.759694 225.761915 
L 289.134264 225.770504 
L 293.883404 226.030095 
L 301.007114 226.093319 
L 312.879964 226.788766 
L 317.629104 226.679162 
L 322.378244 226.599811 
L 327.127384 226.620201 
L 334.251094 226.415326 
L 343.749374 227.042193 
L 381.742494 227.126088 
L 395.989914 227.033838 
L 399.658594 226.86788 
L 399.658594 226.86788 
" clip-path="url(#p3db15876d1)" style="fill: none; stroke: #808080; stroke-opacity: 0.5; stroke-width: 0.5; stroke-linecap: square"/>
   </g>
   <g id="line2d_47">
    <path d="M 46.928125 224.037209 
L 49.302695 224.478019 
L 51.677265 224.632518 
L 54.051835 224.557144 
L 56.426405 224.300307 
L 58.800975 223.87806 
L 61.175545 223.264277 
L 63.550115 222.426831 
L 65.924685 221.438398 
L 68.299255 220.609236 
L 70.673825 220.377661 
L 73.048395 220.836694 
L 75.422965 221.590381 
L 77.797535 222.205996 
L 80.172105 222.52064 
L 87.295815 222.870426 
L 89.670385 223.040374 
L 92.044955 223.084409 
L 94.419525 222.950064 
L 96.794095 222.679347 
L 99.168665 222.28905 
L 101.543235 221.630291 
L 103.917805 220.445536 
L 108.666945 216.835762 
L 111.041515 215.609462 
L 113.416085 215.225958 
L 115.790655 215.223325 
L 118.165225 214.860342 
L 120.539795 213.634493 
L 122.914365 211.349648 
L 125.288935 207.996922 
L 127.663505 204.062684 
L 130.038075 200.70744 
L 132.412645 198.406173 
L 134.787215 195.931849 
L 139.536355 188.871423 
L 141.910925 187.19731 
L 144.285495 188.442338 
L 149.034635 194.708598 
L 151.409205 196.273943 
L 153.783775 196.213659 
L 156.158345 194.907616 
L 158.532915 192.985627 
L 160.907485 192.144474 
L 163.282055 195.196247 
L 165.656625 201.695185 
L 168.031195 207.775735 
L 170.405765 211.849396 
L 172.780335 214.545511 
L 175.154905 216.713882 
L 177.529475 218.456851 
L 179.904045 219.384004 
L 182.278615 219.406386 
L 184.653185 218.951034 
L 187.027755 219.02667 
L 189.402325 220.296793 
L 191.776895 221.815279 
L 194.151465 222.610737 
L 196.526035 222.704442 
L 198.900605 222.584937 
L 201.275175 222.756836 
L 203.649745 223.370943 
L 208.398884 224.950545 
L 210.773454 225.507064 
L 213.148024 225.860537 
L 215.522594 226.035965 
L 217.897164 226.048419 
L 220.271734 225.907139 
L 225.020874 225.305112 
L 227.395444 224.976782 
L 229.770014 224.773829 
L 232.144584 224.880963 
L 239.268294 226.320616 
L 244.017434 226.658833 
L 248.766574 227.04495 
L 253.515714 227.349269 
L 265.388564 227.478571 
L 270.137704 227.372255 
L 274.886844 226.915947 
L 279.635984 226.249683 
L 284.385124 225.958725 
L 291.508834 225.825913 
L 293.883404 225.518035 
L 296.257974 225.092444 
L 298.632544 225.005201 
L 305.756254 225.648172 
L 312.879964 225.920681 
L 320.003674 226.066111 
L 324.752814 226.314608 
L 329.501954 226.278963 
L 334.251094 226.175834 
L 336.625664 226.22884 
L 341.374804 226.570669 
L 343.749374 226.602971 
L 346.123944 226.421575 
L 350.873084 225.827547 
L 353.247654 225.794465 
L 355.622224 226.073329 
L 357.996794 226.502213 
L 360.371364 226.813287 
L 362.745934 226.888842 
L 367.495074 226.506524 
L 369.869644 226.321841 
L 374.618784 226.349371 
L 381.742494 226.820288 
L 386.491634 227.07784 
L 395.989914 227.240784 
L 399.658594 227.224916 
L 399.658594 227.224916 
" clip-path="url(#p3db15876d1)" style="fill: none; stroke: #808080; stroke-opacity: 0.5; stroke-width: 0.5; stroke-linecap: square"/>
   </g>
   <g id="line2d_48">
    <path d="M 46.928125 224.645472 
L 49.302695 224.090347 
L 51.677265 223.416387 
L 54.051835 223.134094 
L 56.426405 223.220519 
L 61.175545 223.678778 
L 63.550115 223.686201 
L 65.924685 223.242845 
L 68.299255 222.40536 
L 70.673825 221.900864 
L 75.422965 222.170987 
L 77.797535 221.846565 
L 80.172105 220.804281 
L 82.546675 219.431545 
L 84.921245 218.515427 
L 87.295815 218.079764 
L 89.670385 217.51964 
L 92.044955 216.723022 
L 94.419525 216.205926 
L 96.794095 216.00198 
L 99.168665 215.361639 
L 101.543235 213.765872 
L 103.917805 211.858053 
L 106.292375 210.637762 
L 108.666945 209.655813 
L 111.041515 207.748603 
L 113.416085 204.764219 
L 115.790655 202.117527 
L 118.165225 201.112712 
L 120.539795 201.231382 
L 125.288935 201.649353 
L 127.663505 201.689005 
L 130.038075 200.878 
L 132.412645 198.380538 
L 134.787215 194.500237 
L 137.161785 191.498433 
L 139.536355 192.096873 
L 141.910925 196.092345 
L 144.285495 200.680209 
L 146.660065 203.553317 
L 149.034635 203.850605 
L 151.409205 202.23352 
L 153.783775 200.857625 
L 156.158345 201.302393 
L 158.532915 203.160741 
L 163.282055 208.121543 
L 165.656625 210.229669 
L 168.031195 211.477964 
L 170.405765 211.848177 
L 172.780335 211.880397 
L 175.154905 212.473006 
L 177.529475 214.252234 
L 182.278615 219.378002 
L 184.653185 221.203889 
L 187.027755 222.367047 
L 196.526035 225.64466 
L 198.900605 226.159254 
L 201.275175 226.300907 
L 206.024314 226.040287 
L 208.398884 226.06238 
L 220.271734 227.031663 
L 225.020874 227.013502 
L 227.395444 226.887787 
L 229.770014 226.891711 
L 236.893724 227.438334 
L 239.268294 227.327705 
L 246.392004 226.424781 
L 248.766574 226.497569 
L 253.515714 227.088576 
L 255.890284 227.168123 
L 258.264854 227.041503 
L 263.013994 226.54771 
L 267.763134 226.390746 
L 272.512274 226.300269 
L 277.261414 225.84722 
L 282.010554 225.328778 
L 284.385124 225.235031 
L 286.759694 225.338668 
L 291.508834 225.758554 
L 296.257974 225.723242 
L 298.632544 225.735753 
L 310.505394 226.562479 
L 315.254534 226.407554 
L 320.003674 226.104883 
L 322.378244 226.042896 
L 324.752814 226.112979 
L 334.251094 226.799075 
L 341.374804 227.128915 
L 343.749374 227.116291 
L 353.247654 226.70542 
L 357.996794 226.815941 
L 365.120504 226.729992 
L 391.240774 227.147528 
L 399.658594 226.9656 
L 399.658594 226.9656 
" clip-path="url(#p3db15876d1)" style="fill: none; stroke: #808080; stroke-opacity: 0.5; stroke-width: 0.5; stroke-linecap: square"/>
   </g>
   <g id="line2d_49">
    <path d="M 46.928125 224.689756 
L 56.426405 223.849268 
L 61.175545 224.068491 
L 68.299255 224.523304 
L 73.048395 224.363152 
L 77.797535 223.840711 
L 82.546675 223.149074 
L 87.295815 222.888098 
L 89.670385 222.815309 
L 92.044955 222.618998 
L 94.419525 222.201344 
L 99.168665 221.020386 
L 101.543235 220.664659 
L 106.292375 220.238462 
L 108.666945 219.711362 
L 111.041515 218.767594 
L 118.165225 215.009795 
L 120.539795 213.977546 
L 130.038075 210.624029 
L 132.412645 209.915139 
L 137.161785 208.817172 
L 141.910925 207.576303 
L 146.660065 206.818018 
L 149.034635 206.489256 
L 151.409205 206.305459 
L 153.783775 206.573848 
L 156.158345 207.356747 
L 158.532915 208.290537 
L 160.907485 209.040725 
L 163.282055 209.48021 
L 165.656625 209.551614 
L 168.031195 209.293139 
L 170.405765 208.898657 
L 172.780335 208.715016 
L 175.154905 209.109906 
L 177.529475 210.1895 
L 182.278615 213.017803 
L 184.653185 213.987509 
L 189.402325 215.174503 
L 191.776895 215.976163 
L 194.151465 217.031484 
L 198.900605 219.363576 
L 201.275175 220.338964 
L 203.649745 221.101202 
L 215.522594 224.180902 
L 217.897164 224.635566 
L 222.646304 225.175594 
L 234.519154 225.886522 
L 241.642864 226.586836 
L 248.766574 227.093745 
L 253.515714 227.206208 
L 258.264854 227.058787 
L 267.763134 226.546144 
L 282.010554 226.310302 
L 286.759694 226.099186 
L 291.508834 226.140922 
L 301.007114 226.242518 
L 331.876524 226.654932 
L 346.123944 226.634701 
L 357.996794 226.995321 
L 367.495074 226.965439 
L 376.993354 226.979656 
L 388.866204 227.042757 
L 399.658594 226.970006 
L 399.658594 226.970006 
" clip-path="url(#p3db15876d1)" style="fill: none; stroke: #000000; stroke-width: 1.5; stroke-linecap: square"/>
   </g>
   <g id="line2d_50">
    <defs>
     <path id="ma9fc9df584" d="M 0 2.5 
C 0.663008 2.5 1.29895 2.236584 1.767767 1.767767 
C 2.236584 1.29895 2.5 0.663008 2.5 0 
C 2.5 -0.663008 2.236584 -1.29895 1.767767 -1.767767 
C 1.29895 -2.236584 0.663008 -2.5 0 -2.5 
C -0.663008 -2.5 -1.29895 -2.236584 -1.767767 -1.767767 
C -2.236584 -1.29895 -2.5 -0.663008 -2.5 0 
C -2.5 0.663008 -2.236584 1.29895 -1.767767 1.767767 
C -1.29895 2.236584 -0.663008 2.5 0 2.5 
z
" style="stroke: #ffffff; stroke-width: 0.5"/>
    </defs>
    <g clip-path="url(#p3db15876d1)">
     <use xlink:href="#ma9fc9df584" x="151.409205" y="206.305459" style="fill: #ff0000; stroke: #ffffff; stroke-width: 0.5"/>
    </g>
   </g>
   <g id="patch_3">
    <path d="M 46.928125 228.96 
L 46.928125 7.2 
" style="fill: none; stroke: #000000; stroke-width: 0.8; stroke-linejoin: miter; stroke-linecap: square"/>
   </g>
   <g id="patch_4">
    <path d="M 46.928125 228.96 
L 381.728125 228.96 
" style="fill: none; stroke: #000000; stroke-width: 0.8; stroke-linejoin: miter; stroke-linecap: square"/>
   </g>
  </g>
 </g>
 <defs>
  <clipPath id="p3db15876d1">
   <rect x="46.928125" y="7.2" width="334.8" height="221.76"/>
  </clipPath>
 </defs>
</svg>
